%TF.GenerationSoftware,KiCad,Pcbnew,(5.1.9-0-10_14)*%
%TF.CreationDate,2021-02-08T19:19:02+02:00*%
%TF.ProjectId,SH-RPi,53482d52-5069-42e6-9b69-6361645f7063,revM*%
%TF.SameCoordinates,Original*%
%TF.FileFunction,Legend,Bot*%
%TF.FilePolarity,Positive*%
%FSLAX46Y46*%
G04 Gerber Fmt 4.6, Leading zero omitted, Abs format (unit mm)*
G04 Created by KiCad (PCBNEW (5.1.9-0-10_14)) date 2021-02-08 19:19:02*
%MOMM*%
%LPD*%
G01*
G04 APERTURE LIST*
%ADD10C,0.400000*%
%ADD11C,0.010000*%
G04 APERTURE END LIST*
D10*
X74011904Y-83723809D02*
X74011904Y-82123809D01*
X73402380Y-82123809D01*
X73250000Y-82200000D01*
X73173809Y-82276190D01*
X73097619Y-82428571D01*
X73097619Y-82657142D01*
X73173809Y-82809523D01*
X73250000Y-82885714D01*
X73402380Y-82961904D01*
X74011904Y-82961904D01*
X72183333Y-83723809D02*
X72335714Y-83647619D01*
X72411904Y-83571428D01*
X72488095Y-83419047D01*
X72488095Y-82961904D01*
X72411904Y-82809523D01*
X72335714Y-82733333D01*
X72183333Y-82657142D01*
X71954761Y-82657142D01*
X71802380Y-82733333D01*
X71726190Y-82809523D01*
X71650000Y-82961904D01*
X71650000Y-83419047D01*
X71726190Y-83571428D01*
X71802380Y-83647619D01*
X71954761Y-83723809D01*
X72183333Y-83723809D01*
X71116666Y-82657142D02*
X70811904Y-83723809D01*
X70507142Y-82961904D01*
X70202380Y-83723809D01*
X69897619Y-82657142D01*
X68678571Y-83647619D02*
X68830952Y-83723809D01*
X69135714Y-83723809D01*
X69288095Y-83647619D01*
X69364285Y-83495238D01*
X69364285Y-82885714D01*
X69288095Y-82733333D01*
X69135714Y-82657142D01*
X68830952Y-82657142D01*
X68678571Y-82733333D01*
X68602380Y-82885714D01*
X68602380Y-83038095D01*
X69364285Y-83190476D01*
X67916666Y-83723809D02*
X67916666Y-82657142D01*
X67916666Y-82961904D02*
X67840476Y-82809523D01*
X67764285Y-82733333D01*
X67611904Y-82657142D01*
X67459523Y-82657142D01*
X92278571Y-82171428D02*
X92354761Y-82247619D01*
X92583333Y-82323809D01*
X92735714Y-82323809D01*
X92964285Y-82247619D01*
X93116666Y-82095238D01*
X93192857Y-81942857D01*
X93269047Y-81638095D01*
X93269047Y-81409523D01*
X93192857Y-81104761D01*
X93116666Y-80952380D01*
X92964285Y-80800000D01*
X92735714Y-80723809D01*
X92583333Y-80723809D01*
X92354761Y-80800000D01*
X92278571Y-80876190D01*
X91669047Y-81866666D02*
X90907142Y-81866666D01*
X91821428Y-82323809D02*
X91288095Y-80723809D01*
X90754761Y-82323809D01*
X90221428Y-82323809D02*
X90221428Y-80723809D01*
X89307142Y-82323809D01*
X89307142Y-80723809D01*
X97688095Y-85123809D02*
X97688095Y-83523809D01*
X96773809Y-85123809D01*
X96773809Y-83523809D01*
X96011904Y-85123809D02*
X96011904Y-83523809D01*
X95478571Y-84666666D01*
X94945238Y-83523809D01*
X94945238Y-85123809D01*
X94183333Y-84285714D02*
X93650000Y-84285714D01*
X93421428Y-85123809D02*
X94183333Y-85123809D01*
X94183333Y-83523809D01*
X93421428Y-83523809D01*
X92811904Y-84666666D02*
X92050000Y-84666666D01*
X92964285Y-85123809D02*
X92430952Y-83523809D01*
X91897619Y-85123809D01*
X90221428Y-83676190D02*
X90145238Y-83600000D01*
X89992857Y-83523809D01*
X89611904Y-83523809D01*
X89459523Y-83600000D01*
X89383333Y-83676190D01*
X89307142Y-83828571D01*
X89307142Y-83980952D01*
X89383333Y-84209523D01*
X90297619Y-85123809D01*
X89307142Y-85123809D01*
X88316666Y-83523809D02*
X88164285Y-83523809D01*
X88011904Y-83600000D01*
X87935714Y-83676190D01*
X87859523Y-83828571D01*
X87783333Y-84133333D01*
X87783333Y-84514285D01*
X87859523Y-84819047D01*
X87935714Y-84971428D01*
X88011904Y-85047619D01*
X88164285Y-85123809D01*
X88316666Y-85123809D01*
X88469047Y-85047619D01*
X88545238Y-84971428D01*
X88621428Y-84819047D01*
X88697619Y-84514285D01*
X88697619Y-84133333D01*
X88621428Y-83828571D01*
X88545238Y-83676190D01*
X88469047Y-83600000D01*
X88316666Y-83523809D01*
X86792857Y-83523809D02*
X86640476Y-83523809D01*
X86488095Y-83600000D01*
X86411904Y-83676190D01*
X86335714Y-83828571D01*
X86259523Y-84133333D01*
X86259523Y-84514285D01*
X86335714Y-84819047D01*
X86411904Y-84971428D01*
X86488095Y-85047619D01*
X86640476Y-85123809D01*
X86792857Y-85123809D01*
X86945238Y-85047619D01*
X87021428Y-84971428D01*
X87097619Y-84819047D01*
X87173809Y-84514285D01*
X87173809Y-84133333D01*
X87097619Y-83828571D01*
X87021428Y-83676190D01*
X86945238Y-83600000D01*
X86792857Y-83523809D01*
X85269047Y-83523809D02*
X85116666Y-83523809D01*
X84964285Y-83600000D01*
X84888095Y-83676190D01*
X84811904Y-83828571D01*
X84735714Y-84133333D01*
X84735714Y-84514285D01*
X84811904Y-84819047D01*
X84888095Y-84971428D01*
X84964285Y-85047619D01*
X85116666Y-85123809D01*
X85269047Y-85123809D01*
X85421428Y-85047619D01*
X85497619Y-84971428D01*
X85573809Y-84819047D01*
X85650000Y-84514285D01*
X85650000Y-84133333D01*
X85573809Y-83828571D01*
X85497619Y-83676190D01*
X85421428Y-83600000D01*
X85269047Y-83523809D01*
D11*
%TO.C,G\u002A\u002A\u002A*%
G36*
X88247637Y-44102313D02*
G01*
X86939555Y-44232372D01*
X85648300Y-44478467D01*
X84382795Y-44839800D01*
X83151959Y-45315571D01*
X81964714Y-45904983D01*
X81075750Y-46442387D01*
X79963839Y-47245525D01*
X78943672Y-48134760D01*
X78018325Y-49105270D01*
X77190872Y-50152229D01*
X76464390Y-51270813D01*
X75841953Y-52456198D01*
X75326638Y-53703560D01*
X74921519Y-55008075D01*
X74629673Y-56364917D01*
X74588846Y-56618000D01*
X74532661Y-57102233D01*
X74495005Y-57676537D01*
X74475879Y-58305343D01*
X74475282Y-58953081D01*
X74493213Y-59584181D01*
X74529674Y-60163072D01*
X74584664Y-60654186D01*
X74588846Y-60682000D01*
X74857603Y-62035633D01*
X75241375Y-63347980D01*
X75736565Y-64610712D01*
X76339577Y-65815501D01*
X77046815Y-66954018D01*
X77645749Y-67762250D01*
X78453374Y-68680768D01*
X79363084Y-69545928D01*
X80356409Y-70344322D01*
X81414880Y-71062538D01*
X82520026Y-71687167D01*
X83653380Y-72204799D01*
X83894147Y-72298997D01*
X84909993Y-72633022D01*
X86001009Y-72897581D01*
X87133003Y-73087775D01*
X88271782Y-73198704D01*
X89383154Y-73225470D01*
X90124500Y-73191661D01*
X91482969Y-73023770D01*
X92805935Y-72735130D01*
X94087591Y-72328354D01*
X95322129Y-71806051D01*
X96503742Y-71170831D01*
X97626621Y-70425306D01*
X98684961Y-69572085D01*
X99165439Y-69127849D01*
X100102652Y-68136571D01*
X100936630Y-67074361D01*
X101664107Y-65946828D01*
X102281822Y-64759581D01*
X102786512Y-63518229D01*
X103171775Y-62240865D01*
X103367297Y-61365183D01*
X103500607Y-60521200D01*
X103577728Y-59659436D01*
X103604677Y-58730414D01*
X103604815Y-58681750D01*
X103561460Y-57438583D01*
X103423994Y-56256747D01*
X103187921Y-55107587D01*
X102877956Y-54049122D01*
X102732779Y-53640420D01*
X102570887Y-53228614D01*
X102402224Y-52835203D01*
X102236736Y-52481685D01*
X102084367Y-52189558D01*
X101955064Y-51980321D01*
X101879667Y-51891129D01*
X101687479Y-51793669D01*
X101381458Y-51742125D01*
X101362817Y-51740709D01*
X101146337Y-51730180D01*
X101007227Y-51748340D01*
X100896519Y-51810895D01*
X100766954Y-51931846D01*
X100567814Y-52206197D01*
X100490558Y-52503716D01*
X100537568Y-52813969D01*
X100555109Y-52860044D01*
X100825049Y-53526130D01*
X101048023Y-54097768D01*
X101230414Y-54595763D01*
X101378603Y-55040919D01*
X101498973Y-55454042D01*
X101597904Y-55855935D01*
X101681780Y-56267404D01*
X101756982Y-56709252D01*
X101778305Y-56847526D01*
X101834024Y-57341092D01*
X101868814Y-57920537D01*
X101882673Y-58546478D01*
X101875605Y-59179531D01*
X101847608Y-59780310D01*
X101798685Y-60309434D01*
X101778226Y-60459750D01*
X101526820Y-61724862D01*
X101158591Y-62941166D01*
X100672629Y-64110828D01*
X100068020Y-65236013D01*
X99343854Y-66318887D01*
X99268681Y-66419805D01*
X99065223Y-66680903D01*
X98883896Y-66881591D01*
X98699138Y-67038174D01*
X98485387Y-67166960D01*
X98217081Y-67284255D01*
X97868658Y-67406367D01*
X97576322Y-67499414D01*
X97076880Y-67641469D01*
X96596678Y-67745974D01*
X96102392Y-67817328D01*
X95560697Y-67859932D01*
X94938271Y-67878184D01*
X94696500Y-67879632D01*
X94213032Y-67874861D01*
X93753345Y-67857528D01*
X93304131Y-67824913D01*
X92852077Y-67774297D01*
X92383873Y-67702960D01*
X91886207Y-67608182D01*
X91345768Y-67487243D01*
X90749245Y-67337424D01*
X90083328Y-67156004D01*
X89334704Y-66940264D01*
X88490062Y-66687484D01*
X87743250Y-66458916D01*
X86926206Y-66211295D01*
X86209344Y-66004686D01*
X85573875Y-65835659D01*
X85001011Y-65700787D01*
X84471962Y-65596641D01*
X83967940Y-65519793D01*
X83470155Y-65466815D01*
X82959819Y-65434279D01*
X82418143Y-65418756D01*
X82028250Y-65416167D01*
X81421522Y-65422113D01*
X80915772Y-65442115D01*
X80485389Y-65480003D01*
X80104764Y-65539608D01*
X79748286Y-65624758D01*
X79390346Y-65739283D01*
X79079431Y-65857141D01*
X78861598Y-65946487D01*
X78704645Y-66003024D01*
X78587639Y-66015279D01*
X78489651Y-65971780D01*
X78389748Y-65861054D01*
X78267000Y-65671627D01*
X78100477Y-65392027D01*
X78036994Y-65285750D01*
X77490525Y-64289481D01*
X77049818Y-63289329D01*
X76698691Y-62245937D01*
X76538108Y-61640272D01*
X76407552Y-61067801D01*
X76312655Y-60559739D01*
X76248555Y-60074181D01*
X76210388Y-59569218D01*
X76193291Y-59002944D01*
X76191108Y-58650000D01*
X76195825Y-58237224D01*
X76208848Y-57822175D01*
X76228479Y-57440876D01*
X76253026Y-57129349D01*
X76269075Y-56993227D01*
X76401564Y-56252376D01*
X76589170Y-55469173D01*
X76820131Y-54682380D01*
X77082686Y-53930760D01*
X77365074Y-53253074D01*
X77471523Y-53030250D01*
X78080829Y-51941066D01*
X78789340Y-50915834D01*
X79587847Y-49963042D01*
X80467139Y-49091179D01*
X81418008Y-48308734D01*
X82431243Y-47624196D01*
X83497636Y-47046054D01*
X84371330Y-46670241D01*
X85604624Y-46264175D01*
X86848572Y-45984640D01*
X88103087Y-45831649D01*
X89368078Y-45805217D01*
X89849964Y-45828257D01*
X90725439Y-45907638D01*
X91525642Y-46028763D01*
X92287658Y-46200880D01*
X93048577Y-46433239D01*
X93845484Y-46735090D01*
X94349874Y-46950547D01*
X94648992Y-47085482D01*
X94912170Y-47211623D01*
X95167863Y-47344344D01*
X95444524Y-47499021D01*
X95770608Y-47691026D01*
X96174568Y-47935736D01*
X96185015Y-47942115D01*
X96545631Y-48113514D01*
X96869202Y-48163819D01*
X97157500Y-48092857D01*
X97412296Y-47900456D01*
X97484894Y-47815955D01*
X97578371Y-47615785D01*
X97618573Y-47355666D01*
X97603731Y-47090331D01*
X97532074Y-46874514D01*
X97516160Y-46849574D01*
X97393719Y-46727307D01*
X97175404Y-46562463D01*
X96880392Y-46366250D01*
X96527861Y-46149871D01*
X96136985Y-45924533D01*
X95726943Y-45701441D01*
X95316911Y-45491801D01*
X94926065Y-45306819D01*
X94728250Y-45220500D01*
X93469837Y-44758404D01*
X92183649Y-44416335D01*
X90878605Y-44193496D01*
X89563628Y-44089088D01*
X88247637Y-44102313D01*
G37*
X88247637Y-44102313D02*
X86939555Y-44232372D01*
X85648300Y-44478467D01*
X84382795Y-44839800D01*
X83151959Y-45315571D01*
X81964714Y-45904983D01*
X81075750Y-46442387D01*
X79963839Y-47245525D01*
X78943672Y-48134760D01*
X78018325Y-49105270D01*
X77190872Y-50152229D01*
X76464390Y-51270813D01*
X75841953Y-52456198D01*
X75326638Y-53703560D01*
X74921519Y-55008075D01*
X74629673Y-56364917D01*
X74588846Y-56618000D01*
X74532661Y-57102233D01*
X74495005Y-57676537D01*
X74475879Y-58305343D01*
X74475282Y-58953081D01*
X74493213Y-59584181D01*
X74529674Y-60163072D01*
X74584664Y-60654186D01*
X74588846Y-60682000D01*
X74857603Y-62035633D01*
X75241375Y-63347980D01*
X75736565Y-64610712D01*
X76339577Y-65815501D01*
X77046815Y-66954018D01*
X77645749Y-67762250D01*
X78453374Y-68680768D01*
X79363084Y-69545928D01*
X80356409Y-70344322D01*
X81414880Y-71062538D01*
X82520026Y-71687167D01*
X83653380Y-72204799D01*
X83894147Y-72298997D01*
X84909993Y-72633022D01*
X86001009Y-72897581D01*
X87133003Y-73087775D01*
X88271782Y-73198704D01*
X89383154Y-73225470D01*
X90124500Y-73191661D01*
X91482969Y-73023770D01*
X92805935Y-72735130D01*
X94087591Y-72328354D01*
X95322129Y-71806051D01*
X96503742Y-71170831D01*
X97626621Y-70425306D01*
X98684961Y-69572085D01*
X99165439Y-69127849D01*
X100102652Y-68136571D01*
X100936630Y-67074361D01*
X101664107Y-65946828D01*
X102281822Y-64759581D01*
X102786512Y-63518229D01*
X103171775Y-62240865D01*
X103367297Y-61365183D01*
X103500607Y-60521200D01*
X103577728Y-59659436D01*
X103604677Y-58730414D01*
X103604815Y-58681750D01*
X103561460Y-57438583D01*
X103423994Y-56256747D01*
X103187921Y-55107587D01*
X102877956Y-54049122D01*
X102732779Y-53640420D01*
X102570887Y-53228614D01*
X102402224Y-52835203D01*
X102236736Y-52481685D01*
X102084367Y-52189558D01*
X101955064Y-51980321D01*
X101879667Y-51891129D01*
X101687479Y-51793669D01*
X101381458Y-51742125D01*
X101362817Y-51740709D01*
X101146337Y-51730180D01*
X101007227Y-51748340D01*
X100896519Y-51810895D01*
X100766954Y-51931846D01*
X100567814Y-52206197D01*
X100490558Y-52503716D01*
X100537568Y-52813969D01*
X100555109Y-52860044D01*
X100825049Y-53526130D01*
X101048023Y-54097768D01*
X101230414Y-54595763D01*
X101378603Y-55040919D01*
X101498973Y-55454042D01*
X101597904Y-55855935D01*
X101681780Y-56267404D01*
X101756982Y-56709252D01*
X101778305Y-56847526D01*
X101834024Y-57341092D01*
X101868814Y-57920537D01*
X101882673Y-58546478D01*
X101875605Y-59179531D01*
X101847608Y-59780310D01*
X101798685Y-60309434D01*
X101778226Y-60459750D01*
X101526820Y-61724862D01*
X101158591Y-62941166D01*
X100672629Y-64110828D01*
X100068020Y-65236013D01*
X99343854Y-66318887D01*
X99268681Y-66419805D01*
X99065223Y-66680903D01*
X98883896Y-66881591D01*
X98699138Y-67038174D01*
X98485387Y-67166960D01*
X98217081Y-67284255D01*
X97868658Y-67406367D01*
X97576322Y-67499414D01*
X97076880Y-67641469D01*
X96596678Y-67745974D01*
X96102392Y-67817328D01*
X95560697Y-67859932D01*
X94938271Y-67878184D01*
X94696500Y-67879632D01*
X94213032Y-67874861D01*
X93753345Y-67857528D01*
X93304131Y-67824913D01*
X92852077Y-67774297D01*
X92383873Y-67702960D01*
X91886207Y-67608182D01*
X91345768Y-67487243D01*
X90749245Y-67337424D01*
X90083328Y-67156004D01*
X89334704Y-66940264D01*
X88490062Y-66687484D01*
X87743250Y-66458916D01*
X86926206Y-66211295D01*
X86209344Y-66004686D01*
X85573875Y-65835659D01*
X85001011Y-65700787D01*
X84471962Y-65596641D01*
X83967940Y-65519793D01*
X83470155Y-65466815D01*
X82959819Y-65434279D01*
X82418143Y-65418756D01*
X82028250Y-65416167D01*
X81421522Y-65422113D01*
X80915772Y-65442115D01*
X80485389Y-65480003D01*
X80104764Y-65539608D01*
X79748286Y-65624758D01*
X79390346Y-65739283D01*
X79079431Y-65857141D01*
X78861598Y-65946487D01*
X78704645Y-66003024D01*
X78587639Y-66015279D01*
X78489651Y-65971780D01*
X78389748Y-65861054D01*
X78267000Y-65671627D01*
X78100477Y-65392027D01*
X78036994Y-65285750D01*
X77490525Y-64289481D01*
X77049818Y-63289329D01*
X76698691Y-62245937D01*
X76538108Y-61640272D01*
X76407552Y-61067801D01*
X76312655Y-60559739D01*
X76248555Y-60074181D01*
X76210388Y-59569218D01*
X76193291Y-59002944D01*
X76191108Y-58650000D01*
X76195825Y-58237224D01*
X76208848Y-57822175D01*
X76228479Y-57440876D01*
X76253026Y-57129349D01*
X76269075Y-56993227D01*
X76401564Y-56252376D01*
X76589170Y-55469173D01*
X76820131Y-54682380D01*
X77082686Y-53930760D01*
X77365074Y-53253074D01*
X77471523Y-53030250D01*
X78080829Y-51941066D01*
X78789340Y-50915834D01*
X79587847Y-49963042D01*
X80467139Y-49091179D01*
X81418008Y-48308734D01*
X82431243Y-47624196D01*
X83497636Y-47046054D01*
X84371330Y-46670241D01*
X85604624Y-46264175D01*
X86848572Y-45984640D01*
X88103087Y-45831649D01*
X89368078Y-45805217D01*
X89849964Y-45828257D01*
X90725439Y-45907638D01*
X91525642Y-46028763D01*
X92287658Y-46200880D01*
X93048577Y-46433239D01*
X93845484Y-46735090D01*
X94349874Y-46950547D01*
X94648992Y-47085482D01*
X94912170Y-47211623D01*
X95167863Y-47344344D01*
X95444524Y-47499021D01*
X95770608Y-47691026D01*
X96174568Y-47935736D01*
X96185015Y-47942115D01*
X96545631Y-48113514D01*
X96869202Y-48163819D01*
X97157500Y-48092857D01*
X97412296Y-47900456D01*
X97484894Y-47815955D01*
X97578371Y-47615785D01*
X97618573Y-47355666D01*
X97603731Y-47090331D01*
X97532074Y-46874514D01*
X97516160Y-46849574D01*
X97393719Y-46727307D01*
X97175404Y-46562463D01*
X96880392Y-46366250D01*
X96527861Y-46149871D01*
X96136985Y-45924533D01*
X95726943Y-45701441D01*
X95316911Y-45491801D01*
X94926065Y-45306819D01*
X94728250Y-45220500D01*
X93469837Y-44758404D01*
X92183649Y-44416335D01*
X90878605Y-44193496D01*
X89563628Y-44089088D01*
X88247637Y-44102313D01*
G36*
X59278267Y-61942853D02*
G01*
X58664125Y-62061543D01*
X58115383Y-62256516D01*
X58073252Y-62276386D01*
X57716867Y-62503302D01*
X57384661Y-62814647D01*
X57113268Y-63171526D01*
X56971448Y-63446218D01*
X56930481Y-63551475D01*
X56897441Y-63652246D01*
X56871334Y-63763319D01*
X56851164Y-63899483D01*
X56835940Y-64075528D01*
X56824667Y-64306244D01*
X56816351Y-64606420D01*
X56809998Y-64990845D01*
X56804615Y-65474309D01*
X56799832Y-66000125D01*
X56780800Y-68175000D01*
X55898000Y-68175000D01*
X55898000Y-69587331D01*
X56675875Y-69561432D01*
X57018689Y-69547178D01*
X57264593Y-69527679D01*
X57443676Y-69497751D01*
X57586029Y-69452210D01*
X57721742Y-69385872D01*
X57733875Y-69379142D01*
X57990380Y-69203667D01*
X58175728Y-68989443D01*
X58318093Y-68699837D01*
X58370318Y-68551610D01*
X58480612Y-68213282D01*
X58691945Y-68609783D01*
X58978608Y-69020807D01*
X59348871Y-69337347D01*
X59800371Y-69558405D01*
X60330746Y-69682983D01*
X60937635Y-69710083D01*
X61246236Y-69689103D01*
X61687257Y-69600020D01*
X62112375Y-69432050D01*
X62493237Y-69201969D01*
X62801493Y-68926552D01*
X62992253Y-68656022D01*
X63172795Y-68189995D01*
X63253879Y-67701772D01*
X63243316Y-67357525D01*
X61422500Y-67357525D01*
X61395149Y-67734578D01*
X61304258Y-68015016D01*
X61136575Y-68218847D01*
X60878845Y-68366078D01*
X60716405Y-68423395D01*
X60490169Y-68460338D01*
X60191779Y-68466852D01*
X59871599Y-68445937D01*
X59579996Y-68400597D01*
X59390500Y-68344368D01*
X59098466Y-68198608D01*
X58889004Y-68032570D01*
X58749814Y-67823473D01*
X58668595Y-67548533D01*
X58633045Y-67184968D01*
X58628500Y-66933118D01*
X58628500Y-66256429D01*
X59596875Y-66283552D01*
X60073228Y-66303742D01*
X60442992Y-66337829D01*
X60726293Y-66391159D01*
X60943253Y-66469076D01*
X61113998Y-66576926D01*
X61258651Y-66720055D01*
X61263987Y-66726361D01*
X61351079Y-66848701D01*
X61399328Y-66982486D01*
X61419436Y-67170332D01*
X61422500Y-67357525D01*
X63243316Y-67357525D01*
X63238922Y-67214338D01*
X63131339Y-66750676D01*
X62934547Y-66333773D01*
X62651962Y-65986613D01*
X62586932Y-65928816D01*
X62257644Y-65701467D01*
X61864279Y-65524001D01*
X61394521Y-65393567D01*
X60836051Y-65307314D01*
X60176552Y-65262393D01*
X59670665Y-65254000D01*
X58628500Y-65254000D01*
X58628500Y-64734298D01*
X58658818Y-64295734D01*
X58754890Y-63951849D01*
X58924396Y-63684377D01*
X59151478Y-63490301D01*
X59294372Y-63406904D01*
X59442268Y-63353268D01*
X59632439Y-63320832D01*
X59902156Y-63301036D01*
X59994461Y-63296704D01*
X60427190Y-63295197D01*
X60774458Y-63341627D01*
X61072742Y-63448436D01*
X61358520Y-63628070D01*
X61625002Y-63852944D01*
X62029342Y-64223448D01*
X62472046Y-63846483D01*
X62673982Y-63673679D01*
X62841098Y-63529092D01*
X62948188Y-63434601D01*
X62970427Y-63413907D01*
X62990856Y-63312157D01*
X62918028Y-63162380D01*
X62768543Y-62980268D01*
X62559003Y-62781514D01*
X62306007Y-62581812D01*
X62026157Y-62396854D01*
X61736052Y-62242333D01*
X61726420Y-62237900D01*
X61181885Y-62047969D01*
X60570268Y-61935717D01*
X59924688Y-61900795D01*
X59278267Y-61942853D01*
G37*
X59278267Y-61942853D02*
X58664125Y-62061543D01*
X58115383Y-62256516D01*
X58073252Y-62276386D01*
X57716867Y-62503302D01*
X57384661Y-62814647D01*
X57113268Y-63171526D01*
X56971448Y-63446218D01*
X56930481Y-63551475D01*
X56897441Y-63652246D01*
X56871334Y-63763319D01*
X56851164Y-63899483D01*
X56835940Y-64075528D01*
X56824667Y-64306244D01*
X56816351Y-64606420D01*
X56809998Y-64990845D01*
X56804615Y-65474309D01*
X56799832Y-66000125D01*
X56780800Y-68175000D01*
X55898000Y-68175000D01*
X55898000Y-69587331D01*
X56675875Y-69561432D01*
X57018689Y-69547178D01*
X57264593Y-69527679D01*
X57443676Y-69497751D01*
X57586029Y-69452210D01*
X57721742Y-69385872D01*
X57733875Y-69379142D01*
X57990380Y-69203667D01*
X58175728Y-68989443D01*
X58318093Y-68699837D01*
X58370318Y-68551610D01*
X58480612Y-68213282D01*
X58691945Y-68609783D01*
X58978608Y-69020807D01*
X59348871Y-69337347D01*
X59800371Y-69558405D01*
X60330746Y-69682983D01*
X60937635Y-69710083D01*
X61246236Y-69689103D01*
X61687257Y-69600020D01*
X62112375Y-69432050D01*
X62493237Y-69201969D01*
X62801493Y-68926552D01*
X62992253Y-68656022D01*
X63172795Y-68189995D01*
X63253879Y-67701772D01*
X63243316Y-67357525D01*
X61422500Y-67357525D01*
X61395149Y-67734578D01*
X61304258Y-68015016D01*
X61136575Y-68218847D01*
X60878845Y-68366078D01*
X60716405Y-68423395D01*
X60490169Y-68460338D01*
X60191779Y-68466852D01*
X59871599Y-68445937D01*
X59579996Y-68400597D01*
X59390500Y-68344368D01*
X59098466Y-68198608D01*
X58889004Y-68032570D01*
X58749814Y-67823473D01*
X58668595Y-67548533D01*
X58633045Y-67184968D01*
X58628500Y-66933118D01*
X58628500Y-66256429D01*
X59596875Y-66283552D01*
X60073228Y-66303742D01*
X60442992Y-66337829D01*
X60726293Y-66391159D01*
X60943253Y-66469076D01*
X61113998Y-66576926D01*
X61258651Y-66720055D01*
X61263987Y-66726361D01*
X61351079Y-66848701D01*
X61399328Y-66982486D01*
X61419436Y-67170332D01*
X61422500Y-67357525D01*
X63243316Y-67357525D01*
X63238922Y-67214338D01*
X63131339Y-66750676D01*
X62934547Y-66333773D01*
X62651962Y-65986613D01*
X62586932Y-65928816D01*
X62257644Y-65701467D01*
X61864279Y-65524001D01*
X61394521Y-65393567D01*
X60836051Y-65307314D01*
X60176552Y-65262393D01*
X59670665Y-65254000D01*
X58628500Y-65254000D01*
X58628500Y-64734298D01*
X58658818Y-64295734D01*
X58754890Y-63951849D01*
X58924396Y-63684377D01*
X59151478Y-63490301D01*
X59294372Y-63406904D01*
X59442268Y-63353268D01*
X59632439Y-63320832D01*
X59902156Y-63301036D01*
X59994461Y-63296704D01*
X60427190Y-63295197D01*
X60774458Y-63341627D01*
X61072742Y-63448436D01*
X61358520Y-63628070D01*
X61625002Y-63852944D01*
X62029342Y-64223448D01*
X62472046Y-63846483D01*
X62673982Y-63673679D01*
X62841098Y-63529092D01*
X62948188Y-63434601D01*
X62970427Y-63413907D01*
X62990856Y-63312157D01*
X62918028Y-63162380D01*
X62768543Y-62980268D01*
X62559003Y-62781514D01*
X62306007Y-62581812D01*
X62026157Y-62396854D01*
X61736052Y-62242333D01*
X61726420Y-62237900D01*
X61181885Y-62047969D01*
X60570268Y-61935717D01*
X59924688Y-61900795D01*
X59278267Y-61942853D01*
G36*
X52913500Y-61094750D02*
G01*
X52912244Y-61623066D01*
X52908667Y-62109067D01*
X52903059Y-62538686D01*
X52895709Y-62897855D01*
X52886906Y-63172507D01*
X52876939Y-63348573D01*
X52866097Y-63411988D01*
X52865875Y-63412010D01*
X52809413Y-63361366D01*
X52718996Y-63232991D01*
X52664944Y-63143179D01*
X52444055Y-62822805D01*
X52165376Y-62515603D01*
X51863964Y-62255632D01*
X51574873Y-62076954D01*
X51561064Y-62070628D01*
X51257368Y-61978570D01*
X50875666Y-61927649D01*
X50458148Y-61917989D01*
X50047007Y-61949716D01*
X49684431Y-62022956D01*
X49560482Y-62064671D01*
X49070718Y-62322571D01*
X48652926Y-62684057D01*
X48308599Y-63147066D01*
X48039229Y-63709537D01*
X47846307Y-64369407D01*
X47827318Y-64460250D01*
X47777691Y-64811589D01*
X47748360Y-65243880D01*
X47738660Y-65722798D01*
X47747926Y-66214016D01*
X47775491Y-66683207D01*
X47820691Y-67096046D01*
X47882859Y-67418207D01*
X47884808Y-67425480D01*
X48099131Y-68059968D01*
X48370444Y-68584449D01*
X48702457Y-69004205D01*
X49098884Y-69324513D01*
X49299961Y-69437954D01*
X49499727Y-69530512D01*
X49689746Y-69597503D01*
X49907074Y-69648197D01*
X50188766Y-69691862D01*
X50437000Y-69722387D01*
X50590497Y-69725232D01*
X50808759Y-69712279D01*
X50945000Y-69698189D01*
X51453146Y-69574512D01*
X51909565Y-69339012D01*
X52300296Y-69001123D01*
X52609463Y-68573675D01*
X52718258Y-68396404D01*
X52809554Y-68274912D01*
X52856062Y-68238500D01*
X52879640Y-68297616D01*
X52898528Y-68457481D01*
X52910466Y-68691865D01*
X52913500Y-68905250D01*
X52913500Y-69572000D01*
X54755000Y-69572000D01*
X54755000Y-65809244D01*
X52913500Y-65809244D01*
X52911964Y-66331039D01*
X52905280Y-66742610D01*
X52890341Y-67060718D01*
X52864036Y-67302123D01*
X52823257Y-67483585D01*
X52764892Y-67621864D01*
X52685835Y-67733721D01*
X52582973Y-67835915D01*
X52528839Y-67882586D01*
X52158846Y-68113954D01*
X51734848Y-68242638D01*
X51280310Y-68266594D01*
X50818696Y-68183773D01*
X50500500Y-68059506D01*
X50207785Y-67878228D01*
X49987067Y-67641404D01*
X49949246Y-67586992D01*
X49819992Y-67362077D01*
X49725748Y-67115580D01*
X49662924Y-66825714D01*
X49627929Y-66470691D01*
X49617173Y-66028724D01*
X49623310Y-65609226D01*
X49644425Y-65125022D01*
X49683693Y-64744185D01*
X49747409Y-64443635D01*
X49841865Y-64200292D01*
X49973356Y-63991078D01*
X50107030Y-63835309D01*
X50347481Y-63621679D01*
X50606904Y-63482824D01*
X50918374Y-63406736D01*
X51314963Y-63381407D01*
X51357750Y-63381205D01*
X51644476Y-63385024D01*
X51847189Y-63403075D01*
X52008771Y-63444426D01*
X52172104Y-63518148D01*
X52278500Y-63575935D01*
X52530342Y-63743189D01*
X52699303Y-63928480D01*
X52770625Y-64049765D01*
X52816247Y-64144647D01*
X52850974Y-64240334D01*
X52876289Y-64355062D01*
X52893671Y-64507069D01*
X52904602Y-64714591D01*
X52910563Y-64995867D01*
X52913035Y-65369133D01*
X52913500Y-65809244D01*
X54755000Y-65809244D01*
X54755000Y-58777000D01*
X52913500Y-58777000D01*
X52913500Y-61094750D01*
G37*
X52913500Y-61094750D02*
X52912244Y-61623066D01*
X52908667Y-62109067D01*
X52903059Y-62538686D01*
X52895709Y-62897855D01*
X52886906Y-63172507D01*
X52876939Y-63348573D01*
X52866097Y-63411988D01*
X52865875Y-63412010D01*
X52809413Y-63361366D01*
X52718996Y-63232991D01*
X52664944Y-63143179D01*
X52444055Y-62822805D01*
X52165376Y-62515603D01*
X51863964Y-62255632D01*
X51574873Y-62076954D01*
X51561064Y-62070628D01*
X51257368Y-61978570D01*
X50875666Y-61927649D01*
X50458148Y-61917989D01*
X50047007Y-61949716D01*
X49684431Y-62022956D01*
X49560482Y-62064671D01*
X49070718Y-62322571D01*
X48652926Y-62684057D01*
X48308599Y-63147066D01*
X48039229Y-63709537D01*
X47846307Y-64369407D01*
X47827318Y-64460250D01*
X47777691Y-64811589D01*
X47748360Y-65243880D01*
X47738660Y-65722798D01*
X47747926Y-66214016D01*
X47775491Y-66683207D01*
X47820691Y-67096046D01*
X47882859Y-67418207D01*
X47884808Y-67425480D01*
X48099131Y-68059968D01*
X48370444Y-68584449D01*
X48702457Y-69004205D01*
X49098884Y-69324513D01*
X49299961Y-69437954D01*
X49499727Y-69530512D01*
X49689746Y-69597503D01*
X49907074Y-69648197D01*
X50188766Y-69691862D01*
X50437000Y-69722387D01*
X50590497Y-69725232D01*
X50808759Y-69712279D01*
X50945000Y-69698189D01*
X51453146Y-69574512D01*
X51909565Y-69339012D01*
X52300296Y-69001123D01*
X52609463Y-68573675D01*
X52718258Y-68396404D01*
X52809554Y-68274912D01*
X52856062Y-68238500D01*
X52879640Y-68297616D01*
X52898528Y-68457481D01*
X52910466Y-68691865D01*
X52913500Y-68905250D01*
X52913500Y-69572000D01*
X54755000Y-69572000D01*
X54755000Y-65809244D01*
X52913500Y-65809244D01*
X52911964Y-66331039D01*
X52905280Y-66742610D01*
X52890341Y-67060718D01*
X52864036Y-67302123D01*
X52823257Y-67483585D01*
X52764892Y-67621864D01*
X52685835Y-67733721D01*
X52582973Y-67835915D01*
X52528839Y-67882586D01*
X52158846Y-68113954D01*
X51734848Y-68242638D01*
X51280310Y-68266594D01*
X50818696Y-68183773D01*
X50500500Y-68059506D01*
X50207785Y-67878228D01*
X49987067Y-67641404D01*
X49949246Y-67586992D01*
X49819992Y-67362077D01*
X49725748Y-67115580D01*
X49662924Y-66825714D01*
X49627929Y-66470691D01*
X49617173Y-66028724D01*
X49623310Y-65609226D01*
X49644425Y-65125022D01*
X49683693Y-64744185D01*
X49747409Y-64443635D01*
X49841865Y-64200292D01*
X49973356Y-63991078D01*
X50107030Y-63835309D01*
X50347481Y-63621679D01*
X50606904Y-63482824D01*
X50918374Y-63406736D01*
X51314963Y-63381407D01*
X51357750Y-63381205D01*
X51644476Y-63385024D01*
X51847189Y-63403075D01*
X52008771Y-63444426D01*
X52172104Y-63518148D01*
X52278500Y-63575935D01*
X52530342Y-63743189D01*
X52699303Y-63928480D01*
X52770625Y-64049765D01*
X52816247Y-64144647D01*
X52850974Y-64240334D01*
X52876289Y-64355062D01*
X52893671Y-64507069D01*
X52904602Y-64714591D01*
X52910563Y-64995867D01*
X52913035Y-65369133D01*
X52913500Y-65809244D01*
X54755000Y-65809244D01*
X54755000Y-58777000D01*
X52913500Y-58777000D01*
X52913500Y-61094750D01*
G36*
X43005034Y-61925131D02*
G01*
X42567962Y-61952988D01*
X42198449Y-62003085D01*
X42055000Y-62035408D01*
X41522017Y-62213774D01*
X41045811Y-62441230D01*
X40656854Y-62702534D01*
X40568395Y-62779076D01*
X40279350Y-63045508D01*
X40731723Y-63546504D01*
X40923049Y-63752302D01*
X41086737Y-63917113D01*
X41202509Y-64021183D01*
X41246040Y-64047500D01*
X41327584Y-64008696D01*
X41461154Y-63910787D01*
X41525087Y-63856881D01*
X41869751Y-63614609D01*
X42275101Y-63427225D01*
X42717277Y-63296902D01*
X43172415Y-63225810D01*
X43616653Y-63216120D01*
X44026130Y-63270003D01*
X44376983Y-63389631D01*
X44641533Y-63573332D01*
X44773664Y-63726543D01*
X44834256Y-63875940D01*
X44848997Y-64085558D01*
X44849000Y-64090520D01*
X44837382Y-64290518D01*
X44793480Y-64452357D01*
X44703725Y-64583494D01*
X44554547Y-64691386D01*
X44332376Y-64783492D01*
X44023643Y-64867268D01*
X43614779Y-64950172D01*
X43134500Y-65032744D01*
X42467621Y-65154199D01*
X41914655Y-65284181D01*
X41462528Y-65429443D01*
X41098164Y-65596736D01*
X40808490Y-65792812D01*
X40580430Y-66024424D01*
X40400911Y-66298323D01*
X40308289Y-66492250D01*
X40226705Y-66794452D01*
X40195744Y-67167744D01*
X40214482Y-67567149D01*
X40281993Y-67947687D01*
X40342165Y-68139496D01*
X40570652Y-68565556D01*
X40903982Y-68929454D01*
X41334554Y-69228067D01*
X41854767Y-69458269D01*
X42457020Y-69616936D01*
X43133712Y-69700944D01*
X43877243Y-69707169D01*
X44120857Y-69692761D01*
X44421649Y-69663204D01*
X44726584Y-69621700D01*
X44971308Y-69577050D01*
X44978107Y-69575512D01*
X45341128Y-69464818D01*
X45739576Y-69297948D01*
X46134506Y-69095090D01*
X46486970Y-68876434D01*
X46758023Y-68662167D01*
X46778824Y-68642082D01*
X47089397Y-68335300D01*
X46562843Y-67849493D01*
X46036288Y-67363687D01*
X45681210Y-67652902D01*
X45146358Y-68014035D01*
X44572078Y-68255917D01*
X44056213Y-68369441D01*
X43482319Y-68409371D01*
X42978220Y-68356797D01*
X42524575Y-68209683D01*
X42519892Y-68207576D01*
X42235298Y-68032133D01*
X42063094Y-67807154D01*
X41993854Y-67519010D01*
X41991500Y-67443728D01*
X42007589Y-67252999D01*
X42064779Y-67097319D01*
X42176460Y-66969515D01*
X42356021Y-66862412D01*
X42616851Y-66768837D01*
X42972340Y-66681615D01*
X43435875Y-66593572D01*
X43644060Y-66558255D01*
X44245412Y-66451619D01*
X44737365Y-66347137D01*
X45137248Y-66238674D01*
X45462392Y-66120100D01*
X45730126Y-65985283D01*
X45957780Y-65828090D01*
X46124146Y-65680688D01*
X46397904Y-65327297D01*
X46575110Y-64901531D01*
X46651509Y-64418249D01*
X46627348Y-63922957D01*
X46506803Y-63437549D01*
X46289632Y-63021360D01*
X45971426Y-62670161D01*
X45547772Y-62379724D01*
X45014259Y-62145822D01*
X44658500Y-62035953D01*
X44336399Y-61974927D01*
X43927773Y-61936109D01*
X43471144Y-61919508D01*
X43005034Y-61925131D01*
G37*
X43005034Y-61925131D02*
X42567962Y-61952988D01*
X42198449Y-62003085D01*
X42055000Y-62035408D01*
X41522017Y-62213774D01*
X41045811Y-62441230D01*
X40656854Y-62702534D01*
X40568395Y-62779076D01*
X40279350Y-63045508D01*
X40731723Y-63546504D01*
X40923049Y-63752302D01*
X41086737Y-63917113D01*
X41202509Y-64021183D01*
X41246040Y-64047500D01*
X41327584Y-64008696D01*
X41461154Y-63910787D01*
X41525087Y-63856881D01*
X41869751Y-63614609D01*
X42275101Y-63427225D01*
X42717277Y-63296902D01*
X43172415Y-63225810D01*
X43616653Y-63216120D01*
X44026130Y-63270003D01*
X44376983Y-63389631D01*
X44641533Y-63573332D01*
X44773664Y-63726543D01*
X44834256Y-63875940D01*
X44848997Y-64085558D01*
X44849000Y-64090520D01*
X44837382Y-64290518D01*
X44793480Y-64452357D01*
X44703725Y-64583494D01*
X44554547Y-64691386D01*
X44332376Y-64783492D01*
X44023643Y-64867268D01*
X43614779Y-64950172D01*
X43134500Y-65032744D01*
X42467621Y-65154199D01*
X41914655Y-65284181D01*
X41462528Y-65429443D01*
X41098164Y-65596736D01*
X40808490Y-65792812D01*
X40580430Y-66024424D01*
X40400911Y-66298323D01*
X40308289Y-66492250D01*
X40226705Y-66794452D01*
X40195744Y-67167744D01*
X40214482Y-67567149D01*
X40281993Y-67947687D01*
X40342165Y-68139496D01*
X40570652Y-68565556D01*
X40903982Y-68929454D01*
X41334554Y-69228067D01*
X41854767Y-69458269D01*
X42457020Y-69616936D01*
X43133712Y-69700944D01*
X43877243Y-69707169D01*
X44120857Y-69692761D01*
X44421649Y-69663204D01*
X44726584Y-69621700D01*
X44971308Y-69577050D01*
X44978107Y-69575512D01*
X45341128Y-69464818D01*
X45739576Y-69297948D01*
X46134506Y-69095090D01*
X46486970Y-68876434D01*
X46758023Y-68662167D01*
X46778824Y-68642082D01*
X47089397Y-68335300D01*
X46562843Y-67849493D01*
X46036288Y-67363687D01*
X45681210Y-67652902D01*
X45146358Y-68014035D01*
X44572078Y-68255917D01*
X44056213Y-68369441D01*
X43482319Y-68409371D01*
X42978220Y-68356797D01*
X42524575Y-68209683D01*
X42519892Y-68207576D01*
X42235298Y-68032133D01*
X42063094Y-67807154D01*
X41993854Y-67519010D01*
X41991500Y-67443728D01*
X42007589Y-67252999D01*
X42064779Y-67097319D01*
X42176460Y-66969515D01*
X42356021Y-66862412D01*
X42616851Y-66768837D01*
X42972340Y-66681615D01*
X43435875Y-66593572D01*
X43644060Y-66558255D01*
X44245412Y-66451619D01*
X44737365Y-66347137D01*
X45137248Y-66238674D01*
X45462392Y-66120100D01*
X45730126Y-65985283D01*
X45957780Y-65828090D01*
X46124146Y-65680688D01*
X46397904Y-65327297D01*
X46575110Y-64901531D01*
X46651509Y-64418249D01*
X46627348Y-63922957D01*
X46506803Y-63437549D01*
X46289632Y-63021360D01*
X45971426Y-62670161D01*
X45547772Y-62379724D01*
X45014259Y-62145822D01*
X44658500Y-62035953D01*
X44336399Y-61974927D01*
X43927773Y-61936109D01*
X43471144Y-61919508D01*
X43005034Y-61925131D01*
G36*
X68471000Y-68048000D02*
G01*
X63962500Y-68048000D01*
X63962500Y-69572000D01*
X70376000Y-69572000D01*
X70376000Y-59412000D01*
X68471000Y-59412000D01*
X68471000Y-68048000D01*
G37*
X68471000Y-68048000D02*
X63962500Y-68048000D01*
X63962500Y-69572000D01*
X70376000Y-69572000D01*
X70376000Y-59412000D01*
X68471000Y-59412000D01*
X68471000Y-68048000D01*
G36*
X88459793Y-51358536D02*
G01*
X87894489Y-51398195D01*
X87391925Y-51474197D01*
X87141738Y-51535232D01*
X86409885Y-51810731D01*
X85746242Y-52191996D01*
X85149679Y-52680017D01*
X84619062Y-53275788D01*
X84153262Y-53980301D01*
X83974755Y-54312675D01*
X83868564Y-54513384D01*
X83779117Y-54665249D01*
X83725602Y-54735720D01*
X83725275Y-54735927D01*
X83651636Y-54729993D01*
X83472555Y-54696146D01*
X83205544Y-54638283D01*
X82868113Y-54560299D01*
X82477772Y-54466092D01*
X82183979Y-54392970D01*
X81765028Y-54288168D01*
X81385073Y-54194512D01*
X81062072Y-54116315D01*
X80813982Y-54057892D01*
X80658761Y-54023556D01*
X80615375Y-54016166D01*
X80598090Y-54040329D01*
X80583335Y-54118918D01*
X80570940Y-54259911D01*
X80560735Y-54471286D01*
X80552551Y-54761022D01*
X80546218Y-55137097D01*
X80541567Y-55607488D01*
X80538428Y-56180175D01*
X80536630Y-56863135D01*
X80536005Y-57664347D01*
X80536000Y-57747838D01*
X80536000Y-61481176D01*
X87790875Y-63281640D01*
X88727153Y-63514071D01*
X89629511Y-63738223D01*
X90490240Y-63952173D01*
X91301634Y-64153999D01*
X92055983Y-64341780D01*
X92745581Y-64513594D01*
X93362719Y-64667518D01*
X93899689Y-64801630D01*
X94348784Y-64914008D01*
X94702294Y-65002731D01*
X94952513Y-65065876D01*
X95091732Y-65101521D01*
X95118702Y-65108881D01*
X95211477Y-65095128D01*
X95227918Y-65076981D01*
X95263780Y-65011718D01*
X95354192Y-64844590D01*
X95493734Y-64585685D01*
X95676985Y-64245086D01*
X95898524Y-63832879D01*
X96152930Y-63359148D01*
X96434784Y-62833980D01*
X96738664Y-62267458D01*
X97002226Y-61775871D01*
X98044373Y-59831677D01*
X95768027Y-59831677D01*
X95745891Y-59889940D01*
X95672582Y-60042297D01*
X95557330Y-60271127D01*
X95409366Y-60558808D01*
X95237919Y-60887718D01*
X95052221Y-61240236D01*
X94861502Y-61598741D01*
X94674992Y-61945610D01*
X94501922Y-62263223D01*
X94366310Y-62507660D01*
X94256474Y-62692483D01*
X94175407Y-62786338D01*
X94095176Y-62811895D01*
X94009195Y-62797477D01*
X93923771Y-62776070D01*
X93724049Y-62726309D01*
X93418996Y-62650419D01*
X93017576Y-62550628D01*
X92528756Y-62429163D01*
X91961500Y-62288252D01*
X91324774Y-62130120D01*
X90627544Y-61956996D01*
X89878776Y-61771106D01*
X89087434Y-61574678D01*
X88262484Y-61369939D01*
X88187750Y-61351393D01*
X82536250Y-59948901D01*
X82519369Y-58227579D01*
X82502487Y-56506257D01*
X89123369Y-58159237D01*
X90015943Y-58382202D01*
X90873558Y-58596674D01*
X91688217Y-58800642D01*
X92451924Y-58992091D01*
X93156684Y-59169011D01*
X93794500Y-59329388D01*
X94357376Y-59471209D01*
X94837317Y-59592463D01*
X95226326Y-59691136D01*
X95516407Y-59765216D01*
X95699565Y-59812691D01*
X95767803Y-59831548D01*
X95768027Y-59831677D01*
X98044373Y-59831677D01*
X98740270Y-58533436D01*
X92299913Y-56924843D01*
X91418801Y-56704554D01*
X90572089Y-56492446D01*
X89767953Y-56290589D01*
X89014569Y-56101055D01*
X88320113Y-55925914D01*
X87692762Y-55767237D01*
X87140691Y-55627096D01*
X86672077Y-55507561D01*
X86295095Y-55410704D01*
X86017923Y-55338595D01*
X85848735Y-55293306D01*
X85795784Y-55277356D01*
X85779569Y-55199257D01*
X85831177Y-55047463D01*
X85936909Y-54845661D01*
X86083069Y-54617541D01*
X86255960Y-54386792D01*
X86417212Y-54202597D01*
X86784469Y-53869259D01*
X87177487Y-53621697D01*
X87616013Y-53453305D01*
X88119797Y-53357477D01*
X88708584Y-53327607D01*
X89013250Y-53334191D01*
X89715978Y-53393375D01*
X90353709Y-53519122D01*
X90976329Y-53723859D01*
X91497283Y-53952975D01*
X92099721Y-54291258D01*
X92586140Y-54672667D01*
X92962407Y-55104655D01*
X93234391Y-55594677D01*
X93407959Y-56150185D01*
X93458254Y-56443920D01*
X93497946Y-56746090D01*
X94144848Y-56196452D01*
X94406851Y-55973540D01*
X94653352Y-55763276D01*
X94858023Y-55588154D01*
X94994536Y-55470664D01*
X95002575Y-55463690D01*
X95213400Y-55280565D01*
X95112993Y-54978266D01*
X94902066Y-54497213D01*
X94592942Y-54002470D01*
X94207640Y-53521301D01*
X93768180Y-53080968D01*
X93296581Y-52708733D01*
X93259881Y-52683887D01*
X92538364Y-52256647D01*
X91768898Y-51912271D01*
X90928373Y-51641687D01*
X90157841Y-51466191D01*
X89628898Y-51391677D01*
X89050405Y-51356078D01*
X88459793Y-51358536D01*
G37*
X88459793Y-51358536D02*
X87894489Y-51398195D01*
X87391925Y-51474197D01*
X87141738Y-51535232D01*
X86409885Y-51810731D01*
X85746242Y-52191996D01*
X85149679Y-52680017D01*
X84619062Y-53275788D01*
X84153262Y-53980301D01*
X83974755Y-54312675D01*
X83868564Y-54513384D01*
X83779117Y-54665249D01*
X83725602Y-54735720D01*
X83725275Y-54735927D01*
X83651636Y-54729993D01*
X83472555Y-54696146D01*
X83205544Y-54638283D01*
X82868113Y-54560299D01*
X82477772Y-54466092D01*
X82183979Y-54392970D01*
X81765028Y-54288168D01*
X81385073Y-54194512D01*
X81062072Y-54116315D01*
X80813982Y-54057892D01*
X80658761Y-54023556D01*
X80615375Y-54016166D01*
X80598090Y-54040329D01*
X80583335Y-54118918D01*
X80570940Y-54259911D01*
X80560735Y-54471286D01*
X80552551Y-54761022D01*
X80546218Y-55137097D01*
X80541567Y-55607488D01*
X80538428Y-56180175D01*
X80536630Y-56863135D01*
X80536005Y-57664347D01*
X80536000Y-57747838D01*
X80536000Y-61481176D01*
X87790875Y-63281640D01*
X88727153Y-63514071D01*
X89629511Y-63738223D01*
X90490240Y-63952173D01*
X91301634Y-64153999D01*
X92055983Y-64341780D01*
X92745581Y-64513594D01*
X93362719Y-64667518D01*
X93899689Y-64801630D01*
X94348784Y-64914008D01*
X94702294Y-65002731D01*
X94952513Y-65065876D01*
X95091732Y-65101521D01*
X95118702Y-65108881D01*
X95211477Y-65095128D01*
X95227918Y-65076981D01*
X95263780Y-65011718D01*
X95354192Y-64844590D01*
X95493734Y-64585685D01*
X95676985Y-64245086D01*
X95898524Y-63832879D01*
X96152930Y-63359148D01*
X96434784Y-62833980D01*
X96738664Y-62267458D01*
X97002226Y-61775871D01*
X98044373Y-59831677D01*
X95768027Y-59831677D01*
X95745891Y-59889940D01*
X95672582Y-60042297D01*
X95557330Y-60271127D01*
X95409366Y-60558808D01*
X95237919Y-60887718D01*
X95052221Y-61240236D01*
X94861502Y-61598741D01*
X94674992Y-61945610D01*
X94501922Y-62263223D01*
X94366310Y-62507660D01*
X94256474Y-62692483D01*
X94175407Y-62786338D01*
X94095176Y-62811895D01*
X94009195Y-62797477D01*
X93923771Y-62776070D01*
X93724049Y-62726309D01*
X93418996Y-62650419D01*
X93017576Y-62550628D01*
X92528756Y-62429163D01*
X91961500Y-62288252D01*
X91324774Y-62130120D01*
X90627544Y-61956996D01*
X89878776Y-61771106D01*
X89087434Y-61574678D01*
X88262484Y-61369939D01*
X88187750Y-61351393D01*
X82536250Y-59948901D01*
X82519369Y-58227579D01*
X82502487Y-56506257D01*
X89123369Y-58159237D01*
X90015943Y-58382202D01*
X90873558Y-58596674D01*
X91688217Y-58800642D01*
X92451924Y-58992091D01*
X93156684Y-59169011D01*
X93794500Y-59329388D01*
X94357376Y-59471209D01*
X94837317Y-59592463D01*
X95226326Y-59691136D01*
X95516407Y-59765216D01*
X95699565Y-59812691D01*
X95767803Y-59831548D01*
X95768027Y-59831677D01*
X98044373Y-59831677D01*
X98740270Y-58533436D01*
X92299913Y-56924843D01*
X91418801Y-56704554D01*
X90572089Y-56492446D01*
X89767953Y-56290589D01*
X89014569Y-56101055D01*
X88320113Y-55925914D01*
X87692762Y-55767237D01*
X87140691Y-55627096D01*
X86672077Y-55507561D01*
X86295095Y-55410704D01*
X86017923Y-55338595D01*
X85848735Y-55293306D01*
X85795784Y-55277356D01*
X85779569Y-55199257D01*
X85831177Y-55047463D01*
X85936909Y-54845661D01*
X86083069Y-54617541D01*
X86255960Y-54386792D01*
X86417212Y-54202597D01*
X86784469Y-53869259D01*
X87177487Y-53621697D01*
X87616013Y-53453305D01*
X88119797Y-53357477D01*
X88708584Y-53327607D01*
X89013250Y-53334191D01*
X89715978Y-53393375D01*
X90353709Y-53519122D01*
X90976329Y-53723859D01*
X91497283Y-53952975D01*
X92099721Y-54291258D01*
X92586140Y-54672667D01*
X92962407Y-55104655D01*
X93234391Y-55594677D01*
X93407959Y-56150185D01*
X93458254Y-56443920D01*
X93497946Y-56746090D01*
X94144848Y-56196452D01*
X94406851Y-55973540D01*
X94653352Y-55763276D01*
X94858023Y-55588154D01*
X94994536Y-55470664D01*
X95002575Y-55463690D01*
X95213400Y-55280565D01*
X95112993Y-54978266D01*
X94902066Y-54497213D01*
X94592942Y-54002470D01*
X94207640Y-53521301D01*
X93768180Y-53080968D01*
X93296581Y-52708733D01*
X93259881Y-52683887D01*
X92538364Y-52256647D01*
X91768898Y-51912271D01*
X90928373Y-51641687D01*
X90157841Y-51466191D01*
X89628898Y-51391677D01*
X89050405Y-51356078D01*
X88459793Y-51358536D01*
G36*
X58328076Y-50020762D02*
G01*
X57860889Y-50132511D01*
X57452627Y-50309774D01*
X57083723Y-50558430D01*
X56842525Y-50774083D01*
X56561785Y-51093454D01*
X56371739Y-51419886D01*
X56335406Y-51506250D01*
X56295119Y-51612651D01*
X56262607Y-51715495D01*
X56236880Y-51829607D01*
X56216951Y-51969810D01*
X56201831Y-52150927D01*
X56190531Y-52387782D01*
X56182064Y-52695199D01*
X56175440Y-53088000D01*
X56169670Y-53581010D01*
X56164962Y-54062125D01*
X56144412Y-56237000D01*
X55263000Y-56237000D01*
X55263000Y-57580592D01*
X56072625Y-57559671D01*
X56444267Y-57545969D01*
X56715795Y-57524691D01*
X56914036Y-57492198D01*
X57065816Y-57444849D01*
X57128940Y-57416325D01*
X57357155Y-57246700D01*
X57562687Y-56994670D01*
X57713958Y-56704518D01*
X57767404Y-56520920D01*
X57816179Y-56353763D01*
X57875386Y-56313022D01*
X57944012Y-56398629D01*
X57997966Y-56536281D01*
X58129738Y-56785446D01*
X58349887Y-57046517D01*
X58626730Y-57289995D01*
X58928585Y-57486378D01*
X59106719Y-57568644D01*
X59427449Y-57657957D01*
X59816189Y-57716830D01*
X60227636Y-57742707D01*
X60616492Y-57733028D01*
X60937454Y-57685235D01*
X60978000Y-57674313D01*
X61507815Y-57466231D01*
X61938100Y-57181267D01*
X62266608Y-56822279D01*
X62491096Y-56392122D01*
X62609319Y-55893653D01*
X62628313Y-55574415D01*
X62599686Y-55276774D01*
X60826001Y-55276774D01*
X60822716Y-55594722D01*
X60736226Y-55899814D01*
X60567612Y-56165829D01*
X60317955Y-56366549D01*
X60247750Y-56401360D01*
X60055163Y-56451521D01*
X59781322Y-56479636D01*
X59470121Y-56485266D01*
X59165457Y-56467969D01*
X58911222Y-56427305D01*
X58866582Y-56415228D01*
X58678252Y-56329143D01*
X58460145Y-56187381D01*
X58319464Y-56073230D01*
X58025250Y-55807005D01*
X57982298Y-54320883D01*
X59019774Y-54343046D01*
X59415698Y-54353064D01*
X59708100Y-54365634D01*
X59920459Y-54383721D01*
X60076254Y-54410289D01*
X60198962Y-54448303D01*
X60312063Y-54500729D01*
X60325817Y-54507977D01*
X60578633Y-54707182D01*
X60745000Y-54972187D01*
X60826001Y-55276774D01*
X62599686Y-55276774D01*
X62576445Y-55035137D01*
X62419020Y-54566382D01*
X62156451Y-54168680D01*
X61789152Y-53842557D01*
X61317535Y-53588543D01*
X60982659Y-53470371D01*
X60649648Y-53394752D01*
X60218306Y-53332516D01*
X59716860Y-53286436D01*
X59173534Y-53259288D01*
X58771375Y-53253021D01*
X57993500Y-53252500D01*
X57993500Y-52774210D01*
X58036829Y-52299998D01*
X58167300Y-51917748D01*
X58385639Y-51626825D01*
X58692575Y-51426596D01*
X59088833Y-51316429D01*
X59575141Y-51295690D01*
X59683720Y-51302252D01*
X60127363Y-51368850D01*
X60498033Y-51506737D01*
X60838633Y-51735232D01*
X61031263Y-51909028D01*
X61197682Y-52067341D01*
X61327287Y-52183588D01*
X61395225Y-52235604D01*
X61398437Y-52236500D01*
X61453712Y-52198555D01*
X61580949Y-52098227D01*
X61755677Y-51955774D01*
X61953424Y-51791453D01*
X62149721Y-51625524D01*
X62320096Y-51478244D01*
X62395241Y-51411302D01*
X62388190Y-51339769D01*
X62300535Y-51210957D01*
X62152568Y-51044717D01*
X61964580Y-50860898D01*
X61756865Y-50679353D01*
X61549714Y-50519929D01*
X61364626Y-50403121D01*
X61051824Y-50247517D01*
X60766050Y-50135482D01*
X60472513Y-50058863D01*
X60136423Y-50009508D01*
X59722988Y-49979264D01*
X59517500Y-49970284D01*
X58873757Y-49968646D01*
X58328076Y-50020762D01*
G37*
X58328076Y-50020762D02*
X57860889Y-50132511D01*
X57452627Y-50309774D01*
X57083723Y-50558430D01*
X56842525Y-50774083D01*
X56561785Y-51093454D01*
X56371739Y-51419886D01*
X56335406Y-51506250D01*
X56295119Y-51612651D01*
X56262607Y-51715495D01*
X56236880Y-51829607D01*
X56216951Y-51969810D01*
X56201831Y-52150927D01*
X56190531Y-52387782D01*
X56182064Y-52695199D01*
X56175440Y-53088000D01*
X56169670Y-53581010D01*
X56164962Y-54062125D01*
X56144412Y-56237000D01*
X55263000Y-56237000D01*
X55263000Y-57580592D01*
X56072625Y-57559671D01*
X56444267Y-57545969D01*
X56715795Y-57524691D01*
X56914036Y-57492198D01*
X57065816Y-57444849D01*
X57128940Y-57416325D01*
X57357155Y-57246700D01*
X57562687Y-56994670D01*
X57713958Y-56704518D01*
X57767404Y-56520920D01*
X57816179Y-56353763D01*
X57875386Y-56313022D01*
X57944012Y-56398629D01*
X57997966Y-56536281D01*
X58129738Y-56785446D01*
X58349887Y-57046517D01*
X58626730Y-57289995D01*
X58928585Y-57486378D01*
X59106719Y-57568644D01*
X59427449Y-57657957D01*
X59816189Y-57716830D01*
X60227636Y-57742707D01*
X60616492Y-57733028D01*
X60937454Y-57685235D01*
X60978000Y-57674313D01*
X61507815Y-57466231D01*
X61938100Y-57181267D01*
X62266608Y-56822279D01*
X62491096Y-56392122D01*
X62609319Y-55893653D01*
X62628313Y-55574415D01*
X62599686Y-55276774D01*
X60826001Y-55276774D01*
X60822716Y-55594722D01*
X60736226Y-55899814D01*
X60567612Y-56165829D01*
X60317955Y-56366549D01*
X60247750Y-56401360D01*
X60055163Y-56451521D01*
X59781322Y-56479636D01*
X59470121Y-56485266D01*
X59165457Y-56467969D01*
X58911222Y-56427305D01*
X58866582Y-56415228D01*
X58678252Y-56329143D01*
X58460145Y-56187381D01*
X58319464Y-56073230D01*
X58025250Y-55807005D01*
X57982298Y-54320883D01*
X59019774Y-54343046D01*
X59415698Y-54353064D01*
X59708100Y-54365634D01*
X59920459Y-54383721D01*
X60076254Y-54410289D01*
X60198962Y-54448303D01*
X60312063Y-54500729D01*
X60325817Y-54507977D01*
X60578633Y-54707182D01*
X60745000Y-54972187D01*
X60826001Y-55276774D01*
X62599686Y-55276774D01*
X62576445Y-55035137D01*
X62419020Y-54566382D01*
X62156451Y-54168680D01*
X61789152Y-53842557D01*
X61317535Y-53588543D01*
X60982659Y-53470371D01*
X60649648Y-53394752D01*
X60218306Y-53332516D01*
X59716860Y-53286436D01*
X59173534Y-53259288D01*
X58771375Y-53253021D01*
X57993500Y-53252500D01*
X57993500Y-52774210D01*
X58036829Y-52299998D01*
X58167300Y-51917748D01*
X58385639Y-51626825D01*
X58692575Y-51426596D01*
X59088833Y-51316429D01*
X59575141Y-51295690D01*
X59683720Y-51302252D01*
X60127363Y-51368850D01*
X60498033Y-51506737D01*
X60838633Y-51735232D01*
X61031263Y-51909028D01*
X61197682Y-52067341D01*
X61327287Y-52183588D01*
X61395225Y-52235604D01*
X61398437Y-52236500D01*
X61453712Y-52198555D01*
X61580949Y-52098227D01*
X61755677Y-51955774D01*
X61953424Y-51791453D01*
X62149721Y-51625524D01*
X62320096Y-51478244D01*
X62395241Y-51411302D01*
X62388190Y-51339769D01*
X62300535Y-51210957D01*
X62152568Y-51044717D01*
X61964580Y-50860898D01*
X61756865Y-50679353D01*
X61549714Y-50519929D01*
X61364626Y-50403121D01*
X61051824Y-50247517D01*
X60766050Y-50135482D01*
X60472513Y-50058863D01*
X60136423Y-50009508D01*
X59722988Y-49979264D01*
X59517500Y-49970284D01*
X58873757Y-49968646D01*
X58328076Y-50020762D01*
G36*
X68471000Y-51665000D02*
G01*
X65486500Y-51665000D01*
X65486500Y-47474000D01*
X63581500Y-47474000D01*
X63581500Y-57570500D01*
X65486500Y-57570500D01*
X65486500Y-53189000D01*
X68471000Y-53189000D01*
X68471000Y-57570500D01*
X70376000Y-57570500D01*
X70376000Y-47474000D01*
X68471000Y-47474000D01*
X68471000Y-51665000D01*
G37*
X68471000Y-51665000D02*
X65486500Y-51665000D01*
X65486500Y-47474000D01*
X63581500Y-47474000D01*
X63581500Y-57570500D01*
X65486500Y-57570500D01*
X65486500Y-53189000D01*
X68471000Y-53189000D01*
X68471000Y-57570500D01*
X70376000Y-57570500D01*
X70376000Y-47474000D01*
X68471000Y-47474000D01*
X68471000Y-51665000D01*
G36*
X52024500Y-50077500D02*
G01*
X50056000Y-50077500D01*
X50056000Y-51538000D01*
X52026085Y-51538000D01*
X52009418Y-53839875D01*
X51992750Y-56141750D01*
X50452875Y-56158753D01*
X48913000Y-56175757D01*
X48913000Y-57570500D01*
X50611625Y-57568426D01*
X51136206Y-57566846D01*
X51550986Y-57562863D01*
X51873157Y-57555475D01*
X52119913Y-57543677D01*
X52308444Y-57526467D01*
X52455943Y-57502840D01*
X52579601Y-57471794D01*
X52648531Y-57449524D01*
X53020353Y-57258218D01*
X53348392Y-56967173D01*
X53603662Y-56602787D01*
X53626147Y-56559176D01*
X53663665Y-56480064D01*
X53694298Y-56399417D01*
X53718954Y-56303636D01*
X53738542Y-56179120D01*
X53753969Y-56012270D01*
X53766144Y-55789488D01*
X53775976Y-55497175D01*
X53784373Y-55121731D01*
X53792243Y-54649556D01*
X53800496Y-54067053D01*
X53802500Y-53919250D01*
X53834250Y-51569750D01*
X54485125Y-51551653D01*
X55136000Y-51533557D01*
X55136000Y-50077500D01*
X54631541Y-50077500D01*
X54348809Y-50067149D01*
X54127895Y-50026976D01*
X53961262Y-49943294D01*
X53841370Y-49802421D01*
X53760681Y-49590671D01*
X53711656Y-49294359D01*
X53686756Y-48899802D01*
X53678442Y-48393315D01*
X53678266Y-48347125D01*
X53675500Y-47474000D01*
X52024500Y-47474000D01*
X52024500Y-50077500D01*
G37*
X52024500Y-50077500D02*
X50056000Y-50077500D01*
X50056000Y-51538000D01*
X52026085Y-51538000D01*
X52009418Y-53839875D01*
X51992750Y-56141750D01*
X50452875Y-56158753D01*
X48913000Y-56175757D01*
X48913000Y-57570500D01*
X50611625Y-57568426D01*
X51136206Y-57566846D01*
X51550986Y-57562863D01*
X51873157Y-57555475D01*
X52119913Y-57543677D01*
X52308444Y-57526467D01*
X52455943Y-57502840D01*
X52579601Y-57471794D01*
X52648531Y-57449524D01*
X53020353Y-57258218D01*
X53348392Y-56967173D01*
X53603662Y-56602787D01*
X53626147Y-56559176D01*
X53663665Y-56480064D01*
X53694298Y-56399417D01*
X53718954Y-56303636D01*
X53738542Y-56179120D01*
X53753969Y-56012270D01*
X53766144Y-55789488D01*
X53775976Y-55497175D01*
X53784373Y-55121731D01*
X53792243Y-54649556D01*
X53800496Y-54067053D01*
X53802500Y-53919250D01*
X53834250Y-51569750D01*
X54485125Y-51551653D01*
X55136000Y-51533557D01*
X55136000Y-50077500D01*
X54631541Y-50077500D01*
X54348809Y-50067149D01*
X54127895Y-50026976D01*
X53961262Y-49943294D01*
X53841370Y-49802421D01*
X53760681Y-49590671D01*
X53711656Y-49294359D01*
X53686756Y-48899802D01*
X53678442Y-48393315D01*
X53678266Y-48347125D01*
X53675500Y-47474000D01*
X52024500Y-47474000D01*
X52024500Y-50077500D01*
G36*
X99323819Y-48882523D02*
G01*
X99037766Y-48978195D01*
X98800439Y-49155240D01*
X98672011Y-49341972D01*
X98584451Y-49652934D01*
X98606211Y-49950719D01*
X98721546Y-50214978D01*
X98914711Y-50425362D01*
X99169960Y-50561521D01*
X99471548Y-50603108D01*
X99632035Y-50582675D01*
X99934478Y-50459660D01*
X100167465Y-50248516D01*
X100311000Y-49973130D01*
X100348000Y-49727299D01*
X100300116Y-49503846D01*
X100177312Y-49263581D01*
X100010863Y-49059349D01*
X99903593Y-48976405D01*
X99623970Y-48878500D01*
X99323819Y-48882523D01*
G37*
X99323819Y-48882523D02*
X99037766Y-48978195D01*
X98800439Y-49155240D01*
X98672011Y-49341972D01*
X98584451Y-49652934D01*
X98606211Y-49950719D01*
X98721546Y-50214978D01*
X98914711Y-50425362D01*
X99169960Y-50561521D01*
X99471548Y-50603108D01*
X99632035Y-50582675D01*
X99934478Y-50459660D01*
X100167465Y-50248516D01*
X100311000Y-49973130D01*
X100348000Y-49727299D01*
X100300116Y-49503846D01*
X100177312Y-49263581D01*
X100010863Y-49059349D01*
X99903593Y-48976405D01*
X99623970Y-48878500D01*
X99323819Y-48882523D01*
G36*
X52657931Y-37913256D02*
G01*
X52423786Y-37955735D01*
X52197134Y-38022464D01*
X51978079Y-38113414D01*
X51766724Y-38228561D01*
X51684808Y-38281089D01*
X51495640Y-38422688D01*
X51324474Y-38581382D01*
X51172041Y-38755644D01*
X51039072Y-38943946D01*
X50926295Y-39144760D01*
X50834442Y-39356559D01*
X50764242Y-39577814D01*
X50716426Y-39806999D01*
X50691724Y-40042585D01*
X50690866Y-40283045D01*
X50695063Y-40351907D01*
X50725162Y-40596073D01*
X50777754Y-40828720D01*
X50852673Y-41049521D01*
X50949755Y-41258148D01*
X51068833Y-41454273D01*
X51209742Y-41637568D01*
X51372316Y-41807705D01*
X51476650Y-41900377D01*
X51674635Y-42050170D01*
X51883120Y-42177075D01*
X52101291Y-42280752D01*
X52328332Y-42360866D01*
X52563429Y-42417079D01*
X52799754Y-42448561D01*
X52876230Y-42454518D01*
X52936848Y-42457913D01*
X52990421Y-42458739D01*
X53045763Y-42456993D01*
X53111687Y-42452669D01*
X53165839Y-42448354D01*
X53314111Y-42429922D01*
X53470044Y-42399537D01*
X53620579Y-42359938D01*
X53682183Y-42340148D01*
X53903932Y-42251407D01*
X54113384Y-42141952D01*
X54309227Y-42013238D01*
X54490152Y-41866720D01*
X54654849Y-41703852D01*
X54802007Y-41526089D01*
X54930317Y-41334885D01*
X55038467Y-41131695D01*
X55125148Y-40917974D01*
X55189050Y-40695175D01*
X55197172Y-40658313D01*
X55235266Y-40418351D01*
X55248358Y-40179900D01*
X55247064Y-40153421D01*
X54839124Y-40153421D01*
X54838152Y-40254180D01*
X54834113Y-40348139D01*
X54827001Y-40427370D01*
X54824055Y-40448450D01*
X54778430Y-40658612D01*
X54709080Y-40860759D01*
X54616796Y-41053525D01*
X54502368Y-41235544D01*
X54366585Y-41405451D01*
X54210238Y-41561879D01*
X54150000Y-41613859D01*
X54014023Y-41718030D01*
X53875581Y-41805704D01*
X53730395Y-41878742D01*
X53574182Y-41939005D01*
X53402661Y-41988354D01*
X53211553Y-42028649D01*
X53184800Y-42033362D01*
X53142925Y-42037587D01*
X53082190Y-42039889D01*
X53009054Y-42040392D01*
X52929975Y-42039219D01*
X52851412Y-42036494D01*
X52779823Y-42032340D01*
X52721665Y-42026881D01*
X52702200Y-42024132D01*
X52479990Y-41976498D01*
X52272866Y-41908765D01*
X52079616Y-41820315D01*
X51899028Y-41710529D01*
X51729891Y-41578790D01*
X51613592Y-41469051D01*
X51472765Y-41311182D01*
X51355831Y-41147708D01*
X51261769Y-40976387D01*
X51189562Y-40794977D01*
X51138191Y-40601235D01*
X51106639Y-40392919D01*
X51102058Y-40342454D01*
X51095987Y-40118463D01*
X51113883Y-39900896D01*
X51155351Y-39690870D01*
X51219995Y-39489503D01*
X51307418Y-39297911D01*
X51417227Y-39117211D01*
X51549023Y-38948520D01*
X51624970Y-38867075D01*
X51727041Y-38768064D01*
X51821918Y-38685927D01*
X51915883Y-38616010D01*
X52015219Y-38553658D01*
X52126208Y-38494215D01*
X52132234Y-38491207D01*
X52258959Y-38432803D01*
X52380344Y-38387494D01*
X52503754Y-38353277D01*
X52636554Y-38328146D01*
X52786112Y-38310098D01*
X52803870Y-38308462D01*
X52968664Y-38301752D01*
X53140335Y-38309495D01*
X53311203Y-38330771D01*
X53473587Y-38364660D01*
X53603900Y-38404375D01*
X53786559Y-38483333D01*
X53962625Y-38585380D01*
X54129748Y-38708562D01*
X54285578Y-38850925D01*
X54427764Y-39010514D01*
X54553955Y-39185376D01*
X54565938Y-39204157D01*
X54636201Y-39329464D01*
X54700584Y-39470851D01*
X54755840Y-39619687D01*
X54798723Y-39767338D01*
X54823683Y-39889650D01*
X54831884Y-39963227D01*
X54837032Y-40053794D01*
X54839124Y-40153421D01*
X55247064Y-40153421D01*
X55236843Y-39944328D01*
X55201117Y-39712999D01*
X55141577Y-39487279D01*
X55058619Y-39268535D01*
X54952640Y-39058131D01*
X54824036Y-38857434D01*
X54673202Y-38667809D01*
X54594927Y-38583087D01*
X54500176Y-38488435D01*
X54413065Y-38408968D01*
X54326783Y-38338980D01*
X54234520Y-38272766D01*
X54186679Y-38241018D01*
X53993278Y-38128758D01*
X53792987Y-38039255D01*
X53583504Y-37971753D01*
X53362527Y-37925501D01*
X53148289Y-37901154D01*
X52899467Y-37895054D01*
X52657931Y-37913256D01*
G37*
X52657931Y-37913256D02*
X52423786Y-37955735D01*
X52197134Y-38022464D01*
X51978079Y-38113414D01*
X51766724Y-38228561D01*
X51684808Y-38281089D01*
X51495640Y-38422688D01*
X51324474Y-38581382D01*
X51172041Y-38755644D01*
X51039072Y-38943946D01*
X50926295Y-39144760D01*
X50834442Y-39356559D01*
X50764242Y-39577814D01*
X50716426Y-39806999D01*
X50691724Y-40042585D01*
X50690866Y-40283045D01*
X50695063Y-40351907D01*
X50725162Y-40596073D01*
X50777754Y-40828720D01*
X50852673Y-41049521D01*
X50949755Y-41258148D01*
X51068833Y-41454273D01*
X51209742Y-41637568D01*
X51372316Y-41807705D01*
X51476650Y-41900377D01*
X51674635Y-42050170D01*
X51883120Y-42177075D01*
X52101291Y-42280752D01*
X52328332Y-42360866D01*
X52563429Y-42417079D01*
X52799754Y-42448561D01*
X52876230Y-42454518D01*
X52936848Y-42457913D01*
X52990421Y-42458739D01*
X53045763Y-42456993D01*
X53111687Y-42452669D01*
X53165839Y-42448354D01*
X53314111Y-42429922D01*
X53470044Y-42399537D01*
X53620579Y-42359938D01*
X53682183Y-42340148D01*
X53903932Y-42251407D01*
X54113384Y-42141952D01*
X54309227Y-42013238D01*
X54490152Y-41866720D01*
X54654849Y-41703852D01*
X54802007Y-41526089D01*
X54930317Y-41334885D01*
X55038467Y-41131695D01*
X55125148Y-40917974D01*
X55189050Y-40695175D01*
X55197172Y-40658313D01*
X55235266Y-40418351D01*
X55248358Y-40179900D01*
X55247064Y-40153421D01*
X54839124Y-40153421D01*
X54838152Y-40254180D01*
X54834113Y-40348139D01*
X54827001Y-40427370D01*
X54824055Y-40448450D01*
X54778430Y-40658612D01*
X54709080Y-40860759D01*
X54616796Y-41053525D01*
X54502368Y-41235544D01*
X54366585Y-41405451D01*
X54210238Y-41561879D01*
X54150000Y-41613859D01*
X54014023Y-41718030D01*
X53875581Y-41805704D01*
X53730395Y-41878742D01*
X53574182Y-41939005D01*
X53402661Y-41988354D01*
X53211553Y-42028649D01*
X53184800Y-42033362D01*
X53142925Y-42037587D01*
X53082190Y-42039889D01*
X53009054Y-42040392D01*
X52929975Y-42039219D01*
X52851412Y-42036494D01*
X52779823Y-42032340D01*
X52721665Y-42026881D01*
X52702200Y-42024132D01*
X52479990Y-41976498D01*
X52272866Y-41908765D01*
X52079616Y-41820315D01*
X51899028Y-41710529D01*
X51729891Y-41578790D01*
X51613592Y-41469051D01*
X51472765Y-41311182D01*
X51355831Y-41147708D01*
X51261769Y-40976387D01*
X51189562Y-40794977D01*
X51138191Y-40601235D01*
X51106639Y-40392919D01*
X51102058Y-40342454D01*
X51095987Y-40118463D01*
X51113883Y-39900896D01*
X51155351Y-39690870D01*
X51219995Y-39489503D01*
X51307418Y-39297911D01*
X51417227Y-39117211D01*
X51549023Y-38948520D01*
X51624970Y-38867075D01*
X51727041Y-38768064D01*
X51821918Y-38685927D01*
X51915883Y-38616010D01*
X52015219Y-38553658D01*
X52126208Y-38494215D01*
X52132234Y-38491207D01*
X52258959Y-38432803D01*
X52380344Y-38387494D01*
X52503754Y-38353277D01*
X52636554Y-38328146D01*
X52786112Y-38310098D01*
X52803870Y-38308462D01*
X52968664Y-38301752D01*
X53140335Y-38309495D01*
X53311203Y-38330771D01*
X53473587Y-38364660D01*
X53603900Y-38404375D01*
X53786559Y-38483333D01*
X53962625Y-38585380D01*
X54129748Y-38708562D01*
X54285578Y-38850925D01*
X54427764Y-39010514D01*
X54553955Y-39185376D01*
X54565938Y-39204157D01*
X54636201Y-39329464D01*
X54700584Y-39470851D01*
X54755840Y-39619687D01*
X54798723Y-39767338D01*
X54823683Y-39889650D01*
X54831884Y-39963227D01*
X54837032Y-40053794D01*
X54839124Y-40153421D01*
X55247064Y-40153421D01*
X55236843Y-39944328D01*
X55201117Y-39712999D01*
X55141577Y-39487279D01*
X55058619Y-39268535D01*
X54952640Y-39058131D01*
X54824036Y-38857434D01*
X54673202Y-38667809D01*
X54594927Y-38583087D01*
X54500176Y-38488435D01*
X54413065Y-38408968D01*
X54326783Y-38338980D01*
X54234520Y-38272766D01*
X54186679Y-38241018D01*
X53993278Y-38128758D01*
X53792987Y-38039255D01*
X53583504Y-37971753D01*
X53362527Y-37925501D01*
X53148289Y-37901154D01*
X52899467Y-37895054D01*
X52657931Y-37913256D01*
G36*
X47581304Y-37901869D02*
G01*
X47362599Y-37926878D01*
X47158449Y-37968586D01*
X46963080Y-38028467D01*
X46770717Y-38107993D01*
X46768277Y-38109131D01*
X46580633Y-38210013D01*
X46399781Y-38333032D01*
X46228588Y-38475232D01*
X46069918Y-38633654D01*
X45926636Y-38805341D01*
X45801607Y-38987337D01*
X45697698Y-39176684D01*
X45665430Y-39247428D01*
X45586560Y-39461621D01*
X45529424Y-39685965D01*
X45494144Y-39917267D01*
X45480842Y-40152335D01*
X45489639Y-40387973D01*
X45520659Y-40620990D01*
X45574022Y-40848193D01*
X45601013Y-40934826D01*
X45684980Y-41146852D01*
X45791229Y-41347127D01*
X45919905Y-41535849D01*
X46071155Y-41713213D01*
X46245128Y-41879418D01*
X46400969Y-42004631D01*
X46597151Y-42136427D01*
X46802289Y-42246307D01*
X47014218Y-42333350D01*
X47230768Y-42396636D01*
X47399950Y-42428693D01*
X47517429Y-42442165D01*
X47646233Y-42450934D01*
X47776565Y-42454656D01*
X47898624Y-42452991D01*
X47971450Y-42448645D01*
X48199313Y-42416893D01*
X48422255Y-42360872D01*
X48638640Y-42281499D01*
X48846832Y-42179689D01*
X49045196Y-42056360D01*
X49232096Y-41912429D01*
X49405895Y-41748813D01*
X49564957Y-41566429D01*
X49580140Y-41547000D01*
X49715513Y-41351723D01*
X49827877Y-41146040D01*
X49916966Y-40930852D01*
X49982518Y-40707060D01*
X50024266Y-40475563D01*
X50041947Y-40237262D01*
X50039408Y-40141635D01*
X49635919Y-40141635D01*
X49628381Y-40345423D01*
X49599391Y-40546266D01*
X49549343Y-40741534D01*
X49478628Y-40928599D01*
X49387639Y-41104829D01*
X49276769Y-41267596D01*
X49265697Y-41281661D01*
X49110394Y-41459791D01*
X48947377Y-41613836D01*
X48776186Y-41744049D01*
X48596366Y-41850685D01*
X48407459Y-41933998D01*
X48209007Y-41994244D01*
X48000553Y-42031677D01*
X47901600Y-42041275D01*
X47840759Y-42045009D01*
X47784692Y-42047265D01*
X47741207Y-42047788D01*
X47723800Y-42047114D01*
X47690018Y-42044438D01*
X47640369Y-42040764D01*
X47584329Y-42036790D01*
X47571400Y-42035898D01*
X47386609Y-42011282D01*
X47199990Y-41963496D01*
X47015642Y-41894070D01*
X46837662Y-41804533D01*
X46678881Y-41702720D01*
X46629619Y-41665000D01*
X46569781Y-41615571D01*
X46506740Y-41560699D01*
X46447866Y-41506650D01*
X46444921Y-41503849D01*
X46298421Y-41349943D01*
X46175722Y-41189356D01*
X46075937Y-41020217D01*
X45998179Y-40840653D01*
X45941564Y-40648795D01*
X45905203Y-40442770D01*
X45895014Y-40342454D01*
X45888596Y-40117469D01*
X45905726Y-39900061D01*
X45946197Y-39691085D01*
X46009801Y-39491397D01*
X46096331Y-39301855D01*
X46181063Y-39159400D01*
X46312043Y-38982464D01*
X46458464Y-38823544D01*
X46618710Y-38683786D01*
X46791164Y-38564337D01*
X46974212Y-38466345D01*
X47166237Y-38390958D01*
X47323750Y-38348022D01*
X47522800Y-38315008D01*
X47725875Y-38302231D01*
X47928956Y-38309259D01*
X48128026Y-38335660D01*
X48319066Y-38381001D01*
X48498057Y-38444851D01*
X48581050Y-38483216D01*
X48754039Y-38583306D01*
X48918695Y-38704678D01*
X49072237Y-38844220D01*
X49211880Y-38998822D01*
X49334840Y-39165373D01*
X49438334Y-39340764D01*
X49519577Y-39521884D01*
X49525898Y-39538897D01*
X49585071Y-39735742D01*
X49621613Y-39937532D01*
X49635919Y-40141635D01*
X50039408Y-40141635D01*
X50035552Y-39996419D01*
X50005188Y-39757433D01*
X49950836Y-39526531D01*
X49872797Y-39304360D01*
X49771370Y-39091571D01*
X49646855Y-38888811D01*
X49499553Y-38696730D01*
X49368930Y-38554636D01*
X49191485Y-38393170D01*
X49001685Y-38253698D01*
X48800445Y-38136552D01*
X48588677Y-38042067D01*
X48367294Y-37970574D01*
X48137212Y-37922409D01*
X47899341Y-37897905D01*
X47654597Y-37897395D01*
X47581304Y-37901869D01*
G37*
X47581304Y-37901869D02*
X47362599Y-37926878D01*
X47158449Y-37968586D01*
X46963080Y-38028467D01*
X46770717Y-38107993D01*
X46768277Y-38109131D01*
X46580633Y-38210013D01*
X46399781Y-38333032D01*
X46228588Y-38475232D01*
X46069918Y-38633654D01*
X45926636Y-38805341D01*
X45801607Y-38987337D01*
X45697698Y-39176684D01*
X45665430Y-39247428D01*
X45586560Y-39461621D01*
X45529424Y-39685965D01*
X45494144Y-39917267D01*
X45480842Y-40152335D01*
X45489639Y-40387973D01*
X45520659Y-40620990D01*
X45574022Y-40848193D01*
X45601013Y-40934826D01*
X45684980Y-41146852D01*
X45791229Y-41347127D01*
X45919905Y-41535849D01*
X46071155Y-41713213D01*
X46245128Y-41879418D01*
X46400969Y-42004631D01*
X46597151Y-42136427D01*
X46802289Y-42246307D01*
X47014218Y-42333350D01*
X47230768Y-42396636D01*
X47399950Y-42428693D01*
X47517429Y-42442165D01*
X47646233Y-42450934D01*
X47776565Y-42454656D01*
X47898624Y-42452991D01*
X47971450Y-42448645D01*
X48199313Y-42416893D01*
X48422255Y-42360872D01*
X48638640Y-42281499D01*
X48846832Y-42179689D01*
X49045196Y-42056360D01*
X49232096Y-41912429D01*
X49405895Y-41748813D01*
X49564957Y-41566429D01*
X49580140Y-41547000D01*
X49715513Y-41351723D01*
X49827877Y-41146040D01*
X49916966Y-40930852D01*
X49982518Y-40707060D01*
X50024266Y-40475563D01*
X50041947Y-40237262D01*
X50039408Y-40141635D01*
X49635919Y-40141635D01*
X49628381Y-40345423D01*
X49599391Y-40546266D01*
X49549343Y-40741534D01*
X49478628Y-40928599D01*
X49387639Y-41104829D01*
X49276769Y-41267596D01*
X49265697Y-41281661D01*
X49110394Y-41459791D01*
X48947377Y-41613836D01*
X48776186Y-41744049D01*
X48596366Y-41850685D01*
X48407459Y-41933998D01*
X48209007Y-41994244D01*
X48000553Y-42031677D01*
X47901600Y-42041275D01*
X47840759Y-42045009D01*
X47784692Y-42047265D01*
X47741207Y-42047788D01*
X47723800Y-42047114D01*
X47690018Y-42044438D01*
X47640369Y-42040764D01*
X47584329Y-42036790D01*
X47571400Y-42035898D01*
X47386609Y-42011282D01*
X47199990Y-41963496D01*
X47015642Y-41894070D01*
X46837662Y-41804533D01*
X46678881Y-41702720D01*
X46629619Y-41665000D01*
X46569781Y-41615571D01*
X46506740Y-41560699D01*
X46447866Y-41506650D01*
X46444921Y-41503849D01*
X46298421Y-41349943D01*
X46175722Y-41189356D01*
X46075937Y-41020217D01*
X45998179Y-40840653D01*
X45941564Y-40648795D01*
X45905203Y-40442770D01*
X45895014Y-40342454D01*
X45888596Y-40117469D01*
X45905726Y-39900061D01*
X45946197Y-39691085D01*
X46009801Y-39491397D01*
X46096331Y-39301855D01*
X46181063Y-39159400D01*
X46312043Y-38982464D01*
X46458464Y-38823544D01*
X46618710Y-38683786D01*
X46791164Y-38564337D01*
X46974212Y-38466345D01*
X47166237Y-38390958D01*
X47323750Y-38348022D01*
X47522800Y-38315008D01*
X47725875Y-38302231D01*
X47928956Y-38309259D01*
X48128026Y-38335660D01*
X48319066Y-38381001D01*
X48498057Y-38444851D01*
X48581050Y-38483216D01*
X48754039Y-38583306D01*
X48918695Y-38704678D01*
X49072237Y-38844220D01*
X49211880Y-38998822D01*
X49334840Y-39165373D01*
X49438334Y-39340764D01*
X49519577Y-39521884D01*
X49525898Y-39538897D01*
X49585071Y-39735742D01*
X49621613Y-39937532D01*
X49635919Y-40141635D01*
X50039408Y-40141635D01*
X50035552Y-39996419D01*
X50005188Y-39757433D01*
X49950836Y-39526531D01*
X49872797Y-39304360D01*
X49771370Y-39091571D01*
X49646855Y-38888811D01*
X49499553Y-38696730D01*
X49368930Y-38554636D01*
X49191485Y-38393170D01*
X49001685Y-38253698D01*
X48800445Y-38136552D01*
X48588677Y-38042067D01*
X48367294Y-37970574D01*
X48137212Y-37922409D01*
X47899341Y-37897905D01*
X47654597Y-37897395D01*
X47581304Y-37901869D01*
G36*
X42282470Y-37908846D02*
G01*
X42082921Y-37937895D01*
X42066329Y-37941172D01*
X41853085Y-37996862D01*
X41641101Y-38077384D01*
X41431704Y-38182168D01*
X41264757Y-38284534D01*
X41162245Y-38359855D01*
X41053512Y-38452329D01*
X40943954Y-38556521D01*
X40838966Y-38666995D01*
X40743941Y-38778317D01*
X40664275Y-38885049D01*
X40654832Y-38899050D01*
X40542416Y-39083145D01*
X40451887Y-39265931D01*
X40381610Y-39452211D01*
X40329951Y-39646787D01*
X40295278Y-39854461D01*
X40281180Y-39997332D01*
X40274883Y-40220282D01*
X40288845Y-40443152D01*
X40322305Y-40661994D01*
X40374504Y-40872858D01*
X40444681Y-41071796D01*
X40518391Y-41229500D01*
X40640014Y-41432732D01*
X40782210Y-41622351D01*
X40943183Y-41796776D01*
X41121137Y-41954425D01*
X41314278Y-42093720D01*
X41520809Y-42213079D01*
X41738935Y-42310921D01*
X41753274Y-42316423D01*
X41921844Y-42370620D01*
X42106362Y-42412297D01*
X42300208Y-42440588D01*
X42496762Y-42454628D01*
X42689402Y-42453550D01*
X42764450Y-42448645D01*
X42990099Y-42417155D01*
X43210572Y-42361854D01*
X43424143Y-42284094D01*
X43629088Y-42185229D01*
X43823680Y-42066612D01*
X44006195Y-41929595D01*
X44174906Y-41775531D01*
X44328089Y-41605775D01*
X44464018Y-41421677D01*
X44580968Y-41224593D01*
X44677212Y-41015874D01*
X44712403Y-40921144D01*
X44759823Y-40769139D01*
X44793990Y-40623545D01*
X44817224Y-40473041D01*
X44828552Y-40354380D01*
X44831089Y-40251651D01*
X44427093Y-40251651D01*
X44422232Y-40328716D01*
X44394081Y-40538807D01*
X44346754Y-40734197D01*
X44279074Y-40917451D01*
X44189865Y-41091132D01*
X44077951Y-41257804D01*
X43942154Y-41420031D01*
X43901843Y-41462779D01*
X43744207Y-41612008D01*
X43581573Y-41737384D01*
X43411407Y-41840332D01*
X43231176Y-41922279D01*
X43038346Y-41984653D01*
X42929181Y-42010470D01*
X42867910Y-42021208D01*
X42794254Y-42030982D01*
X42715510Y-42039145D01*
X42638971Y-42045047D01*
X42571933Y-42048042D01*
X42521693Y-42047480D01*
X42516800Y-42047114D01*
X42483018Y-42044438D01*
X42433369Y-42040764D01*
X42377329Y-42036790D01*
X42364400Y-42035898D01*
X42176199Y-42010616D01*
X41988598Y-41961553D01*
X41804082Y-41890262D01*
X41625132Y-41798292D01*
X41454231Y-41687193D01*
X41293862Y-41558516D01*
X41146506Y-41413812D01*
X41014648Y-41254631D01*
X40939674Y-41146087D01*
X40853667Y-40989949D01*
X40784064Y-40817478D01*
X40731692Y-40632406D01*
X40697378Y-40438464D01*
X40681950Y-40239382D01*
X40686234Y-40038891D01*
X40688321Y-40012469D01*
X40716569Y-39799487D01*
X40764039Y-39601337D01*
X40831773Y-39415908D01*
X40920815Y-39241088D01*
X41032207Y-39074764D01*
X41166994Y-38914824D01*
X41291733Y-38790639D01*
X41459768Y-38650355D01*
X41635879Y-38534032D01*
X41819908Y-38441757D01*
X42011696Y-38373614D01*
X42116067Y-38347391D01*
X42307215Y-38316069D01*
X42502859Y-38303046D01*
X42698737Y-38307883D01*
X42890588Y-38330140D01*
X43074150Y-38369377D01*
X43245162Y-38425154D01*
X43358907Y-38475700D01*
X43532536Y-38576260D01*
X43699301Y-38698713D01*
X43855984Y-38839814D01*
X43999368Y-38996318D01*
X44126236Y-39164982D01*
X44233370Y-39342561D01*
X44249692Y-39374000D01*
X44316603Y-39529603D01*
X44368834Y-39700899D01*
X44405350Y-39882159D01*
X44425115Y-40067654D01*
X44427093Y-40251651D01*
X44831089Y-40251651D01*
X44834564Y-40110968D01*
X44815992Y-39872603D01*
X44773352Y-39640446D01*
X44707161Y-39415657D01*
X44617936Y-39199396D01*
X44506192Y-38992824D01*
X44372446Y-38797101D01*
X44217216Y-38613386D01*
X44041017Y-38442840D01*
X43940085Y-38358802D01*
X43812660Y-38267353D01*
X43668350Y-38179683D01*
X43515657Y-38100375D01*
X43363083Y-38034015D01*
X43285150Y-38005654D01*
X43102866Y-37955019D01*
X42905783Y-37919721D01*
X42699574Y-37900060D01*
X42489912Y-37896335D01*
X42282470Y-37908846D01*
G37*
X42282470Y-37908846D02*
X42082921Y-37937895D01*
X42066329Y-37941172D01*
X41853085Y-37996862D01*
X41641101Y-38077384D01*
X41431704Y-38182168D01*
X41264757Y-38284534D01*
X41162245Y-38359855D01*
X41053512Y-38452329D01*
X40943954Y-38556521D01*
X40838966Y-38666995D01*
X40743941Y-38778317D01*
X40664275Y-38885049D01*
X40654832Y-38899050D01*
X40542416Y-39083145D01*
X40451887Y-39265931D01*
X40381610Y-39452211D01*
X40329951Y-39646787D01*
X40295278Y-39854461D01*
X40281180Y-39997332D01*
X40274883Y-40220282D01*
X40288845Y-40443152D01*
X40322305Y-40661994D01*
X40374504Y-40872858D01*
X40444681Y-41071796D01*
X40518391Y-41229500D01*
X40640014Y-41432732D01*
X40782210Y-41622351D01*
X40943183Y-41796776D01*
X41121137Y-41954425D01*
X41314278Y-42093720D01*
X41520809Y-42213079D01*
X41738935Y-42310921D01*
X41753274Y-42316423D01*
X41921844Y-42370620D01*
X42106362Y-42412297D01*
X42300208Y-42440588D01*
X42496762Y-42454628D01*
X42689402Y-42453550D01*
X42764450Y-42448645D01*
X42990099Y-42417155D01*
X43210572Y-42361854D01*
X43424143Y-42284094D01*
X43629088Y-42185229D01*
X43823680Y-42066612D01*
X44006195Y-41929595D01*
X44174906Y-41775531D01*
X44328089Y-41605775D01*
X44464018Y-41421677D01*
X44580968Y-41224593D01*
X44677212Y-41015874D01*
X44712403Y-40921144D01*
X44759823Y-40769139D01*
X44793990Y-40623545D01*
X44817224Y-40473041D01*
X44828552Y-40354380D01*
X44831089Y-40251651D01*
X44427093Y-40251651D01*
X44422232Y-40328716D01*
X44394081Y-40538807D01*
X44346754Y-40734197D01*
X44279074Y-40917451D01*
X44189865Y-41091132D01*
X44077951Y-41257804D01*
X43942154Y-41420031D01*
X43901843Y-41462779D01*
X43744207Y-41612008D01*
X43581573Y-41737384D01*
X43411407Y-41840332D01*
X43231176Y-41922279D01*
X43038346Y-41984653D01*
X42929181Y-42010470D01*
X42867910Y-42021208D01*
X42794254Y-42030982D01*
X42715510Y-42039145D01*
X42638971Y-42045047D01*
X42571933Y-42048042D01*
X42521693Y-42047480D01*
X42516800Y-42047114D01*
X42483018Y-42044438D01*
X42433369Y-42040764D01*
X42377329Y-42036790D01*
X42364400Y-42035898D01*
X42176199Y-42010616D01*
X41988598Y-41961553D01*
X41804082Y-41890262D01*
X41625132Y-41798292D01*
X41454231Y-41687193D01*
X41293862Y-41558516D01*
X41146506Y-41413812D01*
X41014648Y-41254631D01*
X40939674Y-41146087D01*
X40853667Y-40989949D01*
X40784064Y-40817478D01*
X40731692Y-40632406D01*
X40697378Y-40438464D01*
X40681950Y-40239382D01*
X40686234Y-40038891D01*
X40688321Y-40012469D01*
X40716569Y-39799487D01*
X40764039Y-39601337D01*
X40831773Y-39415908D01*
X40920815Y-39241088D01*
X41032207Y-39074764D01*
X41166994Y-38914824D01*
X41291733Y-38790639D01*
X41459768Y-38650355D01*
X41635879Y-38534032D01*
X41819908Y-38441757D01*
X42011696Y-38373614D01*
X42116067Y-38347391D01*
X42307215Y-38316069D01*
X42502859Y-38303046D01*
X42698737Y-38307883D01*
X42890588Y-38330140D01*
X43074150Y-38369377D01*
X43245162Y-38425154D01*
X43358907Y-38475700D01*
X43532536Y-38576260D01*
X43699301Y-38698713D01*
X43855984Y-38839814D01*
X43999368Y-38996318D01*
X44126236Y-39164982D01*
X44233370Y-39342561D01*
X44249692Y-39374000D01*
X44316603Y-39529603D01*
X44368834Y-39700899D01*
X44405350Y-39882159D01*
X44425115Y-40067654D01*
X44427093Y-40251651D01*
X44831089Y-40251651D01*
X44834564Y-40110968D01*
X44815992Y-39872603D01*
X44773352Y-39640446D01*
X44707161Y-39415657D01*
X44617936Y-39199396D01*
X44506192Y-38992824D01*
X44372446Y-38797101D01*
X44217216Y-38613386D01*
X44041017Y-38442840D01*
X43940085Y-38358802D01*
X43812660Y-38267353D01*
X43668350Y-38179683D01*
X43515657Y-38100375D01*
X43363083Y-38034015D01*
X43285150Y-38005654D01*
X43102866Y-37955019D01*
X42905783Y-37919721D01*
X42699574Y-37900060D01*
X42489912Y-37896335D01*
X42282470Y-37908846D01*
G36*
X53560330Y-39467589D02*
G01*
X53509052Y-39473670D01*
X53471326Y-39479590D01*
X53345804Y-39509556D01*
X53236057Y-39555360D01*
X53144868Y-39615813D01*
X53137003Y-39622508D01*
X53104382Y-39654345D01*
X53070446Y-39692870D01*
X53039839Y-39732083D01*
X53017206Y-39765988D01*
X53007191Y-39788584D01*
X53007058Y-39790338D01*
X53017557Y-39798809D01*
X53045688Y-39816081D01*
X53086453Y-39839416D01*
X53134857Y-39866079D01*
X53185900Y-39893332D01*
X53234587Y-39918439D01*
X53275920Y-39938665D01*
X53288253Y-39944320D01*
X53299588Y-39936956D01*
X53319571Y-39913893D01*
X53335851Y-39891611D01*
X53390263Y-39833620D01*
X53458613Y-39793267D01*
X53535129Y-39772502D01*
X53614042Y-39773274D01*
X53655980Y-39783453D01*
X53725627Y-39817002D01*
X53779517Y-39866566D01*
X53818523Y-39933682D01*
X53843516Y-40019886D01*
X53855368Y-40126714D01*
X53855750Y-40135569D01*
X53854770Y-40246608D01*
X53841797Y-40338057D01*
X53816062Y-40413114D01*
X53776794Y-40474976D01*
X53772828Y-40479704D01*
X53712630Y-40535991D01*
X53646226Y-40569194D01*
X53568771Y-40581593D01*
X53555884Y-40581800D01*
X53468577Y-40570705D01*
X53392572Y-40537171D01*
X53327266Y-40480820D01*
X53275239Y-40406970D01*
X53264390Y-40403167D01*
X53239886Y-40409581D01*
X53199169Y-40427181D01*
X53139681Y-40456934D01*
X53130223Y-40461856D01*
X52994334Y-40532822D01*
X53031253Y-40586481D01*
X53112469Y-40682768D01*
X53210068Y-40761681D01*
X53320660Y-40821794D01*
X53440855Y-40861678D01*
X53567263Y-40879905D01*
X53696495Y-40875047D01*
X53711251Y-40872964D01*
X53829228Y-40846778D01*
X53930348Y-40805506D01*
X54019829Y-40746623D01*
X54074816Y-40697116D01*
X54141801Y-40620308D01*
X54192011Y-40538709D01*
X54227274Y-40447611D01*
X54249421Y-40342304D01*
X54260203Y-40219850D01*
X54259659Y-40086862D01*
X54244497Y-39971384D01*
X54213353Y-39869257D01*
X54164859Y-39776321D01*
X54097650Y-39688418D01*
X54079014Y-39668063D01*
X54002165Y-39596696D01*
X53921712Y-39544109D01*
X53831044Y-39506902D01*
X53723550Y-39481675D01*
X53713207Y-39479938D01*
X53651678Y-39470707D01*
X53604295Y-39466596D01*
X53560330Y-39467589D01*
G37*
X53560330Y-39467589D02*
X53509052Y-39473670D01*
X53471326Y-39479590D01*
X53345804Y-39509556D01*
X53236057Y-39555360D01*
X53144868Y-39615813D01*
X53137003Y-39622508D01*
X53104382Y-39654345D01*
X53070446Y-39692870D01*
X53039839Y-39732083D01*
X53017206Y-39765988D01*
X53007191Y-39788584D01*
X53007058Y-39790338D01*
X53017557Y-39798809D01*
X53045688Y-39816081D01*
X53086453Y-39839416D01*
X53134857Y-39866079D01*
X53185900Y-39893332D01*
X53234587Y-39918439D01*
X53275920Y-39938665D01*
X53288253Y-39944320D01*
X53299588Y-39936956D01*
X53319571Y-39913893D01*
X53335851Y-39891611D01*
X53390263Y-39833620D01*
X53458613Y-39793267D01*
X53535129Y-39772502D01*
X53614042Y-39773274D01*
X53655980Y-39783453D01*
X53725627Y-39817002D01*
X53779517Y-39866566D01*
X53818523Y-39933682D01*
X53843516Y-40019886D01*
X53855368Y-40126714D01*
X53855750Y-40135569D01*
X53854770Y-40246608D01*
X53841797Y-40338057D01*
X53816062Y-40413114D01*
X53776794Y-40474976D01*
X53772828Y-40479704D01*
X53712630Y-40535991D01*
X53646226Y-40569194D01*
X53568771Y-40581593D01*
X53555884Y-40581800D01*
X53468577Y-40570705D01*
X53392572Y-40537171D01*
X53327266Y-40480820D01*
X53275239Y-40406970D01*
X53264390Y-40403167D01*
X53239886Y-40409581D01*
X53199169Y-40427181D01*
X53139681Y-40456934D01*
X53130223Y-40461856D01*
X52994334Y-40532822D01*
X53031253Y-40586481D01*
X53112469Y-40682768D01*
X53210068Y-40761681D01*
X53320660Y-40821794D01*
X53440855Y-40861678D01*
X53567263Y-40879905D01*
X53696495Y-40875047D01*
X53711251Y-40872964D01*
X53829228Y-40846778D01*
X53930348Y-40805506D01*
X54019829Y-40746623D01*
X54074816Y-40697116D01*
X54141801Y-40620308D01*
X54192011Y-40538709D01*
X54227274Y-40447611D01*
X54249421Y-40342304D01*
X54260203Y-40219850D01*
X54259659Y-40086862D01*
X54244497Y-39971384D01*
X54213353Y-39869257D01*
X54164859Y-39776321D01*
X54097650Y-39688418D01*
X54079014Y-39668063D01*
X54002165Y-39596696D01*
X53921712Y-39544109D01*
X53831044Y-39506902D01*
X53723550Y-39481675D01*
X53713207Y-39479938D01*
X53651678Y-39470707D01*
X53604295Y-39466596D01*
X53560330Y-39467589D01*
G36*
X52101138Y-39487583D02*
G01*
X51986623Y-39521666D01*
X51884390Y-39572454D01*
X51831111Y-39610504D01*
X51796339Y-39642619D01*
X51761105Y-39681069D01*
X51729347Y-39720694D01*
X51705003Y-39756331D01*
X51692013Y-39782821D01*
X51691753Y-39793109D01*
X51704282Y-39802069D01*
X51733902Y-39819886D01*
X51775222Y-39843588D01*
X51822856Y-39870206D01*
X51871415Y-39896767D01*
X51915510Y-39920302D01*
X51949753Y-39937839D01*
X51968756Y-39946407D01*
X51970500Y-39946800D01*
X51979171Y-39937414D01*
X51997795Y-39913248D01*
X52014206Y-39890806D01*
X52070754Y-39831549D01*
X52138381Y-39791840D01*
X52212493Y-39772085D01*
X52288495Y-39772691D01*
X52361793Y-39794066D01*
X52427790Y-39836617D01*
X52444609Y-39852665D01*
X52488721Y-39910084D01*
X52518729Y-39977989D01*
X52535914Y-40060554D01*
X52541554Y-40161952D01*
X52541552Y-40169050D01*
X52533265Y-40285876D01*
X52509485Y-40384228D01*
X52470668Y-40463485D01*
X52417273Y-40523026D01*
X52349757Y-40562230D01*
X52268576Y-40580478D01*
X52237134Y-40581800D01*
X52149632Y-40570705D01*
X52074047Y-40538135D01*
X52012459Y-40485158D01*
X51989588Y-40454519D01*
X51949568Y-40392759D01*
X51811913Y-40461795D01*
X51674258Y-40530832D01*
X51699540Y-40573681D01*
X51729266Y-40613861D01*
X51773523Y-40661643D01*
X51825595Y-40710708D01*
X51878765Y-40754740D01*
X51926318Y-40787420D01*
X51927500Y-40788109D01*
X52033989Y-40836575D01*
X52152523Y-40867709D01*
X52275348Y-40880092D01*
X52390451Y-40872964D01*
X52507556Y-40847076D01*
X52607914Y-40806330D01*
X52697082Y-40748024D01*
X52755854Y-40695278D01*
X52829082Y-40604529D01*
X52884934Y-40497691D01*
X52922677Y-40377863D01*
X52941578Y-40248144D01*
X52940904Y-40111634D01*
X52923368Y-39987539D01*
X52886187Y-39865422D01*
X52828509Y-39755786D01*
X52752389Y-39660857D01*
X52659886Y-39582863D01*
X52553056Y-39524030D01*
X52468123Y-39494705D01*
X52346912Y-39473190D01*
X52222909Y-39471120D01*
X52101138Y-39487583D01*
G37*
X52101138Y-39487583D02*
X51986623Y-39521666D01*
X51884390Y-39572454D01*
X51831111Y-39610504D01*
X51796339Y-39642619D01*
X51761105Y-39681069D01*
X51729347Y-39720694D01*
X51705003Y-39756331D01*
X51692013Y-39782821D01*
X51691753Y-39793109D01*
X51704282Y-39802069D01*
X51733902Y-39819886D01*
X51775222Y-39843588D01*
X51822856Y-39870206D01*
X51871415Y-39896767D01*
X51915510Y-39920302D01*
X51949753Y-39937839D01*
X51968756Y-39946407D01*
X51970500Y-39946800D01*
X51979171Y-39937414D01*
X51997795Y-39913248D01*
X52014206Y-39890806D01*
X52070754Y-39831549D01*
X52138381Y-39791840D01*
X52212493Y-39772085D01*
X52288495Y-39772691D01*
X52361793Y-39794066D01*
X52427790Y-39836617D01*
X52444609Y-39852665D01*
X52488721Y-39910084D01*
X52518729Y-39977989D01*
X52535914Y-40060554D01*
X52541554Y-40161952D01*
X52541552Y-40169050D01*
X52533265Y-40285876D01*
X52509485Y-40384228D01*
X52470668Y-40463485D01*
X52417273Y-40523026D01*
X52349757Y-40562230D01*
X52268576Y-40580478D01*
X52237134Y-40581800D01*
X52149632Y-40570705D01*
X52074047Y-40538135D01*
X52012459Y-40485158D01*
X51989588Y-40454519D01*
X51949568Y-40392759D01*
X51811913Y-40461795D01*
X51674258Y-40530832D01*
X51699540Y-40573681D01*
X51729266Y-40613861D01*
X51773523Y-40661643D01*
X51825595Y-40710708D01*
X51878765Y-40754740D01*
X51926318Y-40787420D01*
X51927500Y-40788109D01*
X52033989Y-40836575D01*
X52152523Y-40867709D01*
X52275348Y-40880092D01*
X52390451Y-40872964D01*
X52507556Y-40847076D01*
X52607914Y-40806330D01*
X52697082Y-40748024D01*
X52755854Y-40695278D01*
X52829082Y-40604529D01*
X52884934Y-40497691D01*
X52922677Y-40377863D01*
X52941578Y-40248144D01*
X52940904Y-40111634D01*
X52923368Y-39987539D01*
X52886187Y-39865422D01*
X52828509Y-39755786D01*
X52752389Y-39660857D01*
X52659886Y-39582863D01*
X52553056Y-39524030D01*
X52468123Y-39494705D01*
X52346912Y-39473190D01*
X52222909Y-39471120D01*
X52101138Y-39487583D01*
G36*
X47674197Y-39462757D02*
G01*
X47573789Y-39463782D01*
X47479944Y-39465565D01*
X47396211Y-39468109D01*
X47326140Y-39471412D01*
X47273283Y-39475475D01*
X47241189Y-39480297D01*
X47236102Y-39481908D01*
X47215665Y-39490556D01*
X47198852Y-39499411D01*
X47185310Y-39510874D01*
X47174686Y-39527348D01*
X47166625Y-39551236D01*
X47160775Y-39584940D01*
X47156781Y-39630862D01*
X47154290Y-39691405D01*
X47152948Y-39768972D01*
X47152402Y-39865965D01*
X47152297Y-39984785D01*
X47152300Y-40051225D01*
X47152300Y-40543700D01*
X47406300Y-40543700D01*
X47406300Y-41648600D01*
X47758725Y-41648601D01*
X48111150Y-41648603D01*
X48111150Y-40550050D01*
X48241325Y-40546430D01*
X48371500Y-40542811D01*
X48371500Y-40050781D01*
X48371483Y-39920528D01*
X48371196Y-39813271D01*
X48370283Y-39726606D01*
X48368392Y-39658131D01*
X48365168Y-39605441D01*
X48360258Y-39566133D01*
X48353306Y-39537803D01*
X48343960Y-39518048D01*
X48331864Y-39504465D01*
X48316665Y-39494649D01*
X48298009Y-39486196D01*
X48287699Y-39481908D01*
X48262595Y-39476856D01*
X48215652Y-39472563D01*
X48150422Y-39469029D01*
X48070453Y-39466256D01*
X47979296Y-39464242D01*
X47880501Y-39462987D01*
X47777618Y-39462492D01*
X47674197Y-39462757D01*
G37*
X47674197Y-39462757D02*
X47573789Y-39463782D01*
X47479944Y-39465565D01*
X47396211Y-39468109D01*
X47326140Y-39471412D01*
X47273283Y-39475475D01*
X47241189Y-39480297D01*
X47236102Y-39481908D01*
X47215665Y-39490556D01*
X47198852Y-39499411D01*
X47185310Y-39510874D01*
X47174686Y-39527348D01*
X47166625Y-39551236D01*
X47160775Y-39584940D01*
X47156781Y-39630862D01*
X47154290Y-39691405D01*
X47152948Y-39768972D01*
X47152402Y-39865965D01*
X47152297Y-39984785D01*
X47152300Y-40051225D01*
X47152300Y-40543700D01*
X47406300Y-40543700D01*
X47406300Y-41648600D01*
X47758725Y-41648601D01*
X48111150Y-41648603D01*
X48111150Y-40550050D01*
X48241325Y-40546430D01*
X48371500Y-40542811D01*
X48371500Y-40050781D01*
X48371483Y-39920528D01*
X48371196Y-39813271D01*
X48370283Y-39726606D01*
X48368392Y-39658131D01*
X48365168Y-39605441D01*
X48360258Y-39566133D01*
X48353306Y-39537803D01*
X48343960Y-39518048D01*
X48331864Y-39504465D01*
X48316665Y-39494649D01*
X48298009Y-39486196D01*
X48287699Y-39481908D01*
X48262595Y-39476856D01*
X48215652Y-39472563D01*
X48150422Y-39469029D01*
X48070453Y-39466256D01*
X47979296Y-39464242D01*
X47880501Y-39462987D01*
X47777618Y-39462492D01*
X47674197Y-39462757D01*
G36*
X47700235Y-38709642D02*
G01*
X47656391Y-38713536D01*
X47622844Y-38721543D01*
X47592066Y-38734903D01*
X47587290Y-38737410D01*
X47529435Y-38782119D01*
X47485745Y-38844759D01*
X47457727Y-38921242D01*
X47446889Y-39007479D01*
X47454447Y-39097827D01*
X47479220Y-39181650D01*
X47519043Y-39245621D01*
X47574690Y-39290895D01*
X47588628Y-39298217D01*
X47651104Y-39319129D01*
X47726537Y-39330615D01*
X47803975Y-39331823D01*
X47872466Y-39321899D01*
X47876978Y-39320671D01*
X47952116Y-39289007D01*
X48008813Y-39241180D01*
X48048102Y-39175869D01*
X48071018Y-39091758D01*
X48074105Y-39069421D01*
X48075346Y-38977972D01*
X48058240Y-38893932D01*
X48024476Y-38821374D01*
X47975740Y-38764368D01*
X47936511Y-38737410D01*
X47905504Y-38723152D01*
X47872841Y-38714432D01*
X47830995Y-38710007D01*
X47772441Y-38708638D01*
X47761900Y-38708620D01*
X47700235Y-38709642D01*
G37*
X47700235Y-38709642D02*
X47656391Y-38713536D01*
X47622844Y-38721543D01*
X47592066Y-38734903D01*
X47587290Y-38737410D01*
X47529435Y-38782119D01*
X47485745Y-38844759D01*
X47457727Y-38921242D01*
X47446889Y-39007479D01*
X47454447Y-39097827D01*
X47479220Y-39181650D01*
X47519043Y-39245621D01*
X47574690Y-39290895D01*
X47588628Y-39298217D01*
X47651104Y-39319129D01*
X47726537Y-39330615D01*
X47803975Y-39331823D01*
X47872466Y-39321899D01*
X47876978Y-39320671D01*
X47952116Y-39289007D01*
X48008813Y-39241180D01*
X48048102Y-39175869D01*
X48071018Y-39091758D01*
X48074105Y-39069421D01*
X48075346Y-38977972D01*
X48058240Y-38893932D01*
X48024476Y-38821374D01*
X47975740Y-38764368D01*
X47936511Y-38737410D01*
X47905504Y-38723152D01*
X47872841Y-38714432D01*
X47830995Y-38710007D01*
X47772441Y-38708638D01*
X47761900Y-38708620D01*
X47700235Y-38709642D01*
G36*
X42483861Y-38984015D02*
G01*
X42367205Y-38993293D01*
X42262230Y-39010626D01*
X42231050Y-39018248D01*
X42071713Y-39073717D01*
X41926658Y-39149752D01*
X41796887Y-39245266D01*
X41683401Y-39359175D01*
X41587203Y-39490392D01*
X41509294Y-39637832D01*
X41450675Y-39800408D01*
X41428704Y-39887992D01*
X41417806Y-39957392D01*
X41410397Y-40044231D01*
X41406475Y-40141697D01*
X41406041Y-40242981D01*
X41409094Y-40341271D01*
X41415632Y-40429755D01*
X41425656Y-40501623D01*
X41428762Y-40516437D01*
X41476563Y-40673923D01*
X41544485Y-40822191D01*
X41630428Y-40958948D01*
X41732294Y-41081901D01*
X41847984Y-41188759D01*
X41975398Y-41277227D01*
X42112438Y-41345013D01*
X42220135Y-41380864D01*
X42295972Y-41397671D01*
X42382435Y-41411450D01*
X42472609Y-41421591D01*
X42559574Y-41427483D01*
X42636415Y-41428515D01*
X42696213Y-41424077D01*
X42700950Y-41423315D01*
X42806166Y-41403548D01*
X42891475Y-41383384D01*
X42962350Y-41361350D01*
X43022769Y-41336665D01*
X43157183Y-41261059D01*
X43276497Y-41166176D01*
X43378561Y-41054145D01*
X43461223Y-40927091D01*
X43485143Y-40879531D01*
X43508325Y-40824399D01*
X43529638Y-40763784D01*
X43547885Y-40702557D01*
X43561871Y-40645590D01*
X43570400Y-40597755D01*
X43572274Y-40563922D01*
X43566318Y-40548971D01*
X43549554Y-40547389D01*
X43511408Y-40546302D01*
X43455890Y-40545742D01*
X43387016Y-40545743D01*
X43308796Y-40546340D01*
X43286545Y-40546608D01*
X43021896Y-40550050D01*
X42997961Y-40644335D01*
X42981420Y-40704056D01*
X42964760Y-40747171D01*
X42943479Y-40782095D01*
X42913075Y-40817240D01*
X42896380Y-40834213D01*
X42829914Y-40884087D01*
X42743488Y-40922471D01*
X42640443Y-40947985D01*
X42609894Y-40952529D01*
X42492395Y-40957897D01*
X42387156Y-40941538D01*
X42292362Y-40902873D01*
X42206199Y-40841320D01*
X42177478Y-40813989D01*
X42106075Y-40723915D01*
X42049363Y-40615013D01*
X42007904Y-40489558D01*
X41982257Y-40349827D01*
X41972981Y-40198096D01*
X41980636Y-40036642D01*
X41982311Y-40020452D01*
X42004465Y-39882325D01*
X42039166Y-39765195D01*
X42087256Y-39667520D01*
X42149577Y-39587754D01*
X42226969Y-39524355D01*
X42265010Y-39501784D01*
X42303845Y-39481952D01*
X42336804Y-39468993D01*
X42371705Y-39461150D01*
X42416362Y-39456668D01*
X42478591Y-39453792D01*
X42478700Y-39453788D01*
X42608366Y-39457815D01*
X42720254Y-39479937D01*
X42814475Y-39520216D01*
X42891137Y-39578711D01*
X42950347Y-39655483D01*
X42987235Y-39735717D01*
X43005331Y-39790484D01*
X43012316Y-39825902D01*
X43006652Y-39846151D01*
X42986801Y-39855411D01*
X42951222Y-39857859D01*
X42942250Y-39857900D01*
X42903993Y-39859489D01*
X42878621Y-39863589D01*
X42872400Y-39867565D01*
X42881017Y-39878887D01*
X42905206Y-39905466D01*
X42942476Y-39944702D01*
X42990338Y-39993994D01*
X43046301Y-40050741D01*
X43085264Y-40089817D01*
X43298127Y-40302403D01*
X43510714Y-40089540D01*
X43570466Y-40029354D01*
X43623727Y-39975027D01*
X43668008Y-39929151D01*
X43700826Y-39894317D01*
X43719694Y-39873116D01*
X43723300Y-39867894D01*
X43711744Y-39862763D01*
X43681633Y-39858135D01*
X43644862Y-39855331D01*
X43566424Y-39851550D01*
X43544313Y-39748548D01*
X43499063Y-39593512D01*
X43433592Y-39453392D01*
X43348887Y-39329194D01*
X43245937Y-39221922D01*
X43125727Y-39132583D01*
X42989246Y-39062182D01*
X42837482Y-39011722D01*
X42815133Y-39006321D01*
X42716705Y-38990348D01*
X42603321Y-38982973D01*
X42483861Y-38984015D01*
G37*
X42483861Y-38984015D02*
X42367205Y-38993293D01*
X42262230Y-39010626D01*
X42231050Y-39018248D01*
X42071713Y-39073717D01*
X41926658Y-39149752D01*
X41796887Y-39245266D01*
X41683401Y-39359175D01*
X41587203Y-39490392D01*
X41509294Y-39637832D01*
X41450675Y-39800408D01*
X41428704Y-39887992D01*
X41417806Y-39957392D01*
X41410397Y-40044231D01*
X41406475Y-40141697D01*
X41406041Y-40242981D01*
X41409094Y-40341271D01*
X41415632Y-40429755D01*
X41425656Y-40501623D01*
X41428762Y-40516437D01*
X41476563Y-40673923D01*
X41544485Y-40822191D01*
X41630428Y-40958948D01*
X41732294Y-41081901D01*
X41847984Y-41188759D01*
X41975398Y-41277227D01*
X42112438Y-41345013D01*
X42220135Y-41380864D01*
X42295972Y-41397671D01*
X42382435Y-41411450D01*
X42472609Y-41421591D01*
X42559574Y-41427483D01*
X42636415Y-41428515D01*
X42696213Y-41424077D01*
X42700950Y-41423315D01*
X42806166Y-41403548D01*
X42891475Y-41383384D01*
X42962350Y-41361350D01*
X43022769Y-41336665D01*
X43157183Y-41261059D01*
X43276497Y-41166176D01*
X43378561Y-41054145D01*
X43461223Y-40927091D01*
X43485143Y-40879531D01*
X43508325Y-40824399D01*
X43529638Y-40763784D01*
X43547885Y-40702557D01*
X43561871Y-40645590D01*
X43570400Y-40597755D01*
X43572274Y-40563922D01*
X43566318Y-40548971D01*
X43549554Y-40547389D01*
X43511408Y-40546302D01*
X43455890Y-40545742D01*
X43387016Y-40545743D01*
X43308796Y-40546340D01*
X43286545Y-40546608D01*
X43021896Y-40550050D01*
X42997961Y-40644335D01*
X42981420Y-40704056D01*
X42964760Y-40747171D01*
X42943479Y-40782095D01*
X42913075Y-40817240D01*
X42896380Y-40834213D01*
X42829914Y-40884087D01*
X42743488Y-40922471D01*
X42640443Y-40947985D01*
X42609894Y-40952529D01*
X42492395Y-40957897D01*
X42387156Y-40941538D01*
X42292362Y-40902873D01*
X42206199Y-40841320D01*
X42177478Y-40813989D01*
X42106075Y-40723915D01*
X42049363Y-40615013D01*
X42007904Y-40489558D01*
X41982257Y-40349827D01*
X41972981Y-40198096D01*
X41980636Y-40036642D01*
X41982311Y-40020452D01*
X42004465Y-39882325D01*
X42039166Y-39765195D01*
X42087256Y-39667520D01*
X42149577Y-39587754D01*
X42226969Y-39524355D01*
X42265010Y-39501784D01*
X42303845Y-39481952D01*
X42336804Y-39468993D01*
X42371705Y-39461150D01*
X42416362Y-39456668D01*
X42478591Y-39453792D01*
X42478700Y-39453788D01*
X42608366Y-39457815D01*
X42720254Y-39479937D01*
X42814475Y-39520216D01*
X42891137Y-39578711D01*
X42950347Y-39655483D01*
X42987235Y-39735717D01*
X43005331Y-39790484D01*
X43012316Y-39825902D01*
X43006652Y-39846151D01*
X42986801Y-39855411D01*
X42951222Y-39857859D01*
X42942250Y-39857900D01*
X42903993Y-39859489D01*
X42878621Y-39863589D01*
X42872400Y-39867565D01*
X42881017Y-39878887D01*
X42905206Y-39905466D01*
X42942476Y-39944702D01*
X42990338Y-39993994D01*
X43046301Y-40050741D01*
X43085264Y-40089817D01*
X43298127Y-40302403D01*
X43510714Y-40089540D01*
X43570466Y-40029354D01*
X43623727Y-39975027D01*
X43668008Y-39929151D01*
X43700826Y-39894317D01*
X43719694Y-39873116D01*
X43723300Y-39867894D01*
X43711744Y-39862763D01*
X43681633Y-39858135D01*
X43644862Y-39855331D01*
X43566424Y-39851550D01*
X43544313Y-39748548D01*
X43499063Y-39593512D01*
X43433592Y-39453392D01*
X43348887Y-39329194D01*
X43245937Y-39221922D01*
X43125727Y-39132583D01*
X42989246Y-39062182D01*
X42837482Y-39011722D01*
X42815133Y-39006321D01*
X42716705Y-38990348D01*
X42603321Y-38982973D01*
X42483861Y-38984015D01*
%TO.C,REF\u002A\u002A*%
G36*
X60030091Y-82259560D02*
G01*
X59977588Y-82285499D01*
X59912842Y-82330700D01*
X59865653Y-82379991D01*
X59833335Y-82441885D01*
X59813203Y-82524896D01*
X59802570Y-82637538D01*
X59798753Y-82788324D01*
X59798530Y-82853149D01*
X59799182Y-82995221D01*
X59801888Y-83096757D01*
X59807776Y-83167015D01*
X59817973Y-83215256D01*
X59833606Y-83250738D01*
X59849872Y-83274943D01*
X59953705Y-83377929D01*
X60075979Y-83439874D01*
X60207886Y-83458506D01*
X60340616Y-83431549D01*
X60382667Y-83412486D01*
X60483334Y-83360015D01*
X60483334Y-84182259D01*
X60409865Y-84144267D01*
X60313059Y-84114872D01*
X60194072Y-84107342D01*
X60075255Y-84121245D01*
X59985527Y-84152476D01*
X59911101Y-84211954D01*
X59847510Y-84297066D01*
X59842729Y-84305805D01*
X59822563Y-84346966D01*
X59807835Y-84388454D01*
X59797697Y-84438713D01*
X59791301Y-84506184D01*
X59787799Y-84599309D01*
X59786342Y-84726531D01*
X59786079Y-84869701D01*
X59786079Y-85326471D01*
X60060000Y-85326471D01*
X60060000Y-84484231D01*
X60136617Y-84419763D01*
X60216207Y-84368194D01*
X60291578Y-84358818D01*
X60367367Y-84382947D01*
X60407759Y-84406574D01*
X60437821Y-84440227D01*
X60459203Y-84491087D01*
X60473550Y-84566334D01*
X60482510Y-84673146D01*
X60487730Y-84818704D01*
X60489569Y-84915588D01*
X60495785Y-85314020D01*
X60626520Y-85321547D01*
X60757255Y-85329073D01*
X60757255Y-82856582D01*
X60483334Y-82856582D01*
X60476350Y-82994423D01*
X60452818Y-83090107D01*
X60408865Y-83149641D01*
X60340618Y-83179029D01*
X60271667Y-83184902D01*
X60193614Y-83178154D01*
X60141811Y-83151594D01*
X60109417Y-83116499D01*
X60083916Y-83078752D01*
X60068735Y-83036700D01*
X60061981Y-82977779D01*
X60061759Y-82889428D01*
X60064032Y-82815448D01*
X60069251Y-82704000D01*
X60077021Y-82630833D01*
X60090105Y-82584422D01*
X60111268Y-82553244D01*
X60131240Y-82535223D01*
X60214686Y-82495925D01*
X60313449Y-82489579D01*
X60370159Y-82503116D01*
X60426308Y-82551233D01*
X60463501Y-82644833D01*
X60481528Y-82783254D01*
X60483334Y-82856582D01*
X60757255Y-82856582D01*
X60757255Y-82238628D01*
X60620295Y-82238628D01*
X60538065Y-82241879D01*
X60495640Y-82253426D01*
X60483339Y-82275952D01*
X60483334Y-82276620D01*
X60477626Y-82298681D01*
X60452453Y-82296176D01*
X60402402Y-82271935D01*
X60285781Y-82234851D01*
X60154571Y-82230953D01*
X60030091Y-82259560D01*
G37*
X60030091Y-82259560D02*
X59977588Y-82285499D01*
X59912842Y-82330700D01*
X59865653Y-82379991D01*
X59833335Y-82441885D01*
X59813203Y-82524896D01*
X59802570Y-82637538D01*
X59798753Y-82788324D01*
X59798530Y-82853149D01*
X59799182Y-82995221D01*
X59801888Y-83096757D01*
X59807776Y-83167015D01*
X59817973Y-83215256D01*
X59833606Y-83250738D01*
X59849872Y-83274943D01*
X59953705Y-83377929D01*
X60075979Y-83439874D01*
X60207886Y-83458506D01*
X60340616Y-83431549D01*
X60382667Y-83412486D01*
X60483334Y-83360015D01*
X60483334Y-84182259D01*
X60409865Y-84144267D01*
X60313059Y-84114872D01*
X60194072Y-84107342D01*
X60075255Y-84121245D01*
X59985527Y-84152476D01*
X59911101Y-84211954D01*
X59847510Y-84297066D01*
X59842729Y-84305805D01*
X59822563Y-84346966D01*
X59807835Y-84388454D01*
X59797697Y-84438713D01*
X59791301Y-84506184D01*
X59787799Y-84599309D01*
X59786342Y-84726531D01*
X59786079Y-84869701D01*
X59786079Y-85326471D01*
X60060000Y-85326471D01*
X60060000Y-84484231D01*
X60136617Y-84419763D01*
X60216207Y-84368194D01*
X60291578Y-84358818D01*
X60367367Y-84382947D01*
X60407759Y-84406574D01*
X60437821Y-84440227D01*
X60459203Y-84491087D01*
X60473550Y-84566334D01*
X60482510Y-84673146D01*
X60487730Y-84818704D01*
X60489569Y-84915588D01*
X60495785Y-85314020D01*
X60626520Y-85321547D01*
X60757255Y-85329073D01*
X60757255Y-82856582D01*
X60483334Y-82856582D01*
X60476350Y-82994423D01*
X60452818Y-83090107D01*
X60408865Y-83149641D01*
X60340618Y-83179029D01*
X60271667Y-83184902D01*
X60193614Y-83178154D01*
X60141811Y-83151594D01*
X60109417Y-83116499D01*
X60083916Y-83078752D01*
X60068735Y-83036700D01*
X60061981Y-82977779D01*
X60061759Y-82889428D01*
X60064032Y-82815448D01*
X60069251Y-82704000D01*
X60077021Y-82630833D01*
X60090105Y-82584422D01*
X60111268Y-82553244D01*
X60131240Y-82535223D01*
X60214686Y-82495925D01*
X60313449Y-82489579D01*
X60370159Y-82503116D01*
X60426308Y-82551233D01*
X60463501Y-82644833D01*
X60481528Y-82783254D01*
X60483334Y-82856582D01*
X60757255Y-82856582D01*
X60757255Y-82238628D01*
X60620295Y-82238628D01*
X60538065Y-82241879D01*
X60495640Y-82253426D01*
X60483339Y-82275952D01*
X60483334Y-82276620D01*
X60477626Y-82298681D01*
X60452453Y-82296176D01*
X60402402Y-82271935D01*
X60285781Y-82234851D01*
X60154571Y-82230953D01*
X60030091Y-82259560D01*
G36*
X58991280Y-84115922D02*
G01*
X58874130Y-84147180D01*
X58784949Y-84203837D01*
X58722016Y-84278045D01*
X58702452Y-84309716D01*
X58688008Y-84342891D01*
X58677911Y-84385329D01*
X58671385Y-84444788D01*
X58667658Y-84529029D01*
X58665954Y-84645810D01*
X58665500Y-84802890D01*
X58665491Y-84844565D01*
X58665491Y-85326471D01*
X58785020Y-85326471D01*
X58861261Y-85321131D01*
X58917634Y-85307604D01*
X58931758Y-85299262D01*
X58970370Y-85284864D01*
X59009808Y-85299262D01*
X59074738Y-85317237D01*
X59169055Y-85324472D01*
X59273593Y-85321333D01*
X59369189Y-85308186D01*
X59425000Y-85291318D01*
X59533002Y-85221986D01*
X59600497Y-85125772D01*
X59630841Y-84997844D01*
X59631123Y-84994559D01*
X59628460Y-84937808D01*
X59387647Y-84937808D01*
X59366595Y-85002358D01*
X59332303Y-85038686D01*
X59263468Y-85066162D01*
X59172610Y-85077129D01*
X59079958Y-85071731D01*
X59005744Y-85050110D01*
X58984951Y-85036239D01*
X58948619Y-84972143D01*
X58939412Y-84899278D01*
X58939412Y-84803530D01*
X59077173Y-84803530D01*
X59208047Y-84813605D01*
X59307259Y-84842148D01*
X59368977Y-84886639D01*
X59387647Y-84937808D01*
X59628460Y-84937808D01*
X59624564Y-84854790D01*
X59578466Y-84744282D01*
X59491800Y-84660712D01*
X59479821Y-84653110D01*
X59428345Y-84628357D01*
X59364632Y-84613368D01*
X59275565Y-84606082D01*
X59169755Y-84604407D01*
X58939412Y-84604314D01*
X58939412Y-84507755D01*
X58949183Y-84432836D01*
X58974116Y-84382644D01*
X58977035Y-84379972D01*
X59032519Y-84358015D01*
X59116273Y-84349505D01*
X59208833Y-84353687D01*
X59290730Y-84369809D01*
X59339327Y-84393990D01*
X59365659Y-84413359D01*
X59393465Y-84417057D01*
X59431839Y-84401188D01*
X59489875Y-84361855D01*
X59576669Y-84295164D01*
X59584635Y-84288916D01*
X59580553Y-84265800D01*
X59546499Y-84227352D01*
X59494740Y-84184627D01*
X59437545Y-84148679D01*
X59419575Y-84140191D01*
X59354028Y-84123252D01*
X59257980Y-84111170D01*
X59150671Y-84106323D01*
X59145653Y-84106313D01*
X58991280Y-84115922D01*
G37*
X58991280Y-84115922D02*
X58874130Y-84147180D01*
X58784949Y-84203837D01*
X58722016Y-84278045D01*
X58702452Y-84309716D01*
X58688008Y-84342891D01*
X58677911Y-84385329D01*
X58671385Y-84444788D01*
X58667658Y-84529029D01*
X58665954Y-84645810D01*
X58665500Y-84802890D01*
X58665491Y-84844565D01*
X58665491Y-85326471D01*
X58785020Y-85326471D01*
X58861261Y-85321131D01*
X58917634Y-85307604D01*
X58931758Y-85299262D01*
X58970370Y-85284864D01*
X59009808Y-85299262D01*
X59074738Y-85317237D01*
X59169055Y-85324472D01*
X59273593Y-85321333D01*
X59369189Y-85308186D01*
X59425000Y-85291318D01*
X59533002Y-85221986D01*
X59600497Y-85125772D01*
X59630841Y-84997844D01*
X59631123Y-84994559D01*
X59628460Y-84937808D01*
X59387647Y-84937808D01*
X59366595Y-85002358D01*
X59332303Y-85038686D01*
X59263468Y-85066162D01*
X59172610Y-85077129D01*
X59079958Y-85071731D01*
X59005744Y-85050110D01*
X58984951Y-85036239D01*
X58948619Y-84972143D01*
X58939412Y-84899278D01*
X58939412Y-84803530D01*
X59077173Y-84803530D01*
X59208047Y-84813605D01*
X59307259Y-84842148D01*
X59368977Y-84886639D01*
X59387647Y-84937808D01*
X59628460Y-84937808D01*
X59624564Y-84854790D01*
X59578466Y-84744282D01*
X59491800Y-84660712D01*
X59479821Y-84653110D01*
X59428345Y-84628357D01*
X59364632Y-84613368D01*
X59275565Y-84606082D01*
X59169755Y-84604407D01*
X58939412Y-84604314D01*
X58939412Y-84507755D01*
X58949183Y-84432836D01*
X58974116Y-84382644D01*
X58977035Y-84379972D01*
X59032519Y-84358015D01*
X59116273Y-84349505D01*
X59208833Y-84353687D01*
X59290730Y-84369809D01*
X59339327Y-84393990D01*
X59365659Y-84413359D01*
X59393465Y-84417057D01*
X59431839Y-84401188D01*
X59489875Y-84361855D01*
X59576669Y-84295164D01*
X59584635Y-84288916D01*
X59580553Y-84265800D01*
X59546499Y-84227352D01*
X59494740Y-84184627D01*
X59437545Y-84148679D01*
X59419575Y-84140191D01*
X59354028Y-84123252D01*
X59257980Y-84111170D01*
X59150671Y-84106323D01*
X59145653Y-84106313D01*
X58991280Y-84115922D01*
G36*
X58217236Y-84108921D02*
G01*
X58179970Y-84120091D01*
X58167957Y-84144633D01*
X58167451Y-84155712D01*
X58165296Y-84186572D01*
X58150449Y-84191417D01*
X58110343Y-84170260D01*
X58086520Y-84155806D01*
X58011362Y-84124850D01*
X57921594Y-84109544D01*
X57827471Y-84108367D01*
X57739246Y-84119799D01*
X57667174Y-84142320D01*
X57621508Y-84174409D01*
X57612502Y-84214545D01*
X57617047Y-84225415D01*
X57650179Y-84270534D01*
X57701555Y-84326026D01*
X57710848Y-84334996D01*
X57759818Y-84376245D01*
X57802069Y-84389572D01*
X57861159Y-84380271D01*
X57884831Y-84374090D01*
X57958496Y-84359246D01*
X58010290Y-84365921D01*
X58054031Y-84389465D01*
X58094098Y-84421061D01*
X58123608Y-84460798D01*
X58144116Y-84516252D01*
X58157176Y-84595003D01*
X58164344Y-84704629D01*
X58167176Y-84852706D01*
X58167451Y-84942111D01*
X58167451Y-85326471D01*
X58416471Y-85326471D01*
X58416471Y-84106275D01*
X58291961Y-84106275D01*
X58217236Y-84108921D01*
G37*
X58217236Y-84108921D02*
X58179970Y-84120091D01*
X58167957Y-84144633D01*
X58167451Y-84155712D01*
X58165296Y-84186572D01*
X58150449Y-84191417D01*
X58110343Y-84170260D01*
X58086520Y-84155806D01*
X58011362Y-84124850D01*
X57921594Y-84109544D01*
X57827471Y-84108367D01*
X57739246Y-84119799D01*
X57667174Y-84142320D01*
X57621508Y-84174409D01*
X57612502Y-84214545D01*
X57617047Y-84225415D01*
X57650179Y-84270534D01*
X57701555Y-84326026D01*
X57710848Y-84334996D01*
X57759818Y-84376245D01*
X57802069Y-84389572D01*
X57861159Y-84380271D01*
X57884831Y-84374090D01*
X57958496Y-84359246D01*
X58010290Y-84365921D01*
X58054031Y-84389465D01*
X58094098Y-84421061D01*
X58123608Y-84460798D01*
X58144116Y-84516252D01*
X58157176Y-84595003D01*
X58164344Y-84704629D01*
X58167176Y-84852706D01*
X58167451Y-84942111D01*
X58167451Y-85326471D01*
X58416471Y-85326471D01*
X58416471Y-84106275D01*
X58291961Y-84106275D01*
X58217236Y-84108921D01*
G36*
X56648432Y-85326471D02*
G01*
X56785393Y-85326471D01*
X56864889Y-85324140D01*
X56906292Y-85314488D01*
X56921199Y-85293525D01*
X56922353Y-85279351D01*
X56924867Y-85250927D01*
X56940720Y-85245475D01*
X56982379Y-85262998D01*
X57014776Y-85279351D01*
X57139151Y-85318103D01*
X57274354Y-85320346D01*
X57384274Y-85291444D01*
X57486634Y-85221619D01*
X57564660Y-85118555D01*
X57607386Y-84996989D01*
X57608474Y-84990192D01*
X57614822Y-84916032D01*
X57617979Y-84809570D01*
X57617725Y-84729052D01*
X57345711Y-84729052D01*
X57339410Y-84836070D01*
X57325075Y-84924278D01*
X57305669Y-84974090D01*
X57232254Y-85042162D01*
X57145086Y-85066564D01*
X57055196Y-85046831D01*
X56978383Y-84987968D01*
X56949292Y-84948379D01*
X56932283Y-84901138D01*
X56924316Y-84832181D01*
X56922353Y-84728607D01*
X56925866Y-84626039D01*
X56935143Y-84535921D01*
X56948294Y-84475613D01*
X56950486Y-84470208D01*
X57003522Y-84405940D01*
X57080933Y-84370656D01*
X57167546Y-84364959D01*
X57248193Y-84389453D01*
X57307703Y-84444742D01*
X57313876Y-84455743D01*
X57333199Y-84522827D01*
X57343726Y-84619284D01*
X57345711Y-84729052D01*
X57617725Y-84729052D01*
X57617596Y-84688225D01*
X57615806Y-84622918D01*
X57603627Y-84461355D01*
X57578315Y-84340053D01*
X57536207Y-84250379D01*
X57473641Y-84183699D01*
X57412900Y-84144557D01*
X57328036Y-84117040D01*
X57222485Y-84107603D01*
X57114402Y-84115290D01*
X57021942Y-84139146D01*
X56973090Y-84167685D01*
X56922353Y-84213601D01*
X56922353Y-83633137D01*
X56648432Y-83633137D01*
X56648432Y-85326471D01*
G37*
X56648432Y-85326471D02*
X56785393Y-85326471D01*
X56864889Y-85324140D01*
X56906292Y-85314488D01*
X56921199Y-85293525D01*
X56922353Y-85279351D01*
X56924867Y-85250927D01*
X56940720Y-85245475D01*
X56982379Y-85262998D01*
X57014776Y-85279351D01*
X57139151Y-85318103D01*
X57274354Y-85320346D01*
X57384274Y-85291444D01*
X57486634Y-85221619D01*
X57564660Y-85118555D01*
X57607386Y-84996989D01*
X57608474Y-84990192D01*
X57614822Y-84916032D01*
X57617979Y-84809570D01*
X57617725Y-84729052D01*
X57345711Y-84729052D01*
X57339410Y-84836070D01*
X57325075Y-84924278D01*
X57305669Y-84974090D01*
X57232254Y-85042162D01*
X57145086Y-85066564D01*
X57055196Y-85046831D01*
X56978383Y-84987968D01*
X56949292Y-84948379D01*
X56932283Y-84901138D01*
X56924316Y-84832181D01*
X56922353Y-84728607D01*
X56925866Y-84626039D01*
X56935143Y-84535921D01*
X56948294Y-84475613D01*
X56950486Y-84470208D01*
X57003522Y-84405940D01*
X57080933Y-84370656D01*
X57167546Y-84364959D01*
X57248193Y-84389453D01*
X57307703Y-84444742D01*
X57313876Y-84455743D01*
X57333199Y-84522827D01*
X57343726Y-84619284D01*
X57345711Y-84729052D01*
X57617725Y-84729052D01*
X57617596Y-84688225D01*
X57615806Y-84622918D01*
X57603627Y-84461355D01*
X57578315Y-84340053D01*
X57536207Y-84250379D01*
X57473641Y-84183699D01*
X57412900Y-84144557D01*
X57328036Y-84117040D01*
X57222485Y-84107603D01*
X57114402Y-84115290D01*
X57021942Y-84139146D01*
X56973090Y-84167685D01*
X56922353Y-84213601D01*
X56922353Y-83633137D01*
X56648432Y-83633137D01*
X56648432Y-85326471D01*
G36*
X55692472Y-84111332D02*
G01*
X55593986Y-84118726D01*
X55465224Y-84504706D01*
X55336463Y-84890686D01*
X55296089Y-84753726D01*
X55271793Y-84669083D01*
X55239833Y-84554697D01*
X55205321Y-84428963D01*
X55187072Y-84361520D01*
X55118429Y-84106275D01*
X54835227Y-84106275D01*
X54919878Y-84373971D01*
X54961565Y-84505638D01*
X55011926Y-84664458D01*
X55064519Y-84830128D01*
X55111470Y-84977843D01*
X55218411Y-85314020D01*
X55449339Y-85329044D01*
X55511950Y-85122316D01*
X55550562Y-84993896D01*
X55592700Y-84852322D01*
X55629528Y-84727285D01*
X55630982Y-84722309D01*
X55658489Y-84637586D01*
X55682758Y-84579778D01*
X55699757Y-84557918D01*
X55703250Y-84560446D01*
X55715510Y-84594336D01*
X55738805Y-84666930D01*
X55770300Y-84769101D01*
X55807158Y-84891720D01*
X55827101Y-84959167D01*
X55935105Y-85326471D01*
X56164321Y-85326471D01*
X56347561Y-84747500D01*
X56399037Y-84585091D01*
X56445930Y-84437602D01*
X56486023Y-84311960D01*
X56517103Y-84215095D01*
X56536955Y-84153934D01*
X56542989Y-84136065D01*
X56538212Y-84117768D01*
X56500703Y-84109755D01*
X56422645Y-84110557D01*
X56410426Y-84111163D01*
X56265674Y-84118726D01*
X56170870Y-84467353D01*
X56136023Y-84594497D01*
X56104883Y-84706265D01*
X56080191Y-84792953D01*
X56064688Y-84844856D01*
X56061824Y-84853318D01*
X56049954Y-84843587D01*
X56026017Y-84793172D01*
X55992761Y-84708935D01*
X55952936Y-84597741D01*
X55919270Y-84497297D01*
X55790959Y-84103939D01*
X55692472Y-84111332D01*
G37*
X55692472Y-84111332D02*
X55593986Y-84118726D01*
X55465224Y-84504706D01*
X55336463Y-84890686D01*
X55296089Y-84753726D01*
X55271793Y-84669083D01*
X55239833Y-84554697D01*
X55205321Y-84428963D01*
X55187072Y-84361520D01*
X55118429Y-84106275D01*
X54835227Y-84106275D01*
X54919878Y-84373971D01*
X54961565Y-84505638D01*
X55011926Y-84664458D01*
X55064519Y-84830128D01*
X55111470Y-84977843D01*
X55218411Y-85314020D01*
X55449339Y-85329044D01*
X55511950Y-85122316D01*
X55550562Y-84993896D01*
X55592700Y-84852322D01*
X55629528Y-84727285D01*
X55630982Y-84722309D01*
X55658489Y-84637586D01*
X55682758Y-84579778D01*
X55699757Y-84557918D01*
X55703250Y-84560446D01*
X55715510Y-84594336D01*
X55738805Y-84666930D01*
X55770300Y-84769101D01*
X55807158Y-84891720D01*
X55827101Y-84959167D01*
X55935105Y-85326471D01*
X56164321Y-85326471D01*
X56347561Y-84747500D01*
X56399037Y-84585091D01*
X56445930Y-84437602D01*
X56486023Y-84311960D01*
X56517103Y-84215095D01*
X56536955Y-84153934D01*
X56542989Y-84136065D01*
X56538212Y-84117768D01*
X56500703Y-84109755D01*
X56422645Y-84110557D01*
X56410426Y-84111163D01*
X56265674Y-84118726D01*
X56170870Y-84467353D01*
X56136023Y-84594497D01*
X56104883Y-84706265D01*
X56080191Y-84792953D01*
X56064688Y-84844856D01*
X56061824Y-84853318D01*
X56049954Y-84843587D01*
X56026017Y-84793172D01*
X55992761Y-84708935D01*
X55952936Y-84597741D01*
X55919270Y-84497297D01*
X55790959Y-84103939D01*
X55692472Y-84111332D01*
G36*
X54193541Y-84113669D02*
G01*
X54088580Y-84139163D01*
X54058239Y-84152669D01*
X53999427Y-84188046D01*
X53954291Y-84227890D01*
X53920894Y-84279120D01*
X53897299Y-84348654D01*
X53881567Y-84443409D01*
X53871761Y-84570305D01*
X53865943Y-84736258D01*
X53863734Y-84847108D01*
X53855604Y-85326471D01*
X53994469Y-85326471D01*
X54078713Y-85322938D01*
X54122116Y-85310866D01*
X54133334Y-85290594D01*
X54139256Y-85268674D01*
X54165734Y-85272865D01*
X54201814Y-85290441D01*
X54292138Y-85317382D01*
X54408223Y-85324642D01*
X54530320Y-85312767D01*
X54638679Y-85282305D01*
X54648398Y-85278077D01*
X54747432Y-85208505D01*
X54812719Y-85111789D01*
X54842760Y-84998738D01*
X54840465Y-84958122D01*
X54595367Y-84958122D01*
X54573771Y-85012782D01*
X54509741Y-85051952D01*
X54406435Y-85072974D01*
X54351226Y-85075766D01*
X54259218Y-85068620D01*
X54198059Y-85040848D01*
X54183138Y-85027647D01*
X54142713Y-84955829D01*
X54133334Y-84890686D01*
X54133334Y-84803530D01*
X54254731Y-84803530D01*
X54395847Y-84810722D01*
X54494827Y-84833345D01*
X54557367Y-84872964D01*
X54571369Y-84890628D01*
X54595367Y-84958122D01*
X54840465Y-84958122D01*
X54836059Y-84880157D01*
X54791120Y-84766855D01*
X54729804Y-84690285D01*
X54692668Y-84657181D01*
X54656313Y-84635425D01*
X54609010Y-84622161D01*
X54539027Y-84614528D01*
X54434636Y-84609670D01*
X54393230Y-84608273D01*
X54133334Y-84599780D01*
X54133715Y-84521116D01*
X54143781Y-84438428D01*
X54180171Y-84388431D01*
X54253689Y-84356489D01*
X54255661Y-84355920D01*
X54359895Y-84343361D01*
X54461892Y-84359766D01*
X54537695Y-84399657D01*
X54568110Y-84419354D01*
X54600868Y-84416629D01*
X54651279Y-84388091D01*
X54680881Y-84367950D01*
X54738782Y-84324919D01*
X54774648Y-84292662D01*
X54780403Y-84283427D01*
X54756705Y-84235636D01*
X54686687Y-84178562D01*
X54656275Y-84159305D01*
X54568845Y-84126140D01*
X54451017Y-84107350D01*
X54320134Y-84103129D01*
X54193541Y-84113669D01*
G37*
X54193541Y-84113669D02*
X54088580Y-84139163D01*
X54058239Y-84152669D01*
X53999427Y-84188046D01*
X53954291Y-84227890D01*
X53920894Y-84279120D01*
X53897299Y-84348654D01*
X53881567Y-84443409D01*
X53871761Y-84570305D01*
X53865943Y-84736258D01*
X53863734Y-84847108D01*
X53855604Y-85326471D01*
X53994469Y-85326471D01*
X54078713Y-85322938D01*
X54122116Y-85310866D01*
X54133334Y-85290594D01*
X54139256Y-85268674D01*
X54165734Y-85272865D01*
X54201814Y-85290441D01*
X54292138Y-85317382D01*
X54408223Y-85324642D01*
X54530320Y-85312767D01*
X54638679Y-85282305D01*
X54648398Y-85278077D01*
X54747432Y-85208505D01*
X54812719Y-85111789D01*
X54842760Y-84998738D01*
X54840465Y-84958122D01*
X54595367Y-84958122D01*
X54573771Y-85012782D01*
X54509741Y-85051952D01*
X54406435Y-85072974D01*
X54351226Y-85075766D01*
X54259218Y-85068620D01*
X54198059Y-85040848D01*
X54183138Y-85027647D01*
X54142713Y-84955829D01*
X54133334Y-84890686D01*
X54133334Y-84803530D01*
X54254731Y-84803530D01*
X54395847Y-84810722D01*
X54494827Y-84833345D01*
X54557367Y-84872964D01*
X54571369Y-84890628D01*
X54595367Y-84958122D01*
X54840465Y-84958122D01*
X54836059Y-84880157D01*
X54791120Y-84766855D01*
X54729804Y-84690285D01*
X54692668Y-84657181D01*
X54656313Y-84635425D01*
X54609010Y-84622161D01*
X54539027Y-84614528D01*
X54434636Y-84609670D01*
X54393230Y-84608273D01*
X54133334Y-84599780D01*
X54133715Y-84521116D01*
X54143781Y-84438428D01*
X54180171Y-84388431D01*
X54253689Y-84356489D01*
X54255661Y-84355920D01*
X54359895Y-84343361D01*
X54461892Y-84359766D01*
X54537695Y-84399657D01*
X54568110Y-84419354D01*
X54600868Y-84416629D01*
X54651279Y-84388091D01*
X54680881Y-84367950D01*
X54738782Y-84324919D01*
X54774648Y-84292662D01*
X54780403Y-84283427D01*
X54756705Y-84235636D01*
X54686687Y-84178562D01*
X54656275Y-84159305D01*
X54568845Y-84126140D01*
X54451017Y-84107350D01*
X54320134Y-84103129D01*
X54193541Y-84113669D01*
G36*
X53011554Y-84105883D02*
G01*
X52915823Y-84124755D01*
X52861323Y-84152699D01*
X52803992Y-84199123D01*
X52885559Y-84302111D01*
X52935850Y-84364479D01*
X52969999Y-84394907D01*
X53003937Y-84399555D01*
X53053594Y-84384586D01*
X53076904Y-84376117D01*
X53171937Y-84363622D01*
X53258968Y-84390406D01*
X53322862Y-84450915D01*
X53333241Y-84470208D01*
X53344544Y-84521314D01*
X53353268Y-84615500D01*
X53359003Y-84746089D01*
X53361340Y-84906405D01*
X53361373Y-84929211D01*
X53361373Y-85326471D01*
X53635295Y-85326471D01*
X53635295Y-84106275D01*
X53498334Y-84106275D01*
X53419362Y-84108337D01*
X53378221Y-84117513D01*
X53363008Y-84138290D01*
X53361373Y-84157886D01*
X53361373Y-84209497D01*
X53295760Y-84157886D01*
X53220525Y-84122675D01*
X53119456Y-84105265D01*
X53011554Y-84105883D01*
G37*
X53011554Y-84105883D02*
X52915823Y-84124755D01*
X52861323Y-84152699D01*
X52803992Y-84199123D01*
X52885559Y-84302111D01*
X52935850Y-84364479D01*
X52969999Y-84394907D01*
X53003937Y-84399555D01*
X53053594Y-84384586D01*
X53076904Y-84376117D01*
X53171937Y-84363622D01*
X53258968Y-84390406D01*
X53322862Y-84450915D01*
X53333241Y-84470208D01*
X53344544Y-84521314D01*
X53353268Y-84615500D01*
X53359003Y-84746089D01*
X53361340Y-84906405D01*
X53361373Y-84929211D01*
X53361373Y-85326471D01*
X53635295Y-85326471D01*
X53635295Y-84106275D01*
X53498334Y-84106275D01*
X53419362Y-84108337D01*
X53378221Y-84117513D01*
X53363008Y-84138290D01*
X53361373Y-84157886D01*
X53361373Y-84209497D01*
X53295760Y-84157886D01*
X53220525Y-84122675D01*
X53119456Y-84105265D01*
X53011554Y-84105883D01*
G36*
X52224693Y-84112784D02*
G01*
X52105663Y-84143731D01*
X52005979Y-84207600D01*
X51957712Y-84255313D01*
X51878592Y-84368106D01*
X51833248Y-84498950D01*
X51817670Y-84659792D01*
X51817590Y-84672794D01*
X51817451Y-84803530D01*
X52569909Y-84803530D01*
X52553870Y-84872010D01*
X52524909Y-84934031D01*
X52474222Y-84998654D01*
X52463621Y-85008971D01*
X52372506Y-85064805D01*
X52268600Y-85074275D01*
X52149000Y-85037540D01*
X52128726Y-85027647D01*
X52066544Y-84997574D01*
X52024894Y-84980440D01*
X52017627Y-84978855D01*
X51992260Y-84994242D01*
X51943880Y-85031887D01*
X51919321Y-85052459D01*
X51868430Y-85099714D01*
X51851719Y-85130917D01*
X51863317Y-85159620D01*
X51869517Y-85167468D01*
X51911507Y-85201819D01*
X51980794Y-85243565D01*
X52029118Y-85267935D01*
X52166289Y-85310873D01*
X52318153Y-85324786D01*
X52461976Y-85308300D01*
X52502255Y-85296496D01*
X52626922Y-85229689D01*
X52719329Y-85126892D01*
X52780010Y-84987105D01*
X52809502Y-84809330D01*
X52812740Y-84716373D01*
X52803286Y-84581033D01*
X52564510Y-84581033D01*
X52541416Y-84591038D01*
X52479338Y-84598888D01*
X52389086Y-84603521D01*
X52327942Y-84604314D01*
X52217960Y-84603549D01*
X52148543Y-84599970D01*
X52110462Y-84591649D01*
X52094485Y-84576657D01*
X52091373Y-84554903D01*
X52112722Y-84487892D01*
X52166471Y-84421664D01*
X52237178Y-84370832D01*
X52307911Y-84350038D01*
X52403984Y-84368484D01*
X52487151Y-84421811D01*
X52544814Y-84498677D01*
X52564510Y-84581033D01*
X52803286Y-84581033D01*
X52798972Y-84519291D01*
X52756480Y-84362271D01*
X52684365Y-84244069D01*
X52581727Y-84163440D01*
X52447668Y-84119139D01*
X52375043Y-84110607D01*
X52224693Y-84112784D01*
G37*
X52224693Y-84112784D02*
X52105663Y-84143731D01*
X52005979Y-84207600D01*
X51957712Y-84255313D01*
X51878592Y-84368106D01*
X51833248Y-84498950D01*
X51817670Y-84659792D01*
X51817590Y-84672794D01*
X51817451Y-84803530D01*
X52569909Y-84803530D01*
X52553870Y-84872010D01*
X52524909Y-84934031D01*
X52474222Y-84998654D01*
X52463621Y-85008971D01*
X52372506Y-85064805D01*
X52268600Y-85074275D01*
X52149000Y-85037540D01*
X52128726Y-85027647D01*
X52066544Y-84997574D01*
X52024894Y-84980440D01*
X52017627Y-84978855D01*
X51992260Y-84994242D01*
X51943880Y-85031887D01*
X51919321Y-85052459D01*
X51868430Y-85099714D01*
X51851719Y-85130917D01*
X51863317Y-85159620D01*
X51869517Y-85167468D01*
X51911507Y-85201819D01*
X51980794Y-85243565D01*
X52029118Y-85267935D01*
X52166289Y-85310873D01*
X52318153Y-85324786D01*
X52461976Y-85308300D01*
X52502255Y-85296496D01*
X52626922Y-85229689D01*
X52719329Y-85126892D01*
X52780010Y-84987105D01*
X52809502Y-84809330D01*
X52812740Y-84716373D01*
X52803286Y-84581033D01*
X52564510Y-84581033D01*
X52541416Y-84591038D01*
X52479338Y-84598888D01*
X52389086Y-84603521D01*
X52327942Y-84604314D01*
X52217960Y-84603549D01*
X52148543Y-84599970D01*
X52110462Y-84591649D01*
X52094485Y-84576657D01*
X52091373Y-84554903D01*
X52112722Y-84487892D01*
X52166471Y-84421664D01*
X52237178Y-84370832D01*
X52307911Y-84350038D01*
X52403984Y-84368484D01*
X52487151Y-84421811D01*
X52544814Y-84498677D01*
X52564510Y-84581033D01*
X52803286Y-84581033D01*
X52798972Y-84519291D01*
X52756480Y-84362271D01*
X52684365Y-84244069D01*
X52581727Y-84163440D01*
X52447668Y-84119139D01*
X52375043Y-84110607D01*
X52224693Y-84112784D01*
G36*
X61276753Y-82251568D02*
G01*
X61146478Y-82309163D01*
X61047581Y-82405334D01*
X60979918Y-82540229D01*
X60943345Y-82713996D01*
X60940724Y-82741126D01*
X60938670Y-82932408D01*
X60965301Y-83100073D01*
X61018999Y-83235967D01*
X61047753Y-83279681D01*
X61147909Y-83372198D01*
X61275463Y-83432119D01*
X61418163Y-83456985D01*
X61563760Y-83444339D01*
X61674438Y-83405391D01*
X61769616Y-83339755D01*
X61847406Y-83253699D01*
X61848751Y-83251685D01*
X61880343Y-83198570D01*
X61900873Y-83145160D01*
X61913305Y-83077754D01*
X61920603Y-82982653D01*
X61923818Y-82904666D01*
X61925156Y-82833944D01*
X61676186Y-82833944D01*
X61673753Y-82904348D01*
X61664920Y-82998068D01*
X61649336Y-83058214D01*
X61621234Y-83101006D01*
X61594914Y-83126002D01*
X61501608Y-83178338D01*
X61403980Y-83185333D01*
X61313058Y-83147676D01*
X61267598Y-83105479D01*
X61234838Y-83062956D01*
X61215677Y-83022267D01*
X61207267Y-82969314D01*
X61206763Y-82889997D01*
X61209355Y-82816950D01*
X61214929Y-82712601D01*
X61223766Y-82644920D01*
X61239693Y-82600774D01*
X61266538Y-82567031D01*
X61287811Y-82547746D01*
X61376794Y-82497086D01*
X61472789Y-82494560D01*
X61553281Y-82524567D01*
X61621947Y-82587231D01*
X61662856Y-82690168D01*
X61676186Y-82833944D01*
X61925156Y-82833944D01*
X61926754Y-82749582D01*
X61921740Y-82633600D01*
X61906717Y-82546367D01*
X61879624Y-82477530D01*
X61838400Y-82416737D01*
X61823115Y-82398686D01*
X61727546Y-82308746D01*
X61625039Y-82256211D01*
X61499679Y-82234201D01*
X61438550Y-82232402D01*
X61276753Y-82251568D01*
G37*
X61276753Y-82251568D02*
X61146478Y-82309163D01*
X61047581Y-82405334D01*
X60979918Y-82540229D01*
X60943345Y-82713996D01*
X60940724Y-82741126D01*
X60938670Y-82932408D01*
X60965301Y-83100073D01*
X61018999Y-83235967D01*
X61047753Y-83279681D01*
X61147909Y-83372198D01*
X61275463Y-83432119D01*
X61418163Y-83456985D01*
X61563760Y-83444339D01*
X61674438Y-83405391D01*
X61769616Y-83339755D01*
X61847406Y-83253699D01*
X61848751Y-83251685D01*
X61880343Y-83198570D01*
X61900873Y-83145160D01*
X61913305Y-83077754D01*
X61920603Y-82982653D01*
X61923818Y-82904666D01*
X61925156Y-82833944D01*
X61676186Y-82833944D01*
X61673753Y-82904348D01*
X61664920Y-82998068D01*
X61649336Y-83058214D01*
X61621234Y-83101006D01*
X61594914Y-83126002D01*
X61501608Y-83178338D01*
X61403980Y-83185333D01*
X61313058Y-83147676D01*
X61267598Y-83105479D01*
X61234838Y-83062956D01*
X61215677Y-83022267D01*
X61207267Y-82969314D01*
X61206763Y-82889997D01*
X61209355Y-82816950D01*
X61214929Y-82712601D01*
X61223766Y-82644920D01*
X61239693Y-82600774D01*
X61266538Y-82567031D01*
X61287811Y-82547746D01*
X61376794Y-82497086D01*
X61472789Y-82494560D01*
X61553281Y-82524567D01*
X61621947Y-82587231D01*
X61662856Y-82690168D01*
X61676186Y-82833944D01*
X61925156Y-82833944D01*
X61926754Y-82749582D01*
X61921740Y-82633600D01*
X61906717Y-82546367D01*
X61879624Y-82477530D01*
X61838400Y-82416737D01*
X61823115Y-82398686D01*
X61727546Y-82308746D01*
X61625039Y-82256211D01*
X61499679Y-82234201D01*
X61438550Y-82232402D01*
X61276753Y-82251568D01*
G36*
X58936796Y-82266354D02*
G01*
X58911981Y-82278037D01*
X58826094Y-82340951D01*
X58744879Y-82432769D01*
X58684236Y-82533868D01*
X58666988Y-82580349D01*
X58651251Y-82663376D01*
X58641867Y-82763713D01*
X58640728Y-82805147D01*
X58640589Y-82935882D01*
X59393047Y-82935882D01*
X59377007Y-83004363D01*
X59337637Y-83085355D01*
X59268806Y-83155351D01*
X59186919Y-83200441D01*
X59134737Y-83209804D01*
X59063971Y-83198441D01*
X58979540Y-83169943D01*
X58950858Y-83156831D01*
X58844791Y-83103858D01*
X58754272Y-83172901D01*
X58702039Y-83219597D01*
X58674247Y-83258140D01*
X58672840Y-83269452D01*
X58697668Y-83296868D01*
X58752083Y-83338532D01*
X58801472Y-83371037D01*
X58934748Y-83429468D01*
X59084161Y-83455915D01*
X59232249Y-83449039D01*
X59350295Y-83413096D01*
X59471982Y-83336101D01*
X59558460Y-83234728D01*
X59612559Y-83103570D01*
X59637109Y-82937224D01*
X59639286Y-82861108D01*
X59630573Y-82686685D01*
X59629503Y-82681611D01*
X59380173Y-82681611D01*
X59373306Y-82697968D01*
X59345083Y-82706988D01*
X59286873Y-82710854D01*
X59190042Y-82711749D01*
X59152757Y-82711765D01*
X59039317Y-82710413D01*
X58967378Y-82705505D01*
X58928687Y-82695760D01*
X58914995Y-82679899D01*
X58914510Y-82674805D01*
X58930137Y-82634326D01*
X58969247Y-82577621D01*
X58986061Y-82557766D01*
X59048481Y-82501611D01*
X59113547Y-82479532D01*
X59148603Y-82477686D01*
X59243442Y-82500766D01*
X59322973Y-82562759D01*
X59373423Y-82652802D01*
X59374317Y-82655735D01*
X59380173Y-82681611D01*
X59629503Y-82681611D01*
X59601601Y-82549343D01*
X59549410Y-82439461D01*
X59485579Y-82361461D01*
X59367567Y-82276882D01*
X59228842Y-82231686D01*
X59081290Y-82227600D01*
X58936796Y-82266354D01*
G37*
X58936796Y-82266354D02*
X58911981Y-82278037D01*
X58826094Y-82340951D01*
X58744879Y-82432769D01*
X58684236Y-82533868D01*
X58666988Y-82580349D01*
X58651251Y-82663376D01*
X58641867Y-82763713D01*
X58640728Y-82805147D01*
X58640589Y-82935882D01*
X59393047Y-82935882D01*
X59377007Y-83004363D01*
X59337637Y-83085355D01*
X59268806Y-83155351D01*
X59186919Y-83200441D01*
X59134737Y-83209804D01*
X59063971Y-83198441D01*
X58979540Y-83169943D01*
X58950858Y-83156831D01*
X58844791Y-83103858D01*
X58754272Y-83172901D01*
X58702039Y-83219597D01*
X58674247Y-83258140D01*
X58672840Y-83269452D01*
X58697668Y-83296868D01*
X58752083Y-83338532D01*
X58801472Y-83371037D01*
X58934748Y-83429468D01*
X59084161Y-83455915D01*
X59232249Y-83449039D01*
X59350295Y-83413096D01*
X59471982Y-83336101D01*
X59558460Y-83234728D01*
X59612559Y-83103570D01*
X59637109Y-82937224D01*
X59639286Y-82861108D01*
X59630573Y-82686685D01*
X59629503Y-82681611D01*
X59380173Y-82681611D01*
X59373306Y-82697968D01*
X59345083Y-82706988D01*
X59286873Y-82710854D01*
X59190042Y-82711749D01*
X59152757Y-82711765D01*
X59039317Y-82710413D01*
X58967378Y-82705505D01*
X58928687Y-82695760D01*
X58914995Y-82679899D01*
X58914510Y-82674805D01*
X58930137Y-82634326D01*
X58969247Y-82577621D01*
X58986061Y-82557766D01*
X59048481Y-82501611D01*
X59113547Y-82479532D01*
X59148603Y-82477686D01*
X59243442Y-82500766D01*
X59322973Y-82562759D01*
X59373423Y-82652802D01*
X59374317Y-82655735D01*
X59380173Y-82681611D01*
X59629503Y-82681611D01*
X59601601Y-82549343D01*
X59549410Y-82439461D01*
X59485579Y-82361461D01*
X59367567Y-82276882D01*
X59228842Y-82231686D01*
X59081290Y-82227600D01*
X58936796Y-82266354D01*
G36*
X56222241Y-82234345D02*
G01*
X56127941Y-82252229D01*
X56030110Y-82289633D01*
X56019657Y-82294402D01*
X55945469Y-82333412D01*
X55894090Y-82369664D01*
X55877483Y-82392887D01*
X55893298Y-82430761D01*
X55931712Y-82486644D01*
X55948763Y-82507505D01*
X56019031Y-82589618D01*
X56109621Y-82536168D01*
X56195836Y-82500561D01*
X56295451Y-82481529D01*
X56390981Y-82480326D01*
X56464939Y-82498210D01*
X56482688Y-82509373D01*
X56516488Y-82560553D01*
X56520596Y-82619509D01*
X56495304Y-82665567D01*
X56480344Y-82674499D01*
X56435514Y-82685592D01*
X56356714Y-82698630D01*
X56259574Y-82711088D01*
X56241654Y-82713042D01*
X56085635Y-82740030D01*
X55972477Y-82785873D01*
X55897431Y-82854803D01*
X55855747Y-82951054D01*
X55842762Y-83068617D01*
X55860701Y-83202254D01*
X55918950Y-83307195D01*
X56017745Y-83383630D01*
X56157318Y-83431748D01*
X56312255Y-83450732D01*
X56438602Y-83450504D01*
X56541087Y-83433262D01*
X56611079Y-83409457D01*
X56699517Y-83367978D01*
X56781246Y-83319842D01*
X56810295Y-83298655D01*
X56885000Y-83237676D01*
X56794902Y-83146508D01*
X56704804Y-83055339D01*
X56602368Y-83123128D01*
X56499626Y-83174042D01*
X56389913Y-83200673D01*
X56284449Y-83203483D01*
X56194454Y-83182935D01*
X56131146Y-83139493D01*
X56110704Y-83102838D01*
X56113771Y-83044053D01*
X56164566Y-82999099D01*
X56262952Y-82968057D01*
X56370744Y-82953710D01*
X56536635Y-82926337D01*
X56659876Y-82874693D01*
X56742114Y-82797266D01*
X56784999Y-82692544D01*
X56790940Y-82568387D01*
X56761594Y-82438702D01*
X56694691Y-82340677D01*
X56589629Y-82273866D01*
X56445810Y-82237820D01*
X56339262Y-82230754D01*
X56222241Y-82234345D01*
G37*
X56222241Y-82234345D02*
X56127941Y-82252229D01*
X56030110Y-82289633D01*
X56019657Y-82294402D01*
X55945469Y-82333412D01*
X55894090Y-82369664D01*
X55877483Y-82392887D01*
X55893298Y-82430761D01*
X55931712Y-82486644D01*
X55948763Y-82507505D01*
X56019031Y-82589618D01*
X56109621Y-82536168D01*
X56195836Y-82500561D01*
X56295451Y-82481529D01*
X56390981Y-82480326D01*
X56464939Y-82498210D01*
X56482688Y-82509373D01*
X56516488Y-82560553D01*
X56520596Y-82619509D01*
X56495304Y-82665567D01*
X56480344Y-82674499D01*
X56435514Y-82685592D01*
X56356714Y-82698630D01*
X56259574Y-82711088D01*
X56241654Y-82713042D01*
X56085635Y-82740030D01*
X55972477Y-82785873D01*
X55897431Y-82854803D01*
X55855747Y-82951054D01*
X55842762Y-83068617D01*
X55860701Y-83202254D01*
X55918950Y-83307195D01*
X56017745Y-83383630D01*
X56157318Y-83431748D01*
X56312255Y-83450732D01*
X56438602Y-83450504D01*
X56541087Y-83433262D01*
X56611079Y-83409457D01*
X56699517Y-83367978D01*
X56781246Y-83319842D01*
X56810295Y-83298655D01*
X56885000Y-83237676D01*
X56794902Y-83146508D01*
X56704804Y-83055339D01*
X56602368Y-83123128D01*
X56499626Y-83174042D01*
X56389913Y-83200673D01*
X56284449Y-83203483D01*
X56194454Y-83182935D01*
X56131146Y-83139493D01*
X56110704Y-83102838D01*
X56113771Y-83044053D01*
X56164566Y-82999099D01*
X56262952Y-82968057D01*
X56370744Y-82953710D01*
X56536635Y-82926337D01*
X56659876Y-82874693D01*
X56742114Y-82797266D01*
X56784999Y-82692544D01*
X56790940Y-82568387D01*
X56761594Y-82438702D01*
X56694691Y-82340677D01*
X56589629Y-82273866D01*
X56445810Y-82237820D01*
X56339262Y-82230754D01*
X56222241Y-82234345D01*
G36*
X55040453Y-82253364D02*
G01*
X54914498Y-82321959D01*
X54815953Y-82430245D01*
X54769522Y-82518315D01*
X54749588Y-82596101D01*
X54736672Y-82706993D01*
X54731137Y-82834738D01*
X54733346Y-82963084D01*
X54743663Y-83075779D01*
X54755714Y-83135969D01*
X54796366Y-83218311D01*
X54866770Y-83305770D01*
X54951618Y-83382251D01*
X55035603Y-83431655D01*
X55037651Y-83432439D01*
X55141866Y-83454027D01*
X55265373Y-83454562D01*
X55382739Y-83434908D01*
X55428058Y-83419155D01*
X55544780Y-83352966D01*
X55628376Y-83266246D01*
X55683299Y-83151438D01*
X55714005Y-83000982D01*
X55720953Y-82922173D01*
X55720067Y-82823145D01*
X55453138Y-82823145D01*
X55444146Y-82967645D01*
X55418264Y-83077760D01*
X55377132Y-83148116D01*
X55347828Y-83168235D01*
X55272749Y-83182265D01*
X55183506Y-83178111D01*
X55106350Y-83157922D01*
X55086117Y-83146815D01*
X55032735Y-83082123D01*
X54997500Y-82983119D01*
X54982502Y-82862632D01*
X54989828Y-82733494D01*
X55006201Y-82655775D01*
X55053210Y-82565771D01*
X55127418Y-82509509D01*
X55216791Y-82490057D01*
X55309293Y-82510481D01*
X55380347Y-82560437D01*
X55417688Y-82601655D01*
X55439482Y-82642281D01*
X55449870Y-82697264D01*
X55452994Y-82781549D01*
X55453138Y-82823145D01*
X55720067Y-82823145D01*
X55719070Y-82711874D01*
X55684820Y-82539423D01*
X55618198Y-82404814D01*
X55519201Y-82308040D01*
X55387825Y-82249094D01*
X55359615Y-82242259D01*
X55190074Y-82226213D01*
X55040453Y-82253364D01*
G37*
X55040453Y-82253364D02*
X54914498Y-82321959D01*
X54815953Y-82430245D01*
X54769522Y-82518315D01*
X54749588Y-82596101D01*
X54736672Y-82706993D01*
X54731137Y-82834738D01*
X54733346Y-82963084D01*
X54743663Y-83075779D01*
X54755714Y-83135969D01*
X54796366Y-83218311D01*
X54866770Y-83305770D01*
X54951618Y-83382251D01*
X55035603Y-83431655D01*
X55037651Y-83432439D01*
X55141866Y-83454027D01*
X55265373Y-83454562D01*
X55382739Y-83434908D01*
X55428058Y-83419155D01*
X55544780Y-83352966D01*
X55628376Y-83266246D01*
X55683299Y-83151438D01*
X55714005Y-83000982D01*
X55720953Y-82922173D01*
X55720067Y-82823145D01*
X55453138Y-82823145D01*
X55444146Y-82967645D01*
X55418264Y-83077760D01*
X55377132Y-83148116D01*
X55347828Y-83168235D01*
X55272749Y-83182265D01*
X55183506Y-83178111D01*
X55106350Y-83157922D01*
X55086117Y-83146815D01*
X55032735Y-83082123D01*
X54997500Y-82983119D01*
X54982502Y-82862632D01*
X54989828Y-82733494D01*
X55006201Y-82655775D01*
X55053210Y-82565771D01*
X55127418Y-82509509D01*
X55216791Y-82490057D01*
X55309293Y-82510481D01*
X55380347Y-82560437D01*
X55417688Y-82601655D01*
X55439482Y-82642281D01*
X55449870Y-82697264D01*
X55452994Y-82781549D01*
X55453138Y-82823145D01*
X55720067Y-82823145D01*
X55719070Y-82711874D01*
X55684820Y-82539423D01*
X55618198Y-82404814D01*
X55519201Y-82308040D01*
X55387825Y-82249094D01*
X55359615Y-82242259D01*
X55190074Y-82226213D01*
X55040453Y-82253364D01*
G36*
X54282746Y-82626245D02*
G01*
X54280392Y-82808879D01*
X54271793Y-82947600D01*
X54254640Y-83048147D01*
X54226626Y-83116254D01*
X54185443Y-83157659D01*
X54128783Y-83178097D01*
X54058628Y-83183318D01*
X53985152Y-83177468D01*
X53929343Y-83156093D01*
X53888891Y-83113458D01*
X53861491Y-83043825D01*
X53844833Y-82941460D01*
X53836611Y-82800624D01*
X53834510Y-82626245D01*
X53834510Y-82238628D01*
X53560589Y-82238628D01*
X53560589Y-83433922D01*
X53697549Y-83433922D01*
X53780116Y-83430576D01*
X53822632Y-83418826D01*
X53834510Y-83396520D01*
X53841664Y-83376654D01*
X53870135Y-83380857D01*
X53927524Y-83408971D01*
X54059055Y-83452342D01*
X54198562Y-83449270D01*
X54332235Y-83402174D01*
X54395892Y-83364971D01*
X54444447Y-83324691D01*
X54479919Y-83274291D01*
X54504326Y-83206729D01*
X54519687Y-83114965D01*
X54528018Y-82991955D01*
X54531338Y-82830659D01*
X54531765Y-82705928D01*
X54531765Y-82238628D01*
X54282746Y-82238628D01*
X54282746Y-82626245D01*
G37*
X54282746Y-82626245D02*
X54280392Y-82808879D01*
X54271793Y-82947600D01*
X54254640Y-83048147D01*
X54226626Y-83116254D01*
X54185443Y-83157659D01*
X54128783Y-83178097D01*
X54058628Y-83183318D01*
X53985152Y-83177468D01*
X53929343Y-83156093D01*
X53888891Y-83113458D01*
X53861491Y-83043825D01*
X53844833Y-82941460D01*
X53836611Y-82800624D01*
X53834510Y-82626245D01*
X53834510Y-82238628D01*
X53560589Y-82238628D01*
X53560589Y-83433922D01*
X53697549Y-83433922D01*
X53780116Y-83430576D01*
X53822632Y-83418826D01*
X53834510Y-83396520D01*
X53841664Y-83376654D01*
X53870135Y-83380857D01*
X53927524Y-83408971D01*
X54059055Y-83452342D01*
X54198562Y-83449270D01*
X54332235Y-83402174D01*
X54395892Y-83364971D01*
X54444447Y-83324691D01*
X54479919Y-83274291D01*
X54504326Y-83206729D01*
X54519687Y-83114965D01*
X54528018Y-82991955D01*
X54531338Y-82830659D01*
X54531765Y-82705928D01*
X54531765Y-82238628D01*
X54282746Y-82238628D01*
X54282746Y-82626245D01*
G36*
X51859024Y-82249056D02*
G01*
X51714744Y-82310348D01*
X51669301Y-82340185D01*
X51611221Y-82386036D01*
X51574762Y-82422089D01*
X51568432Y-82433832D01*
X51586307Y-82459889D01*
X51632050Y-82504105D01*
X51668672Y-82534965D01*
X51768912Y-82615520D01*
X51848065Y-82548918D01*
X51909231Y-82505921D01*
X51968871Y-82491079D01*
X52037128Y-82494704D01*
X52145518Y-82521652D01*
X52220128Y-82577587D01*
X52265470Y-82668014D01*
X52286053Y-82798435D01*
X52286058Y-82798517D01*
X52284278Y-82944290D01*
X52256613Y-83051245D01*
X52201429Y-83124064D01*
X52163808Y-83148723D01*
X52063895Y-83179431D01*
X51957178Y-83179449D01*
X51864331Y-83149655D01*
X51842353Y-83135098D01*
X51787235Y-83097914D01*
X51744141Y-83091820D01*
X51697665Y-83119496D01*
X51646284Y-83169205D01*
X51564954Y-83253116D01*
X51655251Y-83327546D01*
X51794764Y-83411549D01*
X51952088Y-83452947D01*
X52116497Y-83449950D01*
X52224469Y-83422500D01*
X52350669Y-83354620D01*
X52451599Y-83247831D01*
X52497452Y-83172451D01*
X52534590Y-83064297D01*
X52553173Y-82927318D01*
X52553316Y-82778864D01*
X52535135Y-82636281D01*
X52498745Y-82516918D01*
X52493013Y-82504680D01*
X52408135Y-82384655D01*
X52293218Y-82297267D01*
X52157341Y-82244329D01*
X52009583Y-82227654D01*
X51859024Y-82249056D01*
G37*
X51859024Y-82249056D02*
X51714744Y-82310348D01*
X51669301Y-82340185D01*
X51611221Y-82386036D01*
X51574762Y-82422089D01*
X51568432Y-82433832D01*
X51586307Y-82459889D01*
X51632050Y-82504105D01*
X51668672Y-82534965D01*
X51768912Y-82615520D01*
X51848065Y-82548918D01*
X51909231Y-82505921D01*
X51968871Y-82491079D01*
X52037128Y-82494704D01*
X52145518Y-82521652D01*
X52220128Y-82577587D01*
X52265470Y-82668014D01*
X52286053Y-82798435D01*
X52286058Y-82798517D01*
X52284278Y-82944290D01*
X52256613Y-83051245D01*
X52201429Y-83124064D01*
X52163808Y-83148723D01*
X52063895Y-83179431D01*
X51957178Y-83179449D01*
X51864331Y-83149655D01*
X51842353Y-83135098D01*
X51787235Y-83097914D01*
X51744141Y-83091820D01*
X51697665Y-83119496D01*
X51646284Y-83169205D01*
X51564954Y-83253116D01*
X51655251Y-83327546D01*
X51794764Y-83411549D01*
X51952088Y-83452947D01*
X52116497Y-83449950D01*
X52224469Y-83422500D01*
X52350669Y-83354620D01*
X52451599Y-83247831D01*
X52497452Y-83172451D01*
X52534590Y-83064297D01*
X52553173Y-82927318D01*
X52553316Y-82778864D01*
X52535135Y-82636281D01*
X52498745Y-82516918D01*
X52493013Y-82504680D01*
X52408135Y-82384655D01*
X52293218Y-82297267D01*
X52157341Y-82244329D01*
X52009583Y-82227654D01*
X51859024Y-82249056D01*
G36*
X50946713Y-82234355D02*
G01*
X50882949Y-82249845D01*
X50760700Y-82306569D01*
X50656166Y-82393202D01*
X50583820Y-82497074D01*
X50573881Y-82520396D01*
X50560246Y-82581484D01*
X50550702Y-82671853D01*
X50547451Y-82763190D01*
X50547451Y-82935882D01*
X50908530Y-82935882D01*
X51057454Y-82936445D01*
X51162368Y-82939864D01*
X51229063Y-82948731D01*
X51263334Y-82965641D01*
X51270972Y-82993189D01*
X51257771Y-83033968D01*
X51234123Y-83081683D01*
X51168157Y-83161314D01*
X51076488Y-83200987D01*
X50964445Y-83199695D01*
X50837528Y-83156514D01*
X50727842Y-83103224D01*
X50636827Y-83175191D01*
X50545812Y-83247157D01*
X50631437Y-83326269D01*
X50745750Y-83401017D01*
X50886334Y-83446084D01*
X51037551Y-83458696D01*
X51183764Y-83436079D01*
X51207353Y-83428405D01*
X51335859Y-83361296D01*
X51431449Y-83261247D01*
X51496139Y-83125271D01*
X51531943Y-82950380D01*
X51532360Y-82946632D01*
X51535566Y-82756032D01*
X51522607Y-82688035D01*
X51269608Y-82688035D01*
X51246373Y-82698491D01*
X51183290Y-82706500D01*
X51090294Y-82711073D01*
X51031362Y-82711765D01*
X50921463Y-82711332D01*
X50852748Y-82708578D01*
X50816595Y-82701321D01*
X50804385Y-82687376D01*
X50807496Y-82664562D01*
X50810106Y-82655735D01*
X50854656Y-82572800D01*
X50924721Y-82505960D01*
X50986554Y-82476589D01*
X51068699Y-82478362D01*
X51151938Y-82514990D01*
X51221762Y-82575634D01*
X51263663Y-82649456D01*
X51269608Y-82688035D01*
X51522607Y-82688035D01*
X51503615Y-82588395D01*
X51440227Y-82447711D01*
X51349122Y-82337974D01*
X51234022Y-82263174D01*
X51098645Y-82227304D01*
X50946713Y-82234355D01*
G37*
X50946713Y-82234355D02*
X50882949Y-82249845D01*
X50760700Y-82306569D01*
X50656166Y-82393202D01*
X50583820Y-82497074D01*
X50573881Y-82520396D01*
X50560246Y-82581484D01*
X50550702Y-82671853D01*
X50547451Y-82763190D01*
X50547451Y-82935882D01*
X50908530Y-82935882D01*
X51057454Y-82936445D01*
X51162368Y-82939864D01*
X51229063Y-82948731D01*
X51263334Y-82965641D01*
X51270972Y-82993189D01*
X51257771Y-83033968D01*
X51234123Y-83081683D01*
X51168157Y-83161314D01*
X51076488Y-83200987D01*
X50964445Y-83199695D01*
X50837528Y-83156514D01*
X50727842Y-83103224D01*
X50636827Y-83175191D01*
X50545812Y-83247157D01*
X50631437Y-83326269D01*
X50745750Y-83401017D01*
X50886334Y-83446084D01*
X51037551Y-83458696D01*
X51183764Y-83436079D01*
X51207353Y-83428405D01*
X51335859Y-83361296D01*
X51431449Y-83261247D01*
X51496139Y-83125271D01*
X51531943Y-82950380D01*
X51532360Y-82946632D01*
X51535566Y-82756032D01*
X51522607Y-82688035D01*
X51269608Y-82688035D01*
X51246373Y-82698491D01*
X51183290Y-82706500D01*
X51090294Y-82711073D01*
X51031362Y-82711765D01*
X50921463Y-82711332D01*
X50852748Y-82708578D01*
X50816595Y-82701321D01*
X50804385Y-82687376D01*
X50807496Y-82664562D01*
X50810106Y-82655735D01*
X50854656Y-82572800D01*
X50924721Y-82505960D01*
X50986554Y-82476589D01*
X51068699Y-82478362D01*
X51151938Y-82514990D01*
X51221762Y-82575634D01*
X51263663Y-82649456D01*
X51269608Y-82688035D01*
X51522607Y-82688035D01*
X51503615Y-82588395D01*
X51440227Y-82447711D01*
X51349122Y-82337974D01*
X51234022Y-82263174D01*
X51098645Y-82227304D01*
X50946713Y-82234355D01*
G36*
X57743240Y-82259199D02*
G01*
X57681264Y-82288802D01*
X57621241Y-82331561D01*
X57575514Y-82380775D01*
X57542207Y-82443544D01*
X57519445Y-82526971D01*
X57505353Y-82638159D01*
X57498058Y-82784209D01*
X57495682Y-82972223D01*
X57495645Y-82991912D01*
X57495098Y-83433922D01*
X57769020Y-83433922D01*
X57769020Y-83026435D01*
X57769215Y-82875471D01*
X57770564Y-82766056D01*
X57774212Y-82689933D01*
X57781304Y-82638848D01*
X57792987Y-82604545D01*
X57810406Y-82578768D01*
X57834671Y-82553298D01*
X57919565Y-82498571D01*
X58012239Y-82488416D01*
X58100527Y-82523017D01*
X58131230Y-82548770D01*
X58153771Y-82572982D01*
X58169954Y-82598912D01*
X58180832Y-82634708D01*
X58187458Y-82688519D01*
X58190885Y-82768493D01*
X58192166Y-82882779D01*
X58192353Y-83021907D01*
X58192353Y-83433922D01*
X58466275Y-83433922D01*
X58466275Y-82238628D01*
X58329314Y-82238628D01*
X58247084Y-82241879D01*
X58204660Y-82253426D01*
X58192359Y-82275952D01*
X58192353Y-82276620D01*
X58186646Y-82298681D01*
X58161473Y-82296177D01*
X58111422Y-82271937D01*
X57997906Y-82236271D01*
X57868055Y-82232305D01*
X57743240Y-82259199D01*
G37*
X57743240Y-82259199D02*
X57681264Y-82288802D01*
X57621241Y-82331561D01*
X57575514Y-82380775D01*
X57542207Y-82443544D01*
X57519445Y-82526971D01*
X57505353Y-82638159D01*
X57498058Y-82784209D01*
X57495682Y-82972223D01*
X57495645Y-82991912D01*
X57495098Y-83433922D01*
X57769020Y-83433922D01*
X57769020Y-83026435D01*
X57769215Y-82875471D01*
X57770564Y-82766056D01*
X57774212Y-82689933D01*
X57781304Y-82638848D01*
X57792987Y-82604545D01*
X57810406Y-82578768D01*
X57834671Y-82553298D01*
X57919565Y-82498571D01*
X58012239Y-82488416D01*
X58100527Y-82523017D01*
X58131230Y-82548770D01*
X58153771Y-82572982D01*
X58169954Y-82598912D01*
X58180832Y-82634708D01*
X58187458Y-82688519D01*
X58190885Y-82768493D01*
X58192166Y-82882779D01*
X58192353Y-83021907D01*
X58192353Y-83433922D01*
X58466275Y-83433922D01*
X58466275Y-82238628D01*
X58329314Y-82238628D01*
X58247084Y-82241879D01*
X58204660Y-82253426D01*
X58192359Y-82275952D01*
X58192353Y-82276620D01*
X58186646Y-82298681D01*
X58161473Y-82296177D01*
X58111422Y-82271937D01*
X57997906Y-82236271D01*
X57868055Y-82232305D01*
X57743240Y-82259199D01*
G36*
X52686363Y-82237472D02*
G01*
X52600710Y-82263641D01*
X52545563Y-82296707D01*
X52527599Y-82322855D01*
X52532543Y-82353852D01*
X52564628Y-82402547D01*
X52591757Y-82437035D01*
X52647683Y-82499383D01*
X52689701Y-82525615D01*
X52725520Y-82523903D01*
X52831776Y-82496863D01*
X52909811Y-82498091D01*
X52973180Y-82528735D01*
X52994454Y-82546670D01*
X53062549Y-82609779D01*
X53062549Y-83433922D01*
X53336471Y-83433922D01*
X53336471Y-82238628D01*
X53199510Y-82238628D01*
X53117281Y-82241879D01*
X53074856Y-82253426D01*
X53062555Y-82275952D01*
X53062549Y-82276620D01*
X53056740Y-82300215D01*
X53030469Y-82297138D01*
X52994069Y-82280115D01*
X52918889Y-82248439D01*
X52857842Y-82229381D01*
X52779292Y-82224496D01*
X52686363Y-82237472D01*
G37*
X52686363Y-82237472D02*
X52600710Y-82263641D01*
X52545563Y-82296707D01*
X52527599Y-82322855D01*
X52532543Y-82353852D01*
X52564628Y-82402547D01*
X52591757Y-82437035D01*
X52647683Y-82499383D01*
X52689701Y-82525615D01*
X52725520Y-82523903D01*
X52831776Y-82496863D01*
X52909811Y-82498091D01*
X52973180Y-82528735D01*
X52994454Y-82546670D01*
X53062549Y-82609779D01*
X53062549Y-83433922D01*
X53336471Y-83433922D01*
X53336471Y-82238628D01*
X53199510Y-82238628D01*
X53117281Y-82241879D01*
X53074856Y-82253426D01*
X53062555Y-82275952D01*
X53062549Y-82276620D01*
X53056740Y-82300215D01*
X53030469Y-82297138D01*
X52994069Y-82280115D01*
X52918889Y-82248439D01*
X52857842Y-82229381D01*
X52779292Y-82224496D01*
X52686363Y-82237472D01*
G36*
X55503465Y-73983172D02*
G01*
X55390883Y-74580363D01*
X54975469Y-74751610D01*
X54560056Y-74922857D01*
X54061698Y-74583978D01*
X53922132Y-74489622D01*
X53795972Y-74405375D01*
X53689105Y-74335083D01*
X53607418Y-74282592D01*
X53556799Y-74251749D01*
X53543014Y-74245098D01*
X53518180Y-74262203D01*
X53465112Y-74309489D01*
X53389760Y-74380917D01*
X53298071Y-74470445D01*
X53195993Y-74572034D01*
X53089474Y-74679643D01*
X52984464Y-74787232D01*
X52886909Y-74888760D01*
X52802758Y-74978186D01*
X52737960Y-75049471D01*
X52698462Y-75096573D01*
X52689020Y-75112337D01*
X52702609Y-75141398D01*
X52740707Y-75205066D01*
X52799306Y-75297112D01*
X52874403Y-75411309D01*
X52961991Y-75541429D01*
X53012746Y-75615646D01*
X53105255Y-75751167D01*
X53187460Y-75873461D01*
X53255370Y-75976440D01*
X53305000Y-76054018D01*
X53332360Y-76100106D01*
X53336471Y-76109792D01*
X53327151Y-76137319D01*
X53301746Y-76201473D01*
X53264089Y-76293235D01*
X53218014Y-76403584D01*
X53167354Y-76523500D01*
X53115941Y-76643964D01*
X53067611Y-76755954D01*
X53026194Y-76850452D01*
X52995526Y-76918437D01*
X52979438Y-76950888D01*
X52978489Y-76952165D01*
X52953228Y-76958362D01*
X52885954Y-76972185D01*
X52783640Y-76992277D01*
X52653259Y-77017279D01*
X52501784Y-77045831D01*
X52413406Y-77062296D01*
X52251548Y-77093114D01*
X52105351Y-77122439D01*
X51982213Y-77148666D01*
X51889531Y-77170191D01*
X51834699Y-77185410D01*
X51823677Y-77190238D01*
X51812881Y-77222919D01*
X51804171Y-77296730D01*
X51797540Y-77403037D01*
X51792982Y-77533212D01*
X51790491Y-77678621D01*
X51790062Y-77830635D01*
X51791689Y-77980622D01*
X51795365Y-78119951D01*
X51801085Y-78239990D01*
X51808842Y-78332110D01*
X51818632Y-78387677D01*
X51824504Y-78399245D01*
X51859601Y-78413110D01*
X51933972Y-78432933D01*
X52037777Y-78456384D01*
X52161181Y-78481136D01*
X52204259Y-78489143D01*
X52411953Y-78527186D01*
X52576016Y-78557824D01*
X52701870Y-78582274D01*
X52794935Y-78601754D01*
X52860633Y-78617481D01*
X52904383Y-78630673D01*
X52931608Y-78642549D01*
X52947728Y-78654325D01*
X52949983Y-78656653D01*
X52972497Y-78694145D01*
X53006842Y-78767110D01*
X53049589Y-78866612D01*
X53097308Y-78983718D01*
X53146570Y-79109493D01*
X53193945Y-79235002D01*
X53236005Y-79351310D01*
X53269320Y-79449484D01*
X53290459Y-79520588D01*
X53295995Y-79555687D01*
X53295534Y-79556917D01*
X53276777Y-79585606D01*
X53234224Y-79648730D01*
X53172347Y-79739718D01*
X53095618Y-79852000D01*
X53008509Y-79979005D01*
X52983701Y-80015098D01*
X52895247Y-80145948D01*
X52817412Y-80265336D01*
X52754434Y-80366407D01*
X52710555Y-80442304D01*
X52690015Y-80486172D01*
X52689020Y-80491562D01*
X52706278Y-80519889D01*
X52753964Y-80576006D01*
X52825950Y-80653882D01*
X52916103Y-80747485D01*
X53018295Y-80850786D01*
X53126394Y-80957751D01*
X53234272Y-81062351D01*
X53335796Y-81158554D01*
X53424838Y-81240329D01*
X53495267Y-81301645D01*
X53540953Y-81336471D01*
X53553591Y-81342157D01*
X53583009Y-81328765D01*
X53643239Y-81292644D01*
X53724470Y-81239881D01*
X53786970Y-81197412D01*
X53900215Y-81119485D01*
X54034326Y-81027729D01*
X54168845Y-80936120D01*
X54241167Y-80887091D01*
X54485962Y-80721515D01*
X54691449Y-80832620D01*
X54785064Y-80881293D01*
X54864670Y-80919126D01*
X54918533Y-80940703D01*
X54932243Y-80943706D01*
X54948730Y-80921538D01*
X54981255Y-80858894D01*
X55027391Y-80761554D01*
X55084710Y-80635294D01*
X55150784Y-80485895D01*
X55223185Y-80319133D01*
X55299484Y-80140787D01*
X55377254Y-79956636D01*
X55454066Y-79772457D01*
X55527494Y-79594030D01*
X55595108Y-79427132D01*
X55654480Y-79277542D01*
X55703184Y-79151038D01*
X55738790Y-79053399D01*
X55758870Y-78990402D01*
X55762100Y-78968766D01*
X55736504Y-78941169D01*
X55680461Y-78896370D01*
X55605689Y-78843679D01*
X55599413Y-78839510D01*
X55406155Y-78684814D01*
X55250326Y-78504336D01*
X55133276Y-78303847D01*
X55056355Y-78089119D01*
X55020914Y-77865922D01*
X55028303Y-77640026D01*
X55079873Y-77417204D01*
X55176974Y-77203224D01*
X55205542Y-77156409D01*
X55354132Y-76967363D01*
X55529673Y-76815557D01*
X55726090Y-76701779D01*
X55937307Y-76626820D01*
X56157247Y-76591467D01*
X56379837Y-76596512D01*
X56598999Y-76642744D01*
X56808658Y-76730951D01*
X57002739Y-76861924D01*
X57062774Y-76915082D01*
X57215565Y-77081484D01*
X57326903Y-77256657D01*
X57403277Y-77453011D01*
X57445813Y-77647462D01*
X57456314Y-77866087D01*
X57421299Y-78085797D01*
X57344327Y-78299165D01*
X57228953Y-78498767D01*
X57078734Y-78677174D01*
X56897227Y-78826962D01*
X56873373Y-78842751D01*
X56797799Y-78894457D01*
X56740349Y-78939257D01*
X56712883Y-78967862D01*
X56712483Y-78968766D01*
X56718380Y-78999709D01*
X56741755Y-79069936D01*
X56780179Y-79173670D01*
X56831223Y-79305135D01*
X56892458Y-79458552D01*
X56961456Y-79628146D01*
X57035786Y-79808138D01*
X57113022Y-79992753D01*
X57190732Y-80176213D01*
X57266489Y-80352741D01*
X57337863Y-80516559D01*
X57402426Y-80661892D01*
X57457748Y-80782962D01*
X57501400Y-80873992D01*
X57530954Y-80929205D01*
X57542856Y-80943706D01*
X57579223Y-80932414D01*
X57647270Y-80902130D01*
X57735263Y-80858265D01*
X57783649Y-80832620D01*
X57989137Y-80721515D01*
X58233932Y-80887091D01*
X58358894Y-80971915D01*
X58495705Y-81065261D01*
X58623911Y-81153153D01*
X58688129Y-81197412D01*
X58778449Y-81258063D01*
X58854929Y-81306126D01*
X58907593Y-81335515D01*
X58924698Y-81341727D01*
X58949595Y-81324968D01*
X59004695Y-81278181D01*
X59084657Y-81206225D01*
X59184139Y-81113957D01*
X59297800Y-81006235D01*
X59369685Y-80937071D01*
X59495449Y-80813502D01*
X59604137Y-80702979D01*
X59691355Y-80610230D01*
X59752711Y-80539982D01*
X59783809Y-80496965D01*
X59786792Y-80488235D01*
X59772947Y-80455029D01*
X59734688Y-80387887D01*
X59676258Y-80293608D01*
X59601903Y-80178990D01*
X59515865Y-80050828D01*
X59491397Y-80015098D01*
X59402245Y-79885234D01*
X59322262Y-79768314D01*
X59255920Y-79670907D01*
X59207689Y-79599584D01*
X59182043Y-79560915D01*
X59179565Y-79556917D01*
X59183271Y-79526100D01*
X59202939Y-79458344D01*
X59235140Y-79362584D01*
X59276445Y-79247754D01*
X59323425Y-79122789D01*
X59372651Y-78996624D01*
X59420692Y-78878193D01*
X59464119Y-78776430D01*
X59499504Y-78700271D01*
X59523416Y-78658649D01*
X59525116Y-78656653D01*
X59539738Y-78644758D01*
X59564435Y-78632995D01*
X59604628Y-78620146D01*
X59665737Y-78604994D01*
X59753183Y-78586321D01*
X59872388Y-78562910D01*
X60028773Y-78533542D01*
X60227757Y-78497000D01*
X60270840Y-78489143D01*
X60398529Y-78464472D01*
X60509847Y-78440338D01*
X60594955Y-78419069D01*
X60644017Y-78402993D01*
X60650595Y-78399245D01*
X60661436Y-78366018D01*
X60670247Y-78291766D01*
X60677024Y-78185121D01*
X60681760Y-78054712D01*
X60684450Y-77909172D01*
X60685087Y-77757131D01*
X60683666Y-77607221D01*
X60680180Y-77468073D01*
X60674624Y-77348317D01*
X60666992Y-77256586D01*
X60657278Y-77201511D01*
X60651422Y-77190238D01*
X60618820Y-77178868D01*
X60544582Y-77160369D01*
X60436104Y-77136347D01*
X60300783Y-77108407D01*
X60146015Y-77078153D01*
X60061692Y-77062296D01*
X59901704Y-77032389D01*
X59759033Y-77005295D01*
X59640652Y-76982376D01*
X59553535Y-76964988D01*
X59504655Y-76954492D01*
X59496610Y-76952165D01*
X59483013Y-76925931D01*
X59454271Y-76862740D01*
X59414215Y-76771622D01*
X59366676Y-76661602D01*
X59315485Y-76541710D01*
X59264474Y-76420972D01*
X59217474Y-76308416D01*
X59178316Y-76213071D01*
X59150831Y-76143962D01*
X59138851Y-76110119D01*
X59138628Y-76108640D01*
X59152209Y-76081942D01*
X59190285Y-76020505D01*
X59248853Y-75930434D01*
X59323912Y-75817835D01*
X59411460Y-75688815D01*
X59462353Y-75614706D01*
X59555091Y-75478822D01*
X59637459Y-75355454D01*
X59705439Y-75250842D01*
X59755012Y-75171228D01*
X59782158Y-75122852D01*
X59786079Y-75112007D01*
X59769225Y-75086765D01*
X59722632Y-75032869D01*
X59652251Y-74956358D01*
X59564035Y-74863268D01*
X59463935Y-74759640D01*
X59357902Y-74651509D01*
X59251889Y-74544915D01*
X59151848Y-74445895D01*
X59063730Y-74360487D01*
X58993487Y-74294730D01*
X58947072Y-74254661D01*
X58931544Y-74245098D01*
X58906261Y-74258545D01*
X58845789Y-74296320D01*
X58756008Y-74354580D01*
X58642797Y-74429479D01*
X58512036Y-74517170D01*
X58413400Y-74583978D01*
X57915043Y-74922857D01*
X57499629Y-74751610D01*
X57084216Y-74580363D01*
X56971634Y-73983172D01*
X56859051Y-73385980D01*
X55616048Y-73385980D01*
X55503465Y-73983172D01*
G37*
X55503465Y-73983172D02*
X55390883Y-74580363D01*
X54975469Y-74751610D01*
X54560056Y-74922857D01*
X54061698Y-74583978D01*
X53922132Y-74489622D01*
X53795972Y-74405375D01*
X53689105Y-74335083D01*
X53607418Y-74282592D01*
X53556799Y-74251749D01*
X53543014Y-74245098D01*
X53518180Y-74262203D01*
X53465112Y-74309489D01*
X53389760Y-74380917D01*
X53298071Y-74470445D01*
X53195993Y-74572034D01*
X53089474Y-74679643D01*
X52984464Y-74787232D01*
X52886909Y-74888760D01*
X52802758Y-74978186D01*
X52737960Y-75049471D01*
X52698462Y-75096573D01*
X52689020Y-75112337D01*
X52702609Y-75141398D01*
X52740707Y-75205066D01*
X52799306Y-75297112D01*
X52874403Y-75411309D01*
X52961991Y-75541429D01*
X53012746Y-75615646D01*
X53105255Y-75751167D01*
X53187460Y-75873461D01*
X53255370Y-75976440D01*
X53305000Y-76054018D01*
X53332360Y-76100106D01*
X53336471Y-76109792D01*
X53327151Y-76137319D01*
X53301746Y-76201473D01*
X53264089Y-76293235D01*
X53218014Y-76403584D01*
X53167354Y-76523500D01*
X53115941Y-76643964D01*
X53067611Y-76755954D01*
X53026194Y-76850452D01*
X52995526Y-76918437D01*
X52979438Y-76950888D01*
X52978489Y-76952165D01*
X52953228Y-76958362D01*
X52885954Y-76972185D01*
X52783640Y-76992277D01*
X52653259Y-77017279D01*
X52501784Y-77045831D01*
X52413406Y-77062296D01*
X52251548Y-77093114D01*
X52105351Y-77122439D01*
X51982213Y-77148666D01*
X51889531Y-77170191D01*
X51834699Y-77185410D01*
X51823677Y-77190238D01*
X51812881Y-77222919D01*
X51804171Y-77296730D01*
X51797540Y-77403037D01*
X51792982Y-77533212D01*
X51790491Y-77678621D01*
X51790062Y-77830635D01*
X51791689Y-77980622D01*
X51795365Y-78119951D01*
X51801085Y-78239990D01*
X51808842Y-78332110D01*
X51818632Y-78387677D01*
X51824504Y-78399245D01*
X51859601Y-78413110D01*
X51933972Y-78432933D01*
X52037777Y-78456384D01*
X52161181Y-78481136D01*
X52204259Y-78489143D01*
X52411953Y-78527186D01*
X52576016Y-78557824D01*
X52701870Y-78582274D01*
X52794935Y-78601754D01*
X52860633Y-78617481D01*
X52904383Y-78630673D01*
X52931608Y-78642549D01*
X52947728Y-78654325D01*
X52949983Y-78656653D01*
X52972497Y-78694145D01*
X53006842Y-78767110D01*
X53049589Y-78866612D01*
X53097308Y-78983718D01*
X53146570Y-79109493D01*
X53193945Y-79235002D01*
X53236005Y-79351310D01*
X53269320Y-79449484D01*
X53290459Y-79520588D01*
X53295995Y-79555687D01*
X53295534Y-79556917D01*
X53276777Y-79585606D01*
X53234224Y-79648730D01*
X53172347Y-79739718D01*
X53095618Y-79852000D01*
X53008509Y-79979005D01*
X52983701Y-80015098D01*
X52895247Y-80145948D01*
X52817412Y-80265336D01*
X52754434Y-80366407D01*
X52710555Y-80442304D01*
X52690015Y-80486172D01*
X52689020Y-80491562D01*
X52706278Y-80519889D01*
X52753964Y-80576006D01*
X52825950Y-80653882D01*
X52916103Y-80747485D01*
X53018295Y-80850786D01*
X53126394Y-80957751D01*
X53234272Y-81062351D01*
X53335796Y-81158554D01*
X53424838Y-81240329D01*
X53495267Y-81301645D01*
X53540953Y-81336471D01*
X53553591Y-81342157D01*
X53583009Y-81328765D01*
X53643239Y-81292644D01*
X53724470Y-81239881D01*
X53786970Y-81197412D01*
X53900215Y-81119485D01*
X54034326Y-81027729D01*
X54168845Y-80936120D01*
X54241167Y-80887091D01*
X54485962Y-80721515D01*
X54691449Y-80832620D01*
X54785064Y-80881293D01*
X54864670Y-80919126D01*
X54918533Y-80940703D01*
X54932243Y-80943706D01*
X54948730Y-80921538D01*
X54981255Y-80858894D01*
X55027391Y-80761554D01*
X55084710Y-80635294D01*
X55150784Y-80485895D01*
X55223185Y-80319133D01*
X55299484Y-80140787D01*
X55377254Y-79956636D01*
X55454066Y-79772457D01*
X55527494Y-79594030D01*
X55595108Y-79427132D01*
X55654480Y-79277542D01*
X55703184Y-79151038D01*
X55738790Y-79053399D01*
X55758870Y-78990402D01*
X55762100Y-78968766D01*
X55736504Y-78941169D01*
X55680461Y-78896370D01*
X55605689Y-78843679D01*
X55599413Y-78839510D01*
X55406155Y-78684814D01*
X55250326Y-78504336D01*
X55133276Y-78303847D01*
X55056355Y-78089119D01*
X55020914Y-77865922D01*
X55028303Y-77640026D01*
X55079873Y-77417204D01*
X55176974Y-77203224D01*
X55205542Y-77156409D01*
X55354132Y-76967363D01*
X55529673Y-76815557D01*
X55726090Y-76701779D01*
X55937307Y-76626820D01*
X56157247Y-76591467D01*
X56379837Y-76596512D01*
X56598999Y-76642744D01*
X56808658Y-76730951D01*
X57002739Y-76861924D01*
X57062774Y-76915082D01*
X57215565Y-77081484D01*
X57326903Y-77256657D01*
X57403277Y-77453011D01*
X57445813Y-77647462D01*
X57456314Y-77866087D01*
X57421299Y-78085797D01*
X57344327Y-78299165D01*
X57228953Y-78498767D01*
X57078734Y-78677174D01*
X56897227Y-78826962D01*
X56873373Y-78842751D01*
X56797799Y-78894457D01*
X56740349Y-78939257D01*
X56712883Y-78967862D01*
X56712483Y-78968766D01*
X56718380Y-78999709D01*
X56741755Y-79069936D01*
X56780179Y-79173670D01*
X56831223Y-79305135D01*
X56892458Y-79458552D01*
X56961456Y-79628146D01*
X57035786Y-79808138D01*
X57113022Y-79992753D01*
X57190732Y-80176213D01*
X57266489Y-80352741D01*
X57337863Y-80516559D01*
X57402426Y-80661892D01*
X57457748Y-80782962D01*
X57501400Y-80873992D01*
X57530954Y-80929205D01*
X57542856Y-80943706D01*
X57579223Y-80932414D01*
X57647270Y-80902130D01*
X57735263Y-80858265D01*
X57783649Y-80832620D01*
X57989137Y-80721515D01*
X58233932Y-80887091D01*
X58358894Y-80971915D01*
X58495705Y-81065261D01*
X58623911Y-81153153D01*
X58688129Y-81197412D01*
X58778449Y-81258063D01*
X58854929Y-81306126D01*
X58907593Y-81335515D01*
X58924698Y-81341727D01*
X58949595Y-81324968D01*
X59004695Y-81278181D01*
X59084657Y-81206225D01*
X59184139Y-81113957D01*
X59297800Y-81006235D01*
X59369685Y-80937071D01*
X59495449Y-80813502D01*
X59604137Y-80702979D01*
X59691355Y-80610230D01*
X59752711Y-80539982D01*
X59783809Y-80496965D01*
X59786792Y-80488235D01*
X59772947Y-80455029D01*
X59734688Y-80387887D01*
X59676258Y-80293608D01*
X59601903Y-80178990D01*
X59515865Y-80050828D01*
X59491397Y-80015098D01*
X59402245Y-79885234D01*
X59322262Y-79768314D01*
X59255920Y-79670907D01*
X59207689Y-79599584D01*
X59182043Y-79560915D01*
X59179565Y-79556917D01*
X59183271Y-79526100D01*
X59202939Y-79458344D01*
X59235140Y-79362584D01*
X59276445Y-79247754D01*
X59323425Y-79122789D01*
X59372651Y-78996624D01*
X59420692Y-78878193D01*
X59464119Y-78776430D01*
X59499504Y-78700271D01*
X59523416Y-78658649D01*
X59525116Y-78656653D01*
X59539738Y-78644758D01*
X59564435Y-78632995D01*
X59604628Y-78620146D01*
X59665737Y-78604994D01*
X59753183Y-78586321D01*
X59872388Y-78562910D01*
X60028773Y-78533542D01*
X60227757Y-78497000D01*
X60270840Y-78489143D01*
X60398529Y-78464472D01*
X60509847Y-78440338D01*
X60594955Y-78419069D01*
X60644017Y-78402993D01*
X60650595Y-78399245D01*
X60661436Y-78366018D01*
X60670247Y-78291766D01*
X60677024Y-78185121D01*
X60681760Y-78054712D01*
X60684450Y-77909172D01*
X60685087Y-77757131D01*
X60683666Y-77607221D01*
X60680180Y-77468073D01*
X60674624Y-77348317D01*
X60666992Y-77256586D01*
X60657278Y-77201511D01*
X60651422Y-77190238D01*
X60618820Y-77178868D01*
X60544582Y-77160369D01*
X60436104Y-77136347D01*
X60300783Y-77108407D01*
X60146015Y-77078153D01*
X60061692Y-77062296D01*
X59901704Y-77032389D01*
X59759033Y-77005295D01*
X59640652Y-76982376D01*
X59553535Y-76964988D01*
X59504655Y-76954492D01*
X59496610Y-76952165D01*
X59483013Y-76925931D01*
X59454271Y-76862740D01*
X59414215Y-76771622D01*
X59366676Y-76661602D01*
X59315485Y-76541710D01*
X59264474Y-76420972D01*
X59217474Y-76308416D01*
X59178316Y-76213071D01*
X59150831Y-76143962D01*
X59138851Y-76110119D01*
X59138628Y-76108640D01*
X59152209Y-76081942D01*
X59190285Y-76020505D01*
X59248853Y-75930434D01*
X59323912Y-75817835D01*
X59411460Y-75688815D01*
X59462353Y-75614706D01*
X59555091Y-75478822D01*
X59637459Y-75355454D01*
X59705439Y-75250842D01*
X59755012Y-75171228D01*
X59782158Y-75122852D01*
X59786079Y-75112007D01*
X59769225Y-75086765D01*
X59722632Y-75032869D01*
X59652251Y-74956358D01*
X59564035Y-74863268D01*
X59463935Y-74759640D01*
X59357902Y-74651509D01*
X59251889Y-74544915D01*
X59151848Y-74445895D01*
X59063730Y-74360487D01*
X58993487Y-74294730D01*
X58947072Y-74254661D01*
X58931544Y-74245098D01*
X58906261Y-74258545D01*
X58845789Y-74296320D01*
X58756008Y-74354580D01*
X58642797Y-74429479D01*
X58512036Y-74517170D01*
X58413400Y-74583978D01*
X57915043Y-74922857D01*
X57499629Y-74751610D01*
X57084216Y-74580363D01*
X56971634Y-73983172D01*
X56859051Y-73385980D01*
X55616048Y-73385980D01*
X55503465Y-73983172D01*
%TD*%
M02*
