%TF.GenerationSoftware,KiCad,Pcbnew,(5.1.8-0-10_14)*%
%TF.CreationDate,2020-11-27T15:46:17+02:00*%
%TF.ProjectId,SH-RPi,53482d52-5069-42e6-9b69-6361645f7063,revL*%
%TF.SameCoordinates,Original*%
%TF.FileFunction,Soldermask,Bot*%
%TF.FilePolarity,Negative*%
%FSLAX46Y46*%
G04 Gerber Fmt 4.6, Leading zero omitted, Abs format (unit mm)*
G04 Created by KiCad (PCBNEW (5.1.8-0-10_14)) date 2020-11-27 15:46:17*
%MOMM*%
%LPD*%
G01*
G04 APERTURE LIST*
%ADD10O,1.800000X3.600000*%
%ADD11C,2.000000*%
%ADD12C,6.200000*%
%ADD13R,1.700000X1.700000*%
%ADD14O,1.700000X1.700000*%
G04 APERTURE END LIST*
D10*
%TO.C,J701*%
X37719000Y-66040000D03*
X33909000Y-66040000D03*
G36*
G01*
X29199000Y-67590000D02*
X29199000Y-64490000D01*
G75*
G02*
X29449000Y-64240000I250000J0D01*
G01*
X30749000Y-64240000D01*
G75*
G02*
X30999000Y-64490000I0J-250000D01*
G01*
X30999000Y-67590000D01*
G75*
G02*
X30749000Y-67840000I-250000J0D01*
G01*
X29449000Y-67840000D01*
G75*
G02*
X29199000Y-67590000I0J250000D01*
G01*
G37*
%TD*%
%TO.C,J501*%
X55310000Y-66000000D03*
G36*
G01*
X50600000Y-67550000D02*
X50600000Y-64450000D01*
G75*
G02*
X50850000Y-64200000I250000J0D01*
G01*
X52150000Y-64200000D01*
G75*
G02*
X52400000Y-64450000I0J-250000D01*
G01*
X52400000Y-67550000D01*
G75*
G02*
X52150000Y-67800000I-250000J0D01*
G01*
X50850000Y-67800000D01*
G75*
G02*
X50600000Y-67550000I0J250000D01*
G01*
G37*
%TD*%
D11*
%TO.C,TP302*%
X32893000Y-54038500D03*
%TD*%
%TO.C,TP802*%
X64262000Y-52324000D03*
%TD*%
%TO.C,TP301*%
X59753500Y-46672500D03*
%TD*%
D12*
%TO.C,*%
X81691000Y-21729200D03*
%TD*%
%TO.C,*%
X81691000Y-70729200D03*
%TD*%
%TO.C,*%
X23691000Y-70729200D03*
%TD*%
%TO.C,*%
X23691000Y-21729200D03*
%TD*%
D13*
%TO.C,J601*%
X38740000Y-33160000D03*
D14*
X38740000Y-30620000D03*
X41280000Y-33160000D03*
X41280000Y-30620000D03*
X43820000Y-33160000D03*
X43820000Y-30620000D03*
X46360000Y-33160000D03*
X46360000Y-30620000D03*
X48900000Y-33160000D03*
X48900000Y-30620000D03*
X51440000Y-33160000D03*
X51440000Y-30620000D03*
X53980000Y-33160000D03*
X53980000Y-30620000D03*
%TD*%
D13*
%TO.C,J702*%
X28573000Y-23012400D03*
D14*
X28573000Y-20472400D03*
X31113000Y-23012400D03*
X31113000Y-20472400D03*
X33653000Y-23012400D03*
X33653000Y-20472400D03*
X36193000Y-23012400D03*
X36193000Y-20472400D03*
X38733000Y-23012400D03*
X38733000Y-20472400D03*
X41273000Y-23012400D03*
X41273000Y-20472400D03*
X43813000Y-23012400D03*
X43813000Y-20472400D03*
X46353000Y-23012400D03*
X46353000Y-20472400D03*
X48893000Y-23012400D03*
X48893000Y-20472400D03*
X51433000Y-23012400D03*
X51433000Y-20472400D03*
X53973000Y-23012400D03*
X53973000Y-20472400D03*
X56513000Y-23012400D03*
X56513000Y-20472400D03*
X59053000Y-23012400D03*
X59053000Y-20472400D03*
X61593000Y-23012400D03*
X61593000Y-20472400D03*
X64133000Y-23012400D03*
X64133000Y-20472400D03*
X66673000Y-23012400D03*
X66673000Y-20472400D03*
X69213000Y-23012400D03*
X69213000Y-20472400D03*
X71753000Y-23012400D03*
X71753000Y-20472400D03*
X74293000Y-23012400D03*
X74293000Y-20472400D03*
X76833000Y-23012400D03*
X76833000Y-20472400D03*
%TD*%
%TO.C,J801*%
G36*
G01*
X62854000Y-67590000D02*
X62854000Y-64490000D01*
G75*
G02*
X63104000Y-64240000I250000J0D01*
G01*
X64404000Y-64240000D01*
G75*
G02*
X64654000Y-64490000I0J-250000D01*
G01*
X64654000Y-67590000D01*
G75*
G02*
X64404000Y-67840000I-250000J0D01*
G01*
X63104000Y-67840000D01*
G75*
G02*
X62854000Y-67590000I0J250000D01*
G01*
G37*
D10*
X67564000Y-66040000D03*
X71374000Y-66040000D03*
X75184000Y-66040000D03*
%TD*%
D13*
%TO.C,SW201*%
X24638000Y-65532000D03*
D14*
X24638000Y-62992000D03*
%TD*%
D11*
%TO.C,TP501*%
X40640000Y-60345000D03*
%TD*%
M02*
