M48
; DRILL file {KiCad (5.1.9-0-10_14)} date Monday, February 08, 2021 at 07:19:04 PM
; FORMAT={-:-/ absolute / inch / decimal}
; #@! TF.CreationDate,2021-02-08T19:19:04+02:00
; #@! TF.GenerationSoftware,Kicad,Pcbnew,(5.1.9-0-10_14)
; #@! TF.FileFunction,Plated,1,4,PTH
FMAT,2
INCH
T1C0.0118
T2C0.0157
T3C0.0236
T4C0.0374
T5C0.0394
T6C0.0472
%
G90
G05
T1
X2.7736Y-2.7244
X2.7736Y-2.7756
X2.8248Y-2.7244
X2.8248Y-2.7756
X2.876Y-2.7244
X2.876Y-2.7756
X2.9272Y-2.7244
X2.9272Y-2.7756
T2
X0.78Y-1.33
X0.78Y-1.69
X0.78Y-1.84
X0.78Y-2.23
X0.78Y-2.645
X0.78Y-3.13
X0.78Y-3.26
X0.8013Y-1.4666
X0.8013Y-1.9616
X0.8029Y-2.42
X0.8029Y-2.9
X0.8302Y-2.1215
X0.88Y-3.35
X0.895Y-1.545
X0.895Y-1.82
X0.895Y-2.185
X0.895Y-2.475
X0.895Y-2.745
X0.895Y-2.985
X0.9Y-1.23
X0.955Y-1.3713
X0.97Y-3.15
X1.01Y-3.35
X1.06Y-1.23
X1.14Y-3.35
X1.21Y-1.23
X1.22Y-1.3713
X1.26Y-3.155
X1.28Y-3.35
X1.38Y-1.23
X1.42Y-3.35
X1.4567Y-3.2795
X1.46Y-1.3663
X1.4882Y-1.3071
X1.52Y-3.28
X1.53Y-1.23
X1.5394Y-1.4646
X1.5394Y-1.7008
X1.5394Y-1.878
X1.54Y-1.55
X1.54Y-2.105
X1.54Y-2.335
X1.54Y-2.535
X1.54Y-2.71
X1.54Y-2.89
X1.54Y-3.0
X1.565Y-1.7421
X1.57Y-3.35
X1.5807Y-1.6102
X1.5945Y-2.565
X1.6004Y-1.4144
X1.6181Y-1.7106
X1.6191Y-1.2254
X1.6201Y-2.6073
X1.6234Y-1.9802
X1.626Y-1.9035
X1.6304Y-2.0743
X1.6319Y-2.1181
X1.6417Y-1.6496
X1.6535Y-2.252
X1.6545Y-2.4341
X1.6594Y-2.3494
X1.6693Y-2.6988
X1.6697Y-1.4854
X1.6831Y-1.7283
X1.6831Y-1.9331
X1.689Y-1.8858
X1.6909Y-1.5906
X1.6909Y-1.6555
X1.6909Y-1.624
X1.7071Y-1.4854
X1.7213Y-2.5134
X1.7225Y-2.6594
X1.7258Y-2.6963
X1.7323Y-2.4193
X1.7323Y-2.4498
X1.7392Y-1.4675
X1.7598Y-2.6319
X1.7854Y-2.7539
X1.7894Y-2.1358
X1.7933Y-2.5354
X1.7933Y-2.6319
X1.7963Y-2.0305
X1.8195Y-1.7839
X1.8195Y-1.8984
X1.8228Y-1.2343
X1.8228Y-3.1535
X1.8295Y-1.5964
X1.8317Y-2.0531
X1.8317Y-2.0837
X1.8366Y-2.1673
X1.8366Y-2.1978
X1.8366Y-2.2323
X1.8366Y-2.2667
X1.8366Y-2.3022
X1.8366Y-2.3366
X1.8583Y-3.3504
X1.895Y-1.69
X1.8957Y-1.5177
X1.8986Y-2.0217
X1.8995Y-1.5764
X1.9035Y-1.9104
X1.92Y-1.74
X1.9374Y-1.583
X1.9395Y-1.8885
X1.9508Y-1.2244
X1.9537Y-2.0728
X1.9547Y-1.9577
X1.955Y-1.71
X1.9646Y-3.3504
X1.9795Y-1.5764
X1.9911Y-1.7185
X1.9963Y-1.891
X2.0079Y-3.2776
X2.015Y-1.76
X2.0197Y-1.5354
X2.0276Y-3.0
X2.0276Y-3.0295
X2.0295Y-1.5764
X2.0305Y-1.998
X2.0453Y-3.3209
X2.0502Y-1.7087
X2.055Y-1.9164
X2.0551Y-2.9193
X2.0551Y-2.9567
X2.0571Y-1.7628
X2.0595Y-1.4964
X2.065Y-3.2382
X2.0695Y-1.5714
X2.0817Y-2.7205
X2.0827Y-1.997
X2.0827Y-3.3209
X2.0876Y-3.2057
X2.0895Y-1.8864
X2.1095Y-1.9139
X2.1095Y-1.9479
X2.1132Y-2.4951
X2.128Y-2.0728
X2.1295Y-1.5764
X2.1319Y-2.6654
X2.1339Y-2.5492
X2.1339Y-2.6043
X2.1395Y-1.8964
X2.1417Y-3.3504
X2.1445Y-1.9614
X2.1575Y-1.2244
X2.1575Y-3.1535
X2.1645Y-1.5364
X2.1654Y-2.2726
X2.1673Y-2.3799
X2.1683Y-2.312
X2.1772Y-2.439
X2.1772Y-2.498
X2.1795Y-1.5764
X2.186Y-2.7431
X2.189Y-3.1752
X2.1895Y-1.8964
X2.1969Y-3.3514
X2.1995Y-1.9664
X2.2067Y-2.3474
X2.2146Y-2.8366
X2.2215Y-2.1457
X2.222Y-1.7364
X2.2254Y-2.2254
X2.2333Y-1.9429
X2.2345Y-1.5064
X2.2352Y-2.3406
X2.2402Y-3.3504
X2.252Y-3.2352
X2.252Y-3.2736
X2.252Y-3.3091
X2.2579Y-2.0226
X2.2776Y-2.7421
X2.3055Y-2.5039
X2.3169Y-3.1437
X2.3219Y-2.3278
X2.3228Y-2.2441
X2.3287Y-1.9557
X2.3543Y-1.2244
X2.3573Y-2.3031
X2.3602Y-3.3504
X2.3622Y-2.4646
X2.3681Y-3.189
X2.387Y-1.5114
X2.3917Y-2.8583
X2.4134Y-2.2638
X2.4232Y-2.5138
X2.4331Y-2.8583
X2.4547Y-2.9331
X2.4567Y-2.8898
X2.4567Y-2.9744
X2.4567Y-3.0472
X2.4685Y-3.3504
X2.4715Y-3.1634
X2.5089Y-3.1407
X2.5098Y-2.7441
X2.5142Y-2.264
X2.5246Y-2.812
X2.5246Y-3.251
X2.5295Y-2.8484
X2.5354Y-2.4724
X2.5364Y-2.3337
X2.5413Y-2.4134
X2.5413Y-2.4134
X2.5561Y-1.9577
X2.561Y-1.2244
X2.567Y-1.5114
X2.5738Y-3.3573
X2.5866Y-3.0217
X2.587Y-1.8489
X2.5895Y-1.6164
X2.5955Y-2.4724
X2.5965Y-2.3337
X2.5994Y-2.4134
X2.6053Y-2.7451
X2.6063Y-2.7854
X2.6083Y-2.8228
X2.6083Y-2.9035
X2.6083Y-3.0965
X2.6112Y-3.1398
X2.6299Y-2.8616
X2.657Y-1.5164
X2.667Y-1.8664
X2.6673Y-2.2913
X2.6695Y-1.5989
X2.6713Y-2.8917
X2.6791Y-2.5197
X2.6949Y-3.1457
X2.7047Y-2.8917
X2.7185Y-3.3504
X2.7215Y-2.7185
X2.7215Y-2.752
X2.7215Y-2.7835
X2.7244Y-2.3219
X2.7283Y-2.9114
X2.747Y-1.5164
X2.748Y-1.2244
X2.7545Y-1.8814
X2.757Y-1.5814
X2.7602Y-2.3238
X2.7736Y-2.9055
X2.7874Y-3.0157
X2.7972Y-2.4429
X2.8145Y-1.9139
X2.8189Y-2.3711
X2.8268Y-3.186
X2.8307Y-2.5098
X2.8484Y-2.5827
X2.8602Y-2.3238
X2.872Y-2.9606
X2.876Y-3.3504
X2.8888Y-1.9567
X2.8898Y-1.5226
X2.9242Y-3.1093
X2.947Y-1.4764
X2.9528Y-1.6309
X2.9547Y-1.2244
X2.9567Y-2.0118
X2.9665Y-2.4941
X2.9685Y-1.7953
X2.9705Y-2.6516
X2.9764Y-3.0138
X2.9813Y-2.7185
X2.9813Y-2.752
X2.9813Y-2.7844
X2.9833Y-2.6083
X2.9907Y-1.6669
X2.997Y-1.5714
X3.002Y-2.9232
X3.0039Y-1.9252
X3.0138Y-2.8346
X3.0207Y-1.5157
X3.022Y-1.4489
X3.0383Y-2.697
X3.04Y-3.37
X3.0531Y-2.8189
X3.0551Y-2.9449
X3.0551Y-3.0866
X3.063Y-2.6516
X3.0645Y-2.0114
X3.0669Y-1.7953
X3.0669Y-1.8858
X3.0925Y-2.563
X3.0984Y-2.2677
X3.1063Y-2.0472
X3.107Y-1.5789
X3.1181Y-1.7953
X3.126Y-1.8898
X3.137Y-1.4939
X3.1395Y-1.6464
X3.1417Y-1.2244
X3.1457Y-2.0984
X3.162Y-1.7014
X3.1654Y-1.8819
X3.19Y-2.1624
X3.19Y-3.09
X3.19Y-3.23
X3.1909Y-3.3701
X3.1945Y-1.5739
X3.2008Y-2.7008
X3.2116Y-2.3425
X3.2244Y-2.9508
X3.242Y-1.6464
X3.2466Y-1.7325
X3.2525Y-1.9324
X3.2549Y-2.1073
X3.262Y-1.4764
X3.2677Y-2.2913
X3.2835Y-1.813
X3.2845Y-1.5664
X3.2874Y-2.1732
X3.2881Y-2.0752
X3.297Y-3.101
X3.304Y-2.2449
X3.3061Y-2.4882
X3.3081Y-1.8789
X3.3091Y-3.3701
X3.317Y-2.325
X3.3224Y-2.5736
X3.337Y-1.8214
X3.3504Y-2.1746
X3.3595Y-2.6189
X3.3645Y-1.7139
X3.3681Y-1.2244
X3.3745Y-1.5439
X3.3745Y-1.6114
X3.3745Y-1.9014
X3.393Y-2.9311
X3.4104Y-3.2057
X3.417Y-1.8314
X3.4331Y-1.4409
X3.439Y-2.5358
X3.4495Y-1.6339
X3.4528Y-2.122
X3.467Y-1.5539
X3.4744Y-2.7205
X3.4764Y-3.3701
X3.4803Y-1.6339
X3.4843Y-1.4409
X3.4896Y-1.7024
X3.502Y-2.9006
X3.5224Y-2.5386
X3.5295Y-1.9014
X3.5394Y-2.0591
X3.5409Y-2.5937
X3.554Y-2.1699
X3.557Y-1.8289
X3.5605Y-1.9929
X3.5626Y-2.4874
X3.565Y-1.2244
X3.5669Y-1.6339
X3.5768Y-3.249
X3.5807Y-2.2421
X3.5829Y-1.7024
X3.5917Y-2.5988
X3.6004Y-2.3524
X3.6033Y-3.0187
X3.6102Y-3.1289
X3.6378Y-2.0728
X3.6395Y-1.9764
X3.6407Y-1.8947
X3.6437Y-3.3701
X3.6476Y-2.2165
X3.6491Y-2.8016
X3.652Y-1.7439
X3.6718Y-1.5256
X3.6718Y-1.6056
X3.692Y-2.9689
X3.6978Y-2.0433
X3.7008Y-1.7904
X3.702Y-1.9364
X3.7024Y-2.3864
X3.7295Y-1.5564
X3.732Y-1.4814
X3.737Y-2.4514
X3.752Y-1.2244
X3.753Y-2.8228
X3.757Y-1.6414
X3.7595Y-2.3689
X3.762Y-2.0064
X3.7638Y-2.252
X3.7736Y-2.0738
X3.7746Y-1.8583
X3.7894Y-1.6988
X3.7894Y-1.7776
X3.811Y-3.3701
X3.827Y-2.8714
X3.8445Y-2.3914
X3.8445Y-3.0089
X3.847Y-2.7389
X3.8681Y-1.8622
X3.872Y-2.9331
X3.877Y-2.4564
X3.8799Y-1.4213
X3.8799Y-3.1535
X3.8868Y-2.0394
X3.8898Y-1.2244
X3.8898Y-3.3701
X3.9203Y-1.688
X3.9488Y-2.7303
X3.9606Y-2.3425
X3.9783Y-1.8593
X3.9803Y-2.0689
X3.9921Y-2.2106
X4.0118Y-1.7589
X4.0236Y-2.0354
X4.0335Y-1.9016
X4.0364Y-2.8425
X4.0866Y-1.4606
X4.0866Y-1.8543
X4.0866Y-2.248
X4.0866Y-2.4055
X4.0866Y-2.7303
X4.0965Y-2.0512
X4.0965Y-2.8386
X4.0965Y-2.9567
X4.0965Y-3.1437
X4.0995Y-1.6575
T3
X1.7323Y-2.6004
X1.8327Y-1.6476
X1.8395Y-1.4864
X1.8543Y-2.376
X2.0394Y-2.8228
X2.3484Y-2.8051
X2.561Y-2.9232
X3.1839Y-1.803
X3.2455Y-2.7524
X3.2455Y-2.9098
X3.2947Y-2.7524
X3.2947Y-2.9098
X3.5551Y-2.6614
X3.6594Y-2.3898
X3.7395Y-2.7464
X3.9213Y-2.8268
X3.9595Y-2.7795
X4.0495Y-2.3364
T4
X3.45Y-3.08
X3.5484Y-3.08
X3.6469Y-3.08
X3.7453Y-3.08
T5
X1.6535Y-2.7898
X1.6535Y-2.8898
X1.9044Y-1.2824
X1.9044Y-1.3824
X2.0044Y-1.2824
X2.0044Y-1.3824
X2.1044Y-1.2824
X2.1044Y-1.3824
X2.2044Y-1.2824
X2.2044Y-1.3824
X2.3044Y-1.2824
X2.3044Y-1.3824
X2.3047Y-1.6819
X2.3047Y-1.7819
X2.4044Y-1.2824
X2.4044Y-1.3824
X2.4047Y-1.6819
X2.4047Y-1.7819
X2.5044Y-1.2824
X2.5044Y-1.3824
X2.5047Y-1.6819
X2.5047Y-1.7819
X2.6044Y-1.2824
X2.6044Y-1.3824
X2.6047Y-1.6819
X2.6047Y-1.7819
X2.7044Y-1.2824
X2.7044Y-1.3824
X2.7047Y-1.6819
X2.7047Y-1.7819
X2.73Y-3.08
X2.8044Y-1.2824
X2.8044Y-1.3824
X2.8047Y-1.6819
X2.8047Y-1.7819
X2.8284Y-3.08
X2.9044Y-1.2824
X2.9044Y-1.3824
X2.9047Y-1.6819
X2.9047Y-1.7819
X3.0044Y-1.2824
X3.0044Y-1.3824
X3.01Y-3.18
X3.01Y-3.28
X3.0433Y-2.1047
X3.0433Y-2.2047
X3.1044Y-1.2824
X3.1044Y-1.3824
X3.2044Y-1.2824
X3.2044Y-1.3824
X3.235Y-3.18
X3.235Y-3.28
X3.3044Y-1.2824
X3.3044Y-1.3824
X3.4044Y-1.2824
X3.4044Y-1.3824
X3.5044Y-1.2824
X3.5044Y-1.3824
X3.6044Y-1.2824
X3.6044Y-1.3824
X3.7044Y-1.2824
X3.7044Y-1.3824
X3.8044Y-1.2824
X3.8044Y-1.3824
T6
X1.0647Y-3.215
X1.36Y-3.215
T0
M30
