%TF.GenerationSoftware,KiCad,Pcbnew,(5.1.9-0-10_14)*%
%TF.CreationDate,2021-02-08T19:19:02+02:00*%
%TF.ProjectId,SH-RPi,53482d52-5069-42e6-9b69-6361645f7063,revM*%
%TF.SameCoordinates,Original*%
%TF.FileFunction,Legend,Top*%
%TF.FilePolarity,Positive*%
%FSLAX46Y46*%
G04 Gerber Fmt 4.6, Leading zero omitted, Abs format (unit mm)*
G04 Created by KiCad (PCBNEW (5.1.9-0-10_14)) date 2021-02-08 19:19:02*
%MOMM*%
%LPD*%
G01*
G04 APERTURE LIST*
%ADD10C,0.300000*%
%ADD11C,0.200000*%
%ADD12C,0.153000*%
%ADD13C,0.375000*%
%ADD14C,0.120000*%
%ADD15C,0.350000*%
%ADD16C,0.150000*%
%ADD17C,0.250000*%
%ADD18C,0.100000*%
G04 APERTURE END LIST*
D10*
X97657142Y-57528571D02*
X98514285Y-57528571D01*
X98085714Y-59028571D02*
X98085714Y-57528571D01*
X98871428Y-57528571D02*
X99871428Y-59028571D01*
X99871428Y-57528571D02*
X98871428Y-59028571D01*
X89450000Y-59028571D02*
X88950000Y-58314285D01*
X88592857Y-59028571D02*
X88592857Y-57528571D01*
X89164285Y-57528571D01*
X89307142Y-57600000D01*
X89378571Y-57671428D01*
X89450000Y-57814285D01*
X89450000Y-58028571D01*
X89378571Y-58171428D01*
X89307142Y-58242857D01*
X89164285Y-58314285D01*
X88592857Y-58314285D01*
X89950000Y-57528571D02*
X90950000Y-59028571D01*
X90950000Y-57528571D02*
X89950000Y-59028571D01*
D11*
X78883285Y-76127428D02*
X78840428Y-76170285D01*
X78711857Y-76213142D01*
X78626142Y-76213142D01*
X78497571Y-76170285D01*
X78411857Y-76084571D01*
X78369000Y-75998857D01*
X78326142Y-75827428D01*
X78326142Y-75698857D01*
X78369000Y-75527428D01*
X78411857Y-75441714D01*
X78497571Y-75356000D01*
X78626142Y-75313142D01*
X78711857Y-75313142D01*
X78840428Y-75356000D01*
X78883285Y-75398857D01*
X79226142Y-75956000D02*
X79654714Y-75956000D01*
X79140428Y-76213142D02*
X79440428Y-75313142D01*
X79740428Y-76213142D01*
X80040428Y-76213142D02*
X80040428Y-75313142D01*
X80554714Y-76213142D01*
X80554714Y-75313142D01*
X78154714Y-77763142D02*
X78154714Y-76863142D01*
X78497571Y-76863142D01*
X78583285Y-76906000D01*
X78626142Y-76948857D01*
X78669000Y-77034571D01*
X78669000Y-77163142D01*
X78626142Y-77248857D01*
X78583285Y-77291714D01*
X78497571Y-77334571D01*
X78154714Y-77334571D01*
X78969000Y-76863142D02*
X79183285Y-77763142D01*
X79354714Y-77120285D01*
X79526142Y-77763142D01*
X79740428Y-76863142D01*
X80597571Y-77763142D02*
X80297571Y-77334571D01*
X80083285Y-77763142D02*
X80083285Y-76863142D01*
X80426142Y-76863142D01*
X80511857Y-76906000D01*
X80554714Y-76948857D01*
X80597571Y-77034571D01*
X80597571Y-77163142D01*
X80554714Y-77248857D01*
X80511857Y-77291714D01*
X80426142Y-77334571D01*
X80083285Y-77334571D01*
D12*
X41415476Y-75350000D02*
X41339285Y-75311904D01*
X41225000Y-75311904D01*
X41110714Y-75350000D01*
X41034523Y-75426190D01*
X40996428Y-75502380D01*
X40958333Y-75654761D01*
X40958333Y-75769047D01*
X40996428Y-75921428D01*
X41034523Y-75997619D01*
X41110714Y-76073809D01*
X41225000Y-76111904D01*
X41301190Y-76111904D01*
X41415476Y-76073809D01*
X41453571Y-76035714D01*
X41453571Y-75769047D01*
X41301190Y-75769047D01*
X41796428Y-76111904D02*
X41796428Y-75311904D01*
X42253571Y-76111904D01*
X42253571Y-75311904D01*
X42634523Y-76111904D02*
X42634523Y-75311904D01*
X42825000Y-75311904D01*
X42939285Y-75350000D01*
X43015476Y-75426190D01*
X43053571Y-75502380D01*
X43091666Y-75654761D01*
X43091666Y-75769047D01*
X43053571Y-75921428D01*
X43015476Y-75997619D01*
X42939285Y-76073809D01*
X42825000Y-76111904D01*
X42634523Y-76111904D01*
X78176190Y-80985404D02*
X78366666Y-81785404D01*
X78519047Y-81213976D01*
X78671428Y-81785404D01*
X78861904Y-80985404D01*
X79166666Y-81785404D02*
X79166666Y-81252071D01*
X79166666Y-80985404D02*
X79128571Y-81023500D01*
X79166666Y-81061595D01*
X79204761Y-81023500D01*
X79166666Y-80985404D01*
X79166666Y-81061595D01*
X79547619Y-81785404D02*
X79547619Y-81252071D01*
X79547619Y-81404452D02*
X79585714Y-81328261D01*
X79623809Y-81290166D01*
X79700000Y-81252071D01*
X79776190Y-81252071D01*
X80347619Y-81747309D02*
X80271428Y-81785404D01*
X80119047Y-81785404D01*
X80042857Y-81747309D01*
X80004761Y-81671119D01*
X80004761Y-81366357D01*
X80042857Y-81290166D01*
X80119047Y-81252071D01*
X80271428Y-81252071D01*
X80347619Y-81290166D01*
X80385714Y-81366357D01*
X80385714Y-81442547D01*
X80004761Y-81518738D01*
X78671428Y-83138404D02*
X78290476Y-83138404D01*
X78290476Y-82338404D01*
X78938095Y-83138404D02*
X78938095Y-82605071D01*
X78938095Y-82338404D02*
X78900000Y-82376500D01*
X78938095Y-82414595D01*
X78976190Y-82376500D01*
X78938095Y-82338404D01*
X78938095Y-82414595D01*
X79319047Y-82605071D02*
X79319047Y-83138404D01*
X79319047Y-82681261D02*
X79357142Y-82643166D01*
X79433333Y-82605071D01*
X79547619Y-82605071D01*
X79623809Y-82643166D01*
X79661904Y-82719357D01*
X79661904Y-83138404D01*
X80042857Y-83138404D02*
X80042857Y-82338404D01*
X80119047Y-82833642D02*
X80347619Y-83138404D01*
X80347619Y-82605071D02*
X80042857Y-82909833D01*
X73690476Y-53100000D02*
X73614285Y-53061904D01*
X73500000Y-53061904D01*
X73385714Y-53100000D01*
X73309523Y-53176190D01*
X73271428Y-53252380D01*
X73233333Y-53404761D01*
X73233333Y-53519047D01*
X73271428Y-53671428D01*
X73309523Y-53747619D01*
X73385714Y-53823809D01*
X73500000Y-53861904D01*
X73576190Y-53861904D01*
X73690476Y-53823809D01*
X73728571Y-53785714D01*
X73728571Y-53519047D01*
X73576190Y-53519047D01*
X74071428Y-53861904D02*
X74071428Y-53061904D01*
X74528571Y-53861904D01*
X74528571Y-53061904D01*
X74909523Y-53861904D02*
X74909523Y-53061904D01*
X75100000Y-53061904D01*
X75214285Y-53100000D01*
X75290476Y-53176190D01*
X75328571Y-53252380D01*
X75366666Y-53404761D01*
X75366666Y-53519047D01*
X75328571Y-53671428D01*
X75290476Y-53747619D01*
X75214285Y-53823809D01*
X75100000Y-53861904D01*
X74909523Y-53861904D01*
X73576190Y-56361904D02*
X73576190Y-55561904D01*
X73957142Y-56361904D02*
X73957142Y-55561904D01*
X74414285Y-56361904D01*
X74414285Y-55561904D01*
X74680952Y-55561904D02*
X75138095Y-55561904D01*
X74909523Y-56361904D02*
X74909523Y-55561904D01*
D13*
X77443571Y-79157142D02*
X78586428Y-79157142D01*
X78162142Y-85609428D02*
X78162142Y-84466571D01*
X78733571Y-85038000D02*
X77590714Y-85038000D01*
D11*
X77700000Y-83300000D02*
X80900000Y-83300000D01*
X77700000Y-80800000D02*
X80900000Y-80800000D01*
D14*
X90447619Y-42395809D02*
X90561904Y-42433904D01*
X90752380Y-42433904D01*
X90828571Y-42395809D01*
X90866666Y-42357714D01*
X90904761Y-42281523D01*
X90904761Y-42205333D01*
X90866666Y-42129142D01*
X90828571Y-42091047D01*
X90752380Y-42052952D01*
X90600000Y-42014857D01*
X90523809Y-41976761D01*
X90485714Y-41938666D01*
X90447619Y-41862476D01*
X90447619Y-41786285D01*
X90485714Y-41710095D01*
X90523809Y-41672000D01*
X90600000Y-41633904D01*
X90790476Y-41633904D01*
X90904761Y-41672000D01*
X91704761Y-42357714D02*
X91666666Y-42395809D01*
X91552380Y-42433904D01*
X91476190Y-42433904D01*
X91361904Y-42395809D01*
X91285714Y-42319619D01*
X91247619Y-42243428D01*
X91209523Y-42091047D01*
X91209523Y-41976761D01*
X91247619Y-41824380D01*
X91285714Y-41748190D01*
X91361904Y-41672000D01*
X91476190Y-41633904D01*
X91552380Y-41633904D01*
X91666666Y-41672000D01*
X91704761Y-41710095D01*
X92428571Y-42433904D02*
X92047619Y-42433904D01*
X92047619Y-41633904D01*
X88128571Y-42395809D02*
X88242857Y-42433904D01*
X88433333Y-42433904D01*
X88509523Y-42395809D01*
X88547619Y-42357714D01*
X88585714Y-42281523D01*
X88585714Y-42205333D01*
X88547619Y-42129142D01*
X88509523Y-42091047D01*
X88433333Y-42052952D01*
X88280952Y-42014857D01*
X88204761Y-41976761D01*
X88166666Y-41938666D01*
X88128571Y-41862476D01*
X88128571Y-41786285D01*
X88166666Y-41710095D01*
X88204761Y-41672000D01*
X88280952Y-41633904D01*
X88471428Y-41633904D01*
X88585714Y-41672000D01*
X88928571Y-42433904D02*
X88928571Y-41633904D01*
X89119047Y-41633904D01*
X89233333Y-41672000D01*
X89309523Y-41748190D01*
X89347619Y-41824380D01*
X89385714Y-41976761D01*
X89385714Y-42091047D01*
X89347619Y-42243428D01*
X89309523Y-42319619D01*
X89233333Y-42395809D01*
X89119047Y-42433904D01*
X88928571Y-42433904D01*
X89690476Y-42205333D02*
X90071428Y-42205333D01*
X89614285Y-42433904D02*
X89880952Y-41633904D01*
X90147619Y-42433904D01*
X54737000Y-33782000D02*
X54737000Y-31242000D01*
X52197000Y-33782000D02*
X54737000Y-33782000D01*
X52197000Y-31242000D02*
X52197000Y-33782000D01*
X59817000Y-33909000D02*
X59817000Y-36449000D01*
X57277000Y-33909000D02*
X59817000Y-33909000D01*
X57277000Y-36449000D02*
X57277000Y-33909000D01*
X62357000Y-33782000D02*
X62357000Y-31242000D01*
X64897000Y-33782000D02*
X62357000Y-33782000D01*
X64897000Y-31242000D02*
X64897000Y-33782000D01*
X72517000Y-33782000D02*
X72517000Y-31242000D01*
X69977000Y-33782000D02*
X72517000Y-33782000D01*
X69977000Y-31242000D02*
X69977000Y-33782000D01*
X80137000Y-33909000D02*
X80137000Y-36449000D01*
X77597000Y-33909000D02*
X80137000Y-33909000D01*
X77597000Y-36449000D02*
X77597000Y-33909000D01*
X82677000Y-33782000D02*
X82677000Y-31242000D01*
X85217000Y-33782000D02*
X82677000Y-33782000D01*
X85217000Y-31369000D02*
X85217000Y-33782000D01*
X90297000Y-33782000D02*
X90297000Y-31242000D01*
X87757000Y-33782000D02*
X90297000Y-33782000D01*
X87757000Y-31242000D02*
X87757000Y-33782000D01*
X95377000Y-33909000D02*
X97917000Y-33909000D01*
X95377000Y-36449000D02*
X95377000Y-33909000D01*
D12*
X99752380Y-78461904D02*
X100209523Y-78461904D01*
X99980952Y-79261904D02*
X99980952Y-78461904D01*
X100476190Y-78842857D02*
X100742857Y-78842857D01*
X100857142Y-79261904D02*
X100476190Y-79261904D01*
X100476190Y-78461904D01*
X100857142Y-78461904D01*
X101657142Y-79261904D02*
X101390476Y-78880952D01*
X101200000Y-79261904D02*
X101200000Y-78461904D01*
X101504761Y-78461904D01*
X101580952Y-78500000D01*
X101619047Y-78538095D01*
X101657142Y-78614285D01*
X101657142Y-78728571D01*
X101619047Y-78804761D01*
X101580952Y-78842857D01*
X101504761Y-78880952D01*
X101200000Y-78880952D01*
X102000000Y-79261904D02*
X102000000Y-78461904D01*
X102266666Y-79033333D01*
X102533333Y-78461904D01*
X102533333Y-79261904D01*
D14*
X86722666Y-42357714D02*
X86684571Y-42395809D01*
X86570285Y-42433904D01*
X86494095Y-42433904D01*
X86379809Y-42395809D01*
X86303619Y-42319619D01*
X86265523Y-42243428D01*
X86227428Y-42091047D01*
X86227428Y-41976761D01*
X86265523Y-41824380D01*
X86303619Y-41748190D01*
X86379809Y-41672000D01*
X86494095Y-41633904D01*
X86570285Y-41633904D01*
X86684571Y-41672000D01*
X86722666Y-41710095D01*
X87027428Y-42395809D02*
X87141714Y-42433904D01*
X87332190Y-42433904D01*
X87408380Y-42395809D01*
X87446476Y-42357714D01*
X87484571Y-42281523D01*
X87484571Y-42205333D01*
X87446476Y-42129142D01*
X87408380Y-42091047D01*
X87332190Y-42052952D01*
X87179809Y-42014857D01*
X87103619Y-41976761D01*
X87065523Y-41938666D01*
X87027428Y-41862476D01*
X87027428Y-41786285D01*
X87065523Y-41710095D01*
X87103619Y-41672000D01*
X87179809Y-41633904D01*
X87370285Y-41633904D01*
X87484571Y-41672000D01*
X83846190Y-42433904D02*
X83846190Y-41633904D01*
X84227142Y-42433904D02*
X84227142Y-41633904D01*
X84684285Y-42433904D01*
X84684285Y-41633904D01*
X84950952Y-41633904D02*
X85408095Y-41633904D01*
X85179523Y-42433904D02*
X85179523Y-41633904D01*
X81255428Y-42395809D02*
X81369714Y-42433904D01*
X81560190Y-42433904D01*
X81636380Y-42395809D01*
X81674476Y-42357714D01*
X81712571Y-42281523D01*
X81712571Y-42205333D01*
X81674476Y-42129142D01*
X81636380Y-42091047D01*
X81560190Y-42052952D01*
X81407809Y-42014857D01*
X81331619Y-41976761D01*
X81293523Y-41938666D01*
X81255428Y-41862476D01*
X81255428Y-41786285D01*
X81293523Y-41710095D01*
X81331619Y-41672000D01*
X81407809Y-41633904D01*
X81598285Y-41633904D01*
X81712571Y-41672000D01*
X82512571Y-42357714D02*
X82474476Y-42395809D01*
X82360190Y-42433904D01*
X82284000Y-42433904D01*
X82169714Y-42395809D01*
X82093523Y-42319619D01*
X82055428Y-42243428D01*
X82017333Y-42091047D01*
X82017333Y-41976761D01*
X82055428Y-41824380D01*
X82093523Y-41748190D01*
X82169714Y-41672000D01*
X82284000Y-41633904D01*
X82360190Y-41633904D01*
X82474476Y-41672000D01*
X82512571Y-41710095D01*
X82855428Y-42433904D02*
X82855428Y-41633904D01*
X83312571Y-42433904D02*
X82969714Y-41976761D01*
X83312571Y-41633904D02*
X82855428Y-42091047D01*
X79350380Y-42395809D02*
X79464666Y-42433904D01*
X79655142Y-42433904D01*
X79731333Y-42395809D01*
X79769428Y-42357714D01*
X79807523Y-42281523D01*
X79807523Y-42205333D01*
X79769428Y-42129142D01*
X79731333Y-42091047D01*
X79655142Y-42052952D01*
X79502761Y-42014857D01*
X79426571Y-41976761D01*
X79388476Y-41938666D01*
X79350380Y-41862476D01*
X79350380Y-41786285D01*
X79388476Y-41710095D01*
X79426571Y-41672000D01*
X79502761Y-41633904D01*
X79693238Y-41633904D01*
X79807523Y-41672000D01*
X80302761Y-41633904D02*
X80455142Y-41633904D01*
X80531333Y-41672000D01*
X80607523Y-41748190D01*
X80645619Y-41900571D01*
X80645619Y-42167238D01*
X80607523Y-42319619D01*
X80531333Y-42395809D01*
X80455142Y-42433904D01*
X80302761Y-42433904D01*
X80226571Y-42395809D01*
X80150380Y-42319619D01*
X80112285Y-42167238D01*
X80112285Y-41900571D01*
X80150380Y-41748190D01*
X80226571Y-41672000D01*
X80302761Y-41633904D01*
X77292952Y-42395809D02*
X77407238Y-42433904D01*
X77597714Y-42433904D01*
X77673904Y-42395809D01*
X77712000Y-42357714D01*
X77750095Y-42281523D01*
X77750095Y-42205333D01*
X77712000Y-42129142D01*
X77673904Y-42091047D01*
X77597714Y-42052952D01*
X77445333Y-42014857D01*
X77369142Y-41976761D01*
X77331047Y-41938666D01*
X77292952Y-41862476D01*
X77292952Y-41786285D01*
X77331047Y-41710095D01*
X77369142Y-41672000D01*
X77445333Y-41633904D01*
X77635809Y-41633904D01*
X77750095Y-41672000D01*
X78092952Y-42433904D02*
X78092952Y-41633904D01*
D11*
X85770142Y-79733857D02*
X85770142Y-80591000D01*
X85713000Y-80762428D01*
X85598714Y-80876714D01*
X85427285Y-80933857D01*
X85313000Y-80933857D01*
X86913000Y-80933857D02*
X86341571Y-80933857D01*
X86341571Y-79733857D01*
X87998714Y-80819571D02*
X87941571Y-80876714D01*
X87770142Y-80933857D01*
X87655857Y-80933857D01*
X87484428Y-80876714D01*
X87370142Y-80762428D01*
X87313000Y-80648142D01*
X87255857Y-80419571D01*
X87255857Y-80248142D01*
X87313000Y-80019571D01*
X87370142Y-79905285D01*
X87484428Y-79791000D01*
X87655857Y-79733857D01*
X87770142Y-79733857D01*
X87941571Y-79791000D01*
X87998714Y-79848142D01*
X88855857Y-79733857D02*
X88855857Y-80591000D01*
X88798714Y-80762428D01*
X88684428Y-80876714D01*
X88513000Y-80933857D01*
X88398714Y-80933857D01*
X89998714Y-80933857D02*
X89427285Y-80933857D01*
X89427285Y-79733857D01*
X91084428Y-80819571D02*
X91027285Y-80876714D01*
X90855857Y-80933857D01*
X90741571Y-80933857D01*
X90570142Y-80876714D01*
X90455857Y-80762428D01*
X90398714Y-80648142D01*
X90341571Y-80419571D01*
X90341571Y-80248142D01*
X90398714Y-80019571D01*
X90455857Y-79905285D01*
X90570142Y-79791000D01*
X90741571Y-79733857D01*
X90855857Y-79733857D01*
X91027285Y-79791000D01*
X91084428Y-79848142D01*
X91941571Y-79733857D02*
X91941571Y-80591000D01*
X91884428Y-80762428D01*
X91770142Y-80876714D01*
X91598714Y-80933857D01*
X91484428Y-80933857D01*
X93084428Y-80933857D02*
X92513000Y-80933857D01*
X92513000Y-79733857D01*
X94170142Y-80819571D02*
X94113000Y-80876714D01*
X93941571Y-80933857D01*
X93827285Y-80933857D01*
X93655857Y-80876714D01*
X93541571Y-80762428D01*
X93484428Y-80648142D01*
X93427285Y-80419571D01*
X93427285Y-80248142D01*
X93484428Y-80019571D01*
X93541571Y-79905285D01*
X93655857Y-79791000D01*
X93827285Y-79733857D01*
X93941571Y-79733857D01*
X94113000Y-79791000D01*
X94170142Y-79848142D01*
X95027285Y-79733857D02*
X95027285Y-80591000D01*
X94970142Y-80762428D01*
X94855857Y-80876714D01*
X94684428Y-80933857D01*
X94570142Y-80933857D01*
X96170142Y-80933857D02*
X95598714Y-80933857D01*
X95598714Y-79733857D01*
X97255857Y-80819571D02*
X97198714Y-80876714D01*
X97027285Y-80933857D01*
X96913000Y-80933857D01*
X96741571Y-80876714D01*
X96627285Y-80762428D01*
X96570142Y-80648142D01*
X96513000Y-80419571D01*
X96513000Y-80248142D01*
X96570142Y-80019571D01*
X96627285Y-79905285D01*
X96741571Y-79791000D01*
X96913000Y-79733857D01*
X97027285Y-79733857D01*
X97198714Y-79791000D01*
X97255857Y-79848142D01*
D15*
X48021547Y-53165476D02*
X48335833Y-53270238D01*
X48859642Y-53270238D01*
X49069166Y-53165476D01*
X49173928Y-53060714D01*
X49278690Y-52851190D01*
X49278690Y-52641666D01*
X49173928Y-52432142D01*
X49069166Y-52327380D01*
X48859642Y-52222619D01*
X48440595Y-52117857D01*
X48231071Y-52013095D01*
X48126309Y-51908333D01*
X48021547Y-51698809D01*
X48021547Y-51489285D01*
X48126309Y-51279761D01*
X48231071Y-51175000D01*
X48440595Y-51070238D01*
X48964404Y-51070238D01*
X49278690Y-51175000D01*
X51164404Y-53270238D02*
X51164404Y-52117857D01*
X51059642Y-51908333D01*
X50850119Y-51803571D01*
X50431071Y-51803571D01*
X50221547Y-51908333D01*
X51164404Y-53165476D02*
X50954880Y-53270238D01*
X50431071Y-53270238D01*
X50221547Y-53165476D01*
X50116785Y-52955952D01*
X50116785Y-52746428D01*
X50221547Y-52536904D01*
X50431071Y-52432142D01*
X50954880Y-52432142D01*
X51164404Y-52327380D01*
X52212023Y-53270238D02*
X52212023Y-51803571D01*
X52212023Y-51070238D02*
X52107261Y-51175000D01*
X52212023Y-51279761D01*
X52316785Y-51175000D01*
X52212023Y-51070238D01*
X52212023Y-51279761D01*
X53573928Y-53270238D02*
X53364404Y-53165476D01*
X53259642Y-52955952D01*
X53259642Y-51070238D01*
X54726309Y-53270238D02*
X54516785Y-53165476D01*
X54412023Y-53060714D01*
X54307261Y-52851190D01*
X54307261Y-52222619D01*
X54412023Y-52013095D01*
X54516785Y-51908333D01*
X54726309Y-51803571D01*
X55040595Y-51803571D01*
X55250119Y-51908333D01*
X55354880Y-52013095D01*
X55459642Y-52222619D01*
X55459642Y-52851190D01*
X55354880Y-53060714D01*
X55250119Y-53165476D01*
X55040595Y-53270238D01*
X54726309Y-53270238D01*
X56402500Y-53270238D02*
X56402500Y-51803571D01*
X56402500Y-52222619D02*
X56507261Y-52013095D01*
X56612023Y-51908333D01*
X56821547Y-51803571D01*
X57031071Y-51803571D01*
X59440595Y-53270238D02*
X59440595Y-51070238D01*
X59440595Y-52117857D02*
X60697738Y-52117857D01*
X60697738Y-53270238D02*
X60697738Y-51070238D01*
X62688214Y-53270238D02*
X62688214Y-52117857D01*
X62583452Y-51908333D01*
X62373928Y-51803571D01*
X61954880Y-51803571D01*
X61745357Y-51908333D01*
X62688214Y-53165476D02*
X62478690Y-53270238D01*
X61954880Y-53270238D01*
X61745357Y-53165476D01*
X61640595Y-52955952D01*
X61640595Y-52746428D01*
X61745357Y-52536904D01*
X61954880Y-52432142D01*
X62478690Y-52432142D01*
X62688214Y-52327380D01*
X63421547Y-51803571D02*
X64259642Y-51803571D01*
X63735833Y-51070238D02*
X63735833Y-52955952D01*
X63840595Y-53165476D01*
X64050119Y-53270238D01*
X64259642Y-53270238D01*
D16*
X104507142Y-49395238D02*
X104554761Y-49442857D01*
X104602380Y-49585714D01*
X104602380Y-49680952D01*
X104554761Y-49823809D01*
X104459523Y-49919047D01*
X104364285Y-49966666D01*
X104173809Y-50014285D01*
X104030952Y-50014285D01*
X103840476Y-49966666D01*
X103745238Y-49919047D01*
X103650000Y-49823809D01*
X103602380Y-49680952D01*
X103602380Y-49585714D01*
X103650000Y-49442857D01*
X103697619Y-49395238D01*
X104602380Y-48395238D02*
X104126190Y-48728571D01*
X104602380Y-48966666D02*
X103602380Y-48966666D01*
X103602380Y-48585714D01*
X103650000Y-48490476D01*
X103697619Y-48442857D01*
X103792857Y-48395238D01*
X103935714Y-48395238D01*
X104030952Y-48442857D01*
X104078571Y-48490476D01*
X104126190Y-48585714D01*
X104126190Y-48966666D01*
X104602380Y-47442857D02*
X104602380Y-48014285D01*
X104602380Y-47728571D02*
X103602380Y-47728571D01*
X103745238Y-47823809D01*
X103840476Y-47919047D01*
X103888095Y-48014285D01*
X103697619Y-47061904D02*
X103650000Y-47014285D01*
X103602380Y-46919047D01*
X103602380Y-46680952D01*
X103650000Y-46585714D01*
X103697619Y-46538095D01*
X103792857Y-46490476D01*
X103888095Y-46490476D01*
X104030952Y-46538095D01*
X104602380Y-47109523D01*
X104602380Y-46490476D01*
X103697619Y-46109523D02*
X103650000Y-46061904D01*
X103602380Y-45966666D01*
X103602380Y-45728571D01*
X103650000Y-45633333D01*
X103697619Y-45585714D01*
X103792857Y-45538095D01*
X103888095Y-45538095D01*
X104030952Y-45585714D01*
X104602380Y-46157142D01*
X104602380Y-45538095D01*
X103602380Y-44919047D02*
X103602380Y-44823809D01*
X103650000Y-44728571D01*
X103697619Y-44680952D01*
X103792857Y-44633333D01*
X103983333Y-44585714D01*
X104221428Y-44585714D01*
X104411904Y-44633333D01*
X104507142Y-44680952D01*
X104554761Y-44728571D01*
X104602380Y-44823809D01*
X104602380Y-44919047D01*
X104554761Y-45014285D01*
X104507142Y-45061904D01*
X104411904Y-45109523D01*
X104221428Y-45157142D01*
X103983333Y-45157142D01*
X103792857Y-45109523D01*
X103697619Y-45061904D01*
X103650000Y-45014285D01*
X103602380Y-44919047D01*
D14*
X74136904Y-48436285D02*
X73755952Y-48702952D01*
X74136904Y-48893428D02*
X73336904Y-48893428D01*
X73336904Y-48588666D01*
X73375000Y-48512476D01*
X73413095Y-48474380D01*
X73489285Y-48436285D01*
X73603571Y-48436285D01*
X73679761Y-48474380D01*
X73717857Y-48512476D01*
X73755952Y-48588666D01*
X73755952Y-48893428D01*
X73336904Y-48169619D02*
X74136904Y-47636285D01*
X73336904Y-47636285D02*
X74136904Y-48169619D01*
X74136904Y-47331523D02*
X73336904Y-47331523D01*
X73336904Y-47141047D01*
X73375000Y-47026761D01*
X73451190Y-46950571D01*
X73527380Y-46912476D01*
X73679761Y-46874380D01*
X73794047Y-46874380D01*
X73946428Y-46912476D01*
X74022619Y-46950571D01*
X74098809Y-47026761D01*
X74136904Y-47141047D01*
X74136904Y-47331523D01*
X70796904Y-48817238D02*
X70796904Y-48360095D01*
X71596904Y-48588666D02*
X70796904Y-48588666D01*
X70796904Y-48169619D02*
X71596904Y-47636285D01*
X70796904Y-47636285D02*
X71596904Y-48169619D01*
X71596904Y-47331523D02*
X70796904Y-47331523D01*
X70796904Y-47141047D01*
X70835000Y-47026761D01*
X70911190Y-46950571D01*
X70987380Y-46912476D01*
X71139761Y-46874380D01*
X71254047Y-46874380D01*
X71406428Y-46912476D01*
X71482619Y-46950571D01*
X71558809Y-47026761D01*
X71596904Y-47141047D01*
X71596904Y-47331523D01*
X68256904Y-50341047D02*
X69056904Y-50074380D01*
X68256904Y-49807714D01*
X68980714Y-49083904D02*
X69018809Y-49122000D01*
X69056904Y-49236285D01*
X69056904Y-49312476D01*
X69018809Y-49426761D01*
X68942619Y-49502952D01*
X68866428Y-49541047D01*
X68714047Y-49579142D01*
X68599761Y-49579142D01*
X68447380Y-49541047D01*
X68371190Y-49502952D01*
X68295000Y-49426761D01*
X68256904Y-49312476D01*
X68256904Y-49236285D01*
X68295000Y-49122000D01*
X68333095Y-49083904D01*
X69056904Y-48398190D02*
X68637857Y-48398190D01*
X68561666Y-48436285D01*
X68523571Y-48512476D01*
X68523571Y-48664857D01*
X68561666Y-48741047D01*
X69018809Y-48398190D02*
X69056904Y-48474380D01*
X69056904Y-48664857D01*
X69018809Y-48741047D01*
X68942619Y-48779142D01*
X68866428Y-48779142D01*
X68790238Y-48741047D01*
X68752142Y-48664857D01*
X68752142Y-48474380D01*
X68714047Y-48398190D01*
X68523571Y-48017238D02*
X69323571Y-48017238D01*
X68561666Y-48017238D02*
X68523571Y-47941047D01*
X68523571Y-47788666D01*
X68561666Y-47712476D01*
X68599761Y-47674380D01*
X68675952Y-47636285D01*
X68904523Y-47636285D01*
X68980714Y-47674380D01*
X69018809Y-47712476D01*
X69056904Y-47788666D01*
X69056904Y-47941047D01*
X69018809Y-48017238D01*
X69018809Y-47331523D02*
X69056904Y-47217238D01*
X69056904Y-47026761D01*
X69018809Y-46950571D01*
X68980714Y-46912476D01*
X68904523Y-46874380D01*
X68828333Y-46874380D01*
X68752142Y-46912476D01*
X68714047Y-46950571D01*
X68675952Y-47026761D01*
X68637857Y-47179142D01*
X68599761Y-47255333D01*
X68561666Y-47293428D01*
X68485476Y-47331523D01*
X68409285Y-47331523D01*
X68333095Y-47293428D01*
X68295000Y-47255333D01*
X68256904Y-47179142D01*
X68256904Y-46988666D01*
X68295000Y-46874380D01*
X65716904Y-49198190D02*
X66516904Y-48931523D01*
X65716904Y-48664857D01*
X66516904Y-48398190D02*
X65983571Y-48398190D01*
X65716904Y-48398190D02*
X65755000Y-48436285D01*
X65793095Y-48398190D01*
X65755000Y-48360095D01*
X65716904Y-48398190D01*
X65793095Y-48398190D01*
X65983571Y-48017238D02*
X66516904Y-48017238D01*
X66059761Y-48017238D02*
X66021666Y-47979142D01*
X65983571Y-47902952D01*
X65983571Y-47788666D01*
X66021666Y-47712476D01*
X66097857Y-47674380D01*
X66516904Y-47674380D01*
X66478809Y-47331523D02*
X66516904Y-47217238D01*
X66516904Y-47026761D01*
X66478809Y-46950571D01*
X66440714Y-46912476D01*
X66364523Y-46874380D01*
X66288333Y-46874380D01*
X66212142Y-46912476D01*
X66174047Y-46950571D01*
X66135952Y-47026761D01*
X66097857Y-47179142D01*
X66059761Y-47255333D01*
X66021666Y-47293428D01*
X65945476Y-47331523D01*
X65869285Y-47331523D01*
X65793095Y-47293428D01*
X65755000Y-47255333D01*
X65716904Y-47179142D01*
X65716904Y-46988666D01*
X65755000Y-46874380D01*
X63557857Y-49541047D02*
X63557857Y-49274380D01*
X63976904Y-49160095D02*
X63976904Y-49541047D01*
X63176904Y-49541047D01*
X63176904Y-49160095D01*
X63976904Y-48817238D02*
X63176904Y-48817238D01*
X63976904Y-48360095D01*
X63176904Y-48360095D01*
X63176904Y-47598190D02*
X63176904Y-47979142D01*
X63557857Y-48017238D01*
X63519761Y-47979142D01*
X63481666Y-47902952D01*
X63481666Y-47712476D01*
X63519761Y-47636285D01*
X63557857Y-47598190D01*
X63634047Y-47560095D01*
X63824523Y-47560095D01*
X63900714Y-47598190D01*
X63938809Y-47636285D01*
X63976904Y-47712476D01*
X63976904Y-47902952D01*
X63938809Y-47979142D01*
X63900714Y-48017238D01*
X63176904Y-47331523D02*
X63976904Y-47064857D01*
X63176904Y-46798190D01*
X60636904Y-50112476D02*
X61436904Y-49845809D01*
X60636904Y-49579142D01*
X61398809Y-48969619D02*
X61436904Y-49045809D01*
X61436904Y-49198190D01*
X61398809Y-49274380D01*
X61360714Y-49312476D01*
X61284523Y-49350571D01*
X61055952Y-49350571D01*
X60979761Y-49312476D01*
X60941666Y-49274380D01*
X60903571Y-49198190D01*
X60903571Y-49045809D01*
X60941666Y-48969619D01*
X61436904Y-48283904D02*
X61017857Y-48283904D01*
X60941666Y-48322000D01*
X60903571Y-48398190D01*
X60903571Y-48550571D01*
X60941666Y-48626761D01*
X61398809Y-48283904D02*
X61436904Y-48360095D01*
X61436904Y-48550571D01*
X61398809Y-48626761D01*
X61322619Y-48664857D01*
X61246428Y-48664857D01*
X61170238Y-48626761D01*
X61132142Y-48550571D01*
X61132142Y-48360095D01*
X61094047Y-48283904D01*
X60903571Y-47902952D02*
X61703571Y-47902952D01*
X60941666Y-47902952D02*
X60903571Y-47826761D01*
X60903571Y-47674380D01*
X60941666Y-47598190D01*
X60979761Y-47560095D01*
X61055952Y-47522000D01*
X61284523Y-47522000D01*
X61360714Y-47560095D01*
X61398809Y-47598190D01*
X61436904Y-47674380D01*
X61436904Y-47826761D01*
X61398809Y-47902952D01*
X61436904Y-46798190D02*
X61436904Y-47179142D01*
X60636904Y-47179142D01*
X58096904Y-48702952D02*
X58896904Y-48436285D01*
X58096904Y-48169619D01*
X58858809Y-47560095D02*
X58896904Y-47636285D01*
X58896904Y-47788666D01*
X58858809Y-47864857D01*
X58820714Y-47902952D01*
X58744523Y-47941047D01*
X58515952Y-47941047D01*
X58439761Y-47902952D01*
X58401666Y-47864857D01*
X58363571Y-47788666D01*
X58363571Y-47636285D01*
X58401666Y-47560095D01*
X58858809Y-46874380D02*
X58896904Y-46950571D01*
X58896904Y-47102952D01*
X58858809Y-47179142D01*
X58820714Y-47217238D01*
X58744523Y-47255333D01*
X58515952Y-47255333D01*
X58439761Y-47217238D01*
X58401666Y-47179142D01*
X58363571Y-47102952D01*
X58363571Y-46950571D01*
X58401666Y-46874380D01*
X74098809Y-41079619D02*
X74136904Y-40965333D01*
X74136904Y-40774857D01*
X74098809Y-40698666D01*
X74060714Y-40660571D01*
X73984523Y-40622476D01*
X73908333Y-40622476D01*
X73832142Y-40660571D01*
X73794047Y-40698666D01*
X73755952Y-40774857D01*
X73717857Y-40927238D01*
X73679761Y-41003428D01*
X73641666Y-41041523D01*
X73565476Y-41079619D01*
X73489285Y-41079619D01*
X73413095Y-41041523D01*
X73375000Y-41003428D01*
X73336904Y-40927238D01*
X73336904Y-40736761D01*
X73375000Y-40622476D01*
X74136904Y-40279619D02*
X73336904Y-40279619D01*
X73336904Y-40089142D01*
X73375000Y-39974857D01*
X73451190Y-39898666D01*
X73527380Y-39860571D01*
X73679761Y-39822476D01*
X73794047Y-39822476D01*
X73946428Y-39860571D01*
X74022619Y-39898666D01*
X74098809Y-39974857D01*
X74136904Y-40089142D01*
X74136904Y-40279619D01*
X73908333Y-39517714D02*
X73908333Y-39136761D01*
X74136904Y-39593904D02*
X73336904Y-39327238D01*
X74136904Y-39060571D01*
X71558809Y-41079619D02*
X71596904Y-40965333D01*
X71596904Y-40774857D01*
X71558809Y-40698666D01*
X71520714Y-40660571D01*
X71444523Y-40622476D01*
X71368333Y-40622476D01*
X71292142Y-40660571D01*
X71254047Y-40698666D01*
X71215952Y-40774857D01*
X71177857Y-40927238D01*
X71139761Y-41003428D01*
X71101666Y-41041523D01*
X71025476Y-41079619D01*
X70949285Y-41079619D01*
X70873095Y-41041523D01*
X70835000Y-41003428D01*
X70796904Y-40927238D01*
X70796904Y-40736761D01*
X70835000Y-40622476D01*
X71520714Y-39822476D02*
X71558809Y-39860571D01*
X71596904Y-39974857D01*
X71596904Y-40051047D01*
X71558809Y-40165333D01*
X71482619Y-40241523D01*
X71406428Y-40279619D01*
X71254047Y-40317714D01*
X71139761Y-40317714D01*
X70987380Y-40279619D01*
X70911190Y-40241523D01*
X70835000Y-40165333D01*
X70796904Y-40051047D01*
X70796904Y-39974857D01*
X70835000Y-39860571D01*
X70873095Y-39822476D01*
X71596904Y-39098666D02*
X71596904Y-39479619D01*
X70796904Y-39479619D01*
X69056904Y-40584380D02*
X68675952Y-40851047D01*
X69056904Y-41041523D02*
X68256904Y-41041523D01*
X68256904Y-40736761D01*
X68295000Y-40660571D01*
X68333095Y-40622476D01*
X68409285Y-40584380D01*
X68523571Y-40584380D01*
X68599761Y-40622476D01*
X68637857Y-40660571D01*
X68675952Y-40736761D01*
X68675952Y-41041523D01*
X69018809Y-40279619D02*
X69056904Y-40165333D01*
X69056904Y-39974857D01*
X69018809Y-39898666D01*
X68980714Y-39860571D01*
X68904523Y-39822476D01*
X68828333Y-39822476D01*
X68752142Y-39860571D01*
X68714047Y-39898666D01*
X68675952Y-39974857D01*
X68637857Y-40127238D01*
X68599761Y-40203428D01*
X68561666Y-40241523D01*
X68485476Y-40279619D01*
X68409285Y-40279619D01*
X68333095Y-40241523D01*
X68295000Y-40203428D01*
X68256904Y-40127238D01*
X68256904Y-39936761D01*
X68295000Y-39822476D01*
X68256904Y-39593904D02*
X68256904Y-39136761D01*
X69056904Y-39365333D02*
X68256904Y-39365333D01*
X66478809Y-41206619D02*
X66516904Y-41092333D01*
X66516904Y-40901857D01*
X66478809Y-40825666D01*
X66440714Y-40787571D01*
X66364523Y-40749476D01*
X66288333Y-40749476D01*
X66212142Y-40787571D01*
X66174047Y-40825666D01*
X66135952Y-40901857D01*
X66097857Y-41054238D01*
X66059761Y-41130428D01*
X66021666Y-41168523D01*
X65945476Y-41206619D01*
X65869285Y-41206619D01*
X65793095Y-41168523D01*
X65755000Y-41130428D01*
X65716904Y-41054238D01*
X65716904Y-40863761D01*
X65755000Y-40749476D01*
X65983571Y-40520904D02*
X65983571Y-40216142D01*
X65716904Y-40406619D02*
X66402619Y-40406619D01*
X66478809Y-40368523D01*
X66516904Y-40292333D01*
X66516904Y-40216142D01*
X66516904Y-39606619D02*
X66097857Y-39606619D01*
X66021666Y-39644714D01*
X65983571Y-39720904D01*
X65983571Y-39873285D01*
X66021666Y-39949476D01*
X66478809Y-39606619D02*
X66516904Y-39682809D01*
X66516904Y-39873285D01*
X66478809Y-39949476D01*
X66402619Y-39987571D01*
X66326428Y-39987571D01*
X66250238Y-39949476D01*
X66212142Y-39873285D01*
X66212142Y-39682809D01*
X66174047Y-39606619D01*
X65983571Y-39339952D02*
X65983571Y-39035190D01*
X65716904Y-39225666D02*
X66402619Y-39225666D01*
X66478809Y-39187571D01*
X66516904Y-39111380D01*
X66516904Y-39035190D01*
X66516904Y-38387571D02*
X66516904Y-38768523D01*
X65716904Y-38768523D01*
X63976904Y-41041523D02*
X63176904Y-41041523D01*
X63976904Y-40660571D02*
X63176904Y-40660571D01*
X63976904Y-40203428D01*
X63176904Y-40203428D01*
X63176904Y-39936761D02*
X63176904Y-39479619D01*
X63976904Y-39708190D02*
X63176904Y-39708190D01*
X60636904Y-41155809D02*
X61436904Y-40889142D01*
X60636904Y-40622476D01*
X61436904Y-40355809D02*
X60903571Y-40355809D01*
X60636904Y-40355809D02*
X60675000Y-40393904D01*
X60713095Y-40355809D01*
X60675000Y-40317714D01*
X60636904Y-40355809D01*
X60713095Y-40355809D01*
X60903571Y-39974857D02*
X61436904Y-39974857D01*
X60979761Y-39974857D02*
X60941666Y-39936761D01*
X60903571Y-39860571D01*
X60903571Y-39746285D01*
X60941666Y-39670095D01*
X61017857Y-39632000D01*
X61436904Y-39632000D01*
X61436904Y-38870095D02*
X61436904Y-39251047D01*
X60636904Y-39251047D01*
X58135000Y-40622476D02*
X58096904Y-40698666D01*
X58096904Y-40812952D01*
X58135000Y-40927238D01*
X58211190Y-41003428D01*
X58287380Y-41041523D01*
X58439761Y-41079619D01*
X58554047Y-41079619D01*
X58706428Y-41041523D01*
X58782619Y-41003428D01*
X58858809Y-40927238D01*
X58896904Y-40812952D01*
X58896904Y-40736761D01*
X58858809Y-40622476D01*
X58820714Y-40584380D01*
X58554047Y-40584380D01*
X58554047Y-40736761D01*
X58896904Y-40241523D02*
X58096904Y-40241523D01*
X58896904Y-39784380D01*
X58096904Y-39784380D01*
X58896904Y-39403428D02*
X58096904Y-39403428D01*
X58096904Y-39212952D01*
X58135000Y-39098666D01*
X58211190Y-39022476D01*
X58287380Y-38984380D01*
X58439761Y-38946285D01*
X58554047Y-38946285D01*
X58706428Y-38984380D01*
X58782619Y-39022476D01*
X58858809Y-39098666D01*
X58896904Y-39212952D01*
X58896904Y-39403428D01*
X87288197Y-37242000D02*
G75*
G03*
X87288197Y-37242000I-813197J0D01*
G01*
X84748197Y-37242000D02*
G75*
G03*
X84748197Y-37242000I-813197J0D01*
G01*
X77128197Y-37242000D02*
G75*
G03*
X77128197Y-37242000I-813197J0D01*
G01*
X74588197Y-37242000D02*
G75*
G03*
X74588197Y-37242000I-813197J0D01*
G01*
X72048197Y-37242000D02*
G75*
G03*
X72048197Y-37242000I-813197J0D01*
G01*
X87313197Y-30886804D02*
G75*
G03*
X87313197Y-30886804I-813197J0D01*
G01*
X89828197Y-37242000D02*
G75*
G03*
X89828197Y-37242000I-813197J0D01*
G01*
X48222619Y-30457904D02*
X47841666Y-30457904D01*
X47803571Y-30838857D01*
X47841666Y-30800761D01*
X47917857Y-30762666D01*
X48108333Y-30762666D01*
X48184523Y-30800761D01*
X48222619Y-30838857D01*
X48260714Y-30915047D01*
X48260714Y-31105523D01*
X48222619Y-31181714D01*
X48184523Y-31219809D01*
X48108333Y-31257904D01*
X47917857Y-31257904D01*
X47841666Y-31219809D01*
X47803571Y-31181714D01*
X48489285Y-30457904D02*
X48755952Y-31257904D01*
X49022619Y-30457904D01*
X50762619Y-30457904D02*
X50381666Y-30457904D01*
X50343571Y-30838857D01*
X50381666Y-30800761D01*
X50457857Y-30762666D01*
X50648333Y-30762666D01*
X50724523Y-30800761D01*
X50762619Y-30838857D01*
X50800714Y-30915047D01*
X50800714Y-31105523D01*
X50762619Y-31181714D01*
X50724523Y-31219809D01*
X50648333Y-31257904D01*
X50457857Y-31257904D01*
X50381666Y-31219809D01*
X50343571Y-31181714D01*
X51029285Y-30457904D02*
X51295952Y-31257904D01*
X51562619Y-30457904D01*
X52845476Y-30496000D02*
X52769285Y-30457904D01*
X52655000Y-30457904D01*
X52540714Y-30496000D01*
X52464523Y-30572190D01*
X52426428Y-30648380D01*
X52388333Y-30800761D01*
X52388333Y-30915047D01*
X52426428Y-31067428D01*
X52464523Y-31143619D01*
X52540714Y-31219809D01*
X52655000Y-31257904D01*
X52731190Y-31257904D01*
X52845476Y-31219809D01*
X52883571Y-31181714D01*
X52883571Y-30915047D01*
X52731190Y-30915047D01*
X53226428Y-31257904D02*
X53226428Y-30457904D01*
X53683571Y-31257904D01*
X53683571Y-30457904D01*
X54064523Y-31257904D02*
X54064523Y-30457904D01*
X54255000Y-30457904D01*
X54369285Y-30496000D01*
X54445476Y-30572190D01*
X54483571Y-30648380D01*
X54521666Y-30800761D01*
X54521666Y-30915047D01*
X54483571Y-31067428D01*
X54445476Y-31143619D01*
X54369285Y-31219809D01*
X54255000Y-31257904D01*
X54064523Y-31257904D01*
X55842619Y-31257904D02*
X55385476Y-31257904D01*
X55614047Y-31257904D02*
X55614047Y-30457904D01*
X55537857Y-30572190D01*
X55461666Y-30648380D01*
X55385476Y-30686476D01*
X56528333Y-30724571D02*
X56528333Y-31257904D01*
X56337857Y-30419809D02*
X56147380Y-30991238D01*
X56642619Y-30991238D01*
X58382619Y-31257904D02*
X57925476Y-31257904D01*
X58154047Y-31257904D02*
X58154047Y-30457904D01*
X58077857Y-30572190D01*
X58001666Y-30648380D01*
X57925476Y-30686476D01*
X59106428Y-30457904D02*
X58725476Y-30457904D01*
X58687380Y-30838857D01*
X58725476Y-30800761D01*
X58801666Y-30762666D01*
X58992142Y-30762666D01*
X59068333Y-30800761D01*
X59106428Y-30838857D01*
X59144523Y-30915047D01*
X59144523Y-31105523D01*
X59106428Y-31181714D01*
X59068333Y-31219809D01*
X58992142Y-31257904D01*
X58801666Y-31257904D01*
X58725476Y-31219809D01*
X58687380Y-31181714D01*
X60922619Y-31257904D02*
X60465476Y-31257904D01*
X60694047Y-31257904D02*
X60694047Y-30457904D01*
X60617857Y-30572190D01*
X60541666Y-30648380D01*
X60465476Y-30686476D01*
X61379761Y-30800761D02*
X61303571Y-30762666D01*
X61265476Y-30724571D01*
X61227380Y-30648380D01*
X61227380Y-30610285D01*
X61265476Y-30534095D01*
X61303571Y-30496000D01*
X61379761Y-30457904D01*
X61532142Y-30457904D01*
X61608333Y-30496000D01*
X61646428Y-30534095D01*
X61684523Y-30610285D01*
X61684523Y-30648380D01*
X61646428Y-30724571D01*
X61608333Y-30762666D01*
X61532142Y-30800761D01*
X61379761Y-30800761D01*
X61303571Y-30838857D01*
X61265476Y-30876952D01*
X61227380Y-30953142D01*
X61227380Y-31105523D01*
X61265476Y-31181714D01*
X61303571Y-31219809D01*
X61379761Y-31257904D01*
X61532142Y-31257904D01*
X61608333Y-31219809D01*
X61646428Y-31181714D01*
X61684523Y-31105523D01*
X61684523Y-30953142D01*
X61646428Y-30876952D01*
X61608333Y-30838857D01*
X61532142Y-30800761D01*
X63005476Y-30496000D02*
X62929285Y-30457904D01*
X62815000Y-30457904D01*
X62700714Y-30496000D01*
X62624523Y-30572190D01*
X62586428Y-30648380D01*
X62548333Y-30800761D01*
X62548333Y-30915047D01*
X62586428Y-31067428D01*
X62624523Y-31143619D01*
X62700714Y-31219809D01*
X62815000Y-31257904D01*
X62891190Y-31257904D01*
X63005476Y-31219809D01*
X63043571Y-31181714D01*
X63043571Y-30915047D01*
X62891190Y-30915047D01*
X63386428Y-31257904D02*
X63386428Y-30457904D01*
X63843571Y-31257904D01*
X63843571Y-30457904D01*
X64224523Y-31257904D02*
X64224523Y-30457904D01*
X64415000Y-30457904D01*
X64529285Y-30496000D01*
X64605476Y-30572190D01*
X64643571Y-30648380D01*
X64681666Y-30800761D01*
X64681666Y-30915047D01*
X64643571Y-31067428D01*
X64605476Y-31143619D01*
X64529285Y-31219809D01*
X64415000Y-31257904D01*
X64224523Y-31257904D01*
X65545476Y-30534095D02*
X65583571Y-30496000D01*
X65659761Y-30457904D01*
X65850238Y-30457904D01*
X65926428Y-30496000D01*
X65964523Y-30534095D01*
X66002619Y-30610285D01*
X66002619Y-30686476D01*
X65964523Y-30800761D01*
X65507380Y-31257904D01*
X66002619Y-31257904D01*
X66269285Y-30457904D02*
X66764523Y-30457904D01*
X66497857Y-30762666D01*
X66612142Y-30762666D01*
X66688333Y-30800761D01*
X66726428Y-30838857D01*
X66764523Y-30915047D01*
X66764523Y-31105523D01*
X66726428Y-31181714D01*
X66688333Y-31219809D01*
X66612142Y-31257904D01*
X66383571Y-31257904D01*
X66307380Y-31219809D01*
X66269285Y-31181714D01*
X68085476Y-30534095D02*
X68123571Y-30496000D01*
X68199761Y-30457904D01*
X68390238Y-30457904D01*
X68466428Y-30496000D01*
X68504523Y-30534095D01*
X68542619Y-30610285D01*
X68542619Y-30686476D01*
X68504523Y-30800761D01*
X68047380Y-31257904D01*
X68542619Y-31257904D01*
X69228333Y-30724571D02*
X69228333Y-31257904D01*
X69037857Y-30419809D02*
X68847380Y-30991238D01*
X69342619Y-30991238D01*
X70625476Y-30496000D02*
X70549285Y-30457904D01*
X70435000Y-30457904D01*
X70320714Y-30496000D01*
X70244523Y-30572190D01*
X70206428Y-30648380D01*
X70168333Y-30800761D01*
X70168333Y-30915047D01*
X70206428Y-31067428D01*
X70244523Y-31143619D01*
X70320714Y-31219809D01*
X70435000Y-31257904D01*
X70511190Y-31257904D01*
X70625476Y-31219809D01*
X70663571Y-31181714D01*
X70663571Y-30915047D01*
X70511190Y-30915047D01*
X71006428Y-31257904D02*
X71006428Y-30457904D01*
X71463571Y-31257904D01*
X71463571Y-30457904D01*
X71844523Y-31257904D02*
X71844523Y-30457904D01*
X72035000Y-30457904D01*
X72149285Y-30496000D01*
X72225476Y-30572190D01*
X72263571Y-30648380D01*
X72301666Y-30800761D01*
X72301666Y-30915047D01*
X72263571Y-31067428D01*
X72225476Y-31143619D01*
X72149285Y-31219809D01*
X72035000Y-31257904D01*
X71844523Y-31257904D01*
X73165476Y-30534095D02*
X73203571Y-30496000D01*
X73279761Y-30457904D01*
X73470238Y-30457904D01*
X73546428Y-30496000D01*
X73584523Y-30534095D01*
X73622619Y-30610285D01*
X73622619Y-30686476D01*
X73584523Y-30800761D01*
X73127380Y-31257904D01*
X73622619Y-31257904D01*
X74346428Y-30457904D02*
X73965476Y-30457904D01*
X73927380Y-30838857D01*
X73965476Y-30800761D01*
X74041666Y-30762666D01*
X74232142Y-30762666D01*
X74308333Y-30800761D01*
X74346428Y-30838857D01*
X74384523Y-30915047D01*
X74384523Y-31105523D01*
X74346428Y-31181714D01*
X74308333Y-31219809D01*
X74232142Y-31257904D01*
X74041666Y-31257904D01*
X73965476Y-31219809D01*
X73927380Y-31181714D01*
X76238809Y-30800761D02*
X76162619Y-30762666D01*
X76124523Y-30724571D01*
X76086428Y-30648380D01*
X76086428Y-30610285D01*
X76124523Y-30534095D01*
X76162619Y-30496000D01*
X76238809Y-30457904D01*
X76391190Y-30457904D01*
X76467380Y-30496000D01*
X76505476Y-30534095D01*
X76543571Y-30610285D01*
X76543571Y-30648380D01*
X76505476Y-30724571D01*
X76467380Y-30762666D01*
X76391190Y-30800761D01*
X76238809Y-30800761D01*
X76162619Y-30838857D01*
X76124523Y-30876952D01*
X76086428Y-30953142D01*
X76086428Y-31105523D01*
X76124523Y-31181714D01*
X76162619Y-31219809D01*
X76238809Y-31257904D01*
X76391190Y-31257904D01*
X76467380Y-31219809D01*
X76505476Y-31181714D01*
X76543571Y-31105523D01*
X76543571Y-30953142D01*
X76505476Y-30876952D01*
X76467380Y-30838857D01*
X76391190Y-30800761D01*
X78588333Y-30457904D02*
X79121666Y-30457904D01*
X78778809Y-31257904D01*
X79869047Y-31257904D02*
X79869047Y-30457904D01*
X80250000Y-31257904D02*
X80250000Y-30457904D01*
X80440476Y-30457904D01*
X80554761Y-30496000D01*
X80630952Y-30572190D01*
X80669047Y-30648380D01*
X80707142Y-30800761D01*
X80707142Y-30915047D01*
X80669047Y-31067428D01*
X80630952Y-31143619D01*
X80554761Y-31219809D01*
X80440476Y-31257904D01*
X80250000Y-31257904D01*
X81011904Y-31219809D02*
X81126190Y-31257904D01*
X81316666Y-31257904D01*
X81392857Y-31219809D01*
X81430952Y-31181714D01*
X81469047Y-31105523D01*
X81469047Y-31029333D01*
X81430952Y-30953142D01*
X81392857Y-30915047D01*
X81316666Y-30876952D01*
X81164285Y-30838857D01*
X81088095Y-30800761D01*
X81050000Y-30762666D01*
X81011904Y-30686476D01*
X81011904Y-30610285D01*
X81050000Y-30534095D01*
X81088095Y-30496000D01*
X81164285Y-30457904D01*
X81354761Y-30457904D01*
X81469047Y-30496000D01*
X82269047Y-31181714D02*
X82230952Y-31219809D01*
X82116666Y-31257904D01*
X82040476Y-31257904D01*
X81926190Y-31219809D01*
X81850000Y-31143619D01*
X81811904Y-31067428D01*
X81773809Y-30915047D01*
X81773809Y-30800761D01*
X81811904Y-30648380D01*
X81850000Y-30572190D01*
X81926190Y-30496000D01*
X82040476Y-30457904D01*
X82116666Y-30457904D01*
X82230952Y-30496000D01*
X82269047Y-30534095D01*
X83440476Y-30496000D02*
X83364285Y-30457904D01*
X83250000Y-30457904D01*
X83135714Y-30496000D01*
X83059523Y-30572190D01*
X83021428Y-30648380D01*
X82983333Y-30800761D01*
X82983333Y-30915047D01*
X83021428Y-31067428D01*
X83059523Y-31143619D01*
X83135714Y-31219809D01*
X83250000Y-31257904D01*
X83326190Y-31257904D01*
X83440476Y-31219809D01*
X83478571Y-31181714D01*
X83478571Y-30915047D01*
X83326190Y-30915047D01*
X83821428Y-31257904D02*
X83821428Y-30457904D01*
X84278571Y-31257904D01*
X84278571Y-30457904D01*
X84659523Y-31257904D02*
X84659523Y-30457904D01*
X84850000Y-30457904D01*
X84964285Y-30496000D01*
X85040476Y-30572190D01*
X85078571Y-30648380D01*
X85116666Y-30800761D01*
X85116666Y-30915047D01*
X85078571Y-31067428D01*
X85040476Y-31143619D01*
X84964285Y-31219809D01*
X84850000Y-31257904D01*
X84659523Y-31257904D01*
X86322619Y-31257904D02*
X85865476Y-31257904D01*
X86094047Y-31257904D02*
X86094047Y-30457904D01*
X86017857Y-30572190D01*
X85941666Y-30648380D01*
X85865476Y-30686476D01*
X86627380Y-30534095D02*
X86665476Y-30496000D01*
X86741666Y-30457904D01*
X86932142Y-30457904D01*
X87008333Y-30496000D01*
X87046428Y-30534095D01*
X87084523Y-30610285D01*
X87084523Y-30686476D01*
X87046428Y-30800761D01*
X86589285Y-31257904D01*
X87084523Y-31257904D01*
X88405476Y-30496000D02*
X88329285Y-30457904D01*
X88215000Y-30457904D01*
X88100714Y-30496000D01*
X88024523Y-30572190D01*
X87986428Y-30648380D01*
X87948333Y-30800761D01*
X87948333Y-30915047D01*
X87986428Y-31067428D01*
X88024523Y-31143619D01*
X88100714Y-31219809D01*
X88215000Y-31257904D01*
X88291190Y-31257904D01*
X88405476Y-31219809D01*
X88443571Y-31181714D01*
X88443571Y-30915047D01*
X88291190Y-30915047D01*
X88786428Y-31257904D02*
X88786428Y-30457904D01*
X89243571Y-31257904D01*
X89243571Y-30457904D01*
X89624523Y-31257904D02*
X89624523Y-30457904D01*
X89815000Y-30457904D01*
X89929285Y-30496000D01*
X90005476Y-30572190D01*
X90043571Y-30648380D01*
X90081666Y-30800761D01*
X90081666Y-30915047D01*
X90043571Y-31067428D01*
X90005476Y-31143619D01*
X89929285Y-31219809D01*
X89815000Y-31257904D01*
X89624523Y-31257904D01*
X91402619Y-31257904D02*
X90945476Y-31257904D01*
X91174047Y-31257904D02*
X91174047Y-30457904D01*
X91097857Y-30572190D01*
X91021666Y-30648380D01*
X90945476Y-30686476D01*
X92088333Y-30457904D02*
X91935952Y-30457904D01*
X91859761Y-30496000D01*
X91821666Y-30534095D01*
X91745476Y-30648380D01*
X91707380Y-30800761D01*
X91707380Y-31105523D01*
X91745476Y-31181714D01*
X91783571Y-31219809D01*
X91859761Y-31257904D01*
X92012142Y-31257904D01*
X92088333Y-31219809D01*
X92126428Y-31181714D01*
X92164523Y-31105523D01*
X92164523Y-30915047D01*
X92126428Y-30838857D01*
X92088333Y-30800761D01*
X92012142Y-30762666D01*
X91859761Y-30762666D01*
X91783571Y-30800761D01*
X91745476Y-30838857D01*
X91707380Y-30915047D01*
X93485476Y-30534095D02*
X93523571Y-30496000D01*
X93599761Y-30457904D01*
X93790238Y-30457904D01*
X93866428Y-30496000D01*
X93904523Y-30534095D01*
X93942619Y-30610285D01*
X93942619Y-30686476D01*
X93904523Y-30800761D01*
X93447380Y-31257904D01*
X93942619Y-31257904D01*
X94437857Y-30457904D02*
X94514047Y-30457904D01*
X94590238Y-30496000D01*
X94628333Y-30534095D01*
X94666428Y-30610285D01*
X94704523Y-30762666D01*
X94704523Y-30953142D01*
X94666428Y-31105523D01*
X94628333Y-31181714D01*
X94590238Y-31219809D01*
X94514047Y-31257904D01*
X94437857Y-31257904D01*
X94361666Y-31219809D01*
X94323571Y-31181714D01*
X94285476Y-31105523D01*
X94247380Y-30953142D01*
X94247380Y-30762666D01*
X94285476Y-30610285D01*
X94323571Y-30534095D01*
X94361666Y-30496000D01*
X94437857Y-30457904D01*
X96025476Y-30534095D02*
X96063571Y-30496000D01*
X96139761Y-30457904D01*
X96330238Y-30457904D01*
X96406428Y-30496000D01*
X96444523Y-30534095D01*
X96482619Y-30610285D01*
X96482619Y-30686476D01*
X96444523Y-30800761D01*
X95987380Y-31257904D01*
X96482619Y-31257904D01*
X97244523Y-31257904D02*
X96787380Y-31257904D01*
X97015952Y-31257904D02*
X97015952Y-30457904D01*
X96939761Y-30572190D01*
X96863571Y-30648380D01*
X96787380Y-30686476D01*
X96025476Y-36842000D02*
X95949285Y-36803904D01*
X95835000Y-36803904D01*
X95720714Y-36842000D01*
X95644523Y-36918190D01*
X95606428Y-36994380D01*
X95568333Y-37146761D01*
X95568333Y-37261047D01*
X95606428Y-37413428D01*
X95644523Y-37489619D01*
X95720714Y-37565809D01*
X95835000Y-37603904D01*
X95911190Y-37603904D01*
X96025476Y-37565809D01*
X96063571Y-37527714D01*
X96063571Y-37261047D01*
X95911190Y-37261047D01*
X96406428Y-37603904D02*
X96406428Y-36803904D01*
X96863571Y-37603904D01*
X96863571Y-36803904D01*
X97244523Y-37603904D02*
X97244523Y-36803904D01*
X97435000Y-36803904D01*
X97549285Y-36842000D01*
X97625476Y-36918190D01*
X97663571Y-36994380D01*
X97701666Y-37146761D01*
X97701666Y-37261047D01*
X97663571Y-37413428D01*
X97625476Y-37489619D01*
X97549285Y-37565809D01*
X97435000Y-37603904D01*
X97244523Y-37603904D01*
X93485476Y-36880095D02*
X93523571Y-36842000D01*
X93599761Y-36803904D01*
X93790238Y-36803904D01*
X93866428Y-36842000D01*
X93904523Y-36880095D01*
X93942619Y-36956285D01*
X93942619Y-37032476D01*
X93904523Y-37146761D01*
X93447380Y-37603904D01*
X93942619Y-37603904D01*
X94628333Y-36803904D02*
X94475952Y-36803904D01*
X94399761Y-36842000D01*
X94361666Y-36880095D01*
X94285476Y-36994380D01*
X94247380Y-37146761D01*
X94247380Y-37451523D01*
X94285476Y-37527714D01*
X94323571Y-37565809D01*
X94399761Y-37603904D01*
X94552142Y-37603904D01*
X94628333Y-37565809D01*
X94666428Y-37527714D01*
X94704523Y-37451523D01*
X94704523Y-37261047D01*
X94666428Y-37184857D01*
X94628333Y-37146761D01*
X94552142Y-37108666D01*
X94399761Y-37108666D01*
X94323571Y-37146761D01*
X94285476Y-37184857D01*
X94247380Y-37261047D01*
X91402619Y-37603904D02*
X90945476Y-37603904D01*
X91174047Y-37603904D02*
X91174047Y-36803904D01*
X91097857Y-36918190D01*
X91021666Y-36994380D01*
X90945476Y-37032476D01*
X91783571Y-37603904D02*
X91935952Y-37603904D01*
X92012142Y-37565809D01*
X92050238Y-37527714D01*
X92126428Y-37413428D01*
X92164523Y-37261047D01*
X92164523Y-36956285D01*
X92126428Y-36880095D01*
X92088333Y-36842000D01*
X92012142Y-36803904D01*
X91859761Y-36803904D01*
X91783571Y-36842000D01*
X91745476Y-36880095D01*
X91707380Y-36956285D01*
X91707380Y-37146761D01*
X91745476Y-37222952D01*
X91783571Y-37261047D01*
X91859761Y-37299142D01*
X92012142Y-37299142D01*
X92088333Y-37261047D01*
X92126428Y-37222952D01*
X92164523Y-37146761D01*
X88862619Y-37603904D02*
X88405476Y-37603904D01*
X88634047Y-37603904D02*
X88634047Y-36803904D01*
X88557857Y-36918190D01*
X88481666Y-36994380D01*
X88405476Y-37032476D01*
X89129285Y-36803904D02*
X89624523Y-36803904D01*
X89357857Y-37108666D01*
X89472142Y-37108666D01*
X89548333Y-37146761D01*
X89586428Y-37184857D01*
X89624523Y-37261047D01*
X89624523Y-37451523D01*
X89586428Y-37527714D01*
X89548333Y-37565809D01*
X89472142Y-37603904D01*
X89243571Y-37603904D01*
X89167380Y-37565809D01*
X89129285Y-37527714D01*
X86627380Y-36803904D02*
X86475000Y-36803904D01*
X86398809Y-36842000D01*
X86360714Y-36880095D01*
X86284523Y-36994380D01*
X86246428Y-37146761D01*
X86246428Y-37451523D01*
X86284523Y-37527714D01*
X86322619Y-37565809D01*
X86398809Y-37603904D01*
X86551190Y-37603904D01*
X86627380Y-37565809D01*
X86665476Y-37527714D01*
X86703571Y-37451523D01*
X86703571Y-37261047D01*
X86665476Y-37184857D01*
X86627380Y-37146761D01*
X86551190Y-37108666D01*
X86398809Y-37108666D01*
X86322619Y-37146761D01*
X86284523Y-37184857D01*
X86246428Y-37261047D01*
X84125476Y-36803904D02*
X83744523Y-36803904D01*
X83706428Y-37184857D01*
X83744523Y-37146761D01*
X83820714Y-37108666D01*
X84011190Y-37108666D01*
X84087380Y-37146761D01*
X84125476Y-37184857D01*
X84163571Y-37261047D01*
X84163571Y-37451523D01*
X84125476Y-37527714D01*
X84087380Y-37565809D01*
X84011190Y-37603904D01*
X83820714Y-37603904D01*
X83744523Y-37565809D01*
X83706428Y-37527714D01*
X80369047Y-37603904D02*
X80369047Y-36803904D01*
X80750000Y-37603904D02*
X80750000Y-36803904D01*
X80940476Y-36803904D01*
X81054761Y-36842000D01*
X81130952Y-36918190D01*
X81169047Y-36994380D01*
X81207142Y-37146761D01*
X81207142Y-37261047D01*
X81169047Y-37413428D01*
X81130952Y-37489619D01*
X81054761Y-37565809D01*
X80940476Y-37603904D01*
X80750000Y-37603904D01*
X81511904Y-37565809D02*
X81626190Y-37603904D01*
X81816666Y-37603904D01*
X81892857Y-37565809D01*
X81930952Y-37527714D01*
X81969047Y-37451523D01*
X81969047Y-37375333D01*
X81930952Y-37299142D01*
X81892857Y-37261047D01*
X81816666Y-37222952D01*
X81664285Y-37184857D01*
X81588095Y-37146761D01*
X81550000Y-37108666D01*
X81511904Y-37032476D01*
X81511904Y-36956285D01*
X81550000Y-36880095D01*
X81588095Y-36842000D01*
X81664285Y-36803904D01*
X81854761Y-36803904D01*
X81969047Y-36842000D01*
X82311904Y-37603904D02*
X82311904Y-36803904D01*
X82502380Y-36803904D01*
X82616666Y-36842000D01*
X82692857Y-36918190D01*
X82730952Y-36994380D01*
X82769047Y-37146761D01*
X82769047Y-37261047D01*
X82730952Y-37413428D01*
X82692857Y-37489619D01*
X82616666Y-37565809D01*
X82502380Y-37603904D01*
X82311904Y-37603904D01*
X78190476Y-36842000D02*
X78114285Y-36803904D01*
X78000000Y-36803904D01*
X77885714Y-36842000D01*
X77809523Y-36918190D01*
X77771428Y-36994380D01*
X77733333Y-37146761D01*
X77733333Y-37261047D01*
X77771428Y-37413428D01*
X77809523Y-37489619D01*
X77885714Y-37565809D01*
X78000000Y-37603904D01*
X78076190Y-37603904D01*
X78190476Y-37565809D01*
X78228571Y-37527714D01*
X78228571Y-37261047D01*
X78076190Y-37261047D01*
X78571428Y-37603904D02*
X78571428Y-36803904D01*
X79028571Y-37603904D01*
X79028571Y-36803904D01*
X79409523Y-37603904D02*
X79409523Y-36803904D01*
X79600000Y-36803904D01*
X79714285Y-36842000D01*
X79790476Y-36918190D01*
X79828571Y-36994380D01*
X79866666Y-37146761D01*
X79866666Y-37261047D01*
X79828571Y-37413428D01*
X79790476Y-37489619D01*
X79714285Y-37565809D01*
X79600000Y-37603904D01*
X79409523Y-37603904D01*
X76162619Y-37603904D02*
X75705476Y-37603904D01*
X75934047Y-37603904D02*
X75934047Y-36803904D01*
X75857857Y-36918190D01*
X75781666Y-36994380D01*
X75705476Y-37032476D01*
X76924523Y-37603904D02*
X76467380Y-37603904D01*
X76695952Y-37603904D02*
X76695952Y-36803904D01*
X76619761Y-36918190D01*
X76543571Y-36994380D01*
X76467380Y-37032476D01*
X73622619Y-37603904D02*
X73775000Y-37603904D01*
X73851190Y-37565809D01*
X73889285Y-37527714D01*
X73965476Y-37413428D01*
X74003571Y-37261047D01*
X74003571Y-36956285D01*
X73965476Y-36880095D01*
X73927380Y-36842000D01*
X73851190Y-36803904D01*
X73698809Y-36803904D01*
X73622619Y-36842000D01*
X73584523Y-36880095D01*
X73546428Y-36956285D01*
X73546428Y-37146761D01*
X73584523Y-37222952D01*
X73622619Y-37261047D01*
X73698809Y-37299142D01*
X73851190Y-37299142D01*
X73927380Y-37261047D01*
X73965476Y-37222952D01*
X74003571Y-37146761D01*
X71082619Y-37603904D02*
X70625476Y-37603904D01*
X70854047Y-37603904D02*
X70854047Y-36803904D01*
X70777857Y-36918190D01*
X70701666Y-36994380D01*
X70625476Y-37032476D01*
X71577857Y-36803904D02*
X71654047Y-36803904D01*
X71730238Y-36842000D01*
X71768333Y-36880095D01*
X71806428Y-36956285D01*
X71844523Y-37108666D01*
X71844523Y-37299142D01*
X71806428Y-37451523D01*
X71768333Y-37527714D01*
X71730238Y-37565809D01*
X71654047Y-37603904D01*
X71577857Y-37603904D01*
X71501666Y-37565809D01*
X71463571Y-37527714D01*
X71425476Y-37451523D01*
X71387380Y-37299142D01*
X71387380Y-37108666D01*
X71425476Y-36956285D01*
X71463571Y-36880095D01*
X71501666Y-36842000D01*
X71577857Y-36803904D01*
X67704523Y-36803904D02*
X68199761Y-36803904D01*
X67933095Y-37108666D01*
X68047380Y-37108666D01*
X68123571Y-37146761D01*
X68161666Y-37184857D01*
X68199761Y-37261047D01*
X68199761Y-37451523D01*
X68161666Y-37527714D01*
X68123571Y-37565809D01*
X68047380Y-37603904D01*
X67818809Y-37603904D01*
X67742619Y-37565809D01*
X67704523Y-37527714D01*
X68428333Y-36803904D02*
X68695000Y-37603904D01*
X68961666Y-36803904D01*
X69152142Y-36803904D02*
X69647380Y-36803904D01*
X69380714Y-37108666D01*
X69495000Y-37108666D01*
X69571190Y-37146761D01*
X69609285Y-37184857D01*
X69647380Y-37261047D01*
X69647380Y-37451523D01*
X69609285Y-37527714D01*
X69571190Y-37565809D01*
X69495000Y-37603904D01*
X69266428Y-37603904D01*
X69190238Y-37565809D01*
X69152142Y-37527714D01*
X65545476Y-36880095D02*
X65583571Y-36842000D01*
X65659761Y-36803904D01*
X65850238Y-36803904D01*
X65926428Y-36842000D01*
X65964523Y-36880095D01*
X66002619Y-36956285D01*
X66002619Y-37032476D01*
X65964523Y-37146761D01*
X65507380Y-37603904D01*
X66002619Y-37603904D01*
X66307380Y-36880095D02*
X66345476Y-36842000D01*
X66421666Y-36803904D01*
X66612142Y-36803904D01*
X66688333Y-36842000D01*
X66726428Y-36880095D01*
X66764523Y-36956285D01*
X66764523Y-37032476D01*
X66726428Y-37146761D01*
X66269285Y-37603904D01*
X66764523Y-37603904D01*
X63005476Y-36880095D02*
X63043571Y-36842000D01*
X63119761Y-36803904D01*
X63310238Y-36803904D01*
X63386428Y-36842000D01*
X63424523Y-36880095D01*
X63462619Y-36956285D01*
X63462619Y-37032476D01*
X63424523Y-37146761D01*
X62967380Y-37603904D01*
X63462619Y-37603904D01*
X63729285Y-36803904D02*
X64262619Y-36803904D01*
X63919761Y-37603904D01*
X60922619Y-37603904D02*
X60465476Y-37603904D01*
X60694047Y-37603904D02*
X60694047Y-36803904D01*
X60617857Y-36918190D01*
X60541666Y-36994380D01*
X60465476Y-37032476D01*
X61189285Y-36803904D02*
X61722619Y-36803904D01*
X61379761Y-37603904D01*
X57925476Y-36842000D02*
X57849285Y-36803904D01*
X57735000Y-36803904D01*
X57620714Y-36842000D01*
X57544523Y-36918190D01*
X57506428Y-36994380D01*
X57468333Y-37146761D01*
X57468333Y-37261047D01*
X57506428Y-37413428D01*
X57544523Y-37489619D01*
X57620714Y-37565809D01*
X57735000Y-37603904D01*
X57811190Y-37603904D01*
X57925476Y-37565809D01*
X57963571Y-37527714D01*
X57963571Y-37261047D01*
X57811190Y-37261047D01*
X58306428Y-37603904D02*
X58306428Y-36803904D01*
X58763571Y-37603904D01*
X58763571Y-36803904D01*
X59144523Y-37603904D02*
X59144523Y-36803904D01*
X59335000Y-36803904D01*
X59449285Y-36842000D01*
X59525476Y-36918190D01*
X59563571Y-36994380D01*
X59601666Y-37146761D01*
X59601666Y-37261047D01*
X59563571Y-37413428D01*
X59525476Y-37489619D01*
X59449285Y-37565809D01*
X59335000Y-37603904D01*
X59144523Y-37603904D01*
X55804523Y-37603904D02*
X55347380Y-37603904D01*
X55575952Y-37603904D02*
X55575952Y-36803904D01*
X55499761Y-36918190D01*
X55423571Y-36994380D01*
X55347380Y-37032476D01*
X56071190Y-37070571D02*
X56223571Y-37603904D01*
X56375952Y-37222952D01*
X56528333Y-37603904D01*
X56680714Y-37070571D01*
X53188333Y-36803904D02*
X53683571Y-36803904D01*
X53416904Y-37108666D01*
X53531190Y-37108666D01*
X53607380Y-37146761D01*
X53645476Y-37184857D01*
X53683571Y-37261047D01*
X53683571Y-37451523D01*
X53645476Y-37527714D01*
X53607380Y-37565809D01*
X53531190Y-37603904D01*
X53302619Y-37603904D01*
X53226428Y-37565809D01*
X53188333Y-37527714D01*
X50686428Y-36838095D02*
X50724523Y-36800000D01*
X50800714Y-36761904D01*
X50991190Y-36761904D01*
X51067380Y-36800000D01*
X51105476Y-36838095D01*
X51143571Y-36914285D01*
X51143571Y-36990476D01*
X51105476Y-37104761D01*
X50648333Y-37561904D01*
X51143571Y-37561904D01*
X47384523Y-36803904D02*
X47879761Y-36803904D01*
X47613095Y-37108666D01*
X47727380Y-37108666D01*
X47803571Y-37146761D01*
X47841666Y-37184857D01*
X47879761Y-37261047D01*
X47879761Y-37451523D01*
X47841666Y-37527714D01*
X47803571Y-37565809D01*
X47727380Y-37603904D01*
X47498809Y-37603904D01*
X47422619Y-37565809D01*
X47384523Y-37527714D01*
X48108333Y-36803904D02*
X48375000Y-37603904D01*
X48641666Y-36803904D01*
X48832142Y-36803904D02*
X49327380Y-36803904D01*
X49060714Y-37108666D01*
X49175000Y-37108666D01*
X49251190Y-37146761D01*
X49289285Y-37184857D01*
X49327380Y-37261047D01*
X49327380Y-37451523D01*
X49289285Y-37527714D01*
X49251190Y-37565809D01*
X49175000Y-37603904D01*
X48946428Y-37603904D01*
X48870238Y-37565809D01*
X48832142Y-37527714D01*
D17*
X84013771Y-76044371D02*
X83956628Y-76101514D01*
X83785200Y-76158657D01*
X83670914Y-76158657D01*
X83499485Y-76101514D01*
X83385200Y-75987228D01*
X83328057Y-75872942D01*
X83270914Y-75644371D01*
X83270914Y-75472942D01*
X83328057Y-75244371D01*
X83385200Y-75130085D01*
X83499485Y-75015800D01*
X83670914Y-74958657D01*
X83785200Y-74958657D01*
X83956628Y-75015800D01*
X84013771Y-75072942D01*
X84470914Y-75815800D02*
X85042342Y-75815800D01*
X84356628Y-76158657D02*
X84756628Y-74958657D01*
X85156628Y-76158657D01*
X85556628Y-76158657D02*
X85556628Y-74958657D01*
X86242342Y-76158657D01*
X86242342Y-74958657D01*
X71428571Y-76542857D02*
X71428571Y-75342857D01*
X71885714Y-75342857D01*
X72000000Y-75400000D01*
X72057142Y-75457142D01*
X72114285Y-75571428D01*
X72114285Y-75742857D01*
X72057142Y-75857142D01*
X72000000Y-75914285D01*
X71885714Y-75971428D01*
X71428571Y-75971428D01*
X72800000Y-76542857D02*
X72685714Y-76485714D01*
X72628571Y-76428571D01*
X72571428Y-76314285D01*
X72571428Y-75971428D01*
X72628571Y-75857142D01*
X72685714Y-75800000D01*
X72800000Y-75742857D01*
X72971428Y-75742857D01*
X73085714Y-75800000D01*
X73142857Y-75857142D01*
X73200000Y-75971428D01*
X73200000Y-76314285D01*
X73142857Y-76428571D01*
X73085714Y-76485714D01*
X72971428Y-76542857D01*
X72800000Y-76542857D01*
X73600000Y-75742857D02*
X73828571Y-76542857D01*
X74057142Y-75971428D01*
X74285714Y-76542857D01*
X74514285Y-75742857D01*
X75428571Y-76485714D02*
X75314285Y-76542857D01*
X75085714Y-76542857D01*
X74971428Y-76485714D01*
X74914285Y-76371428D01*
X74914285Y-75914285D01*
X74971428Y-75800000D01*
X75085714Y-75742857D01*
X75314285Y-75742857D01*
X75428571Y-75800000D01*
X75485714Y-75914285D01*
X75485714Y-76028571D01*
X74914285Y-76142857D01*
X76000000Y-76542857D02*
X76000000Y-75742857D01*
X76000000Y-75971428D02*
X76057142Y-75857142D01*
X76114285Y-75800000D01*
X76228571Y-75742857D01*
X76342857Y-75742857D01*
D12*
X44611904Y-73040476D02*
X44230952Y-73307142D01*
X44611904Y-73497619D02*
X43811904Y-73497619D01*
X43811904Y-73192857D01*
X43850000Y-73116666D01*
X43888095Y-73078571D01*
X43964285Y-73040476D01*
X44078571Y-73040476D01*
X44154761Y-73078571D01*
X44192857Y-73116666D01*
X44230952Y-73192857D01*
X44230952Y-73497619D01*
X44573809Y-72392857D02*
X44611904Y-72469047D01*
X44611904Y-72621428D01*
X44573809Y-72697619D01*
X44497619Y-72735714D01*
X44192857Y-72735714D01*
X44116666Y-72697619D01*
X44078571Y-72621428D01*
X44078571Y-72469047D01*
X44116666Y-72392857D01*
X44192857Y-72354761D01*
X44269047Y-72354761D01*
X44345238Y-72735714D01*
X44573809Y-72050000D02*
X44611904Y-71973809D01*
X44611904Y-71821428D01*
X44573809Y-71745238D01*
X44497619Y-71707142D01*
X44459523Y-71707142D01*
X44383333Y-71745238D01*
X44345238Y-71821428D01*
X44345238Y-71935714D01*
X44307142Y-72011904D01*
X44230952Y-72050000D01*
X44192857Y-72050000D01*
X44116666Y-72011904D01*
X44078571Y-71935714D01*
X44078571Y-71821428D01*
X44116666Y-71745238D01*
X44573809Y-71059523D02*
X44611904Y-71135714D01*
X44611904Y-71288095D01*
X44573809Y-71364285D01*
X44497619Y-71402380D01*
X44192857Y-71402380D01*
X44116666Y-71364285D01*
X44078571Y-71288095D01*
X44078571Y-71135714D01*
X44116666Y-71059523D01*
X44192857Y-71021428D01*
X44269047Y-71021428D01*
X44345238Y-71402380D01*
X44078571Y-70792857D02*
X44078571Y-70488095D01*
X43811904Y-70678571D02*
X44497619Y-70678571D01*
X44573809Y-70640476D01*
X44611904Y-70564285D01*
X44611904Y-70488095D01*
D13*
X66828571Y-77907142D02*
X67971428Y-77907142D01*
D17*
X21157142Y-57064214D02*
X19957142Y-57464214D01*
X21157142Y-57864214D01*
X20014285Y-58778500D02*
X19957142Y-58664214D01*
X19957142Y-58435642D01*
X20014285Y-58321357D01*
X20071428Y-58264214D01*
X20185714Y-58207071D01*
X20528571Y-58207071D01*
X20642857Y-58264214D01*
X20700000Y-58321357D01*
X20757142Y-58435642D01*
X20757142Y-58664214D01*
X20700000Y-58778500D01*
X19957142Y-59807071D02*
X20585714Y-59807071D01*
X20700000Y-59749928D01*
X20757142Y-59635642D01*
X20757142Y-59407071D01*
X20700000Y-59292785D01*
X20014285Y-59807071D02*
X19957142Y-59692785D01*
X19957142Y-59407071D01*
X20014285Y-59292785D01*
X20128571Y-59235642D01*
X20242857Y-59235642D01*
X20357142Y-59292785D01*
X20414285Y-59407071D01*
X20414285Y-59692785D01*
X20471428Y-59807071D01*
X20757142Y-60378500D02*
X19557142Y-60378500D01*
X20700000Y-60378500D02*
X20757142Y-60492785D01*
X20757142Y-60721357D01*
X20700000Y-60835642D01*
X20642857Y-60892785D01*
X20528571Y-60949928D01*
X20185714Y-60949928D01*
X20071428Y-60892785D01*
X20014285Y-60835642D01*
X19957142Y-60721357D01*
X19957142Y-60492785D01*
X20014285Y-60378500D01*
D13*
X73807142Y-78471428D02*
X73807142Y-77328571D01*
X74378571Y-77900000D02*
X73235714Y-77900000D01*
X23939571Y-84689142D02*
X25082428Y-84689142D01*
X37445142Y-85153428D02*
X37445142Y-84010571D01*
X38016571Y-84582000D02*
X36873714Y-84582000D01*
D11*
X47994285Y-54642857D02*
X48451428Y-54642857D01*
X48165714Y-55442857D02*
X48165714Y-54414285D01*
X48222857Y-54300000D01*
X48337142Y-54242857D01*
X48451428Y-54242857D01*
X49022857Y-55442857D02*
X48908571Y-55385714D01*
X48851428Y-55328571D01*
X48794285Y-55214285D01*
X48794285Y-54871428D01*
X48851428Y-54757142D01*
X48908571Y-54700000D01*
X49022857Y-54642857D01*
X49194285Y-54642857D01*
X49308571Y-54700000D01*
X49365714Y-54757142D01*
X49422857Y-54871428D01*
X49422857Y-55214285D01*
X49365714Y-55328571D01*
X49308571Y-55385714D01*
X49194285Y-55442857D01*
X49022857Y-55442857D01*
X49937142Y-55442857D02*
X49937142Y-54642857D01*
X49937142Y-54871428D02*
X49994285Y-54757142D01*
X50051428Y-54700000D01*
X50165714Y-54642857D01*
X50280000Y-54642857D01*
X52280000Y-55442857D02*
X51880000Y-54871428D01*
X51594285Y-55442857D02*
X51594285Y-54242857D01*
X52051428Y-54242857D01*
X52165714Y-54300000D01*
X52222857Y-54357142D01*
X52280000Y-54471428D01*
X52280000Y-54642857D01*
X52222857Y-54757142D01*
X52165714Y-54814285D01*
X52051428Y-54871428D01*
X51594285Y-54871428D01*
X53308571Y-55442857D02*
X53308571Y-54814285D01*
X53251428Y-54700000D01*
X53137142Y-54642857D01*
X52908571Y-54642857D01*
X52794285Y-54700000D01*
X53308571Y-55385714D02*
X53194285Y-55442857D01*
X52908571Y-55442857D01*
X52794285Y-55385714D01*
X52737142Y-55271428D01*
X52737142Y-55157142D01*
X52794285Y-55042857D01*
X52908571Y-54985714D01*
X53194285Y-54985714D01*
X53308571Y-54928571D01*
X53822857Y-55385714D02*
X53937142Y-55442857D01*
X54165714Y-55442857D01*
X54280000Y-55385714D01*
X54337142Y-55271428D01*
X54337142Y-55214285D01*
X54280000Y-55100000D01*
X54165714Y-55042857D01*
X53994285Y-55042857D01*
X53880000Y-54985714D01*
X53822857Y-54871428D01*
X53822857Y-54814285D01*
X53880000Y-54700000D01*
X53994285Y-54642857D01*
X54165714Y-54642857D01*
X54280000Y-54700000D01*
X54851428Y-54642857D02*
X54851428Y-55842857D01*
X54851428Y-54700000D02*
X54965714Y-54642857D01*
X55194285Y-54642857D01*
X55308571Y-54700000D01*
X55365714Y-54757142D01*
X55422857Y-54871428D01*
X55422857Y-55214285D01*
X55365714Y-55328571D01*
X55308571Y-55385714D01*
X55194285Y-55442857D01*
X54965714Y-55442857D01*
X54851428Y-55385714D01*
X55937142Y-55442857D02*
X55937142Y-54242857D01*
X55937142Y-54700000D02*
X56051428Y-54642857D01*
X56280000Y-54642857D01*
X56394285Y-54700000D01*
X56451428Y-54757142D01*
X56508571Y-54871428D01*
X56508571Y-55214285D01*
X56451428Y-55328571D01*
X56394285Y-55385714D01*
X56280000Y-55442857D01*
X56051428Y-55442857D01*
X55937142Y-55385714D01*
X57480000Y-55385714D02*
X57365714Y-55442857D01*
X57137142Y-55442857D01*
X57022857Y-55385714D01*
X56965714Y-55271428D01*
X56965714Y-54814285D01*
X57022857Y-54700000D01*
X57137142Y-54642857D01*
X57365714Y-54642857D01*
X57480000Y-54700000D01*
X57537142Y-54814285D01*
X57537142Y-54928571D01*
X56965714Y-55042857D01*
X58051428Y-55442857D02*
X58051428Y-54642857D01*
X58051428Y-54871428D02*
X58108571Y-54757142D01*
X58165714Y-54700000D01*
X58280000Y-54642857D01*
X58394285Y-54642857D01*
X58794285Y-55442857D02*
X58794285Y-54642857D01*
X58794285Y-54871428D02*
X58851428Y-54757142D01*
X58908571Y-54700000D01*
X59022857Y-54642857D01*
X59137142Y-54642857D01*
X59422857Y-54642857D02*
X59708571Y-55442857D01*
X59994285Y-54642857D02*
X59708571Y-55442857D01*
X59594285Y-55728571D01*
X59537142Y-55785714D01*
X59422857Y-55842857D01*
X61365714Y-55442857D02*
X61365714Y-54242857D01*
X61822857Y-54242857D01*
X61937142Y-54300000D01*
X61994285Y-54357142D01*
X62051428Y-54471428D01*
X62051428Y-54642857D01*
X61994285Y-54757142D01*
X61937142Y-54814285D01*
X61822857Y-54871428D01*
X61365714Y-54871428D01*
X62565714Y-55442857D02*
X62565714Y-54642857D01*
X62565714Y-54242857D02*
X62508571Y-54300000D01*
X62565714Y-54357142D01*
X62622857Y-54300000D01*
X62565714Y-54242857D01*
X62565714Y-54357142D01*
D10*
X49009285Y-58578571D02*
X48509285Y-57864285D01*
X48152142Y-58578571D02*
X48152142Y-57078571D01*
X48723571Y-57078571D01*
X48866428Y-57150000D01*
X48937857Y-57221428D01*
X49009285Y-57364285D01*
X49009285Y-57578571D01*
X48937857Y-57721428D01*
X48866428Y-57792857D01*
X48723571Y-57864285D01*
X48152142Y-57864285D01*
X50223571Y-58507142D02*
X50080714Y-58578571D01*
X49795000Y-58578571D01*
X49652142Y-58507142D01*
X49580714Y-58364285D01*
X49580714Y-57792857D01*
X49652142Y-57650000D01*
X49795000Y-57578571D01*
X50080714Y-57578571D01*
X50223571Y-57650000D01*
X50295000Y-57792857D01*
X50295000Y-57935714D01*
X49580714Y-58078571D01*
X50795000Y-57578571D02*
X51152142Y-58578571D01*
X51509285Y-57578571D01*
X52080714Y-58435714D02*
X52152142Y-58507142D01*
X52080714Y-58578571D01*
X52009285Y-58507142D01*
X52080714Y-58435714D01*
X52080714Y-58578571D01*
X52795000Y-58578571D02*
X52795000Y-57078571D01*
X53295000Y-58150000D01*
X53795000Y-57078571D01*
X53795000Y-58578571D01*
D13*
X92154428Y-76116571D02*
X92154428Y-74616571D01*
X92154428Y-75330857D02*
X93011571Y-75330857D01*
X93011571Y-76116571D02*
X93011571Y-74616571D01*
X95587285Y-76028571D02*
X94873000Y-76028571D01*
X94873000Y-74528571D01*
X89598571Y-75418142D02*
X90741428Y-75418142D01*
X90170000Y-75989571D02*
X90170000Y-74846714D01*
X87058571Y-75457142D02*
X88201428Y-75457142D01*
D17*
X20034285Y-67941928D02*
X19977142Y-68113357D01*
X19977142Y-68399071D01*
X20034285Y-68513357D01*
X20091428Y-68570500D01*
X20205714Y-68627642D01*
X20320000Y-68627642D01*
X20434285Y-68570500D01*
X20491428Y-68513357D01*
X20548571Y-68399071D01*
X20605714Y-68170500D01*
X20662857Y-68056214D01*
X20720000Y-67999071D01*
X20834285Y-67941928D01*
X20948571Y-67941928D01*
X21062857Y-67999071D01*
X21120000Y-68056214D01*
X21177142Y-68170500D01*
X21177142Y-68456214D01*
X21120000Y-68627642D01*
X20777142Y-68970500D02*
X20777142Y-69427642D01*
X21177142Y-69141928D02*
X20148571Y-69141928D01*
X20034285Y-69199071D01*
X19977142Y-69313357D01*
X19977142Y-69427642D01*
X19977142Y-70341928D02*
X20605714Y-70341928D01*
X20720000Y-70284785D01*
X20777142Y-70170500D01*
X20777142Y-69941928D01*
X20720000Y-69827642D01*
X20034285Y-70341928D02*
X19977142Y-70227642D01*
X19977142Y-69941928D01*
X20034285Y-69827642D01*
X20148571Y-69770500D01*
X20262857Y-69770500D01*
X20377142Y-69827642D01*
X20434285Y-69941928D01*
X20434285Y-70227642D01*
X20491428Y-70341928D01*
X20777142Y-70741928D02*
X20777142Y-71199071D01*
X21177142Y-70913357D02*
X20148571Y-70913357D01*
X20034285Y-70970500D01*
X19977142Y-71084785D01*
X19977142Y-71199071D01*
X20777142Y-72113357D02*
X19977142Y-72113357D01*
X20777142Y-71599071D02*
X20148571Y-71599071D01*
X20034285Y-71656214D01*
X19977142Y-71770500D01*
X19977142Y-71941928D01*
X20034285Y-72056214D01*
X20091428Y-72113357D01*
X20034285Y-72627642D02*
X19977142Y-72741928D01*
X19977142Y-72970500D01*
X20034285Y-73084785D01*
X20148571Y-73141928D01*
X20205714Y-73141928D01*
X20320000Y-73084785D01*
X20377142Y-72970500D01*
X20377142Y-72799071D01*
X20434285Y-72684785D01*
X20548571Y-72627642D01*
X20605714Y-72627642D01*
X20720000Y-72684785D01*
X20777142Y-72799071D01*
X20777142Y-72970500D01*
X20720000Y-73084785D01*
X21177142Y-48180214D02*
X21177142Y-47608785D01*
X20605714Y-47551642D01*
X20662857Y-47608785D01*
X20720000Y-47723071D01*
X20720000Y-48008785D01*
X20662857Y-48123071D01*
X20605714Y-48180214D01*
X20491428Y-48237357D01*
X20205714Y-48237357D01*
X20091428Y-48180214D01*
X20034285Y-48123071D01*
X19977142Y-48008785D01*
X19977142Y-47723071D01*
X20034285Y-47608785D01*
X20091428Y-47551642D01*
X21177142Y-48580214D02*
X19977142Y-48980214D01*
X21177142Y-49380214D01*
X21177142Y-34350071D02*
X19977142Y-34750071D01*
X21177142Y-35150071D01*
X19977142Y-35550071D02*
X20777142Y-35550071D01*
X21177142Y-35550071D02*
X21120000Y-35492928D01*
X21062857Y-35550071D01*
X21120000Y-35607214D01*
X21177142Y-35550071D01*
X21062857Y-35550071D01*
X20777142Y-36121500D02*
X19977142Y-36121500D01*
X20662857Y-36121500D02*
X20720000Y-36178642D01*
X20777142Y-36292928D01*
X20777142Y-36464357D01*
X20720000Y-36578642D01*
X20605714Y-36635785D01*
X19977142Y-36635785D01*
D14*
%TO.C,BT401*%
X100850000Y-40650000D02*
X102350000Y-40650000D01*
X100850000Y-54150000D02*
X102350000Y-54150000D01*
X95650000Y-54150000D02*
X94800000Y-54150000D01*
X94800000Y-54150000D02*
X92200000Y-51550000D01*
X92200000Y-51550000D02*
X91400000Y-50700000D01*
X91400000Y-50700000D02*
X91400000Y-44000000D01*
X91400000Y-44000000D02*
X92200000Y-43250000D01*
X92200000Y-43250000D02*
X94800000Y-40650000D01*
X94800000Y-40650000D02*
X95650000Y-40650000D01*
X103834160Y-41985385D02*
G75*
G02*
X103450000Y-42900000I-984160J-124615D01*
G01*
X103834160Y-52814615D02*
G75*
G03*
X103450000Y-51900000I-984160J124615D01*
G01*
X102300000Y-40650000D02*
G75*
G02*
X103850000Y-42100000I50000J-1500000D01*
G01*
X102300000Y-54150000D02*
G75*
G03*
X103850000Y-52700000I50000J1500000D01*
G01*
%TO.C,L501*%
X60050000Y-73700000D02*
X60050000Y-75200000D01*
X54350000Y-73700000D02*
X60050000Y-73700000D01*
X54350000Y-75200000D02*
X54350000Y-73700000D01*
X60050000Y-79100000D02*
X60050000Y-77600000D01*
X54350000Y-79100000D02*
X60050000Y-79100000D01*
X54350000Y-77600000D02*
X54350000Y-79100000D01*
%TO.C,C503*%
X62038748Y-73765000D02*
X62561252Y-73765000D01*
X62038748Y-75235000D02*
X62561252Y-75235000D01*
%TO.C,C502*%
X52065000Y-77811252D02*
X52065000Y-77288748D01*
X53535000Y-77811252D02*
X53535000Y-77288748D01*
%TO.C,C501*%
X53360000Y-81038748D02*
X53360000Y-82461252D01*
X51540000Y-81038748D02*
X51540000Y-82461252D01*
%TO.C,R315*%
X69737500Y-64787258D02*
X69737500Y-64312742D01*
X70782500Y-64787258D02*
X70782500Y-64312742D01*
%TO.C,R310*%
X69846359Y-61880000D02*
X70153641Y-61880000D01*
X69846359Y-61120000D02*
X70153641Y-61120000D01*
%TO.C,R309*%
X70153641Y-60020000D02*
X69846359Y-60020000D01*
X70153641Y-60780000D02*
X69846359Y-60780000D01*
%TO.C,R314*%
X74846359Y-74630000D02*
X75153641Y-74630000D01*
X74846359Y-73870000D02*
X75153641Y-73870000D01*
%TO.C,R313*%
X72846359Y-74630000D02*
X73153641Y-74630000D01*
X72846359Y-73870000D02*
X73153641Y-73870000D01*
D16*
%TO.C,U302*%
X69875000Y-71925000D02*
X69875000Y-73325000D01*
X74975000Y-71925000D02*
X74975000Y-67775000D01*
X69825000Y-71925000D02*
X69825000Y-67775000D01*
X74975000Y-71925000D02*
X74830000Y-71925000D01*
X74975000Y-67775000D02*
X74830000Y-67775000D01*
X69825000Y-67775000D02*
X69970000Y-67775000D01*
X69825000Y-71925000D02*
X69875000Y-71925000D01*
D14*
%TO.C,R312*%
X73080000Y-64003641D02*
X73080000Y-63696359D01*
X72320000Y-64003641D02*
X72320000Y-63696359D01*
%TO.C,R311*%
X76180000Y-72653641D02*
X76180000Y-72346359D01*
X75420000Y-72653641D02*
X75420000Y-72346359D01*
%TO.C,L301*%
X65685000Y-69010000D02*
X65685000Y-67985000D01*
X65685000Y-69010000D02*
X64660000Y-69010000D01*
X60515000Y-69010000D02*
X61540000Y-69010000D01*
X60515000Y-69010000D02*
X60515000Y-67985000D01*
X60515000Y-64590000D02*
X60515000Y-65615000D01*
X65685000Y-64590000D02*
X65685000Y-65615000D01*
X60515000Y-64590000D02*
X61540000Y-64590000D01*
X65685000Y-64590000D02*
X64660000Y-64590000D01*
%TO.C,D303*%
X74600000Y-62650000D02*
X72750000Y-62650000D01*
X74600000Y-61450000D02*
X72750000Y-61450000D01*
X72750000Y-61450000D02*
X72750000Y-62650000D01*
%TO.C,D301*%
X69350000Y-64600000D02*
X69350000Y-70000000D01*
X66050000Y-64600000D02*
X66050000Y-70000000D01*
X69350000Y-64600000D02*
X66050000Y-64600000D01*
%TO.C,U303*%
X65200000Y-58310000D02*
X63320000Y-58310000D01*
X65200000Y-58310000D02*
X67080000Y-58310000D01*
X65200000Y-63490000D02*
X63320000Y-63490000D01*
X65200000Y-63490000D02*
X68725000Y-63490000D01*
%TO.C,R308*%
X60420000Y-61053641D02*
X60420000Y-60746359D01*
X61180000Y-61053641D02*
X61180000Y-60746359D01*
%TO.C,R307*%
X59046359Y-60920000D02*
X59353641Y-60920000D01*
X59046359Y-61680000D02*
X59353641Y-61680000D01*
%TO.C,R306*%
X60420000Y-59153641D02*
X60420000Y-58846359D01*
X61180000Y-59153641D02*
X61180000Y-58846359D01*
%TO.C,R301*%
X59046359Y-59820000D02*
X59353641Y-59820000D01*
X59046359Y-60580000D02*
X59353641Y-60580000D01*
%TO.C,L201*%
X52860000Y-66485000D02*
X52860000Y-65460000D01*
X52860000Y-61315000D02*
X52860000Y-62340000D01*
X52860000Y-66485000D02*
X51835000Y-66485000D01*
X52860000Y-61315000D02*
X51835000Y-61315000D01*
X48440000Y-61315000D02*
X49465000Y-61315000D01*
X48440000Y-61315000D02*
X48440000Y-62340000D01*
X48440000Y-66485000D02*
X48440000Y-65460000D01*
X48440000Y-66485000D02*
X49465000Y-66485000D01*
%TO.C,F501*%
X64115000Y-83302064D02*
X64115000Y-82097936D01*
X65935000Y-83302064D02*
X65935000Y-82097936D01*
%TO.C,C316*%
X64792164Y-69340000D02*
X65007836Y-69340000D01*
X64792164Y-70060000D02*
X65007836Y-70060000D01*
%TO.C,C314*%
X67390000Y-74611252D02*
X67390000Y-73188748D01*
X69210000Y-74611252D02*
X69210000Y-73188748D01*
%TO.C,C207*%
X45142164Y-58690000D02*
X45357836Y-58690000D01*
X45142164Y-59410000D02*
X45357836Y-59410000D01*
%TO.C,C206*%
X42260000Y-67342164D02*
X42260000Y-67557836D01*
X41540000Y-67342164D02*
X41540000Y-67557836D01*
%TO.C,D603*%
X57893000Y-61010000D02*
X57893000Y-59810000D01*
X56043000Y-61010000D02*
X57893000Y-61010000D01*
X56043000Y-59810000D02*
X57893000Y-59810000D01*
%TO.C,D602*%
X57893000Y-62534000D02*
X57893000Y-61334000D01*
X56043000Y-62534000D02*
X57893000Y-62534000D01*
X56043000Y-61334000D02*
X57893000Y-61334000D01*
%TO.C,R806*%
X101903641Y-57930000D02*
X101596359Y-57930000D01*
X101903641Y-57170000D02*
X101596359Y-57170000D01*
%TO.C,R805*%
X92446359Y-56670000D02*
X92753641Y-56670000D01*
X92446359Y-57430000D02*
X92753641Y-57430000D01*
%TO.C,R804*%
X82627441Y-79145400D02*
X82320159Y-79145400D01*
X82627441Y-78385400D02*
X82320159Y-78385400D01*
%TO.C,D805*%
X96800000Y-57615000D02*
X94515000Y-57615000D01*
X94515000Y-57615000D02*
X94515000Y-59085000D01*
X94515000Y-59085000D02*
X96800000Y-59085000D01*
%TO.C,D804*%
X92000000Y-59085000D02*
X94285000Y-59085000D01*
X94285000Y-59085000D02*
X94285000Y-57615000D01*
X94285000Y-57615000D02*
X92000000Y-57615000D01*
%TO.C,D803*%
X82650000Y-77431800D02*
X82650000Y-75146800D01*
X82650000Y-75146800D02*
X81180000Y-75146800D01*
X81180000Y-75146800D02*
X81180000Y-77431800D01*
%TO.C,R803*%
X99065000Y-74527064D02*
X99065000Y-74072936D01*
X100535000Y-74527064D02*
X100535000Y-74072936D01*
%TO.C,R801*%
X101081000Y-74527064D02*
X101081000Y-74072936D01*
X102551000Y-74527064D02*
X102551000Y-74072936D01*
%TO.C,R606*%
X80562742Y-52322500D02*
X81037258Y-52322500D01*
X80562742Y-51277500D02*
X81037258Y-51277500D01*
%TO.C,C604*%
X81292164Y-53040000D02*
X81507836Y-53040000D01*
X81292164Y-53760000D02*
X81507836Y-53760000D01*
%TO.C,C603*%
X82610000Y-57259420D02*
X82610000Y-57540580D01*
X81590000Y-57259420D02*
X81590000Y-57540580D01*
%TO.C,FB601*%
X80600378Y-54340000D02*
X81399622Y-54340000D01*
X80600378Y-55460000D02*
X81399622Y-55460000D01*
%TO.C,U401*%
X76674001Y-46852999D02*
X76674001Y-50302999D01*
X76674001Y-46852999D02*
X76674001Y-44902999D01*
X81794001Y-46852999D02*
X81794001Y-48802999D01*
X81794001Y-46852999D02*
X81794001Y-44902999D01*
%TO.C,U602*%
X80700000Y-59150000D02*
X79700000Y-59150000D01*
X80700000Y-56450000D02*
X80200000Y-56450000D01*
%TO.C,J602*%
X78630000Y-52130000D02*
X75970000Y-52130000D01*
X78630000Y-54730000D02*
X78630000Y-52130000D01*
X75970000Y-54730000D02*
X75970000Y-52130000D01*
X78630000Y-54730000D02*
X75970000Y-54730000D01*
X78630000Y-56000000D02*
X78630000Y-57330000D01*
X78630000Y-57330000D02*
X77300000Y-57330000D01*
%TO.C,R711*%
X90877500Y-40237258D02*
X90877500Y-39762742D01*
X91922500Y-40237258D02*
X91922500Y-39762742D01*
%TO.C,R710*%
X88577500Y-40237258D02*
X88577500Y-39762742D01*
X89622500Y-40237258D02*
X89622500Y-39762742D01*
%TO.C,J702*%
X97963000Y-36442400D02*
X97963000Y-31242400D01*
X49643000Y-36442400D02*
X97963000Y-36442400D01*
X47043000Y-31242400D02*
X97963000Y-31242400D01*
X49643000Y-36442400D02*
X48373000Y-36442400D01*
X47043000Y-35112400D02*
X47043000Y-33842400D01*
X47043000Y-33842400D02*
X47043000Y-31242400D01*
X48373000Y-36442400D02*
X47043000Y-36442400D01*
X47043000Y-36442400D02*
X47043000Y-35112400D01*
%TO.C,J801*%
X87930000Y-76132000D02*
X87630000Y-76732000D01*
X87330000Y-76132000D02*
X87930000Y-76132000D01*
X87630000Y-76732000D02*
X87330000Y-76132000D01*
X95380000Y-79832000D02*
X94880000Y-79832000D01*
X95380000Y-85332000D02*
X95380000Y-79832000D01*
X94880000Y-85332000D02*
X95380000Y-85332000D01*
X94880000Y-79832000D02*
X94880000Y-85332000D01*
X92880000Y-79832000D02*
X92380000Y-79832000D01*
X92880000Y-85332000D02*
X92880000Y-79832000D01*
X92380000Y-85332000D02*
X92880000Y-85332000D01*
X92380000Y-79832000D02*
X92380000Y-85332000D01*
X90380000Y-79832000D02*
X89880000Y-79832000D01*
X90380000Y-85332000D02*
X90380000Y-79832000D01*
X89880000Y-85332000D02*
X90380000Y-85332000D01*
X89880000Y-79832000D02*
X89880000Y-85332000D01*
X87880000Y-79832000D02*
X87380000Y-79832000D01*
X87880000Y-85332000D02*
X87880000Y-79832000D01*
X87380000Y-85332000D02*
X87880000Y-85332000D01*
X87380000Y-79832000D02*
X87380000Y-85332000D01*
X97690000Y-78732000D02*
X96270000Y-78732000D01*
X97690000Y-85942000D02*
X97690000Y-78732000D01*
X91380000Y-85942000D02*
X97690000Y-85942000D01*
X85070000Y-78732000D02*
X86490000Y-78732000D01*
X85070000Y-85942000D02*
X85070000Y-78732000D01*
X91380000Y-85942000D02*
X85070000Y-85942000D01*
%TO.C,J501*%
X70592000Y-85942000D02*
X66782000Y-85942000D01*
X66782000Y-85942000D02*
X66782000Y-78732000D01*
X66782000Y-78732000D02*
X68202000Y-78732000D01*
X70592000Y-85942000D02*
X74402000Y-85942000D01*
X74402000Y-85942000D02*
X74402000Y-78732000D01*
X74402000Y-78732000D02*
X72982000Y-78732000D01*
X69092000Y-79832000D02*
X69092000Y-85332000D01*
X69092000Y-85332000D02*
X69592000Y-85332000D01*
X69592000Y-85332000D02*
X69592000Y-79832000D01*
X69592000Y-79832000D02*
X69092000Y-79832000D01*
X71592000Y-79832000D02*
X71592000Y-85332000D01*
X71592000Y-85332000D02*
X72092000Y-85332000D01*
X72092000Y-85332000D02*
X72092000Y-79832000D01*
X72092000Y-79832000D02*
X71592000Y-79832000D01*
X69342000Y-76732000D02*
X69042000Y-76132000D01*
X69042000Y-76132000D02*
X69642000Y-76132000D01*
X69642000Y-76132000D02*
X69342000Y-76732000D01*
%TO.C,C205*%
X41896836Y-62526000D02*
X41681164Y-62526000D01*
X41896836Y-63246000D02*
X41681164Y-63246000D01*
D18*
%TO.C,C309*%
G36*
X24844000Y-80361000D02*
G01*
X25744000Y-80361000D01*
X25744000Y-82961000D01*
X28344000Y-82961000D01*
X28344000Y-83861000D01*
X24844000Y-83861000D01*
X24844000Y-80361000D01*
G37*
X24844000Y-80361000D02*
X25744000Y-80361000D01*
X25744000Y-82961000D01*
X28344000Y-82961000D01*
X28344000Y-83861000D01*
X24844000Y-83861000D01*
X24844000Y-80361000D01*
G36*
X28344000Y-80361000D02*
G01*
X24844000Y-80361000D01*
X24844000Y-79461000D01*
X30644000Y-79461000D01*
X30644000Y-83861000D01*
X28344000Y-83861000D01*
X28344000Y-80361000D01*
G37*
X28344000Y-80361000D02*
X24844000Y-80361000D01*
X24844000Y-79461000D01*
X30644000Y-79461000D01*
X30644000Y-83861000D01*
X28344000Y-83861000D01*
X28344000Y-80361000D01*
D16*
X36744000Y-79461000D02*
X36744000Y-83861000D01*
X24844000Y-79461000D02*
X36744000Y-79461000D01*
X24844000Y-83861000D02*
X24844000Y-79461000D01*
X36744000Y-83861000D02*
X24844000Y-83861000D01*
D14*
%TO.C,C310*%
X37486000Y-82696164D02*
X37486000Y-82911836D01*
X38206000Y-82696164D02*
X38206000Y-82911836D01*
D18*
%TO.C,U201*%
X46330000Y-60262000D02*
X46330000Y-60262000D01*
X46430000Y-60262000D02*
X46430000Y-60262000D01*
X44380000Y-60882000D02*
X44380000Y-62882000D01*
X46380000Y-60882000D02*
X46380000Y-62882000D01*
X46330000Y-60262000D02*
G75*
G02*
X46430000Y-60262000I50000J0D01*
G01*
X46430000Y-60262000D02*
G75*
G02*
X46330000Y-60262000I-50000J0D01*
G01*
D14*
%TO.C,JP801*%
X99700000Y-77875000D02*
X99700000Y-76525000D01*
X102500000Y-77875000D02*
X99700000Y-77875000D01*
X102500000Y-76525000D02*
X102500000Y-77875000D01*
X99700000Y-76525000D02*
X102500000Y-76525000D01*
%TO.C,C201*%
X46508578Y-64890000D02*
X45991422Y-64890000D01*
X46508578Y-66310000D02*
X45991422Y-66310000D01*
%TO.C,C202*%
X44241422Y-58210000D02*
X44758578Y-58210000D01*
X44241422Y-56790000D02*
X44758578Y-56790000D01*
%TO.C,C203*%
X44008578Y-38290000D02*
X43491422Y-38290000D01*
X44008578Y-39710000D02*
X43491422Y-39710000D01*
%TO.C,C204*%
X44241422Y-54790000D02*
X44758578Y-54790000D01*
X44241422Y-56210000D02*
X44758578Y-56210000D01*
%TO.C,C302*%
X59197936Y-72160000D02*
X60402064Y-72160000D01*
X59197936Y-70340000D02*
X60402064Y-70340000D01*
%TO.C,C303*%
X53610000Y-71062779D02*
X53610000Y-70737221D01*
X52590000Y-71062779D02*
X52590000Y-70737221D01*
%TO.C,C305*%
X63841422Y-70490000D02*
X64358578Y-70490000D01*
X63841422Y-71910000D02*
X64358578Y-71910000D01*
%TO.C,C802*%
X89551936Y-68410000D02*
X90756064Y-68410000D01*
X89551936Y-66590000D02*
X90756064Y-66590000D01*
%TO.C,C805*%
X84892000Y-64345221D02*
X84892000Y-64670779D01*
X85912000Y-64345221D02*
X85912000Y-64670779D01*
%TO.C,D302*%
X75050000Y-61150000D02*
X75050000Y-59950000D01*
X73200000Y-61150000D02*
X75050000Y-61150000D01*
X73200000Y-59950000D02*
X75050000Y-59950000D01*
%TO.C,D501*%
X63500000Y-86050000D02*
X55100000Y-86050000D01*
X63500000Y-79550000D02*
X55100000Y-79550000D01*
X63500000Y-79550000D02*
X63500000Y-86050000D01*
%TO.C,D502*%
X65900000Y-74950000D02*
X65900000Y-77500000D01*
X64200000Y-74950000D02*
X64200000Y-77500000D01*
X65900000Y-74950000D02*
X64200000Y-74950000D01*
%TO.C,D601*%
X56050000Y-62850000D02*
X57900000Y-62850000D01*
X56050000Y-64050000D02*
X57900000Y-64050000D01*
X57900000Y-64050000D02*
X57900000Y-62850000D01*
%TO.C,D701*%
X21087000Y-39662000D02*
X21087000Y-37377000D01*
X21087000Y-37377000D02*
X19617000Y-37377000D01*
X19617000Y-37377000D02*
X19617000Y-39662000D01*
%TO.C,D702*%
X19617000Y-49950000D02*
X19617000Y-52235000D01*
X21087000Y-49950000D02*
X19617000Y-49950000D01*
X21087000Y-52235000D02*
X21087000Y-49950000D01*
%TO.C,D703*%
X21087000Y-63919000D02*
X21087000Y-61634000D01*
X21087000Y-61634000D02*
X19617000Y-61634000D01*
X19617000Y-61634000D02*
X19617000Y-63919000D01*
%TO.C,D704*%
X19617000Y-73826000D02*
X19617000Y-76111000D01*
X21087000Y-73826000D02*
X19617000Y-73826000D01*
X21087000Y-76111000D02*
X21087000Y-73826000D01*
%TO.C,D801*%
X88148000Y-74096000D02*
X82448000Y-74096000D01*
X88148000Y-69796000D02*
X82448000Y-69796000D01*
X88148000Y-74096000D02*
X88148000Y-69796000D01*
%TO.C,D802*%
X87528000Y-68500000D02*
X83678000Y-68500000D01*
X87528000Y-66500000D02*
X83678000Y-66500000D01*
X87528000Y-68500000D02*
X87528000Y-66500000D01*
%TO.C,F801*%
X90784000Y-70557936D02*
X90784000Y-71762064D01*
X92604000Y-70557936D02*
X92604000Y-71762064D01*
%TO.C,FB801*%
X90118000Y-71696578D02*
X90118000Y-71179422D01*
X88698000Y-71696578D02*
X88698000Y-71179422D01*
%TO.C,J601*%
X75110000Y-46590000D02*
X75110000Y-41390000D01*
X59810000Y-46590000D02*
X75110000Y-46590000D01*
X57210000Y-41390000D02*
X75110000Y-41390000D01*
X59810000Y-46590000D02*
X59810000Y-43990000D01*
X59810000Y-43990000D02*
X57210000Y-43990000D01*
X57210000Y-43990000D02*
X57210000Y-41390000D01*
X58540000Y-46590000D02*
X57210000Y-46590000D01*
X57210000Y-46590000D02*
X57210000Y-45260000D01*
%TO.C,Q501*%
X61540000Y-75820000D02*
X63000000Y-75820000D01*
X61540000Y-78980000D02*
X63700000Y-78980000D01*
X61540000Y-78980000D02*
X61540000Y-78050000D01*
X61540000Y-75820000D02*
X61540000Y-76750000D01*
%TO.C,R304*%
X57790000Y-66297936D02*
X57790000Y-67502064D01*
X59610000Y-66297936D02*
X59610000Y-67502064D01*
%TO.C,R601*%
X56012779Y-67467000D02*
X55687221Y-67467000D01*
X56012779Y-68487000D02*
X55687221Y-68487000D01*
%TO.C,R705*%
X77202000Y-40202779D02*
X77202000Y-39877221D01*
X78222000Y-40202779D02*
X78222000Y-39877221D01*
%TO.C,R706*%
X80508000Y-40202779D02*
X80508000Y-39877221D01*
X79488000Y-40202779D02*
X79488000Y-39877221D01*
%TO.C,R707*%
X81774000Y-40202779D02*
X81774000Y-39877221D01*
X82794000Y-40202779D02*
X82794000Y-39877221D01*
%TO.C,R708*%
X87366000Y-40177279D02*
X87366000Y-39851721D01*
X86346000Y-40177279D02*
X86346000Y-39851721D01*
%TO.C,R709*%
X84060000Y-40202779D02*
X84060000Y-39877221D01*
X85080000Y-40202779D02*
X85080000Y-39877221D01*
%TO.C,SW201*%
X43330000Y-74730000D02*
X42000000Y-74730000D01*
X43330000Y-73400000D02*
X43330000Y-74730000D01*
X43330000Y-72130000D02*
X40670000Y-72130000D01*
X40670000Y-72130000D02*
X40670000Y-69530000D01*
X43330000Y-72130000D02*
X43330000Y-69530000D01*
X43330000Y-69530000D02*
X40670000Y-69530000D01*
%TO.C,U301*%
X56410000Y-72230000D02*
X54950000Y-72230000D01*
X56410000Y-69070000D02*
X54250000Y-69070000D01*
X56410000Y-69070000D02*
X56410000Y-70000000D01*
X56410000Y-72230000D02*
X56410000Y-71300000D01*
%TO.C,U601*%
X46861000Y-44104000D02*
X46861000Y-47554000D01*
X46861000Y-44104000D02*
X46861000Y-42154000D01*
X55731000Y-44104000D02*
X55731000Y-46054000D01*
X55731000Y-44104000D02*
X55731000Y-42154000D01*
%TO.C,U802*%
X86616000Y-65268000D02*
X87546000Y-65268000D01*
X89776000Y-65268000D02*
X88846000Y-65268000D01*
X89776000Y-65268000D02*
X89776000Y-63108000D01*
X86616000Y-65268000D02*
X86616000Y-63808000D01*
%TO.C,U803*%
X83458300Y-47748900D02*
X83458300Y-51348900D01*
X83458300Y-47748900D02*
X83458300Y-45548900D01*
X90228300Y-47748900D02*
X90228300Y-49948900D01*
X90228300Y-47748900D02*
X90228300Y-45548900D01*
%TO.C,U804*%
X102169000Y-61794000D02*
X102169000Y-59514000D01*
X102459000Y-61794000D02*
X102169000Y-61794000D01*
X102459000Y-65214000D02*
X102459000Y-61794000D01*
X102459000Y-68634000D02*
X102169000Y-68634000D01*
X102459000Y-65214000D02*
X102459000Y-68634000D01*
X93089000Y-61794000D02*
X93379000Y-61794000D01*
X93089000Y-65214000D02*
X93089000Y-61794000D01*
X93089000Y-68634000D02*
X93379000Y-68634000D01*
X93089000Y-65214000D02*
X93089000Y-68634000D01*
%TO.C,Y801*%
X85732300Y-55621900D02*
X89732300Y-55621900D01*
X85732300Y-52321900D02*
X85732300Y-55621900D01*
%TD*%
M02*
