M48
; DRILL file {KiCad (5.1.8-0-10_14)} date Friday, November 27, 2020 at 03:46:18 PM
; FORMAT={-:-/ absolute / inch / decimal}
; #@! TF.CreationDate,2020-11-27T15:46:18+02:00
; #@! TF.GenerationSoftware,Kicad,Pcbnew,(5.1.8-0-10_14)
; #@! TF.FileFunction,Plated,1,4,PTH
FMAT,2
INCH
T1C0.0157
T2C0.0236
T3C0.0394
T4C0.0472
%
G90
G05
T1
X0.8366Y-0.9744
X0.8366Y-1.063
X0.8366Y-1.2205
X0.8366Y-1.4567
X0.8366Y-1.6535
X0.8366Y-1.8504
X0.8366Y-2.0472
X0.8366Y-2.2441
X0.8366Y-2.4409
X0.8366Y-2.6378
X0.85Y-1.26
X0.85Y-1.1
X0.85Y-1.42
X0.85Y-1.58
X0.8563Y-2.0079
X0.865Y-1.935
X0.868Y-2.091
X0.906Y-1.067
X0.9075Y-1.755
X0.91Y-1.94
X0.915Y-1.8625
X0.935Y-2.38
X0.94Y-1.15
X0.94Y-1.31
X0.94Y-1.47
X0.941Y-1.272
X0.943Y-1.437
X0.945Y-1.935
X0.95Y-1.58
X0.96Y-1.63
X0.965Y-1.9725
X0.98Y-1.55
X0.98Y-1.6825
X1.0039Y-1.7913
X1.04Y-1.3075
X1.04Y-1.422
X1.0433Y-0.7579
X1.0433Y-2.6772
X1.05Y-1.12
X1.0575Y-1.7275
X1.058Y-1.473
X1.063Y-2.4114
X1.073Y-1.928
X1.0852Y-1.9598
X1.09Y-1.66
X1.0925Y-1.735
X1.0925Y-2.874
X1.105Y-1.0375
X1.12Y-1.1
X1.1304Y-1.7654
X1.1375Y-1.565
X1.1398Y-1.4555
X1.15Y-1.7
X1.1579Y-1.1067
X1.16Y-1.4122
X1.1625Y-1.2925
X1.1713Y-0.748
X1.1725Y-1.235
X1.1909Y-2.874
X1.2Y-1.1
X1.2168Y-1.4146
X1.25Y-1.1
X1.25Y-2.219
X1.26Y-1.44
X1.28Y-1.02
X1.2875Y-2.0575
X1.29Y-1.095
X1.29Y-1.24
X1.29Y-1.3
X1.29Y-1.9
X1.29Y-2.0
X1.3025Y-1.5675
X1.31Y-1.2725
X1.31Y-1.41
X1.3287Y-2.874
X1.33Y-1.4375
X1.33Y-1.4715
X1.34Y-1.24
X1.3433Y-1.8101
X1.35Y-1.1
X1.36Y-1.42
X1.365Y-1.285
X1.365Y-1.485
X1.378Y-0.748
X1.378Y-1.811
X1.38Y-1.745
X1.3825Y-1.57
X1.385Y-1.06
X1.4Y-1.1
X1.405Y-2.4325
X1.41Y-1.42
X1.42Y-1.49
X1.425Y-1.905
X1.43Y-2.0225
X1.4323Y-2.2343
X1.4425Y-1.26
X1.451Y-2.21
X1.4525Y-2.3725
X1.455Y-1.03
X1.4764Y-2.874
X1.48Y-1.93
X1.4825Y-2.1375
X1.4875Y-2.215
X1.525Y-2.21
X1.53Y-2.13
X1.54Y-1.97
X1.545Y-1.5325
X1.545Y-1.63
X1.5525Y-2.32
X1.565Y-1.8575
X1.5748Y-0.748
X1.585Y-1.9725
X1.6075Y-1.035
X1.6125Y-2.4825
X1.65Y-2.26
X1.6509Y-2.874
X1.66Y-1.96
X1.675Y-1.255
X1.675Y-1.515
X1.7175Y-2.14
X1.75Y-1.9575
X1.7525Y-2.365
X1.755Y-2.255
X1.7815Y-0.748
X1.7875Y-1.035
X1.805Y-1.52
X1.8075Y-1.3725
X1.81Y-1.14
X1.8225Y-2.2925
X1.8504Y-2.874
X1.8525Y-2.545
X1.875Y-1.255
X1.8775Y-1.04
X1.8875Y-1.39
X1.8875Y-1.52
X1.89Y-1.1225
X1.935Y-2.695
X1.939Y-2.874
X1.9675Y-1.04
X1.9685Y-0.748
X1.975Y-1.405
X1.9775Y-1.105
X1.9975Y-1.8475
X2.0175Y-1.93
X2.0325Y-2.3725
X2.035Y-1.4375
X2.05Y-2.17
X2.0965Y-2.874
X2.12Y-1.84
X2.165Y-2.2625
X2.1675Y-1.0
X2.1675Y-2.3825
X2.17Y-1.53
X2.1752Y-0.748
X2.2Y-2.07
X2.2Y-2.165
X2.2025Y-1.4275
X2.21Y-1.2875
X2.2175Y-1.13
X2.2175Y-1.23
X2.235Y-2.07
X2.2425Y-0.9725
X2.2539Y-2.6575
X2.2539Y-2.874
X2.2638Y-2.4705
X2.2835Y-2.1752
X2.285Y-1.535
X2.313Y-2.0866
X2.318Y-1.3645
X2.3275Y-1.1025
X2.3524Y-1.565
X2.3575Y-1.0175
X2.36Y-1.17
X2.3622Y-0.748
X2.3819Y-1.5354
X2.3819Y-1.9488
X2.3825Y-1.225
X2.4114Y-2.372
X2.4114Y-2.5886
X2.4114Y-2.6969
X2.4114Y-2.7953
X2.4114Y-2.8937
X2.415Y-1.0975
X2.4213Y-2.2244
X2.4508Y-1.8406
X2.4508Y-2.1457
X2.4625Y-1.17
X2.4671Y-1.2561
X2.473Y-1.456
X2.48Y-1.3725
X2.4825Y-1.0
X2.485Y-2.25
X2.505Y-1.09
X2.5245Y-1.7685
X2.5295Y-2.8937
X2.5575Y-1.345
X2.58Y-1.8425
X2.58Y-2.1425
X2.585Y-1.2375
X2.5886Y-0.748
X2.5896Y-1.6686
X2.595Y-1.0675
X2.595Y-1.135
X2.595Y-1.425
X2.6Y-2.085
X2.6Y-2.435
X2.6375Y-1.355
X2.64Y-1.465
X2.6495Y-1.7335
X2.657Y-1.8135
X2.664Y-1.653
X2.6675Y-2.2425
X2.67Y-1.1575
X2.6875Y-1.0775
X2.6875Y-1.1975
X2.6969Y-2.8937
X2.7095Y-1.6446
X2.7165Y-2.0472
X2.73Y-1.1297
X2.73Y-1.223
X2.75Y-1.425
X2.7645Y-1.7685
X2.7745Y-1.6935
X2.7775Y-1.3525
X2.781Y-1.5165
X2.7845Y-1.5835
X2.7854Y-0.748
X2.8Y-2.05
X2.8051Y-2.1063
X2.8175Y-1.065
X2.8175Y-1.145
X2.8543Y-1.8996
X2.86Y-1.5
X2.8642Y-2.8937
X2.8725Y-1.2675
X2.875Y-1.63
X2.9125Y-2.4925
X2.9225Y-1.46
X2.9229Y-1.91
X2.95Y-1.08
X2.9525Y-1.005
X2.9575Y-1.975
X2.97Y-2.335
X2.9712Y-2.4653
X2.9724Y-0.748
X2.9775Y-1.165
X2.98Y-1.8925
X2.98Y-2.435
X2.9825Y-1.53
X3.0315Y-2.8937
X3.0475Y-2.395
X3.065Y-1.915
X3.065Y-2.5325
X3.0675Y-2.2625
X3.07Y-1.765
X3.085Y-2.46
X3.0975Y-1.98
X3.1004Y-0.9449
X3.1004Y-2.6772
X3.1102Y-0.748
X3.1102Y-2.8937
X3.1496Y-1.8307
X3.16Y-1.5975
X3.1693Y-2.2539
X3.18Y-2.463
X3.3071Y-0.9843
X3.3071Y-1.378
X3.3071Y-1.7717
X3.3071Y-1.9291
X3.3071Y-2.2539
X3.3169Y-1.5748
X3.3169Y-2.3622
X3.3169Y-2.4803
X3.3169Y-2.6673
X3.32Y-1.1811
T2
X1.0335Y-1.8898
X1.0531Y-1.1713
X1.06Y-1.01
X1.1625Y-2.4475
X1.23Y-2.01
X1.2402Y-1.6043
X1.2697Y-1.8602
X1.3091Y-1.7126
X1.41Y-1.8525
X1.43Y-2.31
X1.437Y-1.7323
X1.5945Y-2.0965
X1.64Y-2.21
X1.6634Y-2.0279
X1.6804Y-2.7559
X1.7592Y-2.7559
X1.8379Y-2.7559
X1.89Y-2.42
X1.91Y-2.17
X1.98Y-1.97
X2.12Y-1.93
X2.2146Y-1.998
X2.2638Y-1.8012
X2.313Y-1.939
X2.395Y-1.34
X2.7657Y-2.2638
X2.7657Y-2.4213
X2.7756Y-2.185
X2.815Y-2.2638
X2.815Y-2.4213
X2.8839Y-1.8504
X2.96Y-2.27
X3.155Y-2.39
X3.18Y-2.3031
X3.27Y-1.86
T3
X1.5252Y-1.2055
X1.5252Y-1.3055
X1.6252Y-1.2055
X1.6252Y-1.3055
X1.7252Y-1.2055
X1.7252Y-1.3055
X1.8252Y-1.2055
X1.8252Y-1.3055
X1.9252Y-1.2055
X1.9252Y-1.3055
X2.0252Y-1.2055
X2.0252Y-1.3055
X2.1252Y-1.2055
X2.1252Y-1.3055
X1.295Y-2.1275
X2.3525Y-1.8375
X0.97Y-2.48
X0.97Y-2.58
X2.53Y-2.06
X1.6Y-2.3758
X1.1249Y-0.806
X1.1249Y-0.906
X1.2249Y-0.806
X1.2249Y-0.906
X1.3249Y-0.806
X1.3249Y-0.906
X1.4249Y-0.806
X1.4249Y-0.906
X1.5249Y-0.806
X1.5249Y-0.906
X1.6249Y-0.806
X1.6249Y-0.906
X1.7249Y-0.806
X1.7249Y-0.906
X1.8249Y-0.806
X1.8249Y-0.906
X1.9249Y-0.806
X1.9249Y-0.906
X2.0249Y-0.806
X2.0249Y-0.906
X2.1249Y-0.806
X2.1249Y-0.906
X2.2249Y-0.806
X2.2249Y-0.906
X2.3249Y-0.806
X2.3249Y-0.906
X2.4249Y-0.806
X2.4249Y-0.906
X2.5249Y-0.806
X2.5249Y-0.906
X2.6249Y-0.806
X2.6249Y-0.906
X2.7249Y-0.806
X2.7249Y-0.906
X2.8249Y-0.806
X2.8249Y-0.906
X2.9249Y-0.806
X2.9249Y-0.906
X3.0249Y-0.806
X3.0249Y-0.906
T4
X1.185Y-2.6
X1.335Y-2.6
X1.485Y-2.6
X2.51Y-2.6
X2.66Y-2.6
X2.81Y-2.6
X2.96Y-2.6
X2.0276Y-2.5984
X2.1776Y-2.5984
T0
M30
