%TF.GenerationSoftware,KiCad,Pcbnew,(5.1.8-0-10_14)*%
%TF.CreationDate,2020-11-27T15:46:17+02:00*%
%TF.ProjectId,SH-RPi,53482d52-5069-42e6-9b69-6361645f7063,revL*%
%TF.SameCoordinates,Original*%
%TF.FileFunction,Legend,Top*%
%TF.FilePolarity,Positive*%
%FSLAX46Y46*%
G04 Gerber Fmt 4.6, Leading zero omitted, Abs format (unit mm)*
G04 Created by KiCad (PCBNEW (5.1.8-0-10_14)) date 2020-11-27 15:46:17*
%MOMM*%
%LPD*%
G01*
G04 APERTURE LIST*
%ADD10C,0.153000*%
%ADD11C,0.120000*%
%ADD12C,0.200000*%
%ADD13C,0.300000*%
%ADD14C,0.150000*%
%ADD15C,0.250000*%
%ADD16C,0.375000*%
%ADD17C,0.100000*%
G04 APERTURE END LIST*
D10*
X79229142Y-65855904D02*
X79686285Y-65855904D01*
X79457714Y-66655904D02*
X79457714Y-65855904D01*
X80257714Y-66617809D02*
X80181523Y-66655904D01*
X80029142Y-66655904D01*
X79952952Y-66617809D01*
X79914857Y-66541619D01*
X79914857Y-66236857D01*
X79952952Y-66160666D01*
X80029142Y-66122571D01*
X80181523Y-66122571D01*
X80257714Y-66160666D01*
X80295809Y-66236857D01*
X80295809Y-66313047D01*
X79914857Y-66389238D01*
X80638666Y-66655904D02*
X80638666Y-66122571D01*
X80638666Y-66274952D02*
X80676761Y-66198761D01*
X80714857Y-66160666D01*
X80791047Y-66122571D01*
X80867238Y-66122571D01*
X81133904Y-66655904D02*
X81133904Y-66122571D01*
X81133904Y-66198761D02*
X81172000Y-66160666D01*
X81248190Y-66122571D01*
X81362476Y-66122571D01*
X81438666Y-66160666D01*
X81476761Y-66236857D01*
X81476761Y-66655904D01*
X81476761Y-66236857D02*
X81514857Y-66160666D01*
X81591047Y-66122571D01*
X81705333Y-66122571D01*
X81781523Y-66160666D01*
X81819619Y-66236857D01*
X81819619Y-66655904D01*
X82200571Y-66579714D02*
X82238666Y-66617809D01*
X82200571Y-66655904D01*
X82162476Y-66617809D01*
X82200571Y-66579714D01*
X82200571Y-66655904D01*
D11*
X66922666Y-30257714D02*
X66884571Y-30295809D01*
X66770285Y-30333904D01*
X66694095Y-30333904D01*
X66579809Y-30295809D01*
X66503619Y-30219619D01*
X66465523Y-30143428D01*
X66427428Y-29991047D01*
X66427428Y-29876761D01*
X66465523Y-29724380D01*
X66503619Y-29648190D01*
X66579809Y-29572000D01*
X66694095Y-29533904D01*
X66770285Y-29533904D01*
X66884571Y-29572000D01*
X66922666Y-29610095D01*
X67227428Y-30295809D02*
X67341714Y-30333904D01*
X67532190Y-30333904D01*
X67608380Y-30295809D01*
X67646476Y-30257714D01*
X67684571Y-30181523D01*
X67684571Y-30105333D01*
X67646476Y-30029142D01*
X67608380Y-29991047D01*
X67532190Y-29952952D01*
X67379809Y-29914857D01*
X67303619Y-29876761D01*
X67265523Y-29838666D01*
X67227428Y-29762476D01*
X67227428Y-29686285D01*
X67265523Y-29610095D01*
X67303619Y-29572000D01*
X67379809Y-29533904D01*
X67570285Y-29533904D01*
X67684571Y-29572000D01*
X64046190Y-30333904D02*
X64046190Y-29533904D01*
X64427142Y-30333904D02*
X64427142Y-29533904D01*
X64884285Y-30333904D01*
X64884285Y-29533904D01*
X65150952Y-29533904D02*
X65608095Y-29533904D01*
X65379523Y-30333904D02*
X65379523Y-29533904D01*
X61455428Y-30295809D02*
X61569714Y-30333904D01*
X61760190Y-30333904D01*
X61836380Y-30295809D01*
X61874476Y-30257714D01*
X61912571Y-30181523D01*
X61912571Y-30105333D01*
X61874476Y-30029142D01*
X61836380Y-29991047D01*
X61760190Y-29952952D01*
X61607809Y-29914857D01*
X61531619Y-29876761D01*
X61493523Y-29838666D01*
X61455428Y-29762476D01*
X61455428Y-29686285D01*
X61493523Y-29610095D01*
X61531619Y-29572000D01*
X61607809Y-29533904D01*
X61798285Y-29533904D01*
X61912571Y-29572000D01*
X62712571Y-30257714D02*
X62674476Y-30295809D01*
X62560190Y-30333904D01*
X62484000Y-30333904D01*
X62369714Y-30295809D01*
X62293523Y-30219619D01*
X62255428Y-30143428D01*
X62217333Y-29991047D01*
X62217333Y-29876761D01*
X62255428Y-29724380D01*
X62293523Y-29648190D01*
X62369714Y-29572000D01*
X62484000Y-29533904D01*
X62560190Y-29533904D01*
X62674476Y-29572000D01*
X62712571Y-29610095D01*
X63055428Y-30333904D02*
X63055428Y-29533904D01*
X63512571Y-30333904D02*
X63169714Y-29876761D01*
X63512571Y-29533904D02*
X63055428Y-29991047D01*
X59550380Y-30295809D02*
X59664666Y-30333904D01*
X59855142Y-30333904D01*
X59931333Y-30295809D01*
X59969428Y-30257714D01*
X60007523Y-30181523D01*
X60007523Y-30105333D01*
X59969428Y-30029142D01*
X59931333Y-29991047D01*
X59855142Y-29952952D01*
X59702761Y-29914857D01*
X59626571Y-29876761D01*
X59588476Y-29838666D01*
X59550380Y-29762476D01*
X59550380Y-29686285D01*
X59588476Y-29610095D01*
X59626571Y-29572000D01*
X59702761Y-29533904D01*
X59893238Y-29533904D01*
X60007523Y-29572000D01*
X60502761Y-29533904D02*
X60655142Y-29533904D01*
X60731333Y-29572000D01*
X60807523Y-29648190D01*
X60845619Y-29800571D01*
X60845619Y-30067238D01*
X60807523Y-30219619D01*
X60731333Y-30295809D01*
X60655142Y-30333904D01*
X60502761Y-30333904D01*
X60426571Y-30295809D01*
X60350380Y-30219619D01*
X60312285Y-30067238D01*
X60312285Y-29800571D01*
X60350380Y-29648190D01*
X60426571Y-29572000D01*
X60502761Y-29533904D01*
X57492952Y-30295809D02*
X57607238Y-30333904D01*
X57797714Y-30333904D01*
X57873904Y-30295809D01*
X57912000Y-30257714D01*
X57950095Y-30181523D01*
X57950095Y-30105333D01*
X57912000Y-30029142D01*
X57873904Y-29991047D01*
X57797714Y-29952952D01*
X57645333Y-29914857D01*
X57569142Y-29876761D01*
X57531047Y-29838666D01*
X57492952Y-29762476D01*
X57492952Y-29686285D01*
X57531047Y-29610095D01*
X57569142Y-29572000D01*
X57645333Y-29533904D01*
X57835809Y-29533904D01*
X57950095Y-29572000D01*
X58292952Y-30333904D02*
X58292952Y-29533904D01*
D12*
X63989642Y-68875357D02*
X63989642Y-69732500D01*
X63932500Y-69903928D01*
X63818214Y-70018214D01*
X63646785Y-70075357D01*
X63532500Y-70075357D01*
X65132500Y-70075357D02*
X64561071Y-70075357D01*
X64561071Y-68875357D01*
X66218214Y-69961071D02*
X66161071Y-70018214D01*
X65989642Y-70075357D01*
X65875357Y-70075357D01*
X65703928Y-70018214D01*
X65589642Y-69903928D01*
X65532500Y-69789642D01*
X65475357Y-69561071D01*
X65475357Y-69389642D01*
X65532500Y-69161071D01*
X65589642Y-69046785D01*
X65703928Y-68932500D01*
X65875357Y-68875357D01*
X65989642Y-68875357D01*
X66161071Y-68932500D01*
X66218214Y-68989642D01*
X67075357Y-68875357D02*
X67075357Y-69732500D01*
X67018214Y-69903928D01*
X66903928Y-70018214D01*
X66732500Y-70075357D01*
X66618214Y-70075357D01*
X68218214Y-70075357D02*
X67646785Y-70075357D01*
X67646785Y-68875357D01*
X69303928Y-69961071D02*
X69246785Y-70018214D01*
X69075357Y-70075357D01*
X68961071Y-70075357D01*
X68789642Y-70018214D01*
X68675357Y-69903928D01*
X68618214Y-69789642D01*
X68561071Y-69561071D01*
X68561071Y-69389642D01*
X68618214Y-69161071D01*
X68675357Y-69046785D01*
X68789642Y-68932500D01*
X68961071Y-68875357D01*
X69075357Y-68875357D01*
X69246785Y-68932500D01*
X69303928Y-68989642D01*
X70161071Y-68875357D02*
X70161071Y-69732500D01*
X70103928Y-69903928D01*
X69989642Y-70018214D01*
X69818214Y-70075357D01*
X69703928Y-70075357D01*
X71303928Y-70075357D02*
X70732500Y-70075357D01*
X70732500Y-68875357D01*
X72389642Y-69961071D02*
X72332500Y-70018214D01*
X72161071Y-70075357D01*
X72046785Y-70075357D01*
X71875357Y-70018214D01*
X71761071Y-69903928D01*
X71703928Y-69789642D01*
X71646785Y-69561071D01*
X71646785Y-69389642D01*
X71703928Y-69161071D01*
X71761071Y-69046785D01*
X71875357Y-68932500D01*
X72046785Y-68875357D01*
X72161071Y-68875357D01*
X72332500Y-68932500D01*
X72389642Y-68989642D01*
X73246785Y-68875357D02*
X73246785Y-69732500D01*
X73189642Y-69903928D01*
X73075357Y-70018214D01*
X72903928Y-70075357D01*
X72789642Y-70075357D01*
X74389642Y-70075357D02*
X73818214Y-70075357D01*
X73818214Y-68875357D01*
X75475357Y-69961071D02*
X75418214Y-70018214D01*
X75246785Y-70075357D01*
X75132500Y-70075357D01*
X74961071Y-70018214D01*
X74846785Y-69903928D01*
X74789642Y-69789642D01*
X74732500Y-69561071D01*
X74732500Y-69389642D01*
X74789642Y-69161071D01*
X74846785Y-69046785D01*
X74961071Y-68932500D01*
X75132500Y-68875357D01*
X75246785Y-68875357D01*
X75418214Y-68932500D01*
X75475357Y-68989642D01*
D13*
X51202457Y-41622571D02*
X51459600Y-41708285D01*
X51888171Y-41708285D01*
X52059600Y-41622571D01*
X52145314Y-41536857D01*
X52231028Y-41365428D01*
X52231028Y-41194000D01*
X52145314Y-41022571D01*
X52059600Y-40936857D01*
X51888171Y-40851142D01*
X51545314Y-40765428D01*
X51373885Y-40679714D01*
X51288171Y-40594000D01*
X51202457Y-40422571D01*
X51202457Y-40251142D01*
X51288171Y-40079714D01*
X51373885Y-39994000D01*
X51545314Y-39908285D01*
X51973885Y-39908285D01*
X52231028Y-39994000D01*
X53773885Y-41708285D02*
X53773885Y-40765428D01*
X53688171Y-40594000D01*
X53516742Y-40508285D01*
X53173885Y-40508285D01*
X53002457Y-40594000D01*
X53773885Y-41622571D02*
X53602457Y-41708285D01*
X53173885Y-41708285D01*
X53002457Y-41622571D01*
X52916742Y-41451142D01*
X52916742Y-41279714D01*
X53002457Y-41108285D01*
X53173885Y-41022571D01*
X53602457Y-41022571D01*
X53773885Y-40936857D01*
X54631028Y-41708285D02*
X54631028Y-40508285D01*
X54631028Y-39908285D02*
X54545314Y-39994000D01*
X54631028Y-40079714D01*
X54716742Y-39994000D01*
X54631028Y-39908285D01*
X54631028Y-40079714D01*
X55745314Y-41708285D02*
X55573885Y-41622571D01*
X55488171Y-41451142D01*
X55488171Y-39908285D01*
X56688171Y-41708285D02*
X56516742Y-41622571D01*
X56431028Y-41536857D01*
X56345314Y-41365428D01*
X56345314Y-40851142D01*
X56431028Y-40679714D01*
X56516742Y-40594000D01*
X56688171Y-40508285D01*
X56945314Y-40508285D01*
X57116742Y-40594000D01*
X57202457Y-40679714D01*
X57288171Y-40851142D01*
X57288171Y-41365428D01*
X57202457Y-41536857D01*
X57116742Y-41622571D01*
X56945314Y-41708285D01*
X56688171Y-41708285D01*
X58059600Y-41708285D02*
X58059600Y-40508285D01*
X58059600Y-40851142D02*
X58145314Y-40679714D01*
X58231028Y-40594000D01*
X58402457Y-40508285D01*
X58573885Y-40508285D01*
X60545314Y-41708285D02*
X60545314Y-39908285D01*
X60545314Y-40765428D02*
X61573885Y-40765428D01*
X61573885Y-41708285D02*
X61573885Y-39908285D01*
X63202457Y-41708285D02*
X63202457Y-40765428D01*
X63116742Y-40594000D01*
X62945314Y-40508285D01*
X62602457Y-40508285D01*
X62431028Y-40594000D01*
X63202457Y-41622571D02*
X63031028Y-41708285D01*
X62602457Y-41708285D01*
X62431028Y-41622571D01*
X62345314Y-41451142D01*
X62345314Y-41279714D01*
X62431028Y-41108285D01*
X62602457Y-41022571D01*
X63031028Y-41022571D01*
X63202457Y-40936857D01*
X63802457Y-40508285D02*
X64488171Y-40508285D01*
X64059600Y-39908285D02*
X64059600Y-41451142D01*
X64145314Y-41622571D01*
X64316742Y-41708285D01*
X64488171Y-41708285D01*
D14*
X71478481Y-31198095D02*
X71478481Y-31265438D01*
X71411137Y-31400125D01*
X71343794Y-31467469D01*
X71209107Y-31534812D01*
X71074420Y-31534812D01*
X70973404Y-31501140D01*
X70805046Y-31400125D01*
X70704030Y-31299110D01*
X70603015Y-31130751D01*
X70569343Y-31029736D01*
X70569343Y-30895049D01*
X70636687Y-30760362D01*
X70704030Y-30693018D01*
X70838717Y-30625675D01*
X70906061Y-30625675D01*
X72252931Y-30558331D02*
X71680511Y-30457316D01*
X71848870Y-30962392D02*
X71141763Y-30255286D01*
X71411137Y-29985912D01*
X71512152Y-29952240D01*
X71579496Y-29952240D01*
X71680511Y-29985912D01*
X71781526Y-30086927D01*
X71815198Y-30187942D01*
X71815198Y-30255286D01*
X71781526Y-30356301D01*
X71512152Y-30625675D01*
X72926366Y-29884896D02*
X72522305Y-30288957D01*
X72724335Y-30086927D02*
X72017229Y-29379820D01*
X72050900Y-29548179D01*
X72050900Y-29682866D01*
X72017229Y-29783881D01*
X72555977Y-28975759D02*
X72555977Y-28908416D01*
X72589648Y-28807400D01*
X72758007Y-28639042D01*
X72859022Y-28605370D01*
X72926366Y-28605370D01*
X73027381Y-28639042D01*
X73094725Y-28706385D01*
X73162068Y-28841072D01*
X73162068Y-29649194D01*
X73599801Y-29211461D01*
X73229412Y-28302324D02*
X73229412Y-28234981D01*
X73263083Y-28133965D01*
X73431442Y-27965607D01*
X73532457Y-27931935D01*
X73599801Y-27931935D01*
X73700816Y-27965607D01*
X73768160Y-28032950D01*
X73835503Y-28167637D01*
X73835503Y-28975759D01*
X74273236Y-28538026D01*
X74003862Y-27393187D02*
X74071205Y-27325843D01*
X74172221Y-27292172D01*
X74239564Y-27292172D01*
X74340579Y-27325843D01*
X74508938Y-27426859D01*
X74677297Y-27595217D01*
X74778312Y-27763576D01*
X74811984Y-27864591D01*
X74811984Y-27931935D01*
X74778312Y-28032950D01*
X74710969Y-28100294D01*
X74609953Y-28133965D01*
X74542610Y-28133965D01*
X74441595Y-28100294D01*
X74273236Y-27999278D01*
X74104877Y-27830920D01*
X74003862Y-27662561D01*
X73970190Y-27561546D01*
X73970190Y-27494202D01*
X74003862Y-27393187D01*
D11*
X54298809Y-36717238D02*
X54336904Y-36602952D01*
X54336904Y-36412476D01*
X54298809Y-36336285D01*
X54260714Y-36298190D01*
X54184523Y-36260095D01*
X54108333Y-36260095D01*
X54032142Y-36298190D01*
X53994047Y-36336285D01*
X53955952Y-36412476D01*
X53917857Y-36564857D01*
X53879761Y-36641047D01*
X53841666Y-36679142D01*
X53765476Y-36717238D01*
X53689285Y-36717238D01*
X53613095Y-36679142D01*
X53575000Y-36641047D01*
X53536904Y-36564857D01*
X53536904Y-36374380D01*
X53575000Y-36260095D01*
X54336904Y-35917238D02*
X53536904Y-35917238D01*
X53536904Y-35726761D01*
X53575000Y-35612476D01*
X53651190Y-35536285D01*
X53727380Y-35498190D01*
X53879761Y-35460095D01*
X53994047Y-35460095D01*
X54146428Y-35498190D01*
X54222619Y-35536285D01*
X54298809Y-35612476D01*
X54336904Y-35726761D01*
X54336904Y-35917238D01*
X54108333Y-35155333D02*
X54108333Y-34774380D01*
X54336904Y-35231523D02*
X53536904Y-34964857D01*
X54336904Y-34698190D01*
X51796904Y-36983904D02*
X51796904Y-37364857D01*
X50996904Y-37364857D01*
X51377857Y-36717238D02*
X51377857Y-36450571D01*
X51796904Y-36336285D02*
X51796904Y-36717238D01*
X50996904Y-36717238D01*
X50996904Y-36336285D01*
X51796904Y-35993428D02*
X50996904Y-35993428D01*
X50996904Y-35802952D01*
X51035000Y-35688666D01*
X51111190Y-35612476D01*
X51187380Y-35574380D01*
X51339761Y-35536285D01*
X51454047Y-35536285D01*
X51606428Y-35574380D01*
X51682619Y-35612476D01*
X51758809Y-35688666D01*
X51796904Y-35802952D01*
X51796904Y-35993428D01*
X51073095Y-35231523D02*
X51035000Y-35193428D01*
X50996904Y-35117238D01*
X50996904Y-34926761D01*
X51035000Y-34850571D01*
X51073095Y-34812476D01*
X51149285Y-34774380D01*
X51225476Y-34774380D01*
X51339761Y-34812476D01*
X51796904Y-35269619D01*
X51796904Y-34774380D01*
X49256904Y-36983904D02*
X49256904Y-37364857D01*
X48456904Y-37364857D01*
X48837857Y-36717238D02*
X48837857Y-36450571D01*
X49256904Y-36336285D02*
X49256904Y-36717238D01*
X48456904Y-36717238D01*
X48456904Y-36336285D01*
X49256904Y-35993428D02*
X48456904Y-35993428D01*
X48456904Y-35802952D01*
X48495000Y-35688666D01*
X48571190Y-35612476D01*
X48647380Y-35574380D01*
X48799761Y-35536285D01*
X48914047Y-35536285D01*
X49066428Y-35574380D01*
X49142619Y-35612476D01*
X49218809Y-35688666D01*
X49256904Y-35802952D01*
X49256904Y-35993428D01*
X49256904Y-34774380D02*
X49256904Y-35231523D01*
X49256904Y-35002952D02*
X48456904Y-35002952D01*
X48571190Y-35079142D01*
X48647380Y-35155333D01*
X48685476Y-35231523D01*
X46716904Y-37593428D02*
X46335952Y-37860095D01*
X46716904Y-38050571D02*
X45916904Y-38050571D01*
X45916904Y-37745809D01*
X45955000Y-37669619D01*
X45993095Y-37631523D01*
X46069285Y-37593428D01*
X46183571Y-37593428D01*
X46259761Y-37631523D01*
X46297857Y-37669619D01*
X46335952Y-37745809D01*
X46335952Y-38050571D01*
X46297857Y-37250571D02*
X46297857Y-36983904D01*
X46716904Y-36869619D02*
X46716904Y-37250571D01*
X45916904Y-37250571D01*
X45916904Y-36869619D01*
X46678809Y-36564857D02*
X46716904Y-36450571D01*
X46716904Y-36260095D01*
X46678809Y-36183904D01*
X46640714Y-36145809D01*
X46564523Y-36107714D01*
X46488333Y-36107714D01*
X46412142Y-36145809D01*
X46374047Y-36183904D01*
X46335952Y-36260095D01*
X46297857Y-36412476D01*
X46259761Y-36488666D01*
X46221666Y-36526761D01*
X46145476Y-36564857D01*
X46069285Y-36564857D01*
X45993095Y-36526761D01*
X45955000Y-36488666D01*
X45916904Y-36412476D01*
X45916904Y-36222000D01*
X45955000Y-36107714D01*
X46297857Y-35764857D02*
X46297857Y-35498190D01*
X46716904Y-35383904D02*
X46716904Y-35764857D01*
X45916904Y-35764857D01*
X45916904Y-35383904D01*
X45916904Y-35155333D02*
X45916904Y-34698190D01*
X46716904Y-34926761D02*
X45916904Y-34926761D01*
X44176904Y-36983904D02*
X44176904Y-37364857D01*
X43376904Y-37364857D01*
X43757857Y-36717238D02*
X43757857Y-36450571D01*
X44176904Y-36336285D02*
X44176904Y-36717238D01*
X43376904Y-36717238D01*
X43376904Y-36336285D01*
X44176904Y-35993428D02*
X43376904Y-35993428D01*
X43376904Y-35802952D01*
X43415000Y-35688666D01*
X43491190Y-35612476D01*
X43567380Y-35574380D01*
X43719761Y-35536285D01*
X43834047Y-35536285D01*
X43986428Y-35574380D01*
X44062619Y-35612476D01*
X44138809Y-35688666D01*
X44176904Y-35802952D01*
X44176904Y-35993428D01*
X43376904Y-35041047D02*
X43376904Y-34964857D01*
X43415000Y-34888666D01*
X43453095Y-34850571D01*
X43529285Y-34812476D01*
X43681666Y-34774380D01*
X43872142Y-34774380D01*
X44024523Y-34812476D01*
X44100714Y-34850571D01*
X44138809Y-34888666D01*
X44176904Y-34964857D01*
X44176904Y-35041047D01*
X44138809Y-35117238D01*
X44100714Y-35155333D01*
X44024523Y-35193428D01*
X43872142Y-35231523D01*
X43681666Y-35231523D01*
X43529285Y-35193428D01*
X43453095Y-35155333D01*
X43415000Y-35117238D01*
X43376904Y-35041047D01*
X41636904Y-36793428D02*
X40836904Y-36793428D01*
X40836904Y-36488666D01*
X40875000Y-36412476D01*
X40913095Y-36374380D01*
X40989285Y-36336285D01*
X41103571Y-36336285D01*
X41179761Y-36374380D01*
X41217857Y-36412476D01*
X41255952Y-36488666D01*
X41255952Y-36793428D01*
X41217857Y-35726761D02*
X41255952Y-35612476D01*
X41294047Y-35574380D01*
X41370238Y-35536285D01*
X41484523Y-35536285D01*
X41560714Y-35574380D01*
X41598809Y-35612476D01*
X41636904Y-35688666D01*
X41636904Y-35993428D01*
X40836904Y-35993428D01*
X40836904Y-35726761D01*
X40875000Y-35650571D01*
X40913095Y-35612476D01*
X40989285Y-35574380D01*
X41065476Y-35574380D01*
X41141666Y-35612476D01*
X41179761Y-35650571D01*
X41217857Y-35726761D01*
X41217857Y-35993428D01*
X40836904Y-35041047D02*
X40836904Y-34964857D01*
X40875000Y-34888666D01*
X40913095Y-34850571D01*
X40989285Y-34812476D01*
X41141666Y-34774380D01*
X41332142Y-34774380D01*
X41484523Y-34812476D01*
X41560714Y-34850571D01*
X41598809Y-34888666D01*
X41636904Y-34964857D01*
X41636904Y-35041047D01*
X41598809Y-35117238D01*
X41560714Y-35155333D01*
X41484523Y-35193428D01*
X41332142Y-35231523D01*
X41141666Y-35231523D01*
X40989285Y-35193428D01*
X40913095Y-35155333D01*
X40875000Y-35117238D01*
X40836904Y-35041047D01*
X38296904Y-36602952D02*
X39096904Y-36336285D01*
X38296904Y-36069619D01*
X39058809Y-35460095D02*
X39096904Y-35536285D01*
X39096904Y-35688666D01*
X39058809Y-35764857D01*
X39020714Y-35802952D01*
X38944523Y-35841047D01*
X38715952Y-35841047D01*
X38639761Y-35802952D01*
X38601666Y-35764857D01*
X38563571Y-35688666D01*
X38563571Y-35536285D01*
X38601666Y-35460095D01*
X39058809Y-34774380D02*
X39096904Y-34850571D01*
X39096904Y-35002952D01*
X39058809Y-35079142D01*
X39020714Y-35117238D01*
X38944523Y-35155333D01*
X38715952Y-35155333D01*
X38639761Y-35117238D01*
X38601666Y-35079142D01*
X38563571Y-35002952D01*
X38563571Y-34850571D01*
X38601666Y-34774380D01*
X54336904Y-28941523D02*
X53536904Y-28941523D01*
X53536904Y-28636761D01*
X53575000Y-28560571D01*
X53613095Y-28522476D01*
X53689285Y-28484380D01*
X53803571Y-28484380D01*
X53879761Y-28522476D01*
X53917857Y-28560571D01*
X53955952Y-28636761D01*
X53955952Y-28941523D01*
X54108333Y-28179619D02*
X54108333Y-27798666D01*
X54336904Y-28255809D02*
X53536904Y-27989142D01*
X54336904Y-27722476D01*
X53536904Y-27074857D02*
X53536904Y-27455809D01*
X53917857Y-27493904D01*
X53879761Y-27455809D01*
X53841666Y-27379619D01*
X53841666Y-27189142D01*
X53879761Y-27112952D01*
X53917857Y-27074857D01*
X53994047Y-27036761D01*
X54184523Y-27036761D01*
X54260714Y-27074857D01*
X54298809Y-27112952D01*
X54336904Y-27189142D01*
X54336904Y-27379619D01*
X54298809Y-27455809D01*
X54260714Y-27493904D01*
X51758809Y-28979619D02*
X51796904Y-28865333D01*
X51796904Y-28674857D01*
X51758809Y-28598666D01*
X51720714Y-28560571D01*
X51644523Y-28522476D01*
X51568333Y-28522476D01*
X51492142Y-28560571D01*
X51454047Y-28598666D01*
X51415952Y-28674857D01*
X51377857Y-28827238D01*
X51339761Y-28903428D01*
X51301666Y-28941523D01*
X51225476Y-28979619D01*
X51149285Y-28979619D01*
X51073095Y-28941523D01*
X51035000Y-28903428D01*
X50996904Y-28827238D01*
X50996904Y-28636761D01*
X51035000Y-28522476D01*
X51720714Y-27722476D02*
X51758809Y-27760571D01*
X51796904Y-27874857D01*
X51796904Y-27951047D01*
X51758809Y-28065333D01*
X51682619Y-28141523D01*
X51606428Y-28179619D01*
X51454047Y-28217714D01*
X51339761Y-28217714D01*
X51187380Y-28179619D01*
X51111190Y-28141523D01*
X51035000Y-28065333D01*
X50996904Y-27951047D01*
X50996904Y-27874857D01*
X51035000Y-27760571D01*
X51073095Y-27722476D01*
X51796904Y-26998666D02*
X51796904Y-27379619D01*
X50996904Y-27379619D01*
X48837857Y-28941523D02*
X48837857Y-28674857D01*
X49256904Y-28560571D02*
X49256904Y-28941523D01*
X48456904Y-28941523D01*
X48456904Y-28560571D01*
X49256904Y-28217714D02*
X48456904Y-28217714D01*
X49256904Y-27760571D01*
X48456904Y-27760571D01*
X48456904Y-26998666D02*
X48456904Y-27379619D01*
X48837857Y-27417714D01*
X48799761Y-27379619D01*
X48761666Y-27303428D01*
X48761666Y-27112952D01*
X48799761Y-27036761D01*
X48837857Y-26998666D01*
X48914047Y-26960571D01*
X49104523Y-26960571D01*
X49180714Y-26998666D01*
X49218809Y-27036761D01*
X49256904Y-27112952D01*
X49256904Y-27303428D01*
X49218809Y-27379619D01*
X49180714Y-27417714D01*
X48456904Y-26732000D02*
X49256904Y-26465333D01*
X48456904Y-26198666D01*
X45916904Y-29182809D02*
X46716904Y-28916142D01*
X45916904Y-28649476D01*
X46678809Y-28039952D02*
X46716904Y-28116142D01*
X46716904Y-28268523D01*
X46678809Y-28344714D01*
X46640714Y-28382809D01*
X46564523Y-28420904D01*
X46335952Y-28420904D01*
X46259761Y-28382809D01*
X46221666Y-28344714D01*
X46183571Y-28268523D01*
X46183571Y-28116142D01*
X46221666Y-28039952D01*
X46716904Y-27354238D02*
X46297857Y-27354238D01*
X46221666Y-27392333D01*
X46183571Y-27468523D01*
X46183571Y-27620904D01*
X46221666Y-27697095D01*
X46678809Y-27354238D02*
X46716904Y-27430428D01*
X46716904Y-27620904D01*
X46678809Y-27697095D01*
X46602619Y-27735190D01*
X46526428Y-27735190D01*
X46450238Y-27697095D01*
X46412142Y-27620904D01*
X46412142Y-27430428D01*
X46374047Y-27354238D01*
X46183571Y-26973285D02*
X46983571Y-26973285D01*
X46221666Y-26973285D02*
X46183571Y-26897095D01*
X46183571Y-26744714D01*
X46221666Y-26668523D01*
X46259761Y-26630428D01*
X46335952Y-26592333D01*
X46564523Y-26592333D01*
X46640714Y-26630428D01*
X46678809Y-26668523D01*
X46716904Y-26744714D01*
X46716904Y-26897095D01*
X46678809Y-26973285D01*
X46678809Y-26287571D02*
X46716904Y-26173285D01*
X46716904Y-25982809D01*
X46678809Y-25906619D01*
X46640714Y-25868523D01*
X46564523Y-25830428D01*
X46488333Y-25830428D01*
X46412142Y-25868523D01*
X46374047Y-25906619D01*
X46335952Y-25982809D01*
X46297857Y-26135190D01*
X46259761Y-26211380D01*
X46221666Y-26249476D01*
X46145476Y-26287571D01*
X46069285Y-26287571D01*
X45993095Y-26249476D01*
X45955000Y-26211380D01*
X45916904Y-26135190D01*
X45916904Y-25944714D01*
X45955000Y-25830428D01*
X43376904Y-29055809D02*
X44176904Y-28789142D01*
X43376904Y-28522476D01*
X44176904Y-28255809D02*
X43643571Y-28255809D01*
X43376904Y-28255809D02*
X43415000Y-28293904D01*
X43453095Y-28255809D01*
X43415000Y-28217714D01*
X43376904Y-28255809D01*
X43453095Y-28255809D01*
X43643571Y-27874857D02*
X44176904Y-27874857D01*
X43719761Y-27874857D02*
X43681666Y-27836761D01*
X43643571Y-27760571D01*
X43643571Y-27646285D01*
X43681666Y-27570095D01*
X43757857Y-27532000D01*
X44176904Y-27532000D01*
X44138809Y-27189142D02*
X44176904Y-27074857D01*
X44176904Y-26884380D01*
X44138809Y-26808190D01*
X44100714Y-26770095D01*
X44024523Y-26732000D01*
X43948333Y-26732000D01*
X43872142Y-26770095D01*
X43834047Y-26808190D01*
X43795952Y-26884380D01*
X43757857Y-27036761D01*
X43719761Y-27112952D01*
X43681666Y-27151047D01*
X43605476Y-27189142D01*
X43529285Y-27189142D01*
X43453095Y-27151047D01*
X43415000Y-27112952D01*
X43376904Y-27036761D01*
X43376904Y-26846285D01*
X43415000Y-26732000D01*
X41636904Y-28941523D02*
X40836904Y-28941523D01*
X40836904Y-28636761D01*
X40875000Y-28560571D01*
X40913095Y-28522476D01*
X40989285Y-28484380D01*
X41103571Y-28484380D01*
X41179761Y-28522476D01*
X41217857Y-28560571D01*
X41255952Y-28636761D01*
X41255952Y-28941523D01*
X41408333Y-28179619D02*
X41408333Y-27798666D01*
X41636904Y-28255809D02*
X40836904Y-27989142D01*
X41636904Y-27722476D01*
X40836904Y-27303428D02*
X40836904Y-27227238D01*
X40875000Y-27151047D01*
X40913095Y-27112952D01*
X40989285Y-27074857D01*
X41141666Y-27036761D01*
X41332142Y-27036761D01*
X41484523Y-27074857D01*
X41560714Y-27112952D01*
X41598809Y-27151047D01*
X41636904Y-27227238D01*
X41636904Y-27303428D01*
X41598809Y-27379619D01*
X41560714Y-27417714D01*
X41484523Y-27455809D01*
X41332142Y-27493904D01*
X41141666Y-27493904D01*
X40989285Y-27455809D01*
X40913095Y-27417714D01*
X40875000Y-27379619D01*
X40836904Y-27303428D01*
X38335000Y-28522476D02*
X38296904Y-28598666D01*
X38296904Y-28712952D01*
X38335000Y-28827238D01*
X38411190Y-28903428D01*
X38487380Y-28941523D01*
X38639761Y-28979619D01*
X38754047Y-28979619D01*
X38906428Y-28941523D01*
X38982619Y-28903428D01*
X39058809Y-28827238D01*
X39096904Y-28712952D01*
X39096904Y-28636761D01*
X39058809Y-28522476D01*
X39020714Y-28484380D01*
X38754047Y-28484380D01*
X38754047Y-28636761D01*
X39096904Y-28141523D02*
X38296904Y-28141523D01*
X39096904Y-27684380D01*
X38296904Y-27684380D01*
X39096904Y-27303428D02*
X38296904Y-27303428D01*
X38296904Y-27112952D01*
X38335000Y-26998666D01*
X38411190Y-26922476D01*
X38487380Y-26884380D01*
X38639761Y-26846285D01*
X38754047Y-26846285D01*
X38906428Y-26884380D01*
X38982619Y-26922476D01*
X39058809Y-26998666D01*
X39096904Y-27112952D01*
X39096904Y-27303428D01*
X67488197Y-25142000D02*
G75*
G03*
X67488197Y-25142000I-813197J0D01*
G01*
X64948197Y-25142000D02*
G75*
G03*
X64948197Y-25142000I-813197J0D01*
G01*
X57328197Y-25142000D02*
G75*
G03*
X57328197Y-25142000I-813197J0D01*
G01*
X54788197Y-25142000D02*
G75*
G03*
X54788197Y-25142000I-813197J0D01*
G01*
X52248197Y-25142000D02*
G75*
G03*
X52248197Y-25142000I-813197J0D01*
G01*
X34468197Y-25142000D02*
G75*
G03*
X34468197Y-25142000I-813197J0D01*
G01*
X31928197Y-25142000D02*
G75*
G03*
X31928197Y-25142000I-813197J0D01*
G01*
X28422619Y-18357904D02*
X28041666Y-18357904D01*
X28003571Y-18738857D01*
X28041666Y-18700761D01*
X28117857Y-18662666D01*
X28308333Y-18662666D01*
X28384523Y-18700761D01*
X28422619Y-18738857D01*
X28460714Y-18815047D01*
X28460714Y-19005523D01*
X28422619Y-19081714D01*
X28384523Y-19119809D01*
X28308333Y-19157904D01*
X28117857Y-19157904D01*
X28041666Y-19119809D01*
X28003571Y-19081714D01*
X28689285Y-18357904D02*
X28955952Y-19157904D01*
X29222619Y-18357904D01*
X30962619Y-18357904D02*
X30581666Y-18357904D01*
X30543571Y-18738857D01*
X30581666Y-18700761D01*
X30657857Y-18662666D01*
X30848333Y-18662666D01*
X30924523Y-18700761D01*
X30962619Y-18738857D01*
X31000714Y-18815047D01*
X31000714Y-19005523D01*
X30962619Y-19081714D01*
X30924523Y-19119809D01*
X30848333Y-19157904D01*
X30657857Y-19157904D01*
X30581666Y-19119809D01*
X30543571Y-19081714D01*
X31229285Y-18357904D02*
X31495952Y-19157904D01*
X31762619Y-18357904D01*
X33045476Y-18396000D02*
X32969285Y-18357904D01*
X32855000Y-18357904D01*
X32740714Y-18396000D01*
X32664523Y-18472190D01*
X32626428Y-18548380D01*
X32588333Y-18700761D01*
X32588333Y-18815047D01*
X32626428Y-18967428D01*
X32664523Y-19043619D01*
X32740714Y-19119809D01*
X32855000Y-19157904D01*
X32931190Y-19157904D01*
X33045476Y-19119809D01*
X33083571Y-19081714D01*
X33083571Y-18815047D01*
X32931190Y-18815047D01*
X33426428Y-19157904D02*
X33426428Y-18357904D01*
X33883571Y-19157904D01*
X33883571Y-18357904D01*
X34264523Y-19157904D02*
X34264523Y-18357904D01*
X34455000Y-18357904D01*
X34569285Y-18396000D01*
X34645476Y-18472190D01*
X34683571Y-18548380D01*
X34721666Y-18700761D01*
X34721666Y-18815047D01*
X34683571Y-18967428D01*
X34645476Y-19043619D01*
X34569285Y-19119809D01*
X34455000Y-19157904D01*
X34264523Y-19157904D01*
X36042619Y-19157904D02*
X35585476Y-19157904D01*
X35814047Y-19157904D02*
X35814047Y-18357904D01*
X35737857Y-18472190D01*
X35661666Y-18548380D01*
X35585476Y-18586476D01*
X36728333Y-18624571D02*
X36728333Y-19157904D01*
X36537857Y-18319809D02*
X36347380Y-18891238D01*
X36842619Y-18891238D01*
X38582619Y-19157904D02*
X38125476Y-19157904D01*
X38354047Y-19157904D02*
X38354047Y-18357904D01*
X38277857Y-18472190D01*
X38201666Y-18548380D01*
X38125476Y-18586476D01*
X39306428Y-18357904D02*
X38925476Y-18357904D01*
X38887380Y-18738857D01*
X38925476Y-18700761D01*
X39001666Y-18662666D01*
X39192142Y-18662666D01*
X39268333Y-18700761D01*
X39306428Y-18738857D01*
X39344523Y-18815047D01*
X39344523Y-19005523D01*
X39306428Y-19081714D01*
X39268333Y-19119809D01*
X39192142Y-19157904D01*
X39001666Y-19157904D01*
X38925476Y-19119809D01*
X38887380Y-19081714D01*
X41122619Y-19157904D02*
X40665476Y-19157904D01*
X40894047Y-19157904D02*
X40894047Y-18357904D01*
X40817857Y-18472190D01*
X40741666Y-18548380D01*
X40665476Y-18586476D01*
X41579761Y-18700761D02*
X41503571Y-18662666D01*
X41465476Y-18624571D01*
X41427380Y-18548380D01*
X41427380Y-18510285D01*
X41465476Y-18434095D01*
X41503571Y-18396000D01*
X41579761Y-18357904D01*
X41732142Y-18357904D01*
X41808333Y-18396000D01*
X41846428Y-18434095D01*
X41884523Y-18510285D01*
X41884523Y-18548380D01*
X41846428Y-18624571D01*
X41808333Y-18662666D01*
X41732142Y-18700761D01*
X41579761Y-18700761D01*
X41503571Y-18738857D01*
X41465476Y-18776952D01*
X41427380Y-18853142D01*
X41427380Y-19005523D01*
X41465476Y-19081714D01*
X41503571Y-19119809D01*
X41579761Y-19157904D01*
X41732142Y-19157904D01*
X41808333Y-19119809D01*
X41846428Y-19081714D01*
X41884523Y-19005523D01*
X41884523Y-18853142D01*
X41846428Y-18776952D01*
X41808333Y-18738857D01*
X41732142Y-18700761D01*
X43205476Y-18396000D02*
X43129285Y-18357904D01*
X43015000Y-18357904D01*
X42900714Y-18396000D01*
X42824523Y-18472190D01*
X42786428Y-18548380D01*
X42748333Y-18700761D01*
X42748333Y-18815047D01*
X42786428Y-18967428D01*
X42824523Y-19043619D01*
X42900714Y-19119809D01*
X43015000Y-19157904D01*
X43091190Y-19157904D01*
X43205476Y-19119809D01*
X43243571Y-19081714D01*
X43243571Y-18815047D01*
X43091190Y-18815047D01*
X43586428Y-19157904D02*
X43586428Y-18357904D01*
X44043571Y-19157904D01*
X44043571Y-18357904D01*
X44424523Y-19157904D02*
X44424523Y-18357904D01*
X44615000Y-18357904D01*
X44729285Y-18396000D01*
X44805476Y-18472190D01*
X44843571Y-18548380D01*
X44881666Y-18700761D01*
X44881666Y-18815047D01*
X44843571Y-18967428D01*
X44805476Y-19043619D01*
X44729285Y-19119809D01*
X44615000Y-19157904D01*
X44424523Y-19157904D01*
X45745476Y-18434095D02*
X45783571Y-18396000D01*
X45859761Y-18357904D01*
X46050238Y-18357904D01*
X46126428Y-18396000D01*
X46164523Y-18434095D01*
X46202619Y-18510285D01*
X46202619Y-18586476D01*
X46164523Y-18700761D01*
X45707380Y-19157904D01*
X46202619Y-19157904D01*
X46469285Y-18357904D02*
X46964523Y-18357904D01*
X46697857Y-18662666D01*
X46812142Y-18662666D01*
X46888333Y-18700761D01*
X46926428Y-18738857D01*
X46964523Y-18815047D01*
X46964523Y-19005523D01*
X46926428Y-19081714D01*
X46888333Y-19119809D01*
X46812142Y-19157904D01*
X46583571Y-19157904D01*
X46507380Y-19119809D01*
X46469285Y-19081714D01*
X48285476Y-18434095D02*
X48323571Y-18396000D01*
X48399761Y-18357904D01*
X48590238Y-18357904D01*
X48666428Y-18396000D01*
X48704523Y-18434095D01*
X48742619Y-18510285D01*
X48742619Y-18586476D01*
X48704523Y-18700761D01*
X48247380Y-19157904D01*
X48742619Y-19157904D01*
X49428333Y-18624571D02*
X49428333Y-19157904D01*
X49237857Y-18319809D02*
X49047380Y-18891238D01*
X49542619Y-18891238D01*
X50825476Y-18396000D02*
X50749285Y-18357904D01*
X50635000Y-18357904D01*
X50520714Y-18396000D01*
X50444523Y-18472190D01*
X50406428Y-18548380D01*
X50368333Y-18700761D01*
X50368333Y-18815047D01*
X50406428Y-18967428D01*
X50444523Y-19043619D01*
X50520714Y-19119809D01*
X50635000Y-19157904D01*
X50711190Y-19157904D01*
X50825476Y-19119809D01*
X50863571Y-19081714D01*
X50863571Y-18815047D01*
X50711190Y-18815047D01*
X51206428Y-19157904D02*
X51206428Y-18357904D01*
X51663571Y-19157904D01*
X51663571Y-18357904D01*
X52044523Y-19157904D02*
X52044523Y-18357904D01*
X52235000Y-18357904D01*
X52349285Y-18396000D01*
X52425476Y-18472190D01*
X52463571Y-18548380D01*
X52501666Y-18700761D01*
X52501666Y-18815047D01*
X52463571Y-18967428D01*
X52425476Y-19043619D01*
X52349285Y-19119809D01*
X52235000Y-19157904D01*
X52044523Y-19157904D01*
X53365476Y-18434095D02*
X53403571Y-18396000D01*
X53479761Y-18357904D01*
X53670238Y-18357904D01*
X53746428Y-18396000D01*
X53784523Y-18434095D01*
X53822619Y-18510285D01*
X53822619Y-18586476D01*
X53784523Y-18700761D01*
X53327380Y-19157904D01*
X53822619Y-19157904D01*
X54546428Y-18357904D02*
X54165476Y-18357904D01*
X54127380Y-18738857D01*
X54165476Y-18700761D01*
X54241666Y-18662666D01*
X54432142Y-18662666D01*
X54508333Y-18700761D01*
X54546428Y-18738857D01*
X54584523Y-18815047D01*
X54584523Y-19005523D01*
X54546428Y-19081714D01*
X54508333Y-19119809D01*
X54432142Y-19157904D01*
X54241666Y-19157904D01*
X54165476Y-19119809D01*
X54127380Y-19081714D01*
X56438809Y-18700761D02*
X56362619Y-18662666D01*
X56324523Y-18624571D01*
X56286428Y-18548380D01*
X56286428Y-18510285D01*
X56324523Y-18434095D01*
X56362619Y-18396000D01*
X56438809Y-18357904D01*
X56591190Y-18357904D01*
X56667380Y-18396000D01*
X56705476Y-18434095D01*
X56743571Y-18510285D01*
X56743571Y-18548380D01*
X56705476Y-18624571D01*
X56667380Y-18662666D01*
X56591190Y-18700761D01*
X56438809Y-18700761D01*
X56362619Y-18738857D01*
X56324523Y-18776952D01*
X56286428Y-18853142D01*
X56286428Y-19005523D01*
X56324523Y-19081714D01*
X56362619Y-19119809D01*
X56438809Y-19157904D01*
X56591190Y-19157904D01*
X56667380Y-19119809D01*
X56705476Y-19081714D01*
X56743571Y-19005523D01*
X56743571Y-18853142D01*
X56705476Y-18776952D01*
X56667380Y-18738857D01*
X56591190Y-18700761D01*
X58788333Y-18357904D02*
X59321666Y-18357904D01*
X58978809Y-19157904D01*
X60069047Y-19157904D02*
X60069047Y-18357904D01*
X60450000Y-19157904D02*
X60450000Y-18357904D01*
X60640476Y-18357904D01*
X60754761Y-18396000D01*
X60830952Y-18472190D01*
X60869047Y-18548380D01*
X60907142Y-18700761D01*
X60907142Y-18815047D01*
X60869047Y-18967428D01*
X60830952Y-19043619D01*
X60754761Y-19119809D01*
X60640476Y-19157904D01*
X60450000Y-19157904D01*
X61211904Y-19119809D02*
X61326190Y-19157904D01*
X61516666Y-19157904D01*
X61592857Y-19119809D01*
X61630952Y-19081714D01*
X61669047Y-19005523D01*
X61669047Y-18929333D01*
X61630952Y-18853142D01*
X61592857Y-18815047D01*
X61516666Y-18776952D01*
X61364285Y-18738857D01*
X61288095Y-18700761D01*
X61250000Y-18662666D01*
X61211904Y-18586476D01*
X61211904Y-18510285D01*
X61250000Y-18434095D01*
X61288095Y-18396000D01*
X61364285Y-18357904D01*
X61554761Y-18357904D01*
X61669047Y-18396000D01*
X62469047Y-19081714D02*
X62430952Y-19119809D01*
X62316666Y-19157904D01*
X62240476Y-19157904D01*
X62126190Y-19119809D01*
X62050000Y-19043619D01*
X62011904Y-18967428D01*
X61973809Y-18815047D01*
X61973809Y-18700761D01*
X62011904Y-18548380D01*
X62050000Y-18472190D01*
X62126190Y-18396000D01*
X62240476Y-18357904D01*
X62316666Y-18357904D01*
X62430952Y-18396000D01*
X62469047Y-18434095D01*
X63640476Y-18396000D02*
X63564285Y-18357904D01*
X63450000Y-18357904D01*
X63335714Y-18396000D01*
X63259523Y-18472190D01*
X63221428Y-18548380D01*
X63183333Y-18700761D01*
X63183333Y-18815047D01*
X63221428Y-18967428D01*
X63259523Y-19043619D01*
X63335714Y-19119809D01*
X63450000Y-19157904D01*
X63526190Y-19157904D01*
X63640476Y-19119809D01*
X63678571Y-19081714D01*
X63678571Y-18815047D01*
X63526190Y-18815047D01*
X64021428Y-19157904D02*
X64021428Y-18357904D01*
X64478571Y-19157904D01*
X64478571Y-18357904D01*
X64859523Y-19157904D02*
X64859523Y-18357904D01*
X65050000Y-18357904D01*
X65164285Y-18396000D01*
X65240476Y-18472190D01*
X65278571Y-18548380D01*
X65316666Y-18700761D01*
X65316666Y-18815047D01*
X65278571Y-18967428D01*
X65240476Y-19043619D01*
X65164285Y-19119809D01*
X65050000Y-19157904D01*
X64859523Y-19157904D01*
X66522619Y-19157904D02*
X66065476Y-19157904D01*
X66294047Y-19157904D02*
X66294047Y-18357904D01*
X66217857Y-18472190D01*
X66141666Y-18548380D01*
X66065476Y-18586476D01*
X66827380Y-18434095D02*
X66865476Y-18396000D01*
X66941666Y-18357904D01*
X67132142Y-18357904D01*
X67208333Y-18396000D01*
X67246428Y-18434095D01*
X67284523Y-18510285D01*
X67284523Y-18586476D01*
X67246428Y-18700761D01*
X66789285Y-19157904D01*
X67284523Y-19157904D01*
X68605476Y-18396000D02*
X68529285Y-18357904D01*
X68415000Y-18357904D01*
X68300714Y-18396000D01*
X68224523Y-18472190D01*
X68186428Y-18548380D01*
X68148333Y-18700761D01*
X68148333Y-18815047D01*
X68186428Y-18967428D01*
X68224523Y-19043619D01*
X68300714Y-19119809D01*
X68415000Y-19157904D01*
X68491190Y-19157904D01*
X68605476Y-19119809D01*
X68643571Y-19081714D01*
X68643571Y-18815047D01*
X68491190Y-18815047D01*
X68986428Y-19157904D02*
X68986428Y-18357904D01*
X69443571Y-19157904D01*
X69443571Y-18357904D01*
X69824523Y-19157904D02*
X69824523Y-18357904D01*
X70015000Y-18357904D01*
X70129285Y-18396000D01*
X70205476Y-18472190D01*
X70243571Y-18548380D01*
X70281666Y-18700761D01*
X70281666Y-18815047D01*
X70243571Y-18967428D01*
X70205476Y-19043619D01*
X70129285Y-19119809D01*
X70015000Y-19157904D01*
X69824523Y-19157904D01*
X71602619Y-19157904D02*
X71145476Y-19157904D01*
X71374047Y-19157904D02*
X71374047Y-18357904D01*
X71297857Y-18472190D01*
X71221666Y-18548380D01*
X71145476Y-18586476D01*
X72288333Y-18357904D02*
X72135952Y-18357904D01*
X72059761Y-18396000D01*
X72021666Y-18434095D01*
X71945476Y-18548380D01*
X71907380Y-18700761D01*
X71907380Y-19005523D01*
X71945476Y-19081714D01*
X71983571Y-19119809D01*
X72059761Y-19157904D01*
X72212142Y-19157904D01*
X72288333Y-19119809D01*
X72326428Y-19081714D01*
X72364523Y-19005523D01*
X72364523Y-18815047D01*
X72326428Y-18738857D01*
X72288333Y-18700761D01*
X72212142Y-18662666D01*
X72059761Y-18662666D01*
X71983571Y-18700761D01*
X71945476Y-18738857D01*
X71907380Y-18815047D01*
X73685476Y-18434095D02*
X73723571Y-18396000D01*
X73799761Y-18357904D01*
X73990238Y-18357904D01*
X74066428Y-18396000D01*
X74104523Y-18434095D01*
X74142619Y-18510285D01*
X74142619Y-18586476D01*
X74104523Y-18700761D01*
X73647380Y-19157904D01*
X74142619Y-19157904D01*
X74637857Y-18357904D02*
X74714047Y-18357904D01*
X74790238Y-18396000D01*
X74828333Y-18434095D01*
X74866428Y-18510285D01*
X74904523Y-18662666D01*
X74904523Y-18853142D01*
X74866428Y-19005523D01*
X74828333Y-19081714D01*
X74790238Y-19119809D01*
X74714047Y-19157904D01*
X74637857Y-19157904D01*
X74561666Y-19119809D01*
X74523571Y-19081714D01*
X74485476Y-19005523D01*
X74447380Y-18853142D01*
X74447380Y-18662666D01*
X74485476Y-18510285D01*
X74523571Y-18434095D01*
X74561666Y-18396000D01*
X74637857Y-18357904D01*
X76225476Y-18434095D02*
X76263571Y-18396000D01*
X76339761Y-18357904D01*
X76530238Y-18357904D01*
X76606428Y-18396000D01*
X76644523Y-18434095D01*
X76682619Y-18510285D01*
X76682619Y-18586476D01*
X76644523Y-18700761D01*
X76187380Y-19157904D01*
X76682619Y-19157904D01*
X77444523Y-19157904D02*
X76987380Y-19157904D01*
X77215952Y-19157904D02*
X77215952Y-18357904D01*
X77139761Y-18472190D01*
X77063571Y-18548380D01*
X76987380Y-18586476D01*
X76225476Y-24742000D02*
X76149285Y-24703904D01*
X76035000Y-24703904D01*
X75920714Y-24742000D01*
X75844523Y-24818190D01*
X75806428Y-24894380D01*
X75768333Y-25046761D01*
X75768333Y-25161047D01*
X75806428Y-25313428D01*
X75844523Y-25389619D01*
X75920714Y-25465809D01*
X76035000Y-25503904D01*
X76111190Y-25503904D01*
X76225476Y-25465809D01*
X76263571Y-25427714D01*
X76263571Y-25161047D01*
X76111190Y-25161047D01*
X76606428Y-25503904D02*
X76606428Y-24703904D01*
X77063571Y-25503904D01*
X77063571Y-24703904D01*
X77444523Y-25503904D02*
X77444523Y-24703904D01*
X77635000Y-24703904D01*
X77749285Y-24742000D01*
X77825476Y-24818190D01*
X77863571Y-24894380D01*
X77901666Y-25046761D01*
X77901666Y-25161047D01*
X77863571Y-25313428D01*
X77825476Y-25389619D01*
X77749285Y-25465809D01*
X77635000Y-25503904D01*
X77444523Y-25503904D01*
X73685476Y-24780095D02*
X73723571Y-24742000D01*
X73799761Y-24703904D01*
X73990238Y-24703904D01*
X74066428Y-24742000D01*
X74104523Y-24780095D01*
X74142619Y-24856285D01*
X74142619Y-24932476D01*
X74104523Y-25046761D01*
X73647380Y-25503904D01*
X74142619Y-25503904D01*
X74828333Y-24703904D02*
X74675952Y-24703904D01*
X74599761Y-24742000D01*
X74561666Y-24780095D01*
X74485476Y-24894380D01*
X74447380Y-25046761D01*
X74447380Y-25351523D01*
X74485476Y-25427714D01*
X74523571Y-25465809D01*
X74599761Y-25503904D01*
X74752142Y-25503904D01*
X74828333Y-25465809D01*
X74866428Y-25427714D01*
X74904523Y-25351523D01*
X74904523Y-25161047D01*
X74866428Y-25084857D01*
X74828333Y-25046761D01*
X74752142Y-25008666D01*
X74599761Y-25008666D01*
X74523571Y-25046761D01*
X74485476Y-25084857D01*
X74447380Y-25161047D01*
X71602619Y-25503904D02*
X71145476Y-25503904D01*
X71374047Y-25503904D02*
X71374047Y-24703904D01*
X71297857Y-24818190D01*
X71221666Y-24894380D01*
X71145476Y-24932476D01*
X71983571Y-25503904D02*
X72135952Y-25503904D01*
X72212142Y-25465809D01*
X72250238Y-25427714D01*
X72326428Y-25313428D01*
X72364523Y-25161047D01*
X72364523Y-24856285D01*
X72326428Y-24780095D01*
X72288333Y-24742000D01*
X72212142Y-24703904D01*
X72059761Y-24703904D01*
X71983571Y-24742000D01*
X71945476Y-24780095D01*
X71907380Y-24856285D01*
X71907380Y-25046761D01*
X71945476Y-25122952D01*
X71983571Y-25161047D01*
X72059761Y-25199142D01*
X72212142Y-25199142D01*
X72288333Y-25161047D01*
X72326428Y-25122952D01*
X72364523Y-25046761D01*
X69062619Y-25503904D02*
X68605476Y-25503904D01*
X68834047Y-25503904D02*
X68834047Y-24703904D01*
X68757857Y-24818190D01*
X68681666Y-24894380D01*
X68605476Y-24932476D01*
X69329285Y-24703904D02*
X69824523Y-24703904D01*
X69557857Y-25008666D01*
X69672142Y-25008666D01*
X69748333Y-25046761D01*
X69786428Y-25084857D01*
X69824523Y-25161047D01*
X69824523Y-25351523D01*
X69786428Y-25427714D01*
X69748333Y-25465809D01*
X69672142Y-25503904D01*
X69443571Y-25503904D01*
X69367380Y-25465809D01*
X69329285Y-25427714D01*
X66827380Y-24703904D02*
X66675000Y-24703904D01*
X66598809Y-24742000D01*
X66560714Y-24780095D01*
X66484523Y-24894380D01*
X66446428Y-25046761D01*
X66446428Y-25351523D01*
X66484523Y-25427714D01*
X66522619Y-25465809D01*
X66598809Y-25503904D01*
X66751190Y-25503904D01*
X66827380Y-25465809D01*
X66865476Y-25427714D01*
X66903571Y-25351523D01*
X66903571Y-25161047D01*
X66865476Y-25084857D01*
X66827380Y-25046761D01*
X66751190Y-25008666D01*
X66598809Y-25008666D01*
X66522619Y-25046761D01*
X66484523Y-25084857D01*
X66446428Y-25161047D01*
X64325476Y-24703904D02*
X63944523Y-24703904D01*
X63906428Y-25084857D01*
X63944523Y-25046761D01*
X64020714Y-25008666D01*
X64211190Y-25008666D01*
X64287380Y-25046761D01*
X64325476Y-25084857D01*
X64363571Y-25161047D01*
X64363571Y-25351523D01*
X64325476Y-25427714D01*
X64287380Y-25465809D01*
X64211190Y-25503904D01*
X64020714Y-25503904D01*
X63944523Y-25465809D01*
X63906428Y-25427714D01*
X60569047Y-25503904D02*
X60569047Y-24703904D01*
X60950000Y-25503904D02*
X60950000Y-24703904D01*
X61140476Y-24703904D01*
X61254761Y-24742000D01*
X61330952Y-24818190D01*
X61369047Y-24894380D01*
X61407142Y-25046761D01*
X61407142Y-25161047D01*
X61369047Y-25313428D01*
X61330952Y-25389619D01*
X61254761Y-25465809D01*
X61140476Y-25503904D01*
X60950000Y-25503904D01*
X61711904Y-25465809D02*
X61826190Y-25503904D01*
X62016666Y-25503904D01*
X62092857Y-25465809D01*
X62130952Y-25427714D01*
X62169047Y-25351523D01*
X62169047Y-25275333D01*
X62130952Y-25199142D01*
X62092857Y-25161047D01*
X62016666Y-25122952D01*
X61864285Y-25084857D01*
X61788095Y-25046761D01*
X61750000Y-25008666D01*
X61711904Y-24932476D01*
X61711904Y-24856285D01*
X61750000Y-24780095D01*
X61788095Y-24742000D01*
X61864285Y-24703904D01*
X62054761Y-24703904D01*
X62169047Y-24742000D01*
X62511904Y-25503904D02*
X62511904Y-24703904D01*
X62702380Y-24703904D01*
X62816666Y-24742000D01*
X62892857Y-24818190D01*
X62930952Y-24894380D01*
X62969047Y-25046761D01*
X62969047Y-25161047D01*
X62930952Y-25313428D01*
X62892857Y-25389619D01*
X62816666Y-25465809D01*
X62702380Y-25503904D01*
X62511904Y-25503904D01*
X58390476Y-24742000D02*
X58314285Y-24703904D01*
X58200000Y-24703904D01*
X58085714Y-24742000D01*
X58009523Y-24818190D01*
X57971428Y-24894380D01*
X57933333Y-25046761D01*
X57933333Y-25161047D01*
X57971428Y-25313428D01*
X58009523Y-25389619D01*
X58085714Y-25465809D01*
X58200000Y-25503904D01*
X58276190Y-25503904D01*
X58390476Y-25465809D01*
X58428571Y-25427714D01*
X58428571Y-25161047D01*
X58276190Y-25161047D01*
X58771428Y-25503904D02*
X58771428Y-24703904D01*
X59228571Y-25503904D01*
X59228571Y-24703904D01*
X59609523Y-25503904D02*
X59609523Y-24703904D01*
X59800000Y-24703904D01*
X59914285Y-24742000D01*
X59990476Y-24818190D01*
X60028571Y-24894380D01*
X60066666Y-25046761D01*
X60066666Y-25161047D01*
X60028571Y-25313428D01*
X59990476Y-25389619D01*
X59914285Y-25465809D01*
X59800000Y-25503904D01*
X59609523Y-25503904D01*
X56362619Y-25503904D02*
X55905476Y-25503904D01*
X56134047Y-25503904D02*
X56134047Y-24703904D01*
X56057857Y-24818190D01*
X55981666Y-24894380D01*
X55905476Y-24932476D01*
X57124523Y-25503904D02*
X56667380Y-25503904D01*
X56895952Y-25503904D02*
X56895952Y-24703904D01*
X56819761Y-24818190D01*
X56743571Y-24894380D01*
X56667380Y-24932476D01*
X53822619Y-25503904D02*
X53975000Y-25503904D01*
X54051190Y-25465809D01*
X54089285Y-25427714D01*
X54165476Y-25313428D01*
X54203571Y-25161047D01*
X54203571Y-24856285D01*
X54165476Y-24780095D01*
X54127380Y-24742000D01*
X54051190Y-24703904D01*
X53898809Y-24703904D01*
X53822619Y-24742000D01*
X53784523Y-24780095D01*
X53746428Y-24856285D01*
X53746428Y-25046761D01*
X53784523Y-25122952D01*
X53822619Y-25161047D01*
X53898809Y-25199142D01*
X54051190Y-25199142D01*
X54127380Y-25161047D01*
X54165476Y-25122952D01*
X54203571Y-25046761D01*
X51282619Y-25503904D02*
X50825476Y-25503904D01*
X51054047Y-25503904D02*
X51054047Y-24703904D01*
X50977857Y-24818190D01*
X50901666Y-24894380D01*
X50825476Y-24932476D01*
X51777857Y-24703904D02*
X51854047Y-24703904D01*
X51930238Y-24742000D01*
X51968333Y-24780095D01*
X52006428Y-24856285D01*
X52044523Y-25008666D01*
X52044523Y-25199142D01*
X52006428Y-25351523D01*
X51968333Y-25427714D01*
X51930238Y-25465809D01*
X51854047Y-25503904D01*
X51777857Y-25503904D01*
X51701666Y-25465809D01*
X51663571Y-25427714D01*
X51625476Y-25351523D01*
X51587380Y-25199142D01*
X51587380Y-25008666D01*
X51625476Y-24856285D01*
X51663571Y-24780095D01*
X51701666Y-24742000D01*
X51777857Y-24703904D01*
X47904523Y-24703904D02*
X48399761Y-24703904D01*
X48133095Y-25008666D01*
X48247380Y-25008666D01*
X48323571Y-25046761D01*
X48361666Y-25084857D01*
X48399761Y-25161047D01*
X48399761Y-25351523D01*
X48361666Y-25427714D01*
X48323571Y-25465809D01*
X48247380Y-25503904D01*
X48018809Y-25503904D01*
X47942619Y-25465809D01*
X47904523Y-25427714D01*
X48628333Y-24703904D02*
X48895000Y-25503904D01*
X49161666Y-24703904D01*
X49352142Y-24703904D02*
X49847380Y-24703904D01*
X49580714Y-25008666D01*
X49695000Y-25008666D01*
X49771190Y-25046761D01*
X49809285Y-25084857D01*
X49847380Y-25161047D01*
X49847380Y-25351523D01*
X49809285Y-25427714D01*
X49771190Y-25465809D01*
X49695000Y-25503904D01*
X49466428Y-25503904D01*
X49390238Y-25465809D01*
X49352142Y-25427714D01*
X45745476Y-24780095D02*
X45783571Y-24742000D01*
X45859761Y-24703904D01*
X46050238Y-24703904D01*
X46126428Y-24742000D01*
X46164523Y-24780095D01*
X46202619Y-24856285D01*
X46202619Y-24932476D01*
X46164523Y-25046761D01*
X45707380Y-25503904D01*
X46202619Y-25503904D01*
X46507380Y-24780095D02*
X46545476Y-24742000D01*
X46621666Y-24703904D01*
X46812142Y-24703904D01*
X46888333Y-24742000D01*
X46926428Y-24780095D01*
X46964523Y-24856285D01*
X46964523Y-24932476D01*
X46926428Y-25046761D01*
X46469285Y-25503904D01*
X46964523Y-25503904D01*
X43205476Y-24780095D02*
X43243571Y-24742000D01*
X43319761Y-24703904D01*
X43510238Y-24703904D01*
X43586428Y-24742000D01*
X43624523Y-24780095D01*
X43662619Y-24856285D01*
X43662619Y-24932476D01*
X43624523Y-25046761D01*
X43167380Y-25503904D01*
X43662619Y-25503904D01*
X43929285Y-24703904D02*
X44462619Y-24703904D01*
X44119761Y-25503904D01*
X41122619Y-25503904D02*
X40665476Y-25503904D01*
X40894047Y-25503904D02*
X40894047Y-24703904D01*
X40817857Y-24818190D01*
X40741666Y-24894380D01*
X40665476Y-24932476D01*
X41389285Y-24703904D02*
X41922619Y-24703904D01*
X41579761Y-25503904D01*
X38125476Y-24742000D02*
X38049285Y-24703904D01*
X37935000Y-24703904D01*
X37820714Y-24742000D01*
X37744523Y-24818190D01*
X37706428Y-24894380D01*
X37668333Y-25046761D01*
X37668333Y-25161047D01*
X37706428Y-25313428D01*
X37744523Y-25389619D01*
X37820714Y-25465809D01*
X37935000Y-25503904D01*
X38011190Y-25503904D01*
X38125476Y-25465809D01*
X38163571Y-25427714D01*
X38163571Y-25161047D01*
X38011190Y-25161047D01*
X38506428Y-25503904D02*
X38506428Y-24703904D01*
X38963571Y-25503904D01*
X38963571Y-24703904D01*
X39344523Y-25503904D02*
X39344523Y-24703904D01*
X39535000Y-24703904D01*
X39649285Y-24742000D01*
X39725476Y-24818190D01*
X39763571Y-24894380D01*
X39801666Y-25046761D01*
X39801666Y-25161047D01*
X39763571Y-25313428D01*
X39725476Y-25389619D01*
X39649285Y-25465809D01*
X39535000Y-25503904D01*
X39344523Y-25503904D01*
X36004523Y-25503904D02*
X35547380Y-25503904D01*
X35775952Y-25503904D02*
X35775952Y-24703904D01*
X35699761Y-24818190D01*
X35623571Y-24894380D01*
X35547380Y-24932476D01*
X36271190Y-24970571D02*
X36423571Y-25503904D01*
X36575952Y-25122952D01*
X36728333Y-25503904D01*
X36880714Y-24970571D01*
X33388333Y-24678904D02*
X33883571Y-24678904D01*
X33616904Y-24983666D01*
X33731190Y-24983666D01*
X33807380Y-25021761D01*
X33845476Y-25059857D01*
X33883571Y-25136047D01*
X33883571Y-25326523D01*
X33845476Y-25402714D01*
X33807380Y-25440809D01*
X33731190Y-25478904D01*
X33502619Y-25478904D01*
X33426428Y-25440809D01*
X33388333Y-25402714D01*
X32702619Y-26760809D02*
X32816904Y-26798904D01*
X33007380Y-26798904D01*
X33083571Y-26760809D01*
X33121666Y-26722714D01*
X33159761Y-26646523D01*
X33159761Y-26570333D01*
X33121666Y-26494142D01*
X33083571Y-26456047D01*
X33007380Y-26417952D01*
X32855000Y-26379857D01*
X32778809Y-26341761D01*
X32740714Y-26303666D01*
X32702619Y-26227476D01*
X32702619Y-26151285D01*
X32740714Y-26075095D01*
X32778809Y-26037000D01*
X32855000Y-25998904D01*
X33045476Y-25998904D01*
X33159761Y-26037000D01*
X33959761Y-26722714D02*
X33921666Y-26760809D01*
X33807380Y-26798904D01*
X33731190Y-26798904D01*
X33616904Y-26760809D01*
X33540714Y-26684619D01*
X33502619Y-26608428D01*
X33464523Y-26456047D01*
X33464523Y-26341761D01*
X33502619Y-26189380D01*
X33540714Y-26113190D01*
X33616904Y-26037000D01*
X33731190Y-25998904D01*
X33807380Y-25998904D01*
X33921666Y-26037000D01*
X33959761Y-26075095D01*
X34683571Y-26798904D02*
X34302619Y-26798904D01*
X34302619Y-25998904D01*
X30886428Y-24755095D02*
X30924523Y-24717000D01*
X31000714Y-24678904D01*
X31191190Y-24678904D01*
X31267380Y-24717000D01*
X31305476Y-24755095D01*
X31343571Y-24831285D01*
X31343571Y-24907476D01*
X31305476Y-25021761D01*
X30848333Y-25478904D01*
X31343571Y-25478904D01*
X30143571Y-26760809D02*
X30257857Y-26798904D01*
X30448333Y-26798904D01*
X30524523Y-26760809D01*
X30562619Y-26722714D01*
X30600714Y-26646523D01*
X30600714Y-26570333D01*
X30562619Y-26494142D01*
X30524523Y-26456047D01*
X30448333Y-26417952D01*
X30295952Y-26379857D01*
X30219761Y-26341761D01*
X30181666Y-26303666D01*
X30143571Y-26227476D01*
X30143571Y-26151285D01*
X30181666Y-26075095D01*
X30219761Y-26037000D01*
X30295952Y-25998904D01*
X30486428Y-25998904D01*
X30600714Y-26037000D01*
X30943571Y-26798904D02*
X30943571Y-25998904D01*
X31134047Y-25998904D01*
X31248333Y-26037000D01*
X31324523Y-26113190D01*
X31362619Y-26189380D01*
X31400714Y-26341761D01*
X31400714Y-26456047D01*
X31362619Y-26608428D01*
X31324523Y-26684619D01*
X31248333Y-26760809D01*
X31134047Y-26798904D01*
X30943571Y-26798904D01*
X31705476Y-26570333D02*
X32086428Y-26570333D01*
X31629285Y-26798904D02*
X31895952Y-25998904D01*
X32162619Y-26798904D01*
X27584523Y-24703904D02*
X28079761Y-24703904D01*
X27813095Y-25008666D01*
X27927380Y-25008666D01*
X28003571Y-25046761D01*
X28041666Y-25084857D01*
X28079761Y-25161047D01*
X28079761Y-25351523D01*
X28041666Y-25427714D01*
X28003571Y-25465809D01*
X27927380Y-25503904D01*
X27698809Y-25503904D01*
X27622619Y-25465809D01*
X27584523Y-25427714D01*
X28308333Y-24703904D02*
X28575000Y-25503904D01*
X28841666Y-24703904D01*
X29032142Y-24703904D02*
X29527380Y-24703904D01*
X29260714Y-25008666D01*
X29375000Y-25008666D01*
X29451190Y-25046761D01*
X29489285Y-25084857D01*
X29527380Y-25161047D01*
X29527380Y-25351523D01*
X29489285Y-25427714D01*
X29451190Y-25465809D01*
X29375000Y-25503904D01*
X29146428Y-25503904D01*
X29070238Y-25465809D01*
X29032142Y-25427714D01*
D10*
X65614642Y-44329404D02*
X65767023Y-44329404D01*
X65843214Y-44367500D01*
X65919404Y-44443690D01*
X65957500Y-44596071D01*
X65957500Y-44862738D01*
X65919404Y-45015119D01*
X65843214Y-45091309D01*
X65767023Y-45129404D01*
X65614642Y-45129404D01*
X65538452Y-45091309D01*
X65462261Y-45015119D01*
X65424166Y-44862738D01*
X65424166Y-44596071D01*
X65462261Y-44443690D01*
X65538452Y-44367500D01*
X65614642Y-44329404D01*
X66262261Y-45091309D02*
X66338452Y-45129404D01*
X66490833Y-45129404D01*
X66567023Y-45091309D01*
X66605119Y-45015119D01*
X66605119Y-44977023D01*
X66567023Y-44900833D01*
X66490833Y-44862738D01*
X66376547Y-44862738D01*
X66300357Y-44824642D01*
X66262261Y-44748452D01*
X66262261Y-44710357D01*
X66300357Y-44634166D01*
X66376547Y-44596071D01*
X66490833Y-44596071D01*
X66567023Y-44634166D01*
X67290833Y-45091309D02*
X67214642Y-45129404D01*
X67062261Y-45129404D01*
X66986071Y-45091309D01*
X66947976Y-45053214D01*
X66909880Y-44977023D01*
X66909880Y-44748452D01*
X66947976Y-44672261D01*
X66986071Y-44634166D01*
X67062261Y-44596071D01*
X67214642Y-44596071D01*
X67290833Y-44634166D01*
X62782642Y-50196714D02*
X62744547Y-50234809D01*
X62630261Y-50272904D01*
X62554071Y-50272904D01*
X62439785Y-50234809D01*
X62363595Y-50158619D01*
X62325500Y-50082428D01*
X62287404Y-49930047D01*
X62287404Y-49815761D01*
X62325500Y-49663380D01*
X62363595Y-49587190D01*
X62439785Y-49511000D01*
X62554071Y-49472904D01*
X62630261Y-49472904D01*
X62744547Y-49511000D01*
X62782642Y-49549095D01*
X63087404Y-50044333D02*
X63468357Y-50044333D01*
X63011214Y-50272904D02*
X63277880Y-49472904D01*
X63544547Y-50272904D01*
X63811214Y-50272904D02*
X63811214Y-49472904D01*
X64268357Y-50272904D01*
X64268357Y-49472904D01*
X65639785Y-49472904D02*
X65258833Y-49472904D01*
X65220738Y-49853857D01*
X65258833Y-49815761D01*
X65335023Y-49777666D01*
X65525500Y-49777666D01*
X65601690Y-49815761D01*
X65639785Y-49853857D01*
X65677880Y-49930047D01*
X65677880Y-50120523D01*
X65639785Y-50196714D01*
X65601690Y-50234809D01*
X65525500Y-50272904D01*
X65335023Y-50272904D01*
X65258833Y-50234809D01*
X65220738Y-50196714D01*
X65906452Y-49472904D02*
X66173119Y-50272904D01*
X66439785Y-49472904D01*
X58134452Y-49256904D02*
X57867785Y-48875952D01*
X57677309Y-49256904D02*
X57677309Y-48456904D01*
X57982071Y-48456904D01*
X58058261Y-48495000D01*
X58096357Y-48533095D01*
X58134452Y-48609285D01*
X58134452Y-48723571D01*
X58096357Y-48799761D01*
X58058261Y-48837857D01*
X57982071Y-48875952D01*
X57677309Y-48875952D01*
X58477309Y-48837857D02*
X58743976Y-48837857D01*
X58858261Y-49256904D02*
X58477309Y-49256904D01*
X58477309Y-48456904D01*
X58858261Y-48456904D01*
X59620166Y-48495000D02*
X59543976Y-48456904D01*
X59429690Y-48456904D01*
X59315404Y-48495000D01*
X59239214Y-48571190D01*
X59201119Y-48647380D01*
X59163023Y-48799761D01*
X59163023Y-48914047D01*
X59201119Y-49066428D01*
X59239214Y-49142619D01*
X59315404Y-49218809D01*
X59429690Y-49256904D01*
X59505880Y-49256904D01*
X59620166Y-49218809D01*
X59658261Y-49180714D01*
X59658261Y-48914047D01*
X59505880Y-48914047D01*
X59924928Y-48456904D02*
X60420166Y-48456904D01*
X60153500Y-48761666D01*
X60267785Y-48761666D01*
X60343976Y-48799761D01*
X60382071Y-48837857D01*
X60420166Y-48914047D01*
X60420166Y-49104523D01*
X60382071Y-49180714D01*
X60343976Y-49218809D01*
X60267785Y-49256904D01*
X60039214Y-49256904D01*
X59963023Y-49218809D01*
X59924928Y-49180714D01*
X60648738Y-48456904D02*
X60915404Y-49256904D01*
X61182071Y-48456904D01*
X61372547Y-48456904D02*
X61867785Y-48456904D01*
X61601119Y-48761666D01*
X61715404Y-48761666D01*
X61791595Y-48799761D01*
X61829690Y-48837857D01*
X61867785Y-48914047D01*
X61867785Y-49104523D01*
X61829690Y-49180714D01*
X61791595Y-49218809D01*
X61715404Y-49256904D01*
X61486833Y-49256904D01*
X61410642Y-49218809D01*
X61372547Y-49180714D01*
X35401309Y-54387714D02*
X35363214Y-54425809D01*
X35248928Y-54463904D01*
X35172738Y-54463904D01*
X35058452Y-54425809D01*
X34982261Y-54349619D01*
X34944166Y-54273428D01*
X34906071Y-54121047D01*
X34906071Y-54006761D01*
X34944166Y-53854380D01*
X34982261Y-53778190D01*
X35058452Y-53702000D01*
X35172738Y-53663904D01*
X35248928Y-53663904D01*
X35363214Y-53702000D01*
X35401309Y-53740095D01*
X35706071Y-54425809D02*
X35820357Y-54463904D01*
X36010833Y-54463904D01*
X36087023Y-54425809D01*
X36125119Y-54387714D01*
X36163214Y-54311523D01*
X36163214Y-54235333D01*
X36125119Y-54159142D01*
X36087023Y-54121047D01*
X36010833Y-54082952D01*
X35858452Y-54044857D01*
X35782261Y-54006761D01*
X35744166Y-53968666D01*
X35706071Y-53892476D01*
X35706071Y-53816285D01*
X35744166Y-53740095D01*
X35782261Y-53702000D01*
X35858452Y-53663904D01*
X36048928Y-53663904D01*
X36163214Y-53702000D01*
X36467976Y-54235333D02*
X36848928Y-54235333D01*
X36391785Y-54463904D02*
X36658452Y-53663904D01*
X36925119Y-54463904D01*
X39592380Y-62845904D02*
X39592380Y-62045904D01*
X39897142Y-62045904D01*
X39973333Y-62084000D01*
X40011428Y-62122095D01*
X40049523Y-62198285D01*
X40049523Y-62312571D01*
X40011428Y-62388761D01*
X39973333Y-62426857D01*
X39897142Y-62464952D01*
X39592380Y-62464952D01*
X40392380Y-62845904D02*
X40392380Y-62312571D01*
X40392380Y-62464952D02*
X40430476Y-62388761D01*
X40468571Y-62350666D01*
X40544761Y-62312571D01*
X40620952Y-62312571D01*
X41001904Y-62845904D02*
X40925714Y-62807809D01*
X40887619Y-62769714D01*
X40849523Y-62693523D01*
X40849523Y-62464952D01*
X40887619Y-62388761D01*
X40925714Y-62350666D01*
X41001904Y-62312571D01*
X41116190Y-62312571D01*
X41192380Y-62350666D01*
X41230476Y-62388761D01*
X41268571Y-62464952D01*
X41268571Y-62693523D01*
X41230476Y-62769714D01*
X41192380Y-62807809D01*
X41116190Y-62845904D01*
X41001904Y-62845904D01*
X41497142Y-62312571D02*
X41801904Y-62312571D01*
X41611428Y-62045904D02*
X41611428Y-62731619D01*
X41649523Y-62807809D01*
X41725714Y-62845904D01*
X41801904Y-62845904D01*
D15*
X60188571Y-63928571D02*
X60131428Y-63985714D01*
X59960000Y-64042857D01*
X59845714Y-64042857D01*
X59674285Y-63985714D01*
X59560000Y-63871428D01*
X59502857Y-63757142D01*
X59445714Y-63528571D01*
X59445714Y-63357142D01*
X59502857Y-63128571D01*
X59560000Y-63014285D01*
X59674285Y-62900000D01*
X59845714Y-62842857D01*
X59960000Y-62842857D01*
X60131428Y-62900000D01*
X60188571Y-62957142D01*
X60645714Y-63700000D02*
X61217142Y-63700000D01*
X60531428Y-64042857D02*
X60931428Y-62842857D01*
X61331428Y-64042857D01*
X61731428Y-64042857D02*
X61731428Y-62842857D01*
X62417142Y-64042857D01*
X62417142Y-62842857D01*
X46128571Y-63280857D02*
X46128571Y-62080857D01*
X46585714Y-62080857D01*
X46700000Y-62138000D01*
X46757142Y-62195142D01*
X46814285Y-62309428D01*
X46814285Y-62480857D01*
X46757142Y-62595142D01*
X46700000Y-62652285D01*
X46585714Y-62709428D01*
X46128571Y-62709428D01*
X47500000Y-63280857D02*
X47385714Y-63223714D01*
X47328571Y-63166571D01*
X47271428Y-63052285D01*
X47271428Y-62709428D01*
X47328571Y-62595142D01*
X47385714Y-62538000D01*
X47500000Y-62480857D01*
X47671428Y-62480857D01*
X47785714Y-62538000D01*
X47842857Y-62595142D01*
X47900000Y-62709428D01*
X47900000Y-63052285D01*
X47842857Y-63166571D01*
X47785714Y-63223714D01*
X47671428Y-63280857D01*
X47500000Y-63280857D01*
X48300000Y-62480857D02*
X48528571Y-63280857D01*
X48757142Y-62709428D01*
X48985714Y-63280857D01*
X49214285Y-62480857D01*
X50128571Y-63223714D02*
X50014285Y-63280857D01*
X49785714Y-63280857D01*
X49671428Y-63223714D01*
X49614285Y-63109428D01*
X49614285Y-62652285D01*
X49671428Y-62538000D01*
X49785714Y-62480857D01*
X50014285Y-62480857D01*
X50128571Y-62538000D01*
X50185714Y-62652285D01*
X50185714Y-62766571D01*
X49614285Y-62880857D01*
X50700000Y-63280857D02*
X50700000Y-62480857D01*
X50700000Y-62709428D02*
X50757142Y-62595142D01*
X50814285Y-62538000D01*
X50928571Y-62480857D01*
X51042857Y-62480857D01*
D10*
X22459904Y-65252476D02*
X22078952Y-65519142D01*
X22459904Y-65709619D02*
X21659904Y-65709619D01*
X21659904Y-65404857D01*
X21698000Y-65328666D01*
X21736095Y-65290571D01*
X21812285Y-65252476D01*
X21926571Y-65252476D01*
X22002761Y-65290571D01*
X22040857Y-65328666D01*
X22078952Y-65404857D01*
X22078952Y-65709619D01*
X22421809Y-64604857D02*
X22459904Y-64681047D01*
X22459904Y-64833428D01*
X22421809Y-64909619D01*
X22345619Y-64947714D01*
X22040857Y-64947714D01*
X21964666Y-64909619D01*
X21926571Y-64833428D01*
X21926571Y-64681047D01*
X21964666Y-64604857D01*
X22040857Y-64566761D01*
X22117047Y-64566761D01*
X22193238Y-64947714D01*
X22421809Y-64262000D02*
X22459904Y-64185809D01*
X22459904Y-64033428D01*
X22421809Y-63957238D01*
X22345619Y-63919142D01*
X22307523Y-63919142D01*
X22231333Y-63957238D01*
X22193238Y-64033428D01*
X22193238Y-64147714D01*
X22155142Y-64223904D01*
X22078952Y-64262000D01*
X22040857Y-64262000D01*
X21964666Y-64223904D01*
X21926571Y-64147714D01*
X21926571Y-64033428D01*
X21964666Y-63957238D01*
X22421809Y-63271523D02*
X22459904Y-63347714D01*
X22459904Y-63500095D01*
X22421809Y-63576285D01*
X22345619Y-63614380D01*
X22040857Y-63614380D01*
X21964666Y-63576285D01*
X21926571Y-63500095D01*
X21926571Y-63347714D01*
X21964666Y-63271523D01*
X22040857Y-63233428D01*
X22117047Y-63233428D01*
X22193238Y-63614380D01*
X21926571Y-63004857D02*
X21926571Y-62700095D01*
X21659904Y-62890571D02*
X22345619Y-62890571D01*
X22421809Y-62852476D01*
X22459904Y-62776285D01*
X22459904Y-62700095D01*
D15*
X27479714Y-63420571D02*
X27422571Y-63477714D01*
X27251142Y-63534857D01*
X27136857Y-63534857D01*
X26965428Y-63477714D01*
X26851142Y-63363428D01*
X26794000Y-63249142D01*
X26736857Y-63020571D01*
X26736857Y-62849142D01*
X26794000Y-62620571D01*
X26851142Y-62506285D01*
X26965428Y-62392000D01*
X27136857Y-62334857D01*
X27251142Y-62334857D01*
X27422571Y-62392000D01*
X27479714Y-62449142D01*
X28508285Y-63534857D02*
X28508285Y-62906285D01*
X28451142Y-62792000D01*
X28336857Y-62734857D01*
X28108285Y-62734857D01*
X27994000Y-62792000D01*
X28508285Y-63477714D02*
X28394000Y-63534857D01*
X28108285Y-63534857D01*
X27994000Y-63477714D01*
X27936857Y-63363428D01*
X27936857Y-63249142D01*
X27994000Y-63134857D01*
X28108285Y-63077714D01*
X28394000Y-63077714D01*
X28508285Y-63020571D01*
X29079714Y-62734857D02*
X29079714Y-63934857D01*
X29079714Y-62792000D02*
X29194000Y-62734857D01*
X29422571Y-62734857D01*
X29536857Y-62792000D01*
X29594000Y-62849142D01*
X29651142Y-62963428D01*
X29651142Y-63306285D01*
X29594000Y-63420571D01*
X29536857Y-63477714D01*
X29422571Y-63534857D01*
X29194000Y-63534857D01*
X29079714Y-63477714D01*
D16*
X56324571Y-63357142D02*
X57467428Y-63357142D01*
D15*
X24488857Y-40100000D02*
X25688857Y-39700000D01*
X24488857Y-39300000D01*
X25631714Y-38385714D02*
X25688857Y-38500000D01*
X25688857Y-38728571D01*
X25631714Y-38842857D01*
X25574571Y-38900000D01*
X25460285Y-38957142D01*
X25117428Y-38957142D01*
X25003142Y-38900000D01*
X24946000Y-38842857D01*
X24888857Y-38728571D01*
X24888857Y-38500000D01*
X24946000Y-38385714D01*
X25688857Y-37357142D02*
X25060285Y-37357142D01*
X24946000Y-37414285D01*
X24888857Y-37528571D01*
X24888857Y-37757142D01*
X24946000Y-37871428D01*
X25631714Y-37357142D02*
X25688857Y-37471428D01*
X25688857Y-37757142D01*
X25631714Y-37871428D01*
X25517428Y-37928571D01*
X25403142Y-37928571D01*
X25288857Y-37871428D01*
X25231714Y-37757142D01*
X25231714Y-37471428D01*
X25174571Y-37357142D01*
X24888857Y-36785714D02*
X26088857Y-36785714D01*
X24946000Y-36785714D02*
X24888857Y-36671428D01*
X24888857Y-36442857D01*
X24946000Y-36328571D01*
X25003142Y-36271428D01*
X25117428Y-36214285D01*
X25460285Y-36214285D01*
X25574571Y-36271428D01*
X25631714Y-36328571D01*
X25688857Y-36442857D01*
X25688857Y-36671428D01*
X25631714Y-36785714D01*
D16*
X38036571Y-63099142D02*
X39179428Y-63099142D01*
X53107142Y-63821428D02*
X53107142Y-62678571D01*
X53678571Y-63250000D02*
X52535714Y-63250000D01*
X34678571Y-63107142D02*
X35821428Y-63107142D01*
X31607142Y-63821428D02*
X31607142Y-62678571D01*
X32178571Y-63250000D02*
X31035714Y-63250000D01*
D12*
X51616742Y-42965714D02*
X51997695Y-42965714D01*
X51759600Y-43632380D02*
X51759600Y-42775238D01*
X51807219Y-42680000D01*
X51902457Y-42632380D01*
X51997695Y-42632380D01*
X52473885Y-43632380D02*
X52378647Y-43584761D01*
X52331028Y-43537142D01*
X52283409Y-43441904D01*
X52283409Y-43156190D01*
X52331028Y-43060952D01*
X52378647Y-43013333D01*
X52473885Y-42965714D01*
X52616742Y-42965714D01*
X52711980Y-43013333D01*
X52759600Y-43060952D01*
X52807219Y-43156190D01*
X52807219Y-43441904D01*
X52759600Y-43537142D01*
X52711980Y-43584761D01*
X52616742Y-43632380D01*
X52473885Y-43632380D01*
X53235790Y-43632380D02*
X53235790Y-42965714D01*
X53235790Y-43156190D02*
X53283409Y-43060952D01*
X53331028Y-43013333D01*
X53426266Y-42965714D01*
X53521504Y-42965714D01*
X55188171Y-43632380D02*
X54854838Y-43156190D01*
X54616742Y-43632380D02*
X54616742Y-42632380D01*
X54997695Y-42632380D01*
X55092933Y-42680000D01*
X55140552Y-42727619D01*
X55188171Y-42822857D01*
X55188171Y-42965714D01*
X55140552Y-43060952D01*
X55092933Y-43108571D01*
X54997695Y-43156190D01*
X54616742Y-43156190D01*
X56045314Y-43632380D02*
X56045314Y-43108571D01*
X55997695Y-43013333D01*
X55902457Y-42965714D01*
X55711980Y-42965714D01*
X55616742Y-43013333D01*
X56045314Y-43584761D02*
X55950076Y-43632380D01*
X55711980Y-43632380D01*
X55616742Y-43584761D01*
X55569123Y-43489523D01*
X55569123Y-43394285D01*
X55616742Y-43299047D01*
X55711980Y-43251428D01*
X55950076Y-43251428D01*
X56045314Y-43203809D01*
X56473885Y-43584761D02*
X56569123Y-43632380D01*
X56759600Y-43632380D01*
X56854838Y-43584761D01*
X56902457Y-43489523D01*
X56902457Y-43441904D01*
X56854838Y-43346666D01*
X56759600Y-43299047D01*
X56616742Y-43299047D01*
X56521504Y-43251428D01*
X56473885Y-43156190D01*
X56473885Y-43108571D01*
X56521504Y-43013333D01*
X56616742Y-42965714D01*
X56759600Y-42965714D01*
X56854838Y-43013333D01*
X57331028Y-42965714D02*
X57331028Y-43965714D01*
X57331028Y-43013333D02*
X57426266Y-42965714D01*
X57616742Y-42965714D01*
X57711980Y-43013333D01*
X57759600Y-43060952D01*
X57807219Y-43156190D01*
X57807219Y-43441904D01*
X57759600Y-43537142D01*
X57711980Y-43584761D01*
X57616742Y-43632380D01*
X57426266Y-43632380D01*
X57331028Y-43584761D01*
X58235790Y-43632380D02*
X58235790Y-42632380D01*
X58235790Y-43013333D02*
X58331028Y-42965714D01*
X58521504Y-42965714D01*
X58616742Y-43013333D01*
X58664361Y-43060952D01*
X58711980Y-43156190D01*
X58711980Y-43441904D01*
X58664361Y-43537142D01*
X58616742Y-43584761D01*
X58521504Y-43632380D01*
X58331028Y-43632380D01*
X58235790Y-43584761D01*
X59521504Y-43584761D02*
X59426266Y-43632380D01*
X59235790Y-43632380D01*
X59140552Y-43584761D01*
X59092933Y-43489523D01*
X59092933Y-43108571D01*
X59140552Y-43013333D01*
X59235790Y-42965714D01*
X59426266Y-42965714D01*
X59521504Y-43013333D01*
X59569123Y-43108571D01*
X59569123Y-43203809D01*
X59092933Y-43299047D01*
X59997695Y-43632380D02*
X59997695Y-42965714D01*
X59997695Y-43156190D02*
X60045314Y-43060952D01*
X60092933Y-43013333D01*
X60188171Y-42965714D01*
X60283409Y-42965714D01*
X60616742Y-43632380D02*
X60616742Y-42965714D01*
X60616742Y-43156190D02*
X60664361Y-43060952D01*
X60711980Y-43013333D01*
X60807219Y-42965714D01*
X60902457Y-42965714D01*
X61140552Y-42965714D02*
X61378647Y-43632380D01*
X61616742Y-42965714D02*
X61378647Y-43632380D01*
X61283409Y-43870476D01*
X61235790Y-43918095D01*
X61140552Y-43965714D01*
X62759600Y-43632380D02*
X62759600Y-42632380D01*
X63140552Y-42632380D01*
X63235790Y-42680000D01*
X63283409Y-42727619D01*
X63331028Y-42822857D01*
X63331028Y-42965714D01*
X63283409Y-43060952D01*
X63235790Y-43108571D01*
X63140552Y-43156190D01*
X62759600Y-43156190D01*
X63759600Y-43632380D02*
X63759600Y-42965714D01*
X63759600Y-42632380D02*
X63711980Y-42680000D01*
X63759600Y-42727619D01*
X63807219Y-42680000D01*
X63759600Y-42632380D01*
X63759600Y-42727619D01*
D13*
X62992214Y-47605071D02*
X62492214Y-46890785D01*
X62135071Y-47605071D02*
X62135071Y-46105071D01*
X62706500Y-46105071D01*
X62849357Y-46176500D01*
X62920785Y-46247928D01*
X62992214Y-46390785D01*
X62992214Y-46605071D01*
X62920785Y-46747928D01*
X62849357Y-46819357D01*
X62706500Y-46890785D01*
X62135071Y-46890785D01*
X64206500Y-47533642D02*
X64063642Y-47605071D01*
X63777928Y-47605071D01*
X63635071Y-47533642D01*
X63563642Y-47390785D01*
X63563642Y-46819357D01*
X63635071Y-46676500D01*
X63777928Y-46605071D01*
X64063642Y-46605071D01*
X64206500Y-46676500D01*
X64277928Y-46819357D01*
X64277928Y-46962214D01*
X63563642Y-47105071D01*
X64777928Y-46605071D02*
X65135071Y-47605071D01*
X65492214Y-46605071D01*
X66063642Y-47462214D02*
X66135071Y-47533642D01*
X66063642Y-47605071D01*
X65992214Y-47533642D01*
X66063642Y-47462214D01*
X66063642Y-47605071D01*
X67492214Y-47605071D02*
X66777928Y-47605071D01*
X66777928Y-46105071D01*
D16*
X72571428Y-63928571D02*
X72571428Y-62428571D01*
X72571428Y-63142857D02*
X73428571Y-63142857D01*
X73428571Y-63928571D02*
X73428571Y-62428571D01*
X77214285Y-63928571D02*
X76500000Y-63928571D01*
X76500000Y-62428571D01*
X64678571Y-63357142D02*
X65821428Y-63357142D01*
X65250000Y-63928571D02*
X65250000Y-62785714D01*
X68428571Y-63357142D02*
X69571428Y-63357142D01*
D15*
X25631714Y-45907000D02*
X25688857Y-45735571D01*
X25688857Y-45449857D01*
X25631714Y-45335571D01*
X25574571Y-45278428D01*
X25460285Y-45221285D01*
X25346000Y-45221285D01*
X25231714Y-45278428D01*
X25174571Y-45335571D01*
X25117428Y-45449857D01*
X25060285Y-45678428D01*
X25003142Y-45792714D01*
X24946000Y-45849857D01*
X24831714Y-45907000D01*
X24717428Y-45907000D01*
X24603142Y-45849857D01*
X24546000Y-45792714D01*
X24488857Y-45678428D01*
X24488857Y-45392714D01*
X24546000Y-45221285D01*
X24888857Y-44878428D02*
X24888857Y-44421285D01*
X24488857Y-44707000D02*
X25517428Y-44707000D01*
X25631714Y-44649857D01*
X25688857Y-44535571D01*
X25688857Y-44421285D01*
X25688857Y-43507000D02*
X25060285Y-43507000D01*
X24946000Y-43564142D01*
X24888857Y-43678428D01*
X24888857Y-43907000D01*
X24946000Y-44021285D01*
X25631714Y-43507000D02*
X25688857Y-43621285D01*
X25688857Y-43907000D01*
X25631714Y-44021285D01*
X25517428Y-44078428D01*
X25403142Y-44078428D01*
X25288857Y-44021285D01*
X25231714Y-43907000D01*
X25231714Y-43621285D01*
X25174571Y-43507000D01*
X24888857Y-43107000D02*
X24888857Y-42649857D01*
X24488857Y-42935571D02*
X25517428Y-42935571D01*
X25631714Y-42878428D01*
X25688857Y-42764142D01*
X25688857Y-42649857D01*
X24888857Y-41735571D02*
X25688857Y-41735571D01*
X24888857Y-42249857D02*
X25517428Y-42249857D01*
X25631714Y-42192714D01*
X25688857Y-42078428D01*
X25688857Y-41907000D01*
X25631714Y-41792714D01*
X25574571Y-41735571D01*
X25631714Y-41221285D02*
X25688857Y-41107000D01*
X25688857Y-40878428D01*
X25631714Y-40764142D01*
X25517428Y-40707000D01*
X25460285Y-40707000D01*
X25346000Y-40764142D01*
X25288857Y-40878428D01*
X25288857Y-41049857D01*
X25231714Y-41164142D01*
X25117428Y-41221285D01*
X25060285Y-41221285D01*
X24946000Y-41164142D01*
X24888857Y-41049857D01*
X24888857Y-40878428D01*
X24946000Y-40764142D01*
X24488857Y-34010571D02*
X24488857Y-34582000D01*
X25060285Y-34639142D01*
X25003142Y-34582000D01*
X24946000Y-34467714D01*
X24946000Y-34182000D01*
X25003142Y-34067714D01*
X25060285Y-34010571D01*
X25174571Y-33953428D01*
X25460285Y-33953428D01*
X25574571Y-34010571D01*
X25631714Y-34067714D01*
X25688857Y-34182000D01*
X25688857Y-34467714D01*
X25631714Y-34582000D01*
X25574571Y-34639142D01*
X24488857Y-33610571D02*
X25688857Y-33210571D01*
X24488857Y-32810571D01*
X24488857Y-31200571D02*
X25688857Y-30800571D01*
X24488857Y-30400571D01*
X25688857Y-30000571D02*
X24888857Y-30000571D01*
X24488857Y-30000571D02*
X24546000Y-30057714D01*
X24603142Y-30000571D01*
X24546000Y-29943428D01*
X24488857Y-30000571D01*
X24603142Y-30000571D01*
X24888857Y-29429142D02*
X25688857Y-29429142D01*
X25003142Y-29429142D02*
X24946000Y-29372000D01*
X24888857Y-29257714D01*
X24888857Y-29086285D01*
X24946000Y-28972000D01*
X25060285Y-28914857D01*
X25688857Y-28914857D01*
D17*
%TO.C,U201*%
X31338000Y-50480000D02*
X31338000Y-50480000D01*
X31338000Y-50580000D02*
X31338000Y-50580000D01*
X30718000Y-48530000D02*
X28718000Y-48530000D01*
X30718000Y-50530000D02*
X28718000Y-50530000D01*
X31338000Y-50480000D02*
G75*
G02*
X31338000Y-50580000I0J-50000D01*
G01*
X31338000Y-50580000D02*
G75*
G02*
X31338000Y-50480000I0J50000D01*
G01*
D11*
%TO.C,J701*%
X27389000Y-64730000D02*
X27389000Y-74150000D01*
X27389000Y-74150000D02*
X40429000Y-74150000D01*
X40429000Y-74150000D02*
X40429000Y-64730000D01*
X27389000Y-64730000D02*
X29049000Y-64730000D01*
X40429000Y-64730000D02*
X38769000Y-64730000D01*
X31149000Y-64730000D02*
X32859000Y-64730000D01*
X34959000Y-64730000D02*
X36669000Y-64730000D01*
X27389000Y-70840000D02*
X40429000Y-70840000D01*
X30399000Y-63440000D02*
X30099000Y-64040000D01*
X30099000Y-64040000D02*
X29799000Y-63440000D01*
X29799000Y-63440000D02*
X30399000Y-63440000D01*
%TO.C,J501*%
X48790000Y-64690000D02*
X48790000Y-74110000D01*
X48790000Y-74110000D02*
X58020000Y-74110000D01*
X58020000Y-74110000D02*
X58020000Y-64690000D01*
X48790000Y-64690000D02*
X50450000Y-64690000D01*
X58020000Y-64690000D02*
X56360000Y-64690000D01*
X52550000Y-64690000D02*
X54260000Y-64690000D01*
X48790000Y-70800000D02*
X58020000Y-70800000D01*
X51800000Y-63400000D02*
X51500000Y-64000000D01*
X51500000Y-64000000D02*
X51200000Y-63400000D01*
X51200000Y-63400000D02*
X51800000Y-63400000D01*
%TO.C,JP801*%
X79384700Y-65305300D02*
X79384700Y-63955300D01*
X82184700Y-65305300D02*
X79384700Y-65305300D01*
X82184700Y-63955300D02*
X82184700Y-65305300D01*
X79384700Y-63955300D02*
X82184700Y-63955300D01*
D14*
%TO.C,TP302*%
X34293000Y-54038500D02*
G75*
G03*
X34293000Y-54038500I-1400000J0D01*
G01*
%TO.C,TP802*%
X65662000Y-52324000D02*
G75*
G03*
X65662000Y-52324000I-1400000J0D01*
G01*
D11*
%TO.C,TP801*%
X69707800Y-45427900D02*
G75*
G03*
X69707800Y-45427900I-950000J0D01*
G01*
D14*
%TO.C,TP301*%
X61153500Y-46672500D02*
G75*
G03*
X61153500Y-46672500I-1400000J0D01*
G01*
D11*
%TO.C,BT401*%
X81022500Y-28302000D02*
X82522500Y-28302000D01*
X81022500Y-41802000D02*
X82522500Y-41802000D01*
X75822500Y-41802000D02*
X74972500Y-41802000D01*
X74972500Y-41802000D02*
X72372500Y-39202000D01*
X72372500Y-39202000D02*
X71572500Y-38352000D01*
X71572500Y-38352000D02*
X71572500Y-31652000D01*
X71572500Y-31652000D02*
X72372500Y-30902000D01*
X72372500Y-30902000D02*
X74972500Y-28302000D01*
X74972500Y-28302000D02*
X75822500Y-28302000D01*
X84006660Y-29637385D02*
G75*
G02*
X83622500Y-30552000I-984160J-124615D01*
G01*
X84006660Y-40466615D02*
G75*
G03*
X83622500Y-39552000I-984160J124615D01*
G01*
X82472500Y-28302000D02*
G75*
G02*
X84022500Y-29752000I50000J-1500000D01*
G01*
X82472500Y-41802000D02*
G75*
G03*
X84022500Y-40352000I50000J1500000D01*
G01*
%TO.C,C201*%
X26110000Y-50296578D02*
X26110000Y-49779422D01*
X24690000Y-50296578D02*
X24690000Y-49779422D01*
%TO.C,C202*%
X30983422Y-46684000D02*
X31500578Y-46684000D01*
X30983422Y-45264000D02*
X31500578Y-45264000D01*
%TO.C,C203*%
X30983422Y-42620000D02*
X31500578Y-42620000D01*
X30983422Y-41200000D02*
X31500578Y-41200000D01*
%TO.C,C204*%
X30983422Y-43232000D02*
X31500578Y-43232000D01*
X30983422Y-44652000D02*
X31500578Y-44652000D01*
%TO.C,C301*%
X44290064Y-55540000D02*
X43085936Y-55540000D01*
X44290064Y-53720000D02*
X43085936Y-53720000D01*
%TO.C,C302*%
X55531936Y-51476000D02*
X56736064Y-51476000D01*
X55531936Y-49656000D02*
X56736064Y-49656000D01*
%TO.C,C303*%
X55488721Y-45488000D02*
X55814279Y-45488000D01*
X55488721Y-44468000D02*
X55814279Y-44468000D01*
%TO.C,C305*%
X37596578Y-46005500D02*
X37079422Y-46005500D01*
X37596578Y-44585500D02*
X37079422Y-44585500D01*
%TO.C,C701*%
X33691936Y-59320000D02*
X34896064Y-59320000D01*
X33691936Y-61140000D02*
X34896064Y-61140000D01*
%TO.C,C802*%
X69751936Y-56310000D02*
X70956064Y-56310000D01*
X69751936Y-54490000D02*
X70956064Y-54490000D01*
%TO.C,C805*%
X66542000Y-51935221D02*
X66542000Y-52260779D01*
X67562000Y-51935221D02*
X67562000Y-52260779D01*
%TO.C,D301*%
X45818000Y-53232000D02*
X40418000Y-53232000D01*
X45818000Y-49932000D02*
X40418000Y-49932000D01*
X45818000Y-53232000D02*
X45818000Y-49932000D01*
%TO.C,D302*%
X41536000Y-58278000D02*
X41536000Y-57078000D01*
X39686000Y-58278000D02*
X41536000Y-58278000D01*
X39686000Y-57078000D02*
X41536000Y-57078000D01*
%TO.C,D501*%
X47827000Y-63780000D02*
X47827000Y-72180000D01*
X41327000Y-63780000D02*
X41327000Y-72180000D01*
X41327000Y-63780000D02*
X47827000Y-63780000D01*
%TO.C,D502*%
X42950000Y-56320000D02*
X45500000Y-56320000D01*
X42950000Y-58020000D02*
X45500000Y-58020000D01*
X42950000Y-56320000D02*
X42950000Y-58020000D01*
%TO.C,D601*%
X33493000Y-37273000D02*
X33493000Y-39123000D01*
X32293000Y-37273000D02*
X32293000Y-39123000D01*
X32293000Y-39123000D02*
X33493000Y-39123000D01*
%TO.C,D602*%
X28069000Y-36139000D02*
X28069000Y-37069000D01*
X28069000Y-39299000D02*
X28069000Y-38369000D01*
X28069000Y-39299000D02*
X30229000Y-39299000D01*
X28069000Y-36139000D02*
X29529000Y-36139000D01*
%TO.C,D701*%
X23087000Y-30772000D02*
X23087000Y-28487000D01*
X23087000Y-28487000D02*
X21617000Y-28487000D01*
X21617000Y-28487000D02*
X21617000Y-30772000D01*
%TO.C,D702*%
X21617000Y-32551000D02*
X21617000Y-34836000D01*
X23087000Y-32551000D02*
X21617000Y-32551000D01*
X23087000Y-34836000D02*
X23087000Y-32551000D01*
%TO.C,D703*%
X23087000Y-38900000D02*
X23087000Y-36615000D01*
X23087000Y-36615000D02*
X21617000Y-36615000D01*
X21617000Y-36615000D02*
X21617000Y-38900000D01*
%TO.C,D704*%
X21617000Y-40679000D02*
X21617000Y-42964000D01*
X23087000Y-40679000D02*
X21617000Y-40679000D01*
X23087000Y-42964000D02*
X23087000Y-40679000D01*
%TO.C,D801*%
X65788000Y-57314000D02*
X71488000Y-57314000D01*
X65788000Y-61614000D02*
X71488000Y-61614000D01*
X65788000Y-57314000D02*
X65788000Y-61614000D01*
%TO.C,D802*%
X67728000Y-56400000D02*
X63878000Y-56400000D01*
X67728000Y-54400000D02*
X63878000Y-54400000D01*
X67728000Y-56400000D02*
X67728000Y-54400000D01*
%TO.C,F501*%
X51136248Y-61364000D02*
X55543752Y-61364000D01*
X51136248Y-56024000D02*
X55543752Y-56024000D01*
%TO.C,F801*%
X61062000Y-59647936D02*
X61062000Y-60852064D01*
X62882000Y-59647936D02*
X62882000Y-60852064D01*
%TO.C,FB501*%
X46788000Y-58444578D02*
X46788000Y-57927422D01*
X48208000Y-58444578D02*
X48208000Y-57927422D01*
%TO.C,FB701*%
X33859922Y-58654000D02*
X34377078Y-58654000D01*
X33859922Y-57234000D02*
X34377078Y-57234000D01*
%TO.C,FB801*%
X63548000Y-59713422D02*
X63548000Y-60230578D01*
X64968000Y-59713422D02*
X64968000Y-60230578D01*
%TO.C,J601*%
X55310000Y-34490000D02*
X55310000Y-29290000D01*
X40010000Y-34490000D02*
X55310000Y-34490000D01*
X37410000Y-29290000D02*
X55310000Y-29290000D01*
X40010000Y-34490000D02*
X40010000Y-31890000D01*
X40010000Y-31890000D02*
X37410000Y-31890000D01*
X37410000Y-31890000D02*
X37410000Y-29290000D01*
X38740000Y-34490000D02*
X37410000Y-34490000D01*
X37410000Y-34490000D02*
X37410000Y-33160000D01*
%TO.C,J702*%
X27243000Y-24342400D02*
X27243000Y-23012400D01*
X28573000Y-24342400D02*
X27243000Y-24342400D01*
X27243000Y-21742400D02*
X27243000Y-19142400D01*
X29843000Y-21742400D02*
X27243000Y-21742400D01*
X29843000Y-24342400D02*
X29843000Y-21742400D01*
X27243000Y-19142400D02*
X78163000Y-19142400D01*
X29843000Y-24342400D02*
X78163000Y-24342400D01*
X78163000Y-24342400D02*
X78163000Y-19142400D01*
%TO.C,J801*%
X63454000Y-63440000D02*
X64054000Y-63440000D01*
X63754000Y-64040000D02*
X63454000Y-63440000D01*
X64054000Y-63440000D02*
X63754000Y-64040000D01*
X61044000Y-70840000D02*
X77894000Y-70840000D01*
X72424000Y-64730000D02*
X74134000Y-64730000D01*
X68614000Y-64730000D02*
X70324000Y-64730000D01*
X64804000Y-64730000D02*
X66514000Y-64730000D01*
X77894000Y-64730000D02*
X76234000Y-64730000D01*
X61044000Y-64730000D02*
X62704000Y-64730000D01*
X77894000Y-74150000D02*
X77894000Y-64730000D01*
X61044000Y-74150000D02*
X77894000Y-74150000D01*
X61044000Y-64730000D02*
X61044000Y-74150000D01*
%TO.C,L201*%
X30370000Y-52226000D02*
X30370000Y-53726000D01*
X22970000Y-52226000D02*
X22970000Y-53726000D01*
X30370000Y-52226000D02*
X22970000Y-52226000D01*
X22970000Y-59026000D02*
X22970000Y-57526000D01*
X30370000Y-59026000D02*
X30370000Y-57526000D01*
X22970000Y-59026000D02*
X30370000Y-59026000D01*
%TO.C,L301*%
X40012000Y-49416000D02*
X40012000Y-46616000D01*
X50412000Y-49416000D02*
X40012000Y-49416000D01*
X50412000Y-46616000D02*
X50412000Y-49416000D01*
X40012000Y-39016000D02*
X40012000Y-41816000D01*
X50412000Y-39016000D02*
X40012000Y-39016000D01*
X50412000Y-41816000D02*
X50412000Y-39016000D01*
%TO.C,Q501*%
X42870000Y-60978000D02*
X42870000Y-59518000D01*
X46030000Y-60978000D02*
X46030000Y-58818000D01*
X46030000Y-60978000D02*
X45100000Y-60978000D01*
X42870000Y-60978000D02*
X43800000Y-60978000D01*
%TO.C,R301*%
X51814000Y-47863221D02*
X51814000Y-48188779D01*
X52834000Y-47863221D02*
X52834000Y-48188779D01*
%TO.C,R304*%
X38502000Y-49453564D02*
X38502000Y-48249436D01*
X36682000Y-49453564D02*
X36682000Y-48249436D01*
%TO.C,R601*%
X38483000Y-60507779D02*
X38483000Y-60182221D01*
X37463000Y-60507779D02*
X37463000Y-60182221D01*
%TO.C,R705*%
X57402000Y-28102779D02*
X57402000Y-27777221D01*
X58422000Y-28102779D02*
X58422000Y-27777221D01*
%TO.C,R706*%
X60708000Y-28102779D02*
X60708000Y-27777221D01*
X59688000Y-28102779D02*
X59688000Y-27777221D01*
%TO.C,R707*%
X61974000Y-28102779D02*
X61974000Y-27777221D01*
X62994000Y-28102779D02*
X62994000Y-27777221D01*
%TO.C,R708*%
X67566000Y-28077279D02*
X67566000Y-27751721D01*
X66546000Y-28077279D02*
X66546000Y-27751721D01*
%TO.C,R709*%
X64260000Y-28102779D02*
X64260000Y-27777221D01*
X65280000Y-28102779D02*
X65280000Y-27777221D01*
%TO.C,R801*%
X81374064Y-63394000D02*
X80169936Y-63394000D01*
X81374064Y-61574000D02*
X80169936Y-61574000D01*
%TO.C,SW201*%
X25968000Y-66862000D02*
X24638000Y-66862000D01*
X25968000Y-65532000D02*
X25968000Y-66862000D01*
X25968000Y-64262000D02*
X23308000Y-64262000D01*
X23308000Y-64262000D02*
X23308000Y-61662000D01*
X25968000Y-64262000D02*
X25968000Y-61662000D01*
X25968000Y-61662000D02*
X23308000Y-61662000D01*
D14*
%TO.C,TP501*%
X42040000Y-60345000D02*
G75*
G03*
X42040000Y-60345000I-1400000J0D01*
G01*
D11*
%TO.C,U301*%
X54046000Y-48278000D02*
X54046000Y-46818000D01*
X57206000Y-48278000D02*
X57206000Y-46118000D01*
X57206000Y-48278000D02*
X56276000Y-48278000D01*
X54046000Y-48278000D02*
X54976000Y-48278000D01*
%TO.C,U302*%
X49784000Y-49784000D02*
X46334000Y-49784000D01*
X49784000Y-49784000D02*
X51734000Y-49784000D01*
X49784000Y-54904000D02*
X47834000Y-54904000D01*
X49784000Y-54904000D02*
X51734000Y-54904000D01*
%TO.C,U303*%
X33638000Y-49167500D02*
X33638000Y-50567500D01*
X35958000Y-50567500D02*
X35958000Y-48667500D01*
%TO.C,U401*%
X56874001Y-34752999D02*
X56874001Y-38202999D01*
X56874001Y-34752999D02*
X56874001Y-32802999D01*
X61994001Y-34752999D02*
X61994001Y-36702999D01*
X61994001Y-34752999D02*
X61994001Y-32802999D01*
%TO.C,U601*%
X27061000Y-32004000D02*
X27061000Y-35454000D01*
X27061000Y-32004000D02*
X27061000Y-30054000D01*
X35931000Y-32004000D02*
X35931000Y-33954000D01*
X35931000Y-32004000D02*
X35931000Y-30054000D01*
%TO.C,U701*%
X31580000Y-60080000D02*
X31580000Y-61080000D01*
X28880000Y-60080000D02*
X28880000Y-60580000D01*
%TO.C,U801*%
X74068000Y-60113500D02*
X74068000Y-60613500D01*
X76768000Y-60113500D02*
X76768000Y-61113500D01*
%TO.C,U802*%
X68266000Y-52858000D02*
X69196000Y-52858000D01*
X71426000Y-52858000D02*
X70496000Y-52858000D01*
X71426000Y-52858000D02*
X71426000Y-50698000D01*
X68266000Y-52858000D02*
X68266000Y-51398000D01*
%TO.C,U803*%
X63658300Y-35648900D02*
X63658300Y-39248900D01*
X63658300Y-35648900D02*
X63658300Y-33448900D01*
X70428300Y-35648900D02*
X70428300Y-37848900D01*
X70428300Y-35648900D02*
X70428300Y-33448900D01*
%TO.C,U804*%
X82369000Y-49694000D02*
X82369000Y-47414000D01*
X82659000Y-49694000D02*
X82369000Y-49694000D01*
X82659000Y-53114000D02*
X82659000Y-49694000D01*
X82659000Y-56534000D02*
X82369000Y-56534000D01*
X82659000Y-53114000D02*
X82659000Y-56534000D01*
X73289000Y-49694000D02*
X73579000Y-49694000D01*
X73289000Y-53114000D02*
X73289000Y-49694000D01*
X73289000Y-56534000D02*
X73579000Y-56534000D01*
X73289000Y-53114000D02*
X73289000Y-56534000D01*
%TO.C,Y801*%
X66282300Y-39871900D02*
X66282300Y-43871900D01*
X69582300Y-39871900D02*
X66282300Y-39871900D01*
%TD*%
M02*
