%TF.GenerationSoftware,KiCad,Pcbnew,(5.1.8-0-10_14)*%
%TF.CreationDate,2020-11-27T15:46:17+02:00*%
%TF.ProjectId,SH-RPi,53482d52-5069-42e6-9b69-6361645f7063,revL*%
%TF.SameCoordinates,Original*%
%TF.FileFunction,Soldermask,Top*%
%TF.FilePolarity,Negative*%
%FSLAX46Y46*%
G04 Gerber Fmt 4.6, Leading zero omitted, Abs format (unit mm)*
G04 Created by KiCad (PCBNEW (5.1.8-0-10_14)) date 2020-11-27 15:46:17*
%MOMM*%
%LPD*%
G01*
G04 APERTURE LIST*
%ADD10R,1.050000X0.250000*%
%ADD11R,1.750000X0.350000*%
%ADD12R,2.050000X0.200000*%
%ADD13O,1.800000X3.600000*%
%ADD14C,0.150000*%
%ADD15C,2.000000*%
%ADD16C,1.500000*%
%ADD17C,10.200000*%
%ADD18R,5.100000X2.500000*%
%ADD19C,6.200000*%
%ADD20R,2.500000X1.800000*%
%ADD21R,0.600000X0.700000*%
%ADD22R,3.300000X2.500000*%
%ADD23R,0.600000X0.450000*%
%ADD24R,0.700000X0.600000*%
%ADD25R,0.900000X0.800000*%
%ADD26R,2.500000X2.300000*%
%ADD27R,1.100000X1.100000*%
%ADD28R,1.700000X1.700000*%
%ADD29O,1.700000X1.700000*%
%ADD30R,3.500000X4.000000*%
%ADD31R,0.800000X0.900000*%
%ADD32R,2.410000X3.810000*%
%ADD33R,0.400000X1.500000*%
%ADD34R,0.250000X0.625000*%
%ADD35R,0.450000X0.700000*%
%ADD36R,0.450000X0.575000*%
%ADD37R,1.200000X1.400000*%
G04 APERTURE END LIST*
D10*
%TO.C,U201*%
X28443000Y-50280000D03*
X28443000Y-49780000D03*
X28443000Y-49280000D03*
X28443000Y-48780000D03*
D11*
X30643000Y-48980000D03*
D12*
X30493000Y-49530000D03*
D11*
X30643000Y-50080000D03*
%TD*%
D13*
%TO.C,J701*%
X37719000Y-66040000D03*
X33909000Y-66040000D03*
G36*
G01*
X29199000Y-67590000D02*
X29199000Y-64490000D01*
G75*
G02*
X29449000Y-64240000I250000J0D01*
G01*
X30749000Y-64240000D01*
G75*
G02*
X30999000Y-64490000I0J-250000D01*
G01*
X30999000Y-67590000D01*
G75*
G02*
X30749000Y-67840000I-250000J0D01*
G01*
X29449000Y-67840000D01*
G75*
G02*
X29199000Y-67590000I0J250000D01*
G01*
G37*
%TD*%
%TO.C,J501*%
X55310000Y-66000000D03*
G36*
G01*
X50600000Y-67550000D02*
X50600000Y-64450000D01*
G75*
G02*
X50850000Y-64200000I250000J0D01*
G01*
X52150000Y-64200000D01*
G75*
G02*
X52400000Y-64450000I0J-250000D01*
G01*
X52400000Y-67550000D01*
G75*
G02*
X52150000Y-67800000I-250000J0D01*
G01*
X50850000Y-67800000D01*
G75*
G02*
X50600000Y-67550000I0J250000D01*
G01*
G37*
%TD*%
D14*
%TO.C,JP801*%
G36*
X81984700Y-65130300D02*
G01*
X80834700Y-65130300D01*
X81334700Y-64630300D01*
X80834700Y-64130300D01*
X81984700Y-64130300D01*
X81984700Y-65130300D01*
G37*
G36*
X81059700Y-64630300D02*
G01*
X80559700Y-65130300D01*
X79559700Y-65130300D01*
X79559700Y-64130300D01*
X80559700Y-64130300D01*
X81059700Y-64630300D01*
G37*
%TD*%
%TO.C,C914*%
G36*
G01*
X32593500Y-49720000D02*
X32938500Y-49720000D01*
G75*
G02*
X33086000Y-49867500I0J-147500D01*
G01*
X33086000Y-50162500D01*
G75*
G02*
X32938500Y-50310000I-147500J0D01*
G01*
X32593500Y-50310000D01*
G75*
G02*
X32446000Y-50162500I0J147500D01*
G01*
X32446000Y-49867500D01*
G75*
G02*
X32593500Y-49720000I147500J0D01*
G01*
G37*
G36*
G01*
X32593500Y-48750000D02*
X32938500Y-48750000D01*
G75*
G02*
X33086000Y-48897500I0J-147500D01*
G01*
X33086000Y-49192500D01*
G75*
G02*
X32938500Y-49340000I-147500J0D01*
G01*
X32593500Y-49340000D01*
G75*
G02*
X32446000Y-49192500I0J147500D01*
G01*
X32446000Y-48897500D01*
G75*
G02*
X32593500Y-48750000I147500J0D01*
G01*
G37*
%TD*%
%TO.C,C913*%
G36*
G01*
X22670000Y-39959500D02*
X22670000Y-40304500D01*
G75*
G02*
X22522500Y-40452000I-147500J0D01*
G01*
X22227500Y-40452000D01*
G75*
G02*
X22080000Y-40304500I0J147500D01*
G01*
X22080000Y-39959500D01*
G75*
G02*
X22227500Y-39812000I147500J0D01*
G01*
X22522500Y-39812000D01*
G75*
G02*
X22670000Y-39959500I0J-147500D01*
G01*
G37*
G36*
G01*
X23640000Y-39959500D02*
X23640000Y-40304500D01*
G75*
G02*
X23492500Y-40452000I-147500J0D01*
G01*
X23197500Y-40452000D01*
G75*
G02*
X23050000Y-40304500I0J147500D01*
G01*
X23050000Y-39959500D01*
G75*
G02*
X23197500Y-39812000I147500J0D01*
G01*
X23492500Y-39812000D01*
G75*
G02*
X23640000Y-39959500I0J-147500D01*
G01*
G37*
%TD*%
%TO.C,C912*%
G36*
G01*
X22670000Y-35895500D02*
X22670000Y-36240500D01*
G75*
G02*
X22522500Y-36388000I-147500J0D01*
G01*
X22227500Y-36388000D01*
G75*
G02*
X22080000Y-36240500I0J147500D01*
G01*
X22080000Y-35895500D01*
G75*
G02*
X22227500Y-35748000I147500J0D01*
G01*
X22522500Y-35748000D01*
G75*
G02*
X22670000Y-35895500I0J-147500D01*
G01*
G37*
G36*
G01*
X23640000Y-35895500D02*
X23640000Y-36240500D01*
G75*
G02*
X23492500Y-36388000I-147500J0D01*
G01*
X23197500Y-36388000D01*
G75*
G02*
X23050000Y-36240500I0J147500D01*
G01*
X23050000Y-35895500D01*
G75*
G02*
X23197500Y-35748000I147500J0D01*
G01*
X23492500Y-35748000D01*
G75*
G02*
X23640000Y-35895500I0J-147500D01*
G01*
G37*
%TD*%
%TO.C,C911*%
G36*
G01*
X22670000Y-31831500D02*
X22670000Y-32176500D01*
G75*
G02*
X22522500Y-32324000I-147500J0D01*
G01*
X22227500Y-32324000D01*
G75*
G02*
X22080000Y-32176500I0J147500D01*
G01*
X22080000Y-31831500D01*
G75*
G02*
X22227500Y-31684000I147500J0D01*
G01*
X22522500Y-31684000D01*
G75*
G02*
X22670000Y-31831500I0J-147500D01*
G01*
G37*
G36*
G01*
X23640000Y-31831500D02*
X23640000Y-32176500D01*
G75*
G02*
X23492500Y-32324000I-147500J0D01*
G01*
X23197500Y-32324000D01*
G75*
G02*
X23050000Y-32176500I0J147500D01*
G01*
X23050000Y-31831500D01*
G75*
G02*
X23197500Y-31684000I147500J0D01*
G01*
X23492500Y-31684000D01*
G75*
G02*
X23640000Y-31831500I0J-147500D01*
G01*
G37*
%TD*%
%TO.C,C910*%
G36*
G01*
X36259000Y-26751500D02*
X36259000Y-27096500D01*
G75*
G02*
X36111500Y-27244000I-147500J0D01*
G01*
X35816500Y-27244000D01*
G75*
G02*
X35669000Y-27096500I0J147500D01*
G01*
X35669000Y-26751500D01*
G75*
G02*
X35816500Y-26604000I147500J0D01*
G01*
X36111500Y-26604000D01*
G75*
G02*
X36259000Y-26751500I0J-147500D01*
G01*
G37*
G36*
G01*
X37229000Y-26751500D02*
X37229000Y-27096500D01*
G75*
G02*
X37081500Y-27244000I-147500J0D01*
G01*
X36786500Y-27244000D01*
G75*
G02*
X36639000Y-27096500I0J147500D01*
G01*
X36639000Y-26751500D01*
G75*
G02*
X36786500Y-26604000I147500J0D01*
G01*
X37081500Y-26604000D01*
G75*
G02*
X37229000Y-26751500I0J-147500D01*
G01*
G37*
%TD*%
%TO.C,C909*%
G36*
G01*
X56497000Y-29782000D02*
X56152000Y-29782000D01*
G75*
G02*
X56004500Y-29634500I0J147500D01*
G01*
X56004500Y-29339500D01*
G75*
G02*
X56152000Y-29192000I147500J0D01*
G01*
X56497000Y-29192000D01*
G75*
G02*
X56644500Y-29339500I0J-147500D01*
G01*
X56644500Y-29634500D01*
G75*
G02*
X56497000Y-29782000I-147500J0D01*
G01*
G37*
G36*
G01*
X56497000Y-30752000D02*
X56152000Y-30752000D01*
G75*
G02*
X56004500Y-30604500I0J147500D01*
G01*
X56004500Y-30309500D01*
G75*
G02*
X56152000Y-30162000I147500J0D01*
G01*
X56497000Y-30162000D01*
G75*
G02*
X56644500Y-30309500I0J-147500D01*
G01*
X56644500Y-30604500D01*
G75*
G02*
X56497000Y-30752000I-147500J0D01*
G01*
G37*
%TD*%
%TO.C,C908*%
G36*
G01*
X56469500Y-54038000D02*
X56814500Y-54038000D01*
G75*
G02*
X56962000Y-54185500I0J-147500D01*
G01*
X56962000Y-54480500D01*
G75*
G02*
X56814500Y-54628000I-147500J0D01*
G01*
X56469500Y-54628000D01*
G75*
G02*
X56322000Y-54480500I0J147500D01*
G01*
X56322000Y-54185500D01*
G75*
G02*
X56469500Y-54038000I147500J0D01*
G01*
G37*
G36*
G01*
X56469500Y-53068000D02*
X56814500Y-53068000D01*
G75*
G02*
X56962000Y-53215500I0J-147500D01*
G01*
X56962000Y-53510500D01*
G75*
G02*
X56814500Y-53658000I-147500J0D01*
G01*
X56469500Y-53658000D01*
G75*
G02*
X56322000Y-53510500I0J147500D01*
G01*
X56322000Y-53215500D01*
G75*
G02*
X56469500Y-53068000I147500J0D01*
G01*
G37*
%TD*%
%TO.C,C907*%
G36*
G01*
X37402000Y-55199500D02*
X37402000Y-55544500D01*
G75*
G02*
X37254500Y-55692000I-147500J0D01*
G01*
X36959500Y-55692000D01*
G75*
G02*
X36812000Y-55544500I0J147500D01*
G01*
X36812000Y-55199500D01*
G75*
G02*
X36959500Y-55052000I147500J0D01*
G01*
X37254500Y-55052000D01*
G75*
G02*
X37402000Y-55199500I0J-147500D01*
G01*
G37*
G36*
G01*
X38372000Y-55199500D02*
X38372000Y-55544500D01*
G75*
G02*
X38224500Y-55692000I-147500J0D01*
G01*
X37929500Y-55692000D01*
G75*
G02*
X37782000Y-55544500I0J147500D01*
G01*
X37782000Y-55199500D01*
G75*
G02*
X37929500Y-55052000I147500J0D01*
G01*
X38224500Y-55052000D01*
G75*
G02*
X38372000Y-55199500I0J-147500D01*
G01*
G37*
%TD*%
%TO.C,C906*%
G36*
G01*
X69169500Y-29984200D02*
X69514500Y-29984200D01*
G75*
G02*
X69662000Y-30131700I0J-147500D01*
G01*
X69662000Y-30426700D01*
G75*
G02*
X69514500Y-30574200I-147500J0D01*
G01*
X69169500Y-30574200D01*
G75*
G02*
X69022000Y-30426700I0J147500D01*
G01*
X69022000Y-30131700D01*
G75*
G02*
X69169500Y-29984200I147500J0D01*
G01*
G37*
G36*
G01*
X69169500Y-29014200D02*
X69514500Y-29014200D01*
G75*
G02*
X69662000Y-29161700I0J-147500D01*
G01*
X69662000Y-29456700D01*
G75*
G02*
X69514500Y-29604200I-147500J0D01*
G01*
X69169500Y-29604200D01*
G75*
G02*
X69022000Y-29456700I0J147500D01*
G01*
X69022000Y-29161700D01*
G75*
G02*
X69169500Y-29014200I147500J0D01*
G01*
G37*
%TD*%
%TO.C,C905*%
G36*
G01*
X35370000Y-36784500D02*
X35370000Y-37129500D01*
G75*
G02*
X35222500Y-37277000I-147500J0D01*
G01*
X34927500Y-37277000D01*
G75*
G02*
X34780000Y-37129500I0J147500D01*
G01*
X34780000Y-36784500D01*
G75*
G02*
X34927500Y-36637000I147500J0D01*
G01*
X35222500Y-36637000D01*
G75*
G02*
X35370000Y-36784500I0J-147500D01*
G01*
G37*
G36*
G01*
X36340000Y-36784500D02*
X36340000Y-37129500D01*
G75*
G02*
X36192500Y-37277000I-147500J0D01*
G01*
X35897500Y-37277000D01*
G75*
G02*
X35750000Y-37129500I0J147500D01*
G01*
X35750000Y-36784500D01*
G75*
G02*
X35897500Y-36637000I147500J0D01*
G01*
X36192500Y-36637000D01*
G75*
G02*
X36340000Y-36784500I0J-147500D01*
G01*
G37*
%TD*%
%TO.C,C904*%
G36*
G01*
X27520400Y-27731500D02*
X27520400Y-27386500D01*
G75*
G02*
X27667900Y-27239000I147500J0D01*
G01*
X27962900Y-27239000D01*
G75*
G02*
X28110400Y-27386500I0J-147500D01*
G01*
X28110400Y-27731500D01*
G75*
G02*
X27962900Y-27879000I-147500J0D01*
G01*
X27667900Y-27879000D01*
G75*
G02*
X27520400Y-27731500I0J147500D01*
G01*
G37*
G36*
G01*
X26550400Y-27731500D02*
X26550400Y-27386500D01*
G75*
G02*
X26697900Y-27239000I147500J0D01*
G01*
X26992900Y-27239000D01*
G75*
G02*
X27140400Y-27386500I0J-147500D01*
G01*
X27140400Y-27731500D01*
G75*
G02*
X26992900Y-27879000I-147500J0D01*
G01*
X26697900Y-27879000D01*
G75*
G02*
X26550400Y-27731500I0J147500D01*
G01*
G37*
%TD*%
%TO.C,C903*%
G36*
G01*
X28130000Y-43352500D02*
X28130000Y-43007500D01*
G75*
G02*
X28277500Y-42860000I147500J0D01*
G01*
X28572500Y-42860000D01*
G75*
G02*
X28720000Y-43007500I0J-147500D01*
G01*
X28720000Y-43352500D01*
G75*
G02*
X28572500Y-43500000I-147500J0D01*
G01*
X28277500Y-43500000D01*
G75*
G02*
X28130000Y-43352500I0J147500D01*
G01*
G37*
G36*
G01*
X27160000Y-43352500D02*
X27160000Y-43007500D01*
G75*
G02*
X27307500Y-42860000I147500J0D01*
G01*
X27602500Y-42860000D01*
G75*
G02*
X27750000Y-43007500I0J-147500D01*
G01*
X27750000Y-43352500D01*
G75*
G02*
X27602500Y-43500000I-147500J0D01*
G01*
X27307500Y-43500000D01*
G75*
G02*
X27160000Y-43352500I0J147500D01*
G01*
G37*
%TD*%
%TO.C,C902*%
G36*
G01*
X22797000Y-48214500D02*
X22797000Y-48559500D01*
G75*
G02*
X22649500Y-48707000I-147500J0D01*
G01*
X22354500Y-48707000D01*
G75*
G02*
X22207000Y-48559500I0J147500D01*
G01*
X22207000Y-48214500D01*
G75*
G02*
X22354500Y-48067000I147500J0D01*
G01*
X22649500Y-48067000D01*
G75*
G02*
X22797000Y-48214500I0J-147500D01*
G01*
G37*
G36*
G01*
X23767000Y-48214500D02*
X23767000Y-48559500D01*
G75*
G02*
X23619500Y-48707000I-147500J0D01*
G01*
X23324500Y-48707000D01*
G75*
G02*
X23177000Y-48559500I0J147500D01*
G01*
X23177000Y-48214500D01*
G75*
G02*
X23324500Y-48067000I147500J0D01*
G01*
X23619500Y-48067000D01*
G75*
G02*
X23767000Y-48214500I0J-147500D01*
G01*
G37*
%TD*%
%TO.C,C901*%
G36*
G01*
X22670000Y-27767500D02*
X22670000Y-28112500D01*
G75*
G02*
X22522500Y-28260000I-147500J0D01*
G01*
X22227500Y-28260000D01*
G75*
G02*
X22080000Y-28112500I0J147500D01*
G01*
X22080000Y-27767500D01*
G75*
G02*
X22227500Y-27620000I147500J0D01*
G01*
X22522500Y-27620000D01*
G75*
G02*
X22670000Y-27767500I0J-147500D01*
G01*
G37*
G36*
G01*
X23640000Y-27767500D02*
X23640000Y-28112500D01*
G75*
G02*
X23492500Y-28260000I-147500J0D01*
G01*
X23197500Y-28260000D01*
G75*
G02*
X23050000Y-28112500I0J147500D01*
G01*
X23050000Y-27767500D01*
G75*
G02*
X23197500Y-27620000I147500J0D01*
G01*
X23492500Y-27620000D01*
G75*
G02*
X23640000Y-27767500I0J-147500D01*
G01*
G37*
%TD*%
D15*
%TO.C,TP302*%
X32893000Y-54038500D03*
%TD*%
%TO.C,TP802*%
X64262000Y-52324000D03*
%TD*%
D16*
%TO.C,TP801*%
X68757800Y-45427900D03*
%TD*%
D15*
%TO.C,TP301*%
X59753500Y-46672500D03*
%TD*%
D17*
%TO.C,BT401*%
X78422500Y-35052000D03*
D18*
X78422500Y-27402000D03*
X78422500Y-42702000D03*
%TD*%
%TO.C,C308*%
G36*
G01*
X40322000Y-55564500D02*
X40322000Y-55219500D01*
G75*
G02*
X40469500Y-55072000I147500J0D01*
G01*
X40764500Y-55072000D01*
G75*
G02*
X40912000Y-55219500I0J-147500D01*
G01*
X40912000Y-55564500D01*
G75*
G02*
X40764500Y-55712000I-147500J0D01*
G01*
X40469500Y-55712000D01*
G75*
G02*
X40322000Y-55564500I0J147500D01*
G01*
G37*
G36*
G01*
X39352000Y-55564500D02*
X39352000Y-55219500D01*
G75*
G02*
X39499500Y-55072000I147500J0D01*
G01*
X39794500Y-55072000D01*
G75*
G02*
X39942000Y-55219500I0J-147500D01*
G01*
X39942000Y-55564500D01*
G75*
G02*
X39794500Y-55712000I-147500J0D01*
G01*
X39499500Y-55712000D01*
G75*
G02*
X39352000Y-55564500I0J147500D01*
G01*
G37*
%TD*%
D19*
%TO.C,*%
X81691000Y-21729200D03*
%TD*%
%TO.C,*%
X81691000Y-70729200D03*
%TD*%
%TO.C,*%
X23691000Y-70729200D03*
%TD*%
%TO.C,*%
X23691000Y-21729200D03*
%TD*%
%TO.C,C201*%
G36*
G01*
X25856250Y-51463000D02*
X24943750Y-51463000D01*
G75*
G02*
X24700000Y-51219250I0J243750D01*
G01*
X24700000Y-50731750D01*
G75*
G02*
X24943750Y-50488000I243750J0D01*
G01*
X25856250Y-50488000D01*
G75*
G02*
X26100000Y-50731750I0J-243750D01*
G01*
X26100000Y-51219250D01*
G75*
G02*
X25856250Y-51463000I-243750J0D01*
G01*
G37*
G36*
G01*
X25856250Y-49588000D02*
X24943750Y-49588000D01*
G75*
G02*
X24700000Y-49344250I0J243750D01*
G01*
X24700000Y-48856750D01*
G75*
G02*
X24943750Y-48613000I243750J0D01*
G01*
X25856250Y-48613000D01*
G75*
G02*
X26100000Y-48856750I0J-243750D01*
G01*
X26100000Y-49344250D01*
G75*
G02*
X25856250Y-49588000I-243750J0D01*
G01*
G37*
%TD*%
%TO.C,C202*%
G36*
G01*
X29817000Y-46430250D02*
X29817000Y-45517750D01*
G75*
G02*
X30060750Y-45274000I243750J0D01*
G01*
X30548250Y-45274000D01*
G75*
G02*
X30792000Y-45517750I0J-243750D01*
G01*
X30792000Y-46430250D01*
G75*
G02*
X30548250Y-46674000I-243750J0D01*
G01*
X30060750Y-46674000D01*
G75*
G02*
X29817000Y-46430250I0J243750D01*
G01*
G37*
G36*
G01*
X31692000Y-46430250D02*
X31692000Y-45517750D01*
G75*
G02*
X31935750Y-45274000I243750J0D01*
G01*
X32423250Y-45274000D01*
G75*
G02*
X32667000Y-45517750I0J-243750D01*
G01*
X32667000Y-46430250D01*
G75*
G02*
X32423250Y-46674000I-243750J0D01*
G01*
X31935750Y-46674000D01*
G75*
G02*
X31692000Y-46430250I0J243750D01*
G01*
G37*
%TD*%
%TO.C,C203*%
G36*
G01*
X29817000Y-42366250D02*
X29817000Y-41453750D01*
G75*
G02*
X30060750Y-41210000I243750J0D01*
G01*
X30548250Y-41210000D01*
G75*
G02*
X30792000Y-41453750I0J-243750D01*
G01*
X30792000Y-42366250D01*
G75*
G02*
X30548250Y-42610000I-243750J0D01*
G01*
X30060750Y-42610000D01*
G75*
G02*
X29817000Y-42366250I0J243750D01*
G01*
G37*
G36*
G01*
X31692000Y-42366250D02*
X31692000Y-41453750D01*
G75*
G02*
X31935750Y-41210000I243750J0D01*
G01*
X32423250Y-41210000D01*
G75*
G02*
X32667000Y-41453750I0J-243750D01*
G01*
X32667000Y-42366250D01*
G75*
G02*
X32423250Y-42610000I-243750J0D01*
G01*
X31935750Y-42610000D01*
G75*
G02*
X31692000Y-42366250I0J243750D01*
G01*
G37*
%TD*%
%TO.C,C204*%
G36*
G01*
X31692000Y-44398250D02*
X31692000Y-43485750D01*
G75*
G02*
X31935750Y-43242000I243750J0D01*
G01*
X32423250Y-43242000D01*
G75*
G02*
X32667000Y-43485750I0J-243750D01*
G01*
X32667000Y-44398250D01*
G75*
G02*
X32423250Y-44642000I-243750J0D01*
G01*
X31935750Y-44642000D01*
G75*
G02*
X31692000Y-44398250I0J243750D01*
G01*
G37*
G36*
G01*
X29817000Y-44398250D02*
X29817000Y-43485750D01*
G75*
G02*
X30060750Y-43242000I243750J0D01*
G01*
X30548250Y-43242000D01*
G75*
G02*
X30792000Y-43485750I0J-243750D01*
G01*
X30792000Y-44398250D01*
G75*
G02*
X30548250Y-44642000I-243750J0D01*
G01*
X30060750Y-44642000D01*
G75*
G02*
X29817000Y-44398250I0J243750D01*
G01*
G37*
%TD*%
%TO.C,C301*%
G36*
G01*
X42913000Y-54005000D02*
X42913000Y-55255000D01*
G75*
G02*
X42663000Y-55505000I-250000J0D01*
G01*
X41913000Y-55505000D01*
G75*
G02*
X41663000Y-55255000I0J250000D01*
G01*
X41663000Y-54005000D01*
G75*
G02*
X41913000Y-53755000I250000J0D01*
G01*
X42663000Y-53755000D01*
G75*
G02*
X42913000Y-54005000I0J-250000D01*
G01*
G37*
G36*
G01*
X45713000Y-54005000D02*
X45713000Y-55255000D01*
G75*
G02*
X45463000Y-55505000I-250000J0D01*
G01*
X44713000Y-55505000D01*
G75*
G02*
X44463000Y-55255000I0J250000D01*
G01*
X44463000Y-54005000D01*
G75*
G02*
X44713000Y-53755000I250000J0D01*
G01*
X45463000Y-53755000D01*
G75*
G02*
X45713000Y-54005000I0J-250000D01*
G01*
G37*
%TD*%
%TO.C,C302*%
G36*
G01*
X54109000Y-51191000D02*
X54109000Y-49941000D01*
G75*
G02*
X54359000Y-49691000I250000J0D01*
G01*
X55109000Y-49691000D01*
G75*
G02*
X55359000Y-49941000I0J-250000D01*
G01*
X55359000Y-51191000D01*
G75*
G02*
X55109000Y-51441000I-250000J0D01*
G01*
X54359000Y-51441000D01*
G75*
G02*
X54109000Y-51191000I0J250000D01*
G01*
G37*
G36*
G01*
X56909000Y-51191000D02*
X56909000Y-49941000D01*
G75*
G02*
X57159000Y-49691000I250000J0D01*
G01*
X57909000Y-49691000D01*
G75*
G02*
X58159000Y-49941000I0J-250000D01*
G01*
X58159000Y-51191000D01*
G75*
G02*
X57909000Y-51441000I-250000J0D01*
G01*
X57159000Y-51441000D01*
G75*
G02*
X56909000Y-51191000I0J250000D01*
G01*
G37*
%TD*%
%TO.C,C303*%
G36*
G01*
X54426500Y-45234250D02*
X54426500Y-44721750D01*
G75*
G02*
X54645250Y-44503000I218750J0D01*
G01*
X55082750Y-44503000D01*
G75*
G02*
X55301500Y-44721750I0J-218750D01*
G01*
X55301500Y-45234250D01*
G75*
G02*
X55082750Y-45453000I-218750J0D01*
G01*
X54645250Y-45453000D01*
G75*
G02*
X54426500Y-45234250I0J218750D01*
G01*
G37*
G36*
G01*
X56001500Y-45234250D02*
X56001500Y-44721750D01*
G75*
G02*
X56220250Y-44503000I218750J0D01*
G01*
X56657750Y-44503000D01*
G75*
G02*
X56876500Y-44721750I0J-218750D01*
G01*
X56876500Y-45234250D01*
G75*
G02*
X56657750Y-45453000I-218750J0D01*
G01*
X56220250Y-45453000D01*
G75*
G02*
X56001500Y-45234250I0J218750D01*
G01*
G37*
%TD*%
%TO.C,C304*%
G36*
G01*
X51897500Y-45422000D02*
X52242500Y-45422000D01*
G75*
G02*
X52390000Y-45569500I0J-147500D01*
G01*
X52390000Y-45864500D01*
G75*
G02*
X52242500Y-46012000I-147500J0D01*
G01*
X51897500Y-46012000D01*
G75*
G02*
X51750000Y-45864500I0J147500D01*
G01*
X51750000Y-45569500D01*
G75*
G02*
X51897500Y-45422000I147500J0D01*
G01*
G37*
G36*
G01*
X51897500Y-44452000D02*
X52242500Y-44452000D01*
G75*
G02*
X52390000Y-44599500I0J-147500D01*
G01*
X52390000Y-44894500D01*
G75*
G02*
X52242500Y-45042000I-147500J0D01*
G01*
X51897500Y-45042000D01*
G75*
G02*
X51750000Y-44894500I0J147500D01*
G01*
X51750000Y-44599500D01*
G75*
G02*
X51897500Y-44452000I147500J0D01*
G01*
G37*
%TD*%
%TO.C,C305*%
G36*
G01*
X36888000Y-44839250D02*
X36888000Y-45751750D01*
G75*
G02*
X36644250Y-45995500I-243750J0D01*
G01*
X36156750Y-45995500D01*
G75*
G02*
X35913000Y-45751750I0J243750D01*
G01*
X35913000Y-44839250D01*
G75*
G02*
X36156750Y-44595500I243750J0D01*
G01*
X36644250Y-44595500D01*
G75*
G02*
X36888000Y-44839250I0J-243750D01*
G01*
G37*
G36*
G01*
X38763000Y-44839250D02*
X38763000Y-45751750D01*
G75*
G02*
X38519250Y-45995500I-243750J0D01*
G01*
X38031750Y-45995500D01*
G75*
G02*
X37788000Y-45751750I0J243750D01*
G01*
X37788000Y-44839250D01*
G75*
G02*
X38031750Y-44595500I243750J0D01*
G01*
X38519250Y-44595500D01*
G75*
G02*
X38763000Y-44839250I0J-243750D01*
G01*
G37*
%TD*%
%TO.C,C306*%
G36*
G01*
X55390000Y-52425500D02*
X55390000Y-52770500D01*
G75*
G02*
X55242500Y-52918000I-147500J0D01*
G01*
X54947500Y-52918000D01*
G75*
G02*
X54800000Y-52770500I0J147500D01*
G01*
X54800000Y-52425500D01*
G75*
G02*
X54947500Y-52278000I147500J0D01*
G01*
X55242500Y-52278000D01*
G75*
G02*
X55390000Y-52425500I0J-147500D01*
G01*
G37*
G36*
G01*
X54420000Y-52425500D02*
X54420000Y-52770500D01*
G75*
G02*
X54272500Y-52918000I-147500J0D01*
G01*
X53977500Y-52918000D01*
G75*
G02*
X53830000Y-52770500I0J147500D01*
G01*
X53830000Y-52425500D01*
G75*
G02*
X53977500Y-52278000I147500J0D01*
G01*
X54272500Y-52278000D01*
G75*
G02*
X54420000Y-52425500I0J-147500D01*
G01*
G37*
%TD*%
%TO.C,C307*%
G36*
G01*
X34100000Y-46647000D02*
X34100000Y-46992000D01*
G75*
G02*
X33952500Y-47139500I-147500J0D01*
G01*
X33657500Y-47139500D01*
G75*
G02*
X33510000Y-46992000I0J147500D01*
G01*
X33510000Y-46647000D01*
G75*
G02*
X33657500Y-46499500I147500J0D01*
G01*
X33952500Y-46499500D01*
G75*
G02*
X34100000Y-46647000I0J-147500D01*
G01*
G37*
G36*
G01*
X35070000Y-46647000D02*
X35070000Y-46992000D01*
G75*
G02*
X34922500Y-47139500I-147500J0D01*
G01*
X34627500Y-47139500D01*
G75*
G02*
X34480000Y-46992000I0J147500D01*
G01*
X34480000Y-46647000D01*
G75*
G02*
X34627500Y-46499500I147500J0D01*
G01*
X34922500Y-46499500D01*
G75*
G02*
X35070000Y-46647000I0J-147500D01*
G01*
G37*
%TD*%
%TO.C,C401*%
G36*
G01*
X59499000Y-39161500D02*
X59499000Y-38816500D01*
G75*
G02*
X59646500Y-38669000I147500J0D01*
G01*
X59941500Y-38669000D01*
G75*
G02*
X60089000Y-38816500I0J-147500D01*
G01*
X60089000Y-39161500D01*
G75*
G02*
X59941500Y-39309000I-147500J0D01*
G01*
X59646500Y-39309000D01*
G75*
G02*
X59499000Y-39161500I0J147500D01*
G01*
G37*
G36*
G01*
X58529000Y-39161500D02*
X58529000Y-38816500D01*
G75*
G02*
X58676500Y-38669000I147500J0D01*
G01*
X58971500Y-38669000D01*
G75*
G02*
X59119000Y-38816500I0J-147500D01*
G01*
X59119000Y-39161500D01*
G75*
G02*
X58971500Y-39309000I-147500J0D01*
G01*
X58676500Y-39309000D01*
G75*
G02*
X58529000Y-39161500I0J147500D01*
G01*
G37*
%TD*%
%TO.C,C501*%
G36*
G01*
X46718000Y-60644500D02*
X46718000Y-60299500D01*
G75*
G02*
X46865500Y-60152000I147500J0D01*
G01*
X47160500Y-60152000D01*
G75*
G02*
X47308000Y-60299500I0J-147500D01*
G01*
X47308000Y-60644500D01*
G75*
G02*
X47160500Y-60792000I-147500J0D01*
G01*
X46865500Y-60792000D01*
G75*
G02*
X46718000Y-60644500I0J147500D01*
G01*
G37*
G36*
G01*
X47688000Y-60644500D02*
X47688000Y-60299500D01*
G75*
G02*
X47835500Y-60152000I147500J0D01*
G01*
X48130500Y-60152000D01*
G75*
G02*
X48278000Y-60299500I0J-147500D01*
G01*
X48278000Y-60644500D01*
G75*
G02*
X48130500Y-60792000I-147500J0D01*
G01*
X47835500Y-60792000D01*
G75*
G02*
X47688000Y-60644500I0J147500D01*
G01*
G37*
%TD*%
%TO.C,C601*%
G36*
G01*
X37590999Y-56870500D02*
X37590999Y-57215500D01*
G75*
G02*
X37443499Y-57363000I-147500J0D01*
G01*
X37148499Y-57363000D01*
G75*
G02*
X37000999Y-57215500I0J147500D01*
G01*
X37000999Y-56870500D01*
G75*
G02*
X37148499Y-56723000I147500J0D01*
G01*
X37443499Y-56723000D01*
G75*
G02*
X37590999Y-56870500I0J-147500D01*
G01*
G37*
G36*
G01*
X38560999Y-56870500D02*
X38560999Y-57215500D01*
G75*
G02*
X38413499Y-57363000I-147500J0D01*
G01*
X38118499Y-57363000D01*
G75*
G02*
X37970999Y-57215500I0J147500D01*
G01*
X37970999Y-56870500D01*
G75*
G02*
X38118499Y-56723000I147500J0D01*
G01*
X38413499Y-56723000D01*
G75*
G02*
X38560999Y-56870500I0J-147500D01*
G01*
G37*
%TD*%
%TO.C,C602*%
G36*
G01*
X26192700Y-34988000D02*
X26537700Y-34988000D01*
G75*
G02*
X26685200Y-35135500I0J-147500D01*
G01*
X26685200Y-35430500D01*
G75*
G02*
X26537700Y-35578000I-147500J0D01*
G01*
X26192700Y-35578000D01*
G75*
G02*
X26045200Y-35430500I0J147500D01*
G01*
X26045200Y-35135500D01*
G75*
G02*
X26192700Y-34988000I147500J0D01*
G01*
G37*
G36*
G01*
X26192700Y-34018000D02*
X26537700Y-34018000D01*
G75*
G02*
X26685200Y-34165500I0J-147500D01*
G01*
X26685200Y-34460500D01*
G75*
G02*
X26537700Y-34608000I-147500J0D01*
G01*
X26192700Y-34608000D01*
G75*
G02*
X26045200Y-34460500I0J147500D01*
G01*
X26045200Y-34165500D01*
G75*
G02*
X26192700Y-34018000I147500J0D01*
G01*
G37*
%TD*%
%TO.C,C701*%
G36*
G01*
X35069000Y-60855000D02*
X35069000Y-59605000D01*
G75*
G02*
X35319000Y-59355000I250000J0D01*
G01*
X36069000Y-59355000D01*
G75*
G02*
X36319000Y-59605000I0J-250000D01*
G01*
X36319000Y-60855000D01*
G75*
G02*
X36069000Y-61105000I-250000J0D01*
G01*
X35319000Y-61105000D01*
G75*
G02*
X35069000Y-60855000I0J250000D01*
G01*
G37*
G36*
G01*
X32269000Y-60855000D02*
X32269000Y-59605000D01*
G75*
G02*
X32519000Y-59355000I250000J0D01*
G01*
X33269000Y-59355000D01*
G75*
G02*
X33519000Y-59605000I0J-250000D01*
G01*
X33519000Y-60855000D01*
G75*
G02*
X33269000Y-61105000I-250000J0D01*
G01*
X32519000Y-61105000D01*
G75*
G02*
X32269000Y-60855000I0J250000D01*
G01*
G37*
%TD*%
%TO.C,C702*%
G36*
G01*
X34403000Y-56592500D02*
X34403000Y-56247500D01*
G75*
G02*
X34550500Y-56100000I147500J0D01*
G01*
X34845500Y-56100000D01*
G75*
G02*
X34993000Y-56247500I0J-147500D01*
G01*
X34993000Y-56592500D01*
G75*
G02*
X34845500Y-56740000I-147500J0D01*
G01*
X34550500Y-56740000D01*
G75*
G02*
X34403000Y-56592500I0J147500D01*
G01*
G37*
G36*
G01*
X35373000Y-56592500D02*
X35373000Y-56247500D01*
G75*
G02*
X35520500Y-56100000I147500J0D01*
G01*
X35815500Y-56100000D01*
G75*
G02*
X35963000Y-56247500I0J-147500D01*
G01*
X35963000Y-56592500D01*
G75*
G02*
X35815500Y-56740000I-147500J0D01*
G01*
X35520500Y-56740000D01*
G75*
G02*
X35373000Y-56592500I0J147500D01*
G01*
G37*
%TD*%
%TO.C,C801*%
G36*
G01*
X65061000Y-57259500D02*
X65061000Y-57604500D01*
G75*
G02*
X64913500Y-57752000I-147500J0D01*
G01*
X64618500Y-57752000D01*
G75*
G02*
X64471000Y-57604500I0J147500D01*
G01*
X64471000Y-57259500D01*
G75*
G02*
X64618500Y-57112000I147500J0D01*
G01*
X64913500Y-57112000D01*
G75*
G02*
X65061000Y-57259500I0J-147500D01*
G01*
G37*
G36*
G01*
X64091000Y-57259500D02*
X64091000Y-57604500D01*
G75*
G02*
X63943500Y-57752000I-147500J0D01*
G01*
X63648500Y-57752000D01*
G75*
G02*
X63501000Y-57604500I0J147500D01*
G01*
X63501000Y-57259500D01*
G75*
G02*
X63648500Y-57112000I147500J0D01*
G01*
X63943500Y-57112000D01*
G75*
G02*
X64091000Y-57259500I0J-147500D01*
G01*
G37*
%TD*%
%TO.C,C802*%
G36*
G01*
X68329000Y-56025000D02*
X68329000Y-54775000D01*
G75*
G02*
X68579000Y-54525000I250000J0D01*
G01*
X69329000Y-54525000D01*
G75*
G02*
X69579000Y-54775000I0J-250000D01*
G01*
X69579000Y-56025000D01*
G75*
G02*
X69329000Y-56275000I-250000J0D01*
G01*
X68579000Y-56275000D01*
G75*
G02*
X68329000Y-56025000I0J250000D01*
G01*
G37*
G36*
G01*
X71129000Y-56025000D02*
X71129000Y-54775000D01*
G75*
G02*
X71379000Y-54525000I250000J0D01*
G01*
X72129000Y-54525000D01*
G75*
G02*
X72379000Y-54775000I0J-250000D01*
G01*
X72379000Y-56025000D01*
G75*
G02*
X72129000Y-56275000I-250000J0D01*
G01*
X71379000Y-56275000D01*
G75*
G02*
X71129000Y-56025000I0J250000D01*
G01*
G37*
%TD*%
%TO.C,C805*%
G36*
G01*
X66795750Y-50873000D02*
X67308250Y-50873000D01*
G75*
G02*
X67527000Y-51091750I0J-218750D01*
G01*
X67527000Y-51529250D01*
G75*
G02*
X67308250Y-51748000I-218750J0D01*
G01*
X66795750Y-51748000D01*
G75*
G02*
X66577000Y-51529250I0J218750D01*
G01*
X66577000Y-51091750D01*
G75*
G02*
X66795750Y-50873000I218750J0D01*
G01*
G37*
G36*
G01*
X66795750Y-52448000D02*
X67308250Y-52448000D01*
G75*
G02*
X67527000Y-52666750I0J-218750D01*
G01*
X67527000Y-53104250D01*
G75*
G02*
X67308250Y-53323000I-218750J0D01*
G01*
X66795750Y-53323000D01*
G75*
G02*
X66577000Y-53104250I0J218750D01*
G01*
X66577000Y-52666750D01*
G75*
G02*
X66795750Y-52448000I218750J0D01*
G01*
G37*
%TD*%
%TO.C,C806*%
G36*
G01*
X62806800Y-32201900D02*
X63151800Y-32201900D01*
G75*
G02*
X63299300Y-32349400I0J-147500D01*
G01*
X63299300Y-32644400D01*
G75*
G02*
X63151800Y-32791900I-147500J0D01*
G01*
X62806800Y-32791900D01*
G75*
G02*
X62659300Y-32644400I0J147500D01*
G01*
X62659300Y-32349400D01*
G75*
G02*
X62806800Y-32201900I147500J0D01*
G01*
G37*
G36*
G01*
X62806800Y-33171900D02*
X63151800Y-33171900D01*
G75*
G02*
X63299300Y-33319400I0J-147500D01*
G01*
X63299300Y-33614400D01*
G75*
G02*
X63151800Y-33761900I-147500J0D01*
G01*
X62806800Y-33761900D01*
G75*
G02*
X62659300Y-33614400I0J147500D01*
G01*
X62659300Y-33319400D01*
G75*
G02*
X62806800Y-33171900I147500J0D01*
G01*
G37*
%TD*%
%TO.C,C807*%
G36*
G01*
X81086000Y-46337500D02*
X81086000Y-46682500D01*
G75*
G02*
X80938500Y-46830000I-147500J0D01*
G01*
X80643500Y-46830000D01*
G75*
G02*
X80496000Y-46682500I0J147500D01*
G01*
X80496000Y-46337500D01*
G75*
G02*
X80643500Y-46190000I147500J0D01*
G01*
X80938500Y-46190000D01*
G75*
G02*
X81086000Y-46337500I0J-147500D01*
G01*
G37*
G36*
G01*
X82056000Y-46337500D02*
X82056000Y-46682500D01*
G75*
G02*
X81908500Y-46830000I-147500J0D01*
G01*
X81613500Y-46830000D01*
G75*
G02*
X81466000Y-46682500I0J147500D01*
G01*
X81466000Y-46337500D01*
G75*
G02*
X81613500Y-46190000I147500J0D01*
G01*
X81908500Y-46190000D01*
G75*
G02*
X82056000Y-46337500I0J-147500D01*
G01*
G37*
%TD*%
%TO.C,C808*%
G36*
G01*
X81425000Y-59517500D02*
X81425000Y-59862500D01*
G75*
G02*
X81277500Y-60010000I-147500J0D01*
G01*
X80982500Y-60010000D01*
G75*
G02*
X80835000Y-59862500I0J147500D01*
G01*
X80835000Y-59517500D01*
G75*
G02*
X80982500Y-59370000I147500J0D01*
G01*
X81277500Y-59370000D01*
G75*
G02*
X81425000Y-59517500I0J-147500D01*
G01*
G37*
G36*
G01*
X80455000Y-59517500D02*
X80455000Y-59862500D01*
G75*
G02*
X80307500Y-60010000I-147500J0D01*
G01*
X80012500Y-60010000D01*
G75*
G02*
X79865000Y-59862500I0J147500D01*
G01*
X79865000Y-59517500D01*
G75*
G02*
X80012500Y-59370000I147500J0D01*
G01*
X80307500Y-59370000D01*
G75*
G02*
X80455000Y-59517500I0J-147500D01*
G01*
G37*
%TD*%
D20*
%TO.C,D301*%
X44418000Y-51582000D03*
X40418000Y-51582000D03*
%TD*%
D21*
%TO.C,D302*%
X41086000Y-57678000D03*
X39686000Y-57678000D03*
%TD*%
D22*
%TO.C,D501*%
X44577000Y-65180000D03*
X44577000Y-71980000D03*
%TD*%
D23*
%TO.C,D502*%
X43400000Y-57170000D03*
X45500000Y-57170000D03*
%TD*%
D24*
%TO.C,D601*%
X32893000Y-37273000D03*
X32893000Y-38673000D03*
%TD*%
D25*
%TO.C,D602*%
X27829000Y-37719000D03*
X29829000Y-36769000D03*
X29829000Y-38669000D03*
%TD*%
%TO.C,D701*%
G36*
G01*
X22095750Y-30322000D02*
X22608250Y-30322000D01*
G75*
G02*
X22827000Y-30540750I0J-218750D01*
G01*
X22827000Y-30978250D01*
G75*
G02*
X22608250Y-31197000I-218750J0D01*
G01*
X22095750Y-31197000D01*
G75*
G02*
X21877000Y-30978250I0J218750D01*
G01*
X21877000Y-30540750D01*
G75*
G02*
X22095750Y-30322000I218750J0D01*
G01*
G37*
G36*
G01*
X22095750Y-28747000D02*
X22608250Y-28747000D01*
G75*
G02*
X22827000Y-28965750I0J-218750D01*
G01*
X22827000Y-29403250D01*
G75*
G02*
X22608250Y-29622000I-218750J0D01*
G01*
X22095750Y-29622000D01*
G75*
G02*
X21877000Y-29403250I0J218750D01*
G01*
X21877000Y-28965750D01*
G75*
G02*
X22095750Y-28747000I218750J0D01*
G01*
G37*
%TD*%
%TO.C,D702*%
G36*
G01*
X22095750Y-32811000D02*
X22608250Y-32811000D01*
G75*
G02*
X22827000Y-33029750I0J-218750D01*
G01*
X22827000Y-33467250D01*
G75*
G02*
X22608250Y-33686000I-218750J0D01*
G01*
X22095750Y-33686000D01*
G75*
G02*
X21877000Y-33467250I0J218750D01*
G01*
X21877000Y-33029750D01*
G75*
G02*
X22095750Y-32811000I218750J0D01*
G01*
G37*
G36*
G01*
X22095750Y-34386000D02*
X22608250Y-34386000D01*
G75*
G02*
X22827000Y-34604750I0J-218750D01*
G01*
X22827000Y-35042250D01*
G75*
G02*
X22608250Y-35261000I-218750J0D01*
G01*
X22095750Y-35261000D01*
G75*
G02*
X21877000Y-35042250I0J218750D01*
G01*
X21877000Y-34604750D01*
G75*
G02*
X22095750Y-34386000I218750J0D01*
G01*
G37*
%TD*%
%TO.C,D703*%
G36*
G01*
X22095750Y-38450000D02*
X22608250Y-38450000D01*
G75*
G02*
X22827000Y-38668750I0J-218750D01*
G01*
X22827000Y-39106250D01*
G75*
G02*
X22608250Y-39325000I-218750J0D01*
G01*
X22095750Y-39325000D01*
G75*
G02*
X21877000Y-39106250I0J218750D01*
G01*
X21877000Y-38668750D01*
G75*
G02*
X22095750Y-38450000I218750J0D01*
G01*
G37*
G36*
G01*
X22095750Y-36875000D02*
X22608250Y-36875000D01*
G75*
G02*
X22827000Y-37093750I0J-218750D01*
G01*
X22827000Y-37531250D01*
G75*
G02*
X22608250Y-37750000I-218750J0D01*
G01*
X22095750Y-37750000D01*
G75*
G02*
X21877000Y-37531250I0J218750D01*
G01*
X21877000Y-37093750D01*
G75*
G02*
X22095750Y-36875000I218750J0D01*
G01*
G37*
%TD*%
%TO.C,D704*%
G36*
G01*
X22095750Y-40939000D02*
X22608250Y-40939000D01*
G75*
G02*
X22827000Y-41157750I0J-218750D01*
G01*
X22827000Y-41595250D01*
G75*
G02*
X22608250Y-41814000I-218750J0D01*
G01*
X22095750Y-41814000D01*
G75*
G02*
X21877000Y-41595250I0J218750D01*
G01*
X21877000Y-41157750D01*
G75*
G02*
X22095750Y-40939000I218750J0D01*
G01*
G37*
G36*
G01*
X22095750Y-42514000D02*
X22608250Y-42514000D01*
G75*
G02*
X22827000Y-42732750I0J-218750D01*
G01*
X22827000Y-43170250D01*
G75*
G02*
X22608250Y-43389000I-218750J0D01*
G01*
X22095750Y-43389000D01*
G75*
G02*
X21877000Y-43170250I0J218750D01*
G01*
X21877000Y-42732750D01*
G75*
G02*
X22095750Y-42514000I218750J0D01*
G01*
G37*
%TD*%
D26*
%TO.C,D801*%
X67188000Y-59464000D03*
X71488000Y-59464000D03*
%TD*%
D27*
%TO.C,D802*%
X66928000Y-55400000D03*
X64128000Y-55400000D03*
%TD*%
%TO.C,F501*%
G36*
G01*
X48990000Y-61169001D02*
X48990000Y-56218999D01*
G75*
G02*
X49239999Y-55969000I249999J0D01*
G01*
X50665001Y-55969000D01*
G75*
G02*
X50915000Y-56218999I0J-249999D01*
G01*
X50915000Y-61169001D01*
G75*
G02*
X50665001Y-61419000I-249999J0D01*
G01*
X49239999Y-61419000D01*
G75*
G02*
X48990000Y-61169001I0J249999D01*
G01*
G37*
G36*
G01*
X55765000Y-61169001D02*
X55765000Y-56218999D01*
G75*
G02*
X56014999Y-55969000I249999J0D01*
G01*
X57440001Y-55969000D01*
G75*
G02*
X57690000Y-56218999I0J-249999D01*
G01*
X57690000Y-61169001D01*
G75*
G02*
X57440001Y-61419000I-249999J0D01*
G01*
X56014999Y-61419000D01*
G75*
G02*
X55765000Y-61169001I0J249999D01*
G01*
G37*
%TD*%
%TO.C,F801*%
G36*
G01*
X61347000Y-58225000D02*
X62597000Y-58225000D01*
G75*
G02*
X62847000Y-58475000I0J-250000D01*
G01*
X62847000Y-59225000D01*
G75*
G02*
X62597000Y-59475000I-250000J0D01*
G01*
X61347000Y-59475000D01*
G75*
G02*
X61097000Y-59225000I0J250000D01*
G01*
X61097000Y-58475000D01*
G75*
G02*
X61347000Y-58225000I250000J0D01*
G01*
G37*
G36*
G01*
X61347000Y-61025000D02*
X62597000Y-61025000D01*
G75*
G02*
X62847000Y-61275000I0J-250000D01*
G01*
X62847000Y-62025000D01*
G75*
G02*
X62597000Y-62275000I-250000J0D01*
G01*
X61347000Y-62275000D01*
G75*
G02*
X61097000Y-62025000I0J250000D01*
G01*
X61097000Y-61275000D01*
G75*
G02*
X61347000Y-61025000I250000J0D01*
G01*
G37*
%TD*%
%TO.C,FB501*%
G36*
G01*
X47954250Y-57736000D02*
X47041750Y-57736000D01*
G75*
G02*
X46798000Y-57492250I0J243750D01*
G01*
X46798000Y-57004750D01*
G75*
G02*
X47041750Y-56761000I243750J0D01*
G01*
X47954250Y-56761000D01*
G75*
G02*
X48198000Y-57004750I0J-243750D01*
G01*
X48198000Y-57492250D01*
G75*
G02*
X47954250Y-57736000I-243750J0D01*
G01*
G37*
G36*
G01*
X47954250Y-59611000D02*
X47041750Y-59611000D01*
G75*
G02*
X46798000Y-59367250I0J243750D01*
G01*
X46798000Y-58879750D01*
G75*
G02*
X47041750Y-58636000I243750J0D01*
G01*
X47954250Y-58636000D01*
G75*
G02*
X48198000Y-58879750I0J-243750D01*
G01*
X48198000Y-59367250D01*
G75*
G02*
X47954250Y-59611000I-243750J0D01*
G01*
G37*
%TD*%
%TO.C,FB701*%
G36*
G01*
X32693500Y-58400250D02*
X32693500Y-57487750D01*
G75*
G02*
X32937250Y-57244000I243750J0D01*
G01*
X33424750Y-57244000D01*
G75*
G02*
X33668500Y-57487750I0J-243750D01*
G01*
X33668500Y-58400250D01*
G75*
G02*
X33424750Y-58644000I-243750J0D01*
G01*
X32937250Y-58644000D01*
G75*
G02*
X32693500Y-58400250I0J243750D01*
G01*
G37*
G36*
G01*
X34568500Y-58400250D02*
X34568500Y-57487750D01*
G75*
G02*
X34812250Y-57244000I243750J0D01*
G01*
X35299750Y-57244000D01*
G75*
G02*
X35543500Y-57487750I0J-243750D01*
G01*
X35543500Y-58400250D01*
G75*
G02*
X35299750Y-58644000I-243750J0D01*
G01*
X34812250Y-58644000D01*
G75*
G02*
X34568500Y-58400250I0J243750D01*
G01*
G37*
%TD*%
%TO.C,FB801*%
G36*
G01*
X63801750Y-58547000D02*
X64714250Y-58547000D01*
G75*
G02*
X64958000Y-58790750I0J-243750D01*
G01*
X64958000Y-59278250D01*
G75*
G02*
X64714250Y-59522000I-243750J0D01*
G01*
X63801750Y-59522000D01*
G75*
G02*
X63558000Y-59278250I0J243750D01*
G01*
X63558000Y-58790750D01*
G75*
G02*
X63801750Y-58547000I243750J0D01*
G01*
G37*
G36*
G01*
X63801750Y-60422000D02*
X64714250Y-60422000D01*
G75*
G02*
X64958000Y-60665750I0J-243750D01*
G01*
X64958000Y-61153250D01*
G75*
G02*
X64714250Y-61397000I-243750J0D01*
G01*
X63801750Y-61397000D01*
G75*
G02*
X63558000Y-61153250I0J243750D01*
G01*
X63558000Y-60665750D01*
G75*
G02*
X63801750Y-60422000I243750J0D01*
G01*
G37*
%TD*%
D28*
%TO.C,J601*%
X38740000Y-33160000D03*
D29*
X38740000Y-30620000D03*
X41280000Y-33160000D03*
X41280000Y-30620000D03*
X43820000Y-33160000D03*
X43820000Y-30620000D03*
X46360000Y-33160000D03*
X46360000Y-30620000D03*
X48900000Y-33160000D03*
X48900000Y-30620000D03*
X51440000Y-33160000D03*
X51440000Y-30620000D03*
X53980000Y-33160000D03*
X53980000Y-30620000D03*
%TD*%
D28*
%TO.C,J702*%
X28573000Y-23012400D03*
D29*
X28573000Y-20472400D03*
X31113000Y-23012400D03*
X31113000Y-20472400D03*
X33653000Y-23012400D03*
X33653000Y-20472400D03*
X36193000Y-23012400D03*
X36193000Y-20472400D03*
X38733000Y-23012400D03*
X38733000Y-20472400D03*
X41273000Y-23012400D03*
X41273000Y-20472400D03*
X43813000Y-23012400D03*
X43813000Y-20472400D03*
X46353000Y-23012400D03*
X46353000Y-20472400D03*
X48893000Y-23012400D03*
X48893000Y-20472400D03*
X51433000Y-23012400D03*
X51433000Y-20472400D03*
X53973000Y-23012400D03*
X53973000Y-20472400D03*
X56513000Y-23012400D03*
X56513000Y-20472400D03*
X59053000Y-23012400D03*
X59053000Y-20472400D03*
X61593000Y-23012400D03*
X61593000Y-20472400D03*
X64133000Y-23012400D03*
X64133000Y-20472400D03*
X66673000Y-23012400D03*
X66673000Y-20472400D03*
X69213000Y-23012400D03*
X69213000Y-20472400D03*
X71753000Y-23012400D03*
X71753000Y-20472400D03*
X74293000Y-23012400D03*
X74293000Y-20472400D03*
X76833000Y-23012400D03*
X76833000Y-20472400D03*
%TD*%
%TO.C,J801*%
G36*
G01*
X62854000Y-67590000D02*
X62854000Y-64490000D01*
G75*
G02*
X63104000Y-64240000I250000J0D01*
G01*
X64404000Y-64240000D01*
G75*
G02*
X64654000Y-64490000I0J-250000D01*
G01*
X64654000Y-67590000D01*
G75*
G02*
X64404000Y-67840000I-250000J0D01*
G01*
X63104000Y-67840000D01*
G75*
G02*
X62854000Y-67590000I0J250000D01*
G01*
G37*
D13*
X67564000Y-66040000D03*
X71374000Y-66040000D03*
X75184000Y-66040000D03*
%TD*%
%TO.C,L201*%
G36*
G01*
X22470000Y-57091000D02*
X22470000Y-54161000D01*
G75*
G02*
X22705000Y-53926000I235000J0D01*
G01*
X24585000Y-53926000D01*
G75*
G02*
X24820000Y-54161000I0J-235000D01*
G01*
X24820000Y-57091000D01*
G75*
G02*
X24585000Y-57326000I-235000J0D01*
G01*
X22705000Y-57326000D01*
G75*
G02*
X22470000Y-57091000I0J235000D01*
G01*
G37*
G36*
G01*
X28520000Y-57091000D02*
X28520000Y-54161000D01*
G75*
G02*
X28755000Y-53926000I235000J0D01*
G01*
X30635000Y-53926000D01*
G75*
G02*
X30870000Y-54161000I0J-235000D01*
G01*
X30870000Y-57091000D01*
G75*
G02*
X30635000Y-57326000I-235000J0D01*
G01*
X28755000Y-57326000D01*
G75*
G02*
X28520000Y-57091000I0J235000D01*
G01*
G37*
%TD*%
D30*
%TO.C,L301*%
X49212000Y-44216000D03*
X41212000Y-44216000D03*
%TD*%
D31*
%TO.C,Q501*%
X45400000Y-59218000D03*
X43500000Y-59218000D03*
X44450000Y-61218000D03*
%TD*%
%TO.C,R201*%
G36*
G01*
X28529500Y-46164000D02*
X28874500Y-46164000D01*
G75*
G02*
X29022000Y-46311500I0J-147500D01*
G01*
X29022000Y-46606500D01*
G75*
G02*
X28874500Y-46754000I-147500J0D01*
G01*
X28529500Y-46754000D01*
G75*
G02*
X28382000Y-46606500I0J147500D01*
G01*
X28382000Y-46311500D01*
G75*
G02*
X28529500Y-46164000I147500J0D01*
G01*
G37*
G36*
G01*
X28529500Y-45194000D02*
X28874500Y-45194000D01*
G75*
G02*
X29022000Y-45341500I0J-147500D01*
G01*
X29022000Y-45636500D01*
G75*
G02*
X28874500Y-45784000I-147500J0D01*
G01*
X28529500Y-45784000D01*
G75*
G02*
X28382000Y-45636500I0J147500D01*
G01*
X28382000Y-45341500D01*
G75*
G02*
X28529500Y-45194000I147500J0D01*
G01*
G37*
%TD*%
%TO.C,R202*%
G36*
G01*
X26098000Y-60751500D02*
X26098000Y-60406500D01*
G75*
G02*
X26245500Y-60259000I147500J0D01*
G01*
X26540500Y-60259000D01*
G75*
G02*
X26688000Y-60406500I0J-147500D01*
G01*
X26688000Y-60751500D01*
G75*
G02*
X26540500Y-60899000I-147500J0D01*
G01*
X26245500Y-60899000D01*
G75*
G02*
X26098000Y-60751500I0J147500D01*
G01*
G37*
G36*
G01*
X25128000Y-60751500D02*
X25128000Y-60406500D01*
G75*
G02*
X25275500Y-60259000I147500J0D01*
G01*
X25570500Y-60259000D01*
G75*
G02*
X25718000Y-60406500I0J-147500D01*
G01*
X25718000Y-60751500D01*
G75*
G02*
X25570500Y-60899000I-147500J0D01*
G01*
X25275500Y-60899000D01*
G75*
G02*
X25128000Y-60751500I0J147500D01*
G01*
G37*
%TD*%
%TO.C,R203*%
G36*
G01*
X27355499Y-46164000D02*
X27700499Y-46164000D01*
G75*
G02*
X27847999Y-46311500I0J-147500D01*
G01*
X27847999Y-46606500D01*
G75*
G02*
X27700499Y-46754000I-147500J0D01*
G01*
X27355499Y-46754000D01*
G75*
G02*
X27207999Y-46606500I0J147500D01*
G01*
X27207999Y-46311500D01*
G75*
G02*
X27355499Y-46164000I147500J0D01*
G01*
G37*
G36*
G01*
X27355499Y-45194000D02*
X27700499Y-45194000D01*
G75*
G02*
X27847999Y-45341500I0J-147500D01*
G01*
X27847999Y-45636500D01*
G75*
G02*
X27700499Y-45784000I-147500J0D01*
G01*
X27355499Y-45784000D01*
G75*
G02*
X27207999Y-45636500I0J147500D01*
G01*
X27207999Y-45341500D01*
G75*
G02*
X27355499Y-45194000I147500J0D01*
G01*
G37*
%TD*%
%TO.C,R204*%
G36*
G01*
X26588500Y-45784000D02*
X26243500Y-45784000D01*
G75*
G02*
X26096000Y-45636500I0J147500D01*
G01*
X26096000Y-45341500D01*
G75*
G02*
X26243500Y-45194000I147500J0D01*
G01*
X26588500Y-45194000D01*
G75*
G02*
X26736000Y-45341500I0J-147500D01*
G01*
X26736000Y-45636500D01*
G75*
G02*
X26588500Y-45784000I-147500J0D01*
G01*
G37*
G36*
G01*
X26588500Y-46754000D02*
X26243500Y-46754000D01*
G75*
G02*
X26096000Y-46606500I0J147500D01*
G01*
X26096000Y-46311500D01*
G75*
G02*
X26243500Y-46164000I147500J0D01*
G01*
X26588500Y-46164000D01*
G75*
G02*
X26736000Y-46311500I0J-147500D01*
G01*
X26736000Y-46606500D01*
G75*
G02*
X26588500Y-46754000I-147500J0D01*
G01*
G37*
%TD*%
%TO.C,R301*%
G36*
G01*
X52067750Y-46801000D02*
X52580250Y-46801000D01*
G75*
G02*
X52799000Y-47019750I0J-218750D01*
G01*
X52799000Y-47457250D01*
G75*
G02*
X52580250Y-47676000I-218750J0D01*
G01*
X52067750Y-47676000D01*
G75*
G02*
X51849000Y-47457250I0J218750D01*
G01*
X51849000Y-47019750D01*
G75*
G02*
X52067750Y-46801000I218750J0D01*
G01*
G37*
G36*
G01*
X52067750Y-48376000D02*
X52580250Y-48376000D01*
G75*
G02*
X52799000Y-48594750I0J-218750D01*
G01*
X52799000Y-49032250D01*
G75*
G02*
X52580250Y-49251000I-218750J0D01*
G01*
X52067750Y-49251000D01*
G75*
G02*
X51849000Y-49032250I0J218750D01*
G01*
X51849000Y-48594750D01*
G75*
G02*
X52067750Y-48376000I218750J0D01*
G01*
G37*
%TD*%
%TO.C,R302*%
G36*
G01*
X54420000Y-53441500D02*
X54420000Y-53786500D01*
G75*
G02*
X54272500Y-53934000I-147500J0D01*
G01*
X53977500Y-53934000D01*
G75*
G02*
X53830000Y-53786500I0J147500D01*
G01*
X53830000Y-53441500D01*
G75*
G02*
X53977500Y-53294000I147500J0D01*
G01*
X54272500Y-53294000D01*
G75*
G02*
X54420000Y-53441500I0J-147500D01*
G01*
G37*
G36*
G01*
X55390000Y-53441500D02*
X55390000Y-53786500D01*
G75*
G02*
X55242500Y-53934000I-147500J0D01*
G01*
X54947500Y-53934000D01*
G75*
G02*
X54800000Y-53786500I0J147500D01*
G01*
X54800000Y-53441500D01*
G75*
G02*
X54947500Y-53294000I147500J0D01*
G01*
X55242500Y-53294000D01*
G75*
G02*
X55390000Y-53441500I0J-147500D01*
G01*
G37*
%TD*%
%TO.C,R303*%
G36*
G01*
X54800000Y-54802500D02*
X54800000Y-54457500D01*
G75*
G02*
X54947500Y-54310000I147500J0D01*
G01*
X55242500Y-54310000D01*
G75*
G02*
X55390000Y-54457500I0J-147500D01*
G01*
X55390000Y-54802500D01*
G75*
G02*
X55242500Y-54950000I-147500J0D01*
G01*
X54947500Y-54950000D01*
G75*
G02*
X54800000Y-54802500I0J147500D01*
G01*
G37*
G36*
G01*
X53830000Y-54802500D02*
X53830000Y-54457500D01*
G75*
G02*
X53977500Y-54310000I147500J0D01*
G01*
X54272500Y-54310000D01*
G75*
G02*
X54420000Y-54457500I0J-147500D01*
G01*
X54420000Y-54802500D01*
G75*
G02*
X54272500Y-54950000I-147500J0D01*
G01*
X53977500Y-54950000D01*
G75*
G02*
X53830000Y-54802500I0J147500D01*
G01*
G37*
%TD*%
%TO.C,R304*%
G36*
G01*
X38217000Y-50876500D02*
X36967000Y-50876500D01*
G75*
G02*
X36717000Y-50626500I0J250000D01*
G01*
X36717000Y-49876500D01*
G75*
G02*
X36967000Y-49626500I250000J0D01*
G01*
X38217000Y-49626500D01*
G75*
G02*
X38467000Y-49876500I0J-250000D01*
G01*
X38467000Y-50626500D01*
G75*
G02*
X38217000Y-50876500I-250000J0D01*
G01*
G37*
G36*
G01*
X38217000Y-48076500D02*
X36967000Y-48076500D01*
G75*
G02*
X36717000Y-47826500I0J250000D01*
G01*
X36717000Y-47076500D01*
G75*
G02*
X36967000Y-46826500I250000J0D01*
G01*
X38217000Y-46826500D01*
G75*
G02*
X38467000Y-47076500I0J-250000D01*
G01*
X38467000Y-47826500D01*
G75*
G02*
X38217000Y-48076500I-250000J0D01*
G01*
G37*
%TD*%
%TO.C,R305*%
G36*
G01*
X40299000Y-54548500D02*
X40299000Y-54203500D01*
G75*
G02*
X40446500Y-54056000I147500J0D01*
G01*
X40741500Y-54056000D01*
G75*
G02*
X40889000Y-54203500I0J-147500D01*
G01*
X40889000Y-54548500D01*
G75*
G02*
X40741500Y-54696000I-147500J0D01*
G01*
X40446500Y-54696000D01*
G75*
G02*
X40299000Y-54548500I0J147500D01*
G01*
G37*
G36*
G01*
X39329000Y-54548500D02*
X39329000Y-54203500D01*
G75*
G02*
X39476500Y-54056000I147500J0D01*
G01*
X39771500Y-54056000D01*
G75*
G02*
X39919000Y-54203500I0J-147500D01*
G01*
X39919000Y-54548500D01*
G75*
G02*
X39771500Y-54696000I-147500J0D01*
G01*
X39476500Y-54696000D01*
G75*
G02*
X39329000Y-54548500I0J147500D01*
G01*
G37*
%TD*%
%TO.C,R306*%
G36*
G01*
X39352000Y-56580500D02*
X39352000Y-56235500D01*
G75*
G02*
X39499500Y-56088000I147500J0D01*
G01*
X39794500Y-56088000D01*
G75*
G02*
X39942000Y-56235500I0J-147500D01*
G01*
X39942000Y-56580500D01*
G75*
G02*
X39794500Y-56728000I-147500J0D01*
G01*
X39499500Y-56728000D01*
G75*
G02*
X39352000Y-56580500I0J147500D01*
G01*
G37*
G36*
G01*
X40322000Y-56580500D02*
X40322000Y-56235500D01*
G75*
G02*
X40469500Y-56088000I147500J0D01*
G01*
X40764500Y-56088000D01*
G75*
G02*
X40912000Y-56235500I0J-147500D01*
G01*
X40912000Y-56580500D01*
G75*
G02*
X40764500Y-56728000I-147500J0D01*
G01*
X40469500Y-56728000D01*
G75*
G02*
X40322000Y-56580500I0J147500D01*
G01*
G37*
%TD*%
%TO.C,R501*%
G36*
G01*
X47434000Y-55818500D02*
X47434000Y-55473500D01*
G75*
G02*
X47581500Y-55326000I147500J0D01*
G01*
X47876500Y-55326000D01*
G75*
G02*
X48024000Y-55473500I0J-147500D01*
G01*
X48024000Y-55818500D01*
G75*
G02*
X47876500Y-55966000I-147500J0D01*
G01*
X47581500Y-55966000D01*
G75*
G02*
X47434000Y-55818500I0J147500D01*
G01*
G37*
G36*
G01*
X46464000Y-55818500D02*
X46464000Y-55473500D01*
G75*
G02*
X46611500Y-55326000I147500J0D01*
G01*
X46906500Y-55326000D01*
G75*
G02*
X47054000Y-55473500I0J-147500D01*
G01*
X47054000Y-55818500D01*
G75*
G02*
X46906500Y-55966000I-147500J0D01*
G01*
X46611500Y-55966000D01*
G75*
G02*
X46464000Y-55818500I0J147500D01*
G01*
G37*
%TD*%
%TO.C,R601*%
G36*
G01*
X38229250Y-61570000D02*
X37716750Y-61570000D01*
G75*
G02*
X37498000Y-61351250I0J218750D01*
G01*
X37498000Y-60913750D01*
G75*
G02*
X37716750Y-60695000I218750J0D01*
G01*
X38229250Y-60695000D01*
G75*
G02*
X38448000Y-60913750I0J-218750D01*
G01*
X38448000Y-61351250D01*
G75*
G02*
X38229250Y-61570000I-218750J0D01*
G01*
G37*
G36*
G01*
X38229250Y-59995000D02*
X37716750Y-59995000D01*
G75*
G02*
X37498000Y-59776250I0J218750D01*
G01*
X37498000Y-59338750D01*
G75*
G02*
X37716750Y-59120000I218750J0D01*
G01*
X38229250Y-59120000D01*
G75*
G02*
X38448000Y-59338750I0J-218750D01*
G01*
X38448000Y-59776250D01*
G75*
G02*
X38229250Y-59995000I-218750J0D01*
G01*
G37*
%TD*%
%TO.C,R602*%
G36*
G01*
X38560999Y-58006499D02*
X38560999Y-58351499D01*
G75*
G02*
X38413499Y-58498999I-147500J0D01*
G01*
X38118499Y-58498999D01*
G75*
G02*
X37970999Y-58351499I0J147500D01*
G01*
X37970999Y-58006499D01*
G75*
G02*
X38118499Y-57858999I147500J0D01*
G01*
X38413499Y-57858999D01*
G75*
G02*
X38560999Y-58006499I0J-147500D01*
G01*
G37*
G36*
G01*
X37590999Y-58006499D02*
X37590999Y-58351499D01*
G75*
G02*
X37443499Y-58498999I-147500J0D01*
G01*
X37148499Y-58498999D01*
G75*
G02*
X37000999Y-58351499I0J147500D01*
G01*
X37000999Y-58006499D01*
G75*
G02*
X37148499Y-57858999I147500J0D01*
G01*
X37443499Y-57858999D01*
G75*
G02*
X37590999Y-58006499I0J-147500D01*
G01*
G37*
%TD*%
%TO.C,R603*%
G36*
G01*
X31668500Y-38499000D02*
X31323500Y-38499000D01*
G75*
G02*
X31176000Y-38351500I0J147500D01*
G01*
X31176000Y-38056500D01*
G75*
G02*
X31323500Y-37909000I147500J0D01*
G01*
X31668500Y-37909000D01*
G75*
G02*
X31816000Y-38056500I0J-147500D01*
G01*
X31816000Y-38351500D01*
G75*
G02*
X31668500Y-38499000I-147500J0D01*
G01*
G37*
G36*
G01*
X31668500Y-37529000D02*
X31323500Y-37529000D01*
G75*
G02*
X31176000Y-37381500I0J147500D01*
G01*
X31176000Y-37086500D01*
G75*
G02*
X31323500Y-36939000I147500J0D01*
G01*
X31668500Y-36939000D01*
G75*
G02*
X31816000Y-37086500I0J-147500D01*
G01*
X31816000Y-37381500D01*
G75*
G02*
X31668500Y-37529000I-147500J0D01*
G01*
G37*
%TD*%
%TO.C,R604*%
G36*
G01*
X23794500Y-51453000D02*
X23449500Y-51453000D01*
G75*
G02*
X23302000Y-51305500I0J147500D01*
G01*
X23302000Y-51010500D01*
G75*
G02*
X23449500Y-50863000I147500J0D01*
G01*
X23794500Y-50863000D01*
G75*
G02*
X23942000Y-51010500I0J-147500D01*
G01*
X23942000Y-51305500D01*
G75*
G02*
X23794500Y-51453000I-147500J0D01*
G01*
G37*
G36*
G01*
X23794500Y-50483000D02*
X23449500Y-50483000D01*
G75*
G02*
X23302000Y-50335500I0J147500D01*
G01*
X23302000Y-50040500D01*
G75*
G02*
X23449500Y-49893000I147500J0D01*
G01*
X23794500Y-49893000D01*
G75*
G02*
X23942000Y-50040500I0J-147500D01*
G01*
X23942000Y-50335500D01*
G75*
G02*
X23794500Y-50483000I-147500J0D01*
G01*
G37*
%TD*%
%TO.C,R605*%
G36*
G01*
X22306500Y-49893000D02*
X22651500Y-49893000D01*
G75*
G02*
X22799000Y-50040500I0J-147500D01*
G01*
X22799000Y-50335500D01*
G75*
G02*
X22651500Y-50483000I-147500J0D01*
G01*
X22306500Y-50483000D01*
G75*
G02*
X22159000Y-50335500I0J147500D01*
G01*
X22159000Y-50040500D01*
G75*
G02*
X22306500Y-49893000I147500J0D01*
G01*
G37*
G36*
G01*
X22306500Y-50863000D02*
X22651500Y-50863000D01*
G75*
G02*
X22799000Y-51010500I0J-147500D01*
G01*
X22799000Y-51305500D01*
G75*
G02*
X22651500Y-51453000I-147500J0D01*
G01*
X22306500Y-51453000D01*
G75*
G02*
X22159000Y-51305500I0J147500D01*
G01*
X22159000Y-51010500D01*
G75*
G02*
X22306500Y-50863000I147500J0D01*
G01*
G37*
%TD*%
%TO.C,R701*%
G36*
G01*
X23703500Y-29700000D02*
X24048500Y-29700000D01*
G75*
G02*
X24196000Y-29847500I0J-147500D01*
G01*
X24196000Y-30142500D01*
G75*
G02*
X24048500Y-30290000I-147500J0D01*
G01*
X23703500Y-30290000D01*
G75*
G02*
X23556000Y-30142500I0J147500D01*
G01*
X23556000Y-29847500D01*
G75*
G02*
X23703500Y-29700000I147500J0D01*
G01*
G37*
G36*
G01*
X23703500Y-30670000D02*
X24048500Y-30670000D01*
G75*
G02*
X24196000Y-30817500I0J-147500D01*
G01*
X24196000Y-31112500D01*
G75*
G02*
X24048500Y-31260000I-147500J0D01*
G01*
X23703500Y-31260000D01*
G75*
G02*
X23556000Y-31112500I0J147500D01*
G01*
X23556000Y-30817500D01*
G75*
G02*
X23703500Y-30670000I147500J0D01*
G01*
G37*
%TD*%
%TO.C,R702*%
G36*
G01*
X23551100Y-33764000D02*
X23896100Y-33764000D01*
G75*
G02*
X24043600Y-33911500I0J-147500D01*
G01*
X24043600Y-34206500D01*
G75*
G02*
X23896100Y-34354000I-147500J0D01*
G01*
X23551100Y-34354000D01*
G75*
G02*
X23403600Y-34206500I0J147500D01*
G01*
X23403600Y-33911500D01*
G75*
G02*
X23551100Y-33764000I147500J0D01*
G01*
G37*
G36*
G01*
X23551100Y-34734000D02*
X23896100Y-34734000D01*
G75*
G02*
X24043600Y-34881500I0J-147500D01*
G01*
X24043600Y-35176500D01*
G75*
G02*
X23896100Y-35324000I-147500J0D01*
G01*
X23551100Y-35324000D01*
G75*
G02*
X23403600Y-35176500I0J147500D01*
G01*
X23403600Y-34881500D01*
G75*
G02*
X23551100Y-34734000I147500J0D01*
G01*
G37*
%TD*%
%TO.C,R703*%
G36*
G01*
X23703500Y-38798000D02*
X24048500Y-38798000D01*
G75*
G02*
X24196000Y-38945500I0J-147500D01*
G01*
X24196000Y-39240500D01*
G75*
G02*
X24048500Y-39388000I-147500J0D01*
G01*
X23703500Y-39388000D01*
G75*
G02*
X23556000Y-39240500I0J147500D01*
G01*
X23556000Y-38945500D01*
G75*
G02*
X23703500Y-38798000I147500J0D01*
G01*
G37*
G36*
G01*
X23703500Y-37828000D02*
X24048500Y-37828000D01*
G75*
G02*
X24196000Y-37975500I0J-147500D01*
G01*
X24196000Y-38270500D01*
G75*
G02*
X24048500Y-38418000I-147500J0D01*
G01*
X23703500Y-38418000D01*
G75*
G02*
X23556000Y-38270500I0J147500D01*
G01*
X23556000Y-37975500D01*
G75*
G02*
X23703500Y-37828000I147500J0D01*
G01*
G37*
%TD*%
%TO.C,R704*%
G36*
G01*
X23703500Y-41892000D02*
X24048500Y-41892000D01*
G75*
G02*
X24196000Y-42039500I0J-147500D01*
G01*
X24196000Y-42334500D01*
G75*
G02*
X24048500Y-42482000I-147500J0D01*
G01*
X23703500Y-42482000D01*
G75*
G02*
X23556000Y-42334500I0J147500D01*
G01*
X23556000Y-42039500D01*
G75*
G02*
X23703500Y-41892000I147500J0D01*
G01*
G37*
G36*
G01*
X23703500Y-42862000D02*
X24048500Y-42862000D01*
G75*
G02*
X24196000Y-43009500I0J-147500D01*
G01*
X24196000Y-43304500D01*
G75*
G02*
X24048500Y-43452000I-147500J0D01*
G01*
X23703500Y-43452000D01*
G75*
G02*
X23556000Y-43304500I0J147500D01*
G01*
X23556000Y-43009500D01*
G75*
G02*
X23703500Y-42862000I147500J0D01*
G01*
G37*
%TD*%
%TO.C,R705*%
G36*
G01*
X58168250Y-27590000D02*
X57655750Y-27590000D01*
G75*
G02*
X57437000Y-27371250I0J218750D01*
G01*
X57437000Y-26933750D01*
G75*
G02*
X57655750Y-26715000I218750J0D01*
G01*
X58168250Y-26715000D01*
G75*
G02*
X58387000Y-26933750I0J-218750D01*
G01*
X58387000Y-27371250D01*
G75*
G02*
X58168250Y-27590000I-218750J0D01*
G01*
G37*
G36*
G01*
X58168250Y-29165000D02*
X57655750Y-29165000D01*
G75*
G02*
X57437000Y-28946250I0J218750D01*
G01*
X57437000Y-28508750D01*
G75*
G02*
X57655750Y-28290000I218750J0D01*
G01*
X58168250Y-28290000D01*
G75*
G02*
X58387000Y-28508750I0J-218750D01*
G01*
X58387000Y-28946250D01*
G75*
G02*
X58168250Y-29165000I-218750J0D01*
G01*
G37*
%TD*%
%TO.C,R706*%
G36*
G01*
X60454250Y-29165000D02*
X59941750Y-29165000D01*
G75*
G02*
X59723000Y-28946250I0J218750D01*
G01*
X59723000Y-28508750D01*
G75*
G02*
X59941750Y-28290000I218750J0D01*
G01*
X60454250Y-28290000D01*
G75*
G02*
X60673000Y-28508750I0J-218750D01*
G01*
X60673000Y-28946250D01*
G75*
G02*
X60454250Y-29165000I-218750J0D01*
G01*
G37*
G36*
G01*
X60454250Y-27590000D02*
X59941750Y-27590000D01*
G75*
G02*
X59723000Y-27371250I0J218750D01*
G01*
X59723000Y-26933750D01*
G75*
G02*
X59941750Y-26715000I218750J0D01*
G01*
X60454250Y-26715000D01*
G75*
G02*
X60673000Y-26933750I0J-218750D01*
G01*
X60673000Y-27371250D01*
G75*
G02*
X60454250Y-27590000I-218750J0D01*
G01*
G37*
%TD*%
%TO.C,R707*%
G36*
G01*
X62740250Y-27590000D02*
X62227750Y-27590000D01*
G75*
G02*
X62009000Y-27371250I0J218750D01*
G01*
X62009000Y-26933750D01*
G75*
G02*
X62227750Y-26715000I218750J0D01*
G01*
X62740250Y-26715000D01*
G75*
G02*
X62959000Y-26933750I0J-218750D01*
G01*
X62959000Y-27371250D01*
G75*
G02*
X62740250Y-27590000I-218750J0D01*
G01*
G37*
G36*
G01*
X62740250Y-29165000D02*
X62227750Y-29165000D01*
G75*
G02*
X62009000Y-28946250I0J218750D01*
G01*
X62009000Y-28508750D01*
G75*
G02*
X62227750Y-28290000I218750J0D01*
G01*
X62740250Y-28290000D01*
G75*
G02*
X62959000Y-28508750I0J-218750D01*
G01*
X62959000Y-28946250D01*
G75*
G02*
X62740250Y-29165000I-218750J0D01*
G01*
G37*
%TD*%
%TO.C,R708*%
G36*
G01*
X67312250Y-29139500D02*
X66799750Y-29139500D01*
G75*
G02*
X66581000Y-28920750I0J218750D01*
G01*
X66581000Y-28483250D01*
G75*
G02*
X66799750Y-28264500I218750J0D01*
G01*
X67312250Y-28264500D01*
G75*
G02*
X67531000Y-28483250I0J-218750D01*
G01*
X67531000Y-28920750D01*
G75*
G02*
X67312250Y-29139500I-218750J0D01*
G01*
G37*
G36*
G01*
X67312250Y-27564500D02*
X66799750Y-27564500D01*
G75*
G02*
X66581000Y-27345750I0J218750D01*
G01*
X66581000Y-26908250D01*
G75*
G02*
X66799750Y-26689500I218750J0D01*
G01*
X67312250Y-26689500D01*
G75*
G02*
X67531000Y-26908250I0J-218750D01*
G01*
X67531000Y-27345750D01*
G75*
G02*
X67312250Y-27564500I-218750J0D01*
G01*
G37*
%TD*%
%TO.C,R709*%
G36*
G01*
X65026250Y-27590000D02*
X64513750Y-27590000D01*
G75*
G02*
X64295000Y-27371250I0J218750D01*
G01*
X64295000Y-26933750D01*
G75*
G02*
X64513750Y-26715000I218750J0D01*
G01*
X65026250Y-26715000D01*
G75*
G02*
X65245000Y-26933750I0J-218750D01*
G01*
X65245000Y-27371250D01*
G75*
G02*
X65026250Y-27590000I-218750J0D01*
G01*
G37*
G36*
G01*
X65026250Y-29165000D02*
X64513750Y-29165000D01*
G75*
G02*
X64295000Y-28946250I0J218750D01*
G01*
X64295000Y-28508750D01*
G75*
G02*
X64513750Y-28290000I218750J0D01*
G01*
X65026250Y-28290000D01*
G75*
G02*
X65245000Y-28508750I0J-218750D01*
G01*
X65245000Y-28946250D01*
G75*
G02*
X65026250Y-29165000I-218750J0D01*
G01*
G37*
%TD*%
%TO.C,R801*%
G36*
G01*
X79997000Y-61859000D02*
X79997000Y-63109000D01*
G75*
G02*
X79747000Y-63359000I-250000J0D01*
G01*
X78997000Y-63359000D01*
G75*
G02*
X78747000Y-63109000I0J250000D01*
G01*
X78747000Y-61859000D01*
G75*
G02*
X78997000Y-61609000I250000J0D01*
G01*
X79747000Y-61609000D01*
G75*
G02*
X79997000Y-61859000I0J-250000D01*
G01*
G37*
G36*
G01*
X82797000Y-61859000D02*
X82797000Y-63109000D01*
G75*
G02*
X82547000Y-63359000I-250000J0D01*
G01*
X81797000Y-63359000D01*
G75*
G02*
X81547000Y-63109000I0J250000D01*
G01*
X81547000Y-61859000D01*
G75*
G02*
X81797000Y-61609000I250000J0D01*
G01*
X82547000Y-61609000D01*
G75*
G02*
X82797000Y-61859000I0J-250000D01*
G01*
G37*
%TD*%
%TO.C,R802*%
G36*
G01*
X63446300Y-31376400D02*
X63446300Y-31031400D01*
G75*
G02*
X63593800Y-30883900I147500J0D01*
G01*
X63888800Y-30883900D01*
G75*
G02*
X64036300Y-31031400I0J-147500D01*
G01*
X64036300Y-31376400D01*
G75*
G02*
X63888800Y-31523900I-147500J0D01*
G01*
X63593800Y-31523900D01*
G75*
G02*
X63446300Y-31376400I0J147500D01*
G01*
G37*
G36*
G01*
X64416300Y-31376400D02*
X64416300Y-31031400D01*
G75*
G02*
X64563800Y-30883900I147500J0D01*
G01*
X64858800Y-30883900D01*
G75*
G02*
X65006300Y-31031400I0J-147500D01*
G01*
X65006300Y-31376400D01*
G75*
G02*
X64858800Y-31523900I-147500J0D01*
G01*
X64563800Y-31523900D01*
G75*
G02*
X64416300Y-31376400I0J147500D01*
G01*
G37*
%TD*%
D28*
%TO.C,SW201*%
X24638000Y-65532000D03*
D29*
X24638000Y-62992000D03*
%TD*%
D15*
%TO.C,TP501*%
X40640000Y-60345000D03*
%TD*%
D31*
%TO.C,U301*%
X56576000Y-46518000D03*
X54676000Y-46518000D03*
X55626000Y-48518000D03*
%TD*%
%TO.C,U302*%
G36*
G01*
X46334000Y-50589000D02*
X46334000Y-50289000D01*
G75*
G02*
X46484000Y-50139000I150000J0D01*
G01*
X48134000Y-50139000D01*
G75*
G02*
X48284000Y-50289000I0J-150000D01*
G01*
X48284000Y-50589000D01*
G75*
G02*
X48134000Y-50739000I-150000J0D01*
G01*
X46484000Y-50739000D01*
G75*
G02*
X46334000Y-50589000I0J150000D01*
G01*
G37*
G36*
G01*
X46334000Y-51859000D02*
X46334000Y-51559000D01*
G75*
G02*
X46484000Y-51409000I150000J0D01*
G01*
X48134000Y-51409000D01*
G75*
G02*
X48284000Y-51559000I0J-150000D01*
G01*
X48284000Y-51859000D01*
G75*
G02*
X48134000Y-52009000I-150000J0D01*
G01*
X46484000Y-52009000D01*
G75*
G02*
X46334000Y-51859000I0J150000D01*
G01*
G37*
G36*
G01*
X46334000Y-53129000D02*
X46334000Y-52829000D01*
G75*
G02*
X46484000Y-52679000I150000J0D01*
G01*
X48134000Y-52679000D01*
G75*
G02*
X48284000Y-52829000I0J-150000D01*
G01*
X48284000Y-53129000D01*
G75*
G02*
X48134000Y-53279000I-150000J0D01*
G01*
X46484000Y-53279000D01*
G75*
G02*
X46334000Y-53129000I0J150000D01*
G01*
G37*
G36*
G01*
X46334000Y-54399000D02*
X46334000Y-54099000D01*
G75*
G02*
X46484000Y-53949000I150000J0D01*
G01*
X48134000Y-53949000D01*
G75*
G02*
X48284000Y-54099000I0J-150000D01*
G01*
X48284000Y-54399000D01*
G75*
G02*
X48134000Y-54549000I-150000J0D01*
G01*
X46484000Y-54549000D01*
G75*
G02*
X46334000Y-54399000I0J150000D01*
G01*
G37*
G36*
G01*
X51284000Y-54399000D02*
X51284000Y-54099000D01*
G75*
G02*
X51434000Y-53949000I150000J0D01*
G01*
X53084000Y-53949000D01*
G75*
G02*
X53234000Y-54099000I0J-150000D01*
G01*
X53234000Y-54399000D01*
G75*
G02*
X53084000Y-54549000I-150000J0D01*
G01*
X51434000Y-54549000D01*
G75*
G02*
X51284000Y-54399000I0J150000D01*
G01*
G37*
G36*
G01*
X51284000Y-53129000D02*
X51284000Y-52829000D01*
G75*
G02*
X51434000Y-52679000I150000J0D01*
G01*
X53084000Y-52679000D01*
G75*
G02*
X53234000Y-52829000I0J-150000D01*
G01*
X53234000Y-53129000D01*
G75*
G02*
X53084000Y-53279000I-150000J0D01*
G01*
X51434000Y-53279000D01*
G75*
G02*
X51284000Y-53129000I0J150000D01*
G01*
G37*
G36*
G01*
X51284000Y-51859000D02*
X51284000Y-51559000D01*
G75*
G02*
X51434000Y-51409000I150000J0D01*
G01*
X53084000Y-51409000D01*
G75*
G02*
X53234000Y-51559000I0J-150000D01*
G01*
X53234000Y-51859000D01*
G75*
G02*
X53084000Y-52009000I-150000J0D01*
G01*
X51434000Y-52009000D01*
G75*
G02*
X51284000Y-51859000I0J150000D01*
G01*
G37*
G36*
G01*
X51284000Y-50589000D02*
X51284000Y-50289000D01*
G75*
G02*
X51434000Y-50139000I150000J0D01*
G01*
X53084000Y-50139000D01*
G75*
G02*
X53234000Y-50289000I0J-150000D01*
G01*
X53234000Y-50589000D01*
G75*
G02*
X53084000Y-50739000I-150000J0D01*
G01*
X51434000Y-50739000D01*
G75*
G02*
X51284000Y-50589000I0J150000D01*
G01*
G37*
D32*
X49784000Y-52344000D03*
%TD*%
D33*
%TO.C,U303*%
X35448000Y-48537500D03*
X34798000Y-48537500D03*
X34148000Y-48537500D03*
X34148000Y-51197500D03*
X34798000Y-51197500D03*
X35448000Y-51197500D03*
%TD*%
%TO.C,U401*%
G36*
G01*
X57679001Y-38202999D02*
X57379001Y-38202999D01*
G75*
G02*
X57229001Y-38052999I0J150000D01*
G01*
X57229001Y-36402999D01*
G75*
G02*
X57379001Y-36252999I150000J0D01*
G01*
X57679001Y-36252999D01*
G75*
G02*
X57829001Y-36402999I0J-150000D01*
G01*
X57829001Y-38052999D01*
G75*
G02*
X57679001Y-38202999I-150000J0D01*
G01*
G37*
G36*
G01*
X58949001Y-38202999D02*
X58649001Y-38202999D01*
G75*
G02*
X58499001Y-38052999I0J150000D01*
G01*
X58499001Y-36402999D01*
G75*
G02*
X58649001Y-36252999I150000J0D01*
G01*
X58949001Y-36252999D01*
G75*
G02*
X59099001Y-36402999I0J-150000D01*
G01*
X59099001Y-38052999D01*
G75*
G02*
X58949001Y-38202999I-150000J0D01*
G01*
G37*
G36*
G01*
X60219001Y-38202999D02*
X59919001Y-38202999D01*
G75*
G02*
X59769001Y-38052999I0J150000D01*
G01*
X59769001Y-36402999D01*
G75*
G02*
X59919001Y-36252999I150000J0D01*
G01*
X60219001Y-36252999D01*
G75*
G02*
X60369001Y-36402999I0J-150000D01*
G01*
X60369001Y-38052999D01*
G75*
G02*
X60219001Y-38202999I-150000J0D01*
G01*
G37*
G36*
G01*
X61489001Y-38202999D02*
X61189001Y-38202999D01*
G75*
G02*
X61039001Y-38052999I0J150000D01*
G01*
X61039001Y-36402999D01*
G75*
G02*
X61189001Y-36252999I150000J0D01*
G01*
X61489001Y-36252999D01*
G75*
G02*
X61639001Y-36402999I0J-150000D01*
G01*
X61639001Y-38052999D01*
G75*
G02*
X61489001Y-38202999I-150000J0D01*
G01*
G37*
G36*
G01*
X61489001Y-33252999D02*
X61189001Y-33252999D01*
G75*
G02*
X61039001Y-33102999I0J150000D01*
G01*
X61039001Y-31452999D01*
G75*
G02*
X61189001Y-31302999I150000J0D01*
G01*
X61489001Y-31302999D01*
G75*
G02*
X61639001Y-31452999I0J-150000D01*
G01*
X61639001Y-33102999D01*
G75*
G02*
X61489001Y-33252999I-150000J0D01*
G01*
G37*
G36*
G01*
X60219001Y-33252999D02*
X59919001Y-33252999D01*
G75*
G02*
X59769001Y-33102999I0J150000D01*
G01*
X59769001Y-31452999D01*
G75*
G02*
X59919001Y-31302999I150000J0D01*
G01*
X60219001Y-31302999D01*
G75*
G02*
X60369001Y-31452999I0J-150000D01*
G01*
X60369001Y-33102999D01*
G75*
G02*
X60219001Y-33252999I-150000J0D01*
G01*
G37*
G36*
G01*
X58949001Y-33252999D02*
X58649001Y-33252999D01*
G75*
G02*
X58499001Y-33102999I0J150000D01*
G01*
X58499001Y-31452999D01*
G75*
G02*
X58649001Y-31302999I150000J0D01*
G01*
X58949001Y-31302999D01*
G75*
G02*
X59099001Y-31452999I0J-150000D01*
G01*
X59099001Y-33102999D01*
G75*
G02*
X58949001Y-33252999I-150000J0D01*
G01*
G37*
G36*
G01*
X57679001Y-33252999D02*
X57379001Y-33252999D01*
G75*
G02*
X57229001Y-33102999I0J150000D01*
G01*
X57229001Y-31452999D01*
G75*
G02*
X57379001Y-31302999I150000J0D01*
G01*
X57679001Y-31302999D01*
G75*
G02*
X57829001Y-31452999I0J-150000D01*
G01*
X57829001Y-33102999D01*
G75*
G02*
X57679001Y-33252999I-150000J0D01*
G01*
G37*
%TD*%
%TO.C,U601*%
G36*
G01*
X27836000Y-35454000D02*
X27536000Y-35454000D01*
G75*
G02*
X27386000Y-35304000I0J150000D01*
G01*
X27386000Y-33654000D01*
G75*
G02*
X27536000Y-33504000I150000J0D01*
G01*
X27836000Y-33504000D01*
G75*
G02*
X27986000Y-33654000I0J-150000D01*
G01*
X27986000Y-35304000D01*
G75*
G02*
X27836000Y-35454000I-150000J0D01*
G01*
G37*
G36*
G01*
X29106000Y-35454000D02*
X28806000Y-35454000D01*
G75*
G02*
X28656000Y-35304000I0J150000D01*
G01*
X28656000Y-33654000D01*
G75*
G02*
X28806000Y-33504000I150000J0D01*
G01*
X29106000Y-33504000D01*
G75*
G02*
X29256000Y-33654000I0J-150000D01*
G01*
X29256000Y-35304000D01*
G75*
G02*
X29106000Y-35454000I-150000J0D01*
G01*
G37*
G36*
G01*
X30376000Y-35454000D02*
X30076000Y-35454000D01*
G75*
G02*
X29926000Y-35304000I0J150000D01*
G01*
X29926000Y-33654000D01*
G75*
G02*
X30076000Y-33504000I150000J0D01*
G01*
X30376000Y-33504000D01*
G75*
G02*
X30526000Y-33654000I0J-150000D01*
G01*
X30526000Y-35304000D01*
G75*
G02*
X30376000Y-35454000I-150000J0D01*
G01*
G37*
G36*
G01*
X31646000Y-35454000D02*
X31346000Y-35454000D01*
G75*
G02*
X31196000Y-35304000I0J150000D01*
G01*
X31196000Y-33654000D01*
G75*
G02*
X31346000Y-33504000I150000J0D01*
G01*
X31646000Y-33504000D01*
G75*
G02*
X31796000Y-33654000I0J-150000D01*
G01*
X31796000Y-35304000D01*
G75*
G02*
X31646000Y-35454000I-150000J0D01*
G01*
G37*
G36*
G01*
X32916000Y-35454000D02*
X32616000Y-35454000D01*
G75*
G02*
X32466000Y-35304000I0J150000D01*
G01*
X32466000Y-33654000D01*
G75*
G02*
X32616000Y-33504000I150000J0D01*
G01*
X32916000Y-33504000D01*
G75*
G02*
X33066000Y-33654000I0J-150000D01*
G01*
X33066000Y-35304000D01*
G75*
G02*
X32916000Y-35454000I-150000J0D01*
G01*
G37*
G36*
G01*
X34186000Y-35454000D02*
X33886000Y-35454000D01*
G75*
G02*
X33736000Y-35304000I0J150000D01*
G01*
X33736000Y-33654000D01*
G75*
G02*
X33886000Y-33504000I150000J0D01*
G01*
X34186000Y-33504000D01*
G75*
G02*
X34336000Y-33654000I0J-150000D01*
G01*
X34336000Y-35304000D01*
G75*
G02*
X34186000Y-35454000I-150000J0D01*
G01*
G37*
G36*
G01*
X35456000Y-35454000D02*
X35156000Y-35454000D01*
G75*
G02*
X35006000Y-35304000I0J150000D01*
G01*
X35006000Y-33654000D01*
G75*
G02*
X35156000Y-33504000I150000J0D01*
G01*
X35456000Y-33504000D01*
G75*
G02*
X35606000Y-33654000I0J-150000D01*
G01*
X35606000Y-35304000D01*
G75*
G02*
X35456000Y-35454000I-150000J0D01*
G01*
G37*
G36*
G01*
X35456000Y-30504000D02*
X35156000Y-30504000D01*
G75*
G02*
X35006000Y-30354000I0J150000D01*
G01*
X35006000Y-28704000D01*
G75*
G02*
X35156000Y-28554000I150000J0D01*
G01*
X35456000Y-28554000D01*
G75*
G02*
X35606000Y-28704000I0J-150000D01*
G01*
X35606000Y-30354000D01*
G75*
G02*
X35456000Y-30504000I-150000J0D01*
G01*
G37*
G36*
G01*
X34186000Y-30504000D02*
X33886000Y-30504000D01*
G75*
G02*
X33736000Y-30354000I0J150000D01*
G01*
X33736000Y-28704000D01*
G75*
G02*
X33886000Y-28554000I150000J0D01*
G01*
X34186000Y-28554000D01*
G75*
G02*
X34336000Y-28704000I0J-150000D01*
G01*
X34336000Y-30354000D01*
G75*
G02*
X34186000Y-30504000I-150000J0D01*
G01*
G37*
G36*
G01*
X32916000Y-30504000D02*
X32616000Y-30504000D01*
G75*
G02*
X32466000Y-30354000I0J150000D01*
G01*
X32466000Y-28704000D01*
G75*
G02*
X32616000Y-28554000I150000J0D01*
G01*
X32916000Y-28554000D01*
G75*
G02*
X33066000Y-28704000I0J-150000D01*
G01*
X33066000Y-30354000D01*
G75*
G02*
X32916000Y-30504000I-150000J0D01*
G01*
G37*
G36*
G01*
X31646000Y-30504000D02*
X31346000Y-30504000D01*
G75*
G02*
X31196000Y-30354000I0J150000D01*
G01*
X31196000Y-28704000D01*
G75*
G02*
X31346000Y-28554000I150000J0D01*
G01*
X31646000Y-28554000D01*
G75*
G02*
X31796000Y-28704000I0J-150000D01*
G01*
X31796000Y-30354000D01*
G75*
G02*
X31646000Y-30504000I-150000J0D01*
G01*
G37*
G36*
G01*
X30376000Y-30504000D02*
X30076000Y-30504000D01*
G75*
G02*
X29926000Y-30354000I0J150000D01*
G01*
X29926000Y-28704000D01*
G75*
G02*
X30076000Y-28554000I150000J0D01*
G01*
X30376000Y-28554000D01*
G75*
G02*
X30526000Y-28704000I0J-150000D01*
G01*
X30526000Y-30354000D01*
G75*
G02*
X30376000Y-30504000I-150000J0D01*
G01*
G37*
G36*
G01*
X29106000Y-30504000D02*
X28806000Y-30504000D01*
G75*
G02*
X28656000Y-30354000I0J150000D01*
G01*
X28656000Y-28704000D01*
G75*
G02*
X28806000Y-28554000I150000J0D01*
G01*
X29106000Y-28554000D01*
G75*
G02*
X29256000Y-28704000I0J-150000D01*
G01*
X29256000Y-30354000D01*
G75*
G02*
X29106000Y-30504000I-150000J0D01*
G01*
G37*
G36*
G01*
X27836000Y-30504000D02*
X27536000Y-30504000D01*
G75*
G02*
X27386000Y-30354000I0J150000D01*
G01*
X27386000Y-28704000D01*
G75*
G02*
X27536000Y-28554000I150000J0D01*
G01*
X27836000Y-28554000D01*
G75*
G02*
X27986000Y-28704000I0J-150000D01*
G01*
X27986000Y-30354000D01*
G75*
G02*
X27836000Y-30504000I-150000J0D01*
G01*
G37*
%TD*%
D34*
%TO.C,U701*%
X29730000Y-60967500D03*
D35*
X30230000Y-60930000D03*
D34*
X29230000Y-60967500D03*
X30730000Y-60967500D03*
X29230000Y-60192500D03*
X29730000Y-60192500D03*
X31230000Y-60967500D03*
D36*
X30230000Y-60167500D03*
D34*
X31230000Y-60192500D03*
X30730000Y-60192500D03*
%TD*%
%TO.C,U801*%
X75918000Y-60226000D03*
X76418000Y-60226000D03*
D36*
X75418000Y-60201000D03*
D34*
X76418000Y-61001000D03*
X74918000Y-60226000D03*
X74418000Y-60226000D03*
X75918000Y-61001000D03*
X74418000Y-61001000D03*
D35*
X75418000Y-60963500D03*
D34*
X74918000Y-61001000D03*
%TD*%
D31*
%TO.C,U802*%
X69846000Y-53098000D03*
X68896000Y-51098000D03*
X70796000Y-51098000D03*
%TD*%
%TO.C,U803*%
G36*
G01*
X64218300Y-39248900D02*
X64018300Y-39248900D01*
G75*
G02*
X63918300Y-39148900I0J100000D01*
G01*
X63918300Y-37873900D01*
G75*
G02*
X64018300Y-37773900I100000J0D01*
G01*
X64218300Y-37773900D01*
G75*
G02*
X64318300Y-37873900I0J-100000D01*
G01*
X64318300Y-39148900D01*
G75*
G02*
X64218300Y-39248900I-100000J0D01*
G01*
G37*
G36*
G01*
X64868300Y-39248900D02*
X64668300Y-39248900D01*
G75*
G02*
X64568300Y-39148900I0J100000D01*
G01*
X64568300Y-37873900D01*
G75*
G02*
X64668300Y-37773900I100000J0D01*
G01*
X64868300Y-37773900D01*
G75*
G02*
X64968300Y-37873900I0J-100000D01*
G01*
X64968300Y-39148900D01*
G75*
G02*
X64868300Y-39248900I-100000J0D01*
G01*
G37*
G36*
G01*
X65518300Y-39248900D02*
X65318300Y-39248900D01*
G75*
G02*
X65218300Y-39148900I0J100000D01*
G01*
X65218300Y-37873900D01*
G75*
G02*
X65318300Y-37773900I100000J0D01*
G01*
X65518300Y-37773900D01*
G75*
G02*
X65618300Y-37873900I0J-100000D01*
G01*
X65618300Y-39148900D01*
G75*
G02*
X65518300Y-39248900I-100000J0D01*
G01*
G37*
G36*
G01*
X66168300Y-39248900D02*
X65968300Y-39248900D01*
G75*
G02*
X65868300Y-39148900I0J100000D01*
G01*
X65868300Y-37873900D01*
G75*
G02*
X65968300Y-37773900I100000J0D01*
G01*
X66168300Y-37773900D01*
G75*
G02*
X66268300Y-37873900I0J-100000D01*
G01*
X66268300Y-39148900D01*
G75*
G02*
X66168300Y-39248900I-100000J0D01*
G01*
G37*
G36*
G01*
X66818300Y-39248900D02*
X66618300Y-39248900D01*
G75*
G02*
X66518300Y-39148900I0J100000D01*
G01*
X66518300Y-37873900D01*
G75*
G02*
X66618300Y-37773900I100000J0D01*
G01*
X66818300Y-37773900D01*
G75*
G02*
X66918300Y-37873900I0J-100000D01*
G01*
X66918300Y-39148900D01*
G75*
G02*
X66818300Y-39248900I-100000J0D01*
G01*
G37*
G36*
G01*
X67468300Y-39248900D02*
X67268300Y-39248900D01*
G75*
G02*
X67168300Y-39148900I0J100000D01*
G01*
X67168300Y-37873900D01*
G75*
G02*
X67268300Y-37773900I100000J0D01*
G01*
X67468300Y-37773900D01*
G75*
G02*
X67568300Y-37873900I0J-100000D01*
G01*
X67568300Y-39148900D01*
G75*
G02*
X67468300Y-39248900I-100000J0D01*
G01*
G37*
G36*
G01*
X68118300Y-39248900D02*
X67918300Y-39248900D01*
G75*
G02*
X67818300Y-39148900I0J100000D01*
G01*
X67818300Y-37873900D01*
G75*
G02*
X67918300Y-37773900I100000J0D01*
G01*
X68118300Y-37773900D01*
G75*
G02*
X68218300Y-37873900I0J-100000D01*
G01*
X68218300Y-39148900D01*
G75*
G02*
X68118300Y-39248900I-100000J0D01*
G01*
G37*
G36*
G01*
X68768300Y-39248900D02*
X68568300Y-39248900D01*
G75*
G02*
X68468300Y-39148900I0J100000D01*
G01*
X68468300Y-37873900D01*
G75*
G02*
X68568300Y-37773900I100000J0D01*
G01*
X68768300Y-37773900D01*
G75*
G02*
X68868300Y-37873900I0J-100000D01*
G01*
X68868300Y-39148900D01*
G75*
G02*
X68768300Y-39248900I-100000J0D01*
G01*
G37*
G36*
G01*
X69418300Y-39248900D02*
X69218300Y-39248900D01*
G75*
G02*
X69118300Y-39148900I0J100000D01*
G01*
X69118300Y-37873900D01*
G75*
G02*
X69218300Y-37773900I100000J0D01*
G01*
X69418300Y-37773900D01*
G75*
G02*
X69518300Y-37873900I0J-100000D01*
G01*
X69518300Y-39148900D01*
G75*
G02*
X69418300Y-39248900I-100000J0D01*
G01*
G37*
G36*
G01*
X70068300Y-39248900D02*
X69868300Y-39248900D01*
G75*
G02*
X69768300Y-39148900I0J100000D01*
G01*
X69768300Y-37873900D01*
G75*
G02*
X69868300Y-37773900I100000J0D01*
G01*
X70068300Y-37773900D01*
G75*
G02*
X70168300Y-37873900I0J-100000D01*
G01*
X70168300Y-39148900D01*
G75*
G02*
X70068300Y-39248900I-100000J0D01*
G01*
G37*
G36*
G01*
X70068300Y-33523900D02*
X69868300Y-33523900D01*
G75*
G02*
X69768300Y-33423900I0J100000D01*
G01*
X69768300Y-32148900D01*
G75*
G02*
X69868300Y-32048900I100000J0D01*
G01*
X70068300Y-32048900D01*
G75*
G02*
X70168300Y-32148900I0J-100000D01*
G01*
X70168300Y-33423900D01*
G75*
G02*
X70068300Y-33523900I-100000J0D01*
G01*
G37*
G36*
G01*
X69418300Y-33523900D02*
X69218300Y-33523900D01*
G75*
G02*
X69118300Y-33423900I0J100000D01*
G01*
X69118300Y-32148900D01*
G75*
G02*
X69218300Y-32048900I100000J0D01*
G01*
X69418300Y-32048900D01*
G75*
G02*
X69518300Y-32148900I0J-100000D01*
G01*
X69518300Y-33423900D01*
G75*
G02*
X69418300Y-33523900I-100000J0D01*
G01*
G37*
G36*
G01*
X68768300Y-33523900D02*
X68568300Y-33523900D01*
G75*
G02*
X68468300Y-33423900I0J100000D01*
G01*
X68468300Y-32148900D01*
G75*
G02*
X68568300Y-32048900I100000J0D01*
G01*
X68768300Y-32048900D01*
G75*
G02*
X68868300Y-32148900I0J-100000D01*
G01*
X68868300Y-33423900D01*
G75*
G02*
X68768300Y-33523900I-100000J0D01*
G01*
G37*
G36*
G01*
X68118300Y-33523900D02*
X67918300Y-33523900D01*
G75*
G02*
X67818300Y-33423900I0J100000D01*
G01*
X67818300Y-32148900D01*
G75*
G02*
X67918300Y-32048900I100000J0D01*
G01*
X68118300Y-32048900D01*
G75*
G02*
X68218300Y-32148900I0J-100000D01*
G01*
X68218300Y-33423900D01*
G75*
G02*
X68118300Y-33523900I-100000J0D01*
G01*
G37*
G36*
G01*
X67468300Y-33523900D02*
X67268300Y-33523900D01*
G75*
G02*
X67168300Y-33423900I0J100000D01*
G01*
X67168300Y-32148900D01*
G75*
G02*
X67268300Y-32048900I100000J0D01*
G01*
X67468300Y-32048900D01*
G75*
G02*
X67568300Y-32148900I0J-100000D01*
G01*
X67568300Y-33423900D01*
G75*
G02*
X67468300Y-33523900I-100000J0D01*
G01*
G37*
G36*
G01*
X66818300Y-33523900D02*
X66618300Y-33523900D01*
G75*
G02*
X66518300Y-33423900I0J100000D01*
G01*
X66518300Y-32148900D01*
G75*
G02*
X66618300Y-32048900I100000J0D01*
G01*
X66818300Y-32048900D01*
G75*
G02*
X66918300Y-32148900I0J-100000D01*
G01*
X66918300Y-33423900D01*
G75*
G02*
X66818300Y-33523900I-100000J0D01*
G01*
G37*
G36*
G01*
X66168300Y-33523900D02*
X65968300Y-33523900D01*
G75*
G02*
X65868300Y-33423900I0J100000D01*
G01*
X65868300Y-32148900D01*
G75*
G02*
X65968300Y-32048900I100000J0D01*
G01*
X66168300Y-32048900D01*
G75*
G02*
X66268300Y-32148900I0J-100000D01*
G01*
X66268300Y-33423900D01*
G75*
G02*
X66168300Y-33523900I-100000J0D01*
G01*
G37*
G36*
G01*
X65518300Y-33523900D02*
X65318300Y-33523900D01*
G75*
G02*
X65218300Y-33423900I0J100000D01*
G01*
X65218300Y-32148900D01*
G75*
G02*
X65318300Y-32048900I100000J0D01*
G01*
X65518300Y-32048900D01*
G75*
G02*
X65618300Y-32148900I0J-100000D01*
G01*
X65618300Y-33423900D01*
G75*
G02*
X65518300Y-33523900I-100000J0D01*
G01*
G37*
G36*
G01*
X64868300Y-33523900D02*
X64668300Y-33523900D01*
G75*
G02*
X64568300Y-33423900I0J100000D01*
G01*
X64568300Y-32148900D01*
G75*
G02*
X64668300Y-32048900I100000J0D01*
G01*
X64868300Y-32048900D01*
G75*
G02*
X64968300Y-32148900I0J-100000D01*
G01*
X64968300Y-33423900D01*
G75*
G02*
X64868300Y-33523900I-100000J0D01*
G01*
G37*
G36*
G01*
X64218300Y-33523900D02*
X64018300Y-33523900D01*
G75*
G02*
X63918300Y-33423900I0J100000D01*
G01*
X63918300Y-32148900D01*
G75*
G02*
X64018300Y-32048900I100000J0D01*
G01*
X64218300Y-32048900D01*
G75*
G02*
X64318300Y-32148900I0J-100000D01*
G01*
X64318300Y-33423900D01*
G75*
G02*
X64218300Y-33523900I-100000J0D01*
G01*
G37*
%TD*%
%TO.C,U804*%
G36*
G01*
X81621500Y-47414000D02*
X81946500Y-47414000D01*
G75*
G02*
X82109000Y-47576500I0J-162500D01*
G01*
X82109000Y-49601500D01*
G75*
G02*
X81946500Y-49764000I-162500J0D01*
G01*
X81621500Y-49764000D01*
G75*
G02*
X81459000Y-49601500I0J162500D01*
G01*
X81459000Y-47576500D01*
G75*
G02*
X81621500Y-47414000I162500J0D01*
G01*
G37*
G36*
G01*
X79081500Y-47414000D02*
X79406500Y-47414000D01*
G75*
G02*
X79569000Y-47576500I0J-162500D01*
G01*
X79569000Y-49601500D01*
G75*
G02*
X79406500Y-49764000I-162500J0D01*
G01*
X79081500Y-49764000D01*
G75*
G02*
X78919000Y-49601500I0J162500D01*
G01*
X78919000Y-47576500D01*
G75*
G02*
X79081500Y-47414000I162500J0D01*
G01*
G37*
G36*
G01*
X76541500Y-47414000D02*
X76866500Y-47414000D01*
G75*
G02*
X77029000Y-47576500I0J-162500D01*
G01*
X77029000Y-49601500D01*
G75*
G02*
X76866500Y-49764000I-162500J0D01*
G01*
X76541500Y-49764000D01*
G75*
G02*
X76379000Y-49601500I0J162500D01*
G01*
X76379000Y-47576500D01*
G75*
G02*
X76541500Y-47414000I162500J0D01*
G01*
G37*
G36*
G01*
X74001500Y-47414000D02*
X74326500Y-47414000D01*
G75*
G02*
X74489000Y-47576500I0J-162500D01*
G01*
X74489000Y-49601500D01*
G75*
G02*
X74326500Y-49764000I-162500J0D01*
G01*
X74001500Y-49764000D01*
G75*
G02*
X73839000Y-49601500I0J162500D01*
G01*
X73839000Y-47576500D01*
G75*
G02*
X74001500Y-47414000I162500J0D01*
G01*
G37*
G36*
G01*
X74001500Y-56464000D02*
X74326500Y-56464000D01*
G75*
G02*
X74489000Y-56626500I0J-162500D01*
G01*
X74489000Y-58651500D01*
G75*
G02*
X74326500Y-58814000I-162500J0D01*
G01*
X74001500Y-58814000D01*
G75*
G02*
X73839000Y-58651500I0J162500D01*
G01*
X73839000Y-56626500D01*
G75*
G02*
X74001500Y-56464000I162500J0D01*
G01*
G37*
G36*
G01*
X76541500Y-56464000D02*
X76866500Y-56464000D01*
G75*
G02*
X77029000Y-56626500I0J-162500D01*
G01*
X77029000Y-58651500D01*
G75*
G02*
X76866500Y-58814000I-162500J0D01*
G01*
X76541500Y-58814000D01*
G75*
G02*
X76379000Y-58651500I0J162500D01*
G01*
X76379000Y-56626500D01*
G75*
G02*
X76541500Y-56464000I162500J0D01*
G01*
G37*
G36*
G01*
X79081500Y-56464000D02*
X79406500Y-56464000D01*
G75*
G02*
X79569000Y-56626500I0J-162500D01*
G01*
X79569000Y-58651500D01*
G75*
G02*
X79406500Y-58814000I-162500J0D01*
G01*
X79081500Y-58814000D01*
G75*
G02*
X78919000Y-58651500I0J162500D01*
G01*
X78919000Y-56626500D01*
G75*
G02*
X79081500Y-56464000I162500J0D01*
G01*
G37*
G36*
G01*
X81621500Y-56464000D02*
X81946500Y-56464000D01*
G75*
G02*
X82109000Y-56626500I0J-162500D01*
G01*
X82109000Y-58651500D01*
G75*
G02*
X81946500Y-58814000I-162500J0D01*
G01*
X81621500Y-58814000D01*
G75*
G02*
X81459000Y-58651500I0J162500D01*
G01*
X81459000Y-56626500D01*
G75*
G02*
X81621500Y-56464000I162500J0D01*
G01*
G37*
%TD*%
D37*
%TO.C,Y801*%
X67082300Y-40771900D03*
X67082300Y-42971900D03*
X68782300Y-42971900D03*
X68782300Y-40771900D03*
%TD*%
%TO.C,C803*%
G36*
G01*
X65346800Y-39948900D02*
X65691800Y-39948900D01*
G75*
G02*
X65839300Y-40096400I0J-147500D01*
G01*
X65839300Y-40391400D01*
G75*
G02*
X65691800Y-40538900I-147500J0D01*
G01*
X65346800Y-40538900D01*
G75*
G02*
X65199300Y-40391400I0J147500D01*
G01*
X65199300Y-40096400D01*
G75*
G02*
X65346800Y-39948900I147500J0D01*
G01*
G37*
G36*
G01*
X65346800Y-40918900D02*
X65691800Y-40918900D01*
G75*
G02*
X65839300Y-41066400I0J-147500D01*
G01*
X65839300Y-41361400D01*
G75*
G02*
X65691800Y-41508900I-147500J0D01*
G01*
X65346800Y-41508900D01*
G75*
G02*
X65199300Y-41361400I0J147500D01*
G01*
X65199300Y-41066400D01*
G75*
G02*
X65346800Y-40918900I147500J0D01*
G01*
G37*
%TD*%
%TO.C,C804*%
G36*
G01*
X70644800Y-41300900D02*
X70299800Y-41300900D01*
G75*
G02*
X70152300Y-41153400I0J147500D01*
G01*
X70152300Y-40858400D01*
G75*
G02*
X70299800Y-40710900I147500J0D01*
G01*
X70644800Y-40710900D01*
G75*
G02*
X70792300Y-40858400I0J-147500D01*
G01*
X70792300Y-41153400D01*
G75*
G02*
X70644800Y-41300900I-147500J0D01*
G01*
G37*
G36*
G01*
X70644800Y-42270900D02*
X70299800Y-42270900D01*
G75*
G02*
X70152300Y-42123400I0J147500D01*
G01*
X70152300Y-41828400D01*
G75*
G02*
X70299800Y-41680900I147500J0D01*
G01*
X70644800Y-41680900D01*
G75*
G02*
X70792300Y-41828400I0J-147500D01*
G01*
X70792300Y-42123400D01*
G75*
G02*
X70644800Y-42270900I-147500J0D01*
G01*
G37*
%TD*%
M02*
