G04 #@! TF.GenerationSoftware,KiCad,Pcbnew,8.0.7*
G04 #@! TF.CreationDate,2024-12-23T12:56:31+02:00*
G04 #@! TF.ProjectId,SH-RPi-panel,53482d52-5069-42d7-9061-6e656c2e6b69,v2.0.1*
G04 #@! TF.SameCoordinates,Original*
G04 #@! TF.FileFunction,Paste,Bot*
G04 #@! TF.FilePolarity,Positive*
%FSLAX46Y46*%
G04 Gerber Fmt 4.6, Leading zero omitted, Abs format (unit mm)*
G04 Created by KiCad (PCBNEW 8.0.7) date 2024-12-23 12:56:31*
%MOMM*%
%LPD*%
G01*
G04 APERTURE LIST*
%ADD10R,1.400000X1.230000*%
%ADD11R,3.900000X4.200000*%
G04 APERTURE END LIST*
D10*
G04 #@! TO.C,J501*
X15370000Y-198485000D03*
X15370000Y-192515000D03*
X17910000Y-198485000D03*
X17910000Y-192515000D03*
X20450000Y-198485000D03*
X20450000Y-192515000D03*
X22990000Y-198485000D03*
X22990000Y-192515000D03*
X25530000Y-198485000D03*
X25530000Y-192515000D03*
X28070000Y-198485000D03*
X28070000Y-192515000D03*
X30610000Y-198485000D03*
X30610000Y-192515000D03*
X33150000Y-198485000D03*
X33150000Y-192515000D03*
X35690000Y-198485000D03*
X35690000Y-192515000D03*
X38230000Y-198485000D03*
X38230000Y-192515000D03*
X40770000Y-198485000D03*
X40770000Y-192515000D03*
X43310000Y-198485000D03*
X43310000Y-192515000D03*
X45850000Y-198485000D03*
X45850000Y-192515000D03*
X48390000Y-198485000D03*
X48390000Y-192515000D03*
X50930000Y-198485000D03*
X50930000Y-192515000D03*
X53470000Y-198485000D03*
X53470000Y-192515000D03*
X56010000Y-198485000D03*
X56010000Y-192515000D03*
X58550000Y-198485000D03*
X58550000Y-192515000D03*
X61090000Y-198485000D03*
X61090000Y-192515000D03*
X63630000Y-198485000D03*
X63630000Y-192515000D03*
G04 #@! TD*
G04 #@! TO.C,J501*
X15370000Y-136985000D03*
X15370000Y-131015000D03*
X17910000Y-136985000D03*
X17910000Y-131015000D03*
X20450000Y-136985000D03*
X20450000Y-131015000D03*
X22990000Y-136985000D03*
X22990000Y-131015000D03*
X25530000Y-136985000D03*
X25530000Y-131015000D03*
X28070000Y-136985000D03*
X28070000Y-131015000D03*
X30610000Y-136985000D03*
X30610000Y-131015000D03*
X33150000Y-136985000D03*
X33150000Y-131015000D03*
X35690000Y-136985000D03*
X35690000Y-131015000D03*
X38230000Y-136985000D03*
X38230000Y-131015000D03*
X40770000Y-136985000D03*
X40770000Y-131015000D03*
X43310000Y-136985000D03*
X43310000Y-131015000D03*
X45850000Y-136985000D03*
X45850000Y-131015000D03*
X48390000Y-136985000D03*
X48390000Y-131015000D03*
X50930000Y-136985000D03*
X50930000Y-131015000D03*
X53470000Y-136985000D03*
X53470000Y-131015000D03*
X56010000Y-136985000D03*
X56010000Y-131015000D03*
X58550000Y-136985000D03*
X58550000Y-131015000D03*
X61090000Y-136985000D03*
X61090000Y-131015000D03*
X63630000Y-136985000D03*
X63630000Y-131015000D03*
G04 #@! TD*
D11*
G04 #@! TO.C,J801*
X42450000Y-241100000D03*
X27150000Y-241100000D03*
G04 #@! TD*
G04 #@! TO.C,J801*
X42450000Y-179600000D03*
X27150000Y-179600000D03*
G04 #@! TD*
G04 #@! TO.C,J801*
X42450000Y-118100000D03*
X27150000Y-118100000D03*
G04 #@! TD*
G04 #@! TO.C,J801*
X42450000Y-56600000D03*
X27150000Y-56600000D03*
G04 #@! TD*
D10*
G04 #@! TO.C,J501*
X15370000Y-13985000D03*
X15370000Y-8015000D03*
X17910000Y-13985000D03*
X17910000Y-8015000D03*
X20450000Y-13985000D03*
X20450000Y-8015000D03*
X22990000Y-13985000D03*
X22990000Y-8015000D03*
X25530000Y-13985000D03*
X25530000Y-8015000D03*
X28070000Y-13985000D03*
X28070000Y-8015000D03*
X30610000Y-13985000D03*
X30610000Y-8015000D03*
X33150000Y-13985000D03*
X33150000Y-8015000D03*
X35690000Y-13985000D03*
X35690000Y-8015000D03*
X38230000Y-13985000D03*
X38230000Y-8015000D03*
X40770000Y-13985000D03*
X40770000Y-8015000D03*
X43310000Y-13985000D03*
X43310000Y-8015000D03*
X45850000Y-13985000D03*
X45850000Y-8015000D03*
X48390000Y-13985000D03*
X48390000Y-8015000D03*
X50930000Y-13985000D03*
X50930000Y-8015000D03*
X53470000Y-13985000D03*
X53470000Y-8015000D03*
X56010000Y-13985000D03*
X56010000Y-8015000D03*
X58550000Y-13985000D03*
X58550000Y-8015000D03*
X61090000Y-13985000D03*
X61090000Y-8015000D03*
X63630000Y-13985000D03*
X63630000Y-8015000D03*
G04 #@! TD*
G04 #@! TO.C,J501*
X15370000Y-75485000D03*
X15370000Y-69515000D03*
X17910000Y-75485000D03*
X17910000Y-69515000D03*
X20450000Y-75485000D03*
X20450000Y-69515000D03*
X22990000Y-75485000D03*
X22990000Y-69515000D03*
X25530000Y-75485000D03*
X25530000Y-69515000D03*
X28070000Y-75485000D03*
X28070000Y-69515000D03*
X30610000Y-75485000D03*
X30610000Y-69515000D03*
X33150000Y-75485000D03*
X33150000Y-69515000D03*
X35690000Y-75485000D03*
X35690000Y-69515000D03*
X38230000Y-75485000D03*
X38230000Y-69515000D03*
X40770000Y-75485000D03*
X40770000Y-69515000D03*
X43310000Y-75485000D03*
X43310000Y-69515000D03*
X45850000Y-75485000D03*
X45850000Y-69515000D03*
X48390000Y-75485000D03*
X48390000Y-69515000D03*
X50930000Y-75485000D03*
X50930000Y-69515000D03*
X53470000Y-75485000D03*
X53470000Y-69515000D03*
X56010000Y-75485000D03*
X56010000Y-69515000D03*
X58550000Y-75485000D03*
X58550000Y-69515000D03*
X61090000Y-75485000D03*
X61090000Y-69515000D03*
X63630000Y-75485000D03*
X63630000Y-69515000D03*
G04 #@! TD*
M02*
