G04 #@! TF.GenerationSoftware,KiCad,Pcbnew,(6.0.10-0)*
G04 #@! TF.CreationDate,2023-02-15T19:17:08+02:00*
G04 #@! TF.ProjectId,SH-RPi-panel,53482d52-5069-42d7-9061-6e656c2e6b69,v2.0.0*
G04 #@! TF.SameCoordinates,Original*
G04 #@! TF.FileFunction,Paste,Top*
G04 #@! TF.FilePolarity,Positive*
%FSLAX46Y46*%
G04 Gerber Fmt 4.6, Leading zero omitted, Abs format (unit mm)*
G04 Created by KiCad (PCBNEW (6.0.10-0)) date 2023-02-15 19:17:08*
%MOMM*%
%LPD*%
G01*
G04 APERTURE LIST*
G04 Aperture macros list*
%AMRoundRect*
0 Rectangle with rounded corners*
0 $1 Rounding radius*
0 $2 $3 $4 $5 $6 $7 $8 $9 X,Y pos of 4 corners*
0 Add a 4 corners polygon primitive as box body*
4,1,4,$2,$3,$4,$5,$6,$7,$8,$9,$2,$3,0*
0 Add four circle primitives for the rounded corners*
1,1,$1+$1,$2,$3*
1,1,$1+$1,$4,$5*
1,1,$1+$1,$6,$7*
1,1,$1+$1,$8,$9*
0 Add four rect primitives between the rounded corners*
20,1,$1+$1,$2,$3,$4,$5,0*
20,1,$1+$1,$4,$5,$6,$7,0*
20,1,$1+$1,$6,$7,$8,$9,0*
20,1,$1+$1,$8,$9,$2,$3,0*%
%AMFreePoly0*
4,1,14,0.334644,0.085355,0.385355,0.034644,0.400000,-0.000711,0.400000,-0.050000,0.385355,-0.085355,0.350000,-0.100000,-0.350000,-0.100000,-0.385355,-0.085355,-0.400000,-0.050000,-0.400000,0.050000,-0.385355,0.085355,-0.350000,0.100000,0.299289,0.100000,0.334644,0.085355,0.334644,0.085355,$1*%
%AMFreePoly1*
4,1,14,0.385355,0.085355,0.400000,0.050000,0.400000,0.000711,0.385355,-0.034644,0.334644,-0.085355,0.299289,-0.100000,-0.350000,-0.100000,-0.385355,-0.085355,-0.400000,-0.050000,-0.400000,0.050000,-0.385355,0.085355,-0.350000,0.100000,0.350000,0.100000,0.385355,0.085355,0.385355,0.085355,$1*%
%AMFreePoly2*
4,1,14,0.085355,0.385355,0.100000,0.350000,0.100000,-0.350000,0.085355,-0.385355,0.050000,-0.400000,-0.050000,-0.400000,-0.085355,-0.385355,-0.100000,-0.350000,-0.100000,0.299289,-0.085355,0.334644,-0.034644,0.385355,0.000711,0.400000,0.050000,0.400000,0.085355,0.385355,0.085355,0.385355,$1*%
%AMFreePoly3*
4,1,14,0.034644,0.385355,0.085355,0.334644,0.100000,0.299289,0.100000,-0.350000,0.085355,-0.385355,0.050000,-0.400000,-0.050000,-0.400000,-0.085355,-0.385355,-0.100000,-0.350000,-0.100000,0.350000,-0.085355,0.385355,-0.050000,0.400000,-0.000711,0.400000,0.034644,0.385355,0.034644,0.385355,$1*%
%AMFreePoly4*
4,1,14,0.385355,0.085355,0.400000,0.050000,0.400000,-0.050000,0.385355,-0.085355,0.350000,-0.100000,-0.299289,-0.100000,-0.334644,-0.085355,-0.385355,-0.034644,-0.400000,0.000711,-0.400000,0.050000,-0.385355,0.085355,-0.350000,0.100000,0.350000,0.100000,0.385355,0.085355,0.385355,0.085355,$1*%
%AMFreePoly5*
4,1,14,0.385355,0.085355,0.400000,0.050000,0.400000,-0.050000,0.385355,-0.085355,0.350000,-0.100000,-0.350000,-0.100000,-0.385355,-0.085355,-0.400000,-0.050000,-0.400000,-0.000711,-0.385355,0.034644,-0.334644,0.085355,-0.299289,0.100000,0.350000,0.100000,0.385355,0.085355,0.385355,0.085355,$1*%
%AMFreePoly6*
4,1,14,0.085355,0.385355,0.100000,0.350000,0.100000,-0.299289,0.085355,-0.334644,0.034644,-0.385355,-0.000711,-0.400000,-0.050000,-0.400000,-0.085355,-0.385355,-0.100000,-0.350000,-0.100000,0.350000,-0.085355,0.385355,-0.050000,0.400000,0.050000,0.400000,0.085355,0.385355,0.085355,0.385355,$1*%
%AMFreePoly7*
4,1,14,0.085355,0.385355,0.100000,0.350000,0.100000,-0.350000,0.085355,-0.385355,0.050000,-0.400000,0.000711,-0.400000,-0.034644,-0.385355,-0.085355,-0.334644,-0.100000,-0.299289,-0.100000,0.350000,-0.085355,0.385355,-0.050000,0.400000,0.050000,0.400000,0.085355,0.385355,0.085355,0.385355,$1*%
G04 Aperture macros list end*
%ADD10RoundRect,0.147500X0.147500X0.172500X-0.147500X0.172500X-0.147500X-0.172500X0.147500X-0.172500X0*%
%ADD11R,2.500000X1.800000*%
%ADD12RoundRect,0.135000X0.135000X0.185000X-0.135000X0.185000X-0.135000X-0.185000X0.135000X-0.185000X0*%
%ADD13RoundRect,0.150000X-0.825000X-0.150000X0.825000X-0.150000X0.825000X0.150000X-0.825000X0.150000X0*%
%ADD14RoundRect,0.140000X-0.140000X-0.170000X0.140000X-0.170000X0.140000X0.170000X-0.140000X0.170000X0*%
%ADD15R,0.600000X0.450000*%
%ADD16RoundRect,0.250000X0.375000X0.625000X-0.375000X0.625000X-0.375000X-0.625000X0.375000X-0.625000X0*%
%ADD17RoundRect,0.135000X-0.135000X-0.185000X0.135000X-0.185000X0.135000X0.185000X-0.135000X0.185000X0*%
%ADD18RoundRect,0.147500X-0.147500X-0.172500X0.147500X-0.172500X0.147500X0.172500X-0.147500X0.172500X0*%
%ADD19RoundRect,0.218750X0.256250X-0.218750X0.256250X0.218750X-0.256250X0.218750X-0.256250X-0.218750X0*%
%ADD20RoundRect,0.225000X0.225000X0.250000X-0.225000X0.250000X-0.225000X-0.250000X0.225000X-0.250000X0*%
%ADD21RoundRect,0.147500X0.172500X-0.147500X0.172500X0.147500X-0.172500X0.147500X-0.172500X-0.147500X0*%
%ADD22RoundRect,0.140000X0.140000X0.170000X-0.140000X0.170000X-0.140000X-0.170000X0.140000X-0.170000X0*%
%ADD23RoundRect,0.135000X0.185000X-0.135000X0.185000X0.135000X-0.185000X0.135000X-0.185000X-0.135000X0*%
%ADD24RoundRect,0.225000X0.250000X-0.225000X0.250000X0.225000X-0.250000X0.225000X-0.250000X-0.225000X0*%
%ADD25RoundRect,0.150000X0.587500X0.150000X-0.587500X0.150000X-0.587500X-0.150000X0.587500X-0.150000X0*%
%ADD26RoundRect,0.225000X-0.250000X0.225000X-0.250000X-0.225000X0.250000X-0.225000X0.250000X0.225000X0*%
%ADD27RoundRect,0.250000X-0.650000X0.325000X-0.650000X-0.325000X0.650000X-0.325000X0.650000X0.325000X0*%
%ADD28R,0.600000X0.700000*%
%ADD29RoundRect,0.250000X-0.325000X-0.650000X0.325000X-0.650000X0.325000X0.650000X-0.325000X0.650000X0*%
%ADD30RoundRect,0.250000X-1.100000X0.325000X-1.100000X-0.325000X1.100000X-0.325000X1.100000X0.325000X0*%
%ADD31RoundRect,0.135000X-0.185000X0.135000X-0.185000X-0.135000X0.185000X-0.135000X0.185000X0.135000X0*%
%ADD32RoundRect,0.200000X-0.200000X-0.275000X0.200000X-0.275000X0.200000X0.275000X-0.200000X0.275000X0*%
%ADD33RoundRect,0.147500X-0.172500X0.147500X-0.172500X-0.147500X0.172500X-0.147500X0.172500X0.147500X0*%
%ADD34RoundRect,0.250000X1.100000X-0.325000X1.100000X0.325000X-1.100000X0.325000X-1.100000X-0.325000X0*%
%ADD35RoundRect,0.150000X-0.587500X-0.150000X0.587500X-0.150000X0.587500X0.150000X-0.587500X0.150000X0*%
%ADD36RoundRect,0.150000X0.512500X0.150000X-0.512500X0.150000X-0.512500X-0.150000X0.512500X-0.150000X0*%
%ADD37R,1.500000X2.500000*%
%ADD38RoundRect,0.140000X-0.170000X0.140000X-0.170000X-0.140000X0.170000X-0.140000X0.170000X0.140000X0*%
%ADD39RoundRect,0.249999X0.650001X-0.325001X0.650001X0.325001X-0.650001X0.325001X-0.650001X-0.325001X0*%
%ADD40RoundRect,0.249550X0.650450X-0.325450X0.650450X0.325450X-0.650450X0.325450X-0.650450X-0.325450X0*%
%ADD41R,3.360000X4.860000*%
%ADD42R,1.390000X1.400000*%
%ADD43R,0.450000X0.600000*%
%ADD44RoundRect,0.218750X-0.218750X-0.381250X0.218750X-0.381250X0.218750X0.381250X-0.218750X0.381250X0*%
%ADD45RoundRect,0.250000X0.325000X0.650000X-0.325000X0.650000X-0.325000X-0.650000X0.325000X-0.650000X0*%
%ADD46RoundRect,0.172500X-0.172500X-0.172500X0.172500X-0.172500X0.172500X0.172500X-0.172500X0.172500X0*%
%ADD47FreePoly0,0.000000*%
%ADD48RoundRect,0.050000X-0.350000X-0.050000X0.350000X-0.050000X0.350000X0.050000X-0.350000X0.050000X0*%
%ADD49FreePoly1,0.000000*%
%ADD50FreePoly2,0.000000*%
%ADD51RoundRect,0.050000X-0.050000X-0.350000X0.050000X-0.350000X0.050000X0.350000X-0.050000X0.350000X0*%
%ADD52FreePoly3,0.000000*%
%ADD53FreePoly4,0.000000*%
%ADD54FreePoly5,0.000000*%
%ADD55FreePoly6,0.000000*%
%ADD56FreePoly7,0.000000*%
%ADD57R,3.300000X2.500000*%
%ADD58RoundRect,0.150000X-0.512500X-0.150000X0.512500X-0.150000X0.512500X0.150000X-0.512500X0.150000X0*%
%ADD59R,1.900000X2.500000*%
%ADD60RoundRect,0.140000X0.170000X-0.140000X0.170000X0.140000X-0.170000X0.140000X-0.170000X-0.140000X0*%
%ADD61RoundRect,0.250000X-0.255000X-0.440000X0.255000X-0.440000X0.255000X0.440000X-0.255000X0.440000X0*%
%ADD62R,0.700000X0.600000*%
%ADD63RoundRect,0.250000X-0.375000X-0.625000X0.375000X-0.625000X0.375000X0.625000X-0.375000X0.625000X0*%
%ADD64RoundRect,0.218750X-0.381250X0.218750X-0.381250X-0.218750X0.381250X-0.218750X0.381250X0.218750X0*%
%ADD65R,1.600000X2.400000*%
%ADD66R,1.100000X0.600000*%
G04 APERTURE END LIST*
D10*
G04 #@! TO.C,R402*
X53985000Y-94900000D03*
X53015000Y-94900000D03*
G04 #@! TD*
D11*
G04 #@! TO.C,D303*
X68750000Y-103150000D03*
X64750000Y-103150000D03*
G04 #@! TD*
D12*
G04 #@! TO.C,R502*
X11710000Y-84900000D03*
X10690000Y-84900000D03*
G04 #@! TD*
D13*
G04 #@! TO.C,U801*
X109425000Y-78095000D03*
X109425000Y-79365000D03*
X109425000Y-80635000D03*
X109425000Y-81905000D03*
X114375000Y-81905000D03*
X114375000Y-80635000D03*
X114375000Y-79365000D03*
X114375000Y-78095000D03*
G04 #@! TD*
D14*
G04 #@! TO.C,C306*
X53120000Y-45500000D03*
X54080000Y-45500000D03*
G04 #@! TD*
D15*
G04 #@! TO.C,D1002*
X100050000Y-92350000D03*
X97950000Y-92350000D03*
G04 #@! TD*
D12*
G04 #@! TO.C,R315*
X124010000Y-28200000D03*
X122990000Y-28200000D03*
G04 #@! TD*
D16*
G04 #@! TO.C,R301*
X124800000Y-49100000D03*
X122000000Y-49100000D03*
G04 #@! TD*
D17*
G04 #@! TO.C,R1007*
X27590000Y-27250000D03*
X28610000Y-27250000D03*
G04 #@! TD*
D18*
G04 #@! TO.C,D501*
X22215000Y-109800000D03*
X23185000Y-109800000D03*
G04 #@! TD*
D19*
G04 #@! TO.C,D508*
X9000000Y-38787500D03*
X9000000Y-37212500D03*
G04 #@! TD*
D20*
G04 #@! TO.C,C203*
X62450000Y-22200000D03*
X60900000Y-22200000D03*
G04 #@! TD*
D12*
G04 #@! TO.C,R504*
X81710000Y-86900000D03*
X80690000Y-86900000D03*
G04 #@! TD*
D21*
G04 #@! TO.C,C803*
X116200000Y-17185000D03*
X116200000Y-16215000D03*
G04 #@! TD*
D20*
G04 #@! TO.C,C308*
X132425000Y-40600000D03*
X130875000Y-40600000D03*
G04 #@! TD*
D12*
G04 #@! TO.C,R503*
X11700000Y-24400000D03*
X10680000Y-24400000D03*
G04 #@! TD*
G04 #@! TO.C,R1013*
X113332952Y-40330365D03*
X112312952Y-40330365D03*
G04 #@! TD*
D22*
G04 #@! TO.C,C1003*
X30530000Y-104150000D03*
X29570000Y-104150000D03*
G04 #@! TD*
D23*
G04 #@! TO.C,R408*
X89500000Y-33810000D03*
X89500000Y-32790000D03*
G04 #@! TD*
D24*
G04 #@! TO.C,C201*
X130900000Y-88375000D03*
X130900000Y-86825000D03*
G04 #@! TD*
D12*
G04 #@! TO.C,R315*
X54010000Y-89700000D03*
X52990000Y-89700000D03*
G04 #@! TD*
D19*
G04 #@! TO.C,D507*
X9000000Y-94787500D03*
X9000000Y-93212500D03*
G04 #@! TD*
D15*
G04 #@! TO.C,D1003*
X28000000Y-105750000D03*
X30100000Y-105750000D03*
G04 #@! TD*
G04 #@! TO.C,D502*
X86250000Y-17100000D03*
X88350000Y-17100000D03*
G04 #@! TD*
G04 #@! TO.C,D504*
X92150000Y-78600000D03*
X90050000Y-78600000D03*
G04 #@! TD*
D10*
G04 #@! TO.C,R402*
X123985000Y-94900000D03*
X123015000Y-94900000D03*
G04 #@! TD*
D12*
G04 #@! TO.C,R502*
X81710000Y-23400000D03*
X80690000Y-23400000D03*
G04 #@! TD*
G04 #@! TO.C,R1013*
X43332952Y-101830365D03*
X42312952Y-101830365D03*
G04 #@! TD*
D15*
G04 #@! TO.C,D301*
X112350000Y-30600000D03*
X110250000Y-30600000D03*
G04 #@! TD*
D25*
G04 #@! TO.C,Q302*
X42837500Y-90250000D03*
X42837500Y-88350000D03*
X40962500Y-89300000D03*
G04 #@! TD*
G04 #@! TO.C,Q1003*
X30025000Y-34750000D03*
X30025000Y-32850000D03*
X28150000Y-33800000D03*
G04 #@! TD*
D24*
G04 #@! TO.C,C401*
X85600000Y-49775000D03*
X85600000Y-48225000D03*
G04 #@! TD*
D23*
G04 #@! TO.C,R311*
X56300000Y-37410000D03*
X56300000Y-36390000D03*
G04 #@! TD*
D26*
G04 #@! TO.C,R701*
X111600000Y-116225000D03*
X111600000Y-117775000D03*
G04 #@! TD*
D12*
G04 #@! TO.C,R1013*
X43332952Y-40330365D03*
X42312952Y-40330365D03*
G04 #@! TD*
D24*
G04 #@! TO.C,C303*
X61550000Y-45775000D03*
X61550000Y-44225000D03*
G04 #@! TD*
D12*
G04 #@! TO.C,R1001*
X113332952Y-102830365D03*
X112312952Y-102830365D03*
G04 #@! TD*
D17*
G04 #@! TO.C,R303*
X42390000Y-87000000D03*
X43410000Y-87000000D03*
G04 #@! TD*
G04 #@! TO.C,R307*
X62990000Y-49500000D03*
X64010000Y-49500000D03*
G04 #@! TD*
D27*
G04 #@! TO.C,C705*
X41100000Y-50125000D03*
X41100000Y-53075000D03*
G04 #@! TD*
D28*
G04 #@! TO.C,D305*
X138300000Y-117000000D03*
X139700000Y-117000000D03*
G04 #@! TD*
D29*
G04 #@! TO.C,C301*
X126925000Y-110600000D03*
X129875000Y-110600000D03*
G04 #@! TD*
D30*
G04 #@! TO.C,C310*
X62000000Y-36025000D03*
X62000000Y-38975000D03*
G04 #@! TD*
D22*
G04 #@! TO.C,C1002*
X100480000Y-90750000D03*
X99520000Y-90750000D03*
G04 #@! TD*
D31*
G04 #@! TO.C,R206*
X67150000Y-92540000D03*
X67150000Y-93560000D03*
G04 #@! TD*
D17*
G04 #@! TO.C,R314*
X136190000Y-55500000D03*
X137210000Y-55500000D03*
G04 #@! TD*
D11*
G04 #@! TO.C,D202*
X138750000Y-84750000D03*
X134750000Y-84750000D03*
G04 #@! TD*
D32*
G04 #@! TO.C,R309*
X60825000Y-42150000D03*
X62475000Y-42150000D03*
G04 #@! TD*
D24*
G04 #@! TO.C,C401*
X15600000Y-111275000D03*
X15600000Y-109725000D03*
G04 #@! TD*
D23*
G04 #@! TO.C,R306*
X61700000Y-111510000D03*
X61700000Y-110490000D03*
G04 #@! TD*
D12*
G04 #@! TO.C,R1017*
X100560000Y-40650000D03*
X99540000Y-40650000D03*
G04 #@! TD*
D31*
G04 #@! TO.C,R206*
X137150000Y-92540000D03*
X137150000Y-93560000D03*
G04 #@! TD*
D27*
G04 #@! TO.C,C705*
X111100000Y-111625000D03*
X111100000Y-114575000D03*
G04 #@! TD*
D33*
G04 #@! TO.C,C403*
X40900000Y-45830000D03*
X40900000Y-46800000D03*
G04 #@! TD*
D34*
G04 #@! TO.C,C205*
X62300000Y-20575000D03*
X62300000Y-17625000D03*
G04 #@! TD*
D25*
G04 #@! TO.C,Q302*
X42837500Y-28750000D03*
X42837500Y-26850000D03*
X40962500Y-27800000D03*
G04 #@! TD*
D35*
G04 #@! TO.C,Q301*
X110962500Y-83750000D03*
X110962500Y-85650000D03*
X112837500Y-84700000D03*
G04 #@! TD*
D22*
G04 #@! TO.C,C902*
X123980000Y-25500000D03*
X123020000Y-25500000D03*
G04 #@! TD*
D12*
G04 #@! TO.C,R1001*
X43332952Y-102830365D03*
X42312952Y-102830365D03*
G04 #@! TD*
D36*
G04 #@! TO.C,U302*
X125737500Y-105650000D03*
X125737500Y-104700000D03*
X125737500Y-103750000D03*
X123462500Y-103750000D03*
X123462500Y-105650000D03*
G04 #@! TD*
D26*
G04 #@! TO.C,R701*
X41600000Y-116225000D03*
X41600000Y-117775000D03*
G04 #@! TD*
D13*
G04 #@! TO.C,U801*
X109425000Y-16595000D03*
X109425000Y-17865000D03*
X109425000Y-19135000D03*
X109425000Y-20405000D03*
X114375000Y-20405000D03*
X114375000Y-19135000D03*
X114375000Y-17865000D03*
X114375000Y-16595000D03*
G04 #@! TD*
D17*
G04 #@! TO.C,R307*
X132990000Y-111000000D03*
X134010000Y-111000000D03*
G04 #@! TD*
D26*
G04 #@! TO.C,C402*
X79300000Y-54425000D03*
X79300000Y-55975000D03*
G04 #@! TD*
D37*
G04 #@! TO.C,L702*
X105575000Y-51500000D03*
X108625000Y-51500000D03*
G04 #@! TD*
D14*
G04 #@! TO.C,C304*
X68320000Y-50500000D03*
X69280000Y-50500000D03*
G04 #@! TD*
D27*
G04 #@! TO.C,C702*
X42200000Y-120325000D03*
X42200000Y-123275000D03*
G04 #@! TD*
D37*
G04 #@! TO.C,L702*
X35575000Y-51500000D03*
X38625000Y-51500000D03*
G04 #@! TD*
D15*
G04 #@! TO.C,D802*
X51850000Y-16400000D03*
X53950000Y-16400000D03*
G04 #@! TD*
D38*
G04 #@! TO.C,C311*
X70300000Y-112920000D03*
X70300000Y-113880000D03*
G04 #@! TD*
D12*
G04 #@! TO.C,R1011*
X28660000Y-103150000D03*
X27640000Y-103150000D03*
G04 #@! TD*
G04 #@! TO.C,R1002*
X30510000Y-28250000D03*
X29490000Y-28250000D03*
G04 #@! TD*
D32*
G04 #@! TO.C,R202*
X130850000Y-23770000D03*
X132500000Y-23770000D03*
G04 #@! TD*
D35*
G04 #@! TO.C,Q303*
X123562500Y-100250000D03*
X123562500Y-102150000D03*
X125437500Y-101200000D03*
G04 #@! TD*
D12*
G04 #@! TO.C,R1015*
X100510000Y-27250000D03*
X99490000Y-27250000D03*
G04 #@! TD*
D18*
G04 #@! TO.C,D503*
X17515000Y-77100000D03*
X18485000Y-77100000D03*
G04 #@! TD*
D15*
G04 #@! TO.C,D1002*
X30050000Y-30850000D03*
X27950000Y-30850000D03*
G04 #@! TD*
D12*
G04 #@! TO.C,R1003*
X100560000Y-41650000D03*
X99540000Y-41650000D03*
G04 #@! TD*
D16*
G04 #@! TO.C,R301*
X54800000Y-110600000D03*
X52000000Y-110600000D03*
G04 #@! TD*
D26*
G04 #@! TO.C,C701*
X114200000Y-60325000D03*
X114200000Y-61875000D03*
G04 #@! TD*
G04 #@! TO.C,C701*
X44200000Y-60325000D03*
X44200000Y-61875000D03*
G04 #@! TD*
G04 #@! TO.C,R701*
X111600000Y-54725000D03*
X111600000Y-56275000D03*
G04 #@! TD*
D39*
G04 #@! TO.C,C704*
X103100000Y-114975000D03*
D40*
X103100000Y-112025000D03*
G04 #@! TD*
D15*
G04 #@! TO.C,D802*
X121850000Y-77900000D03*
X123950000Y-77900000D03*
G04 #@! TD*
D17*
G04 #@! TO.C,R310*
X138290000Y-49500000D03*
X139310000Y-49500000D03*
G04 #@! TD*
D11*
G04 #@! TO.C,D303*
X138750000Y-41650000D03*
X134750000Y-41650000D03*
G04 #@! TD*
D17*
G04 #@! TO.C,R1006*
X40412952Y-103830365D03*
X41432952Y-103830365D03*
G04 #@! TD*
D18*
G04 #@! TO.C,R312*
X66215000Y-49500000D03*
X67185000Y-49500000D03*
G04 #@! TD*
D12*
G04 #@! TO.C,R1005*
X111432952Y-41330365D03*
X110412952Y-41330365D03*
G04 #@! TD*
D41*
G04 #@! TO.C,D702*
X45700000Y-56700000D03*
D42*
X46620000Y-52718000D03*
X44780000Y-52718000D03*
G04 #@! TD*
D19*
G04 #@! TO.C,D507*
X79000000Y-33287500D03*
X79000000Y-31712500D03*
G04 #@! TD*
D15*
G04 #@! TO.C,D1001*
X42872952Y-105430365D03*
X40772952Y-105430365D03*
G04 #@! TD*
D18*
G04 #@! TO.C,R313*
X66215000Y-50500000D03*
X67185000Y-50500000D03*
G04 #@! TD*
D15*
G04 #@! TO.C,D801*
X118550000Y-77900000D03*
X120650000Y-77900000D03*
G04 #@! TD*
D31*
G04 #@! TO.C,R304*
X61700000Y-108490000D03*
X61700000Y-109510000D03*
G04 #@! TD*
D10*
G04 #@! TO.C,R403*
X123985000Y-32300000D03*
X123015000Y-32300000D03*
G04 #@! TD*
D12*
G04 #@! TO.C,R1013*
X113332952Y-101830365D03*
X112312952Y-101830365D03*
G04 #@! TD*
D17*
G04 #@! TO.C,R203*
X68190000Y-31100000D03*
X69210000Y-31100000D03*
G04 #@! TD*
D43*
G04 #@! TO.C,D901*
X127500000Y-23350000D03*
X127500000Y-25450000D03*
G04 #@! TD*
D12*
G04 #@! TO.C,R315*
X54010000Y-28200000D03*
X52990000Y-28200000D03*
G04 #@! TD*
D44*
G04 #@! TO.C,FB401*
X11937500Y-110100000D03*
X14062500Y-110100000D03*
G04 #@! TD*
D12*
G04 #@! TO.C,R503*
X81700000Y-85900000D03*
X80680000Y-85900000D03*
G04 #@! TD*
G04 #@! TO.C,R1015*
X30510000Y-27250000D03*
X29490000Y-27250000D03*
G04 #@! TD*
D14*
G04 #@! TO.C,C801*
X121820000Y-79400000D03*
X122780000Y-79400000D03*
G04 #@! TD*
G04 #@! TO.C,C306*
X53120000Y-107000000D03*
X54080000Y-107000000D03*
G04 #@! TD*
G04 #@! TO.C,C801*
X51820000Y-17900000D03*
X52780000Y-17900000D03*
G04 #@! TD*
D37*
G04 #@! TO.C,L702*
X35575000Y-113000000D03*
X38625000Y-113000000D03*
G04 #@! TD*
D31*
G04 #@! TO.C,R405*
X80700000Y-109490000D03*
X80700000Y-110510000D03*
G04 #@! TD*
G04 #@! TO.C,R409*
X87085396Y-92080000D03*
X87085396Y-93100000D03*
G04 #@! TD*
D37*
G04 #@! TO.C,L201*
X68225000Y-80560000D03*
X65175000Y-80560000D03*
G04 #@! TD*
D19*
G04 #@! TO.C,D508*
X79000000Y-100287500D03*
X79000000Y-98712500D03*
G04 #@! TD*
D32*
G04 #@! TO.C,R202*
X60850000Y-23770000D03*
X62500000Y-23770000D03*
G04 #@! TD*
D25*
G04 #@! TO.C,Q1002*
X29937500Y-21400000D03*
X29937500Y-19500000D03*
X28062500Y-20450000D03*
G04 #@! TD*
D17*
G04 #@! TO.C,R203*
X138190000Y-92600000D03*
X139210000Y-92600000D03*
G04 #@! TD*
G04 #@! TO.C,R203*
X68190000Y-92600000D03*
X69210000Y-92600000D03*
G04 #@! TD*
D30*
G04 #@! TO.C,C309*
X128700000Y-97525000D03*
X128700000Y-100475000D03*
G04 #@! TD*
D18*
G04 #@! TO.C,D401*
X83315000Y-111500000D03*
X84285000Y-111500000D03*
G04 #@! TD*
G04 #@! TO.C,R407*
X84515000Y-21900000D03*
X85485000Y-21900000D03*
G04 #@! TD*
D45*
G04 #@! TO.C,C302*
X59875000Y-107900000D03*
X56925000Y-107900000D03*
G04 #@! TD*
D18*
G04 #@! TO.C,D503*
X87515000Y-77100000D03*
X88485000Y-77100000D03*
G04 #@! TD*
D23*
G04 #@! TO.C,R302*
X113500000Y-92610000D03*
X113500000Y-91590000D03*
G04 #@! TD*
D12*
G04 #@! TO.C,R305*
X111510000Y-87000000D03*
X110490000Y-87000000D03*
G04 #@! TD*
D26*
G04 #@! TO.C,C701*
X44200000Y-121825000D03*
X44200000Y-123375000D03*
G04 #@! TD*
D46*
G04 #@! TO.C,U401*
X15975000Y-89275000D03*
X15975000Y-88425000D03*
X16825000Y-89275000D03*
X16825000Y-88425000D03*
D47*
X14950000Y-88050000D03*
D48*
X14950000Y-88450000D03*
X14950000Y-88850000D03*
X14950000Y-89250000D03*
D49*
X14950000Y-89650000D03*
D50*
X15600000Y-90300000D03*
D51*
X16000000Y-90300000D03*
X16400000Y-90300000D03*
X16800000Y-90300000D03*
D52*
X17200000Y-90300000D03*
D53*
X17850000Y-89650000D03*
D48*
X17850000Y-89250000D03*
X17850000Y-88850000D03*
X17850000Y-88450000D03*
D54*
X17850000Y-88050000D03*
D55*
X17200000Y-87400000D03*
D51*
X16800000Y-87400000D03*
X16400000Y-87400000D03*
X16000000Y-87400000D03*
D56*
X15600000Y-87400000D03*
G04 #@! TD*
D57*
G04 #@! TO.C,D701*
X51500000Y-54300000D03*
X51500000Y-61100000D03*
G04 #@! TD*
D26*
G04 #@! TO.C,C402*
X79300000Y-115925000D03*
X79300000Y-117475000D03*
G04 #@! TD*
D22*
G04 #@! TO.C,C202*
X69180000Y-93600000D03*
X68220000Y-93600000D03*
G04 #@! TD*
D17*
G04 #@! TO.C,R201*
X62490000Y-31150000D03*
X63510000Y-31150000D03*
G04 #@! TD*
D34*
G04 #@! TO.C,C205*
X132300000Y-82075000D03*
X132300000Y-79125000D03*
G04 #@! TD*
D14*
G04 #@! TO.C,C1001*
X42342952Y-42330365D03*
X43302952Y-42330365D03*
G04 #@! TD*
D23*
G04 #@! TO.C,R302*
X43500000Y-31110000D03*
X43500000Y-30090000D03*
G04 #@! TD*
D36*
G04 #@! TO.C,U1002*
X30137500Y-24900000D03*
X30137500Y-23950000D03*
X30137500Y-23000000D03*
X27862500Y-23000000D03*
X27862500Y-24900000D03*
G04 #@! TD*
D17*
G04 #@! TO.C,R1014*
X42312952Y-39330365D03*
X43332952Y-39330365D03*
G04 #@! TD*
D32*
G04 #@! TO.C,R202*
X130850000Y-85270000D03*
X132500000Y-85270000D03*
G04 #@! TD*
D58*
G04 #@! TO.C,U303*
X66562500Y-113550000D03*
X66562500Y-114500000D03*
X66562500Y-115450000D03*
X68837500Y-115450000D03*
X68837500Y-113550000D03*
G04 #@! TD*
D18*
G04 #@! TO.C,R313*
X66215000Y-112000000D03*
X67185000Y-112000000D03*
G04 #@! TD*
G04 #@! TO.C,D503*
X17515000Y-15600000D03*
X18485000Y-15600000D03*
G04 #@! TD*
D39*
G04 #@! TO.C,C704*
X33100000Y-114975000D03*
D40*
X33100000Y-112025000D03*
G04 #@! TD*
D12*
G04 #@! TO.C,R1003*
X100560000Y-103150000D03*
X99540000Y-103150000D03*
G04 #@! TD*
D23*
G04 #@! TO.C,R408*
X19500000Y-33810000D03*
X19500000Y-32790000D03*
G04 #@! TD*
D12*
G04 #@! TO.C,R503*
X81700000Y-24400000D03*
X80680000Y-24400000D03*
G04 #@! TD*
D34*
G04 #@! TO.C,C204*
X129000000Y-82075000D03*
X129000000Y-79125000D03*
G04 #@! TD*
D25*
G04 #@! TO.C,Q1003*
X100025000Y-34750000D03*
X100025000Y-32850000D03*
X98150000Y-33800000D03*
G04 #@! TD*
D17*
G04 #@! TO.C,R201*
X62490000Y-92650000D03*
X63510000Y-92650000D03*
G04 #@! TD*
D14*
G04 #@! TO.C,C901*
X126920000Y-22200000D03*
X127880000Y-22200000D03*
G04 #@! TD*
D19*
G04 #@! TO.C,D507*
X79000000Y-94787500D03*
X79000000Y-93212500D03*
G04 #@! TD*
D17*
G04 #@! TO.C,R310*
X138290000Y-111000000D03*
X139310000Y-111000000D03*
G04 #@! TD*
D33*
G04 #@! TO.C,R404*
X41900000Y-45830000D03*
X41900000Y-46800000D03*
G04 #@! TD*
D36*
G04 #@! TO.C,U1002*
X100137500Y-24900000D03*
X100137500Y-23950000D03*
X100137500Y-23000000D03*
X97862500Y-23000000D03*
X97862500Y-24900000D03*
G04 #@! TD*
D15*
G04 #@! TO.C,D502*
X16250000Y-17100000D03*
X18350000Y-17100000D03*
G04 #@! TD*
G04 #@! TO.C,D802*
X121850000Y-16400000D03*
X123950000Y-16400000D03*
G04 #@! TD*
D33*
G04 #@! TO.C,R404*
X111900000Y-107330000D03*
X111900000Y-108300000D03*
G04 #@! TD*
D12*
G04 #@! TO.C,R1018*
X30560000Y-101150000D03*
X29540000Y-101150000D03*
G04 #@! TD*
D14*
G04 #@! TO.C,C1001*
X112342952Y-103830365D03*
X113302952Y-103830365D03*
G04 #@! TD*
D23*
G04 #@! TO.C,R306*
X131700000Y-111510000D03*
X131700000Y-110490000D03*
G04 #@! TD*
D33*
G04 #@! TO.C,C403*
X40900000Y-107330000D03*
X40900000Y-108300000D03*
G04 #@! TD*
D18*
G04 #@! TO.C,C406*
X12615000Y-88700000D03*
X13585000Y-88700000D03*
G04 #@! TD*
D59*
G04 #@! TO.C,L301*
X69050000Y-98400000D03*
X64950000Y-98400000D03*
G04 #@! TD*
D31*
G04 #@! TO.C,R409*
X17085396Y-30580000D03*
X17085396Y-31600000D03*
G04 #@! TD*
D36*
G04 #@! TO.C,U1003*
X100225000Y-38250000D03*
X100225000Y-37300000D03*
X100225000Y-36350000D03*
X97950000Y-36350000D03*
X97950000Y-38250000D03*
G04 #@! TD*
D29*
G04 #@! TO.C,C301*
X56925000Y-49100000D03*
X59875000Y-49100000D03*
G04 #@! TD*
D35*
G04 #@! TO.C,U901*
X53552500Y-83770000D03*
X53552500Y-85670000D03*
X55427500Y-84720000D03*
G04 #@! TD*
D27*
G04 #@! TO.C,C703*
X33100000Y-116825000D03*
X33100000Y-119775000D03*
G04 #@! TD*
D60*
G04 #@! TO.C,C305*
X127300000Y-104680000D03*
X127300000Y-103720000D03*
G04 #@! TD*
D12*
G04 #@! TO.C,R308*
X124110000Y-108100000D03*
X123090000Y-108100000D03*
G04 #@! TD*
D61*
G04 #@! TO.C,U201*
X66050000Y-28650000D03*
X64850000Y-28650000D03*
X66050000Y-27000000D03*
X64850000Y-27000000D03*
D13*
X62975000Y-25920000D03*
X62975000Y-27190000D03*
X62975000Y-28460000D03*
X62975000Y-29730000D03*
X67925000Y-29730000D03*
X67925000Y-28460000D03*
X67925000Y-27190000D03*
X67925000Y-25920000D03*
G04 #@! TD*
D12*
G04 #@! TO.C,R502*
X11710000Y-23400000D03*
X10690000Y-23400000D03*
G04 #@! TD*
G04 #@! TO.C,R502*
X81710000Y-84900000D03*
X80690000Y-84900000D03*
G04 #@! TD*
D17*
G04 #@! TO.C,R303*
X42390000Y-25500000D03*
X43410000Y-25500000D03*
G04 #@! TD*
D22*
G04 #@! TO.C,C202*
X139180000Y-93600000D03*
X138220000Y-93600000D03*
G04 #@! TD*
D17*
G04 #@! TO.C,R1007*
X97590000Y-27250000D03*
X98610000Y-27250000D03*
G04 #@! TD*
D12*
G04 #@! TO.C,R1018*
X100560000Y-39650000D03*
X99540000Y-39650000D03*
G04 #@! TD*
D13*
G04 #@! TO.C,U801*
X39425000Y-78095000D03*
X39425000Y-79365000D03*
X39425000Y-80635000D03*
X39425000Y-81905000D03*
X44375000Y-81905000D03*
X44375000Y-80635000D03*
X44375000Y-79365000D03*
X44375000Y-78095000D03*
G04 #@! TD*
D31*
G04 #@! TO.C,R205*
X66100000Y-92540000D03*
X66100000Y-93560000D03*
G04 #@! TD*
G04 #@! TO.C,R410*
X88085396Y-92080000D03*
X88085396Y-93100000D03*
G04 #@! TD*
D61*
G04 #@! TO.C,U201*
X64850000Y-88500000D03*
X64850000Y-90150000D03*
X66050000Y-88500000D03*
X66050000Y-90150000D03*
D13*
X62975000Y-87420000D03*
X62975000Y-88690000D03*
X62975000Y-89960000D03*
X62975000Y-91230000D03*
X67925000Y-91230000D03*
X67925000Y-89960000D03*
X67925000Y-88690000D03*
X67925000Y-87420000D03*
G04 #@! TD*
D24*
G04 #@! TO.C,C802*
X35500000Y-17675000D03*
X35500000Y-16125000D03*
G04 #@! TD*
D28*
G04 #@! TO.C,D305*
X68300000Y-117000000D03*
X69700000Y-117000000D03*
G04 #@! TD*
D14*
G04 #@! TO.C,C304*
X68320000Y-112000000D03*
X69280000Y-112000000D03*
G04 #@! TD*
D28*
G04 #@! TO.C,D305*
X68300000Y-55500000D03*
X69700000Y-55500000D03*
G04 #@! TD*
D15*
G04 #@! TO.C,D1001*
X112872952Y-43930365D03*
X110772952Y-43930365D03*
G04 #@! TD*
D17*
G04 #@! TO.C,R203*
X138190000Y-31100000D03*
X139210000Y-31100000D03*
G04 #@! TD*
D27*
G04 #@! TO.C,C702*
X42200000Y-58825000D03*
X42200000Y-61775000D03*
G04 #@! TD*
D12*
G04 #@! TO.C,R1017*
X30560000Y-102150000D03*
X29540000Y-102150000D03*
G04 #@! TD*
D26*
G04 #@! TO.C,C701*
X114200000Y-121825000D03*
X114200000Y-123375000D03*
G04 #@! TD*
D17*
G04 #@! TO.C,R1010*
X27640000Y-40650000D03*
X28660000Y-40650000D03*
G04 #@! TD*
D19*
G04 #@! TO.C,D509*
X9000000Y-105787500D03*
X9000000Y-104212500D03*
G04 #@! TD*
D23*
G04 #@! TO.C,R311*
X126300000Y-37410000D03*
X126300000Y-36390000D03*
G04 #@! TD*
D11*
G04 #@! TO.C,D202*
X68750000Y-84750000D03*
X64750000Y-84750000D03*
G04 #@! TD*
D17*
G04 #@! TO.C,R314*
X66190000Y-55500000D03*
X67210000Y-55500000D03*
G04 #@! TD*
D19*
G04 #@! TO.C,D506*
X79000000Y-27787500D03*
X79000000Y-26212500D03*
G04 #@! TD*
D18*
G04 #@! TO.C,R407*
X14515000Y-21900000D03*
X15485000Y-21900000D03*
G04 #@! TD*
D25*
G04 #@! TO.C,Q1002*
X99937500Y-21400000D03*
X99937500Y-19500000D03*
X98062500Y-20450000D03*
G04 #@! TD*
D62*
G04 #@! TO.C,D302*
X59350000Y-103300000D03*
X59350000Y-101900000D03*
G04 #@! TD*
D17*
G04 #@! TO.C,R1010*
X97640000Y-102150000D03*
X98660000Y-102150000D03*
G04 #@! TD*
D18*
G04 #@! TO.C,D402*
X8615000Y-114700000D03*
X9585000Y-114700000D03*
G04 #@! TD*
D12*
G04 #@! TO.C,R315*
X124010000Y-89700000D03*
X122990000Y-89700000D03*
G04 #@! TD*
D35*
G04 #@! TO.C,Q303*
X53562500Y-38750000D03*
X53562500Y-40650000D03*
X55437500Y-39700000D03*
G04 #@! TD*
D18*
G04 #@! TO.C,D402*
X78615000Y-53200000D03*
X79585000Y-53200000D03*
G04 #@! TD*
D38*
G04 #@! TO.C,C312*
X135200000Y-49620000D03*
X135200000Y-50580000D03*
G04 #@! TD*
D17*
G04 #@! TO.C,R303*
X112390000Y-25500000D03*
X113410000Y-25500000D03*
G04 #@! TD*
D10*
G04 #@! TO.C,R403*
X53985000Y-93800000D03*
X53015000Y-93800000D03*
G04 #@! TD*
D27*
G04 #@! TO.C,C703*
X33100000Y-55325000D03*
X33100000Y-58275000D03*
G04 #@! TD*
D39*
G04 #@! TO.C,C704*
X33100000Y-53475000D03*
D40*
X33100000Y-50525000D03*
G04 #@! TD*
D18*
G04 #@! TO.C,R313*
X136215000Y-112000000D03*
X137185000Y-112000000D03*
G04 #@! TD*
D31*
G04 #@! TO.C,R410*
X18085396Y-30580000D03*
X18085396Y-31600000D03*
G04 #@! TD*
D34*
G04 #@! TO.C,C204*
X59000000Y-20575000D03*
X59000000Y-17625000D03*
G04 #@! TD*
D35*
G04 #@! TO.C,Q301*
X40962500Y-22250000D03*
X40962500Y-24150000D03*
X42837500Y-23200000D03*
G04 #@! TD*
D32*
G04 #@! TO.C,R309*
X60825000Y-103650000D03*
X62475000Y-103650000D03*
G04 #@! TD*
D35*
G04 #@! TO.C,Q301*
X40962500Y-83750000D03*
X40962500Y-85650000D03*
X42837500Y-84700000D03*
G04 #@! TD*
D12*
G04 #@! TO.C,R504*
X11710000Y-25400000D03*
X10690000Y-25400000D03*
G04 #@! TD*
D15*
G04 #@! TO.C,D801*
X48550000Y-16400000D03*
X50650000Y-16400000D03*
G04 #@! TD*
D43*
G04 #@! TO.C,D901*
X57500000Y-84850000D03*
X57500000Y-86950000D03*
G04 #@! TD*
D31*
G04 #@! TO.C,R206*
X67150000Y-31040000D03*
X67150000Y-32060000D03*
G04 #@! TD*
D12*
G04 #@! TO.C,R1005*
X41432952Y-102830365D03*
X40412952Y-102830365D03*
G04 #@! TD*
D14*
G04 #@! TO.C,C304*
X138320000Y-50500000D03*
X139280000Y-50500000D03*
G04 #@! TD*
D19*
G04 #@! TO.C,D509*
X79000000Y-44287500D03*
X79000000Y-42712500D03*
G04 #@! TD*
D36*
G04 #@! TO.C,U1001*
X113060452Y-37980365D03*
X113060452Y-37030365D03*
X113060452Y-36080365D03*
X110785452Y-36080365D03*
X110785452Y-37980365D03*
G04 #@! TD*
D27*
G04 #@! TO.C,C705*
X111100000Y-50125000D03*
X111100000Y-53075000D03*
G04 #@! TD*
D26*
G04 #@! TO.C,C402*
X9300000Y-54425000D03*
X9300000Y-55975000D03*
G04 #@! TD*
D17*
G04 #@! TO.C,R307*
X62990000Y-111000000D03*
X64010000Y-111000000D03*
G04 #@! TD*
D19*
G04 #@! TO.C,D507*
X9000000Y-33287500D03*
X9000000Y-31712500D03*
G04 #@! TD*
D20*
G04 #@! TO.C,C203*
X132450000Y-22200000D03*
X130900000Y-22200000D03*
G04 #@! TD*
D21*
G04 #@! TO.C,C803*
X116200000Y-78685000D03*
X116200000Y-77715000D03*
G04 #@! TD*
D24*
G04 #@! TO.C,C401*
X85600000Y-111275000D03*
X85600000Y-109725000D03*
G04 #@! TD*
D10*
G04 #@! TO.C,R403*
X123985000Y-93800000D03*
X123015000Y-93800000D03*
G04 #@! TD*
D14*
G04 #@! TO.C,C405*
X8720000Y-110100000D03*
X9680000Y-110100000D03*
G04 #@! TD*
D22*
G04 #@! TO.C,C1003*
X100530000Y-104150000D03*
X99570000Y-104150000D03*
G04 #@! TD*
G04 #@! TO.C,C902*
X53980000Y-25500000D03*
X53020000Y-25500000D03*
G04 #@! TD*
D19*
G04 #@! TO.C,D506*
X79000000Y-89287500D03*
X79000000Y-87712500D03*
G04 #@! TD*
D15*
G04 #@! TO.C,D304*
X55150000Y-98400000D03*
X53050000Y-98400000D03*
G04 #@! TD*
D35*
G04 #@! TO.C,U901*
X123552500Y-22270000D03*
X123552500Y-24170000D03*
X125427500Y-23220000D03*
G04 #@! TD*
D27*
G04 #@! TO.C,C702*
X112200000Y-120325000D03*
X112200000Y-123275000D03*
G04 #@! TD*
D12*
G04 #@! TO.C,R1011*
X28660000Y-41650000D03*
X27640000Y-41650000D03*
G04 #@! TD*
G04 #@! TO.C,R1016*
X100510000Y-26250000D03*
X99490000Y-26250000D03*
G04 #@! TD*
D61*
G04 #@! TO.C,U301*
X136650000Y-47050000D03*
X136650000Y-45400000D03*
X135450000Y-47050000D03*
X135450000Y-45400000D03*
D13*
X133575000Y-44320000D03*
X133575000Y-45590000D03*
X133575000Y-46860000D03*
X133575000Y-48130000D03*
X138525000Y-48130000D03*
X138525000Y-46860000D03*
X138525000Y-45590000D03*
X138525000Y-44320000D03*
G04 #@! TD*
D17*
G04 #@! TO.C,R1012*
X27660375Y-104150000D03*
X28680375Y-104150000D03*
G04 #@! TD*
D30*
G04 #@! TO.C,C309*
X58700000Y-36025000D03*
X58700000Y-38975000D03*
G04 #@! TD*
D12*
G04 #@! TO.C,R316*
X54010000Y-29300000D03*
X52990000Y-29300000D03*
G04 #@! TD*
D15*
G04 #@! TO.C,D801*
X48550000Y-77900000D03*
X50650000Y-77900000D03*
G04 #@! TD*
D38*
G04 #@! TO.C,C307*
X134000000Y-51020000D03*
X134000000Y-51980000D03*
G04 #@! TD*
D27*
G04 #@! TO.C,C703*
X103100000Y-55325000D03*
X103100000Y-58275000D03*
G04 #@! TD*
D10*
G04 #@! TO.C,D505*
X90885000Y-77100000D03*
X89915000Y-77100000D03*
G04 #@! TD*
D14*
G04 #@! TO.C,C901*
X56920000Y-83700000D03*
X57880000Y-83700000D03*
G04 #@! TD*
D35*
G04 #@! TO.C,Q303*
X53562500Y-100250000D03*
X53562500Y-102150000D03*
X55437500Y-101200000D03*
G04 #@! TD*
D30*
G04 #@! TO.C,C310*
X62000000Y-97525000D03*
X62000000Y-100475000D03*
G04 #@! TD*
D63*
G04 #@! TO.C,F701*
X51400000Y-113000000D03*
X54200000Y-113000000D03*
G04 #@! TD*
D15*
G04 #@! TO.C,D502*
X86250000Y-78600000D03*
X88350000Y-78600000D03*
G04 #@! TD*
D25*
G04 #@! TO.C,Q1002*
X29937500Y-82900000D03*
X29937500Y-81000000D03*
X28062500Y-81950000D03*
G04 #@! TD*
G04 #@! TO.C,Q302*
X112837500Y-28750000D03*
X112837500Y-26850000D03*
X110962500Y-27800000D03*
G04 #@! TD*
D57*
G04 #@! TO.C,D701*
X51500000Y-115800000D03*
X51500000Y-122600000D03*
G04 #@! TD*
D17*
G04 #@! TO.C,R1014*
X112312952Y-100830365D03*
X113332952Y-100830365D03*
G04 #@! TD*
D12*
G04 #@! TO.C,R1001*
X113332952Y-41330365D03*
X112312952Y-41330365D03*
G04 #@! TD*
G04 #@! TO.C,R1016*
X30510000Y-87750000D03*
X29490000Y-87750000D03*
G04 #@! TD*
D63*
G04 #@! TO.C,F701*
X51400000Y-51500000D03*
X54200000Y-51500000D03*
G04 #@! TD*
D14*
G04 #@! TO.C,C404*
X10620000Y-111500000D03*
X11580000Y-111500000D03*
G04 #@! TD*
D12*
G04 #@! TO.C,R1017*
X100560000Y-102150000D03*
X99540000Y-102150000D03*
G04 #@! TD*
D64*
G04 #@! TO.C,FB402*
X9200000Y-49837500D03*
X9200000Y-51962500D03*
G04 #@! TD*
D12*
G04 #@! TO.C,R1018*
X30560000Y-39650000D03*
X29540000Y-39650000D03*
G04 #@! TD*
D15*
G04 #@! TO.C,D1001*
X42872952Y-43930365D03*
X40772952Y-43930365D03*
G04 #@! TD*
D12*
G04 #@! TO.C,R1008*
X28610000Y-28250000D03*
X27590000Y-28250000D03*
G04 #@! TD*
D15*
G04 #@! TO.C,D504*
X22150000Y-78600000D03*
X20050000Y-78600000D03*
G04 #@! TD*
D61*
G04 #@! TO.C,U301*
X135450000Y-106900000D03*
X135450000Y-108550000D03*
X136650000Y-108550000D03*
X136650000Y-106900000D03*
D13*
X133575000Y-105820000D03*
X133575000Y-107090000D03*
X133575000Y-108360000D03*
X133575000Y-109630000D03*
X138525000Y-109630000D03*
X138525000Y-108360000D03*
X138525000Y-107090000D03*
X138525000Y-105820000D03*
G04 #@! TD*
D59*
G04 #@! TO.C,L301*
X139050000Y-98400000D03*
X134950000Y-98400000D03*
G04 #@! TD*
D18*
G04 #@! TO.C,R312*
X66215000Y-111000000D03*
X67185000Y-111000000D03*
G04 #@! TD*
D17*
G04 #@! TO.C,R1014*
X42312952Y-100830365D03*
X43332952Y-100830365D03*
G04 #@! TD*
G04 #@! TO.C,R1004*
X110412952Y-101830365D03*
X111432952Y-101830365D03*
G04 #@! TD*
D31*
G04 #@! TO.C,R410*
X18085396Y-92080000D03*
X18085396Y-93100000D03*
G04 #@! TD*
D18*
G04 #@! TO.C,R313*
X136215000Y-50500000D03*
X137185000Y-50500000D03*
G04 #@! TD*
D36*
G04 #@! TO.C,U1003*
X30225000Y-99750000D03*
X30225000Y-98800000D03*
X30225000Y-97850000D03*
X27950000Y-97850000D03*
X27950000Y-99750000D03*
G04 #@! TD*
D19*
G04 #@! TO.C,D506*
X9000000Y-89287500D03*
X9000000Y-87712500D03*
G04 #@! TD*
D12*
G04 #@! TO.C,R1016*
X100510000Y-87750000D03*
X99490000Y-87750000D03*
G04 #@! TD*
D65*
G04 #@! TO.C,L701*
X36100000Y-61200000D03*
X39100000Y-61200000D03*
X39100000Y-55400000D03*
X36100000Y-55400000D03*
G04 #@! TD*
D43*
G04 #@! TO.C,D901*
X127500000Y-84850000D03*
X127500000Y-86950000D03*
G04 #@! TD*
D30*
G04 #@! TO.C,C309*
X128700000Y-36025000D03*
X128700000Y-38975000D03*
G04 #@! TD*
D34*
G04 #@! TO.C,C204*
X59000000Y-82075000D03*
X59000000Y-79125000D03*
G04 #@! TD*
D66*
G04 #@! TO.C,Y801*
X37250000Y-79100000D03*
X37250000Y-77700000D03*
G04 #@! TD*
D17*
G04 #@! TO.C,R307*
X132990000Y-49500000D03*
X134010000Y-49500000D03*
G04 #@! TD*
D14*
G04 #@! TO.C,C405*
X8720000Y-48600000D03*
X9680000Y-48600000D03*
G04 #@! TD*
D17*
G04 #@! TO.C,R1012*
X97660375Y-42650000D03*
X98680375Y-42650000D03*
G04 #@! TD*
D21*
G04 #@! TO.C,C803*
X46200000Y-78685000D03*
X46200000Y-77715000D03*
G04 #@! TD*
D36*
G04 #@! TO.C,U302*
X125737500Y-44150000D03*
X125737500Y-43200000D03*
X125737500Y-42250000D03*
X123462500Y-42250000D03*
X123462500Y-44150000D03*
G04 #@! TD*
D17*
G04 #@! TO.C,R1007*
X27590000Y-88750000D03*
X28610000Y-88750000D03*
G04 #@! TD*
D18*
G04 #@! TO.C,R407*
X84515000Y-83400000D03*
X85485000Y-83400000D03*
G04 #@! TD*
D45*
G04 #@! TO.C,C302*
X129875000Y-107900000D03*
X126925000Y-107900000D03*
G04 #@! TD*
D15*
G04 #@! TO.C,D504*
X92150000Y-17100000D03*
X90050000Y-17100000D03*
G04 #@! TD*
D33*
G04 #@! TO.C,R404*
X41900000Y-107330000D03*
X41900000Y-108300000D03*
G04 #@! TD*
D27*
G04 #@! TO.C,C703*
X103100000Y-116825000D03*
X103100000Y-119775000D03*
G04 #@! TD*
D17*
G04 #@! TO.C,R1010*
X97640000Y-40650000D03*
X98660000Y-40650000D03*
G04 #@! TD*
D14*
G04 #@! TO.C,C404*
X80620000Y-111500000D03*
X81580000Y-111500000D03*
G04 #@! TD*
D20*
G04 #@! TO.C,C203*
X132450000Y-83700000D03*
X130900000Y-83700000D03*
G04 #@! TD*
D27*
G04 #@! TO.C,C702*
X112200000Y-58825000D03*
X112200000Y-61775000D03*
G04 #@! TD*
D10*
G04 #@! TO.C,R403*
X53985000Y-32300000D03*
X53015000Y-32300000D03*
G04 #@! TD*
D22*
G04 #@! TO.C,C1003*
X100530000Y-42650000D03*
X99570000Y-42650000D03*
G04 #@! TD*
D17*
G04 #@! TO.C,R314*
X136190000Y-117000000D03*
X137210000Y-117000000D03*
G04 #@! TD*
D24*
G04 #@! TO.C,C303*
X131550000Y-45775000D03*
X131550000Y-44225000D03*
G04 #@! TD*
D12*
G04 #@! TO.C,R1008*
X28610000Y-89750000D03*
X27590000Y-89750000D03*
G04 #@! TD*
D44*
G04 #@! TO.C,FB401*
X11937500Y-48600000D03*
X14062500Y-48600000D03*
G04 #@! TD*
D23*
G04 #@! TO.C,R204*
X65060000Y-93550000D03*
X65060000Y-92530000D03*
G04 #@! TD*
D35*
G04 #@! TO.C,U901*
X53552500Y-22270000D03*
X53552500Y-24170000D03*
X55427500Y-23220000D03*
G04 #@! TD*
D30*
G04 #@! TO.C,C310*
X132000000Y-36025000D03*
X132000000Y-38975000D03*
G04 #@! TD*
D62*
G04 #@! TO.C,D201*
X59400000Y-84900000D03*
X59400000Y-83500000D03*
G04 #@! TD*
D38*
G04 #@! TO.C,C311*
X140300000Y-51420000D03*
X140300000Y-52380000D03*
G04 #@! TD*
D60*
G04 #@! TO.C,C305*
X57300000Y-104680000D03*
X57300000Y-103720000D03*
G04 #@! TD*
D24*
G04 #@! TO.C,C303*
X131550000Y-107275000D03*
X131550000Y-105725000D03*
G04 #@! TD*
D15*
G04 #@! TO.C,D802*
X51850000Y-77900000D03*
X53950000Y-77900000D03*
G04 #@! TD*
D18*
G04 #@! TO.C,R407*
X14515000Y-83400000D03*
X15485000Y-83400000D03*
G04 #@! TD*
D12*
G04 #@! TO.C,R406*
X9710000Y-109100000D03*
X8690000Y-109100000D03*
G04 #@! TD*
D13*
G04 #@! TO.C,U801*
X39425000Y-16595000D03*
X39425000Y-17865000D03*
X39425000Y-19135000D03*
X39425000Y-20405000D03*
X44375000Y-20405000D03*
X44375000Y-19135000D03*
X44375000Y-17865000D03*
X44375000Y-16595000D03*
G04 #@! TD*
D20*
G04 #@! TO.C,C308*
X62425000Y-40600000D03*
X60875000Y-40600000D03*
G04 #@! TD*
D25*
G04 #@! TO.C,Q1001*
X42860452Y-34480365D03*
X42860452Y-32580365D03*
X40985452Y-33530365D03*
G04 #@! TD*
D66*
G04 #@! TO.C,Y801*
X107250000Y-17600000D03*
X107250000Y-16200000D03*
G04 #@! TD*
D31*
G04 #@! TO.C,R304*
X131700000Y-108490000D03*
X131700000Y-109510000D03*
G04 #@! TD*
D23*
G04 #@! TO.C,R306*
X131700000Y-50010000D03*
X131700000Y-48990000D03*
G04 #@! TD*
G04 #@! TO.C,R306*
X61700000Y-50010000D03*
X61700000Y-48990000D03*
G04 #@! TD*
D12*
G04 #@! TO.C,R504*
X11710000Y-86900000D03*
X10690000Y-86900000D03*
G04 #@! TD*
G04 #@! TO.C,R308*
X54110000Y-108100000D03*
X53090000Y-108100000D03*
G04 #@! TD*
D34*
G04 #@! TO.C,C205*
X62300000Y-82075000D03*
X62300000Y-79125000D03*
G04 #@! TD*
D12*
G04 #@! TO.C,R501*
X81710000Y-22400000D03*
X80690000Y-22400000D03*
G04 #@! TD*
D14*
G04 #@! TO.C,C404*
X80620000Y-50000000D03*
X81580000Y-50000000D03*
G04 #@! TD*
D11*
G04 #@! TO.C,D202*
X138750000Y-23250000D03*
X134750000Y-23250000D03*
G04 #@! TD*
D20*
G04 #@! TO.C,C308*
X132425000Y-102100000D03*
X130875000Y-102100000D03*
G04 #@! TD*
D17*
G04 #@! TO.C,R201*
X132490000Y-92650000D03*
X133510000Y-92650000D03*
G04 #@! TD*
D14*
G04 #@! TO.C,C801*
X51820000Y-79400000D03*
X52780000Y-79400000D03*
G04 #@! TD*
D34*
G04 #@! TO.C,C204*
X129000000Y-20575000D03*
X129000000Y-17625000D03*
G04 #@! TD*
D31*
G04 #@! TO.C,R405*
X80700000Y-47990000D03*
X80700000Y-49010000D03*
G04 #@! TD*
D18*
G04 #@! TO.C,D401*
X83315000Y-50000000D03*
X84285000Y-50000000D03*
G04 #@! TD*
D12*
G04 #@! TO.C,R406*
X9710000Y-47600000D03*
X8690000Y-47600000D03*
G04 #@! TD*
D38*
G04 #@! TO.C,C312*
X135200000Y-111120000D03*
X135200000Y-112080000D03*
G04 #@! TD*
D61*
G04 #@! TO.C,U201*
X134850000Y-27000000D03*
X136050000Y-27000000D03*
X136050000Y-28650000D03*
X134850000Y-28650000D03*
D13*
X132975000Y-25920000D03*
X132975000Y-27190000D03*
X132975000Y-28460000D03*
X132975000Y-29730000D03*
X137925000Y-29730000D03*
X137925000Y-28460000D03*
X137925000Y-27190000D03*
X137925000Y-25920000D03*
G04 #@! TD*
D36*
G04 #@! TO.C,U1001*
X43060452Y-37980365D03*
X43060452Y-37030365D03*
X43060452Y-36080365D03*
X40785452Y-36080365D03*
X40785452Y-37980365D03*
G04 #@! TD*
D12*
G04 #@! TO.C,R305*
X41510000Y-87000000D03*
X40490000Y-87000000D03*
G04 #@! TD*
D24*
G04 #@! TO.C,C401*
X15600000Y-49775000D03*
X15600000Y-48225000D03*
G04 #@! TD*
D33*
G04 #@! TO.C,R404*
X111900000Y-45830000D03*
X111900000Y-46800000D03*
G04 #@! TD*
D11*
G04 #@! TO.C,D303*
X68750000Y-41650000D03*
X64750000Y-41650000D03*
G04 #@! TD*
D14*
G04 #@! TO.C,C306*
X123120000Y-107000000D03*
X124080000Y-107000000D03*
G04 #@! TD*
D12*
G04 #@! TO.C,R305*
X111510000Y-25500000D03*
X110490000Y-25500000D03*
G04 #@! TD*
D18*
G04 #@! TO.C,R312*
X136215000Y-49500000D03*
X137185000Y-49500000D03*
G04 #@! TD*
D57*
G04 #@! TO.C,D701*
X121500000Y-115800000D03*
X121500000Y-122600000D03*
G04 #@! TD*
D17*
G04 #@! TO.C,R1006*
X110412952Y-42330365D03*
X111432952Y-42330365D03*
G04 #@! TD*
D12*
G04 #@! TO.C,R504*
X81710000Y-25400000D03*
X80690000Y-25400000D03*
G04 #@! TD*
G04 #@! TO.C,R1003*
X30560000Y-103150000D03*
X29540000Y-103150000D03*
G04 #@! TD*
D19*
G04 #@! TO.C,D508*
X9000000Y-100287500D03*
X9000000Y-98712500D03*
G04 #@! TD*
D38*
G04 #@! TO.C,C312*
X65200000Y-49620000D03*
X65200000Y-50580000D03*
G04 #@! TD*
D23*
G04 #@! TO.C,R401*
X42900000Y-46825000D03*
X42900000Y-45805000D03*
G04 #@! TD*
D36*
G04 #@! TO.C,U1001*
X43060452Y-99480365D03*
X43060452Y-98530365D03*
X43060452Y-97580365D03*
X40785452Y-97580365D03*
X40785452Y-99480365D03*
G04 #@! TD*
D22*
G04 #@! TO.C,C1002*
X30480000Y-29250000D03*
X29520000Y-29250000D03*
G04 #@! TD*
D21*
G04 #@! TO.C,C803*
X46200000Y-17185000D03*
X46200000Y-16215000D03*
G04 #@! TD*
D58*
G04 #@! TO.C,U303*
X136562500Y-52050000D03*
X136562500Y-53000000D03*
X136562500Y-53950000D03*
X138837500Y-53950000D03*
X138837500Y-52050000D03*
G04 #@! TD*
D36*
G04 #@! TO.C,U1002*
X100137500Y-86400000D03*
X100137500Y-85450000D03*
X100137500Y-84500000D03*
X97862500Y-84500000D03*
X97862500Y-86400000D03*
G04 #@! TD*
D12*
G04 #@! TO.C,R316*
X54010000Y-90800000D03*
X52990000Y-90800000D03*
G04 #@! TD*
D15*
G04 #@! TO.C,D1003*
X98000000Y-105750000D03*
X100100000Y-105750000D03*
G04 #@! TD*
G04 #@! TO.C,D1002*
X100050000Y-30850000D03*
X97950000Y-30850000D03*
G04 #@! TD*
D17*
G04 #@! TO.C,R310*
X68290000Y-111000000D03*
X69310000Y-111000000D03*
G04 #@! TD*
D15*
G04 #@! TO.C,D504*
X22150000Y-17100000D03*
X20050000Y-17100000D03*
G04 #@! TD*
D25*
G04 #@! TO.C,Q1003*
X30025000Y-96250000D03*
X30025000Y-94350000D03*
X28150000Y-95300000D03*
G04 #@! TD*
D24*
G04 #@! TO.C,C802*
X35500000Y-79175000D03*
X35500000Y-77625000D03*
G04 #@! TD*
D14*
G04 #@! TO.C,C901*
X126920000Y-83700000D03*
X127880000Y-83700000D03*
G04 #@! TD*
D62*
G04 #@! TO.C,D302*
X129350000Y-41800000D03*
X129350000Y-40400000D03*
G04 #@! TD*
D17*
G04 #@! TO.C,R1007*
X97590000Y-88750000D03*
X98610000Y-88750000D03*
G04 #@! TD*
G04 #@! TO.C,R310*
X68290000Y-49500000D03*
X69310000Y-49500000D03*
G04 #@! TD*
D60*
G04 #@! TO.C,C305*
X127300000Y-43180000D03*
X127300000Y-42220000D03*
G04 #@! TD*
D12*
G04 #@! TO.C,R1001*
X43332952Y-41330365D03*
X42312952Y-41330365D03*
G04 #@! TD*
D31*
G04 #@! TO.C,R205*
X136100000Y-92540000D03*
X136100000Y-93560000D03*
G04 #@! TD*
D23*
G04 #@! TO.C,R302*
X113500000Y-31110000D03*
X113500000Y-30090000D03*
G04 #@! TD*
D18*
G04 #@! TO.C,D503*
X87515000Y-15600000D03*
X88485000Y-15600000D03*
G04 #@! TD*
D44*
G04 #@! TO.C,FB401*
X81937500Y-110100000D03*
X84062500Y-110100000D03*
G04 #@! TD*
D15*
G04 #@! TO.C,D304*
X125150000Y-98400000D03*
X123050000Y-98400000D03*
G04 #@! TD*
D17*
G04 #@! TO.C,R303*
X112390000Y-87000000D03*
X113410000Y-87000000D03*
G04 #@! TD*
D45*
G04 #@! TO.C,C302*
X129875000Y-46400000D03*
X126925000Y-46400000D03*
G04 #@! TD*
D12*
G04 #@! TO.C,R406*
X79710000Y-47600000D03*
X78690000Y-47600000D03*
G04 #@! TD*
D33*
G04 #@! TO.C,C403*
X110900000Y-45830000D03*
X110900000Y-46800000D03*
G04 #@! TD*
D26*
G04 #@! TO.C,R701*
X41600000Y-54725000D03*
X41600000Y-56275000D03*
G04 #@! TD*
D22*
G04 #@! TO.C,C202*
X139180000Y-32100000D03*
X138220000Y-32100000D03*
G04 #@! TD*
D61*
G04 #@! TO.C,U301*
X65450000Y-47050000D03*
X66650000Y-47050000D03*
X66650000Y-45400000D03*
X65450000Y-45400000D03*
D13*
X63575000Y-44320000D03*
X63575000Y-45590000D03*
X63575000Y-46860000D03*
X63575000Y-48130000D03*
X68525000Y-48130000D03*
X68525000Y-46860000D03*
X68525000Y-45590000D03*
X68525000Y-44320000D03*
G04 #@! TD*
D38*
G04 #@! TO.C,C311*
X140300000Y-112920000D03*
X140300000Y-113880000D03*
G04 #@! TD*
D15*
G04 #@! TO.C,D304*
X55150000Y-36900000D03*
X53050000Y-36900000D03*
G04 #@! TD*
D12*
G04 #@! TO.C,R308*
X124110000Y-46600000D03*
X123090000Y-46600000D03*
G04 #@! TD*
G04 #@! TO.C,R1008*
X98610000Y-89750000D03*
X97590000Y-89750000D03*
G04 #@! TD*
D36*
G04 #@! TO.C,U1003*
X30225000Y-38250000D03*
X30225000Y-37300000D03*
X30225000Y-36350000D03*
X27950000Y-36350000D03*
X27950000Y-38250000D03*
G04 #@! TD*
D37*
G04 #@! TO.C,L201*
X68225000Y-19060000D03*
X65175000Y-19060000D03*
G04 #@! TD*
D10*
G04 #@! TO.C,D505*
X20885000Y-77100000D03*
X19915000Y-77100000D03*
G04 #@! TD*
D18*
G04 #@! TO.C,C406*
X82615000Y-27200000D03*
X83585000Y-27200000D03*
G04 #@! TD*
D24*
G04 #@! TO.C,C802*
X105500000Y-17675000D03*
X105500000Y-16125000D03*
G04 #@! TD*
D29*
G04 #@! TO.C,C301*
X56925000Y-110600000D03*
X59875000Y-110600000D03*
G04 #@! TD*
D58*
G04 #@! TO.C,U303*
X136562500Y-113550000D03*
X136562500Y-114500000D03*
X136562500Y-115450000D03*
X138837500Y-115450000D03*
X138837500Y-113550000D03*
G04 #@! TD*
D12*
G04 #@! TO.C,R1002*
X100510000Y-28250000D03*
X99490000Y-28250000D03*
G04 #@! TD*
D14*
G04 #@! TO.C,C801*
X121820000Y-17900000D03*
X122780000Y-17900000D03*
G04 #@! TD*
D23*
G04 #@! TO.C,R311*
X126300000Y-98910000D03*
X126300000Y-97890000D03*
G04 #@! TD*
G04 #@! TO.C,R401*
X42900000Y-108325000D03*
X42900000Y-107305000D03*
G04 #@! TD*
D16*
G04 #@! TO.C,R301*
X54800000Y-49100000D03*
X52000000Y-49100000D03*
G04 #@! TD*
D18*
G04 #@! TO.C,D501*
X92215000Y-48300000D03*
X93185000Y-48300000D03*
G04 #@! TD*
G04 #@! TO.C,D401*
X13315000Y-50000000D03*
X14285000Y-50000000D03*
G04 #@! TD*
D35*
G04 #@! TO.C,U901*
X123552500Y-83770000D03*
X123552500Y-85670000D03*
X125427500Y-84720000D03*
G04 #@! TD*
D18*
G04 #@! TO.C,C406*
X82615000Y-88700000D03*
X83585000Y-88700000D03*
G04 #@! TD*
D11*
G04 #@! TO.C,D202*
X68750000Y-23250000D03*
X64750000Y-23250000D03*
G04 #@! TD*
D65*
G04 #@! TO.C,L701*
X106100000Y-61200000D03*
X109100000Y-61200000D03*
X109100000Y-55400000D03*
X106100000Y-55400000D03*
G04 #@! TD*
D17*
G04 #@! TO.C,R1009*
X27590000Y-90750000D03*
X28610000Y-90750000D03*
G04 #@! TD*
D24*
G04 #@! TO.C,C201*
X130900000Y-26875000D03*
X130900000Y-25325000D03*
G04 #@! TD*
D11*
G04 #@! TO.C,D303*
X138750000Y-103150000D03*
X134750000Y-103150000D03*
G04 #@! TD*
D18*
G04 #@! TO.C,D402*
X78615000Y-114700000D03*
X79585000Y-114700000D03*
G04 #@! TD*
D22*
G04 #@! TO.C,C902*
X123980000Y-87000000D03*
X123020000Y-87000000D03*
G04 #@! TD*
D17*
G04 #@! TO.C,R1009*
X97590000Y-90750000D03*
X98610000Y-90750000D03*
G04 #@! TD*
D66*
G04 #@! TO.C,Y801*
X107250000Y-79100000D03*
X107250000Y-77700000D03*
G04 #@! TD*
D59*
G04 #@! TO.C,L301*
X69050000Y-36900000D03*
X64950000Y-36900000D03*
G04 #@! TD*
D12*
G04 #@! TO.C,R1002*
X30510000Y-89750000D03*
X29490000Y-89750000D03*
G04 #@! TD*
D64*
G04 #@! TO.C,FB402*
X79200000Y-111337500D03*
X79200000Y-113462500D03*
G04 #@! TD*
D38*
G04 #@! TO.C,C312*
X65200000Y-111120000D03*
X65200000Y-112080000D03*
G04 #@! TD*
D34*
G04 #@! TO.C,C205*
X132300000Y-20575000D03*
X132300000Y-17625000D03*
G04 #@! TD*
D12*
G04 #@! TO.C,R1017*
X30560000Y-40650000D03*
X29540000Y-40650000D03*
G04 #@! TD*
G04 #@! TO.C,R501*
X81710000Y-83900000D03*
X80690000Y-83900000D03*
G04 #@! TD*
D17*
G04 #@! TO.C,R1009*
X27590000Y-29250000D03*
X28610000Y-29250000D03*
G04 #@! TD*
D66*
G04 #@! TO.C,Y801*
X37250000Y-17600000D03*
X37250000Y-16200000D03*
G04 #@! TD*
D12*
G04 #@! TO.C,R501*
X11710000Y-22400000D03*
X10690000Y-22400000D03*
G04 #@! TD*
D25*
G04 #@! TO.C,Q1001*
X42860452Y-95980365D03*
X42860452Y-94080365D03*
X40985452Y-95030365D03*
G04 #@! TD*
D37*
G04 #@! TO.C,L702*
X105575000Y-113000000D03*
X108625000Y-113000000D03*
G04 #@! TD*
D17*
G04 #@! TO.C,R1010*
X27640000Y-102150000D03*
X28660000Y-102150000D03*
G04 #@! TD*
G04 #@! TO.C,R1009*
X97590000Y-29250000D03*
X98610000Y-29250000D03*
G04 #@! TD*
D10*
G04 #@! TO.C,R402*
X123985000Y-33400000D03*
X123015000Y-33400000D03*
G04 #@! TD*
D30*
G04 #@! TO.C,C310*
X132000000Y-97525000D03*
X132000000Y-100475000D03*
G04 #@! TD*
D23*
G04 #@! TO.C,R401*
X112900000Y-108325000D03*
X112900000Y-107305000D03*
G04 #@! TD*
D17*
G04 #@! TO.C,R1012*
X27660375Y-42650000D03*
X28680375Y-42650000D03*
G04 #@! TD*
G04 #@! TO.C,R1006*
X40412952Y-42330365D03*
X41432952Y-42330365D03*
G04 #@! TD*
D18*
G04 #@! TO.C,D501*
X92215000Y-109800000D03*
X93185000Y-109800000D03*
G04 #@! TD*
D37*
G04 #@! TO.C,L201*
X138225000Y-80560000D03*
X135175000Y-80560000D03*
G04 #@! TD*
D61*
G04 #@! TO.C,U301*
X65450000Y-106900000D03*
X65450000Y-108550000D03*
X66650000Y-108550000D03*
X66650000Y-106900000D03*
D13*
X63575000Y-105820000D03*
X63575000Y-107090000D03*
X63575000Y-108360000D03*
X63575000Y-109630000D03*
X68525000Y-109630000D03*
X68525000Y-108360000D03*
X68525000Y-107090000D03*
X68525000Y-105820000D03*
G04 #@! TD*
D15*
G04 #@! TO.C,D301*
X42350000Y-30600000D03*
X40250000Y-30600000D03*
G04 #@! TD*
D63*
G04 #@! TO.C,F701*
X121400000Y-51500000D03*
X124200000Y-51500000D03*
G04 #@! TD*
D31*
G04 #@! TO.C,R304*
X61700000Y-46990000D03*
X61700000Y-48010000D03*
G04 #@! TD*
D28*
G04 #@! TO.C,D305*
X138300000Y-55500000D03*
X139700000Y-55500000D03*
G04 #@! TD*
D35*
G04 #@! TO.C,Q301*
X110962500Y-22250000D03*
X110962500Y-24150000D03*
X112837500Y-23200000D03*
G04 #@! TD*
D41*
G04 #@! TO.C,D702*
X115700000Y-118200000D03*
D42*
X116620000Y-114218000D03*
X114780000Y-114218000D03*
G04 #@! TD*
D25*
G04 #@! TO.C,Q302*
X112837500Y-90250000D03*
X112837500Y-88350000D03*
X110962500Y-89300000D03*
G04 #@! TD*
D46*
G04 #@! TO.C,U401*
X85975000Y-27775000D03*
X85975000Y-26925000D03*
X86825000Y-26925000D03*
X86825000Y-27775000D03*
D47*
X84950000Y-26550000D03*
D48*
X84950000Y-26950000D03*
X84950000Y-27350000D03*
X84950000Y-27750000D03*
D49*
X84950000Y-28150000D03*
D50*
X85600000Y-28800000D03*
D51*
X86000000Y-28800000D03*
X86400000Y-28800000D03*
X86800000Y-28800000D03*
D52*
X87200000Y-28800000D03*
D53*
X87850000Y-28150000D03*
D48*
X87850000Y-27750000D03*
X87850000Y-27350000D03*
X87850000Y-26950000D03*
D54*
X87850000Y-26550000D03*
D55*
X87200000Y-25900000D03*
D51*
X86800000Y-25900000D03*
X86400000Y-25900000D03*
X86000000Y-25900000D03*
D56*
X85600000Y-25900000D03*
G04 #@! TD*
D15*
G04 #@! TO.C,D1003*
X28000000Y-44250000D03*
X30100000Y-44250000D03*
G04 #@! TD*
D20*
G04 #@! TO.C,C308*
X62425000Y-102100000D03*
X60875000Y-102100000D03*
G04 #@! TD*
D41*
G04 #@! TO.C,D702*
X115700000Y-56700000D03*
D42*
X116620000Y-52718000D03*
X114780000Y-52718000D03*
G04 #@! TD*
D22*
G04 #@! TO.C,C202*
X69180000Y-32100000D03*
X68220000Y-32100000D03*
G04 #@! TD*
D10*
G04 #@! TO.C,D505*
X20885000Y-15600000D03*
X19915000Y-15600000D03*
G04 #@! TD*
D65*
G04 #@! TO.C,L701*
X36100000Y-122700000D03*
X39100000Y-122700000D03*
X39100000Y-116900000D03*
X36100000Y-116900000D03*
G04 #@! TD*
D14*
G04 #@! TO.C,C405*
X78720000Y-48600000D03*
X79680000Y-48600000D03*
G04 #@! TD*
D33*
G04 #@! TO.C,C403*
X110900000Y-107330000D03*
X110900000Y-108300000D03*
G04 #@! TD*
D36*
G04 #@! TO.C,U1001*
X113060452Y-99480365D03*
X113060452Y-98530365D03*
X113060452Y-97580365D03*
X110785452Y-97580365D03*
X110785452Y-99480365D03*
G04 #@! TD*
D31*
G04 #@! TO.C,R206*
X137150000Y-31040000D03*
X137150000Y-32060000D03*
G04 #@! TD*
D25*
G04 #@! TO.C,Q1002*
X99937500Y-82900000D03*
X99937500Y-81000000D03*
X98062500Y-81950000D03*
G04 #@! TD*
G04 #@! TO.C,Q1003*
X100025000Y-96250000D03*
X100025000Y-94350000D03*
X98150000Y-95300000D03*
G04 #@! TD*
D32*
G04 #@! TO.C,R202*
X60850000Y-85270000D03*
X62500000Y-85270000D03*
G04 #@! TD*
D19*
G04 #@! TO.C,D509*
X9000000Y-44287500D03*
X9000000Y-42712500D03*
G04 #@! TD*
D36*
G04 #@! TO.C,U1002*
X30137500Y-86400000D03*
X30137500Y-85450000D03*
X30137500Y-84500000D03*
X27862500Y-84500000D03*
X27862500Y-86400000D03*
G04 #@! TD*
D59*
G04 #@! TO.C,L301*
X139050000Y-36900000D03*
X134950000Y-36900000D03*
G04 #@! TD*
D31*
G04 #@! TO.C,R405*
X10700000Y-47990000D03*
X10700000Y-49010000D03*
G04 #@! TD*
D62*
G04 #@! TO.C,D201*
X59400000Y-23400000D03*
X59400000Y-22000000D03*
G04 #@! TD*
D12*
G04 #@! TO.C,R1016*
X30510000Y-26250000D03*
X29490000Y-26250000D03*
G04 #@! TD*
D30*
G04 #@! TO.C,C309*
X58700000Y-97525000D03*
X58700000Y-100475000D03*
G04 #@! TD*
D12*
G04 #@! TO.C,R1015*
X30510000Y-88750000D03*
X29490000Y-88750000D03*
G04 #@! TD*
D15*
G04 #@! TO.C,D801*
X118550000Y-16400000D03*
X120650000Y-16400000D03*
G04 #@! TD*
G04 #@! TO.C,D502*
X16250000Y-78600000D03*
X18350000Y-78600000D03*
G04 #@! TD*
D23*
G04 #@! TO.C,R408*
X89500000Y-95310000D03*
X89500000Y-94290000D03*
G04 #@! TD*
D38*
G04 #@! TO.C,C311*
X70300000Y-51420000D03*
X70300000Y-52380000D03*
G04 #@! TD*
D15*
G04 #@! TO.C,D1002*
X30050000Y-92350000D03*
X27950000Y-92350000D03*
G04 #@! TD*
D38*
G04 #@! TO.C,C307*
X64000000Y-112520000D03*
X64000000Y-113480000D03*
G04 #@! TD*
D24*
G04 #@! TO.C,C201*
X60900000Y-88375000D03*
X60900000Y-86825000D03*
G04 #@! TD*
D25*
G04 #@! TO.C,Q1001*
X112860452Y-34480365D03*
X112860452Y-32580365D03*
X110985452Y-33530365D03*
G04 #@! TD*
G04 #@! TO.C,Q1001*
X112860452Y-95980365D03*
X112860452Y-94080365D03*
X110985452Y-95030365D03*
G04 #@! TD*
D17*
G04 #@! TO.C,R1012*
X97660375Y-104150000D03*
X98680375Y-104150000D03*
G04 #@! TD*
D15*
G04 #@! TO.C,D301*
X112350000Y-92100000D03*
X110250000Y-92100000D03*
G04 #@! TD*
D18*
G04 #@! TO.C,D501*
X22215000Y-48300000D03*
X23185000Y-48300000D03*
G04 #@! TD*
D37*
G04 #@! TO.C,L201*
X138225000Y-19060000D03*
X135175000Y-19060000D03*
G04 #@! TD*
D12*
G04 #@! TO.C,R1003*
X30560000Y-41650000D03*
X29540000Y-41650000D03*
G04 #@! TD*
G04 #@! TO.C,R1011*
X98660000Y-103150000D03*
X97640000Y-103150000D03*
G04 #@! TD*
D23*
G04 #@! TO.C,R204*
X65060000Y-32050000D03*
X65060000Y-31030000D03*
G04 #@! TD*
D14*
G04 #@! TO.C,C306*
X123120000Y-45500000D03*
X124080000Y-45500000D03*
G04 #@! TD*
D15*
G04 #@! TO.C,D301*
X42350000Y-92100000D03*
X40250000Y-92100000D03*
G04 #@! TD*
D12*
G04 #@! TO.C,R1015*
X100510000Y-88750000D03*
X99490000Y-88750000D03*
G04 #@! TD*
D18*
G04 #@! TO.C,D401*
X13315000Y-111500000D03*
X14285000Y-111500000D03*
G04 #@! TD*
D19*
G04 #@! TO.C,D506*
X9000000Y-27787500D03*
X9000000Y-26212500D03*
G04 #@! TD*
D44*
G04 #@! TO.C,FB401*
X81937500Y-48600000D03*
X84062500Y-48600000D03*
G04 #@! TD*
D12*
G04 #@! TO.C,R305*
X41510000Y-25500000D03*
X40490000Y-25500000D03*
G04 #@! TD*
D61*
G04 #@! TO.C,U201*
X134850000Y-88500000D03*
X136050000Y-90150000D03*
X136050000Y-88500000D03*
X134850000Y-90150000D03*
D13*
X132975000Y-87420000D03*
X132975000Y-88690000D03*
X132975000Y-89960000D03*
X132975000Y-91230000D03*
X137925000Y-91230000D03*
X137925000Y-89960000D03*
X137925000Y-88690000D03*
X137925000Y-87420000D03*
G04 #@! TD*
D31*
G04 #@! TO.C,R205*
X136100000Y-31040000D03*
X136100000Y-32060000D03*
G04 #@! TD*
D17*
G04 #@! TO.C,R1004*
X40412952Y-101830365D03*
X41432952Y-101830365D03*
G04 #@! TD*
D22*
G04 #@! TO.C,C1003*
X30530000Y-42650000D03*
X29570000Y-42650000D03*
G04 #@! TD*
D64*
G04 #@! TO.C,FB402*
X79200000Y-49837500D03*
X79200000Y-51962500D03*
G04 #@! TD*
D15*
G04 #@! TO.C,D1003*
X98000000Y-44250000D03*
X100100000Y-44250000D03*
G04 #@! TD*
D63*
G04 #@! TO.C,F701*
X121400000Y-113000000D03*
X124200000Y-113000000D03*
G04 #@! TD*
D41*
G04 #@! TO.C,D702*
X45700000Y-118200000D03*
D42*
X44780000Y-114218000D03*
X46620000Y-114218000D03*
G04 #@! TD*
D65*
G04 #@! TO.C,L701*
X106100000Y-122700000D03*
X109100000Y-122700000D03*
X109100000Y-116900000D03*
X106100000Y-116900000D03*
G04 #@! TD*
D38*
G04 #@! TO.C,C307*
X64000000Y-51020000D03*
X64000000Y-51980000D03*
G04 #@! TD*
D12*
G04 #@! TO.C,R1011*
X98660000Y-41650000D03*
X97640000Y-41650000D03*
G04 #@! TD*
G04 #@! TO.C,R406*
X79710000Y-109100000D03*
X78690000Y-109100000D03*
G04 #@! TD*
D39*
G04 #@! TO.C,C704*
X103100000Y-53475000D03*
D40*
X103100000Y-50525000D03*
G04 #@! TD*
D17*
G04 #@! TO.C,R201*
X132490000Y-31150000D03*
X133510000Y-31150000D03*
G04 #@! TD*
D46*
G04 #@! TO.C,U401*
X15975000Y-27775000D03*
X16825000Y-26925000D03*
X15975000Y-26925000D03*
X16825000Y-27775000D03*
D47*
X14950000Y-26550000D03*
D48*
X14950000Y-26950000D03*
X14950000Y-27350000D03*
X14950000Y-27750000D03*
D49*
X14950000Y-28150000D03*
D50*
X15600000Y-28800000D03*
D51*
X16000000Y-28800000D03*
X16400000Y-28800000D03*
X16800000Y-28800000D03*
D52*
X17200000Y-28800000D03*
D53*
X17850000Y-28150000D03*
D48*
X17850000Y-27750000D03*
X17850000Y-27350000D03*
X17850000Y-26950000D03*
D54*
X17850000Y-26550000D03*
D55*
X17200000Y-25900000D03*
D51*
X16800000Y-25900000D03*
X16400000Y-25900000D03*
X16000000Y-25900000D03*
D56*
X15600000Y-25900000D03*
G04 #@! TD*
D12*
G04 #@! TO.C,R316*
X124010000Y-90800000D03*
X122990000Y-90800000D03*
G04 #@! TD*
D31*
G04 #@! TO.C,R409*
X87085396Y-30580000D03*
X87085396Y-31600000D03*
G04 #@! TD*
D18*
G04 #@! TO.C,C406*
X12615000Y-27200000D03*
X13585000Y-27200000D03*
G04 #@! TD*
D45*
G04 #@! TO.C,C302*
X59875000Y-46400000D03*
X56925000Y-46400000D03*
G04 #@! TD*
D32*
G04 #@! TO.C,R309*
X130825000Y-103650000D03*
X132475000Y-103650000D03*
G04 #@! TD*
D14*
G04 #@! TO.C,C1001*
X112342952Y-42330365D03*
X113302952Y-42330365D03*
G04 #@! TD*
D12*
G04 #@! TO.C,R1002*
X100510000Y-89750000D03*
X99490000Y-89750000D03*
G04 #@! TD*
D17*
G04 #@! TO.C,R314*
X66190000Y-117000000D03*
X67210000Y-117000000D03*
G04 #@! TD*
D18*
G04 #@! TO.C,D402*
X8615000Y-53200000D03*
X9585000Y-53200000D03*
G04 #@! TD*
D31*
G04 #@! TO.C,R205*
X66100000Y-31040000D03*
X66100000Y-32060000D03*
G04 #@! TD*
D15*
G04 #@! TO.C,D1001*
X112872952Y-105430365D03*
X110772952Y-105430365D03*
G04 #@! TD*
D60*
G04 #@! TO.C,C305*
X57300000Y-43180000D03*
X57300000Y-42220000D03*
G04 #@! TD*
D27*
G04 #@! TO.C,C705*
X41100000Y-111625000D03*
X41100000Y-114575000D03*
G04 #@! TD*
D62*
G04 #@! TO.C,D201*
X129400000Y-84900000D03*
X129400000Y-83500000D03*
G04 #@! TD*
D31*
G04 #@! TO.C,R405*
X10700000Y-109490000D03*
X10700000Y-110510000D03*
G04 #@! TD*
D23*
G04 #@! TO.C,R204*
X135060000Y-93550000D03*
X135060000Y-92530000D03*
G04 #@! TD*
D19*
G04 #@! TO.C,D509*
X79000000Y-105787500D03*
X79000000Y-104212500D03*
G04 #@! TD*
D31*
G04 #@! TO.C,R304*
X131700000Y-46990000D03*
X131700000Y-48010000D03*
G04 #@! TD*
G04 #@! TO.C,R409*
X17085396Y-92080000D03*
X17085396Y-93100000D03*
G04 #@! TD*
D32*
G04 #@! TO.C,R309*
X130825000Y-42150000D03*
X132475000Y-42150000D03*
G04 #@! TD*
D36*
G04 #@! TO.C,U302*
X55737500Y-105650000D03*
X55737500Y-104700000D03*
X55737500Y-103750000D03*
X53462500Y-103750000D03*
X53462500Y-105650000D03*
G04 #@! TD*
D12*
G04 #@! TO.C,R316*
X124010000Y-29300000D03*
X122990000Y-29300000D03*
G04 #@! TD*
D14*
G04 #@! TO.C,C304*
X138320000Y-112000000D03*
X139280000Y-112000000D03*
G04 #@! TD*
D23*
G04 #@! TO.C,R204*
X135060000Y-32050000D03*
X135060000Y-31030000D03*
G04 #@! TD*
D62*
G04 #@! TO.C,D302*
X129350000Y-103300000D03*
X129350000Y-101900000D03*
G04 #@! TD*
D57*
G04 #@! TO.C,D701*
X121500000Y-54300000D03*
X121500000Y-61100000D03*
G04 #@! TD*
D62*
G04 #@! TO.C,D201*
X129400000Y-23400000D03*
X129400000Y-22000000D03*
G04 #@! TD*
D23*
G04 #@! TO.C,R302*
X43500000Y-92610000D03*
X43500000Y-91590000D03*
G04 #@! TD*
D35*
G04 #@! TO.C,Q303*
X123562500Y-38750000D03*
X123562500Y-40650000D03*
X125437500Y-39700000D03*
G04 #@! TD*
D12*
G04 #@! TO.C,R1018*
X100560000Y-101150000D03*
X99540000Y-101150000D03*
G04 #@! TD*
G04 #@! TO.C,R308*
X54110000Y-46600000D03*
X53090000Y-46600000D03*
G04 #@! TD*
D22*
G04 #@! TO.C,C1002*
X30480000Y-90750000D03*
X29520000Y-90750000D03*
G04 #@! TD*
D62*
G04 #@! TO.C,D302*
X59350000Y-41800000D03*
X59350000Y-40400000D03*
G04 #@! TD*
D58*
G04 #@! TO.C,U303*
X66562500Y-52050000D03*
X66562500Y-53000000D03*
X66562500Y-53950000D03*
X68837500Y-53950000D03*
X68837500Y-52050000D03*
G04 #@! TD*
D17*
G04 #@! TO.C,R1004*
X40412952Y-40330365D03*
X41432952Y-40330365D03*
G04 #@! TD*
D43*
G04 #@! TO.C,D901*
X57500000Y-23350000D03*
X57500000Y-25450000D03*
G04 #@! TD*
D23*
G04 #@! TO.C,R401*
X112900000Y-46825000D03*
X112900000Y-45805000D03*
G04 #@! TD*
D22*
G04 #@! TO.C,C1002*
X100480000Y-29250000D03*
X99520000Y-29250000D03*
G04 #@! TD*
D17*
G04 #@! TO.C,R1004*
X110412952Y-40330365D03*
X111432952Y-40330365D03*
G04 #@! TD*
D29*
G04 #@! TO.C,C301*
X126925000Y-49100000D03*
X129875000Y-49100000D03*
G04 #@! TD*
D12*
G04 #@! TO.C,R1008*
X98610000Y-28250000D03*
X97590000Y-28250000D03*
G04 #@! TD*
D23*
G04 #@! TO.C,R311*
X56300000Y-98910000D03*
X56300000Y-97890000D03*
G04 #@! TD*
D12*
G04 #@! TO.C,R1005*
X41432952Y-41330365D03*
X40412952Y-41330365D03*
G04 #@! TD*
D14*
G04 #@! TO.C,C404*
X10620000Y-50000000D03*
X11580000Y-50000000D03*
G04 #@! TD*
D10*
G04 #@! TO.C,R402*
X53985000Y-33400000D03*
X53015000Y-33400000D03*
G04 #@! TD*
D12*
G04 #@! TO.C,R503*
X11700000Y-85900000D03*
X10680000Y-85900000D03*
G04 #@! TD*
G04 #@! TO.C,R501*
X11710000Y-83900000D03*
X10690000Y-83900000D03*
G04 #@! TD*
G04 #@! TO.C,R1005*
X111432952Y-102830365D03*
X110412952Y-102830365D03*
G04 #@! TD*
D31*
G04 #@! TO.C,R410*
X88085396Y-30580000D03*
X88085396Y-31600000D03*
G04 #@! TD*
D17*
G04 #@! TO.C,R1006*
X110412952Y-103830365D03*
X111432952Y-103830365D03*
G04 #@! TD*
G04 #@! TO.C,R1014*
X112312952Y-39330365D03*
X113332952Y-39330365D03*
G04 #@! TD*
D64*
G04 #@! TO.C,FB402*
X9200000Y-111337500D03*
X9200000Y-113462500D03*
G04 #@! TD*
D20*
G04 #@! TO.C,C203*
X62450000Y-83700000D03*
X60900000Y-83700000D03*
G04 #@! TD*
D24*
G04 #@! TO.C,C303*
X61550000Y-107275000D03*
X61550000Y-105725000D03*
G04 #@! TD*
D10*
G04 #@! TO.C,D505*
X90885000Y-15600000D03*
X89915000Y-15600000D03*
G04 #@! TD*
D14*
G04 #@! TO.C,C901*
X56920000Y-22200000D03*
X57880000Y-22200000D03*
G04 #@! TD*
D16*
G04 #@! TO.C,R301*
X124800000Y-110600000D03*
X122000000Y-110600000D03*
G04 #@! TD*
D23*
G04 #@! TO.C,R408*
X19500000Y-95310000D03*
X19500000Y-94290000D03*
G04 #@! TD*
D24*
G04 #@! TO.C,C201*
X60900000Y-26875000D03*
X60900000Y-25325000D03*
G04 #@! TD*
D36*
G04 #@! TO.C,U302*
X55737500Y-44150000D03*
X55737500Y-43200000D03*
X55737500Y-42250000D03*
X53462500Y-42250000D03*
X53462500Y-44150000D03*
G04 #@! TD*
D24*
G04 #@! TO.C,C802*
X105500000Y-79175000D03*
X105500000Y-77625000D03*
G04 #@! TD*
D18*
G04 #@! TO.C,R312*
X136215000Y-111000000D03*
X137185000Y-111000000D03*
G04 #@! TD*
D15*
G04 #@! TO.C,D304*
X125150000Y-36900000D03*
X123050000Y-36900000D03*
G04 #@! TD*
D46*
G04 #@! TO.C,U401*
X86825000Y-88425000D03*
X85975000Y-89275000D03*
X85975000Y-88425000D03*
X86825000Y-89275000D03*
D47*
X84950000Y-88050000D03*
D48*
X84950000Y-88450000D03*
X84950000Y-88850000D03*
X84950000Y-89250000D03*
D49*
X84950000Y-89650000D03*
D50*
X85600000Y-90300000D03*
D51*
X86000000Y-90300000D03*
X86400000Y-90300000D03*
X86800000Y-90300000D03*
D52*
X87200000Y-90300000D03*
D53*
X87850000Y-89650000D03*
D48*
X87850000Y-89250000D03*
X87850000Y-88850000D03*
X87850000Y-88450000D03*
D54*
X87850000Y-88050000D03*
D55*
X87200000Y-87400000D03*
D51*
X86800000Y-87400000D03*
X86400000Y-87400000D03*
X86000000Y-87400000D03*
D56*
X85600000Y-87400000D03*
G04 #@! TD*
D38*
G04 #@! TO.C,C307*
X134000000Y-112520000D03*
X134000000Y-113480000D03*
G04 #@! TD*
D14*
G04 #@! TO.C,C1001*
X42342952Y-103830365D03*
X43302952Y-103830365D03*
G04 #@! TD*
G04 #@! TO.C,C405*
X78720000Y-110100000D03*
X79680000Y-110100000D03*
G04 #@! TD*
D26*
G04 #@! TO.C,C402*
X9300000Y-115925000D03*
X9300000Y-117475000D03*
G04 #@! TD*
D19*
G04 #@! TO.C,D508*
X79000000Y-38787500D03*
X79000000Y-37212500D03*
G04 #@! TD*
D22*
G04 #@! TO.C,C902*
X53980000Y-87000000D03*
X53020000Y-87000000D03*
G04 #@! TD*
D36*
G04 #@! TO.C,U1003*
X100225000Y-99750000D03*
X100225000Y-98800000D03*
X100225000Y-97850000D03*
X97950000Y-97850000D03*
X97950000Y-99750000D03*
G04 #@! TD*
M02*
