G04 #@! TF.GenerationSoftware,KiCad,Pcbnew,8.0.5*
G04 #@! TF.CreationDate,2024-09-25T12:57:29+03:00*
G04 #@! TF.ProjectId,SH-RPi-panel,53482d52-5069-42d7-9061-6e656c2e6b69,v2.0.1*
G04 #@! TF.SameCoordinates,Original*
G04 #@! TF.FileFunction,Other,Comment*
%FSLAX46Y46*%
G04 Gerber Fmt 4.6, Leading zero omitted, Abs format (unit mm)*
G04 Created by KiCad (PCBNEW 8.0.5) date 2024-09-25 12:57:29*
%MOMM*%
%LPD*%
G01*
G04 APERTURE LIST*
%ADD10C,0.150000*%
G04 APERTURE END LIST*
D10*
G04 #@! TO.C,H603*
X71600000Y-183000000D02*
G75*
G02*
X65400000Y-183000000I-3100000J0D01*
G01*
X65400000Y-183000000D02*
G75*
G02*
X71600000Y-183000000I3100000J0D01*
G01*
G04 #@! TO.C,H602*
X13600000Y-121500000D02*
G75*
G02*
X7400000Y-121500000I-3100000J0D01*
G01*
X7400000Y-121500000D02*
G75*
G02*
X13600000Y-121500000I3100000J0D01*
G01*
G04 #@! TO.C,H601*
X13600000Y-11000000D02*
G75*
G02*
X7400000Y-11000000I-3100000J0D01*
G01*
X7400000Y-11000000D02*
G75*
G02*
X13600000Y-11000000I3100000J0D01*
G01*
G04 #@! TO.C,H604*
X71600000Y-11000000D02*
G75*
G02*
X65400000Y-11000000I-3100000J0D01*
G01*
X65400000Y-11000000D02*
G75*
G02*
X71600000Y-11000000I3100000J0D01*
G01*
X71600000Y-72500000D02*
G75*
G02*
X65400000Y-72500000I-3100000J0D01*
G01*
X65400000Y-72500000D02*
G75*
G02*
X71600000Y-72500000I3100000J0D01*
G01*
G04 #@! TO.C,H601*
X13600000Y-72500000D02*
G75*
G02*
X7400000Y-72500000I-3100000J0D01*
G01*
X7400000Y-72500000D02*
G75*
G02*
X13600000Y-72500000I3100000J0D01*
G01*
G04 #@! TO.C,H604*
X71600000Y-195500000D02*
G75*
G02*
X65400000Y-195500000I-3100000J0D01*
G01*
X65400000Y-195500000D02*
G75*
G02*
X71600000Y-195500000I3100000J0D01*
G01*
G04 #@! TO.C,H601*
X13600000Y-195500000D02*
G75*
G02*
X7400000Y-195500000I-3100000J0D01*
G01*
X7400000Y-195500000D02*
G75*
G02*
X13600000Y-195500000I3100000J0D01*
G01*
G04 #@! TO.C,H602*
X13600000Y-60000000D02*
G75*
G02*
X7400000Y-60000000I-3100000J0D01*
G01*
X7400000Y-60000000D02*
G75*
G02*
X13600000Y-60000000I3100000J0D01*
G01*
G04 #@! TO.C,H603*
X71600000Y-121500000D02*
G75*
G02*
X65400000Y-121500000I-3100000J0D01*
G01*
X65400000Y-121500000D02*
G75*
G02*
X71600000Y-121500000I3100000J0D01*
G01*
G04 #@! TO.C,H601*
X13600000Y-134000000D02*
G75*
G02*
X7400000Y-134000000I-3100000J0D01*
G01*
X7400000Y-134000000D02*
G75*
G02*
X13600000Y-134000000I3100000J0D01*
G01*
G04 #@! TO.C,H603*
X71600000Y-244500000D02*
G75*
G02*
X65400000Y-244500000I-3100000J0D01*
G01*
X65400000Y-244500000D02*
G75*
G02*
X71600000Y-244500000I3100000J0D01*
G01*
X71600000Y-60000000D02*
G75*
G02*
X65400000Y-60000000I-3100000J0D01*
G01*
X65400000Y-60000000D02*
G75*
G02*
X71600000Y-60000000I3100000J0D01*
G01*
G04 #@! TO.C,H602*
X13600000Y-183000000D02*
G75*
G02*
X7400000Y-183000000I-3100000J0D01*
G01*
X7400000Y-183000000D02*
G75*
G02*
X13600000Y-183000000I3100000J0D01*
G01*
X13600000Y-244500000D02*
G75*
G02*
X7400000Y-244500000I-3100000J0D01*
G01*
X7400000Y-244500000D02*
G75*
G02*
X13600000Y-244500000I3100000J0D01*
G01*
G04 #@! TO.C,H604*
X71600000Y-134000000D02*
G75*
G02*
X65400000Y-134000000I-3100000J0D01*
G01*
X65400000Y-134000000D02*
G75*
G02*
X71600000Y-134000000I3100000J0D01*
G01*
G04 #@! TD*
M02*
