M48
; DRILL file {KiCad (6.0.10-0)} date Wednesday 15. February 2023 at 19.17.08
; FORMAT={-:-/ absolute / metric / decimal}
; #@! TF.CreationDate,2023-02-15T19:17:08+02:00
; #@! TF.GenerationSoftware,Kicad,Pcbnew,(6.0.10-0)
; #@! TF.FileFunction,MixedPlating,1,4
FMAT,2
METRIC
; #@! TA.AperFunction,Plated,PTH,ViaDrill
T1C0.200
; #@! TA.AperFunction,Plated,PTH,ComponentDrill
T2C0.200
; #@! TA.AperFunction,Plated,PTH,ViaDrill
T3C0.300
; #@! TA.AperFunction,Plated,PTH,ViaDrill
T4C0.400
; #@! TA.AperFunction,Plated,PTH,ViaDrill
T5C0.600
; #@! TA.AperFunction,Plated,PTH,ComponentDrill
T6C1.000
; #@! TA.AperFunction,Plated,PTH,ComponentDrill
T7C1.100
; #@! TA.AperFunction,Plated,PTH,ComponentDrill
T8C1.200
; #@! TA.AperFunction,NonPlated,NPTH,ComponentDrill
T9C1.152
; #@! TA.AperFunction,NonPlated,NPTH,ComponentDrill
T10C2.000
; #@! TA.AperFunction,NonPlated,NPTH,ComponentDrill
T11C2.750
%
G90
G05
T1
X8.6Y-53.7
X8.6Y-115.2
X9.0Y-28.5
X9.0Y-34.0
X9.0Y-39.5
X9.0Y-45.0
X9.0Y-90.0
X9.0Y-95.5
X9.0Y-101.0
X9.0Y-106.5
X9.05Y-46.0
X9.05Y-107.5
X9.9Y-49.1
X9.9Y-110.6
X10.0Y-55.9
X10.0Y-117.4
X10.3Y-47.1
X10.3Y-108.6
X11.0Y-46.6
X11.0Y-108.1
X11.3Y-47.6
X11.3Y-109.1
X11.7Y-26.1
X11.7Y-28.1
X11.7Y-87.6
X11.7Y-89.6
X12.4Y-22.4
X12.4Y-23.4
X12.4Y-24.4
X12.4Y-26.1
X12.4Y-83.9
X12.4Y-84.9
X12.4Y-85.9
X12.4Y-87.6
X12.8Y-22.9
X12.8Y-84.4
X13.1Y-24.0
X13.1Y-24.8
X13.1Y-85.5
X13.1Y-86.3
X13.3Y-49.55
X13.3Y-111.05
X14.0Y-26.5
X14.0Y-88.0
X14.4Y-25.7
X14.4Y-87.2
X14.5Y-17.2
X14.5Y-78.7
X14.548Y-22.924
X14.548Y-84.423
X14.9Y-24.0
X14.9Y-85.5
X15.4Y-17.1
X15.4Y-78.6
X15.42Y-31.05
X15.42Y-92.55
X15.5Y-22.9
X15.5Y-84.4
X15.85Y-27.35
X15.85Y-88.85
X15.9Y-21.2
X15.9Y-82.7
X16.0Y-32.3
X16.0Y-93.8
X16.2Y-21.9
X16.2Y-83.4
X16.25Y-48.2
X16.25Y-109.7
X16.4Y-31.023
X16.4Y-92.523
X16.5Y-24.0
X16.5Y-85.5
X16.6Y-26.9
X16.6Y-27.9
X16.6Y-88.4
X16.6Y-89.4
X16.67Y-7.75
X16.67Y-69.25
X16.8Y-21.2
X16.8Y-22.9
X16.8Y-82.7
X16.8Y-84.4
X16.9Y-24.6
X16.9Y-86.1
X16.955Y-29.529
X16.955Y-91.029
X17.1Y-36.0
X17.1Y-97.5
X17.6Y-22.9
X17.6Y-84.4
X17.67Y-47.1
X17.67Y-108.6
X17.7Y-25.1
X17.7Y-86.6
X17.8Y-35.776
X17.8Y-97.276
X17.9Y-33.9
X17.9Y-95.4
X18.0Y-26.0
X18.0Y-87.5
X18.1Y-29.8
X18.1Y-91.3
X18.3Y-19.8
X18.3Y-81.3
X18.5Y-22.4
X18.5Y-32.8
X18.5Y-83.9
X18.5Y-94.3
X18.6Y-28.5
X18.6Y-90.0
X18.7Y-15.0
X18.7Y-30.6
X18.7Y-33.8
X18.7Y-76.5
X18.7Y-92.1
X18.7Y-95.3
X18.8Y-27.6
X18.8Y-89.1
X19.0Y-23.4
X19.0Y-84.9
X19.2Y-15.5
X19.2Y-19.9
X19.2Y-22.6
X19.2Y-28.1
X19.2Y-77.0
X19.2Y-81.4
X19.2Y-84.1
X19.2Y-89.6
X19.3Y-16.2
X19.3Y-77.7
X19.5Y-21.9
X19.5Y-83.4
X19.6Y-42.9
X19.6Y-104.4
X20.05Y-20.15
X20.05Y-81.65
X20.1Y-43.4
X20.1Y-104.9
X20.177Y-27.6
X20.177Y-89.1
X20.7Y-28.7
X20.7Y-40.9
X20.7Y-41.6
X20.7Y-90.2
X20.7Y-102.4
X20.7Y-103.1
X20.793Y-27.9
X20.793Y-89.4
X21.155Y-26.12
X21.155Y-87.62
X21.694Y-25.8
X21.694Y-34.5
X21.694Y-87.3
X21.694Y-96.0
X21.95Y-17.8
X21.95Y-79.3
X22.0Y-25.1
X22.0Y-86.6
X22.22Y-47.25
X22.22Y-108.75
X22.87Y-19.1
X22.87Y-19.8
X22.87Y-29.2
X22.87Y-80.6
X22.87Y-81.3
X22.87Y-90.7
X23.27Y-29.89
X23.27Y-91.39
X23.4Y-42.2
X23.4Y-42.9
X23.4Y-103.7
X23.4Y-104.4
X23.546Y-23.19
X23.546Y-23.966
X23.546Y-29.1
X23.546Y-84.69
X23.546Y-85.466
X23.546Y-90.6
X23.87Y-15.6
X23.87Y-77.1
X24.5Y-44.0
X24.5Y-105.5
X24.534Y-15.508
X24.534Y-77.008
X24.993Y-27.4
X24.993Y-88.9
X25.2Y-44.0
X25.2Y-105.5
X25.5Y-50.3
X25.5Y-51.3
X25.5Y-111.8
X25.5Y-112.8
X25.69Y-35.758
X25.69Y-97.258
X25.7Y-21.4
X25.7Y-23.7
X25.7Y-82.9
X25.7Y-85.2
X26.3Y-24.0
X26.3Y-85.5
X26.5Y-50.3
X26.5Y-111.8
X27.17Y-18.2
X27.17Y-18.9
X27.17Y-79.7
X27.17Y-80.4
X27.3Y-25.6
X27.3Y-87.1
X27.4Y-21.4
X27.4Y-82.9
X27.5Y-50.3
X27.5Y-111.8
X27.6Y-30.0
X27.6Y-91.5
X28.1Y-22.1
X28.1Y-83.6
X28.6Y-25.6
X28.6Y-30.0
X28.6Y-87.1
X28.6Y-91.5
X28.7Y-38.9
X28.7Y-43.4
X28.7Y-100.4
X28.7Y-104.9
X28.9Y-21.4
X28.9Y-82.9
X29.0Y-22.7
X29.0Y-84.2
X29.1Y-38.2
X29.1Y-40.0
X29.1Y-99.7
X29.1Y-101.5
X29.2Y-24.0
X29.2Y-85.5
X29.3Y-20.7
X29.3Y-37.3
X29.3Y-82.2
X29.3Y-98.8
X29.9Y-18.8
X29.9Y-80.3
X30.0Y-25.6
X30.0Y-87.1
X30.2Y-38.9
X30.2Y-100.4
X30.4Y-18.3
X30.4Y-79.8
X31.1Y-28.3
X31.1Y-89.8
X31.2Y-27.6
X31.2Y-89.1
X31.4Y-21.5
X31.4Y-83.0
X31.7Y-30.0
X31.7Y-91.5
X31.8Y-22.1
X31.8Y-25.2
X31.8Y-83.6
X31.8Y-86.7
X32.0Y-43.5
X32.0Y-105.0
X32.4Y-30.0
X32.4Y-91.5
X32.5Y-25.9
X32.5Y-28.3
X32.5Y-43.0
X32.5Y-87.4
X32.5Y-89.8
X32.5Y-104.5
X33.2Y-28.3
X33.2Y-89.8
X34.5Y-20.177
X34.5Y-81.676
X34.7Y-21.9
X34.7Y-83.4
X35.7Y-49.6
X35.7Y-111.1
X36.5Y-48.4
X36.5Y-109.9
X36.6Y-28.1
X36.6Y-28.8
X36.6Y-30.6
X36.6Y-89.6
X36.6Y-90.3
X36.6Y-92.1
X37.0Y-32.8
X37.0Y-94.3
X37.2Y-30.2
X37.2Y-91.7
X37.7Y-25.6
X37.7Y-33.0
X37.7Y-87.1
X37.7Y-94.5
X37.8Y-24.7
X37.8Y-86.2
X38.3Y-25.2
X38.3Y-86.7
X38.4Y-32.3
X38.4Y-93.8
X38.8Y-30.6
X38.8Y-92.1
X39.1Y-32.3
X39.1Y-93.8
X39.5Y-30.6
X39.5Y-92.1
X39.7Y-39.3
X39.7Y-43.5
X39.7Y-100.8
X39.7Y-105.0
X39.8Y-25.5
X39.8Y-87.0
X40.2Y-44.0
X40.2Y-105.5
X40.4Y-39.3
X40.4Y-100.8
X41.0Y-32.2
X41.0Y-93.7
X41.1Y-43.0
X41.1Y-104.5
X41.4Y-37.3
X41.4Y-38.7
X41.4Y-98.8
X41.4Y-100.2
X41.5Y-34.3
X41.5Y-95.8
X41.6Y-43.4
X41.6Y-104.9
X41.8Y-32.6
X41.8Y-94.1
X42.0Y-33.6
X42.0Y-95.1
X42.9Y-38.6
X42.9Y-100.1
X43.6Y-43.3
X43.6Y-44.0
X43.6Y-104.8
X43.6Y-105.5
X44.0Y-39.3
X44.0Y-100.8
X44.1Y-40.3
X44.1Y-101.8
X44.3Y-21.9
X44.3Y-37.1
X44.3Y-83.4
X44.3Y-98.6
X45.1Y-21.9
X45.1Y-30.1
X45.1Y-83.4
X45.1Y-91.6
X45.6Y-21.3
X45.6Y-30.6
X45.6Y-41.1
X45.6Y-41.8
X45.6Y-82.8
X45.6Y-92.1
X45.6Y-102.6
X45.6Y-103.3
X46.056Y-18.398
X46.056Y-79.898
X46.203Y-17.789
X46.203Y-79.289
X46.5Y-31.7
X46.5Y-32.4
X46.5Y-93.2
X46.5Y-93.9
X47.1Y-10.8
X47.1Y-72.3
X47.37Y-19.1
X47.37Y-80.6
X47.4Y-19.77
X47.4Y-81.27
X47.6Y-11.3
X47.6Y-72.8
X47.7Y-47.4
X47.7Y-108.9
X47.8Y-16.3
X47.8Y-77.8
X48.0Y-17.0
X48.0Y-78.5
X48.2Y-42.7
X48.2Y-104.2
X48.3Y-27.5
X48.3Y-89.0
X48.4Y-47.4
X48.4Y-108.9
X48.9Y-42.7
X48.9Y-104.2
X49.6Y-34.6
X49.6Y-35.3
X49.6Y-39.9
X49.6Y-96.1
X49.6Y-96.8
X49.6Y-101.4
X49.92Y-19.65
X49.92Y-81.15
X50.47Y-19.2
X50.47Y-80.7
X50.594Y-18.538
X50.594Y-80.038
X50.97Y-17.1
X50.97Y-78.6
X51.05Y-39.25
X51.05Y-100.75
X51.1Y-33.6
X51.1Y-95.1
X52.8Y-31.7
X52.8Y-93.2
X53.0Y-24.9
X53.0Y-30.1
X53.0Y-86.4
X53.0Y-91.6
X53.1Y-37.5
X53.1Y-99.0
X53.2Y-31.1
X53.2Y-44.9
X53.2Y-92.6
X53.2Y-106.4
X53.5Y-17.9
X53.5Y-79.4
X53.8Y-36.9
X53.8Y-98.4
X53.9Y-30.9
X53.9Y-92.4
X54.5Y-31.5
X54.5Y-36.9
X54.5Y-93.0
X54.5Y-98.4
X54.534Y-28.401
X54.534Y-89.901
X55.0Y-29.0
X55.0Y-90.5
X55.045Y-14.856
X55.045Y-76.356
X55.1Y-21.9
X55.1Y-83.4
X55.7Y-40.6
X55.7Y-102.1
X55.8Y-21.9
X55.8Y-83.4
X56.1Y-18.9
X56.1Y-80.4
X56.2Y-41.1
X56.2Y-102.6
X56.55Y-15.25
X56.55Y-76.75
X56.8Y-18.9
X56.8Y-80.4
X56.9Y-36.8
X56.9Y-98.3
X57.3Y-43.9
X57.3Y-105.4
X57.337Y-15.25
X57.337Y-76.75
X57.8Y-33.0
X57.8Y-94.5
X58.0Y-45.9
X58.0Y-107.4
X58.056Y-22.87
X58.056Y-84.37
X58.124Y-15.25
X58.124Y-76.75
X58.6Y-42.0
X58.6Y-42.7
X58.6Y-45.3
X58.6Y-103.5
X58.6Y-104.2
X58.6Y-106.8
X58.911Y-15.25
X58.911Y-76.75
X59.3Y-37.3
X59.3Y-42.7
X59.3Y-44.9
X59.3Y-98.8
X59.3Y-104.2
X59.3Y-106.4
X59.5Y-22.6
X59.5Y-84.1
X59.5Y-27.897
X59.5Y-89.397
X59.697Y-15.25
X59.697Y-76.75
X59.9Y-44.6
X59.9Y-106.1
X60.0Y-40.4
X60.0Y-42.7
X60.0Y-101.9
X60.0Y-104.2
X60.1Y-22.9
X60.1Y-84.4
X60.3Y-32.7
X60.3Y-94.2
X60.484Y-15.25
X60.484Y-76.75
X60.6Y-28.1
X60.6Y-89.6
X60.7Y-33.3
X60.7Y-94.8
X61.1Y-49.6
X61.1Y-111.1
X61.271Y-15.25
X61.271Y-76.75
X61.6Y-28.2
X61.6Y-89.7
X61.7Y-23.1
X61.7Y-84.6
X61.9Y-23.8
X61.9Y-42.2
X61.9Y-85.3
X61.9Y-103.7
X62.058Y-15.25
X62.058Y-76.75
X62.2Y-26.3
X62.2Y-87.8
X62.5Y-44.7
X62.5Y-106.2
X62.845Y-15.25
X62.845Y-76.75
X63.1Y-40.2
X63.1Y-101.7
X63.3Y-22.7
X63.3Y-52.0
X63.3Y-84.2
X63.3Y-113.5
X63.6Y-31.8
X63.6Y-52.8
X63.6Y-93.3
X63.6Y-114.3
X63.632Y-15.25
X63.632Y-76.75
X64.2Y-55.1
X64.2Y-116.6
X64.418Y-15.25
X64.418Y-76.75
X64.48Y-30.18
X64.48Y-91.68
X64.5Y-25.7
X64.5Y-87.2
X64.579Y-50.188
X64.579Y-111.688
X65.0Y-32.7
X65.0Y-33.4
X65.0Y-52.6
X65.0Y-94.2
X65.0Y-94.9
X65.0Y-114.1
X65.205Y-15.25
X65.205Y-76.75
X65.4Y-30.2
X65.4Y-91.7
X65.992Y-15.25
X65.992Y-76.75
X66.1Y-48.6
X66.1Y-110.1
X66.2Y-25.7
X66.2Y-30.2
X66.2Y-87.2
X66.2Y-91.7
X66.779Y-15.25
X66.779Y-76.75
X66.9Y-48.6
X66.9Y-110.1
X67.2Y-32.6
X67.2Y-94.1
X67.566Y-15.25
X67.566Y-76.75
X67.6Y-53.0
X67.6Y-114.5
X67.734Y-50.023
X67.734Y-111.523
X68.353Y-15.25
X68.353Y-76.75
X68.8Y-51.5
X68.8Y-113.0
X69.139Y-15.25
X69.139Y-76.75
X69.2Y-32.7
X69.2Y-94.2
X69.4Y-51.3
X69.4Y-112.8
X69.5Y-25.3
X69.5Y-86.8
X69.7Y-21.0
X69.7Y-82.5
X69.926Y-15.25
X69.926Y-76.75
X70.2Y-39.7
X70.2Y-40.4
X70.2Y-101.2
X70.2Y-101.9
X70.3Y-50.8
X70.3Y-112.3
X70.713Y-15.25
X70.713Y-76.75
X78.6Y-53.7
X78.6Y-115.2
X79.0Y-28.5
X79.0Y-34.0
X79.0Y-39.5
X79.0Y-45.0
X79.0Y-90.0
X79.0Y-95.5
X79.0Y-101.0
X79.0Y-106.5
X79.05Y-46.0
X79.05Y-107.5
X79.9Y-49.1
X79.9Y-110.6
X80.0Y-55.9
X80.0Y-117.4
X80.3Y-47.1
X80.3Y-108.6
X81.0Y-46.6
X81.0Y-108.1
X81.3Y-47.6
X81.3Y-109.1
X81.7Y-26.1
X81.7Y-28.1
X81.7Y-87.6
X81.7Y-89.6
X82.4Y-22.4
X82.4Y-23.4
X82.4Y-24.4
X82.4Y-26.1
X82.4Y-83.9
X82.4Y-84.9
X82.4Y-85.9
X82.4Y-87.6
X82.8Y-22.9
X82.8Y-84.4
X83.1Y-24.0
X83.1Y-24.8
X83.1Y-85.5
X83.1Y-86.3
X83.3Y-49.55
X83.3Y-111.05
X84.0Y-26.5
X84.0Y-88.0
X84.4Y-25.7
X84.4Y-87.2
X84.5Y-17.2
X84.5Y-78.7
X84.548Y-22.924
X84.548Y-84.423
X84.9Y-24.0
X84.9Y-85.5
X85.4Y-17.1
X85.4Y-78.6
X85.42Y-31.05
X85.42Y-92.55
X85.5Y-22.9
X85.5Y-84.4
X85.85Y-27.35
X85.85Y-88.85
X85.9Y-21.2
X85.9Y-82.7
X86.0Y-32.3
X86.0Y-93.8
X86.2Y-21.9
X86.2Y-83.4
X86.25Y-48.2
X86.25Y-109.7
X86.4Y-31.023
X86.4Y-92.523
X86.5Y-24.0
X86.5Y-85.5
X86.6Y-26.9
X86.6Y-27.9
X86.6Y-88.4
X86.6Y-89.4
X86.67Y-7.75
X86.67Y-69.25
X86.8Y-21.2
X86.8Y-22.9
X86.8Y-82.7
X86.8Y-84.4
X86.9Y-24.6
X86.9Y-86.1
X86.955Y-29.529
X86.955Y-91.029
X87.1Y-36.0
X87.1Y-97.5
X87.6Y-22.9
X87.6Y-84.4
X87.67Y-47.1
X87.67Y-108.6
X87.7Y-25.1
X87.7Y-86.6
X87.8Y-35.776
X87.8Y-97.276
X87.9Y-33.9
X87.9Y-95.4
X88.0Y-26.0
X88.0Y-87.5
X88.1Y-29.8
X88.1Y-91.3
X88.3Y-19.8
X88.3Y-81.3
X88.5Y-22.4
X88.5Y-32.8
X88.5Y-83.9
X88.5Y-94.3
X88.6Y-28.5
X88.6Y-90.0
X88.7Y-15.0
X88.7Y-30.6
X88.7Y-33.8
X88.7Y-76.5
X88.7Y-92.1
X88.7Y-95.3
X88.8Y-27.6
X88.8Y-89.1
X89.0Y-23.4
X89.0Y-84.9
X89.2Y-15.5
X89.2Y-19.9
X89.2Y-22.6
X89.2Y-28.1
X89.2Y-77.0
X89.2Y-81.4
X89.2Y-84.1
X89.2Y-89.6
X89.3Y-16.2
X89.3Y-77.7
X89.5Y-21.9
X89.5Y-83.4
X89.6Y-42.9
X89.6Y-104.4
X90.05Y-20.15
X90.05Y-81.65
X90.1Y-43.4
X90.1Y-104.9
X90.176Y-27.6
X90.176Y-89.1
X90.7Y-28.7
X90.7Y-40.9
X90.7Y-41.6
X90.7Y-90.2
X90.7Y-102.4
X90.7Y-103.1
X90.793Y-27.9
X90.793Y-89.4
X91.155Y-26.12
X91.155Y-87.62
X91.694Y-25.8
X91.694Y-34.5
X91.694Y-87.3
X91.694Y-96.0
X91.95Y-17.8
X91.95Y-79.3
X92.0Y-25.1
X92.0Y-86.6
X92.22Y-47.25
X92.22Y-108.75
X92.87Y-19.1
X92.87Y-19.8
X92.87Y-29.2
X92.87Y-80.6
X92.87Y-81.3
X92.87Y-90.7
X93.27Y-29.89
X93.27Y-91.39
X93.4Y-42.2
X93.4Y-42.9
X93.4Y-103.7
X93.4Y-104.4
X93.546Y-23.19
X93.546Y-23.966
X93.546Y-29.1
X93.546Y-84.69
X93.546Y-85.466
X93.546Y-90.6
X93.87Y-15.6
X93.87Y-77.1
X94.5Y-44.0
X94.5Y-105.5
X94.534Y-15.508
X94.534Y-77.008
X94.993Y-27.4
X94.993Y-88.9
X95.2Y-44.0
X95.2Y-105.5
X95.5Y-50.3
X95.5Y-51.3
X95.5Y-111.8
X95.5Y-112.8
X95.69Y-35.758
X95.69Y-97.258
X95.7Y-21.4
X95.7Y-23.7
X95.7Y-82.9
X95.7Y-85.2
X96.3Y-24.0
X96.3Y-85.5
X96.5Y-50.3
X96.5Y-111.8
X97.17Y-18.2
X97.17Y-18.9
X97.17Y-79.7
X97.17Y-80.4
X97.3Y-25.6
X97.3Y-87.1
X97.4Y-21.4
X97.4Y-82.9
X97.5Y-50.3
X97.5Y-111.8
X97.6Y-30.0
X97.6Y-91.5
X98.1Y-22.1
X98.1Y-83.6
X98.6Y-25.6
X98.6Y-30.0
X98.6Y-87.1
X98.6Y-91.5
X98.7Y-38.9
X98.7Y-43.4
X98.7Y-100.4
X98.7Y-104.9
X98.9Y-21.4
X98.9Y-82.9
X99.0Y-22.7
X99.0Y-84.2
X99.1Y-38.2
X99.1Y-40.0
X99.1Y-99.7
X99.1Y-101.5
X99.2Y-24.0
X99.2Y-85.5
X99.3Y-20.7
X99.3Y-37.3
X99.3Y-82.2
X99.3Y-98.8
X99.9Y-18.8
X99.9Y-80.3
X100.0Y-25.6
X100.0Y-87.1
X100.2Y-38.9
X100.2Y-100.4
X100.4Y-18.3
X100.4Y-79.8
X101.1Y-28.3
X101.1Y-89.8
X101.2Y-27.6
X101.2Y-89.1
X101.4Y-21.5
X101.4Y-83.0
X101.7Y-30.0
X101.7Y-91.5
X101.8Y-22.1
X101.8Y-25.2
X101.8Y-83.6
X101.8Y-86.7
X102.0Y-43.5
X102.0Y-105.0
X102.4Y-30.0
X102.4Y-91.5
X102.5Y-25.9
X102.5Y-28.3
X102.5Y-43.0
X102.5Y-87.4
X102.5Y-89.8
X102.5Y-104.5
X103.2Y-28.3
X103.2Y-89.8
X104.5Y-20.177
X104.5Y-81.676
X104.7Y-21.9
X104.7Y-83.4
X105.7Y-49.6
X105.7Y-111.1
X106.5Y-48.4
X106.5Y-109.9
X106.6Y-28.1
X106.6Y-28.8
X106.6Y-30.6
X106.6Y-89.6
X106.6Y-90.3
X106.6Y-92.1
X107.0Y-32.8
X107.0Y-94.3
X107.2Y-30.2
X107.2Y-91.7
X107.7Y-25.6
X107.7Y-33.0
X107.7Y-87.1
X107.7Y-94.5
X107.8Y-24.7
X107.8Y-86.2
X108.3Y-25.2
X108.3Y-86.7
X108.4Y-32.3
X108.4Y-93.8
X108.8Y-30.6
X108.8Y-92.1
X109.1Y-32.3
X109.1Y-93.8
X109.5Y-30.6
X109.5Y-92.1
X109.7Y-39.3
X109.7Y-43.5
X109.7Y-100.8
X109.7Y-105.0
X109.8Y-25.5
X109.8Y-87.0
X110.2Y-44.0
X110.2Y-105.5
X110.4Y-39.3
X110.4Y-100.8
X111.0Y-32.2
X111.0Y-93.7
X111.1Y-43.0
X111.1Y-104.5
X111.4Y-37.3
X111.4Y-38.7
X111.4Y-98.8
X111.4Y-100.2
X111.5Y-34.3
X111.5Y-95.8
X111.6Y-43.4
X111.6Y-104.9
X111.8Y-32.6
X111.8Y-94.1
X112.0Y-33.6
X112.0Y-95.1
X112.9Y-38.6
X112.9Y-100.1
X113.6Y-43.3
X113.6Y-44.0
X113.6Y-104.8
X113.6Y-105.5
X114.0Y-39.3
X114.0Y-100.8
X114.1Y-40.3
X114.1Y-101.8
X114.3Y-21.9
X114.3Y-37.1
X114.3Y-83.4
X114.3Y-98.6
X115.1Y-21.9
X115.1Y-30.1
X115.1Y-83.4
X115.1Y-91.6
X115.6Y-21.3
X115.6Y-30.6
X115.6Y-41.1
X115.6Y-41.8
X115.6Y-82.8
X115.6Y-92.1
X115.6Y-102.6
X115.6Y-103.3
X116.056Y-18.398
X116.056Y-79.898
X116.203Y-17.789
X116.203Y-79.289
X116.5Y-31.7
X116.5Y-32.4
X116.5Y-93.2
X116.5Y-93.9
X117.1Y-10.8
X117.1Y-72.3
X117.37Y-19.1
X117.37Y-80.6
X117.4Y-19.77
X117.4Y-81.27
X117.6Y-11.3
X117.6Y-72.8
X117.7Y-47.4
X117.7Y-108.9
X117.8Y-16.3
X117.8Y-77.8
X118.0Y-17.0
X118.0Y-78.5
X118.2Y-42.7
X118.2Y-104.2
X118.3Y-27.5
X118.3Y-89.0
X118.4Y-47.4
X118.4Y-108.9
X118.9Y-42.7
X118.9Y-104.2
X119.6Y-34.6
X119.6Y-35.3
X119.6Y-39.9
X119.6Y-96.1
X119.6Y-96.8
X119.6Y-101.4
X119.92Y-19.65
X119.92Y-81.15
X120.47Y-19.2
X120.47Y-80.7
X120.594Y-18.538
X120.594Y-80.038
X120.97Y-17.1
X120.97Y-78.6
X121.05Y-39.25
X121.05Y-100.75
X121.1Y-33.6
X121.1Y-95.1
X122.8Y-31.7
X122.8Y-93.2
X123.0Y-24.9
X123.0Y-30.1
X123.0Y-86.4
X123.0Y-91.6
X123.1Y-37.5
X123.1Y-99.0
X123.2Y-31.1
X123.2Y-44.9
X123.2Y-92.6
X123.2Y-106.4
X123.5Y-17.9
X123.5Y-79.4
X123.8Y-36.9
X123.8Y-98.4
X123.9Y-30.9
X123.9Y-92.4
X124.5Y-31.5
X124.5Y-36.9
X124.5Y-93.0
X124.5Y-98.4
X124.534Y-28.401
X124.534Y-89.901
X125.0Y-29.0
X125.0Y-90.5
X125.045Y-14.856
X125.045Y-76.356
X125.1Y-21.9
X125.1Y-83.4
X125.7Y-40.6
X125.7Y-102.1
X125.8Y-21.9
X125.8Y-83.4
X126.1Y-18.9
X126.1Y-80.4
X126.2Y-41.1
X126.2Y-102.6
X126.55Y-15.25
X126.55Y-76.75
X126.8Y-18.9
X126.8Y-80.4
X126.9Y-36.8
X126.9Y-98.3
X127.3Y-43.9
X127.3Y-105.4
X127.337Y-15.25
X127.337Y-76.75
X127.8Y-33.0
X127.8Y-94.5
X128.0Y-45.9
X128.0Y-107.4
X128.056Y-22.87
X128.056Y-84.37
X128.124Y-15.25
X128.124Y-76.75
X128.6Y-42.0
X128.6Y-42.7
X128.6Y-45.3
X128.6Y-103.5
X128.6Y-104.2
X128.6Y-106.8
X128.911Y-15.25
X128.911Y-76.75
X129.3Y-37.3
X129.3Y-42.7
X129.3Y-44.9
X129.3Y-98.8
X129.3Y-104.2
X129.3Y-106.4
X129.5Y-22.6
X129.5Y-84.1
X129.5Y-27.897
X129.5Y-89.397
X129.697Y-15.25
X129.697Y-76.75
X129.9Y-44.6
X129.9Y-106.1
X130.0Y-40.4
X130.0Y-42.7
X130.0Y-101.9
X130.0Y-104.2
X130.1Y-22.9
X130.1Y-84.4
X130.3Y-32.7
X130.3Y-94.2
X130.484Y-15.25
X130.484Y-76.75
X130.6Y-28.1
X130.6Y-89.6
X130.7Y-33.3
X130.7Y-94.8
X131.1Y-49.6
X131.1Y-111.1
X131.271Y-15.25
X131.271Y-76.75
X131.6Y-28.2
X131.6Y-89.7
X131.7Y-23.1
X131.7Y-84.6
X131.9Y-23.8
X131.9Y-42.2
X131.9Y-85.3
X131.9Y-103.7
X132.058Y-15.25
X132.058Y-76.75
X132.2Y-26.3
X132.2Y-87.8
X132.5Y-44.7
X132.5Y-106.2
X132.845Y-15.25
X132.845Y-76.75
X133.1Y-40.2
X133.1Y-101.7
X133.3Y-22.7
X133.3Y-52.0
X133.3Y-84.2
X133.3Y-113.5
X133.6Y-31.8
X133.6Y-52.8
X133.6Y-93.3
X133.6Y-114.3
X133.632Y-15.25
X133.632Y-76.75
X134.2Y-55.1
X134.2Y-116.6
X134.418Y-15.25
X134.418Y-76.75
X134.48Y-30.18
X134.48Y-91.68
X134.5Y-25.7
X134.5Y-87.2
X134.579Y-50.188
X134.579Y-111.688
X135.0Y-32.7
X135.0Y-33.4
X135.0Y-52.6
X135.0Y-94.2
X135.0Y-94.9
X135.0Y-114.1
X135.205Y-15.25
X135.205Y-76.75
X135.4Y-30.2
X135.4Y-91.7
X135.992Y-15.25
X135.992Y-76.75
X136.1Y-48.6
X136.1Y-110.1
X136.2Y-25.7
X136.2Y-30.2
X136.2Y-87.2
X136.2Y-91.7
X136.779Y-15.25
X136.779Y-76.75
X136.9Y-48.6
X136.9Y-110.1
X137.2Y-32.6
X137.2Y-94.1
X137.566Y-15.25
X137.566Y-76.75
X137.6Y-53.0
X137.6Y-114.5
X137.734Y-50.023
X137.734Y-111.523
X138.353Y-15.25
X138.353Y-76.75
X138.8Y-51.5
X138.8Y-113.0
X139.139Y-15.25
X139.139Y-76.75
X139.2Y-32.7
X139.2Y-94.2
X139.4Y-51.3
X139.4Y-112.8
X139.5Y-25.3
X139.5Y-86.8
X139.7Y-21.0
X139.7Y-82.5
X139.926Y-15.25
X139.926Y-76.75
X140.2Y-39.7
X140.2Y-40.4
X140.2Y-101.2
X140.2Y-101.9
X140.3Y-50.8
X140.3Y-112.3
X140.713Y-15.25
X140.713Y-76.75
T2
X64.75Y-26.625
X64.75Y-27.825
X64.75Y-29.025
X64.75Y-88.125
X64.75Y-89.325
X64.75Y-90.525
X65.35Y-45.025
X65.35Y-46.225
X65.35Y-47.425
X65.35Y-106.525
X65.35Y-107.725
X65.35Y-108.925
X66.15Y-26.625
X66.15Y-27.825
X66.15Y-29.025
X66.15Y-88.125
X66.15Y-89.325
X66.15Y-90.525
X66.75Y-45.025
X66.75Y-46.225
X66.75Y-47.425
X66.75Y-106.525
X66.75Y-107.725
X66.75Y-108.925
X134.75Y-26.625
X134.75Y-27.825
X134.75Y-29.025
X134.75Y-88.125
X134.75Y-89.325
X134.75Y-90.525
X135.35Y-45.025
X135.35Y-46.225
X135.35Y-47.425
X135.35Y-106.525
X135.35Y-107.725
X135.35Y-108.925
X136.15Y-26.625
X136.15Y-27.825
X136.15Y-29.025
X136.15Y-88.125
X136.15Y-89.325
X136.15Y-90.525
X136.75Y-45.025
X136.75Y-46.225
X136.75Y-47.425
X136.75Y-106.525
X136.75Y-107.725
X136.75Y-108.925
T3
X14.4Y-16.2
X14.4Y-77.7
X16.3Y-15.6
X16.3Y-77.1
X22.1Y-15.6
X22.1Y-77.1
X22.2Y-49.1
X22.2Y-110.6
X22.648Y-17.1
X22.648Y-78.6
X23.57Y-22.0
X23.57Y-83.5
X25.07Y-22.0
X25.07Y-83.5
X25.1Y-35.426
X25.1Y-96.926
X25.5Y-26.9
X25.5Y-88.4
X30.6Y-43.8
X30.6Y-105.3
X36.0Y-18.4
X36.0Y-79.9
X40.8Y-20.4
X40.8Y-81.9
X40.9Y-47.7
X40.9Y-109.2
X45.9Y-15.4
X45.9Y-76.9
X48.9Y-18.27
X48.9Y-26.9
X48.9Y-79.77
X48.9Y-88.4
X52.3Y-24.2
X52.3Y-85.7
X63.1Y-21.8
X63.1Y-83.3
X69.7Y-21.8
X69.7Y-83.3
X84.4Y-16.2
X84.4Y-77.7
X86.3Y-15.6
X86.3Y-77.1
X92.1Y-15.6
X92.1Y-77.1
X92.2Y-49.1
X92.2Y-110.6
X92.648Y-17.1
X92.648Y-78.6
X93.57Y-22.0
X93.57Y-83.5
X95.07Y-22.0
X95.07Y-83.5
X95.1Y-35.426
X95.1Y-96.926
X95.5Y-26.9
X95.5Y-88.4
X100.6Y-43.8
X100.6Y-105.3
X106.0Y-18.4
X106.0Y-79.9
X110.8Y-20.4
X110.8Y-81.9
X110.9Y-47.7
X110.9Y-109.2
X115.9Y-15.4
X115.9Y-76.9
X118.9Y-18.27
X118.9Y-26.9
X118.9Y-79.77
X118.9Y-88.4
X122.3Y-24.2
X122.3Y-85.7
X133.1Y-21.8
X133.1Y-83.3
X139.7Y-21.8
X139.7Y-83.3
T4
X21.72Y-9.116
X21.72Y-70.616
X25.6Y-15.548
X25.6Y-77.048
X30.1Y-33.7
X30.1Y-95.2
X31.5Y-58.3
X31.5Y-119.8
X31.6Y-50.7
X31.6Y-112.2
X31.829Y-9.319
X31.829Y-70.819
X33.0Y-51.6
X33.0Y-113.1
X33.1Y-59.6
X33.1Y-121.1
X36.96Y-9.319
X36.96Y-70.819
X37.8Y-54.1
X37.8Y-55.4
X37.8Y-115.6
X37.8Y-116.9
X44.732Y-14.856
X44.732Y-76.356
X51.997Y-9.014
X51.997Y-70.514
X53.6Y-23.1
X53.6Y-84.6
X57.28Y-9.319
X57.28Y-70.819
X57.3Y-45.1
X57.3Y-106.6
X58.3Y-40.1
X58.3Y-101.6
X58.6Y-37.8
X58.6Y-99.3
X58.8Y-50.1
X58.8Y-111.6
X61.3Y-37.8
X61.3Y-99.3
X62.512Y-12.774
X62.512Y-74.274
X62.6Y-37.8
X62.6Y-99.3
X64.2Y-39.6
X64.2Y-101.1
X64.9Y-48.8
X64.9Y-110.3
X91.72Y-9.116
X91.72Y-70.616
X95.6Y-15.548
X95.6Y-77.048
X100.1Y-33.7
X100.1Y-95.2
X101.5Y-58.3
X101.5Y-119.8
X101.6Y-50.7
X101.6Y-112.2
X101.829Y-9.319
X101.829Y-70.819
X103.0Y-51.6
X103.0Y-113.1
X103.1Y-59.6
X103.1Y-121.1
X106.96Y-9.319
X106.96Y-70.819
X107.8Y-54.1
X107.8Y-55.4
X107.8Y-115.6
X107.8Y-116.9
X114.732Y-14.856
X114.732Y-76.356
X121.997Y-9.014
X121.997Y-70.514
X123.6Y-23.1
X123.6Y-84.6
X127.28Y-9.319
X127.28Y-70.819
X127.3Y-45.1
X127.3Y-106.6
X128.3Y-40.1
X128.3Y-101.6
X128.6Y-37.8
X128.6Y-99.3
X128.8Y-50.1
X128.8Y-111.6
X131.3Y-37.8
X131.3Y-99.3
X132.512Y-12.774
X132.512Y-74.274
X132.6Y-37.8
X132.6Y-99.3
X134.2Y-39.6
X134.2Y-101.1
X134.9Y-48.8
X134.9Y-110.3
T5
X16.67Y-9.05
X16.67Y-70.55
X19.18Y-9.116
X19.18Y-70.616
X24.06Y-49.56
X24.06Y-111.06
X25.7Y-48.9
X25.7Y-110.4
X27.2Y-48.9
X27.2Y-110.4
X31.3Y-48.9
X31.3Y-110.4
X32.9Y-48.9
X32.9Y-110.4
X33.3Y-21.4
X33.3Y-23.3
X33.3Y-82.9
X33.3Y-84.8
X34.7Y-48.4
X34.7Y-109.9
X51.1Y-26.9
X51.1Y-88.4
X52.725Y-26.875
X52.725Y-88.375
X54.225Y-26.875
X54.225Y-88.375
X55.1Y-20.5
X55.1Y-82.0
X56.425Y-20.575
X56.425Y-82.075
X58.1Y-18.8
X58.1Y-80.3
X59.9Y-18.8
X59.9Y-80.3
X61.4Y-18.8
X61.4Y-80.3
X61.448Y-25.1
X61.448Y-86.6
X61.6Y-43.3
X61.6Y-104.8
X63.5Y-24.7
X63.5Y-86.2
X64.2Y-43.2
X64.2Y-104.7
X66.2Y-24.7
X66.2Y-86.2
X66.8Y-43.2
X66.8Y-104.7
X69.3Y-27.2
X69.3Y-88.7
X69.9Y-45.6
X69.9Y-107.1
X86.67Y-9.05
X86.67Y-70.55
X89.18Y-9.116
X89.18Y-70.616
X94.06Y-49.56
X94.06Y-111.06
X95.7Y-48.9
X95.7Y-110.4
X97.2Y-48.9
X97.2Y-110.4
X101.3Y-48.9
X101.3Y-110.4
X102.9Y-48.9
X102.9Y-110.4
X103.3Y-21.4
X103.3Y-23.3
X103.3Y-82.9
X103.3Y-84.8
X104.7Y-48.4
X104.7Y-109.9
X121.1Y-26.9
X121.1Y-88.4
X122.725Y-26.875
X122.725Y-88.375
X124.225Y-26.875
X124.225Y-88.375
X125.1Y-20.5
X125.1Y-82.0
X126.425Y-20.575
X126.425Y-82.075
X128.1Y-18.8
X128.1Y-80.3
X129.9Y-18.8
X129.9Y-80.3
X131.4Y-18.8
X131.4Y-80.3
X131.448Y-25.1
X131.448Y-86.6
X131.6Y-43.3
X131.6Y-104.8
X133.5Y-24.7
X133.5Y-86.2
X134.2Y-43.2
X134.2Y-104.7
X136.2Y-24.7
X136.2Y-86.2
X136.8Y-43.2
X136.8Y-104.7
X139.3Y-27.2
X139.3Y-88.7
X139.9Y-45.6
X139.9Y-107.1
T6
X12.0Y-32.045
X12.0Y-34.585
X12.0Y-37.125
X12.0Y-39.665
X12.0Y-42.205
X12.0Y-44.745
X12.0Y-52.365
X12.0Y-54.905
X12.0Y-93.545
X12.0Y-96.085
X12.0Y-98.625
X12.0Y-101.165
X12.0Y-103.705
X12.0Y-106.245
X12.0Y-113.865
X12.0Y-116.405
X14.54Y-32.045
X14.54Y-34.585
X14.54Y-37.125
X14.54Y-39.665
X14.54Y-42.205
X14.54Y-44.745
X14.54Y-52.365
X14.54Y-54.905
X14.54Y-93.545
X14.54Y-96.085
X14.54Y-98.625
X14.54Y-101.165
X14.54Y-103.705
X14.54Y-106.245
X14.54Y-113.865
X14.54Y-116.405
X20.15Y-46.3
X20.15Y-107.8
X25.45Y-46.3
X25.45Y-107.8
X32.95Y-46.255
X32.95Y-107.755
X38.25Y-46.255
X38.25Y-107.755
X45.75Y-46.255
X45.75Y-107.755
X51.05Y-46.255
X51.05Y-107.755
X56.5Y-29.5
X56.5Y-32.04
X56.5Y-91.0
X56.5Y-93.54
X59.04Y-29.5
X59.04Y-32.04
X59.04Y-91.0
X59.04Y-93.54
X82.0Y-32.045
X82.0Y-34.585
X82.0Y-37.125
X82.0Y-39.665
X82.0Y-42.205
X82.0Y-44.745
X82.0Y-52.365
X82.0Y-54.905
X82.0Y-93.545
X82.0Y-96.085
X82.0Y-98.625
X82.0Y-101.165
X82.0Y-103.705
X82.0Y-106.245
X82.0Y-113.865
X82.0Y-116.405
X84.54Y-32.045
X84.54Y-34.585
X84.54Y-37.125
X84.54Y-39.665
X84.54Y-42.205
X84.54Y-44.745
X84.54Y-52.365
X84.54Y-54.905
X84.54Y-93.545
X84.54Y-96.085
X84.54Y-98.625
X84.54Y-101.165
X84.54Y-103.705
X84.54Y-106.245
X84.54Y-113.865
X84.54Y-116.405
X90.15Y-46.3
X90.15Y-107.8
X95.45Y-46.3
X95.45Y-107.8
X102.95Y-46.255
X102.95Y-107.755
X108.25Y-46.255
X108.25Y-107.755
X115.75Y-46.255
X115.75Y-107.755
X121.05Y-46.255
X121.05Y-107.755
X126.5Y-29.5
X126.5Y-32.04
X126.5Y-91.0
X126.5Y-93.54
X129.04Y-29.5
X129.04Y-32.04
X129.04Y-91.0
X129.04Y-93.54
T7
X15.37Y-9.73
X15.37Y-12.27
X15.37Y-71.23
X15.37Y-73.77
X17.91Y-9.73
X17.91Y-12.27
X17.91Y-71.23
X17.91Y-73.77
X20.45Y-9.73
X20.45Y-12.27
X20.45Y-71.23
X20.45Y-73.77
X22.99Y-9.73
X22.99Y-12.27
X22.99Y-71.23
X22.99Y-73.77
X25.53Y-9.73
X25.53Y-12.27
X25.53Y-71.23
X25.53Y-73.77
X28.07Y-9.73
X28.07Y-12.27
X28.07Y-71.23
X28.07Y-73.77
X30.61Y-9.73
X30.61Y-12.27
X30.61Y-71.23
X30.61Y-73.77
X33.15Y-9.73
X33.15Y-12.27
X33.15Y-71.23
X33.15Y-73.77
X35.69Y-9.73
X35.69Y-12.27
X35.69Y-71.23
X35.69Y-73.77
X38.23Y-9.73
X38.23Y-12.27
X38.23Y-71.23
X38.23Y-73.77
X40.77Y-9.73
X40.77Y-12.27
X40.77Y-71.23
X40.77Y-73.77
X43.31Y-9.73
X43.31Y-12.27
X43.31Y-71.23
X43.31Y-73.77
X45.85Y-9.73
X45.85Y-12.27
X45.85Y-71.23
X45.85Y-73.77
X48.39Y-9.73
X48.39Y-12.27
X48.39Y-71.23
X48.39Y-73.77
X50.93Y-9.73
X50.93Y-12.27
X50.93Y-71.23
X50.93Y-73.77
X53.47Y-9.73
X53.47Y-12.27
X53.47Y-71.23
X53.47Y-73.77
X56.01Y-9.73
X56.01Y-12.27
X56.01Y-71.23
X56.01Y-73.77
X58.55Y-9.73
X58.55Y-12.27
X58.55Y-71.23
X58.55Y-73.77
X61.09Y-9.73
X61.09Y-12.27
X61.09Y-71.23
X61.09Y-73.77
X63.63Y-9.73
X63.63Y-12.27
X63.63Y-71.23
X63.63Y-73.77
X85.37Y-9.73
X85.37Y-12.27
X85.37Y-71.23
X85.37Y-73.77
X87.91Y-9.73
X87.91Y-12.27
X87.91Y-71.23
X87.91Y-73.77
X90.45Y-9.73
X90.45Y-12.27
X90.45Y-71.23
X90.45Y-73.77
X92.99Y-9.73
X92.99Y-12.27
X92.99Y-71.23
X92.99Y-73.77
X95.53Y-9.73
X95.53Y-12.27
X95.53Y-71.23
X95.53Y-73.77
X98.07Y-9.73
X98.07Y-12.27
X98.07Y-71.23
X98.07Y-73.77
X100.61Y-9.73
X100.61Y-12.27
X100.61Y-71.23
X100.61Y-73.77
X103.15Y-9.73
X103.15Y-12.27
X103.15Y-71.23
X103.15Y-73.77
X105.69Y-9.73
X105.69Y-12.27
X105.69Y-71.23
X105.69Y-73.77
X108.23Y-9.73
X108.23Y-12.27
X108.23Y-71.23
X108.23Y-73.77
X110.77Y-9.73
X110.77Y-12.27
X110.77Y-71.23
X110.77Y-73.77
X113.31Y-9.73
X113.31Y-12.27
X113.31Y-71.23
X113.31Y-73.77
X115.85Y-9.73
X115.85Y-12.27
X115.85Y-71.23
X115.85Y-73.77
X118.39Y-9.73
X118.39Y-12.27
X118.39Y-71.23
X118.39Y-73.77
X120.93Y-9.73
X120.93Y-12.27
X120.93Y-71.23
X120.93Y-73.77
X123.47Y-9.73
X123.47Y-12.27
X123.47Y-71.23
X123.47Y-73.77
X126.01Y-9.73
X126.01Y-12.27
X126.01Y-71.23
X126.01Y-73.77
X128.55Y-9.73
X128.55Y-12.27
X128.55Y-71.23
X128.55Y-73.77
X131.09Y-9.73
X131.09Y-12.27
X131.09Y-71.23
X131.09Y-73.77
X133.63Y-9.73
X133.63Y-12.27
X133.63Y-71.23
X133.63Y-73.77
T8
X20.25Y-54.967
X20.25Y-116.468
X24.06Y-54.967
X24.06Y-116.468
X58.15Y-55.067
X58.15Y-116.567
X61.96Y-55.067
X61.96Y-116.567
X90.25Y-54.967
X90.25Y-116.468
X94.06Y-54.967
X94.06Y-116.468
X128.15Y-55.067
X128.15Y-116.567
X131.96Y-55.067
X131.96Y-116.567
T9
X2.5Y-2.5
X2.5Y-129.5
X146.5Y-2.5
X146.5Y-129.5
T10
X16.64Y-11.0
X16.64Y-72.5
X62.36Y-11.0
X62.36Y-72.5
X86.64Y-11.0
X86.64Y-72.5
X132.36Y-11.0
X132.36Y-72.5
T11
X10.5Y-11.0
X10.5Y-60.0
X10.5Y-72.5
X10.5Y-121.5
X68.5Y-11.0
X68.5Y-60.0
X68.5Y-72.5
X68.5Y-121.5
X80.5Y-11.0
X80.5Y-60.0
X80.5Y-72.5
X80.5Y-121.5
X138.5Y-11.0
X138.5Y-60.0
X138.5Y-72.5
X138.5Y-121.5
T0
M30
