G04 #@! TF.GenerationSoftware,KiCad,Pcbnew,(6.0.10-0)*
G04 #@! TF.CreationDate,2023-02-15T19:17:08+02:00*
G04 #@! TF.ProjectId,SH-RPi-panel,53482d52-5069-42d7-9061-6e656c2e6b69,v2.0.0*
G04 #@! TF.SameCoordinates,Original*
G04 #@! TF.FileFunction,Copper,L4,Bot*
G04 #@! TF.FilePolarity,Positive*
%FSLAX46Y46*%
G04 Gerber Fmt 4.6, Leading zero omitted, Abs format (unit mm)*
G04 Created by KiCad (PCBNEW (6.0.10-0)) date 2023-02-15 19:17:08*
%MOMM*%
%LPD*%
G01*
G04 APERTURE LIST*
G04 Aperture macros list*
%AMRoundRect*
0 Rectangle with rounded corners*
0 $1 Rounding radius*
0 $2 $3 $4 $5 $6 $7 $8 $9 X,Y pos of 4 corners*
0 Add a 4 corners polygon primitive as box body*
4,1,4,$2,$3,$4,$5,$6,$7,$8,$9,$2,$3,0*
0 Add four circle primitives for the rounded corners*
1,1,$1+$1,$2,$3*
1,1,$1+$1,$4,$5*
1,1,$1+$1,$6,$7*
1,1,$1+$1,$8,$9*
0 Add four rect primitives between the rounded corners*
20,1,$1+$1,$2,$3,$4,$5,0*
20,1,$1+$1,$4,$5,$6,$7,0*
20,1,$1+$1,$6,$7,$8,$9,0*
20,1,$1+$1,$8,$9,$2,$3,0*%
%AMFreePoly0*
4,1,6,1.000000,0.000000,0.500000,-0.750000,-0.500000,-0.750000,-0.500000,0.750000,0.500000,0.750000,1.000000,0.000000,1.000000,0.000000,$1*%
%AMFreePoly1*
4,1,6,0.500000,-0.750000,-0.650000,-0.750000,-0.150000,0.000000,-0.650000,0.750000,0.500000,0.750000,0.500000,-0.750000,0.500000,-0.750000,$1*%
G04 Aperture macros list end*
G04 #@! TA.AperFunction,ComponentPad*
%ADD10R,1.700000X1.700000*%
G04 #@! TD*
G04 #@! TA.AperFunction,ComponentPad*
%ADD11O,1.700000X1.700000*%
G04 #@! TD*
G04 #@! TA.AperFunction,ComponentPad*
%ADD12RoundRect,0.250000X-0.650000X-1.550000X0.650000X-1.550000X0.650000X1.550000X-0.650000X1.550000X0*%
G04 #@! TD*
G04 #@! TA.AperFunction,ComponentPad*
%ADD13O,1.800000X3.600000*%
G04 #@! TD*
G04 #@! TA.AperFunction,ComponentPad*
%ADD14R,2.000000X2.000000*%
G04 #@! TD*
G04 #@! TA.AperFunction,ComponentPad*
%ADD15C,2.000000*%
G04 #@! TD*
G04 #@! TA.AperFunction,ComponentPad*
%ADD16C,0.500000*%
G04 #@! TD*
G04 #@! TA.AperFunction,SMDPad,CuDef*
%ADD17R,1.900000X2.900000*%
G04 #@! TD*
G04 #@! TA.AperFunction,SMDPad,CuDef*
%ADD18FreePoly0,0.000000*%
G04 #@! TD*
G04 #@! TA.AperFunction,SMDPad,CuDef*
%ADD19FreePoly1,0.000000*%
G04 #@! TD*
G04 #@! TA.AperFunction,SMDPad,CuDef*
%ADD20R,1.000000X1.500000*%
G04 #@! TD*
G04 #@! TA.AperFunction,SMDPad,CuDef*
%ADD21R,1.400000X1.230000*%
G04 #@! TD*
G04 #@! TA.AperFunction,ComponentPad*
%ADD22C,1.500000*%
G04 #@! TD*
G04 #@! TA.AperFunction,SMDPad,CuDef*
%ADD23C,2.000000*%
G04 #@! TD*
G04 #@! TA.AperFunction,SMDPad,CuDef*
%ADD24R,3.900000X4.200000*%
G04 #@! TD*
G04 #@! TA.AperFunction,TestPad*
%ADD25C,10.200000*%
G04 #@! TD*
G04 #@! TA.AperFunction,ViaPad*
%ADD26C,0.600000*%
G04 #@! TD*
G04 #@! TA.AperFunction,ViaPad*
%ADD27C,0.500000*%
G04 #@! TD*
G04 #@! TA.AperFunction,ViaPad*
%ADD28C,1.000000*%
G04 #@! TD*
G04 #@! TA.AperFunction,ViaPad*
%ADD29C,0.800000*%
G04 #@! TD*
G04 #@! TA.AperFunction,Conductor*
%ADD30C,0.400000*%
G04 #@! TD*
G04 #@! TA.AperFunction,Conductor*
%ADD31C,2.000000*%
G04 #@! TD*
G04 #@! TA.AperFunction,Conductor*
%ADD32C,1.000000*%
G04 #@! TD*
G04 #@! TA.AperFunction,Conductor*
%ADD33C,0.250000*%
G04 #@! TD*
G04 #@! TA.AperFunction,Conductor*
%ADD34C,0.200000*%
G04 #@! TD*
G04 #@! TA.AperFunction,Conductor*
%ADD35C,0.600000*%
G04 #@! TD*
G04 #@! TA.AperFunction,Conductor*
%ADD36C,1.500000*%
G04 #@! TD*
G04 APERTURE END LIST*
G04 #@! TO.C,JP801*
G36*
X49800000Y-17000000D02*
G01*
X49300000Y-17000000D01*
X49300000Y-16600000D01*
X49800000Y-16600000D01*
X49800000Y-17000000D01*
G37*
G36*
X49800000Y-17800000D02*
G01*
X49300000Y-17800000D01*
X49300000Y-17400000D01*
X49800000Y-17400000D01*
X49800000Y-17800000D01*
G37*
G36*
X119800000Y-78500000D02*
G01*
X119300000Y-78500000D01*
X119300000Y-78100000D01*
X119800000Y-78100000D01*
X119800000Y-78500000D01*
G37*
G36*
X119800000Y-79300000D02*
G01*
X119300000Y-79300000D01*
X119300000Y-78900000D01*
X119800000Y-78900000D01*
X119800000Y-79300000D01*
G37*
G36*
X49800000Y-78500000D02*
G01*
X49300000Y-78500000D01*
X49300000Y-78100000D01*
X49800000Y-78100000D01*
X49800000Y-78500000D01*
G37*
G36*
X49800000Y-79300000D02*
G01*
X49300000Y-79300000D01*
X49300000Y-78900000D01*
X49800000Y-78900000D01*
X49800000Y-79300000D01*
G37*
G36*
X119800000Y-17000000D02*
G01*
X119300000Y-17000000D01*
X119300000Y-16600000D01*
X119800000Y-16600000D01*
X119800000Y-17000000D01*
G37*
G36*
X119800000Y-17800000D02*
G01*
X119300000Y-17800000D01*
X119300000Y-17400000D01*
X119800000Y-17400000D01*
X119800000Y-17800000D01*
G37*
G04 #@! TD*
D10*
G04 #@! TO.P,J301,1,Pin_1*
G04 #@! TO.N,Board_3-/Iin*
X126500000Y-91000000D03*
D11*
G04 #@! TO.P,J301,2,Pin_2*
G04 #@! TO.N,Board_3-/Buck converter stage 1/I1A9*
X129040000Y-91000000D03*
G04 #@! TO.P,J301,3,Pin_3*
G04 #@! TO.N,Board_3-/Iin*
X126500000Y-93540000D03*
G04 #@! TO.P,J301,4,Pin_4*
G04 #@! TO.N,Board_3-/Buck converter stage 1/I2A9*
X129040000Y-93540000D03*
G04 #@! TD*
D12*
G04 #@! TO.P,J101,1,Pin_1*
G04 #@! TO.N,Board_1-/Protection/GND_in*
X128150000Y-55067500D03*
D13*
G04 #@! TO.P,J101,2,Pin_2*
G04 #@! TO.N,Board_1-/Vin*
X131960000Y-55067500D03*
G04 #@! TD*
D10*
G04 #@! TO.P,J402,1,Pin_1*
G04 #@! TO.N,Board_0-/Control MCU/TXD5J*
X12000000Y-32045200D03*
D11*
G04 #@! TO.P,J402,2,Pin_2*
G04 #@! TO.N,Board_0-/TXD5*
X14540000Y-32045200D03*
G04 #@! TO.P,J402,3,Pin_3*
G04 #@! TO.N,Board_0-/Control MCU/RESET*
X12000000Y-34585200D03*
G04 #@! TO.P,J402,4,Pin_4*
G04 #@! TO.N,Board_0-/RXD5*
X14540000Y-34585200D03*
G04 #@! TO.P,J402,5,Pin_5*
G04 #@! TO.N,Board_0-/EN5V*
X12000000Y-37125200D03*
G04 #@! TO.P,J402,6,Pin_6*
G04 #@! TO.N,Board_0-+3V3*
X14540000Y-37125200D03*
G04 #@! TO.P,J402,7,Pin_7*
G04 #@! TO.N,Board_0-GND*
X12000000Y-39665200D03*
G04 #@! TO.P,J402,8,Pin_8*
X14540000Y-39665200D03*
G04 #@! TO.P,J402,9,Pin_9*
G04 #@! TO.N,Board_0-/Control MCU/RXD*
X12000000Y-42205200D03*
G04 #@! TO.P,J402,10,Pin_10*
G04 #@! TO.N,Board_0-/TXD0*
X14540000Y-42205200D03*
G04 #@! TO.P,J402,11,Pin_11*
G04 #@! TO.N,Board_0-/Control MCU/TXD*
X12000000Y-44745200D03*
G04 #@! TO.P,J402,12,Pin_12*
G04 #@! TO.N,Board_0-/RXD0*
X14540000Y-44745200D03*
G04 #@! TD*
D12*
G04 #@! TO.P,J101,1,Pin_1*
G04 #@! TO.N,Board_0-/Protection/GND_in*
X58150000Y-55067500D03*
D13*
G04 #@! TO.P,J101,2,Pin_2*
G04 #@! TO.N,Board_0-/Vin*
X61960000Y-55067500D03*
G04 #@! TD*
D14*
G04 #@! TO.P,C1006,1*
G04 #@! TO.N,Board_3-/Supercapacitor/SC12*
X95450000Y-107800000D03*
D15*
G04 #@! TO.P,C1006,2*
G04 #@! TO.N,Board_3-GND*
X90150000Y-107800000D03*
G04 #@! TD*
D10*
G04 #@! TO.P,J402,1,Pin_1*
G04 #@! TO.N,Board_2-/Control MCU/TXD5J*
X12000000Y-93545200D03*
D11*
G04 #@! TO.P,J402,2,Pin_2*
G04 #@! TO.N,Board_2-/TXD5*
X14540000Y-93545200D03*
G04 #@! TO.P,J402,3,Pin_3*
G04 #@! TO.N,Board_2-/Control MCU/RESET*
X12000000Y-96085200D03*
G04 #@! TO.P,J402,4,Pin_4*
G04 #@! TO.N,Board_2-/RXD5*
X14540000Y-96085200D03*
G04 #@! TO.P,J402,5,Pin_5*
G04 #@! TO.N,Board_2-/EN5V*
X12000000Y-98625200D03*
G04 #@! TO.P,J402,6,Pin_6*
G04 #@! TO.N,Board_2-+3V3*
X14540000Y-98625200D03*
G04 #@! TO.P,J402,7,Pin_7*
G04 #@! TO.N,Board_2-GND*
X12000000Y-101165200D03*
G04 #@! TO.P,J402,8,Pin_8*
X14540000Y-101165200D03*
G04 #@! TO.P,J402,9,Pin_9*
G04 #@! TO.N,Board_2-/Control MCU/RXD*
X12000000Y-103705200D03*
G04 #@! TO.P,J402,10,Pin_10*
G04 #@! TO.N,Board_2-/TXD0*
X14540000Y-103705200D03*
G04 #@! TO.P,J402,11,Pin_11*
G04 #@! TO.N,Board_2-/Control MCU/TXD*
X12000000Y-106245200D03*
G04 #@! TO.P,J402,12,Pin_12*
G04 #@! TO.N,Board_2-/RXD0*
X14540000Y-106245200D03*
G04 #@! TD*
D12*
G04 #@! TO.P,J502,1,Pin_1*
G04 #@! TO.N,Board_2-GND*
X20250000Y-116467500D03*
D13*
G04 #@! TO.P,J502,2,Pin_2*
G04 #@! TO.N,Board_2-+5V*
X24060000Y-116467500D03*
G04 #@! TD*
D14*
G04 #@! TO.P,C1006,1*
G04 #@! TO.N,Board_1-/Supercapacitor/SC12*
X95450000Y-46300000D03*
D15*
G04 #@! TO.P,C1006,2*
G04 #@! TO.N,Board_1-GND*
X90150000Y-46300000D03*
G04 #@! TD*
D10*
G04 #@! TO.P,J401,1,Pin_1*
G04 #@! TO.N,Board_3-GND*
X82000000Y-113865200D03*
D11*
G04 #@! TO.P,J401,2,Pin_2*
G04 #@! TO.N,Board_3-/Control MCU/EXT_CONN*
X84540000Y-113865200D03*
G04 #@! TO.P,J401,3,Pin_3*
G04 #@! TO.N,Board_3-GND*
X82000000Y-116405200D03*
G04 #@! TO.P,J401,4,Pin_4*
G04 #@! TO.N,Board_3-/Control MCU/POW_CONN*
X84540000Y-116405200D03*
G04 #@! TD*
D16*
G04 #@! TO.P,U201,9,PGND*
G04 #@! TO.N,Board_0-GND*
X66150000Y-26625000D03*
X64750000Y-27825000D03*
X64750000Y-29025000D03*
X66150000Y-27825000D03*
X66150000Y-29025000D03*
D17*
X65450000Y-27825000D03*
D16*
X64750000Y-26625000D03*
G04 #@! TD*
D14*
G04 #@! TO.P,C1005,1*
G04 #@! TO.N,Board_3-/Supercapacitor/SC23*
X108250000Y-107755000D03*
D15*
G04 #@! TO.P,C1005,2*
G04 #@! TO.N,Board_3-/Supercapacitor/SC12*
X102950000Y-107755000D03*
G04 #@! TD*
D16*
G04 #@! TO.P,U201,9,PGND*
G04 #@! TO.N,Board_2-GND*
X64750000Y-88125000D03*
D17*
X65450000Y-89325000D03*
D16*
X64750000Y-90525000D03*
X64750000Y-89325000D03*
X66150000Y-89325000D03*
X66150000Y-90525000D03*
X66150000Y-88125000D03*
G04 #@! TD*
D10*
G04 #@! TO.P,J301,1,Pin_1*
G04 #@! TO.N,Board_2-/Iin*
X56500000Y-91000000D03*
D11*
G04 #@! TO.P,J301,2,Pin_2*
G04 #@! TO.N,Board_2-/Buck converter stage 1/I1A9*
X59040000Y-91000000D03*
G04 #@! TO.P,J301,3,Pin_3*
G04 #@! TO.N,Board_2-/Iin*
X56500000Y-93540000D03*
G04 #@! TO.P,J301,4,Pin_4*
G04 #@! TO.N,Board_2-/Buck converter stage 1/I2A9*
X59040000Y-93540000D03*
G04 #@! TD*
D14*
G04 #@! TO.P,C1006,1*
G04 #@! TO.N,Board_2-/Supercapacitor/SC12*
X25450000Y-107800000D03*
D15*
G04 #@! TO.P,C1006,2*
G04 #@! TO.N,Board_2-GND*
X20150000Y-107800000D03*
G04 #@! TD*
D16*
G04 #@! TO.P,U301,9,PGND*
G04 #@! TO.N,Board_1-GND*
X135350000Y-47425000D03*
D17*
X136050000Y-46225000D03*
D16*
X135350000Y-46225000D03*
X136750000Y-46225000D03*
X136750000Y-45025000D03*
X136750000Y-47425000D03*
X135350000Y-45025000D03*
G04 #@! TD*
D14*
G04 #@! TO.P,C1004,1*
G04 #@! TO.N,Board_1-/Vcap*
X121050000Y-46255000D03*
D15*
G04 #@! TO.P,C1004,2*
G04 #@! TO.N,Board_1-/Supercapacitor/SC23*
X115750000Y-46255000D03*
G04 #@! TD*
D10*
G04 #@! TO.P,J301,1,Pin_1*
G04 #@! TO.N,Board_0-/Iin*
X56500000Y-29500000D03*
D11*
G04 #@! TO.P,J301,2,Pin_2*
G04 #@! TO.N,Board_0-/Buck converter stage 1/I1A9*
X59040000Y-29500000D03*
G04 #@! TO.P,J301,3,Pin_3*
G04 #@! TO.N,Board_0-/Iin*
X56500000Y-32040000D03*
G04 #@! TO.P,J301,4,Pin_4*
G04 #@! TO.N,Board_0-/Buck converter stage 1/I2A9*
X59040000Y-32040000D03*
G04 #@! TD*
D16*
G04 #@! TO.P,U301,9,PGND*
G04 #@! TO.N,Board_3-GND*
X136750000Y-106525000D03*
X135350000Y-108925000D03*
X135350000Y-106525000D03*
X136750000Y-107725000D03*
X136750000Y-108925000D03*
D17*
X136050000Y-107725000D03*
D16*
X135350000Y-107725000D03*
G04 #@! TD*
D12*
G04 #@! TO.P,J502,1,Pin_1*
G04 #@! TO.N,Board_3-GND*
X90250000Y-116467500D03*
D13*
G04 #@! TO.P,J502,2,Pin_2*
G04 #@! TO.N,Board_3-+5V*
X94060000Y-116467500D03*
G04 #@! TD*
D10*
G04 #@! TO.P,J401,1,Pin_1*
G04 #@! TO.N,Board_2-GND*
X12000000Y-113865200D03*
D11*
G04 #@! TO.P,J401,2,Pin_2*
G04 #@! TO.N,Board_2-/Control MCU/EXT_CONN*
X14540000Y-113865200D03*
G04 #@! TO.P,J401,3,Pin_3*
G04 #@! TO.N,Board_2-GND*
X12000000Y-116405200D03*
G04 #@! TO.P,J401,4,Pin_4*
G04 #@! TO.N,Board_2-/Control MCU/POW_CONN*
X14540000Y-116405200D03*
G04 #@! TD*
D14*
G04 #@! TO.P,C1005,1*
G04 #@! TO.N,Board_2-/Supercapacitor/SC23*
X38250000Y-107755000D03*
D15*
G04 #@! TO.P,C1005,2*
G04 #@! TO.N,Board_2-/Supercapacitor/SC12*
X32950000Y-107755000D03*
G04 #@! TD*
D14*
G04 #@! TO.P,C1004,1*
G04 #@! TO.N,Board_2-/Vcap*
X51050000Y-107755000D03*
D15*
G04 #@! TO.P,C1004,2*
G04 #@! TO.N,Board_2-/Supercapacitor/SC23*
X45750000Y-107755000D03*
G04 #@! TD*
D16*
G04 #@! TO.P,U201,9,PGND*
G04 #@! TO.N,Board_1-GND*
X136150000Y-26625000D03*
X134750000Y-27825000D03*
D17*
X135450000Y-27825000D03*
D16*
X134750000Y-26625000D03*
X136150000Y-29025000D03*
X134750000Y-29025000D03*
X136150000Y-27825000D03*
G04 #@! TD*
D12*
G04 #@! TO.P,J502,1,Pin_1*
G04 #@! TO.N,Board_1-GND*
X90250000Y-54967500D03*
D13*
G04 #@! TO.P,J502,2,Pin_2*
G04 #@! TO.N,Board_1-+5V*
X94060000Y-54967500D03*
G04 #@! TD*
D12*
G04 #@! TO.P,J101,1,Pin_1*
G04 #@! TO.N,Board_3-/Protection/GND_in*
X128150000Y-116567500D03*
D13*
G04 #@! TO.P,J101,2,Pin_2*
G04 #@! TO.N,Board_3-/Vin*
X131960000Y-116567500D03*
G04 #@! TD*
D10*
G04 #@! TO.P,J401,1,Pin_1*
G04 #@! TO.N,Board_1-GND*
X82000000Y-52365200D03*
D11*
G04 #@! TO.P,J401,2,Pin_2*
G04 #@! TO.N,Board_1-/Control MCU/EXT_CONN*
X84540000Y-52365200D03*
G04 #@! TO.P,J401,3,Pin_3*
G04 #@! TO.N,Board_1-GND*
X82000000Y-54905200D03*
G04 #@! TO.P,J401,4,Pin_4*
G04 #@! TO.N,Board_1-/Control MCU/POW_CONN*
X84540000Y-54905200D03*
G04 #@! TD*
D17*
G04 #@! TO.P,U301,9,PGND*
G04 #@! TO.N,Board_0-GND*
X66050000Y-46225000D03*
D16*
X65350000Y-45025000D03*
X66750000Y-46225000D03*
X65350000Y-47425000D03*
X66750000Y-45025000D03*
X65350000Y-46225000D03*
X66750000Y-47425000D03*
G04 #@! TD*
D14*
G04 #@! TO.P,C1005,1*
G04 #@! TO.N,Board_0-/Supercapacitor/SC23*
X38250000Y-46255000D03*
D15*
G04 #@! TO.P,C1005,2*
G04 #@! TO.N,Board_0-/Supercapacitor/SC12*
X32950000Y-46255000D03*
G04 #@! TD*
D12*
G04 #@! TO.P,J502,1,Pin_1*
G04 #@! TO.N,Board_0-GND*
X20250000Y-54967500D03*
D13*
G04 #@! TO.P,J502,2,Pin_2*
G04 #@! TO.N,Board_0-+5V*
X24060000Y-54967500D03*
G04 #@! TD*
D10*
G04 #@! TO.P,J401,1,Pin_1*
G04 #@! TO.N,Board_0-GND*
X12000000Y-52365200D03*
D11*
G04 #@! TO.P,J401,2,Pin_2*
G04 #@! TO.N,Board_0-/Control MCU/EXT_CONN*
X14540000Y-52365200D03*
G04 #@! TO.P,J401,3,Pin_3*
G04 #@! TO.N,Board_0-GND*
X12000000Y-54905200D03*
G04 #@! TO.P,J401,4,Pin_4*
G04 #@! TO.N,Board_0-/Control MCU/POW_CONN*
X14540000Y-54905200D03*
G04 #@! TD*
D14*
G04 #@! TO.P,C1006,1*
G04 #@! TO.N,Board_0-/Supercapacitor/SC12*
X25450000Y-46300000D03*
D15*
G04 #@! TO.P,C1006,2*
G04 #@! TO.N,Board_0-GND*
X20150000Y-46300000D03*
G04 #@! TD*
D10*
G04 #@! TO.P,J402,1,Pin_1*
G04 #@! TO.N,Board_1-/Control MCU/TXD5J*
X82000000Y-32045200D03*
D11*
G04 #@! TO.P,J402,2,Pin_2*
G04 #@! TO.N,Board_1-/TXD5*
X84540000Y-32045200D03*
G04 #@! TO.P,J402,3,Pin_3*
G04 #@! TO.N,Board_1-/Control MCU/RESET*
X82000000Y-34585200D03*
G04 #@! TO.P,J402,4,Pin_4*
G04 #@! TO.N,Board_1-/RXD5*
X84540000Y-34585200D03*
G04 #@! TO.P,J402,5,Pin_5*
G04 #@! TO.N,Board_1-/EN5V*
X82000000Y-37125200D03*
G04 #@! TO.P,J402,6,Pin_6*
G04 #@! TO.N,Board_1-+3V3*
X84540000Y-37125200D03*
G04 #@! TO.P,J402,7,Pin_7*
G04 #@! TO.N,Board_1-GND*
X82000000Y-39665200D03*
G04 #@! TO.P,J402,8,Pin_8*
X84540000Y-39665200D03*
G04 #@! TO.P,J402,9,Pin_9*
G04 #@! TO.N,Board_1-/Control MCU/RXD*
X82000000Y-42205200D03*
G04 #@! TO.P,J402,10,Pin_10*
G04 #@! TO.N,Board_1-/TXD0*
X84540000Y-42205200D03*
G04 #@! TO.P,J402,11,Pin_11*
G04 #@! TO.N,Board_1-/Control MCU/TXD*
X82000000Y-44745200D03*
G04 #@! TO.P,J402,12,Pin_12*
G04 #@! TO.N,Board_1-/RXD0*
X84540000Y-44745200D03*
G04 #@! TD*
D16*
G04 #@! TO.P,U301,9,PGND*
G04 #@! TO.N,Board_2-GND*
X65350000Y-108925000D03*
D17*
X66050000Y-107725000D03*
D16*
X66750000Y-107725000D03*
X66750000Y-108925000D03*
X65350000Y-106525000D03*
X65350000Y-107725000D03*
X66750000Y-106525000D03*
G04 #@! TD*
D12*
G04 #@! TO.P,J101,1,Pin_1*
G04 #@! TO.N,Board_2-/Protection/GND_in*
X58150000Y-116567500D03*
D13*
G04 #@! TO.P,J101,2,Pin_2*
G04 #@! TO.N,Board_2-/Vin*
X61960000Y-116567500D03*
G04 #@! TD*
D10*
G04 #@! TO.P,J301,1,Pin_1*
G04 #@! TO.N,Board_1-/Iin*
X126500000Y-29500000D03*
D11*
G04 #@! TO.P,J301,2,Pin_2*
G04 #@! TO.N,Board_1-/Buck converter stage 1/I1A9*
X129040000Y-29500000D03*
G04 #@! TO.P,J301,3,Pin_3*
G04 #@! TO.N,Board_1-/Iin*
X126500000Y-32040000D03*
G04 #@! TO.P,J301,4,Pin_4*
G04 #@! TO.N,Board_1-/Buck converter stage 1/I2A9*
X129040000Y-32040000D03*
G04 #@! TD*
D14*
G04 #@! TO.P,C1004,1*
G04 #@! TO.N,Board_3-/Vcap*
X121050000Y-107755000D03*
D15*
G04 #@! TO.P,C1004,2*
G04 #@! TO.N,Board_3-/Supercapacitor/SC23*
X115750000Y-107755000D03*
G04 #@! TD*
D14*
G04 #@! TO.P,C1004,1*
G04 #@! TO.N,Board_0-/Vcap*
X51050000Y-46255000D03*
D15*
G04 #@! TO.P,C1004,2*
G04 #@! TO.N,Board_0-/Supercapacitor/SC23*
X45750000Y-46255000D03*
G04 #@! TD*
D16*
G04 #@! TO.P,U201,9,PGND*
G04 #@! TO.N,Board_3-GND*
X134750000Y-89325000D03*
X136150000Y-88125000D03*
X136150000Y-90525000D03*
X134750000Y-88125000D03*
X136150000Y-89325000D03*
X134750000Y-90525000D03*
D17*
X135450000Y-89325000D03*
G04 #@! TD*
D14*
G04 #@! TO.P,C1005,1*
G04 #@! TO.N,Board_1-/Supercapacitor/SC23*
X108250000Y-46255000D03*
D15*
G04 #@! TO.P,C1005,2*
G04 #@! TO.N,Board_1-/Supercapacitor/SC12*
X102950000Y-46255000D03*
G04 #@! TD*
D10*
G04 #@! TO.P,J402,1,Pin_1*
G04 #@! TO.N,Board_3-/Control MCU/TXD5J*
X82000000Y-93545200D03*
D11*
G04 #@! TO.P,J402,2,Pin_2*
G04 #@! TO.N,Board_3-/TXD5*
X84540000Y-93545200D03*
G04 #@! TO.P,J402,3,Pin_3*
G04 #@! TO.N,Board_3-/Control MCU/RESET*
X82000000Y-96085200D03*
G04 #@! TO.P,J402,4,Pin_4*
G04 #@! TO.N,Board_3-/RXD5*
X84540000Y-96085200D03*
G04 #@! TO.P,J402,5,Pin_5*
G04 #@! TO.N,Board_3-/EN5V*
X82000000Y-98625200D03*
G04 #@! TO.P,J402,6,Pin_6*
G04 #@! TO.N,Board_3-+3V3*
X84540000Y-98625200D03*
G04 #@! TO.P,J402,7,Pin_7*
G04 #@! TO.N,Board_3-GND*
X82000000Y-101165200D03*
G04 #@! TO.P,J402,8,Pin_8*
X84540000Y-101165200D03*
G04 #@! TO.P,J402,9,Pin_9*
G04 #@! TO.N,Board_3-/Control MCU/RXD*
X82000000Y-103705200D03*
G04 #@! TO.P,J402,10,Pin_10*
G04 #@! TO.N,Board_3-/TXD0*
X84540000Y-103705200D03*
G04 #@! TO.P,J402,11,Pin_11*
G04 #@! TO.N,Board_3-/Control MCU/TXD*
X82000000Y-106245200D03*
G04 #@! TO.P,J402,12,Pin_12*
G04 #@! TO.N,Board_3-/RXD0*
X84540000Y-106245200D03*
G04 #@! TD*
D18*
G04 #@! TO.P,JP501,1,A*
G04 #@! TO.N,Board_1-/I/O/GPIO4*
X93845000Y-17200000D03*
D19*
G04 #@! TO.P,JP501,2,B*
G04 #@! TO.N,Board_1-/RGPIO4*
X95295000Y-17200000D03*
G04 #@! TD*
D20*
G04 #@! TO.P,JP801,1,A*
G04 #@! TO.N,Board_0-+3V3*
X48900000Y-17200000D03*
G04 #@! TO.P,JP801,2,B*
G04 #@! TO.N,Board_0-/RTC/3V3B*
X50200000Y-17200000D03*
G04 #@! TD*
D21*
G04 #@! TO.P,J501,1,3V3*
G04 #@! TO.N,Board_2-unconnected-(J501-Pad1)*
X15370000Y-75485000D03*
D22*
X15370000Y-73770000D03*
G04 #@! TO.P,J501,2,5V*
G04 #@! TO.N,Board_2-+5V*
X15370000Y-71230000D03*
D21*
X15370000Y-69515000D03*
D22*
G04 #@! TO.P,J501,3,SDA/GPIO2*
G04 #@! TO.N,Board_2-/SDA*
X17910000Y-73770000D03*
D21*
X17910000Y-75485000D03*
D22*
G04 #@! TO.P,J501,4,5V*
G04 #@! TO.N,Board_2-+5V*
X17910000Y-71230000D03*
D21*
X17910000Y-69515000D03*
D22*
G04 #@! TO.P,J501,5,SCL/GPIO3*
G04 #@! TO.N,Board_2-/SCL*
X20450000Y-73770000D03*
D21*
X20450000Y-75485000D03*
G04 #@! TO.P,J501,6,GND*
G04 #@! TO.N,Board_2-GND*
X20450000Y-69515000D03*
D22*
X20450000Y-71230000D03*
G04 #@! TO.P,J501,7,GCLK0/GPIO4*
G04 #@! TO.N,Board_2-/I/O/GPIO4*
X22990000Y-73770000D03*
D21*
X22990000Y-75485000D03*
G04 #@! TO.P,J501,8,GPIO14/TXD*
G04 #@! TO.N,Board_2-/TXD0*
X22990000Y-69515000D03*
D22*
X22990000Y-71230000D03*
G04 #@! TO.P,J501,9,GND*
G04 #@! TO.N,Board_2-GND*
X25530000Y-73770000D03*
D21*
X25530000Y-75485000D03*
D22*
G04 #@! TO.P,J501,10,GPIO15/RXD*
G04 #@! TO.N,Board_2-/RXD0*
X25530000Y-71230000D03*
D21*
X25530000Y-69515000D03*
G04 #@! TO.P,J501,11,GPIO17*
G04 #@! TO.N,Board_2-unconnected-(J501-Pad11)*
X28070000Y-75485000D03*
D22*
X28070000Y-73770000D03*
G04 #@! TO.P,J501,12,GPIO18/PWM0*
G04 #@! TO.N,Board_2-unconnected-(J501-Pad12)*
X28070000Y-71230000D03*
D21*
X28070000Y-69515000D03*
D22*
G04 #@! TO.P,J501,13,GPIO27*
G04 #@! TO.N,Board_2-unconnected-(J501-Pad13)*
X30610000Y-73770000D03*
D21*
X30610000Y-75485000D03*
D22*
G04 #@! TO.P,J501,14,GND*
G04 #@! TO.N,Board_2-GND*
X30610000Y-71230000D03*
D21*
X30610000Y-69515000D03*
D22*
G04 #@! TO.P,J501,15,GPIO22*
G04 #@! TO.N,Board_2-unconnected-(J501-Pad15)*
X33150000Y-73770000D03*
D21*
X33150000Y-75485000D03*
D22*
G04 #@! TO.P,J501,16,GPIO23*
G04 #@! TO.N,Board_2-unconnected-(J501-Pad16)*
X33150000Y-71230000D03*
D21*
X33150000Y-69515000D03*
D22*
G04 #@! TO.P,J501,17,3V3*
G04 #@! TO.N,Board_2-unconnected-(J501-Pad17)*
X35690000Y-73770000D03*
D21*
X35690000Y-75485000D03*
D22*
G04 #@! TO.P,J501,18,GPIO24*
G04 #@! TO.N,Board_2-unconnected-(J501-Pad18)*
X35690000Y-71230000D03*
D21*
X35690000Y-69515000D03*
D22*
G04 #@! TO.P,J501,19,MOSI0/GPIO10*
G04 #@! TO.N,Board_2-unconnected-(J501-Pad19)*
X38230000Y-73770000D03*
D21*
X38230000Y-75485000D03*
D22*
G04 #@! TO.P,J501,20,GND*
G04 #@! TO.N,Board_2-GND*
X38230000Y-71230000D03*
D21*
X38230000Y-69515000D03*
D22*
G04 #@! TO.P,J501,21,MISO0/GPIO9*
G04 #@! TO.N,Board_2-unconnected-(J501-Pad21)*
X40770000Y-73770000D03*
D21*
X40770000Y-75485000D03*
G04 #@! TO.P,J501,22,GPIO25*
G04 #@! TO.N,Board_2-unconnected-(J501-Pad22)*
X40770000Y-69515000D03*
D22*
X40770000Y-71230000D03*
D21*
G04 #@! TO.P,J501,23,SCLK0/GPIO11*
G04 #@! TO.N,Board_2-unconnected-(J501-Pad23)*
X43310000Y-75485000D03*
D22*
X43310000Y-73770000D03*
G04 #@! TO.P,J501,24,~{CE0}/GPIO8*
G04 #@! TO.N,Board_2-unconnected-(J501-Pad24)*
X43310000Y-71230000D03*
D21*
X43310000Y-69515000D03*
G04 #@! TO.P,J501,25,GND*
G04 #@! TO.N,Board_2-GND*
X45850000Y-75485000D03*
D22*
X45850000Y-73770000D03*
D21*
G04 #@! TO.P,J501,26,~{CE1}/GPIO7*
G04 #@! TO.N,Board_2-unconnected-(J501-Pad26)*
X45850000Y-69515000D03*
D22*
X45850000Y-71230000D03*
G04 #@! TO.P,J501,27,ID_SD/GPIO0*
G04 #@! TO.N,Board_2-unconnected-(J501-Pad27)*
X48390000Y-73770000D03*
D21*
X48390000Y-75485000D03*
D22*
G04 #@! TO.P,J501,28,ID_SC/GPIO1*
G04 #@! TO.N,Board_2-unconnected-(J501-Pad28)*
X48390000Y-71230000D03*
D21*
X48390000Y-69515000D03*
D22*
G04 #@! TO.P,J501,29,GCLK1/GPIO5*
G04 #@! TO.N,Board_2-unconnected-(J501-Pad29)*
X50930000Y-73770000D03*
D21*
X50930000Y-75485000D03*
G04 #@! TO.P,J501,30,GND*
G04 #@! TO.N,Board_2-GND*
X50930000Y-69515000D03*
D22*
X50930000Y-71230000D03*
G04 #@! TO.P,J501,31,GCLK2/GPIO6*
G04 #@! TO.N,Board_2-unconnected-(J501-Pad31)*
X53470000Y-73770000D03*
D21*
X53470000Y-75485000D03*
D22*
G04 #@! TO.P,J501,32,PWM0/GPIO12*
G04 #@! TO.N,Board_2-/TXD5*
X53470000Y-71230000D03*
D21*
X53470000Y-69515000D03*
G04 #@! TO.P,J501,33,PWM1/GPIO13*
G04 #@! TO.N,Board_2-/RXD5*
X56010000Y-75485000D03*
D22*
X56010000Y-73770000D03*
G04 #@! TO.P,J501,34,GND*
G04 #@! TO.N,Board_2-GND*
X56010000Y-71230000D03*
D21*
X56010000Y-69515000D03*
G04 #@! TO.P,J501,35,GPIO19/MISO1*
G04 #@! TO.N,Board_2-unconnected-(J501-Pad35)*
X58550000Y-75485000D03*
D22*
X58550000Y-73770000D03*
D21*
G04 #@! TO.P,J501,36,GPIO16*
G04 #@! TO.N,Board_2-unconnected-(J501-Pad36)*
X58550000Y-69515000D03*
D22*
X58550000Y-71230000D03*
D21*
G04 #@! TO.P,J501,37,GPIO26*
G04 #@! TO.N,Board_2-unconnected-(J501-Pad37)*
X61090000Y-75485000D03*
D22*
X61090000Y-73770000D03*
G04 #@! TO.P,J501,38,GPIO20/MOSI1*
G04 #@! TO.N,Board_2-unconnected-(J501-Pad38)*
X61090000Y-71230000D03*
D21*
X61090000Y-69515000D03*
D22*
G04 #@! TO.P,J501,39,GND*
G04 #@! TO.N,Board_2-GND*
X63630000Y-73770000D03*
D21*
X63630000Y-75485000D03*
D22*
G04 #@! TO.P,J501,40,GPIO21/SCLK1*
G04 #@! TO.N,Board_2-unconnected-(J501-Pad40)*
X63630000Y-71230000D03*
D21*
X63630000Y-69515000D03*
G04 #@! TD*
D23*
G04 #@! TO.P,TP501,1,1*
G04 #@! TO.N,Board_3-/SDA*
X86300000Y-81300000D03*
G04 #@! TD*
G04 #@! TO.P,TP502,1,1*
G04 #@! TO.N,Board_0-/SCL*
X21300000Y-19800000D03*
G04 #@! TD*
D20*
G04 #@! TO.P,JP801,1,A*
G04 #@! TO.N,Board_3-+3V3*
X118900000Y-78700000D03*
G04 #@! TO.P,JP801,2,B*
G04 #@! TO.N,Board_3-/RTC/3V3B*
X120200000Y-78700000D03*
G04 #@! TD*
D23*
G04 #@! TO.P,TP201,1,1*
G04 #@! TO.N,Board_2-/Buck converter stage 2/SW*
X69000000Y-85300000D03*
G04 #@! TD*
D18*
G04 #@! TO.P,JP501,1,A*
G04 #@! TO.N,Board_0-/I/O/GPIO4*
X23845000Y-17200000D03*
D19*
G04 #@! TO.P,JP501,2,B*
G04 #@! TO.N,Board_0-/RGPIO4*
X25295000Y-17200000D03*
G04 #@! TD*
D23*
G04 #@! TO.P,TP301,1,1*
G04 #@! TO.N,Board_1-/Buck converter stage 1/SW*
X136800000Y-40400000D03*
G04 #@! TD*
D24*
G04 #@! TO.P,J801,1,Pin_1*
G04 #@! TO.N,Board_2-/RTC/VBAT*
X42450000Y-118100000D03*
G04 #@! TO.P,J801,2,Pin_2*
G04 #@! TO.N,Board_2-unconnected-(J801-Pad2)*
X27150000Y-118100000D03*
D25*
G04 #@! TO.P,J801,3,Pin_3*
G04 #@! TO.N,Board_2-GND*
X34800000Y-118100000D03*
G04 #@! TD*
D23*
G04 #@! TO.P,REF\u002A\u002A,*
G04 #@! TO.N,*
X144000000Y-3850000D03*
G04 #@! TD*
G04 #@! TO.P,TP901,1,1*
G04 #@! TO.N,Board_3-+3V3*
X116099999Y-88400000D03*
G04 #@! TD*
D20*
G04 #@! TO.P,JP801,1,A*
G04 #@! TO.N,Board_2-+3V3*
X48900000Y-78700000D03*
G04 #@! TO.P,JP801,2,B*
G04 #@! TO.N,Board_2-/RTC/3V3B*
X50200000Y-78700000D03*
G04 #@! TD*
D23*
G04 #@! TO.P,TP901,1,1*
G04 #@! TO.N,Board_0-+3V3*
X46099999Y-26900000D03*
G04 #@! TD*
G04 #@! TO.P,REF\u002A\u002A,*
G04 #@! TO.N,*
X5000000Y-3850000D03*
G04 #@! TD*
G04 #@! TO.P,TP201,1,1*
G04 #@! TO.N,Board_0-/Buck converter stage 2/SW*
X69000000Y-23800000D03*
G04 #@! TD*
D24*
G04 #@! TO.P,J801,1,Pin_1*
G04 #@! TO.N,Board_1-/RTC/VBAT*
X112450000Y-56600000D03*
G04 #@! TO.P,J801,2,Pin_2*
G04 #@! TO.N,Board_1-unconnected-(J801-Pad2)*
X97150000Y-56600000D03*
D25*
G04 #@! TO.P,J801,3,Pin_3*
G04 #@! TO.N,Board_1-GND*
X104800000Y-56600000D03*
G04 #@! TD*
D23*
G04 #@! TO.P,REF\u002A\u002A,*
G04 #@! TO.N,*
X5000000Y-128150000D03*
G04 #@! TD*
D24*
G04 #@! TO.P,J801,1,Pin_1*
G04 #@! TO.N,Board_3-/RTC/VBAT*
X112450000Y-118100000D03*
G04 #@! TO.P,J801,2,Pin_2*
G04 #@! TO.N,Board_3-unconnected-(J801-Pad2)*
X97150000Y-118100000D03*
D25*
G04 #@! TO.P,J801,3,Pin_3*
G04 #@! TO.N,Board_3-GND*
X104800000Y-118100000D03*
G04 #@! TD*
D23*
G04 #@! TO.P,TP501,1,1*
G04 #@! TO.N,Board_1-/SDA*
X86300000Y-19800000D03*
G04 #@! TD*
D18*
G04 #@! TO.P,JP501,1,A*
G04 #@! TO.N,Board_3-/I/O/GPIO4*
X93845000Y-78700000D03*
D19*
G04 #@! TO.P,JP501,2,B*
G04 #@! TO.N,Board_3-/RGPIO4*
X95295000Y-78700000D03*
G04 #@! TD*
D23*
G04 #@! TO.P,TP502,1,1*
G04 #@! TO.N,Board_3-/SCL*
X91300000Y-81300000D03*
G04 #@! TD*
D24*
G04 #@! TO.P,J801,1,Pin_1*
G04 #@! TO.N,Board_0-/RTC/VBAT*
X42450000Y-56600000D03*
G04 #@! TO.P,J801,2,Pin_2*
G04 #@! TO.N,Board_0-unconnected-(J801-Pad2)*
X27150000Y-56600000D03*
D25*
G04 #@! TO.P,J801,3,Pin_3*
G04 #@! TO.N,Board_0-GND*
X34800000Y-56600000D03*
G04 #@! TD*
D23*
G04 #@! TO.P,TP502,1,1*
G04 #@! TO.N,Board_2-/SCL*
X21300000Y-81300000D03*
G04 #@! TD*
G04 #@! TO.P,TP301,1,1*
G04 #@! TO.N,Board_2-/Buck converter stage 1/SW*
X66800000Y-101900000D03*
G04 #@! TD*
G04 #@! TO.P,TP901,1,1*
G04 #@! TO.N,Board_1-+3V3*
X116099999Y-26900000D03*
G04 #@! TD*
D22*
G04 #@! TO.P,J501,1,3V3*
G04 #@! TO.N,Board_0-unconnected-(J501-Pad1)*
X15370000Y-12270000D03*
D21*
X15370000Y-13985000D03*
G04 #@! TO.P,J501,2,5V*
G04 #@! TO.N,Board_0-+5V*
X15370000Y-8015000D03*
D22*
X15370000Y-9730000D03*
D21*
G04 #@! TO.P,J501,3,SDA/GPIO2*
G04 #@! TO.N,Board_0-/SDA*
X17910000Y-13985000D03*
D22*
X17910000Y-12270000D03*
G04 #@! TO.P,J501,4,5V*
G04 #@! TO.N,Board_0-+5V*
X17910000Y-9730000D03*
D21*
X17910000Y-8015000D03*
G04 #@! TO.P,J501,5,SCL/GPIO3*
G04 #@! TO.N,Board_0-/SCL*
X20450000Y-13985000D03*
D22*
X20450000Y-12270000D03*
G04 #@! TO.P,J501,6,GND*
G04 #@! TO.N,Board_0-GND*
X20450000Y-9730000D03*
D21*
X20450000Y-8015000D03*
G04 #@! TO.P,J501,7,GCLK0/GPIO4*
G04 #@! TO.N,Board_0-/I/O/GPIO4*
X22990000Y-13985000D03*
D22*
X22990000Y-12270000D03*
G04 #@! TO.P,J501,8,GPIO14/TXD*
G04 #@! TO.N,Board_0-/TXD0*
X22990000Y-9730000D03*
D21*
X22990000Y-8015000D03*
G04 #@! TO.P,J501,9,GND*
G04 #@! TO.N,Board_0-GND*
X25530000Y-13985000D03*
D22*
X25530000Y-12270000D03*
D21*
G04 #@! TO.P,J501,10,GPIO15/RXD*
G04 #@! TO.N,Board_0-/RXD0*
X25530000Y-8015000D03*
D22*
X25530000Y-9730000D03*
D21*
G04 #@! TO.P,J501,11,GPIO17*
G04 #@! TO.N,Board_0-unconnected-(J501-Pad11)*
X28070000Y-13985000D03*
D22*
X28070000Y-12270000D03*
D21*
G04 #@! TO.P,J501,12,GPIO18/PWM0*
G04 #@! TO.N,Board_0-unconnected-(J501-Pad12)*
X28070000Y-8015000D03*
D22*
X28070000Y-9730000D03*
D21*
G04 #@! TO.P,J501,13,GPIO27*
G04 #@! TO.N,Board_0-unconnected-(J501-Pad13)*
X30610000Y-13985000D03*
D22*
X30610000Y-12270000D03*
D21*
G04 #@! TO.P,J501,14,GND*
G04 #@! TO.N,Board_0-GND*
X30610000Y-8015000D03*
D22*
X30610000Y-9730000D03*
G04 #@! TO.P,J501,15,GPIO22*
G04 #@! TO.N,Board_0-unconnected-(J501-Pad15)*
X33150000Y-12270000D03*
D21*
X33150000Y-13985000D03*
G04 #@! TO.P,J501,16,GPIO23*
G04 #@! TO.N,Board_0-unconnected-(J501-Pad16)*
X33150000Y-8015000D03*
D22*
X33150000Y-9730000D03*
D21*
G04 #@! TO.P,J501,17,3V3*
G04 #@! TO.N,Board_0-unconnected-(J501-Pad17)*
X35690000Y-13985000D03*
D22*
X35690000Y-12270000D03*
D21*
G04 #@! TO.P,J501,18,GPIO24*
G04 #@! TO.N,Board_0-unconnected-(J501-Pad18)*
X35690000Y-8015000D03*
D22*
X35690000Y-9730000D03*
D21*
G04 #@! TO.P,J501,19,MOSI0/GPIO10*
G04 #@! TO.N,Board_0-unconnected-(J501-Pad19)*
X38230000Y-13985000D03*
D22*
X38230000Y-12270000D03*
G04 #@! TO.P,J501,20,GND*
G04 #@! TO.N,Board_0-GND*
X38230000Y-9730000D03*
D21*
X38230000Y-8015000D03*
G04 #@! TO.P,J501,21,MISO0/GPIO9*
G04 #@! TO.N,Board_0-unconnected-(J501-Pad21)*
X40770000Y-13985000D03*
D22*
X40770000Y-12270000D03*
G04 #@! TO.P,J501,22,GPIO25*
G04 #@! TO.N,Board_0-unconnected-(J501-Pad22)*
X40770000Y-9730000D03*
D21*
X40770000Y-8015000D03*
G04 #@! TO.P,J501,23,SCLK0/GPIO11*
G04 #@! TO.N,Board_0-unconnected-(J501-Pad23)*
X43310000Y-13985000D03*
D22*
X43310000Y-12270000D03*
D21*
G04 #@! TO.P,J501,24,~{CE0}/GPIO8*
G04 #@! TO.N,Board_0-unconnected-(J501-Pad24)*
X43310000Y-8015000D03*
D22*
X43310000Y-9730000D03*
D21*
G04 #@! TO.P,J501,25,GND*
G04 #@! TO.N,Board_0-GND*
X45850000Y-13985000D03*
D22*
X45850000Y-12270000D03*
G04 #@! TO.P,J501,26,~{CE1}/GPIO7*
G04 #@! TO.N,Board_0-unconnected-(J501-Pad26)*
X45850000Y-9730000D03*
D21*
X45850000Y-8015000D03*
D22*
G04 #@! TO.P,J501,27,ID_SD/GPIO0*
G04 #@! TO.N,Board_0-unconnected-(J501-Pad27)*
X48390000Y-12270000D03*
D21*
X48390000Y-13985000D03*
D22*
G04 #@! TO.P,J501,28,ID_SC/GPIO1*
G04 #@! TO.N,Board_0-unconnected-(J501-Pad28)*
X48390000Y-9730000D03*
D21*
X48390000Y-8015000D03*
G04 #@! TO.P,J501,29,GCLK1/GPIO5*
G04 #@! TO.N,Board_0-unconnected-(J501-Pad29)*
X50930000Y-13985000D03*
D22*
X50930000Y-12270000D03*
D21*
G04 #@! TO.P,J501,30,GND*
G04 #@! TO.N,Board_0-GND*
X50930000Y-8015000D03*
D22*
X50930000Y-9730000D03*
G04 #@! TO.P,J501,31,GCLK2/GPIO6*
G04 #@! TO.N,Board_0-unconnected-(J501-Pad31)*
X53470000Y-12270000D03*
D21*
X53470000Y-13985000D03*
D22*
G04 #@! TO.P,J501,32,PWM0/GPIO12*
G04 #@! TO.N,Board_0-/TXD5*
X53470000Y-9730000D03*
D21*
X53470000Y-8015000D03*
D22*
G04 #@! TO.P,J501,33,PWM1/GPIO13*
G04 #@! TO.N,Board_0-/RXD5*
X56010000Y-12270000D03*
D21*
X56010000Y-13985000D03*
D22*
G04 #@! TO.P,J501,34,GND*
G04 #@! TO.N,Board_0-GND*
X56010000Y-9730000D03*
D21*
X56010000Y-8015000D03*
D22*
G04 #@! TO.P,J501,35,GPIO19/MISO1*
G04 #@! TO.N,Board_0-unconnected-(J501-Pad35)*
X58550000Y-12270000D03*
D21*
X58550000Y-13985000D03*
D22*
G04 #@! TO.P,J501,36,GPIO16*
G04 #@! TO.N,Board_0-unconnected-(J501-Pad36)*
X58550000Y-9730000D03*
D21*
X58550000Y-8015000D03*
G04 #@! TO.P,J501,37,GPIO26*
G04 #@! TO.N,Board_0-unconnected-(J501-Pad37)*
X61090000Y-13985000D03*
D22*
X61090000Y-12270000D03*
G04 #@! TO.P,J501,38,GPIO20/MOSI1*
G04 #@! TO.N,Board_0-unconnected-(J501-Pad38)*
X61090000Y-9730000D03*
D21*
X61090000Y-8015000D03*
D22*
G04 #@! TO.P,J501,39,GND*
G04 #@! TO.N,Board_0-GND*
X63630000Y-12270000D03*
D21*
X63630000Y-13985000D03*
D22*
G04 #@! TO.P,J501,40,GPIO21/SCLK1*
G04 #@! TO.N,Board_0-unconnected-(J501-Pad40)*
X63630000Y-9730000D03*
D21*
X63630000Y-8015000D03*
G04 #@! TD*
D23*
G04 #@! TO.P,TP301,1,1*
G04 #@! TO.N,Board_0-/Buck converter stage 1/SW*
X66800000Y-40400000D03*
G04 #@! TD*
G04 #@! TO.P,TP201,1,1*
G04 #@! TO.N,Board_1-/Buck converter stage 2/SW*
X139000000Y-23800000D03*
G04 #@! TD*
D22*
G04 #@! TO.P,J501,1,3V3*
G04 #@! TO.N,Board_1-unconnected-(J501-Pad1)*
X85370000Y-12270000D03*
D21*
X85370000Y-13985000D03*
D22*
G04 #@! TO.P,J501,2,5V*
G04 #@! TO.N,Board_1-+5V*
X85370000Y-9730000D03*
D21*
X85370000Y-8015000D03*
D22*
G04 #@! TO.P,J501,3,SDA/GPIO2*
G04 #@! TO.N,Board_1-/SDA*
X87910000Y-12270000D03*
D21*
X87910000Y-13985000D03*
G04 #@! TO.P,J501,4,5V*
G04 #@! TO.N,Board_1-+5V*
X87910000Y-8015000D03*
D22*
X87910000Y-9730000D03*
G04 #@! TO.P,J501,5,SCL/GPIO3*
G04 #@! TO.N,Board_1-/SCL*
X90450000Y-12270000D03*
D21*
X90450000Y-13985000D03*
G04 #@! TO.P,J501,6,GND*
G04 #@! TO.N,Board_1-GND*
X90450000Y-8015000D03*
D22*
X90450000Y-9730000D03*
D21*
G04 #@! TO.P,J501,7,GCLK0/GPIO4*
G04 #@! TO.N,Board_1-/I/O/GPIO4*
X92990000Y-13985000D03*
D22*
X92990000Y-12270000D03*
D21*
G04 #@! TO.P,J501,8,GPIO14/TXD*
G04 #@! TO.N,Board_1-/TXD0*
X92990000Y-8015000D03*
D22*
X92990000Y-9730000D03*
G04 #@! TO.P,J501,9,GND*
G04 #@! TO.N,Board_1-GND*
X95530000Y-12270000D03*
D21*
X95530000Y-13985000D03*
D22*
G04 #@! TO.P,J501,10,GPIO15/RXD*
G04 #@! TO.N,Board_1-/RXD0*
X95530000Y-9730000D03*
D21*
X95530000Y-8015000D03*
G04 #@! TO.P,J501,11,GPIO17*
G04 #@! TO.N,Board_1-unconnected-(J501-Pad11)*
X98070000Y-13985000D03*
D22*
X98070000Y-12270000D03*
D21*
G04 #@! TO.P,J501,12,GPIO18/PWM0*
G04 #@! TO.N,Board_1-unconnected-(J501-Pad12)*
X98070000Y-8015000D03*
D22*
X98070000Y-9730000D03*
D21*
G04 #@! TO.P,J501,13,GPIO27*
G04 #@! TO.N,Board_1-unconnected-(J501-Pad13)*
X100610000Y-13985000D03*
D22*
X100610000Y-12270000D03*
G04 #@! TO.P,J501,14,GND*
G04 #@! TO.N,Board_1-GND*
X100610000Y-9730000D03*
D21*
X100610000Y-8015000D03*
G04 #@! TO.P,J501,15,GPIO22*
G04 #@! TO.N,Board_1-unconnected-(J501-Pad15)*
X103150000Y-13985000D03*
D22*
X103150000Y-12270000D03*
G04 #@! TO.P,J501,16,GPIO23*
G04 #@! TO.N,Board_1-unconnected-(J501-Pad16)*
X103150000Y-9730000D03*
D21*
X103150000Y-8015000D03*
G04 #@! TO.P,J501,17,3V3*
G04 #@! TO.N,Board_1-unconnected-(J501-Pad17)*
X105690000Y-13985000D03*
D22*
X105690000Y-12270000D03*
D21*
G04 #@! TO.P,J501,18,GPIO24*
G04 #@! TO.N,Board_1-unconnected-(J501-Pad18)*
X105690000Y-8015000D03*
D22*
X105690000Y-9730000D03*
D21*
G04 #@! TO.P,J501,19,MOSI0/GPIO10*
G04 #@! TO.N,Board_1-unconnected-(J501-Pad19)*
X108230000Y-13985000D03*
D22*
X108230000Y-12270000D03*
G04 #@! TO.P,J501,20,GND*
G04 #@! TO.N,Board_1-GND*
X108230000Y-9730000D03*
D21*
X108230000Y-8015000D03*
G04 #@! TO.P,J501,21,MISO0/GPIO9*
G04 #@! TO.N,Board_1-unconnected-(J501-Pad21)*
X110770000Y-13985000D03*
D22*
X110770000Y-12270000D03*
D21*
G04 #@! TO.P,J501,22,GPIO25*
G04 #@! TO.N,Board_1-unconnected-(J501-Pad22)*
X110770000Y-8015000D03*
D22*
X110770000Y-9730000D03*
D21*
G04 #@! TO.P,J501,23,SCLK0/GPIO11*
G04 #@! TO.N,Board_1-unconnected-(J501-Pad23)*
X113310000Y-13985000D03*
D22*
X113310000Y-12270000D03*
D21*
G04 #@! TO.P,J501,24,~{CE0}/GPIO8*
G04 #@! TO.N,Board_1-unconnected-(J501-Pad24)*
X113310000Y-8015000D03*
D22*
X113310000Y-9730000D03*
G04 #@! TO.P,J501,25,GND*
G04 #@! TO.N,Board_1-GND*
X115850000Y-12270000D03*
D21*
X115850000Y-13985000D03*
D22*
G04 #@! TO.P,J501,26,~{CE1}/GPIO7*
G04 #@! TO.N,Board_1-unconnected-(J501-Pad26)*
X115850000Y-9730000D03*
D21*
X115850000Y-8015000D03*
G04 #@! TO.P,J501,27,ID_SD/GPIO0*
G04 #@! TO.N,Board_1-unconnected-(J501-Pad27)*
X118390000Y-13985000D03*
D22*
X118390000Y-12270000D03*
G04 #@! TO.P,J501,28,ID_SC/GPIO1*
G04 #@! TO.N,Board_1-unconnected-(J501-Pad28)*
X118390000Y-9730000D03*
D21*
X118390000Y-8015000D03*
D22*
G04 #@! TO.P,J501,29,GCLK1/GPIO5*
G04 #@! TO.N,Board_1-unconnected-(J501-Pad29)*
X120930000Y-12270000D03*
D21*
X120930000Y-13985000D03*
D22*
G04 #@! TO.P,J501,30,GND*
G04 #@! TO.N,Board_1-GND*
X120930000Y-9730000D03*
D21*
X120930000Y-8015000D03*
G04 #@! TO.P,J501,31,GCLK2/GPIO6*
G04 #@! TO.N,Board_1-unconnected-(J501-Pad31)*
X123470000Y-13985000D03*
D22*
X123470000Y-12270000D03*
G04 #@! TO.P,J501,32,PWM0/GPIO12*
G04 #@! TO.N,Board_1-/TXD5*
X123470000Y-9730000D03*
D21*
X123470000Y-8015000D03*
G04 #@! TO.P,J501,33,PWM1/GPIO13*
G04 #@! TO.N,Board_1-/RXD5*
X126010000Y-13985000D03*
D22*
X126010000Y-12270000D03*
G04 #@! TO.P,J501,34,GND*
G04 #@! TO.N,Board_1-GND*
X126010000Y-9730000D03*
D21*
X126010000Y-8015000D03*
D22*
G04 #@! TO.P,J501,35,GPIO19/MISO1*
G04 #@! TO.N,Board_1-unconnected-(J501-Pad35)*
X128550000Y-12270000D03*
D21*
X128550000Y-13985000D03*
G04 #@! TO.P,J501,36,GPIO16*
G04 #@! TO.N,Board_1-unconnected-(J501-Pad36)*
X128550000Y-8015000D03*
D22*
X128550000Y-9730000D03*
D21*
G04 #@! TO.P,J501,37,GPIO26*
G04 #@! TO.N,Board_1-unconnected-(J501-Pad37)*
X131090000Y-13985000D03*
D22*
X131090000Y-12270000D03*
G04 #@! TO.P,J501,38,GPIO20/MOSI1*
G04 #@! TO.N,Board_1-unconnected-(J501-Pad38)*
X131090000Y-9730000D03*
D21*
X131090000Y-8015000D03*
D22*
G04 #@! TO.P,J501,39,GND*
G04 #@! TO.N,Board_1-GND*
X133630000Y-12270000D03*
D21*
X133630000Y-13985000D03*
D22*
G04 #@! TO.P,J501,40,GPIO21/SCLK1*
G04 #@! TO.N,Board_1-unconnected-(J501-Pad40)*
X133630000Y-9730000D03*
D21*
X133630000Y-8015000D03*
G04 #@! TD*
D23*
G04 #@! TO.P,TP501,1,1*
G04 #@! TO.N,Board_2-/SDA*
X16300000Y-81300000D03*
G04 #@! TD*
D21*
G04 #@! TO.P,J501,1,3V3*
G04 #@! TO.N,Board_3-unconnected-(J501-Pad1)*
X85370000Y-75485000D03*
D22*
X85370000Y-73770000D03*
D21*
G04 #@! TO.P,J501,2,5V*
G04 #@! TO.N,Board_3-+5V*
X85370000Y-69515000D03*
D22*
X85370000Y-71230000D03*
D21*
G04 #@! TO.P,J501,3,SDA/GPIO2*
G04 #@! TO.N,Board_3-/SDA*
X87910000Y-75485000D03*
D22*
X87910000Y-73770000D03*
D21*
G04 #@! TO.P,J501,4,5V*
G04 #@! TO.N,Board_3-+5V*
X87910000Y-69515000D03*
D22*
X87910000Y-71230000D03*
G04 #@! TO.P,J501,5,SCL/GPIO3*
G04 #@! TO.N,Board_3-/SCL*
X90450000Y-73770000D03*
D21*
X90450000Y-75485000D03*
D22*
G04 #@! TO.P,J501,6,GND*
G04 #@! TO.N,Board_3-GND*
X90450000Y-71230000D03*
D21*
X90450000Y-69515000D03*
G04 #@! TO.P,J501,7,GCLK0/GPIO4*
G04 #@! TO.N,Board_3-/I/O/GPIO4*
X92990000Y-75485000D03*
D22*
X92990000Y-73770000D03*
D21*
G04 #@! TO.P,J501,8,GPIO14/TXD*
G04 #@! TO.N,Board_3-/TXD0*
X92990000Y-69515000D03*
D22*
X92990000Y-71230000D03*
D21*
G04 #@! TO.P,J501,9,GND*
G04 #@! TO.N,Board_3-GND*
X95530000Y-75485000D03*
D22*
X95530000Y-73770000D03*
G04 #@! TO.P,J501,10,GPIO15/RXD*
G04 #@! TO.N,Board_3-/RXD0*
X95530000Y-71230000D03*
D21*
X95530000Y-69515000D03*
D22*
G04 #@! TO.P,J501,11,GPIO17*
G04 #@! TO.N,Board_3-unconnected-(J501-Pad11)*
X98070000Y-73770000D03*
D21*
X98070000Y-75485000D03*
D22*
G04 #@! TO.P,J501,12,GPIO18/PWM0*
G04 #@! TO.N,Board_3-unconnected-(J501-Pad12)*
X98070000Y-71230000D03*
D21*
X98070000Y-69515000D03*
D22*
G04 #@! TO.P,J501,13,GPIO27*
G04 #@! TO.N,Board_3-unconnected-(J501-Pad13)*
X100610000Y-73770000D03*
D21*
X100610000Y-75485000D03*
G04 #@! TO.P,J501,14,GND*
G04 #@! TO.N,Board_3-GND*
X100610000Y-69515000D03*
D22*
X100610000Y-71230000D03*
D21*
G04 #@! TO.P,J501,15,GPIO22*
G04 #@! TO.N,Board_3-unconnected-(J501-Pad15)*
X103150000Y-75485000D03*
D22*
X103150000Y-73770000D03*
D21*
G04 #@! TO.P,J501,16,GPIO23*
G04 #@! TO.N,Board_3-unconnected-(J501-Pad16)*
X103150000Y-69515000D03*
D22*
X103150000Y-71230000D03*
G04 #@! TO.P,J501,17,3V3*
G04 #@! TO.N,Board_3-unconnected-(J501-Pad17)*
X105690000Y-73770000D03*
D21*
X105690000Y-75485000D03*
G04 #@! TO.P,J501,18,GPIO24*
G04 #@! TO.N,Board_3-unconnected-(J501-Pad18)*
X105690000Y-69515000D03*
D22*
X105690000Y-71230000D03*
D21*
G04 #@! TO.P,J501,19,MOSI0/GPIO10*
G04 #@! TO.N,Board_3-unconnected-(J501-Pad19)*
X108230000Y-75485000D03*
D22*
X108230000Y-73770000D03*
G04 #@! TO.P,J501,20,GND*
G04 #@! TO.N,Board_3-GND*
X108230000Y-71230000D03*
D21*
X108230000Y-69515000D03*
G04 #@! TO.P,J501,21,MISO0/GPIO9*
G04 #@! TO.N,Board_3-unconnected-(J501-Pad21)*
X110770000Y-75485000D03*
D22*
X110770000Y-73770000D03*
D21*
G04 #@! TO.P,J501,22,GPIO25*
G04 #@! TO.N,Board_3-unconnected-(J501-Pad22)*
X110770000Y-69515000D03*
D22*
X110770000Y-71230000D03*
G04 #@! TO.P,J501,23,SCLK0/GPIO11*
G04 #@! TO.N,Board_3-unconnected-(J501-Pad23)*
X113310000Y-73770000D03*
D21*
X113310000Y-75485000D03*
D22*
G04 #@! TO.P,J501,24,~{CE0}/GPIO8*
G04 #@! TO.N,Board_3-unconnected-(J501-Pad24)*
X113310000Y-71230000D03*
D21*
X113310000Y-69515000D03*
G04 #@! TO.P,J501,25,GND*
G04 #@! TO.N,Board_3-GND*
X115850000Y-75485000D03*
D22*
X115850000Y-73770000D03*
D21*
G04 #@! TO.P,J501,26,~{CE1}/GPIO7*
G04 #@! TO.N,Board_3-unconnected-(J501-Pad26)*
X115850000Y-69515000D03*
D22*
X115850000Y-71230000D03*
G04 #@! TO.P,J501,27,ID_SD/GPIO0*
G04 #@! TO.N,Board_3-unconnected-(J501-Pad27)*
X118390000Y-73770000D03*
D21*
X118390000Y-75485000D03*
D22*
G04 #@! TO.P,J501,28,ID_SC/GPIO1*
G04 #@! TO.N,Board_3-unconnected-(J501-Pad28)*
X118390000Y-71230000D03*
D21*
X118390000Y-69515000D03*
G04 #@! TO.P,J501,29,GCLK1/GPIO5*
G04 #@! TO.N,Board_3-unconnected-(J501-Pad29)*
X120930000Y-75485000D03*
D22*
X120930000Y-73770000D03*
D21*
G04 #@! TO.P,J501,30,GND*
G04 #@! TO.N,Board_3-GND*
X120930000Y-69515000D03*
D22*
X120930000Y-71230000D03*
D21*
G04 #@! TO.P,J501,31,GCLK2/GPIO6*
G04 #@! TO.N,Board_3-unconnected-(J501-Pad31)*
X123470000Y-75485000D03*
D22*
X123470000Y-73770000D03*
G04 #@! TO.P,J501,32,PWM0/GPIO12*
G04 #@! TO.N,Board_3-/TXD5*
X123470000Y-71230000D03*
D21*
X123470000Y-69515000D03*
D22*
G04 #@! TO.P,J501,33,PWM1/GPIO13*
G04 #@! TO.N,Board_3-/RXD5*
X126010000Y-73770000D03*
D21*
X126010000Y-75485000D03*
G04 #@! TO.P,J501,34,GND*
G04 #@! TO.N,Board_3-GND*
X126010000Y-69515000D03*
D22*
X126010000Y-71230000D03*
G04 #@! TO.P,J501,35,GPIO19/MISO1*
G04 #@! TO.N,Board_3-unconnected-(J501-Pad35)*
X128550000Y-73770000D03*
D21*
X128550000Y-75485000D03*
G04 #@! TO.P,J501,36,GPIO16*
G04 #@! TO.N,Board_3-unconnected-(J501-Pad36)*
X128550000Y-69515000D03*
D22*
X128550000Y-71230000D03*
D21*
G04 #@! TO.P,J501,37,GPIO26*
G04 #@! TO.N,Board_3-unconnected-(J501-Pad37)*
X131090000Y-75485000D03*
D22*
X131090000Y-73770000D03*
G04 #@! TO.P,J501,38,GPIO20/MOSI1*
G04 #@! TO.N,Board_3-unconnected-(J501-Pad38)*
X131090000Y-71230000D03*
D21*
X131090000Y-69515000D03*
D22*
G04 #@! TO.P,J501,39,GND*
G04 #@! TO.N,Board_3-GND*
X133630000Y-73770000D03*
D21*
X133630000Y-75485000D03*
G04 #@! TO.P,J501,40,GPIO21/SCLK1*
G04 #@! TO.N,Board_3-unconnected-(J501-Pad40)*
X133630000Y-69515000D03*
D22*
X133630000Y-71230000D03*
G04 #@! TD*
D18*
G04 #@! TO.P,JP501,1,A*
G04 #@! TO.N,Board_2-/I/O/GPIO4*
X23845000Y-78700000D03*
D19*
G04 #@! TO.P,JP501,2,B*
G04 #@! TO.N,Board_2-/RGPIO4*
X25295000Y-78700000D03*
G04 #@! TD*
D23*
G04 #@! TO.P,REF\u002A\u002A,*
G04 #@! TO.N,*
X144000000Y-128150000D03*
G04 #@! TD*
G04 #@! TO.P,TP901,1,1*
G04 #@! TO.N,Board_2-+3V3*
X46099999Y-88400000D03*
G04 #@! TD*
G04 #@! TO.P,TP201,1,1*
G04 #@! TO.N,Board_3-/Buck converter stage 2/SW*
X139000000Y-85300000D03*
G04 #@! TD*
G04 #@! TO.P,TP502,1,1*
G04 #@! TO.N,Board_1-/SCL*
X91300000Y-19800000D03*
G04 #@! TD*
G04 #@! TO.P,TP501,1,1*
G04 #@! TO.N,Board_0-/SDA*
X16300000Y-19800000D03*
G04 #@! TD*
D20*
G04 #@! TO.P,JP801,1,A*
G04 #@! TO.N,Board_1-+3V3*
X118900000Y-17200000D03*
G04 #@! TO.P,JP801,2,B*
G04 #@! TO.N,Board_1-/RTC/3V3B*
X120200000Y-17200000D03*
G04 #@! TD*
D23*
G04 #@! TO.P,TP301,1,1*
G04 #@! TO.N,Board_3-/Buck converter stage 1/SW*
X136800000Y-101900000D03*
G04 #@! TD*
D26*
G04 #@! TO.N,Board_0-+3V3*
X48900000Y-18270000D03*
D27*
X58600000Y-42700000D03*
D26*
X22648500Y-17100000D03*
X23570000Y-22000000D03*
X25070000Y-22000000D03*
X25100000Y-35426500D03*
X52300000Y-24200000D03*
D27*
X15400000Y-17100000D03*
D26*
X25500000Y-26900000D03*
D27*
X68800000Y-51500000D03*
X48900000Y-42700000D03*
X58600000Y-45300000D03*
D26*
X48900000Y-26900000D03*
D28*
G04 #@! TO.N,Board_0-+5V*
X24060000Y-49560000D03*
D27*
X60300000Y-32700000D03*
X60000000Y-40400000D03*
X65000000Y-32700000D03*
D28*
X33300000Y-21400000D03*
D27*
X59500014Y-27896512D03*
D28*
X25700000Y-48900000D03*
X34700000Y-48400000D03*
D27*
X59500000Y-22600000D03*
D28*
X27200000Y-48900000D03*
X33300000Y-23300000D03*
X56425000Y-20575000D03*
X32900000Y-48900000D03*
X55100000Y-20500000D03*
X16670000Y-9050000D03*
X31300000Y-48900000D03*
X19180000Y-9116000D03*
D27*
G04 #@! TO.N,Board_0-/Buck converter stage 1/BOOT*
X62500000Y-44700000D03*
X61900000Y-42200000D03*
G04 #@! TO.N,Board_0-/Buck converter stage 1/FVSS*
X45600000Y-41100000D03*
X39500000Y-30600000D03*
X45600000Y-30600000D03*
X56200000Y-41100000D03*
G04 #@! TO.N,Board_0-/Buck converter stage 1/I1A9*
X54533776Y-28401500D03*
G04 #@! TO.N,Board_0-/Buck converter stage 1/I2A9*
X53900000Y-30900000D03*
G04 #@! TO.N,Board_0-/Buck converter stage 1/SW*
X63100000Y-40200000D03*
X70200000Y-40400000D03*
G04 #@! TO.N,Board_0-/Buck converter stage 2/BOOT*
X61900000Y-23800000D03*
X62200000Y-26300000D03*
G04 #@! TO.N,Board_0-/Buck converter stage 2/SW*
X69500000Y-25300000D03*
D26*
X69700000Y-21800000D03*
X63100000Y-21800000D03*
D27*
G04 #@! TO.N,Board_0-/Control MCU/EXT*
X22000000Y-25100000D03*
X22220000Y-47250000D03*
X11300000Y-47600000D03*
X17700000Y-25100000D03*
G04 #@! TO.N,Board_0-/Control MCU/POWER_TOGGLE*
X21155180Y-26120494D03*
X17670000Y-47100000D03*
X18000000Y-26000000D03*
X10300000Y-47100000D03*
G04 #@! TO.N,Board_0-/Control MCU/RESET*
X17900000Y-33900000D03*
X16200000Y-21900000D03*
X19500000Y-21900000D03*
G04 #@! TO.N,Board_0-/Control MCU/RXD*
X20700000Y-28700000D03*
X20700000Y-40900000D03*
X18600000Y-28500000D03*
G04 #@! TO.N,Board_0-/Control MCU/TXD*
X20100000Y-43400000D03*
X18800000Y-27600000D03*
X20176500Y-27600000D03*
G04 #@! TO.N,Board_0-/Control MCU/TXD5J*
X18700000Y-33800000D03*
G04 #@! TO.N,Board_0-/Control MCU/VcapS*
X16400000Y-31023500D03*
X53200000Y-31100000D03*
G04 #@! TO.N,Board_0-/Control MCU/VinS*
X16000000Y-32300000D03*
X38400000Y-32300000D03*
G04 #@! TO.N,Board_0-/EN5V*
X18700000Y-30600000D03*
X17100000Y-36000000D03*
X36600000Y-28800000D03*
X61600000Y-28200000D03*
X36600000Y-30600000D03*
G04 #@! TO.N,Board_0-/Iin*
X23546500Y-23965870D03*
X63300000Y-52000000D03*
X54500000Y-36900000D03*
X58000000Y-45900000D03*
X16500000Y-24000000D03*
X23546500Y-29100000D03*
G04 #@! TO.N,Board_0-/LED_1*
X12400000Y-22400000D03*
X18500000Y-22400000D03*
G04 #@! TO.N,Board_0-/LED_2*
X19000000Y-23400000D03*
X12400000Y-23400000D03*
G04 #@! TO.N,Board_0-/LED_3*
X14000000Y-26500000D03*
X12400000Y-24400000D03*
G04 #@! TO.N,Board_0-/LED_4*
X11700000Y-28100000D03*
X11700000Y-26100000D03*
G04 #@! TO.N,Board_0-/RGPIO4*
X22870000Y-19800000D03*
X22870000Y-29200000D03*
X16954941Y-29529282D03*
G04 #@! TO.N,Board_0-/RTC/3V3B*
X50970000Y-17100000D03*
G04 #@! TO.N,Board_0-/RTC/RTCVDD*
X46202679Y-17788903D03*
X48000000Y-17000000D03*
G04 #@! TO.N,Board_0-/RTC/VBAT*
X47400000Y-19770000D03*
X47700000Y-47400000D03*
X50593590Y-18538254D03*
G04 #@! TO.N,Board_0-/RTC_INT*
X37800000Y-24700000D03*
X16900000Y-24600000D03*
G04 #@! TO.N,Board_0-/RXD0*
X24500000Y-44000000D03*
X24534116Y-15507934D03*
G04 #@! TO.N,Board_0-/RXD5*
X49600000Y-34600000D03*
X49920000Y-19650000D03*
X56100000Y-18900000D03*
X55044800Y-14856400D03*
G04 #@! TO.N,Board_0-/SCL*
X20050000Y-20150000D03*
X13100000Y-24000000D03*
X14500000Y-17200000D03*
X14900000Y-24000000D03*
X19300000Y-16200000D03*
X45600000Y-21300000D03*
G04 #@! TO.N,Board_0-/SDA*
X18700000Y-15000000D03*
X16800000Y-22900000D03*
X15500000Y-22900000D03*
X16800000Y-21200000D03*
X44300000Y-21900000D03*
X18300000Y-19800000D03*
G04 #@! TO.N,Board_0-/Supercapacitor/BO1+*
X30200000Y-38900000D03*
X28700000Y-38900000D03*
G04 #@! TO.N,Board_0-/Supercapacitor/BO2+*
X30000000Y-25600000D03*
X28600000Y-25600000D03*
G04 #@! TO.N,Board_0-/Supercapacitor/BO2o*
X28900000Y-21400000D03*
X27400000Y-21400000D03*
G04 #@! TO.N,Board_0-/Supercapacitor/BO3+*
X41400000Y-38700000D03*
X42900000Y-38600000D03*
G04 #@! TO.N,Board_0-/Supercapacitor/SC12*
X29200000Y-24000000D03*
X26300000Y-24000000D03*
X29900000Y-18800000D03*
X27170000Y-18900000D03*
G04 #@! TO.N,Board_0-/Supercapacitor/SC12R*
X31700000Y-30000000D03*
X28600000Y-30000000D03*
G04 #@! TO.N,Board_0-/Supercapacitor/SC23*
X37700000Y-25600000D03*
X37700000Y-33000000D03*
X28100000Y-22100000D03*
X31800000Y-22100000D03*
X41800000Y-32600000D03*
X31800000Y-25200000D03*
X40200000Y-44000000D03*
G04 #@! TO.N,Board_0-/Supercapacitor/SC23R*
X32500000Y-43000000D03*
X32500000Y-28300000D03*
X31100000Y-28300000D03*
X41100000Y-43000000D03*
G04 #@! TO.N,Board_0-/TXD0*
X23400000Y-42200000D03*
X23870000Y-15600000D03*
G04 #@! TO.N,Board_0-/TXD5*
X47100000Y-10800000D03*
X46500000Y-31700000D03*
G04 #@! TO.N,Board_0-/Vcap*
X51050000Y-39250000D03*
D28*
X54225000Y-26875000D03*
D27*
X59300000Y-42700000D03*
X40400000Y-39300000D03*
D28*
X52725000Y-26875000D03*
X51100000Y-26900000D03*
D27*
X42000000Y-33600000D03*
X59300000Y-37300000D03*
X59300000Y-44900000D03*
X51100000Y-33600000D03*
X43600000Y-44000000D03*
X64578993Y-50188275D03*
X44000000Y-39300000D03*
G04 #@! TO.N,Board_0-GND*
X44100000Y-40300000D03*
X25500000Y-51300000D03*
X34500000Y-20176500D03*
X61271052Y-15250000D03*
D28*
X61600000Y-43300000D03*
D27*
X39700000Y-39300000D03*
X55100000Y-21900000D03*
D29*
X33000000Y-51600000D03*
D27*
X21950000Y-17800000D03*
X48300000Y-27500000D03*
X25500000Y-50300000D03*
D29*
X64900000Y-48800000D03*
D27*
X27300000Y-25600000D03*
X55700000Y-40600000D03*
X66778946Y-15250000D03*
X39800000Y-25500000D03*
X38300000Y-25200000D03*
X69700000Y-21000000D03*
X9050000Y-46000000D03*
X9000000Y-28500000D03*
X31200000Y-27600000D03*
D29*
X25600000Y-15548500D03*
D27*
X57336842Y-15250000D03*
X35700000Y-49600000D03*
X41000000Y-32200000D03*
D29*
X37800000Y-54100000D03*
D27*
X25700000Y-23700000D03*
X61700000Y-23100000D03*
X66200000Y-25700000D03*
D28*
X59900000Y-18800000D03*
D27*
X59900000Y-44600000D03*
X29300000Y-20700000D03*
X66900000Y-48600000D03*
X15850000Y-27350000D03*
X68352630Y-15250000D03*
X23546500Y-23190237D03*
D29*
X37800000Y-55400000D03*
X62512400Y-12773600D03*
D27*
X59697368Y-15250000D03*
X57800000Y-33000000D03*
X55000000Y-29000000D03*
X28700000Y-43400000D03*
D29*
X53600000Y-23100000D03*
D27*
X43600000Y-43300000D03*
X44300000Y-37100000D03*
D29*
X64200000Y-39600000D03*
X33100000Y-59600000D03*
D28*
X66800000Y-43200000D03*
D27*
X20793500Y-27900000D03*
X8600000Y-53700000D03*
X9000000Y-45000000D03*
X25200000Y-44000000D03*
X53200000Y-44900000D03*
X45100000Y-30100000D03*
X66200000Y-30200000D03*
X9000000Y-34000000D03*
X55800000Y-21900000D03*
X41400000Y-37300000D03*
D26*
X22200000Y-49100000D03*
D27*
X63300000Y-22700000D03*
X16670000Y-7750000D03*
D26*
X40800000Y-20400000D03*
D27*
X19600000Y-42900000D03*
X14547952Y-22923500D03*
X62844736Y-15250000D03*
X61100000Y-49600000D03*
X24993500Y-27400000D03*
X21693500Y-34500000D03*
X53100000Y-37500000D03*
X47800000Y-16300000D03*
X36600000Y-28100000D03*
X60000000Y-42700000D03*
D29*
X21720000Y-9116000D03*
D27*
X63600000Y-31800000D03*
X57300000Y-43900000D03*
X66100000Y-48600000D03*
X47600000Y-11300000D03*
X41500000Y-34300000D03*
X70300000Y-50800000D03*
X16600000Y-26900000D03*
D28*
X61448500Y-25100000D03*
D27*
X60100000Y-22900000D03*
D29*
X57300000Y-45100000D03*
D27*
X65205262Y-15250000D03*
X17800000Y-35776500D03*
X69139472Y-15250000D03*
D28*
X58100000Y-18800000D03*
D27*
X48400000Y-47400000D03*
X37200000Y-30200000D03*
D26*
X36000000Y-18400000D03*
D27*
X64200000Y-55100000D03*
X34700000Y-21900000D03*
X65000000Y-52600000D03*
X39700000Y-43500000D03*
D29*
X31829200Y-9319200D03*
D27*
X63631578Y-15250000D03*
X25689625Y-35758159D03*
X52800000Y-31700000D03*
X45600000Y-41800000D03*
X62057894Y-15250000D03*
X67600000Y-53000000D03*
X19200000Y-28100000D03*
X19200000Y-19900000D03*
D28*
X69300000Y-27200000D03*
D27*
X18500000Y-32800000D03*
X32000000Y-43500000D03*
X53000000Y-24900000D03*
X16600000Y-27900000D03*
X63600000Y-52800000D03*
X69200000Y-32700000D03*
X56550000Y-15250000D03*
X16250000Y-48200000D03*
X56800000Y-18900000D03*
X36500000Y-48400000D03*
D26*
X45900000Y-15400000D03*
D27*
X58600000Y-42000000D03*
D29*
X30100000Y-33700000D03*
D27*
X65400000Y-30200000D03*
X23400000Y-42900000D03*
X37000000Y-32800000D03*
X45100000Y-21900000D03*
X46055665Y-18397912D03*
X9900000Y-49100000D03*
D29*
X31500000Y-58300000D03*
D27*
X11000000Y-46600000D03*
X30400000Y-18300000D03*
X39100000Y-32300000D03*
X13300000Y-49550000D03*
D29*
X31600000Y-50700000D03*
D27*
X10000000Y-55900000D03*
X41600000Y-43400000D03*
X12800000Y-22900000D03*
X49600000Y-35300000D03*
X64480000Y-30180000D03*
D29*
X58300000Y-40100000D03*
D27*
X58910526Y-15250000D03*
X25700000Y-21400000D03*
X20700000Y-41600000D03*
X70200000Y-39700000D03*
X27500000Y-50300000D03*
X64418420Y-15250000D03*
X32400000Y-30000000D03*
X26500000Y-50300000D03*
X70713156Y-15250000D03*
D28*
X69900000Y-45600000D03*
D29*
X58600000Y-37800000D03*
D27*
X69926314Y-15250000D03*
X53800000Y-36900000D03*
X48200000Y-42700000D03*
X54500000Y-31500000D03*
X23270000Y-29890496D03*
X15420000Y-31050000D03*
X32500000Y-25900000D03*
X31400000Y-21500000D03*
X38800000Y-30600000D03*
D28*
X63500000Y-24700000D03*
D27*
X60700000Y-33300000D03*
X67565788Y-15250000D03*
X19200000Y-15500000D03*
X29300000Y-37300000D03*
D26*
X16300000Y-15600000D03*
D29*
X58800000Y-50100000D03*
D27*
X27170000Y-18200000D03*
X47370000Y-19100000D03*
X67733945Y-50023500D03*
X15900000Y-21200000D03*
X56900000Y-36800000D03*
X22870000Y-19100000D03*
X64500000Y-25700000D03*
X27600000Y-30000000D03*
X18100000Y-29800000D03*
X17600000Y-22900000D03*
D26*
X14400000Y-16200000D03*
D27*
X9000000Y-39500000D03*
X65992104Y-15250000D03*
X29100000Y-40000000D03*
X58123684Y-15250000D03*
X19200000Y-22600000D03*
X49600000Y-39900000D03*
X69400000Y-51300000D03*
X50470000Y-19200000D03*
D26*
X30600000Y-43800000D03*
D27*
X13100000Y-24800000D03*
D28*
X66200000Y-24700000D03*
D27*
X60600000Y-28100000D03*
D29*
X62600000Y-37800000D03*
D27*
X29000000Y-22700000D03*
X12400000Y-26100000D03*
D28*
X64200000Y-43200000D03*
D27*
X21693500Y-25800000D03*
X60484210Y-15250000D03*
D26*
X22100000Y-15600000D03*
D27*
X29100000Y-38200000D03*
X67200000Y-32600000D03*
D29*
X36960000Y-9319200D03*
D27*
X53500000Y-17900000D03*
X33200000Y-28300000D03*
D29*
X61300000Y-37800000D03*
D28*
X61400000Y-18800000D03*
D27*
X53000000Y-30100000D03*
X14400000Y-25700000D03*
X58055529Y-22869712D03*
X65000000Y-33400000D03*
D29*
X51996800Y-9014400D03*
D27*
X46500000Y-32400000D03*
D29*
X44732400Y-14856400D03*
X57280000Y-9319200D03*
D26*
X40900000Y-47700000D03*
G04 #@! TO.N,Board_1-+3V3*
X118900000Y-18270000D03*
D27*
X128600000Y-42700000D03*
D26*
X92648500Y-17100000D03*
X93570000Y-22000000D03*
X95070000Y-22000000D03*
X95100000Y-35426500D03*
X122300000Y-24200000D03*
D27*
X85400000Y-17100000D03*
D26*
X95500000Y-26900000D03*
D27*
X138800000Y-51500000D03*
X118900000Y-42700000D03*
X128600000Y-45300000D03*
D26*
X118900000Y-26900000D03*
D28*
G04 #@! TO.N,Board_1-+5V*
X94060000Y-49560000D03*
D27*
X130300000Y-32700000D03*
X130000000Y-40400000D03*
X135000000Y-32700000D03*
D28*
X103300000Y-21400000D03*
D27*
X129500014Y-27896512D03*
D28*
X95700000Y-48900000D03*
X104700000Y-48400000D03*
D27*
X129500000Y-22600000D03*
D28*
X97200000Y-48900000D03*
X103300000Y-23300000D03*
X126425000Y-20575000D03*
X102900000Y-48900000D03*
X125100000Y-20500000D03*
X86670000Y-9050000D03*
X101300000Y-48900000D03*
X89180000Y-9116000D03*
D27*
G04 #@! TO.N,Board_1-/Buck converter stage 1/BOOT*
X132500000Y-44700000D03*
X131900000Y-42200000D03*
G04 #@! TO.N,Board_1-/Buck converter stage 1/FVSS*
X115600000Y-41100000D03*
X109500000Y-30600000D03*
X115600000Y-30600000D03*
X126200000Y-41100000D03*
G04 #@! TO.N,Board_1-/Buck converter stage 1/I1A9*
X124533776Y-28401500D03*
G04 #@! TO.N,Board_1-/Buck converter stage 1/I2A9*
X123900000Y-30900000D03*
G04 #@! TO.N,Board_1-/Buck converter stage 1/SW*
X133100000Y-40200000D03*
X140200000Y-40400000D03*
G04 #@! TO.N,Board_1-/Buck converter stage 2/BOOT*
X131900000Y-23800000D03*
X132200000Y-26300000D03*
G04 #@! TO.N,Board_1-/Buck converter stage 2/SW*
X139500000Y-25300000D03*
D26*
X139700000Y-21800000D03*
X133100000Y-21800000D03*
D27*
G04 #@! TO.N,Board_1-/Control MCU/EXT*
X92000000Y-25100000D03*
X92220000Y-47250000D03*
X81300000Y-47600000D03*
X87700000Y-25100000D03*
G04 #@! TO.N,Board_1-/Control MCU/POWER_TOGGLE*
X91155180Y-26120494D03*
X87670000Y-47100000D03*
X88000000Y-26000000D03*
X80300000Y-47100000D03*
G04 #@! TO.N,Board_1-/Control MCU/RESET*
X87900000Y-33900000D03*
X86200000Y-21900000D03*
X89500000Y-21900000D03*
G04 #@! TO.N,Board_1-/Control MCU/RXD*
X90700000Y-28700000D03*
X90700000Y-40900000D03*
X88600000Y-28500000D03*
G04 #@! TO.N,Board_1-/Control MCU/TXD*
X90100000Y-43400000D03*
X88800000Y-27600000D03*
X90176500Y-27600000D03*
G04 #@! TO.N,Board_1-/Control MCU/TXD5J*
X88700000Y-33800000D03*
G04 #@! TO.N,Board_1-/Control MCU/VcapS*
X86400000Y-31023500D03*
X123200000Y-31100000D03*
G04 #@! TO.N,Board_1-/Control MCU/VinS*
X86000000Y-32300000D03*
X108400000Y-32300000D03*
G04 #@! TO.N,Board_1-/EN5V*
X88700000Y-30600000D03*
X87100000Y-36000000D03*
X106600000Y-28800000D03*
X131600000Y-28200000D03*
X106600000Y-30600000D03*
G04 #@! TO.N,Board_1-/Iin*
X93546500Y-23965870D03*
X133300000Y-52000000D03*
X124500000Y-36900000D03*
X128000000Y-45900000D03*
X86500000Y-24000000D03*
X93546500Y-29100000D03*
G04 #@! TO.N,Board_1-/LED_1*
X82400000Y-22400000D03*
X88500000Y-22400000D03*
G04 #@! TO.N,Board_1-/LED_2*
X89000000Y-23400000D03*
X82400000Y-23400000D03*
G04 #@! TO.N,Board_1-/LED_3*
X84000000Y-26500000D03*
X82400000Y-24400000D03*
G04 #@! TO.N,Board_1-/LED_4*
X81700000Y-28100000D03*
X81700000Y-26100000D03*
G04 #@! TO.N,Board_1-/RGPIO4*
X92870000Y-19800000D03*
X92870000Y-29200000D03*
X86954941Y-29529282D03*
G04 #@! TO.N,Board_1-/RTC/3V3B*
X120970000Y-17100000D03*
G04 #@! TO.N,Board_1-/RTC/RTCVDD*
X116202679Y-17788903D03*
X118000000Y-17000000D03*
G04 #@! TO.N,Board_1-/RTC/VBAT*
X117400000Y-19770000D03*
X117700000Y-47400000D03*
X120593590Y-18538254D03*
G04 #@! TO.N,Board_1-/RTC_INT*
X107800000Y-24700000D03*
X86900000Y-24600000D03*
G04 #@! TO.N,Board_1-/RXD0*
X94500000Y-44000000D03*
X94534116Y-15507934D03*
G04 #@! TO.N,Board_1-/RXD5*
X119600000Y-34600000D03*
X119920000Y-19650000D03*
X126100000Y-18900000D03*
X125044800Y-14856400D03*
G04 #@! TO.N,Board_1-/SCL*
X90050000Y-20150000D03*
X83100000Y-24000000D03*
X84500000Y-17200000D03*
X84900000Y-24000000D03*
X89300000Y-16200000D03*
X115600000Y-21300000D03*
G04 #@! TO.N,Board_1-/SDA*
X88700000Y-15000000D03*
X86800000Y-22900000D03*
X85500000Y-22900000D03*
X86800000Y-21200000D03*
X114300000Y-21900000D03*
X88300000Y-19800000D03*
G04 #@! TO.N,Board_1-/Supercapacitor/BO1+*
X100200000Y-38900000D03*
X98700000Y-38900000D03*
G04 #@! TO.N,Board_1-/Supercapacitor/BO2+*
X100000000Y-25600000D03*
X98600000Y-25600000D03*
G04 #@! TO.N,Board_1-/Supercapacitor/BO2o*
X98900000Y-21400000D03*
X97400000Y-21400000D03*
G04 #@! TO.N,Board_1-/Supercapacitor/BO3+*
X111400000Y-38700000D03*
X112900000Y-38600000D03*
G04 #@! TO.N,Board_1-/Supercapacitor/SC12*
X99200000Y-24000000D03*
X96300000Y-24000000D03*
X99900000Y-18800000D03*
X97170000Y-18900000D03*
G04 #@! TO.N,Board_1-/Supercapacitor/SC12R*
X101700000Y-30000000D03*
X98600000Y-30000000D03*
G04 #@! TO.N,Board_1-/Supercapacitor/SC23*
X107700000Y-25600000D03*
X107700000Y-33000000D03*
X98100000Y-22100000D03*
X101800000Y-22100000D03*
X111800000Y-32600000D03*
X101800000Y-25200000D03*
X110200000Y-44000000D03*
G04 #@! TO.N,Board_1-/Supercapacitor/SC23R*
X102500000Y-43000000D03*
X102500000Y-28300000D03*
X101100000Y-28300000D03*
X111100000Y-43000000D03*
G04 #@! TO.N,Board_1-/TXD0*
X93400000Y-42200000D03*
X93870000Y-15600000D03*
G04 #@! TO.N,Board_1-/TXD5*
X117100000Y-10800000D03*
X116500000Y-31700000D03*
G04 #@! TO.N,Board_1-/Vcap*
X121050000Y-39250000D03*
D28*
X124225000Y-26875000D03*
D27*
X129300000Y-42700000D03*
X110400000Y-39300000D03*
D28*
X122725000Y-26875000D03*
X121100000Y-26900000D03*
D27*
X112000000Y-33600000D03*
X129300000Y-37300000D03*
X129300000Y-44900000D03*
X121100000Y-33600000D03*
X113600000Y-44000000D03*
X134578993Y-50188275D03*
X114000000Y-39300000D03*
G04 #@! TO.N,Board_1-GND*
X114100000Y-40300000D03*
X95500000Y-51300000D03*
X104500000Y-20176500D03*
X131271052Y-15250000D03*
D28*
X131600000Y-43300000D03*
D27*
X109700000Y-39300000D03*
X125100000Y-21900000D03*
D29*
X103000000Y-51600000D03*
D27*
X91950000Y-17800000D03*
X118300000Y-27500000D03*
X95500000Y-50300000D03*
D29*
X134900000Y-48800000D03*
D27*
X97300000Y-25600000D03*
X125700000Y-40600000D03*
X136778946Y-15250000D03*
X109800000Y-25500000D03*
X108300000Y-25200000D03*
X139700000Y-21000000D03*
X79050000Y-46000000D03*
X79000000Y-28500000D03*
X101200000Y-27600000D03*
D29*
X95600000Y-15548500D03*
D27*
X127336842Y-15250000D03*
X105700000Y-49600000D03*
X111000000Y-32200000D03*
D29*
X107800000Y-54100000D03*
D27*
X95700000Y-23700000D03*
X131700000Y-23100000D03*
X136200000Y-25700000D03*
D28*
X129900000Y-18800000D03*
D27*
X129900000Y-44600000D03*
X99300000Y-20700000D03*
X136900000Y-48600000D03*
X85850000Y-27350000D03*
X138352630Y-15250000D03*
X93546500Y-23190237D03*
D29*
X107800000Y-55400000D03*
X132512400Y-12773600D03*
D27*
X129697368Y-15250000D03*
X127800000Y-33000000D03*
X125000000Y-29000000D03*
X98700000Y-43400000D03*
D29*
X123600000Y-23100000D03*
D27*
X113600000Y-43300000D03*
X114300000Y-37100000D03*
D29*
X134200000Y-39600000D03*
X103100000Y-59600000D03*
D28*
X136800000Y-43200000D03*
D27*
X90793500Y-27900000D03*
X78600000Y-53700000D03*
X79000000Y-45000000D03*
X95200000Y-44000000D03*
X123200000Y-44900000D03*
X115100000Y-30100000D03*
X136200000Y-30200000D03*
X79000000Y-34000000D03*
X125800000Y-21900000D03*
X111400000Y-37300000D03*
D26*
X92200000Y-49100000D03*
D27*
X133300000Y-22700000D03*
X86670000Y-7750000D03*
D26*
X110800000Y-20400000D03*
D27*
X89600000Y-42900000D03*
X84547952Y-22923500D03*
X132844736Y-15250000D03*
X131100000Y-49600000D03*
X94993500Y-27400000D03*
X91693500Y-34500000D03*
X123100000Y-37500000D03*
X117800000Y-16300000D03*
X106600000Y-28100000D03*
X130000000Y-42700000D03*
D29*
X91720000Y-9116000D03*
D27*
X133600000Y-31800000D03*
X127300000Y-43900000D03*
X136100000Y-48600000D03*
X117600000Y-11300000D03*
X111500000Y-34300000D03*
X140300000Y-50800000D03*
X86600000Y-26900000D03*
D28*
X131448500Y-25100000D03*
D27*
X130100000Y-22900000D03*
D29*
X127300000Y-45100000D03*
D27*
X135205262Y-15250000D03*
X87800000Y-35776500D03*
X139139472Y-15250000D03*
D28*
X128100000Y-18800000D03*
D27*
X118400000Y-47400000D03*
X107200000Y-30200000D03*
D26*
X106000000Y-18400000D03*
D27*
X134200000Y-55100000D03*
X104700000Y-21900000D03*
X135000000Y-52600000D03*
X109700000Y-43500000D03*
D29*
X101829200Y-9319200D03*
D27*
X133631578Y-15250000D03*
X95689625Y-35758159D03*
X122800000Y-31700000D03*
X115600000Y-41800000D03*
X132057894Y-15250000D03*
X137600000Y-53000000D03*
X89200000Y-28100000D03*
X89200000Y-19900000D03*
D28*
X139300000Y-27200000D03*
D27*
X88500000Y-32800000D03*
X102000000Y-43500000D03*
X123000000Y-24900000D03*
X86600000Y-27900000D03*
X133600000Y-52800000D03*
X139200000Y-32700000D03*
X126550000Y-15250000D03*
X86250000Y-48200000D03*
X126800000Y-18900000D03*
X106500000Y-48400000D03*
D26*
X115900000Y-15400000D03*
D27*
X128600000Y-42000000D03*
D29*
X100100000Y-33700000D03*
D27*
X135400000Y-30200000D03*
X93400000Y-42900000D03*
X107000000Y-32800000D03*
X115100000Y-21900000D03*
X116055665Y-18397912D03*
X79900000Y-49100000D03*
D29*
X101500000Y-58300000D03*
D27*
X81000000Y-46600000D03*
X100400000Y-18300000D03*
X109100000Y-32300000D03*
X83300000Y-49550000D03*
D29*
X101600000Y-50700000D03*
D27*
X80000000Y-55900000D03*
X111600000Y-43400000D03*
X82800000Y-22900000D03*
X119600000Y-35300000D03*
X134480000Y-30180000D03*
D29*
X128300000Y-40100000D03*
D27*
X128910526Y-15250000D03*
X95700000Y-21400000D03*
X90700000Y-41600000D03*
X140200000Y-39700000D03*
X97500000Y-50300000D03*
X134418420Y-15250000D03*
X102400000Y-30000000D03*
X96500000Y-50300000D03*
X140713156Y-15250000D03*
D28*
X139900000Y-45600000D03*
D29*
X128600000Y-37800000D03*
D27*
X139926314Y-15250000D03*
X123800000Y-36900000D03*
X118200000Y-42700000D03*
X124500000Y-31500000D03*
X93270000Y-29890496D03*
X85420000Y-31050000D03*
X102500000Y-25900000D03*
X101400000Y-21500000D03*
X108800000Y-30600000D03*
D28*
X133500000Y-24700000D03*
D27*
X130700000Y-33300000D03*
X137565788Y-15250000D03*
X89200000Y-15500000D03*
X99300000Y-37300000D03*
D26*
X86300000Y-15600000D03*
D29*
X128800000Y-50100000D03*
D27*
X97170000Y-18200000D03*
X117370000Y-19100000D03*
X137733945Y-50023500D03*
X85900000Y-21200000D03*
X126900000Y-36800000D03*
X92870000Y-19100000D03*
X134500000Y-25700000D03*
X97600000Y-30000000D03*
X88100000Y-29800000D03*
X87600000Y-22900000D03*
D26*
X84400000Y-16200000D03*
D27*
X79000000Y-39500000D03*
X135992104Y-15250000D03*
X99100000Y-40000000D03*
X128123684Y-15250000D03*
X89200000Y-22600000D03*
X119600000Y-39900000D03*
X139400000Y-51300000D03*
X120470000Y-19200000D03*
D26*
X100600000Y-43800000D03*
D27*
X83100000Y-24800000D03*
D28*
X136200000Y-24700000D03*
D27*
X130600000Y-28100000D03*
D29*
X132600000Y-37800000D03*
D27*
X99000000Y-22700000D03*
X82400000Y-26100000D03*
D28*
X134200000Y-43200000D03*
D27*
X91693500Y-25800000D03*
X130484210Y-15250000D03*
D26*
X92100000Y-15600000D03*
D27*
X99100000Y-38200000D03*
X137200000Y-32600000D03*
D29*
X106960000Y-9319200D03*
D27*
X123500000Y-17900000D03*
X103200000Y-28300000D03*
D29*
X131300000Y-37800000D03*
D28*
X131400000Y-18800000D03*
D27*
X123000000Y-30100000D03*
X84400000Y-25700000D03*
X128055529Y-22869712D03*
X135000000Y-33400000D03*
D29*
X121996800Y-9014400D03*
D27*
X116500000Y-32400000D03*
D29*
X114732400Y-14856400D03*
X127280000Y-9319200D03*
D26*
X110900000Y-47700000D03*
G04 #@! TO.N,Board_2-+3V3*
X48900000Y-79770000D03*
D27*
X58600000Y-104200000D03*
D26*
X22648500Y-78600000D03*
X23570000Y-83500000D03*
X25070000Y-83500000D03*
X25100000Y-96926500D03*
X52300000Y-85700000D03*
D27*
X15400000Y-78600000D03*
D26*
X25500000Y-88400000D03*
D27*
X68800000Y-113000000D03*
X48900000Y-104200000D03*
X58600000Y-106800000D03*
D26*
X48900000Y-88400000D03*
D28*
G04 #@! TO.N,Board_2-+5V*
X24060000Y-111060000D03*
D27*
X60300000Y-94200000D03*
X60000000Y-101900000D03*
X65000000Y-94200000D03*
D28*
X33300000Y-82900000D03*
D27*
X59500014Y-89396512D03*
D28*
X25700000Y-110400000D03*
X34700000Y-109900000D03*
D27*
X59500000Y-84100000D03*
D28*
X27200000Y-110400000D03*
X33300000Y-84800000D03*
X56425000Y-82075000D03*
X32900000Y-110400000D03*
X55100000Y-82000000D03*
X16670000Y-70550000D03*
X31300000Y-110400000D03*
X19180000Y-70616000D03*
D27*
G04 #@! TO.N,Board_2-/Buck converter stage 1/BOOT*
X62500000Y-106200000D03*
X61900000Y-103700000D03*
G04 #@! TO.N,Board_2-/Buck converter stage 1/FVSS*
X45600000Y-102600000D03*
X39500000Y-92100000D03*
X45600000Y-92100000D03*
X56200000Y-102600000D03*
G04 #@! TO.N,Board_2-/Buck converter stage 1/I1A9*
X54533776Y-89901500D03*
G04 #@! TO.N,Board_2-/Buck converter stage 1/I2A9*
X53900000Y-92400000D03*
G04 #@! TO.N,Board_2-/Buck converter stage 1/SW*
X63100000Y-101700000D03*
X70200000Y-101900000D03*
G04 #@! TO.N,Board_2-/Buck converter stage 2/BOOT*
X61900000Y-85300000D03*
X62200000Y-87800000D03*
G04 #@! TO.N,Board_2-/Buck converter stage 2/SW*
X69500000Y-86800000D03*
D26*
X69700000Y-83300000D03*
X63100000Y-83300000D03*
D27*
G04 #@! TO.N,Board_2-/Control MCU/EXT*
X22000000Y-86600000D03*
X22220000Y-108750000D03*
X11300000Y-109100000D03*
X17700000Y-86600000D03*
G04 #@! TO.N,Board_2-/Control MCU/POWER_TOGGLE*
X21155180Y-87620494D03*
X17670000Y-108600000D03*
X18000000Y-87500000D03*
X10300000Y-108600000D03*
G04 #@! TO.N,Board_2-/Control MCU/RESET*
X17900000Y-95400000D03*
X16200000Y-83400000D03*
X19500000Y-83400000D03*
G04 #@! TO.N,Board_2-/Control MCU/RXD*
X20700000Y-90200000D03*
X20700000Y-102400000D03*
X18600000Y-90000000D03*
G04 #@! TO.N,Board_2-/Control MCU/TXD*
X20100000Y-104900000D03*
X18800000Y-89100000D03*
X20176500Y-89100000D03*
G04 #@! TO.N,Board_2-/Control MCU/TXD5J*
X18700000Y-95300000D03*
G04 #@! TO.N,Board_2-/Control MCU/VcapS*
X16400000Y-92523500D03*
X53200000Y-92600000D03*
G04 #@! TO.N,Board_2-/Control MCU/VinS*
X16000000Y-93800000D03*
X38400000Y-93800000D03*
G04 #@! TO.N,Board_2-/EN5V*
X18700000Y-92100000D03*
X17100000Y-97500000D03*
X36600000Y-90300000D03*
X61600000Y-89700000D03*
X36600000Y-92100000D03*
G04 #@! TO.N,Board_2-/Iin*
X23546500Y-85465870D03*
X63300000Y-113500000D03*
X54500000Y-98400000D03*
X58000000Y-107400000D03*
X16500000Y-85500000D03*
X23546500Y-90600000D03*
G04 #@! TO.N,Board_2-/LED_1*
X12400000Y-83900000D03*
X18500000Y-83900000D03*
G04 #@! TO.N,Board_2-/LED_2*
X19000000Y-84900000D03*
X12400000Y-84900000D03*
G04 #@! TO.N,Board_2-/LED_3*
X14000000Y-88000000D03*
X12400000Y-85900000D03*
G04 #@! TO.N,Board_2-/LED_4*
X11700000Y-89600000D03*
X11700000Y-87600000D03*
G04 #@! TO.N,Board_2-/RGPIO4*
X22870000Y-81300000D03*
X22870000Y-90700000D03*
X16954941Y-91029282D03*
G04 #@! TO.N,Board_2-/RTC/3V3B*
X50970000Y-78600000D03*
G04 #@! TO.N,Board_2-/RTC/RTCVDD*
X46202679Y-79288903D03*
X48000000Y-78500000D03*
G04 #@! TO.N,Board_2-/RTC/VBAT*
X47400000Y-81270000D03*
X47700000Y-108900000D03*
X50593590Y-80038254D03*
G04 #@! TO.N,Board_2-/RTC_INT*
X37800000Y-86200000D03*
X16900000Y-86100000D03*
G04 #@! TO.N,Board_2-/RXD0*
X24500000Y-105500000D03*
X24534116Y-77007934D03*
G04 #@! TO.N,Board_2-/RXD5*
X49600000Y-96100000D03*
X49920000Y-81150000D03*
X56100000Y-80400000D03*
X55044800Y-76356400D03*
G04 #@! TO.N,Board_2-/SCL*
X20050000Y-81650000D03*
X13100000Y-85500000D03*
X14500000Y-78700000D03*
X14900000Y-85500000D03*
X19300000Y-77700000D03*
X45600000Y-82800000D03*
G04 #@! TO.N,Board_2-/SDA*
X18700000Y-76500000D03*
X16800000Y-84400000D03*
X15500000Y-84400000D03*
X16800000Y-82700000D03*
X44300000Y-83400000D03*
X18300000Y-81300000D03*
G04 #@! TO.N,Board_2-/Supercapacitor/BO1+*
X30200000Y-100400000D03*
X28700000Y-100400000D03*
G04 #@! TO.N,Board_2-/Supercapacitor/BO2+*
X30000000Y-87100000D03*
X28600000Y-87100000D03*
G04 #@! TO.N,Board_2-/Supercapacitor/BO2o*
X28900000Y-82900000D03*
X27400000Y-82900000D03*
G04 #@! TO.N,Board_2-/Supercapacitor/BO3+*
X41400000Y-100200000D03*
X42900000Y-100100000D03*
G04 #@! TO.N,Board_2-/Supercapacitor/SC12*
X29200000Y-85500000D03*
X26300000Y-85500000D03*
X29900000Y-80300000D03*
X27170000Y-80400000D03*
G04 #@! TO.N,Board_2-/Supercapacitor/SC12R*
X31700000Y-91500000D03*
X28600000Y-91500000D03*
G04 #@! TO.N,Board_2-/Supercapacitor/SC23*
X37700000Y-87100000D03*
X37700000Y-94500000D03*
X28100000Y-83600000D03*
X31800000Y-83600000D03*
X41800000Y-94100000D03*
X31800000Y-86700000D03*
X40200000Y-105500000D03*
G04 #@! TO.N,Board_2-/Supercapacitor/SC23R*
X32500000Y-104500000D03*
X32500000Y-89800000D03*
X31100000Y-89800000D03*
X41100000Y-104500000D03*
G04 #@! TO.N,Board_2-/TXD0*
X23400000Y-103700000D03*
X23870000Y-77100000D03*
G04 #@! TO.N,Board_2-/TXD5*
X47100000Y-72300000D03*
X46500000Y-93200000D03*
G04 #@! TO.N,Board_2-/Vcap*
X51050000Y-100750000D03*
D28*
X54225000Y-88375000D03*
D27*
X59300000Y-104200000D03*
X40400000Y-100800000D03*
D28*
X52725000Y-88375000D03*
X51100000Y-88400000D03*
D27*
X42000000Y-95100000D03*
X59300000Y-98800000D03*
X59300000Y-106400000D03*
X51100000Y-95100000D03*
X43600000Y-105500000D03*
X64578993Y-111688275D03*
X44000000Y-100800000D03*
G04 #@! TO.N,Board_2-GND*
X44100000Y-101800000D03*
X25500000Y-112800000D03*
X34500000Y-81676500D03*
X61271052Y-76750000D03*
D28*
X61600000Y-104800000D03*
D27*
X39700000Y-100800000D03*
X55100000Y-83400000D03*
D29*
X33000000Y-113100000D03*
D27*
X21950000Y-79300000D03*
X48300000Y-89000000D03*
X25500000Y-111800000D03*
D29*
X64900000Y-110300000D03*
D27*
X27300000Y-87100000D03*
X55700000Y-102100000D03*
X66778946Y-76750000D03*
X39800000Y-87000000D03*
X38300000Y-86700000D03*
X69700000Y-82500000D03*
X9050000Y-107500000D03*
X9000000Y-90000000D03*
X31200000Y-89100000D03*
D29*
X25600000Y-77048500D03*
D27*
X57336842Y-76750000D03*
X35700000Y-111100000D03*
X41000000Y-93700000D03*
D29*
X37800000Y-115600000D03*
D27*
X25700000Y-85200000D03*
X61700000Y-84600000D03*
X66200000Y-87200000D03*
D28*
X59900000Y-80300000D03*
D27*
X59900000Y-106100000D03*
X29300000Y-82200000D03*
X66900000Y-110100000D03*
X15850000Y-88850000D03*
X68352630Y-76750000D03*
X23546500Y-84690237D03*
D29*
X37800000Y-116900000D03*
X62512400Y-74273600D03*
D27*
X59697368Y-76750000D03*
X57800000Y-94500000D03*
X55000000Y-90500000D03*
X28700000Y-104900000D03*
D29*
X53600000Y-84600000D03*
D27*
X43600000Y-104800000D03*
X44300000Y-98600000D03*
D29*
X64200000Y-101100000D03*
X33100000Y-121100000D03*
D28*
X66800000Y-104700000D03*
D27*
X20793500Y-89400000D03*
X8600000Y-115200000D03*
X9000000Y-106500000D03*
X25200000Y-105500000D03*
X53200000Y-106400000D03*
X45100000Y-91600000D03*
X66200000Y-91700000D03*
X9000000Y-95500000D03*
X55800000Y-83400000D03*
X41400000Y-98800000D03*
D26*
X22200000Y-110600000D03*
D27*
X63300000Y-84200000D03*
X16670000Y-69250000D03*
D26*
X40800000Y-81900000D03*
D27*
X19600000Y-104400000D03*
X14547952Y-84423500D03*
X62844736Y-76750000D03*
X61100000Y-111100000D03*
X24993500Y-88900000D03*
X21693500Y-96000000D03*
X53100000Y-99000000D03*
X47800000Y-77800000D03*
X36600000Y-89600000D03*
X60000000Y-104200000D03*
D29*
X21720000Y-70616000D03*
D27*
X63600000Y-93300000D03*
X57300000Y-105400000D03*
X66100000Y-110100000D03*
X47600000Y-72800000D03*
X41500000Y-95800000D03*
X70300000Y-112300000D03*
X16600000Y-88400000D03*
D28*
X61448500Y-86600000D03*
D27*
X60100000Y-84400000D03*
D29*
X57300000Y-106600000D03*
D27*
X65205262Y-76750000D03*
X17800000Y-97276500D03*
X69139472Y-76750000D03*
D28*
X58100000Y-80300000D03*
D27*
X48400000Y-108900000D03*
X37200000Y-91700000D03*
D26*
X36000000Y-79900000D03*
D27*
X64200000Y-116600000D03*
X34700000Y-83400000D03*
X65000000Y-114100000D03*
X39700000Y-105000000D03*
D29*
X31829200Y-70819200D03*
D27*
X63631578Y-76750000D03*
X25689625Y-97258159D03*
X52800000Y-93200000D03*
X45600000Y-103300000D03*
X62057894Y-76750000D03*
X67600000Y-114500000D03*
X19200000Y-89600000D03*
X19200000Y-81400000D03*
D28*
X69300000Y-88700000D03*
D27*
X18500000Y-94300000D03*
X32000000Y-105000000D03*
X53000000Y-86400000D03*
X16600000Y-89400000D03*
X63600000Y-114300000D03*
X69200000Y-94200000D03*
X56550000Y-76750000D03*
X16250000Y-109700000D03*
X56800000Y-80400000D03*
X36500000Y-109900000D03*
D26*
X45900000Y-76900000D03*
D27*
X58600000Y-103500000D03*
D29*
X30100000Y-95200000D03*
D27*
X65400000Y-91700000D03*
X23400000Y-104400000D03*
X37000000Y-94300000D03*
X45100000Y-83400000D03*
X46055665Y-79897912D03*
X9900000Y-110600000D03*
D29*
X31500000Y-119800000D03*
D27*
X11000000Y-108100000D03*
X30400000Y-79800000D03*
X39100000Y-93800000D03*
X13300000Y-111050000D03*
D29*
X31600000Y-112200000D03*
D27*
X10000000Y-117400000D03*
X41600000Y-104900000D03*
X12800000Y-84400000D03*
X49600000Y-96800000D03*
X64480000Y-91680000D03*
D29*
X58300000Y-101600000D03*
D27*
X58910526Y-76750000D03*
X25700000Y-82900000D03*
X20700000Y-103100000D03*
X70200000Y-101200000D03*
X27500000Y-111800000D03*
X64418420Y-76750000D03*
X32400000Y-91500000D03*
X26500000Y-111800000D03*
X70713156Y-76750000D03*
D28*
X69900000Y-107100000D03*
D29*
X58600000Y-99300000D03*
D27*
X69926314Y-76750000D03*
X53800000Y-98400000D03*
X48200000Y-104200000D03*
X54500000Y-93000000D03*
X23270000Y-91390496D03*
X15420000Y-92550000D03*
X32500000Y-87400000D03*
X31400000Y-83000000D03*
X38800000Y-92100000D03*
D28*
X63500000Y-86200000D03*
D27*
X60700000Y-94800000D03*
X67565788Y-76750000D03*
X19200000Y-77000000D03*
X29300000Y-98800000D03*
D26*
X16300000Y-77100000D03*
D29*
X58800000Y-111600000D03*
D27*
X27170000Y-79700000D03*
X47370000Y-80600000D03*
X67733945Y-111523500D03*
X15900000Y-82700000D03*
X56900000Y-98300000D03*
X22870000Y-80600000D03*
X64500000Y-87200000D03*
X27600000Y-91500000D03*
X18100000Y-91300000D03*
X17600000Y-84400000D03*
D26*
X14400000Y-77700000D03*
D27*
X9000000Y-101000000D03*
X65992104Y-76750000D03*
X29100000Y-101500000D03*
X58123684Y-76750000D03*
X19200000Y-84100000D03*
X49600000Y-101400000D03*
X69400000Y-112800000D03*
X50470000Y-80700000D03*
D26*
X30600000Y-105300000D03*
D27*
X13100000Y-86300000D03*
D28*
X66200000Y-86200000D03*
D27*
X60600000Y-89600000D03*
D29*
X62600000Y-99300000D03*
D27*
X29000000Y-84200000D03*
X12400000Y-87600000D03*
D28*
X64200000Y-104700000D03*
D27*
X21693500Y-87300000D03*
X60484210Y-76750000D03*
D26*
X22100000Y-77100000D03*
D27*
X29100000Y-99700000D03*
X67200000Y-94100000D03*
D29*
X36960000Y-70819200D03*
D27*
X53500000Y-79400000D03*
X33200000Y-89800000D03*
D29*
X61300000Y-99300000D03*
D28*
X61400000Y-80300000D03*
D27*
X53000000Y-91600000D03*
X14400000Y-87200000D03*
X58055529Y-84369712D03*
X65000000Y-94900000D03*
D29*
X51996800Y-70514400D03*
D27*
X46500000Y-93900000D03*
D29*
X44732400Y-76356400D03*
X57280000Y-70819200D03*
D26*
X40900000Y-109200000D03*
G04 #@! TO.N,Board_3-+3V3*
X118900000Y-79770000D03*
D27*
X128600000Y-104200000D03*
D26*
X92648500Y-78600000D03*
X93570000Y-83500000D03*
X95070000Y-83500000D03*
X95100000Y-96926500D03*
X122300000Y-85700000D03*
D27*
X85400000Y-78600000D03*
D26*
X95500000Y-88400000D03*
D27*
X138800000Y-113000000D03*
X118900000Y-104200000D03*
X128600000Y-106800000D03*
D26*
X118900000Y-88400000D03*
D28*
G04 #@! TO.N,Board_3-+5V*
X94060000Y-111060000D03*
D27*
X130300000Y-94200000D03*
X130000000Y-101900000D03*
X135000000Y-94200000D03*
D28*
X103300000Y-82900000D03*
D27*
X129500014Y-89396512D03*
D28*
X95700000Y-110400000D03*
X104700000Y-109900000D03*
D27*
X129500000Y-84100000D03*
D28*
X97200000Y-110400000D03*
X103300000Y-84800000D03*
X126425000Y-82075000D03*
X102900000Y-110400000D03*
X125100000Y-82000000D03*
X86670000Y-70550000D03*
X101300000Y-110400000D03*
X89180000Y-70616000D03*
D27*
G04 #@! TO.N,Board_3-/Buck converter stage 1/BOOT*
X132500000Y-106200000D03*
X131900000Y-103700000D03*
G04 #@! TO.N,Board_3-/Buck converter stage 1/FVSS*
X115600000Y-102600000D03*
X109500000Y-92100000D03*
X115600000Y-92100000D03*
X126200000Y-102600000D03*
G04 #@! TO.N,Board_3-/Buck converter stage 1/I1A9*
X124533776Y-89901500D03*
G04 #@! TO.N,Board_3-/Buck converter stage 1/I2A9*
X123900000Y-92400000D03*
G04 #@! TO.N,Board_3-/Buck converter stage 1/SW*
X133100000Y-101700000D03*
X140200000Y-101900000D03*
G04 #@! TO.N,Board_3-/Buck converter stage 2/BOOT*
X131900000Y-85300000D03*
X132200000Y-87800000D03*
G04 #@! TO.N,Board_3-/Buck converter stage 2/SW*
X139500000Y-86800000D03*
D26*
X139700000Y-83300000D03*
X133100000Y-83300000D03*
D27*
G04 #@! TO.N,Board_3-/Control MCU/EXT*
X92000000Y-86600000D03*
X92220000Y-108750000D03*
X81300000Y-109100000D03*
X87700000Y-86600000D03*
G04 #@! TO.N,Board_3-/Control MCU/POWER_TOGGLE*
X91155180Y-87620494D03*
X87670000Y-108600000D03*
X88000000Y-87500000D03*
X80300000Y-108600000D03*
G04 #@! TO.N,Board_3-/Control MCU/RESET*
X87900000Y-95400000D03*
X86200000Y-83400000D03*
X89500000Y-83400000D03*
G04 #@! TO.N,Board_3-/Control MCU/RXD*
X90700000Y-90200000D03*
X90700000Y-102400000D03*
X88600000Y-90000000D03*
G04 #@! TO.N,Board_3-/Control MCU/TXD*
X90100000Y-104900000D03*
X88800000Y-89100000D03*
X90176500Y-89100000D03*
G04 #@! TO.N,Board_3-/Control MCU/TXD5J*
X88700000Y-95300000D03*
G04 #@! TO.N,Board_3-/Control MCU/VcapS*
X86400000Y-92523500D03*
X123200000Y-92600000D03*
G04 #@! TO.N,Board_3-/Control MCU/VinS*
X86000000Y-93800000D03*
X108400000Y-93800000D03*
G04 #@! TO.N,Board_3-/EN5V*
X88700000Y-92100000D03*
X87100000Y-97500000D03*
X106600000Y-90300000D03*
X131600000Y-89700000D03*
X106600000Y-92100000D03*
G04 #@! TO.N,Board_3-/Iin*
X93546500Y-85465870D03*
X133300000Y-113500000D03*
X124500000Y-98400000D03*
X128000000Y-107400000D03*
X86500000Y-85500000D03*
X93546500Y-90600000D03*
G04 #@! TO.N,Board_3-/LED_1*
X82400000Y-83900000D03*
X88500000Y-83900000D03*
G04 #@! TO.N,Board_3-/LED_2*
X89000000Y-84900000D03*
X82400000Y-84900000D03*
G04 #@! TO.N,Board_3-/LED_3*
X84000000Y-88000000D03*
X82400000Y-85900000D03*
G04 #@! TO.N,Board_3-/LED_4*
X81700000Y-89600000D03*
X81700000Y-87600000D03*
G04 #@! TO.N,Board_3-/RGPIO4*
X92870000Y-81300000D03*
X92870000Y-90700000D03*
X86954941Y-91029282D03*
G04 #@! TO.N,Board_3-/RTC/3V3B*
X120970000Y-78600000D03*
G04 #@! TO.N,Board_3-/RTC/RTCVDD*
X116202679Y-79288903D03*
X118000000Y-78500000D03*
G04 #@! TO.N,Board_3-/RTC/VBAT*
X117400000Y-81270000D03*
X117700000Y-108900000D03*
X120593590Y-80038254D03*
G04 #@! TO.N,Board_3-/RTC_INT*
X107800000Y-86200000D03*
X86900000Y-86100000D03*
G04 #@! TO.N,Board_3-/RXD0*
X94500000Y-105500000D03*
X94534116Y-77007934D03*
G04 #@! TO.N,Board_3-/RXD5*
X119600000Y-96100000D03*
X119920000Y-81150000D03*
X126100000Y-80400000D03*
X125044800Y-76356400D03*
G04 #@! TO.N,Board_3-/SCL*
X90050000Y-81650000D03*
X83100000Y-85500000D03*
X84500000Y-78700000D03*
X84900000Y-85500000D03*
X89300000Y-77700000D03*
X115600000Y-82800000D03*
G04 #@! TO.N,Board_3-/SDA*
X88700000Y-76500000D03*
X86800000Y-84400000D03*
X85500000Y-84400000D03*
X86800000Y-82700000D03*
X114300000Y-83400000D03*
X88300000Y-81300000D03*
G04 #@! TO.N,Board_3-/Supercapacitor/BO1+*
X100200000Y-100400000D03*
X98700000Y-100400000D03*
G04 #@! TO.N,Board_3-/Supercapacitor/BO2+*
X100000000Y-87100000D03*
X98600000Y-87100000D03*
G04 #@! TO.N,Board_3-/Supercapacitor/BO2o*
X98900000Y-82900000D03*
X97400000Y-82900000D03*
G04 #@! TO.N,Board_3-/Supercapacitor/BO3+*
X111400000Y-100200000D03*
X112900000Y-100100000D03*
G04 #@! TO.N,Board_3-/Supercapacitor/SC12*
X99200000Y-85500000D03*
X96300000Y-85500000D03*
X99900000Y-80300000D03*
X97170000Y-80400000D03*
G04 #@! TO.N,Board_3-/Supercapacitor/SC12R*
X101700000Y-91500000D03*
X98600000Y-91500000D03*
G04 #@! TO.N,Board_3-/Supercapacitor/SC23*
X107700000Y-87100000D03*
X107700000Y-94500000D03*
X98100000Y-83600000D03*
X101800000Y-83600000D03*
X111800000Y-94100000D03*
X101800000Y-86700000D03*
X110200000Y-105500000D03*
G04 #@! TO.N,Board_3-/Supercapacitor/SC23R*
X102500000Y-104500000D03*
X102500000Y-89800000D03*
X101100000Y-89800000D03*
X111100000Y-104500000D03*
G04 #@! TO.N,Board_3-/TXD0*
X93400000Y-103700000D03*
X93870000Y-77100000D03*
G04 #@! TO.N,Board_3-/TXD5*
X117100000Y-72300000D03*
X116500000Y-93200000D03*
G04 #@! TO.N,Board_3-/Vcap*
X121050000Y-100750000D03*
D28*
X124225000Y-88375000D03*
D27*
X129300000Y-104200000D03*
X110400000Y-100800000D03*
D28*
X122725000Y-88375000D03*
X121100000Y-88400000D03*
D27*
X112000000Y-95100000D03*
X129300000Y-98800000D03*
X129300000Y-106400000D03*
X121100000Y-95100000D03*
X113600000Y-105500000D03*
X134578993Y-111688275D03*
X114000000Y-100800000D03*
G04 #@! TO.N,Board_3-GND*
X114100000Y-101800000D03*
X95500000Y-112800000D03*
X104500000Y-81676500D03*
X131271052Y-76750000D03*
D28*
X131600000Y-104800000D03*
D27*
X109700000Y-100800000D03*
X125100000Y-83400000D03*
D29*
X103000000Y-113100000D03*
D27*
X91950000Y-79300000D03*
X118300000Y-89000000D03*
X95500000Y-111800000D03*
D29*
X134900000Y-110300000D03*
D27*
X97300000Y-87100000D03*
X125700000Y-102100000D03*
X136778946Y-76750000D03*
X109800000Y-87000000D03*
X108300000Y-86700000D03*
X139700000Y-82500000D03*
X79050000Y-107500000D03*
X79000000Y-90000000D03*
X101200000Y-89100000D03*
D29*
X95600000Y-77048500D03*
D27*
X127336842Y-76750000D03*
X105700000Y-111100000D03*
X111000000Y-93700000D03*
D29*
X107800000Y-115600000D03*
D27*
X95700000Y-85200000D03*
X131700000Y-84600000D03*
X136200000Y-87200000D03*
D28*
X129900000Y-80300000D03*
D27*
X129900000Y-106100000D03*
X99300000Y-82200000D03*
X136900000Y-110100000D03*
X85850000Y-88850000D03*
X138352630Y-76750000D03*
X93546500Y-84690237D03*
D29*
X107800000Y-116900000D03*
X132512400Y-74273600D03*
D27*
X129697368Y-76750000D03*
X127800000Y-94500000D03*
X125000000Y-90500000D03*
X98700000Y-104900000D03*
D29*
X123600000Y-84600000D03*
D27*
X113600000Y-104800000D03*
X114300000Y-98600000D03*
D29*
X134200000Y-101100000D03*
X103100000Y-121100000D03*
D28*
X136800000Y-104700000D03*
D27*
X90793500Y-89400000D03*
X78600000Y-115200000D03*
X79000000Y-106500000D03*
X95200000Y-105500000D03*
X123200000Y-106400000D03*
X115100000Y-91600000D03*
X136200000Y-91700000D03*
X79000000Y-95500000D03*
X125800000Y-83400000D03*
X111400000Y-98800000D03*
D26*
X92200000Y-110600000D03*
D27*
X133300000Y-84200000D03*
X86670000Y-69250000D03*
D26*
X110800000Y-81900000D03*
D27*
X89600000Y-104400000D03*
X84547952Y-84423500D03*
X132844736Y-76750000D03*
X131100000Y-111100000D03*
X94993500Y-88900000D03*
X91693500Y-96000000D03*
X123100000Y-99000000D03*
X117800000Y-77800000D03*
X106600000Y-89600000D03*
X130000000Y-104200000D03*
D29*
X91720000Y-70616000D03*
D27*
X133600000Y-93300000D03*
X127300000Y-105400000D03*
X136100000Y-110100000D03*
X117600000Y-72800000D03*
X111500000Y-95800000D03*
X140300000Y-112300000D03*
X86600000Y-88400000D03*
D28*
X131448500Y-86600000D03*
D27*
X130100000Y-84400000D03*
D29*
X127300000Y-106600000D03*
D27*
X135205262Y-76750000D03*
X87800000Y-97276500D03*
X139139472Y-76750000D03*
D28*
X128100000Y-80300000D03*
D27*
X118400000Y-108900000D03*
X107200000Y-91700000D03*
D26*
X106000000Y-79900000D03*
D27*
X134200000Y-116600000D03*
X104700000Y-83400000D03*
X135000000Y-114100000D03*
X109700000Y-105000000D03*
D29*
X101829200Y-70819200D03*
D27*
X133631578Y-76750000D03*
X95689625Y-97258159D03*
X122800000Y-93200000D03*
X115600000Y-103300000D03*
X132057894Y-76750000D03*
X137600000Y-114500000D03*
X89200000Y-89600000D03*
X89200000Y-81400000D03*
D28*
X139300000Y-88700000D03*
D27*
X88500000Y-94300000D03*
X102000000Y-105000000D03*
X123000000Y-86400000D03*
X86600000Y-89400000D03*
X133600000Y-114300000D03*
X139200000Y-94200000D03*
X126550000Y-76750000D03*
X86250000Y-109700000D03*
X126800000Y-80400000D03*
X106500000Y-109900000D03*
D26*
X115900000Y-76900000D03*
D27*
X128600000Y-103500000D03*
D29*
X100100000Y-95200000D03*
D27*
X135400000Y-91700000D03*
X93400000Y-104400000D03*
X107000000Y-94300000D03*
X115100000Y-83400000D03*
X116055665Y-79897912D03*
X79900000Y-110600000D03*
D29*
X101500000Y-119800000D03*
D27*
X81000000Y-108100000D03*
X100400000Y-79800000D03*
X109100000Y-93800000D03*
X83300000Y-111050000D03*
D29*
X101600000Y-112200000D03*
D27*
X80000000Y-117400000D03*
X111600000Y-104900000D03*
X82800000Y-84400000D03*
X119600000Y-96800000D03*
X134480000Y-91680000D03*
D29*
X128300000Y-101600000D03*
D27*
X128910526Y-76750000D03*
X95700000Y-82900000D03*
X90700000Y-103100000D03*
X140200000Y-101200000D03*
X97500000Y-111800000D03*
X134418420Y-76750000D03*
X102400000Y-91500000D03*
X96500000Y-111800000D03*
X140713156Y-76750000D03*
D28*
X139900000Y-107100000D03*
D29*
X128600000Y-99300000D03*
D27*
X139926314Y-76750000D03*
X123800000Y-98400000D03*
X118200000Y-104200000D03*
X124500000Y-93000000D03*
X93270000Y-91390496D03*
X85420000Y-92550000D03*
X102500000Y-87400000D03*
X101400000Y-83000000D03*
X108800000Y-92100000D03*
D28*
X133500000Y-86200000D03*
D27*
X130700000Y-94800000D03*
X137565788Y-76750000D03*
X89200000Y-77000000D03*
X99300000Y-98800000D03*
D26*
X86300000Y-77100000D03*
D29*
X128800000Y-111600000D03*
D27*
X97170000Y-79700000D03*
X117370000Y-80600000D03*
X137733945Y-111523500D03*
X85900000Y-82700000D03*
X126900000Y-98300000D03*
X92870000Y-80600000D03*
X134500000Y-87200000D03*
X97600000Y-91500000D03*
X88100000Y-91300000D03*
X87600000Y-84400000D03*
D26*
X84400000Y-77700000D03*
D27*
X79000000Y-101000000D03*
X135992104Y-76750000D03*
X99100000Y-101500000D03*
X128123684Y-76750000D03*
X89200000Y-84100000D03*
X119600000Y-101400000D03*
X139400000Y-112800000D03*
X120470000Y-80700000D03*
D26*
X100600000Y-105300000D03*
D27*
X83100000Y-86300000D03*
D28*
X136200000Y-86200000D03*
D27*
X130600000Y-89600000D03*
D29*
X132600000Y-99300000D03*
D27*
X99000000Y-84200000D03*
X82400000Y-87600000D03*
D28*
X134200000Y-104700000D03*
D27*
X91693500Y-87300000D03*
X130484210Y-76750000D03*
D26*
X92100000Y-77100000D03*
D27*
X99100000Y-99700000D03*
X137200000Y-94100000D03*
D29*
X106960000Y-70819200D03*
D27*
X123500000Y-79400000D03*
X103200000Y-89800000D03*
D29*
X131300000Y-99300000D03*
D28*
X131400000Y-80300000D03*
D27*
X123000000Y-91600000D03*
X84400000Y-87200000D03*
X128055529Y-84369712D03*
X135000000Y-94900000D03*
D29*
X121996800Y-70514400D03*
D27*
X116500000Y-93900000D03*
D29*
X114732400Y-76356400D03*
X127280000Y-70819200D03*
D26*
X110900000Y-109200000D03*
G04 #@! TD*
D30*
G04 #@! TO.N,Board_0-+3V3*
X58600000Y-42700000D02*
X48900000Y-42700000D01*
X23401300Y-37125200D02*
X25100000Y-35426500D01*
X68100000Y-50800000D02*
X64124525Y-50800000D01*
X14540000Y-37125200D02*
X23401300Y-37125200D01*
X52300000Y-24200000D02*
X51600000Y-24200000D01*
X48900000Y-17200000D02*
X48900000Y-18270000D01*
X51600000Y-24200000D02*
X48900000Y-26900000D01*
X22648500Y-17100000D02*
X15400000Y-17100000D01*
X48900000Y-26900000D02*
X25500000Y-26900000D01*
X58624525Y-45300000D02*
X58600000Y-45300000D01*
X64124525Y-50800000D02*
X58624525Y-45300000D01*
X68800000Y-51500000D02*
X68100000Y-50800000D01*
X25070000Y-22000000D02*
X23570000Y-22000000D01*
D31*
G04 #@! TO.N,Board_0-+5V*
X55100000Y-20500000D02*
X52100000Y-20500000D01*
D32*
X17520000Y-8200000D02*
X16670000Y-9050000D01*
D33*
X60000000Y-33000000D02*
X60300000Y-32700000D01*
D31*
X49300000Y-23300000D02*
X33300000Y-23300000D01*
D33*
X59500000Y-22600000D02*
X59500000Y-27896498D01*
D32*
X15370000Y-8015000D02*
X15635000Y-8015000D01*
D31*
X27200000Y-48900000D02*
X31300000Y-48900000D01*
X56350000Y-20500000D02*
X56425000Y-20575000D01*
D32*
X17910000Y-8015000D02*
X17910000Y-9730000D01*
D31*
X24720000Y-48900000D02*
X25700000Y-48900000D01*
X52100000Y-20500000D02*
X49300000Y-23300000D01*
X31300000Y-48900000D02*
X32900000Y-48900000D01*
D32*
X19180000Y-9116000D02*
X18264000Y-8200000D01*
X15635000Y-8015000D02*
X16670000Y-9050000D01*
D31*
X33300000Y-23300000D02*
X33300000Y-21400000D01*
X25700000Y-48900000D02*
X27200000Y-48900000D01*
D33*
X65000000Y-32700000D02*
X60300000Y-32700000D01*
X60000000Y-40400000D02*
X60000000Y-33000000D01*
X59500000Y-27896498D02*
X59500014Y-27896512D01*
D32*
X15370000Y-8015000D02*
X15370000Y-9730000D01*
D31*
X32900000Y-48900000D02*
X34200000Y-48900000D01*
X34200000Y-48900000D02*
X34700000Y-48400000D01*
X55100000Y-20500000D02*
X56350000Y-20500000D01*
D32*
X18264000Y-8200000D02*
X17520000Y-8200000D01*
D31*
X24060000Y-49560000D02*
X24720000Y-48900000D01*
D33*
G04 #@! TO.N,Board_0-/Buck converter stage 1/BOOT*
X62500000Y-44700000D02*
X62500000Y-42800000D01*
X62500000Y-42800000D02*
X61900000Y-42200000D01*
D34*
G04 #@! TO.N,Board_0-/Buck converter stage 1/FVSS*
X39500000Y-30600000D02*
X45600000Y-30600000D01*
X45600000Y-41100000D02*
X56200000Y-41100000D01*
D33*
G04 #@! TO.N,Board_0-/Buck converter stage 1/I1A9*
X59040000Y-29500000D02*
X57937109Y-28397109D01*
X57937109Y-28397109D02*
X54538167Y-28397109D01*
X54538167Y-28397109D02*
X54533776Y-28401500D01*
G04 #@! TO.N,Board_0-/Buck converter stage 1/I2A9*
X57900000Y-30900000D02*
X53900000Y-30900000D01*
X59040000Y-32040000D02*
X57900000Y-30900000D01*
G04 #@! TO.N,Board_0-/Buck converter stage 1/SW*
X63100000Y-40200000D02*
X63300000Y-40400000D01*
X63300000Y-40400000D02*
X70200000Y-40400000D01*
G04 #@! TO.N,Board_0-/Buck converter stage 2/BOOT*
X62200000Y-26300000D02*
X62200000Y-24100000D01*
X62200000Y-24100000D02*
X61900000Y-23800000D01*
D34*
G04 #@! TO.N,Board_0-/Buck converter stage 2/SW*
X63100000Y-21800000D02*
X69700000Y-21800000D01*
D33*
X69000000Y-24800000D02*
X69500000Y-25300000D01*
X69000000Y-23800000D02*
X69000000Y-24800000D01*
D34*
G04 #@! TO.N,Board_0-/Control MCU/EXT*
X17700000Y-25100000D02*
X22000000Y-25100000D01*
X11300000Y-47600000D02*
X12400000Y-48700000D01*
X12400000Y-48700000D02*
X20770000Y-48700000D01*
X20770000Y-48700000D02*
X22220000Y-47250000D01*
G04 #@! TO.N,Board_0-/Control MCU/POWER_TOGGLE*
X10300000Y-47100000D02*
X17670000Y-47100000D01*
X18000000Y-26000000D02*
X21034686Y-26000000D01*
X21034686Y-26000000D02*
X21155180Y-26120494D01*
G04 #@! TO.N,Board_0-/Control MCU/RESET*
X16200000Y-21900000D02*
X19500000Y-21900000D01*
X17900000Y-33900000D02*
X17508200Y-33508200D01*
X17508200Y-33508200D02*
X13077000Y-33508200D01*
X13077000Y-33508200D02*
X12000000Y-34585200D01*
G04 #@! TO.N,Board_0-/Control MCU/RXD*
X18600000Y-28500000D02*
X18800000Y-28700000D01*
X18800000Y-28700000D02*
X20700000Y-28700000D01*
X20700000Y-40900000D02*
X13305200Y-40900000D01*
X13305200Y-40900000D02*
X12000000Y-42205200D01*
G04 #@! TO.N,Board_0-/Control MCU/TXD*
X20100000Y-43400000D02*
X13345200Y-43400000D01*
X13345200Y-43400000D02*
X12000000Y-44745200D01*
X18800000Y-27600000D02*
X20176500Y-27600000D01*
G04 #@! TO.N,Board_0-/Control MCU/TXD5J*
X13077000Y-33122200D02*
X12000000Y-32045200D01*
X18022200Y-33122200D02*
X13077000Y-33122200D01*
X18700000Y-33800000D02*
X18022200Y-33122200D01*
G04 #@! TO.N,Board_0-/Control MCU/VcapS*
X53200000Y-31100000D02*
X16476500Y-31100000D01*
X16476500Y-31100000D02*
X16400000Y-31023500D01*
G04 #@! TO.N,Board_0-/Control MCU/VinS*
X16000000Y-32300000D02*
X16300000Y-32000000D01*
X16300000Y-32000000D02*
X38100000Y-32000000D01*
X38100000Y-32000000D02*
X38400000Y-32300000D01*
D33*
G04 #@! TO.N,Board_0-/EN5V*
X61600000Y-28200000D02*
X61000000Y-28800000D01*
X58798000Y-28398000D02*
X58300000Y-27900000D01*
X51400000Y-27900000D02*
X50500000Y-28800000D01*
X59898464Y-28800000D02*
X59496464Y-28398000D01*
X58300000Y-27900000D02*
X51400000Y-27900000D01*
X12000000Y-37125200D02*
X13125200Y-36000000D01*
X59496464Y-28398000D02*
X58798000Y-28398000D01*
X36600000Y-30600000D02*
X18700000Y-30600000D01*
X61000000Y-28800000D02*
X59898464Y-28800000D01*
X13125200Y-36000000D02*
X17100000Y-36000000D01*
X50500000Y-28800000D02*
X36600000Y-28800000D01*
D34*
G04 #@! TO.N,Board_0-/I/O/GPIO4*
X22990000Y-16345000D02*
X23845000Y-17200000D01*
X22990000Y-13900000D02*
X22990000Y-16345000D01*
D35*
X22990000Y-12270000D02*
X22990000Y-13985000D01*
D34*
G04 #@! TO.N,Board_0-/Iin*
X23512370Y-24000000D02*
X23546500Y-23965870D01*
X56500000Y-29500000D02*
X23946500Y-29500000D01*
D33*
X58000000Y-45900000D02*
X58000000Y-47209229D01*
X54500000Y-36900000D02*
X54500000Y-34040000D01*
X62790771Y-52000000D02*
X63300000Y-52000000D01*
D34*
X16500000Y-24000000D02*
X23512370Y-24000000D01*
X23946500Y-29500000D02*
X23546500Y-29100000D01*
D33*
X58000000Y-47209229D02*
X62790771Y-52000000D01*
X54500000Y-34040000D02*
X56500000Y-32040000D01*
D34*
G04 #@! TO.N,Board_0-/LED_1*
X18500000Y-22400000D02*
X12400000Y-22400000D01*
G04 #@! TO.N,Board_0-/LED_2*
X19000000Y-23400000D02*
X12400000Y-23400000D01*
G04 #@! TO.N,Board_0-/LED_3*
X14000000Y-26500000D02*
X12400000Y-24900000D01*
X12400000Y-24900000D02*
X12400000Y-24400000D01*
G04 #@! TO.N,Board_0-/LED_4*
X11700000Y-28100000D02*
X11700000Y-26100000D01*
G04 #@! TO.N,Board_0-/RGPIO4*
X25170000Y-19800000D02*
X22870000Y-19800000D01*
X17440718Y-29529282D02*
X17770000Y-29200000D01*
X21970000Y-29200000D02*
X22870000Y-29200000D01*
X21870000Y-29200000D02*
X21970000Y-29200000D01*
X17770000Y-29200000D02*
X21870000Y-29200000D01*
X25295000Y-17200000D02*
X25295000Y-19675000D01*
X16954941Y-29529282D02*
X17440718Y-29529282D01*
X25295000Y-19675000D02*
X25170000Y-19800000D01*
D33*
G04 #@! TO.N,Board_0-/RTC/3V3B*
X50200000Y-17200000D02*
X50870000Y-17200000D01*
X50870000Y-17200000D02*
X50970000Y-17100000D01*
G04 #@! TO.N,Board_0-/RTC/RTCVDD*
X47211097Y-17788903D02*
X46202679Y-17788903D01*
X48000000Y-17000000D02*
X47211097Y-17788903D01*
G04 #@! TO.N,Board_0-/RTC/VBAT*
X42450000Y-56600000D02*
X42450000Y-52650000D01*
X50071685Y-18538254D02*
X50593590Y-18538254D01*
X42450000Y-52650000D02*
X47700000Y-47400000D01*
X47400000Y-19770000D02*
X48839939Y-19770000D01*
X48839939Y-19770000D02*
X50071685Y-18538254D01*
D34*
G04 #@! TO.N,Board_0-/RTC_INT*
X37700000Y-24600000D02*
X37800000Y-24700000D01*
X16900000Y-24600000D02*
X37700000Y-24600000D01*
G04 #@! TO.N,Board_0-/RXD0*
X24470000Y-10790000D02*
X24470000Y-15443818D01*
X14540000Y-44745200D02*
X15285200Y-44000000D01*
D35*
X25530000Y-8015000D02*
X25530000Y-9730000D01*
D34*
X25530000Y-9730000D02*
X24470000Y-10790000D01*
X24470000Y-15443818D02*
X24534116Y-15507934D01*
X15285200Y-44000000D02*
X24500000Y-44000000D01*
D35*
G04 #@! TO.N,Board_0-/RXD5*
X56010000Y-12270000D02*
X56010000Y-13985000D01*
D34*
X56001200Y-13900000D02*
X55044800Y-14856400D01*
X56010000Y-13900000D02*
X56001200Y-13900000D01*
X49300000Y-34900000D02*
X49600000Y-34600000D01*
X14540000Y-34585200D02*
X15254800Y-35300000D01*
X56100000Y-18900000D02*
X51443873Y-18900000D01*
X22170000Y-35300000D02*
X22570000Y-34900000D01*
X49946500Y-19676500D02*
X49920000Y-19650000D01*
X50667373Y-19676500D02*
X49946500Y-19676500D01*
X22570000Y-34900000D02*
X49300000Y-34900000D01*
X15254800Y-35300000D02*
X22170000Y-35300000D01*
X51443873Y-18900000D02*
X50667373Y-19676500D01*
G04 #@! TO.N,Board_0-/SCL*
X19100000Y-16400000D02*
X19300000Y-16200000D01*
X14500000Y-17200000D02*
X15300000Y-16400000D01*
X45600000Y-21300000D02*
X44000000Y-19700000D01*
X44000000Y-19700000D02*
X25731742Y-19700000D01*
X22426501Y-20326501D02*
X21600000Y-19500000D01*
D33*
X20400000Y-19800000D02*
X20050000Y-20150000D01*
D34*
X14900000Y-24000000D02*
X13100000Y-24000000D01*
X25731742Y-19700000D02*
X25105241Y-20326501D01*
X15300000Y-16400000D02*
X19100000Y-16400000D01*
D33*
X21300000Y-19800000D02*
X20400000Y-19800000D01*
D34*
X25105241Y-20326501D02*
X22426501Y-20326501D01*
X20450000Y-15050000D02*
X20450000Y-13900000D01*
X19300000Y-16200000D02*
X20450000Y-15050000D01*
D35*
X20450000Y-13985000D02*
X20450000Y-12270000D01*
D34*
G04 #@! TO.N,Board_0-/SDA*
X33808033Y-20173499D02*
X25996501Y-20173499D01*
X17910000Y-13900000D02*
X18700000Y-14690000D01*
X16800000Y-21200000D02*
X16800000Y-20300000D01*
X25996501Y-20173499D02*
X24970000Y-21200000D01*
X18700000Y-14690000D02*
X18700000Y-15000000D01*
X19700000Y-21200000D02*
X18300000Y-19800000D01*
D35*
X17910000Y-13985000D02*
X17910000Y-12270000D01*
D33*
X16300000Y-19800000D02*
X18300000Y-19800000D01*
D34*
X15500000Y-22900000D02*
X16800000Y-22900000D01*
X24970000Y-21200000D02*
X19700000Y-21200000D01*
X44300000Y-21900000D02*
X35534534Y-21900000D01*
X35534534Y-21900000D02*
X33808033Y-20173499D01*
D33*
G04 #@! TO.N,Board_0-/Supercapacitor/BO1+*
X30200000Y-38900000D02*
X28700000Y-38900000D01*
G04 #@! TO.N,Board_0-/Supercapacitor/BO2+*
X30000000Y-25600000D02*
X28600000Y-25600000D01*
G04 #@! TO.N,Board_0-/Supercapacitor/BO2o*
X28900000Y-21400000D02*
X27400000Y-21400000D01*
G04 #@! TO.N,Board_0-/Supercapacitor/BO3+*
X42800000Y-38700000D02*
X42900000Y-38600000D01*
X41400000Y-38700000D02*
X42800000Y-38700000D01*
G04 #@! TO.N,Board_0-/Supercapacitor/SC12*
X26300000Y-24000000D02*
X29200000Y-24000000D01*
D30*
X29800000Y-18900000D02*
X27170000Y-18900000D01*
X29900000Y-18800000D02*
X29800000Y-18900000D01*
D31*
X32950000Y-46255000D02*
X25495000Y-46255000D01*
X25495000Y-46255000D02*
X25450000Y-46300000D01*
D33*
G04 #@! TO.N,Board_0-/Supercapacitor/SC12R*
X28600000Y-30000000D02*
X31700000Y-30000000D01*
D30*
G04 #@! TO.N,Board_0-/Supercapacitor/SC23*
X28100000Y-22100000D02*
X31800000Y-22100000D01*
X37300000Y-25200000D02*
X37700000Y-25600000D01*
X41800000Y-32600000D02*
X41400000Y-33000000D01*
X40200000Y-44000000D02*
X38250000Y-45950000D01*
X31800000Y-25200000D02*
X37300000Y-25200000D01*
X41400000Y-33000000D02*
X37700000Y-33000000D01*
D31*
X45750000Y-46255000D02*
X38250000Y-46255000D01*
D34*
G04 #@! TO.N,Board_0-/Supercapacitor/SC23R*
X32500000Y-28300000D02*
X31100000Y-28300000D01*
X32500000Y-43000000D02*
X41100000Y-43000000D01*
G04 #@! TO.N,Board_0-/TXD0*
X23394800Y-42205200D02*
X23400000Y-42200000D01*
X24070000Y-15400000D02*
X23870000Y-15600000D01*
X14540000Y-42205200D02*
X23394800Y-42205200D01*
D35*
X22990000Y-8015000D02*
X22990000Y-9730000D01*
D34*
X22990000Y-9730000D02*
X24070000Y-10810000D01*
X24070000Y-10810000D02*
X24070000Y-15400000D01*
G04 #@! TO.N,Board_0-/TXD5*
X47100000Y-10800000D02*
X52531998Y-10800000D01*
X52531998Y-10800000D02*
X53470000Y-9861998D01*
X15085200Y-31500000D02*
X46300000Y-31500000D01*
X14885200Y-31700000D02*
X15085200Y-31500000D01*
X53470000Y-9861998D02*
X53470000Y-8100000D01*
X46300000Y-31500000D02*
X46500000Y-31700000D01*
D35*
X53470000Y-8015000D02*
X53470000Y-9730000D01*
D30*
G04 #@! TO.N,Board_0-/Vcap*
X48795000Y-44000000D02*
X51050000Y-46255000D01*
D33*
X59300000Y-42700000D02*
X59300000Y-37300000D01*
X40400000Y-39300000D02*
X44000000Y-39300000D01*
X51050000Y-39250000D02*
X51000000Y-39300000D01*
D36*
X54225000Y-26875000D02*
X51125000Y-26875000D01*
D30*
X42000000Y-33600000D02*
X51100000Y-33600000D01*
D33*
X64578993Y-50188275D02*
X59300000Y-44909282D01*
X59300000Y-44909282D02*
X59300000Y-44900000D01*
D36*
X51125000Y-26875000D02*
X51100000Y-26900000D01*
D30*
X43600000Y-44000000D02*
X48795000Y-44000000D01*
D33*
X51000000Y-39300000D02*
X44000000Y-39300000D01*
D32*
G04 #@! TO.N,Board_0-GND*
X20450000Y-8015000D02*
X20450000Y-9730000D01*
D35*
X30610000Y-8015000D02*
X30610000Y-9730000D01*
X56010000Y-8015000D02*
X56010000Y-9730000D01*
X62512400Y-12782400D02*
X62512400Y-12773600D01*
X50930000Y-8100000D02*
X51082400Y-8100000D01*
X38230000Y-8015000D02*
X38230000Y-9730000D01*
X63630000Y-12270000D02*
X63630000Y-13985000D01*
X51082400Y-8100000D02*
X51996800Y-9014400D01*
X56060800Y-8100000D02*
X57280000Y-9319200D01*
X20704000Y-8100000D02*
X21720000Y-9116000D01*
X45688800Y-13900000D02*
X44732400Y-14856400D01*
X38179200Y-8100000D02*
X36960000Y-9319200D01*
X45850000Y-12270000D02*
X45850000Y-13900000D01*
X25530000Y-15478500D02*
X25600000Y-15548500D01*
X25530000Y-13900000D02*
X25530000Y-15478500D01*
X56010000Y-8100000D02*
X56060800Y-8100000D01*
X30610000Y-8100000D02*
X31829200Y-9319200D01*
X45850000Y-13900000D02*
X45688800Y-13900000D01*
X50930000Y-8015000D02*
X50930000Y-9730000D01*
X63630000Y-13900000D02*
X62512400Y-12782400D01*
X20450000Y-8100000D02*
X20704000Y-8100000D01*
D30*
X45850000Y-13900000D02*
X45850000Y-15350000D01*
D35*
X38230000Y-8100000D02*
X38179200Y-8100000D01*
D30*
X45850000Y-15350000D02*
X45900000Y-15400000D01*
D35*
X25530000Y-12270000D02*
X25530000Y-13985000D01*
G04 #@! TO.N,Board_0-unconnected-(J501-Pad1)*
X15370000Y-13985000D02*
X15370000Y-12270000D01*
G04 #@! TO.N,Board_0-unconnected-(J501-Pad11)*
X28070000Y-12270000D02*
X28070000Y-13985000D01*
G04 #@! TO.N,Board_0-unconnected-(J501-Pad12)*
X28070000Y-8015000D02*
X28070000Y-9730000D01*
G04 #@! TO.N,Board_0-unconnected-(J501-Pad13)*
X30610000Y-12270000D02*
X30610000Y-13985000D01*
G04 #@! TO.N,Board_0-unconnected-(J501-Pad15)*
X33150000Y-12270000D02*
X33150000Y-13985000D01*
G04 #@! TO.N,Board_0-unconnected-(J501-Pad16)*
X33150000Y-8015000D02*
X33150000Y-9730000D01*
G04 #@! TO.N,Board_0-unconnected-(J501-Pad17)*
X35690000Y-12270000D02*
X35690000Y-13985000D01*
G04 #@! TO.N,Board_0-unconnected-(J501-Pad18)*
X35690000Y-8015000D02*
X35690000Y-9730000D01*
G04 #@! TO.N,Board_0-unconnected-(J501-Pad19)*
X38230000Y-12270000D02*
X38230000Y-13985000D01*
G04 #@! TO.N,Board_0-unconnected-(J501-Pad21)*
X40770000Y-12270000D02*
X40770000Y-13985000D01*
G04 #@! TO.N,Board_0-unconnected-(J501-Pad22)*
X40770000Y-8015000D02*
X40770000Y-9730000D01*
G04 #@! TO.N,Board_0-unconnected-(J501-Pad23)*
X43310000Y-12270000D02*
X43310000Y-13985000D01*
G04 #@! TO.N,Board_0-unconnected-(J501-Pad24)*
X43310000Y-8015000D02*
X43310000Y-9730000D01*
G04 #@! TO.N,Board_0-unconnected-(J501-Pad26)*
X45850000Y-8015000D02*
X45850000Y-9730000D01*
G04 #@! TO.N,Board_0-unconnected-(J501-Pad27)*
X48390000Y-12270000D02*
X48390000Y-13985000D01*
G04 #@! TO.N,Board_0-unconnected-(J501-Pad28)*
X48390000Y-8015000D02*
X48390000Y-9730000D01*
G04 #@! TO.N,Board_0-unconnected-(J501-Pad29)*
X50930000Y-12270000D02*
X50930000Y-13985000D01*
G04 #@! TO.N,Board_0-unconnected-(J501-Pad31)*
X53470000Y-12270000D02*
X53470000Y-13985000D01*
G04 #@! TO.N,Board_0-unconnected-(J501-Pad35)*
X58550000Y-12270000D02*
X58550000Y-13985000D01*
G04 #@! TO.N,Board_0-unconnected-(J501-Pad36)*
X58550000Y-8015000D02*
X58550000Y-9730000D01*
G04 #@! TO.N,Board_0-unconnected-(J501-Pad37)*
X61090000Y-12270000D02*
X61090000Y-13985000D01*
G04 #@! TO.N,Board_0-unconnected-(J501-Pad38)*
X61090000Y-8015000D02*
X61090000Y-9730000D01*
G04 #@! TO.N,Board_0-unconnected-(J501-Pad40)*
X63630000Y-8015000D02*
X63630000Y-9730000D01*
D30*
G04 #@! TO.N,Board_1-+3V3*
X128600000Y-42700000D02*
X118900000Y-42700000D01*
X93401300Y-37125200D02*
X95100000Y-35426500D01*
X138100000Y-50800000D02*
X134124525Y-50800000D01*
X84540000Y-37125200D02*
X93401300Y-37125200D01*
X122300000Y-24200000D02*
X121600000Y-24200000D01*
X118900000Y-17200000D02*
X118900000Y-18270000D01*
X121600000Y-24200000D02*
X118900000Y-26900000D01*
X92648500Y-17100000D02*
X85400000Y-17100000D01*
X118900000Y-26900000D02*
X95500000Y-26900000D01*
X128624525Y-45300000D02*
X128600000Y-45300000D01*
X134124525Y-50800000D02*
X128624525Y-45300000D01*
X138800000Y-51500000D02*
X138100000Y-50800000D01*
X95070000Y-22000000D02*
X93570000Y-22000000D01*
D31*
G04 #@! TO.N,Board_1-+5V*
X125100000Y-20500000D02*
X122100000Y-20500000D01*
D32*
X87520000Y-8200000D02*
X86670000Y-9050000D01*
D33*
X130000000Y-33000000D02*
X130300000Y-32700000D01*
D31*
X119300000Y-23300000D02*
X103300000Y-23300000D01*
D33*
X129500000Y-22600000D02*
X129500000Y-27896498D01*
D32*
X85370000Y-8015000D02*
X85635000Y-8015000D01*
D31*
X97200000Y-48900000D02*
X101300000Y-48900000D01*
X126350000Y-20500000D02*
X126425000Y-20575000D01*
D32*
X87910000Y-8015000D02*
X87910000Y-9730000D01*
D31*
X94720000Y-48900000D02*
X95700000Y-48900000D01*
X122100000Y-20500000D02*
X119300000Y-23300000D01*
X101300000Y-48900000D02*
X102900000Y-48900000D01*
D32*
X89180000Y-9116000D02*
X88264000Y-8200000D01*
X85635000Y-8015000D02*
X86670000Y-9050000D01*
D31*
X103300000Y-23300000D02*
X103300000Y-21400000D01*
X95700000Y-48900000D02*
X97200000Y-48900000D01*
D33*
X135000000Y-32700000D02*
X130300000Y-32700000D01*
X130000000Y-40400000D02*
X130000000Y-33000000D01*
X129500000Y-27896498D02*
X129500014Y-27896512D01*
D32*
X85370000Y-8015000D02*
X85370000Y-9730000D01*
D31*
X102900000Y-48900000D02*
X104200000Y-48900000D01*
X104200000Y-48900000D02*
X104700000Y-48400000D01*
X125100000Y-20500000D02*
X126350000Y-20500000D01*
D32*
X88264000Y-8200000D02*
X87520000Y-8200000D01*
D31*
X94060000Y-49560000D02*
X94720000Y-48900000D01*
D33*
G04 #@! TO.N,Board_1-/Buck converter stage 1/BOOT*
X132500000Y-44700000D02*
X132500000Y-42800000D01*
X132500000Y-42800000D02*
X131900000Y-42200000D01*
D34*
G04 #@! TO.N,Board_1-/Buck converter stage 1/FVSS*
X109500000Y-30600000D02*
X115600000Y-30600000D01*
X115600000Y-41100000D02*
X126200000Y-41100000D01*
D33*
G04 #@! TO.N,Board_1-/Buck converter stage 1/I1A9*
X129040000Y-29500000D02*
X127937109Y-28397109D01*
X127937109Y-28397109D02*
X124538167Y-28397109D01*
X124538167Y-28397109D02*
X124533776Y-28401500D01*
G04 #@! TO.N,Board_1-/Buck converter stage 1/I2A9*
X127900000Y-30900000D02*
X123900000Y-30900000D01*
X129040000Y-32040000D02*
X127900000Y-30900000D01*
G04 #@! TO.N,Board_1-/Buck converter stage 1/SW*
X133100000Y-40200000D02*
X133300000Y-40400000D01*
X133300000Y-40400000D02*
X140200000Y-40400000D01*
G04 #@! TO.N,Board_1-/Buck converter stage 2/BOOT*
X132200000Y-26300000D02*
X132200000Y-24100000D01*
X132200000Y-24100000D02*
X131900000Y-23800000D01*
D34*
G04 #@! TO.N,Board_1-/Buck converter stage 2/SW*
X133100000Y-21800000D02*
X139700000Y-21800000D01*
D33*
X139000000Y-24800000D02*
X139500000Y-25300000D01*
X139000000Y-23800000D02*
X139000000Y-24800000D01*
D34*
G04 #@! TO.N,Board_1-/Control MCU/EXT*
X87700000Y-25100000D02*
X92000000Y-25100000D01*
X81300000Y-47600000D02*
X82400000Y-48700000D01*
X82400000Y-48700000D02*
X90770000Y-48700000D01*
X90770000Y-48700000D02*
X92220000Y-47250000D01*
G04 #@! TO.N,Board_1-/Control MCU/POWER_TOGGLE*
X80300000Y-47100000D02*
X87670000Y-47100000D01*
X88000000Y-26000000D02*
X91034686Y-26000000D01*
X91034686Y-26000000D02*
X91155180Y-26120494D01*
G04 #@! TO.N,Board_1-/Control MCU/RESET*
X86200000Y-21900000D02*
X89500000Y-21900000D01*
X87900000Y-33900000D02*
X87508200Y-33508200D01*
X87508200Y-33508200D02*
X83077000Y-33508200D01*
X83077000Y-33508200D02*
X82000000Y-34585200D01*
G04 #@! TO.N,Board_1-/Control MCU/RXD*
X88600000Y-28500000D02*
X88800000Y-28700000D01*
X88800000Y-28700000D02*
X90700000Y-28700000D01*
X90700000Y-40900000D02*
X83305200Y-40900000D01*
X83305200Y-40900000D02*
X82000000Y-42205200D01*
G04 #@! TO.N,Board_1-/Control MCU/TXD*
X90100000Y-43400000D02*
X83345200Y-43400000D01*
X83345200Y-43400000D02*
X82000000Y-44745200D01*
X88800000Y-27600000D02*
X90176500Y-27600000D01*
G04 #@! TO.N,Board_1-/Control MCU/TXD5J*
X83077000Y-33122200D02*
X82000000Y-32045200D01*
X88022200Y-33122200D02*
X83077000Y-33122200D01*
X88700000Y-33800000D02*
X88022200Y-33122200D01*
G04 #@! TO.N,Board_1-/Control MCU/VcapS*
X123200000Y-31100000D02*
X86476500Y-31100000D01*
X86476500Y-31100000D02*
X86400000Y-31023500D01*
G04 #@! TO.N,Board_1-/Control MCU/VinS*
X86000000Y-32300000D02*
X86300000Y-32000000D01*
X86300000Y-32000000D02*
X108100000Y-32000000D01*
X108100000Y-32000000D02*
X108400000Y-32300000D01*
D33*
G04 #@! TO.N,Board_1-/EN5V*
X131600000Y-28200000D02*
X131000000Y-28800000D01*
X128798000Y-28398000D02*
X128300000Y-27900000D01*
X121400000Y-27900000D02*
X120500000Y-28800000D01*
X129898464Y-28800000D02*
X129496464Y-28398000D01*
X128300000Y-27900000D02*
X121400000Y-27900000D01*
X82000000Y-37125200D02*
X83125200Y-36000000D01*
X129496464Y-28398000D02*
X128798000Y-28398000D01*
X106600000Y-30600000D02*
X88700000Y-30600000D01*
X131000000Y-28800000D02*
X129898464Y-28800000D01*
X83125200Y-36000000D02*
X87100000Y-36000000D01*
X120500000Y-28800000D02*
X106600000Y-28800000D01*
D34*
G04 #@! TO.N,Board_1-/I/O/GPIO4*
X92990000Y-16345000D02*
X93845000Y-17200000D01*
X92990000Y-13900000D02*
X92990000Y-16345000D01*
D35*
X92990000Y-12270000D02*
X92990000Y-13985000D01*
D34*
G04 #@! TO.N,Board_1-/Iin*
X93512370Y-24000000D02*
X93546500Y-23965870D01*
X126500000Y-29500000D02*
X93946500Y-29500000D01*
D33*
X128000000Y-45900000D02*
X128000000Y-47209229D01*
X124500000Y-36900000D02*
X124500000Y-34040000D01*
X132790771Y-52000000D02*
X133300000Y-52000000D01*
D34*
X86500000Y-24000000D02*
X93512370Y-24000000D01*
X93946500Y-29500000D02*
X93546500Y-29100000D01*
D33*
X128000000Y-47209229D02*
X132790771Y-52000000D01*
X124500000Y-34040000D02*
X126500000Y-32040000D01*
D34*
G04 #@! TO.N,Board_1-/LED_1*
X88500000Y-22400000D02*
X82400000Y-22400000D01*
G04 #@! TO.N,Board_1-/LED_2*
X89000000Y-23400000D02*
X82400000Y-23400000D01*
G04 #@! TO.N,Board_1-/LED_3*
X84000000Y-26500000D02*
X82400000Y-24900000D01*
X82400000Y-24900000D02*
X82400000Y-24400000D01*
G04 #@! TO.N,Board_1-/LED_4*
X81700000Y-28100000D02*
X81700000Y-26100000D01*
G04 #@! TO.N,Board_1-/RGPIO4*
X95170000Y-19800000D02*
X92870000Y-19800000D01*
X87440718Y-29529282D02*
X87770000Y-29200000D01*
X91970000Y-29200000D02*
X92870000Y-29200000D01*
X91870000Y-29200000D02*
X91970000Y-29200000D01*
X87770000Y-29200000D02*
X91870000Y-29200000D01*
X95295000Y-17200000D02*
X95295000Y-19675000D01*
X86954941Y-29529282D02*
X87440718Y-29529282D01*
X95295000Y-19675000D02*
X95170000Y-19800000D01*
D33*
G04 #@! TO.N,Board_1-/RTC/3V3B*
X120200000Y-17200000D02*
X120870000Y-17200000D01*
X120870000Y-17200000D02*
X120970000Y-17100000D01*
G04 #@! TO.N,Board_1-/RTC/RTCVDD*
X117211097Y-17788903D02*
X116202679Y-17788903D01*
X118000000Y-17000000D02*
X117211097Y-17788903D01*
G04 #@! TO.N,Board_1-/RTC/VBAT*
X112450000Y-56600000D02*
X112450000Y-52650000D01*
X120071685Y-18538254D02*
X120593590Y-18538254D01*
X112450000Y-52650000D02*
X117700000Y-47400000D01*
X117400000Y-19770000D02*
X118839939Y-19770000D01*
X118839939Y-19770000D02*
X120071685Y-18538254D01*
D34*
G04 #@! TO.N,Board_1-/RTC_INT*
X107700000Y-24600000D02*
X107800000Y-24700000D01*
X86900000Y-24600000D02*
X107700000Y-24600000D01*
G04 #@! TO.N,Board_1-/RXD0*
X94470000Y-10790000D02*
X94470000Y-15443818D01*
X84540000Y-44745200D02*
X85285200Y-44000000D01*
D35*
X95530000Y-8015000D02*
X95530000Y-9730000D01*
D34*
X95530000Y-9730000D02*
X94470000Y-10790000D01*
X94470000Y-15443818D02*
X94534116Y-15507934D01*
X85285200Y-44000000D02*
X94500000Y-44000000D01*
D35*
G04 #@! TO.N,Board_1-/RXD5*
X126010000Y-12270000D02*
X126010000Y-13985000D01*
D34*
X126001200Y-13900000D02*
X125044800Y-14856400D01*
X126010000Y-13900000D02*
X126001200Y-13900000D01*
X119300000Y-34900000D02*
X119600000Y-34600000D01*
X84540000Y-34585200D02*
X85254800Y-35300000D01*
X126100000Y-18900000D02*
X121443873Y-18900000D01*
X92170000Y-35300000D02*
X92570000Y-34900000D01*
X119946500Y-19676500D02*
X119920000Y-19650000D01*
X120667373Y-19676500D02*
X119946500Y-19676500D01*
X92570000Y-34900000D02*
X119300000Y-34900000D01*
X85254800Y-35300000D02*
X92170000Y-35300000D01*
X121443873Y-18900000D02*
X120667373Y-19676500D01*
G04 #@! TO.N,Board_1-/SCL*
X89100000Y-16400000D02*
X89300000Y-16200000D01*
X84500000Y-17200000D02*
X85300000Y-16400000D01*
X115600000Y-21300000D02*
X114000000Y-19700000D01*
X114000000Y-19700000D02*
X95731742Y-19700000D01*
X92426501Y-20326501D02*
X91600000Y-19500000D01*
D33*
X90400000Y-19800000D02*
X90050000Y-20150000D01*
D34*
X84900000Y-24000000D02*
X83100000Y-24000000D01*
X95731742Y-19700000D02*
X95105241Y-20326501D01*
X85300000Y-16400000D02*
X89100000Y-16400000D01*
D33*
X91300000Y-19800000D02*
X90400000Y-19800000D01*
D34*
X95105241Y-20326501D02*
X92426501Y-20326501D01*
X90450000Y-15050000D02*
X90450000Y-13900000D01*
X89300000Y-16200000D02*
X90450000Y-15050000D01*
D35*
X90450000Y-13985000D02*
X90450000Y-12270000D01*
D34*
G04 #@! TO.N,Board_1-/SDA*
X103808033Y-20173499D02*
X95996501Y-20173499D01*
X87910000Y-13900000D02*
X88700000Y-14690000D01*
X86800000Y-21200000D02*
X86800000Y-20300000D01*
X95996501Y-20173499D02*
X94970000Y-21200000D01*
X88700000Y-14690000D02*
X88700000Y-15000000D01*
X89700000Y-21200000D02*
X88300000Y-19800000D01*
D35*
X87910000Y-13985000D02*
X87910000Y-12270000D01*
D33*
X86300000Y-19800000D02*
X88300000Y-19800000D01*
D34*
X85500000Y-22900000D02*
X86800000Y-22900000D01*
X94970000Y-21200000D02*
X89700000Y-21200000D01*
X114300000Y-21900000D02*
X105534534Y-21900000D01*
X105534534Y-21900000D02*
X103808033Y-20173499D01*
D33*
G04 #@! TO.N,Board_1-/Supercapacitor/BO1+*
X100200000Y-38900000D02*
X98700000Y-38900000D01*
G04 #@! TO.N,Board_1-/Supercapacitor/BO2+*
X100000000Y-25600000D02*
X98600000Y-25600000D01*
G04 #@! TO.N,Board_1-/Supercapacitor/BO2o*
X98900000Y-21400000D02*
X97400000Y-21400000D01*
G04 #@! TO.N,Board_1-/Supercapacitor/BO3+*
X112800000Y-38700000D02*
X112900000Y-38600000D01*
X111400000Y-38700000D02*
X112800000Y-38700000D01*
G04 #@! TO.N,Board_1-/Supercapacitor/SC12*
X96300000Y-24000000D02*
X99200000Y-24000000D01*
D30*
X99800000Y-18900000D02*
X97170000Y-18900000D01*
X99900000Y-18800000D02*
X99800000Y-18900000D01*
D31*
X102950000Y-46255000D02*
X95495000Y-46255000D01*
X95495000Y-46255000D02*
X95450000Y-46300000D01*
D33*
G04 #@! TO.N,Board_1-/Supercapacitor/SC12R*
X98600000Y-30000000D02*
X101700000Y-30000000D01*
D30*
G04 #@! TO.N,Board_1-/Supercapacitor/SC23*
X98100000Y-22100000D02*
X101800000Y-22100000D01*
X107300000Y-25200000D02*
X107700000Y-25600000D01*
X111800000Y-32600000D02*
X111400000Y-33000000D01*
X110200000Y-44000000D02*
X108250000Y-45950000D01*
X101800000Y-25200000D02*
X107300000Y-25200000D01*
X111400000Y-33000000D02*
X107700000Y-33000000D01*
D31*
X115750000Y-46255000D02*
X108250000Y-46255000D01*
D34*
G04 #@! TO.N,Board_1-/Supercapacitor/SC23R*
X102500000Y-28300000D02*
X101100000Y-28300000D01*
X102500000Y-43000000D02*
X111100000Y-43000000D01*
G04 #@! TO.N,Board_1-/TXD0*
X93394800Y-42205200D02*
X93400000Y-42200000D01*
X94070000Y-15400000D02*
X93870000Y-15600000D01*
X84540000Y-42205200D02*
X93394800Y-42205200D01*
D35*
X92990000Y-8015000D02*
X92990000Y-9730000D01*
D34*
X92990000Y-9730000D02*
X94070000Y-10810000D01*
X94070000Y-10810000D02*
X94070000Y-15400000D01*
G04 #@! TO.N,Board_1-/TXD5*
X117100000Y-10800000D02*
X122531998Y-10800000D01*
X122531998Y-10800000D02*
X123470000Y-9861998D01*
X85085200Y-31500000D02*
X116300000Y-31500000D01*
X84885200Y-31700000D02*
X85085200Y-31500000D01*
X123470000Y-9861998D02*
X123470000Y-8100000D01*
X116300000Y-31500000D02*
X116500000Y-31700000D01*
D35*
X123470000Y-8015000D02*
X123470000Y-9730000D01*
D30*
G04 #@! TO.N,Board_1-/Vcap*
X118795000Y-44000000D02*
X121050000Y-46255000D01*
D33*
X129300000Y-42700000D02*
X129300000Y-37300000D01*
X110400000Y-39300000D02*
X114000000Y-39300000D01*
X121050000Y-39250000D02*
X121000000Y-39300000D01*
D36*
X124225000Y-26875000D02*
X121125000Y-26875000D01*
D30*
X112000000Y-33600000D02*
X121100000Y-33600000D01*
D33*
X134578993Y-50188275D02*
X129300000Y-44909282D01*
X129300000Y-44909282D02*
X129300000Y-44900000D01*
D36*
X121125000Y-26875000D02*
X121100000Y-26900000D01*
D30*
X113600000Y-44000000D02*
X118795000Y-44000000D01*
D33*
X121000000Y-39300000D02*
X114000000Y-39300000D01*
D32*
G04 #@! TO.N,Board_1-GND*
X90450000Y-8015000D02*
X90450000Y-9730000D01*
D35*
X100610000Y-8015000D02*
X100610000Y-9730000D01*
X126010000Y-8015000D02*
X126010000Y-9730000D01*
X132512400Y-12782400D02*
X132512400Y-12773600D01*
X120930000Y-8100000D02*
X121082400Y-8100000D01*
X108230000Y-8015000D02*
X108230000Y-9730000D01*
X133630000Y-12270000D02*
X133630000Y-13985000D01*
X121082400Y-8100000D02*
X121996800Y-9014400D01*
X126060800Y-8100000D02*
X127280000Y-9319200D01*
X90704000Y-8100000D02*
X91720000Y-9116000D01*
X115688800Y-13900000D02*
X114732400Y-14856400D01*
X108179200Y-8100000D02*
X106960000Y-9319200D01*
X115850000Y-12270000D02*
X115850000Y-13900000D01*
X95530000Y-15478500D02*
X95600000Y-15548500D01*
X95530000Y-13900000D02*
X95530000Y-15478500D01*
X126010000Y-8100000D02*
X126060800Y-8100000D01*
X100610000Y-8100000D02*
X101829200Y-9319200D01*
X115850000Y-13900000D02*
X115688800Y-13900000D01*
X120930000Y-8015000D02*
X120930000Y-9730000D01*
X133630000Y-13900000D02*
X132512400Y-12782400D01*
X90450000Y-8100000D02*
X90704000Y-8100000D01*
D30*
X115850000Y-13900000D02*
X115850000Y-15350000D01*
D35*
X108230000Y-8100000D02*
X108179200Y-8100000D01*
D30*
X115850000Y-15350000D02*
X115900000Y-15400000D01*
D35*
X95530000Y-12270000D02*
X95530000Y-13985000D01*
G04 #@! TO.N,Board_1-unconnected-(J501-Pad1)*
X85370000Y-13985000D02*
X85370000Y-12270000D01*
G04 #@! TO.N,Board_1-unconnected-(J501-Pad11)*
X98070000Y-12270000D02*
X98070000Y-13985000D01*
G04 #@! TO.N,Board_1-unconnected-(J501-Pad12)*
X98070000Y-8015000D02*
X98070000Y-9730000D01*
G04 #@! TO.N,Board_1-unconnected-(J501-Pad13)*
X100610000Y-12270000D02*
X100610000Y-13985000D01*
G04 #@! TO.N,Board_1-unconnected-(J501-Pad15)*
X103150000Y-12270000D02*
X103150000Y-13985000D01*
G04 #@! TO.N,Board_1-unconnected-(J501-Pad16)*
X103150000Y-8015000D02*
X103150000Y-9730000D01*
G04 #@! TO.N,Board_1-unconnected-(J501-Pad17)*
X105690000Y-12270000D02*
X105690000Y-13985000D01*
G04 #@! TO.N,Board_1-unconnected-(J501-Pad18)*
X105690000Y-8015000D02*
X105690000Y-9730000D01*
G04 #@! TO.N,Board_1-unconnected-(J501-Pad19)*
X108230000Y-12270000D02*
X108230000Y-13985000D01*
G04 #@! TO.N,Board_1-unconnected-(J501-Pad21)*
X110770000Y-12270000D02*
X110770000Y-13985000D01*
G04 #@! TO.N,Board_1-unconnected-(J501-Pad22)*
X110770000Y-8015000D02*
X110770000Y-9730000D01*
G04 #@! TO.N,Board_1-unconnected-(J501-Pad23)*
X113310000Y-12270000D02*
X113310000Y-13985000D01*
G04 #@! TO.N,Board_1-unconnected-(J501-Pad24)*
X113310000Y-8015000D02*
X113310000Y-9730000D01*
G04 #@! TO.N,Board_1-unconnected-(J501-Pad26)*
X115850000Y-8015000D02*
X115850000Y-9730000D01*
G04 #@! TO.N,Board_1-unconnected-(J501-Pad27)*
X118390000Y-12270000D02*
X118390000Y-13985000D01*
G04 #@! TO.N,Board_1-unconnected-(J501-Pad28)*
X118390000Y-8015000D02*
X118390000Y-9730000D01*
G04 #@! TO.N,Board_1-unconnected-(J501-Pad29)*
X120930000Y-12270000D02*
X120930000Y-13985000D01*
G04 #@! TO.N,Board_1-unconnected-(J501-Pad31)*
X123470000Y-12270000D02*
X123470000Y-13985000D01*
G04 #@! TO.N,Board_1-unconnected-(J501-Pad35)*
X128550000Y-12270000D02*
X128550000Y-13985000D01*
G04 #@! TO.N,Board_1-unconnected-(J501-Pad36)*
X128550000Y-8015000D02*
X128550000Y-9730000D01*
G04 #@! TO.N,Board_1-unconnected-(J501-Pad37)*
X131090000Y-12270000D02*
X131090000Y-13985000D01*
G04 #@! TO.N,Board_1-unconnected-(J501-Pad38)*
X131090000Y-8015000D02*
X131090000Y-9730000D01*
G04 #@! TO.N,Board_1-unconnected-(J501-Pad40)*
X133630000Y-8015000D02*
X133630000Y-9730000D01*
D30*
G04 #@! TO.N,Board_2-+3V3*
X58600000Y-104200000D02*
X48900000Y-104200000D01*
X23401300Y-98625200D02*
X25100000Y-96926500D01*
X68100000Y-112300000D02*
X64124525Y-112300000D01*
X14540000Y-98625200D02*
X23401300Y-98625200D01*
X52300000Y-85700000D02*
X51600000Y-85700000D01*
X48900000Y-78700000D02*
X48900000Y-79770000D01*
X51600000Y-85700000D02*
X48900000Y-88400000D01*
X22648500Y-78600000D02*
X15400000Y-78600000D01*
X48900000Y-88400000D02*
X25500000Y-88400000D01*
X58624525Y-106800000D02*
X58600000Y-106800000D01*
X64124525Y-112300000D02*
X58624525Y-106800000D01*
X68800000Y-113000000D02*
X68100000Y-112300000D01*
X25070000Y-83500000D02*
X23570000Y-83500000D01*
D31*
G04 #@! TO.N,Board_2-+5V*
X55100000Y-82000000D02*
X52100000Y-82000000D01*
D32*
X17520000Y-69700000D02*
X16670000Y-70550000D01*
D33*
X60000000Y-94500000D02*
X60300000Y-94200000D01*
D31*
X49300000Y-84800000D02*
X33300000Y-84800000D01*
D33*
X59500000Y-84100000D02*
X59500000Y-89396498D01*
D32*
X15370000Y-69515000D02*
X15635000Y-69515000D01*
D31*
X27200000Y-110400000D02*
X31300000Y-110400000D01*
X56350000Y-82000000D02*
X56425000Y-82075000D01*
D32*
X17910000Y-69515000D02*
X17910000Y-71230000D01*
D31*
X24720000Y-110400000D02*
X25700000Y-110400000D01*
X52100000Y-82000000D02*
X49300000Y-84800000D01*
X31300000Y-110400000D02*
X32900000Y-110400000D01*
D32*
X19180000Y-70616000D02*
X18264000Y-69700000D01*
X15635000Y-69515000D02*
X16670000Y-70550000D01*
D31*
X33300000Y-84800000D02*
X33300000Y-82900000D01*
X25700000Y-110400000D02*
X27200000Y-110400000D01*
D33*
X65000000Y-94200000D02*
X60300000Y-94200000D01*
X60000000Y-101900000D02*
X60000000Y-94500000D01*
X59500000Y-89396498D02*
X59500014Y-89396512D01*
D32*
X15370000Y-69515000D02*
X15370000Y-71230000D01*
D31*
X32900000Y-110400000D02*
X34200000Y-110400000D01*
X34200000Y-110400000D02*
X34700000Y-109900000D01*
X55100000Y-82000000D02*
X56350000Y-82000000D01*
D32*
X18264000Y-69700000D02*
X17520000Y-69700000D01*
D31*
X24060000Y-111060000D02*
X24720000Y-110400000D01*
D33*
G04 #@! TO.N,Board_2-/Buck converter stage 1/BOOT*
X62500000Y-106200000D02*
X62500000Y-104300000D01*
X62500000Y-104300000D02*
X61900000Y-103700000D01*
D34*
G04 #@! TO.N,Board_2-/Buck converter stage 1/FVSS*
X39500000Y-92100000D02*
X45600000Y-92100000D01*
X45600000Y-102600000D02*
X56200000Y-102600000D01*
D33*
G04 #@! TO.N,Board_2-/Buck converter stage 1/I1A9*
X59040000Y-91000000D02*
X57937109Y-89897109D01*
X57937109Y-89897109D02*
X54538167Y-89897109D01*
X54538167Y-89897109D02*
X54533776Y-89901500D01*
G04 #@! TO.N,Board_2-/Buck converter stage 1/I2A9*
X57900000Y-92400000D02*
X53900000Y-92400000D01*
X59040000Y-93540000D02*
X57900000Y-92400000D01*
G04 #@! TO.N,Board_2-/Buck converter stage 1/SW*
X63100000Y-101700000D02*
X63300000Y-101900000D01*
X63300000Y-101900000D02*
X70200000Y-101900000D01*
G04 #@! TO.N,Board_2-/Buck converter stage 2/BOOT*
X62200000Y-87800000D02*
X62200000Y-85600000D01*
X62200000Y-85600000D02*
X61900000Y-85300000D01*
D34*
G04 #@! TO.N,Board_2-/Buck converter stage 2/SW*
X63100000Y-83300000D02*
X69700000Y-83300000D01*
D33*
X69000000Y-86300000D02*
X69500000Y-86800000D01*
X69000000Y-85300000D02*
X69000000Y-86300000D01*
D34*
G04 #@! TO.N,Board_2-/Control MCU/EXT*
X17700000Y-86600000D02*
X22000000Y-86600000D01*
X11300000Y-109100000D02*
X12400000Y-110200000D01*
X12400000Y-110200000D02*
X20770000Y-110200000D01*
X20770000Y-110200000D02*
X22220000Y-108750000D01*
G04 #@! TO.N,Board_2-/Control MCU/POWER_TOGGLE*
X10300000Y-108600000D02*
X17670000Y-108600000D01*
X18000000Y-87500000D02*
X21034686Y-87500000D01*
X21034686Y-87500000D02*
X21155180Y-87620494D01*
G04 #@! TO.N,Board_2-/Control MCU/RESET*
X16200000Y-83400000D02*
X19500000Y-83400000D01*
X17900000Y-95400000D02*
X17508200Y-95008200D01*
X17508200Y-95008200D02*
X13077000Y-95008200D01*
X13077000Y-95008200D02*
X12000000Y-96085200D01*
G04 #@! TO.N,Board_2-/Control MCU/RXD*
X18600000Y-90000000D02*
X18800000Y-90200000D01*
X18800000Y-90200000D02*
X20700000Y-90200000D01*
X20700000Y-102400000D02*
X13305200Y-102400000D01*
X13305200Y-102400000D02*
X12000000Y-103705200D01*
G04 #@! TO.N,Board_2-/Control MCU/TXD*
X20100000Y-104900000D02*
X13345200Y-104900000D01*
X13345200Y-104900000D02*
X12000000Y-106245200D01*
X18800000Y-89100000D02*
X20176500Y-89100000D01*
G04 #@! TO.N,Board_2-/Control MCU/TXD5J*
X13077000Y-94622200D02*
X12000000Y-93545200D01*
X18022200Y-94622200D02*
X13077000Y-94622200D01*
X18700000Y-95300000D02*
X18022200Y-94622200D01*
G04 #@! TO.N,Board_2-/Control MCU/VcapS*
X53200000Y-92600000D02*
X16476500Y-92600000D01*
X16476500Y-92600000D02*
X16400000Y-92523500D01*
G04 #@! TO.N,Board_2-/Control MCU/VinS*
X16000000Y-93800000D02*
X16300000Y-93500000D01*
X16300000Y-93500000D02*
X38100000Y-93500000D01*
X38100000Y-93500000D02*
X38400000Y-93800000D01*
D33*
G04 #@! TO.N,Board_2-/EN5V*
X61600000Y-89700000D02*
X61000000Y-90300000D01*
X58798000Y-89898000D02*
X58300000Y-89400000D01*
X51400000Y-89400000D02*
X50500000Y-90300000D01*
X59898464Y-90300000D02*
X59496464Y-89898000D01*
X58300000Y-89400000D02*
X51400000Y-89400000D01*
X12000000Y-98625200D02*
X13125200Y-97500000D01*
X59496464Y-89898000D02*
X58798000Y-89898000D01*
X36600000Y-92100000D02*
X18700000Y-92100000D01*
X61000000Y-90300000D02*
X59898464Y-90300000D01*
X13125200Y-97500000D02*
X17100000Y-97500000D01*
X50500000Y-90300000D02*
X36600000Y-90300000D01*
D34*
G04 #@! TO.N,Board_2-/I/O/GPIO4*
X22990000Y-77845000D02*
X23845000Y-78700000D01*
X22990000Y-75400000D02*
X22990000Y-77845000D01*
D35*
X22990000Y-73770000D02*
X22990000Y-75485000D01*
D34*
G04 #@! TO.N,Board_2-/Iin*
X23512370Y-85500000D02*
X23546500Y-85465870D01*
X56500000Y-91000000D02*
X23946500Y-91000000D01*
D33*
X58000000Y-107400000D02*
X58000000Y-108709229D01*
X54500000Y-98400000D02*
X54500000Y-95540000D01*
X62790771Y-113500000D02*
X63300000Y-113500000D01*
D34*
X16500000Y-85500000D02*
X23512370Y-85500000D01*
X23946500Y-91000000D02*
X23546500Y-90600000D01*
D33*
X58000000Y-108709229D02*
X62790771Y-113500000D01*
X54500000Y-95540000D02*
X56500000Y-93540000D01*
D34*
G04 #@! TO.N,Board_2-/LED_1*
X18500000Y-83900000D02*
X12400000Y-83900000D01*
G04 #@! TO.N,Board_2-/LED_2*
X19000000Y-84900000D02*
X12400000Y-84900000D01*
G04 #@! TO.N,Board_2-/LED_3*
X14000000Y-88000000D02*
X12400000Y-86400000D01*
X12400000Y-86400000D02*
X12400000Y-85900000D01*
G04 #@! TO.N,Board_2-/LED_4*
X11700000Y-89600000D02*
X11700000Y-87600000D01*
G04 #@! TO.N,Board_2-/RGPIO4*
X25170000Y-81300000D02*
X22870000Y-81300000D01*
X17440718Y-91029282D02*
X17770000Y-90700000D01*
X21970000Y-90700000D02*
X22870000Y-90700000D01*
X21870000Y-90700000D02*
X21970000Y-90700000D01*
X17770000Y-90700000D02*
X21870000Y-90700000D01*
X25295000Y-78700000D02*
X25295000Y-81175000D01*
X16954941Y-91029282D02*
X17440718Y-91029282D01*
X25295000Y-81175000D02*
X25170000Y-81300000D01*
D33*
G04 #@! TO.N,Board_2-/RTC/3V3B*
X50200000Y-78700000D02*
X50870000Y-78700000D01*
X50870000Y-78700000D02*
X50970000Y-78600000D01*
G04 #@! TO.N,Board_2-/RTC/RTCVDD*
X47211097Y-79288903D02*
X46202679Y-79288903D01*
X48000000Y-78500000D02*
X47211097Y-79288903D01*
G04 #@! TO.N,Board_2-/RTC/VBAT*
X42450000Y-118100000D02*
X42450000Y-114150000D01*
X50071685Y-80038254D02*
X50593590Y-80038254D01*
X42450000Y-114150000D02*
X47700000Y-108900000D01*
X47400000Y-81270000D02*
X48839939Y-81270000D01*
X48839939Y-81270000D02*
X50071685Y-80038254D01*
D34*
G04 #@! TO.N,Board_2-/RTC_INT*
X37700000Y-86100000D02*
X37800000Y-86200000D01*
X16900000Y-86100000D02*
X37700000Y-86100000D01*
G04 #@! TO.N,Board_2-/RXD0*
X24470000Y-72290000D02*
X24470000Y-76943818D01*
X14540000Y-106245200D02*
X15285200Y-105500000D01*
D35*
X25530000Y-69515000D02*
X25530000Y-71230000D01*
D34*
X25530000Y-71230000D02*
X24470000Y-72290000D01*
X24470000Y-76943818D02*
X24534116Y-77007934D01*
X15285200Y-105500000D02*
X24500000Y-105500000D01*
D35*
G04 #@! TO.N,Board_2-/RXD5*
X56010000Y-73770000D02*
X56010000Y-75485000D01*
D34*
X56001200Y-75400000D02*
X55044800Y-76356400D01*
X56010000Y-75400000D02*
X56001200Y-75400000D01*
X49300000Y-96400000D02*
X49600000Y-96100000D01*
X14540000Y-96085200D02*
X15254800Y-96800000D01*
X56100000Y-80400000D02*
X51443873Y-80400000D01*
X22170000Y-96800000D02*
X22570000Y-96400000D01*
X49946500Y-81176500D02*
X49920000Y-81150000D01*
X50667373Y-81176500D02*
X49946500Y-81176500D01*
X22570000Y-96400000D02*
X49300000Y-96400000D01*
X15254800Y-96800000D02*
X22170000Y-96800000D01*
X51443873Y-80400000D02*
X50667373Y-81176500D01*
G04 #@! TO.N,Board_2-/SCL*
X19100000Y-77900000D02*
X19300000Y-77700000D01*
X14500000Y-78700000D02*
X15300000Y-77900000D01*
X45600000Y-82800000D02*
X44000000Y-81200000D01*
X44000000Y-81200000D02*
X25731742Y-81200000D01*
X22426501Y-81826501D02*
X21600000Y-81000000D01*
D33*
X20400000Y-81300000D02*
X20050000Y-81650000D01*
D34*
X14900000Y-85500000D02*
X13100000Y-85500000D01*
X25731742Y-81200000D02*
X25105241Y-81826501D01*
X15300000Y-77900000D02*
X19100000Y-77900000D01*
D33*
X21300000Y-81300000D02*
X20400000Y-81300000D01*
D34*
X25105241Y-81826501D02*
X22426501Y-81826501D01*
X20450000Y-76550000D02*
X20450000Y-75400000D01*
X19300000Y-77700000D02*
X20450000Y-76550000D01*
D35*
X20450000Y-75485000D02*
X20450000Y-73770000D01*
D34*
G04 #@! TO.N,Board_2-/SDA*
X33808033Y-81673499D02*
X25996501Y-81673499D01*
X17910000Y-75400000D02*
X18700000Y-76190000D01*
X16800000Y-82700000D02*
X16800000Y-81800000D01*
X25996501Y-81673499D02*
X24970000Y-82700000D01*
X18700000Y-76190000D02*
X18700000Y-76500000D01*
X19700000Y-82700000D02*
X18300000Y-81300000D01*
D35*
X17910000Y-75485000D02*
X17910000Y-73770000D01*
D33*
X16300000Y-81300000D02*
X18300000Y-81300000D01*
D34*
X15500000Y-84400000D02*
X16800000Y-84400000D01*
X24970000Y-82700000D02*
X19700000Y-82700000D01*
X44300000Y-83400000D02*
X35534534Y-83400000D01*
X35534534Y-83400000D02*
X33808033Y-81673499D01*
D33*
G04 #@! TO.N,Board_2-/Supercapacitor/BO1+*
X30200000Y-100400000D02*
X28700000Y-100400000D01*
G04 #@! TO.N,Board_2-/Supercapacitor/BO2+*
X30000000Y-87100000D02*
X28600000Y-87100000D01*
G04 #@! TO.N,Board_2-/Supercapacitor/BO2o*
X28900000Y-82900000D02*
X27400000Y-82900000D01*
G04 #@! TO.N,Board_2-/Supercapacitor/BO3+*
X42800000Y-100200000D02*
X42900000Y-100100000D01*
X41400000Y-100200000D02*
X42800000Y-100200000D01*
G04 #@! TO.N,Board_2-/Supercapacitor/SC12*
X26300000Y-85500000D02*
X29200000Y-85500000D01*
D30*
X29800000Y-80400000D02*
X27170000Y-80400000D01*
X29900000Y-80300000D02*
X29800000Y-80400000D01*
D31*
X32950000Y-107755000D02*
X25495000Y-107755000D01*
X25495000Y-107755000D02*
X25450000Y-107800000D01*
D33*
G04 #@! TO.N,Board_2-/Supercapacitor/SC12R*
X28600000Y-91500000D02*
X31700000Y-91500000D01*
D30*
G04 #@! TO.N,Board_2-/Supercapacitor/SC23*
X28100000Y-83600000D02*
X31800000Y-83600000D01*
X37300000Y-86700000D02*
X37700000Y-87100000D01*
X41800000Y-94100000D02*
X41400000Y-94500000D01*
X40200000Y-105500000D02*
X38250000Y-107450000D01*
X31800000Y-86700000D02*
X37300000Y-86700000D01*
X41400000Y-94500000D02*
X37700000Y-94500000D01*
D31*
X45750000Y-107755000D02*
X38250000Y-107755000D01*
D34*
G04 #@! TO.N,Board_2-/Supercapacitor/SC23R*
X32500000Y-89800000D02*
X31100000Y-89800000D01*
X32500000Y-104500000D02*
X41100000Y-104500000D01*
G04 #@! TO.N,Board_2-/TXD0*
X23394800Y-103705200D02*
X23400000Y-103700000D01*
X24070000Y-76900000D02*
X23870000Y-77100000D01*
X14540000Y-103705200D02*
X23394800Y-103705200D01*
D35*
X22990000Y-69515000D02*
X22990000Y-71230000D01*
D34*
X22990000Y-71230000D02*
X24070000Y-72310000D01*
X24070000Y-72310000D02*
X24070000Y-76900000D01*
G04 #@! TO.N,Board_2-/TXD5*
X47100000Y-72300000D02*
X52531998Y-72300000D01*
X52531998Y-72300000D02*
X53470000Y-71361998D01*
X15085200Y-93000000D02*
X46300000Y-93000000D01*
X14885200Y-93200000D02*
X15085200Y-93000000D01*
X53470000Y-71361998D02*
X53470000Y-69600000D01*
X46300000Y-93000000D02*
X46500000Y-93200000D01*
D35*
X53470000Y-69515000D02*
X53470000Y-71230000D01*
D30*
G04 #@! TO.N,Board_2-/Vcap*
X48795000Y-105500000D02*
X51050000Y-107755000D01*
D33*
X59300000Y-104200000D02*
X59300000Y-98800000D01*
X40400000Y-100800000D02*
X44000000Y-100800000D01*
X51050000Y-100750000D02*
X51000000Y-100800000D01*
D36*
X54225000Y-88375000D02*
X51125000Y-88375000D01*
D30*
X42000000Y-95100000D02*
X51100000Y-95100000D01*
D33*
X64578993Y-111688275D02*
X59300000Y-106409282D01*
X59300000Y-106409282D02*
X59300000Y-106400000D01*
D36*
X51125000Y-88375000D02*
X51100000Y-88400000D01*
D30*
X43600000Y-105500000D02*
X48795000Y-105500000D01*
D33*
X51000000Y-100800000D02*
X44000000Y-100800000D01*
D32*
G04 #@! TO.N,Board_2-GND*
X20450000Y-69515000D02*
X20450000Y-71230000D01*
D35*
X30610000Y-69515000D02*
X30610000Y-71230000D01*
X56010000Y-69515000D02*
X56010000Y-71230000D01*
X62512400Y-74282400D02*
X62512400Y-74273600D01*
X50930000Y-69600000D02*
X51082400Y-69600000D01*
X38230000Y-69515000D02*
X38230000Y-71230000D01*
X63630000Y-73770000D02*
X63630000Y-75485000D01*
X51082400Y-69600000D02*
X51996800Y-70514400D01*
X56060800Y-69600000D02*
X57280000Y-70819200D01*
X20704000Y-69600000D02*
X21720000Y-70616000D01*
X45688800Y-75400000D02*
X44732400Y-76356400D01*
X38179200Y-69600000D02*
X36960000Y-70819200D01*
X45850000Y-73770000D02*
X45850000Y-75400000D01*
X25530000Y-76978500D02*
X25600000Y-77048500D01*
X25530000Y-75400000D02*
X25530000Y-76978500D01*
X56010000Y-69600000D02*
X56060800Y-69600000D01*
X30610000Y-69600000D02*
X31829200Y-70819200D01*
X45850000Y-75400000D02*
X45688800Y-75400000D01*
X50930000Y-69515000D02*
X50930000Y-71230000D01*
X63630000Y-75400000D02*
X62512400Y-74282400D01*
X20450000Y-69600000D02*
X20704000Y-69600000D01*
D30*
X45850000Y-75400000D02*
X45850000Y-76850000D01*
D35*
X38230000Y-69600000D02*
X38179200Y-69600000D01*
D30*
X45850000Y-76850000D02*
X45900000Y-76900000D01*
D35*
X25530000Y-73770000D02*
X25530000Y-75485000D01*
G04 #@! TO.N,Board_2-unconnected-(J501-Pad1)*
X15370000Y-75485000D02*
X15370000Y-73770000D01*
G04 #@! TO.N,Board_2-unconnected-(J501-Pad11)*
X28070000Y-73770000D02*
X28070000Y-75485000D01*
G04 #@! TO.N,Board_2-unconnected-(J501-Pad12)*
X28070000Y-69515000D02*
X28070000Y-71230000D01*
G04 #@! TO.N,Board_2-unconnected-(J501-Pad13)*
X30610000Y-73770000D02*
X30610000Y-75485000D01*
G04 #@! TO.N,Board_2-unconnected-(J501-Pad15)*
X33150000Y-73770000D02*
X33150000Y-75485000D01*
G04 #@! TO.N,Board_2-unconnected-(J501-Pad16)*
X33150000Y-69515000D02*
X33150000Y-71230000D01*
G04 #@! TO.N,Board_2-unconnected-(J501-Pad17)*
X35690000Y-73770000D02*
X35690000Y-75485000D01*
G04 #@! TO.N,Board_2-unconnected-(J501-Pad18)*
X35690000Y-69515000D02*
X35690000Y-71230000D01*
G04 #@! TO.N,Board_2-unconnected-(J501-Pad19)*
X38230000Y-73770000D02*
X38230000Y-75485000D01*
G04 #@! TO.N,Board_2-unconnected-(J501-Pad21)*
X40770000Y-73770000D02*
X40770000Y-75485000D01*
G04 #@! TO.N,Board_2-unconnected-(J501-Pad22)*
X40770000Y-69515000D02*
X40770000Y-71230000D01*
G04 #@! TO.N,Board_2-unconnected-(J501-Pad23)*
X43310000Y-73770000D02*
X43310000Y-75485000D01*
G04 #@! TO.N,Board_2-unconnected-(J501-Pad24)*
X43310000Y-69515000D02*
X43310000Y-71230000D01*
G04 #@! TO.N,Board_2-unconnected-(J501-Pad26)*
X45850000Y-69515000D02*
X45850000Y-71230000D01*
G04 #@! TO.N,Board_2-unconnected-(J501-Pad27)*
X48390000Y-73770000D02*
X48390000Y-75485000D01*
G04 #@! TO.N,Board_2-unconnected-(J501-Pad28)*
X48390000Y-69515000D02*
X48390000Y-71230000D01*
G04 #@! TO.N,Board_2-unconnected-(J501-Pad29)*
X50930000Y-73770000D02*
X50930000Y-75485000D01*
G04 #@! TO.N,Board_2-unconnected-(J501-Pad31)*
X53470000Y-73770000D02*
X53470000Y-75485000D01*
G04 #@! TO.N,Board_2-unconnected-(J501-Pad35)*
X58550000Y-73770000D02*
X58550000Y-75485000D01*
G04 #@! TO.N,Board_2-unconnected-(J501-Pad36)*
X58550000Y-69515000D02*
X58550000Y-71230000D01*
G04 #@! TO.N,Board_2-unconnected-(J501-Pad37)*
X61090000Y-73770000D02*
X61090000Y-75485000D01*
G04 #@! TO.N,Board_2-unconnected-(J501-Pad38)*
X61090000Y-69515000D02*
X61090000Y-71230000D01*
G04 #@! TO.N,Board_2-unconnected-(J501-Pad40)*
X63630000Y-69515000D02*
X63630000Y-71230000D01*
D30*
G04 #@! TO.N,Board_3-+3V3*
X128600000Y-104200000D02*
X118900000Y-104200000D01*
X93401300Y-98625200D02*
X95100000Y-96926500D01*
X138100000Y-112300000D02*
X134124525Y-112300000D01*
X84540000Y-98625200D02*
X93401300Y-98625200D01*
X122300000Y-85700000D02*
X121600000Y-85700000D01*
X118900000Y-78700000D02*
X118900000Y-79770000D01*
X121600000Y-85700000D02*
X118900000Y-88400000D01*
X92648500Y-78600000D02*
X85400000Y-78600000D01*
X118900000Y-88400000D02*
X95500000Y-88400000D01*
X128624525Y-106800000D02*
X128600000Y-106800000D01*
X134124525Y-112300000D02*
X128624525Y-106800000D01*
X138800000Y-113000000D02*
X138100000Y-112300000D01*
X95070000Y-83500000D02*
X93570000Y-83500000D01*
D31*
G04 #@! TO.N,Board_3-+5V*
X125100000Y-82000000D02*
X122100000Y-82000000D01*
D32*
X87520000Y-69700000D02*
X86670000Y-70550000D01*
D33*
X130000000Y-94500000D02*
X130300000Y-94200000D01*
D31*
X119300000Y-84800000D02*
X103300000Y-84800000D01*
D33*
X129500000Y-84100000D02*
X129500000Y-89396498D01*
D32*
X85370000Y-69515000D02*
X85635000Y-69515000D01*
D31*
X97200000Y-110400000D02*
X101300000Y-110400000D01*
X126350000Y-82000000D02*
X126425000Y-82075000D01*
D32*
X87910000Y-69515000D02*
X87910000Y-71230000D01*
D31*
X94720000Y-110400000D02*
X95700000Y-110400000D01*
X122100000Y-82000000D02*
X119300000Y-84800000D01*
X101300000Y-110400000D02*
X102900000Y-110400000D01*
D32*
X89180000Y-70616000D02*
X88264000Y-69700000D01*
X85635000Y-69515000D02*
X86670000Y-70550000D01*
D31*
X103300000Y-84800000D02*
X103300000Y-82900000D01*
X95700000Y-110400000D02*
X97200000Y-110400000D01*
D33*
X135000000Y-94200000D02*
X130300000Y-94200000D01*
X130000000Y-101900000D02*
X130000000Y-94500000D01*
X129500000Y-89396498D02*
X129500014Y-89396512D01*
D32*
X85370000Y-69515000D02*
X85370000Y-71230000D01*
D31*
X102900000Y-110400000D02*
X104200000Y-110400000D01*
X104200000Y-110400000D02*
X104700000Y-109900000D01*
X125100000Y-82000000D02*
X126350000Y-82000000D01*
D32*
X88264000Y-69700000D02*
X87520000Y-69700000D01*
D31*
X94060000Y-111060000D02*
X94720000Y-110400000D01*
D33*
G04 #@! TO.N,Board_3-/Buck converter stage 1/BOOT*
X132500000Y-106200000D02*
X132500000Y-104300000D01*
X132500000Y-104300000D02*
X131900000Y-103700000D01*
D34*
G04 #@! TO.N,Board_3-/Buck converter stage 1/FVSS*
X109500000Y-92100000D02*
X115600000Y-92100000D01*
X115600000Y-102600000D02*
X126200000Y-102600000D01*
D33*
G04 #@! TO.N,Board_3-/Buck converter stage 1/I1A9*
X129040000Y-91000000D02*
X127937109Y-89897109D01*
X127937109Y-89897109D02*
X124538167Y-89897109D01*
X124538167Y-89897109D02*
X124533776Y-89901500D01*
G04 #@! TO.N,Board_3-/Buck converter stage 1/I2A9*
X127900000Y-92400000D02*
X123900000Y-92400000D01*
X129040000Y-93540000D02*
X127900000Y-92400000D01*
G04 #@! TO.N,Board_3-/Buck converter stage 1/SW*
X133100000Y-101700000D02*
X133300000Y-101900000D01*
X133300000Y-101900000D02*
X140200000Y-101900000D01*
G04 #@! TO.N,Board_3-/Buck converter stage 2/BOOT*
X132200000Y-87800000D02*
X132200000Y-85600000D01*
X132200000Y-85600000D02*
X131900000Y-85300000D01*
D34*
G04 #@! TO.N,Board_3-/Buck converter stage 2/SW*
X133100000Y-83300000D02*
X139700000Y-83300000D01*
D33*
X139000000Y-86300000D02*
X139500000Y-86800000D01*
X139000000Y-85300000D02*
X139000000Y-86300000D01*
D34*
G04 #@! TO.N,Board_3-/Control MCU/EXT*
X87700000Y-86600000D02*
X92000000Y-86600000D01*
X81300000Y-109100000D02*
X82400000Y-110200000D01*
X82400000Y-110200000D02*
X90770000Y-110200000D01*
X90770000Y-110200000D02*
X92220000Y-108750000D01*
G04 #@! TO.N,Board_3-/Control MCU/POWER_TOGGLE*
X80300000Y-108600000D02*
X87670000Y-108600000D01*
X88000000Y-87500000D02*
X91034686Y-87500000D01*
X91034686Y-87500000D02*
X91155180Y-87620494D01*
G04 #@! TO.N,Board_3-/Control MCU/RESET*
X86200000Y-83400000D02*
X89500000Y-83400000D01*
X87900000Y-95400000D02*
X87508200Y-95008200D01*
X87508200Y-95008200D02*
X83077000Y-95008200D01*
X83077000Y-95008200D02*
X82000000Y-96085200D01*
G04 #@! TO.N,Board_3-/Control MCU/RXD*
X88600000Y-90000000D02*
X88800000Y-90200000D01*
X88800000Y-90200000D02*
X90700000Y-90200000D01*
X90700000Y-102400000D02*
X83305200Y-102400000D01*
X83305200Y-102400000D02*
X82000000Y-103705200D01*
G04 #@! TO.N,Board_3-/Control MCU/TXD*
X90100000Y-104900000D02*
X83345200Y-104900000D01*
X83345200Y-104900000D02*
X82000000Y-106245200D01*
X88800000Y-89100000D02*
X90176500Y-89100000D01*
G04 #@! TO.N,Board_3-/Control MCU/TXD5J*
X83077000Y-94622200D02*
X82000000Y-93545200D01*
X88022200Y-94622200D02*
X83077000Y-94622200D01*
X88700000Y-95300000D02*
X88022200Y-94622200D01*
G04 #@! TO.N,Board_3-/Control MCU/VcapS*
X123200000Y-92600000D02*
X86476500Y-92600000D01*
X86476500Y-92600000D02*
X86400000Y-92523500D01*
G04 #@! TO.N,Board_3-/Control MCU/VinS*
X86000000Y-93800000D02*
X86300000Y-93500000D01*
X86300000Y-93500000D02*
X108100000Y-93500000D01*
X108100000Y-93500000D02*
X108400000Y-93800000D01*
D33*
G04 #@! TO.N,Board_3-/EN5V*
X131600000Y-89700000D02*
X131000000Y-90300000D01*
X128798000Y-89898000D02*
X128300000Y-89400000D01*
X121400000Y-89400000D02*
X120500000Y-90300000D01*
X129898464Y-90300000D02*
X129496464Y-89898000D01*
X128300000Y-89400000D02*
X121400000Y-89400000D01*
X82000000Y-98625200D02*
X83125200Y-97500000D01*
X129496464Y-89898000D02*
X128798000Y-89898000D01*
X106600000Y-92100000D02*
X88700000Y-92100000D01*
X131000000Y-90300000D02*
X129898464Y-90300000D01*
X83125200Y-97500000D02*
X87100000Y-97500000D01*
X120500000Y-90300000D02*
X106600000Y-90300000D01*
D34*
G04 #@! TO.N,Board_3-/I/O/GPIO4*
X92990000Y-77845000D02*
X93845000Y-78700000D01*
X92990000Y-75400000D02*
X92990000Y-77845000D01*
D35*
X92990000Y-73770000D02*
X92990000Y-75485000D01*
D34*
G04 #@! TO.N,Board_3-/Iin*
X93512370Y-85500000D02*
X93546500Y-85465870D01*
X126500000Y-91000000D02*
X93946500Y-91000000D01*
D33*
X128000000Y-107400000D02*
X128000000Y-108709229D01*
X124500000Y-98400000D02*
X124500000Y-95540000D01*
X132790771Y-113500000D02*
X133300000Y-113500000D01*
D34*
X86500000Y-85500000D02*
X93512370Y-85500000D01*
X93946500Y-91000000D02*
X93546500Y-90600000D01*
D33*
X128000000Y-108709229D02*
X132790771Y-113500000D01*
X124500000Y-95540000D02*
X126500000Y-93540000D01*
D34*
G04 #@! TO.N,Board_3-/LED_1*
X88500000Y-83900000D02*
X82400000Y-83900000D01*
G04 #@! TO.N,Board_3-/LED_2*
X89000000Y-84900000D02*
X82400000Y-84900000D01*
G04 #@! TO.N,Board_3-/LED_3*
X84000000Y-88000000D02*
X82400000Y-86400000D01*
X82400000Y-86400000D02*
X82400000Y-85900000D01*
G04 #@! TO.N,Board_3-/LED_4*
X81700000Y-89600000D02*
X81700000Y-87600000D01*
G04 #@! TO.N,Board_3-/RGPIO4*
X95170000Y-81300000D02*
X92870000Y-81300000D01*
X87440718Y-91029282D02*
X87770000Y-90700000D01*
X91970000Y-90700000D02*
X92870000Y-90700000D01*
X91870000Y-90700000D02*
X91970000Y-90700000D01*
X87770000Y-90700000D02*
X91870000Y-90700000D01*
X95295000Y-78700000D02*
X95295000Y-81175000D01*
X86954941Y-91029282D02*
X87440718Y-91029282D01*
X95295000Y-81175000D02*
X95170000Y-81300000D01*
D33*
G04 #@! TO.N,Board_3-/RTC/3V3B*
X120200000Y-78700000D02*
X120870000Y-78700000D01*
X120870000Y-78700000D02*
X120970000Y-78600000D01*
G04 #@! TO.N,Board_3-/RTC/RTCVDD*
X117211097Y-79288903D02*
X116202679Y-79288903D01*
X118000000Y-78500000D02*
X117211097Y-79288903D01*
G04 #@! TO.N,Board_3-/RTC/VBAT*
X112450000Y-118100000D02*
X112450000Y-114150000D01*
X120071685Y-80038254D02*
X120593590Y-80038254D01*
X112450000Y-114150000D02*
X117700000Y-108900000D01*
X117400000Y-81270000D02*
X118839939Y-81270000D01*
X118839939Y-81270000D02*
X120071685Y-80038254D01*
D34*
G04 #@! TO.N,Board_3-/RTC_INT*
X107700000Y-86100000D02*
X107800000Y-86200000D01*
X86900000Y-86100000D02*
X107700000Y-86100000D01*
G04 #@! TO.N,Board_3-/RXD0*
X94470000Y-72290000D02*
X94470000Y-76943818D01*
X84540000Y-106245200D02*
X85285200Y-105500000D01*
D35*
X95530000Y-69515000D02*
X95530000Y-71230000D01*
D34*
X95530000Y-71230000D02*
X94470000Y-72290000D01*
X94470000Y-76943818D02*
X94534116Y-77007934D01*
X85285200Y-105500000D02*
X94500000Y-105500000D01*
D35*
G04 #@! TO.N,Board_3-/RXD5*
X126010000Y-73770000D02*
X126010000Y-75485000D01*
D34*
X126001200Y-75400000D02*
X125044800Y-76356400D01*
X126010000Y-75400000D02*
X126001200Y-75400000D01*
X119300000Y-96400000D02*
X119600000Y-96100000D01*
X84540000Y-96085200D02*
X85254800Y-96800000D01*
X126100000Y-80400000D02*
X121443873Y-80400000D01*
X92170000Y-96800000D02*
X92570000Y-96400000D01*
X119946500Y-81176500D02*
X119920000Y-81150000D01*
X120667373Y-81176500D02*
X119946500Y-81176500D01*
X92570000Y-96400000D02*
X119300000Y-96400000D01*
X85254800Y-96800000D02*
X92170000Y-96800000D01*
X121443873Y-80400000D02*
X120667373Y-81176500D01*
G04 #@! TO.N,Board_3-/SCL*
X89100000Y-77900000D02*
X89300000Y-77700000D01*
X84500000Y-78700000D02*
X85300000Y-77900000D01*
X115600000Y-82800000D02*
X114000000Y-81200000D01*
X114000000Y-81200000D02*
X95731742Y-81200000D01*
X92426501Y-81826501D02*
X91600000Y-81000000D01*
D33*
X90400000Y-81300000D02*
X90050000Y-81650000D01*
D34*
X84900000Y-85500000D02*
X83100000Y-85500000D01*
X95731742Y-81200000D02*
X95105241Y-81826501D01*
X85300000Y-77900000D02*
X89100000Y-77900000D01*
D33*
X91300000Y-81300000D02*
X90400000Y-81300000D01*
D34*
X95105241Y-81826501D02*
X92426501Y-81826501D01*
X90450000Y-76550000D02*
X90450000Y-75400000D01*
X89300000Y-77700000D02*
X90450000Y-76550000D01*
D35*
X90450000Y-75485000D02*
X90450000Y-73770000D01*
D34*
G04 #@! TO.N,Board_3-/SDA*
X103808033Y-81673499D02*
X95996501Y-81673499D01*
X87910000Y-75400000D02*
X88700000Y-76190000D01*
X86800000Y-82700000D02*
X86800000Y-81800000D01*
X95996501Y-81673499D02*
X94970000Y-82700000D01*
X88700000Y-76190000D02*
X88700000Y-76500000D01*
X89700000Y-82700000D02*
X88300000Y-81300000D01*
D35*
X87910000Y-75485000D02*
X87910000Y-73770000D01*
D33*
X86300000Y-81300000D02*
X88300000Y-81300000D01*
D34*
X85500000Y-84400000D02*
X86800000Y-84400000D01*
X94970000Y-82700000D02*
X89700000Y-82700000D01*
X114300000Y-83400000D02*
X105534534Y-83400000D01*
X105534534Y-83400000D02*
X103808033Y-81673499D01*
D33*
G04 #@! TO.N,Board_3-/Supercapacitor/BO1+*
X100200000Y-100400000D02*
X98700000Y-100400000D01*
G04 #@! TO.N,Board_3-/Supercapacitor/BO2+*
X100000000Y-87100000D02*
X98600000Y-87100000D01*
G04 #@! TO.N,Board_3-/Supercapacitor/BO2o*
X98900000Y-82900000D02*
X97400000Y-82900000D01*
G04 #@! TO.N,Board_3-/Supercapacitor/BO3+*
X112800000Y-100200000D02*
X112900000Y-100100000D01*
X111400000Y-100200000D02*
X112800000Y-100200000D01*
G04 #@! TO.N,Board_3-/Supercapacitor/SC12*
X96300000Y-85500000D02*
X99200000Y-85500000D01*
D30*
X99800000Y-80400000D02*
X97170000Y-80400000D01*
X99900000Y-80300000D02*
X99800000Y-80400000D01*
D31*
X102950000Y-107755000D02*
X95495000Y-107755000D01*
X95495000Y-107755000D02*
X95450000Y-107800000D01*
D33*
G04 #@! TO.N,Board_3-/Supercapacitor/SC12R*
X98600000Y-91500000D02*
X101700000Y-91500000D01*
D30*
G04 #@! TO.N,Board_3-/Supercapacitor/SC23*
X98100000Y-83600000D02*
X101800000Y-83600000D01*
X107300000Y-86700000D02*
X107700000Y-87100000D01*
X111800000Y-94100000D02*
X111400000Y-94500000D01*
X110200000Y-105500000D02*
X108250000Y-107450000D01*
X101800000Y-86700000D02*
X107300000Y-86700000D01*
X111400000Y-94500000D02*
X107700000Y-94500000D01*
D31*
X115750000Y-107755000D02*
X108250000Y-107755000D01*
D34*
G04 #@! TO.N,Board_3-/Supercapacitor/SC23R*
X102500000Y-89800000D02*
X101100000Y-89800000D01*
X102500000Y-104500000D02*
X111100000Y-104500000D01*
G04 #@! TO.N,Board_3-/TXD0*
X93394800Y-103705200D02*
X93400000Y-103700000D01*
X94070000Y-76900000D02*
X93870000Y-77100000D01*
X84540000Y-103705200D02*
X93394800Y-103705200D01*
D35*
X92990000Y-69515000D02*
X92990000Y-71230000D01*
D34*
X92990000Y-71230000D02*
X94070000Y-72310000D01*
X94070000Y-72310000D02*
X94070000Y-76900000D01*
G04 #@! TO.N,Board_3-/TXD5*
X117100000Y-72300000D02*
X122531998Y-72300000D01*
X122531998Y-72300000D02*
X123470000Y-71361998D01*
X85085200Y-93000000D02*
X116300000Y-93000000D01*
X84885200Y-93200000D02*
X85085200Y-93000000D01*
X123470000Y-71361998D02*
X123470000Y-69600000D01*
X116300000Y-93000000D02*
X116500000Y-93200000D01*
D35*
X123470000Y-69515000D02*
X123470000Y-71230000D01*
D30*
G04 #@! TO.N,Board_3-/Vcap*
X118795000Y-105500000D02*
X121050000Y-107755000D01*
D33*
X129300000Y-104200000D02*
X129300000Y-98800000D01*
X110400000Y-100800000D02*
X114000000Y-100800000D01*
X121050000Y-100750000D02*
X121000000Y-100800000D01*
D36*
X124225000Y-88375000D02*
X121125000Y-88375000D01*
D30*
X112000000Y-95100000D02*
X121100000Y-95100000D01*
D33*
X134578993Y-111688275D02*
X129300000Y-106409282D01*
X129300000Y-106409282D02*
X129300000Y-106400000D01*
D36*
X121125000Y-88375000D02*
X121100000Y-88400000D01*
D30*
X113600000Y-105500000D02*
X118795000Y-105500000D01*
D33*
X121000000Y-100800000D02*
X114000000Y-100800000D01*
D32*
G04 #@! TO.N,Board_3-GND*
X90450000Y-69515000D02*
X90450000Y-71230000D01*
D35*
X100610000Y-69515000D02*
X100610000Y-71230000D01*
X126010000Y-69515000D02*
X126010000Y-71230000D01*
X132512400Y-74282400D02*
X132512400Y-74273600D01*
X120930000Y-69600000D02*
X121082400Y-69600000D01*
X108230000Y-69515000D02*
X108230000Y-71230000D01*
X133630000Y-73770000D02*
X133630000Y-75485000D01*
X121082400Y-69600000D02*
X121996800Y-70514400D01*
X126060800Y-69600000D02*
X127280000Y-70819200D01*
X90704000Y-69600000D02*
X91720000Y-70616000D01*
X115688800Y-75400000D02*
X114732400Y-76356400D01*
X108179200Y-69600000D02*
X106960000Y-70819200D01*
X115850000Y-73770000D02*
X115850000Y-75400000D01*
X95530000Y-76978500D02*
X95600000Y-77048500D01*
X95530000Y-75400000D02*
X95530000Y-76978500D01*
X126010000Y-69600000D02*
X126060800Y-69600000D01*
X100610000Y-69600000D02*
X101829200Y-70819200D01*
X115850000Y-75400000D02*
X115688800Y-75400000D01*
X120930000Y-69515000D02*
X120930000Y-71230000D01*
X133630000Y-75400000D02*
X132512400Y-74282400D01*
X90450000Y-69600000D02*
X90704000Y-69600000D01*
D30*
X115850000Y-75400000D02*
X115850000Y-76850000D01*
D35*
X108230000Y-69600000D02*
X108179200Y-69600000D01*
D30*
X115850000Y-76850000D02*
X115900000Y-76900000D01*
D35*
X95530000Y-73770000D02*
X95530000Y-75485000D01*
G04 #@! TO.N,Board_3-unconnected-(J501-Pad1)*
X85370000Y-75485000D02*
X85370000Y-73770000D01*
G04 #@! TO.N,Board_3-unconnected-(J501-Pad11)*
X98070000Y-73770000D02*
X98070000Y-75485000D01*
G04 #@! TO.N,Board_3-unconnected-(J501-Pad12)*
X98070000Y-69515000D02*
X98070000Y-71230000D01*
G04 #@! TO.N,Board_3-unconnected-(J501-Pad13)*
X100610000Y-73770000D02*
X100610000Y-75485000D01*
G04 #@! TO.N,Board_3-unconnected-(J501-Pad15)*
X103150000Y-73770000D02*
X103150000Y-75485000D01*
G04 #@! TO.N,Board_3-unconnected-(J501-Pad16)*
X103150000Y-69515000D02*
X103150000Y-71230000D01*
G04 #@! TO.N,Board_3-unconnected-(J501-Pad17)*
X105690000Y-73770000D02*
X105690000Y-75485000D01*
G04 #@! TO.N,Board_3-unconnected-(J501-Pad18)*
X105690000Y-69515000D02*
X105690000Y-71230000D01*
G04 #@! TO.N,Board_3-unconnected-(J501-Pad19)*
X108230000Y-73770000D02*
X108230000Y-75485000D01*
G04 #@! TO.N,Board_3-unconnected-(J501-Pad21)*
X110770000Y-73770000D02*
X110770000Y-75485000D01*
G04 #@! TO.N,Board_3-unconnected-(J501-Pad22)*
X110770000Y-69515000D02*
X110770000Y-71230000D01*
G04 #@! TO.N,Board_3-unconnected-(J501-Pad23)*
X113310000Y-73770000D02*
X113310000Y-75485000D01*
G04 #@! TO.N,Board_3-unconnected-(J501-Pad24)*
X113310000Y-69515000D02*
X113310000Y-71230000D01*
G04 #@! TO.N,Board_3-unconnected-(J501-Pad26)*
X115850000Y-69515000D02*
X115850000Y-71230000D01*
G04 #@! TO.N,Board_3-unconnected-(J501-Pad27)*
X118390000Y-73770000D02*
X118390000Y-75485000D01*
G04 #@! TO.N,Board_3-unconnected-(J501-Pad28)*
X118390000Y-69515000D02*
X118390000Y-71230000D01*
G04 #@! TO.N,Board_3-unconnected-(J501-Pad29)*
X120930000Y-73770000D02*
X120930000Y-75485000D01*
G04 #@! TO.N,Board_3-unconnected-(J501-Pad31)*
X123470000Y-73770000D02*
X123470000Y-75485000D01*
G04 #@! TO.N,Board_3-unconnected-(J501-Pad35)*
X128550000Y-73770000D02*
X128550000Y-75485000D01*
G04 #@! TO.N,Board_3-unconnected-(J501-Pad36)*
X128550000Y-69515000D02*
X128550000Y-71230000D01*
G04 #@! TO.N,Board_3-unconnected-(J501-Pad37)*
X131090000Y-73770000D02*
X131090000Y-75485000D01*
G04 #@! TO.N,Board_3-unconnected-(J501-Pad38)*
X131090000Y-69515000D02*
X131090000Y-71230000D01*
G04 #@! TO.N,Board_3-unconnected-(J501-Pad40)*
X133630000Y-69515000D02*
X133630000Y-71230000D01*
G04 #@! TD*
M02*
