M48
; DRILL file {KiCad 8.0.7} date 2024-12-23T12:56:31+0200
; FORMAT={-:-/ absolute / metric / decimal}
; #@! TF.CreationDate,2024-12-23T12:56:31+02:00
; #@! TF.GenerationSoftware,Kicad,Pcbnew,8.0.7
; #@! TF.FileFunction,MixedPlating,1,4
FMAT,2
METRIC
; #@! TA.AperFunction,Plated,PTH,ViaDrill
T1C0.200
; #@! TA.AperFunction,Plated,PTH,ComponentDrill
T2C0.200
; #@! TA.AperFunction,Plated,PTH,ViaDrill
T3C0.300
; #@! TA.AperFunction,Plated,PTH,ViaDrill
T4C0.400
; #@! TA.AperFunction,Plated,PTH,ViaDrill
T5C0.600
; #@! TA.AperFunction,Plated,PTH,ComponentDrill
T6C1.000
; #@! TA.AperFunction,Plated,PTH,ComponentDrill
T7C1.100
; #@! TA.AperFunction,Plated,PTH,ComponentDrill
T8C1.200
; #@! TA.AperFunction,NonPlated,NPTH,ComponentDrill
T9C1.152
; #@! TA.AperFunction,NonPlated,NPTH,ComponentDrill
T10C2.000
; #@! TA.AperFunction,NonPlated,NPTH,ComponentDrill
T11C2.750
%
G90
G05
T1
X8.6Y-53.7
X8.6Y-115.2
X8.6Y-176.7
X8.6Y-238.2
X9.0Y-28.5
X9.0Y-34.0
X9.0Y-39.5
X9.0Y-45.0
X9.0Y-90.0
X9.0Y-95.5
X9.0Y-101.0
X9.0Y-106.5
X9.0Y-151.5
X9.0Y-157.0
X9.0Y-162.5
X9.0Y-168.0
X9.0Y-213.0
X9.0Y-218.5
X9.0Y-224.0
X9.0Y-229.5
X9.05Y-46.0
X9.05Y-107.5
X9.05Y-169.0
X9.05Y-230.5
X9.9Y-49.1
X9.9Y-110.6
X9.9Y-172.1
X9.9Y-233.6
X10.0Y-55.9
X10.0Y-117.4
X10.0Y-178.9
X10.0Y-240.4
X10.3Y-47.1
X10.3Y-108.6
X10.3Y-170.1
X10.3Y-231.6
X11.0Y-46.6
X11.0Y-108.1
X11.0Y-169.6
X11.0Y-231.1
X11.3Y-47.6
X11.3Y-109.1
X11.3Y-170.6
X11.3Y-232.1
X11.7Y-26.1
X11.7Y-28.1
X11.7Y-87.6
X11.7Y-89.6
X11.7Y-149.1
X11.7Y-151.1
X11.7Y-210.6
X11.7Y-212.6
X12.4Y-22.4
X12.4Y-23.4
X12.4Y-24.4
X12.4Y-26.1
X12.4Y-83.9
X12.4Y-84.9
X12.4Y-85.9
X12.4Y-87.6
X12.4Y-145.4
X12.4Y-146.4
X12.4Y-147.4
X12.4Y-149.1
X12.4Y-206.9
X12.4Y-207.9
X12.4Y-208.9
X12.4Y-210.6
X12.8Y-22.9
X12.8Y-84.4
X12.8Y-145.9
X12.8Y-207.4
X13.1Y-24.0
X13.1Y-24.8
X13.1Y-85.5
X13.1Y-86.3
X13.1Y-147.0
X13.1Y-147.8
X13.1Y-208.5
X13.1Y-209.3
X13.3Y-49.55
X13.3Y-111.05
X13.3Y-172.55
X13.3Y-234.05
X14.0Y-26.5
X14.0Y-88.0
X14.0Y-149.5
X14.0Y-211.0
X14.331Y-17.23
X14.331Y-78.73
X14.331Y-140.23
X14.331Y-201.73
X14.4Y-25.7
X14.4Y-87.2
X14.4Y-148.7
X14.4Y-210.2
X14.548Y-22.924
X14.548Y-84.423
X14.548Y-145.923
X14.548Y-207.423
X14.9Y-24.0
X14.9Y-85.5
X14.9Y-147.0
X14.9Y-208.5
X15.07Y-17.1
X15.07Y-78.6
X15.07Y-140.1
X15.07Y-201.6
X15.37Y-30.9
X15.37Y-92.4
X15.37Y-153.9
X15.37Y-215.4
X15.5Y-22.9
X15.5Y-84.4
X15.5Y-145.9
X15.5Y-207.4
X15.85Y-27.35
X15.85Y-88.85
X15.85Y-150.35
X15.85Y-211.85
X15.9Y-21.2
X15.9Y-82.7
X15.9Y-144.2
X15.9Y-205.7
X16.0Y-32.3
X16.0Y-93.8
X16.0Y-155.3
X16.0Y-216.8
X16.2Y-21.9
X16.2Y-83.4
X16.2Y-144.9
X16.2Y-206.4
X16.25Y-48.2
X16.25Y-109.7
X16.25Y-171.2
X16.25Y-232.7
X16.4Y-31.023
X16.4Y-92.523
X16.4Y-154.023
X16.4Y-215.523
X16.5Y-24.0
X16.5Y-85.5
X16.5Y-147.0
X16.5Y-208.5
X16.6Y-26.9
X16.6Y-27.9
X16.6Y-88.4
X16.6Y-89.4
X16.6Y-149.9
X16.6Y-150.9
X16.6Y-211.4
X16.6Y-212.4
X16.67Y-7.75
X16.67Y-69.25
X16.67Y-130.75
X16.67Y-192.25
X16.8Y-21.2
X16.8Y-22.9
X16.8Y-82.7
X16.8Y-84.4
X16.8Y-144.2
X16.8Y-145.9
X16.8Y-205.7
X16.8Y-207.4
X16.9Y-24.6
X16.9Y-86.1
X16.9Y-147.6
X16.9Y-209.1
X16.955Y-29.529
X16.955Y-91.029
X16.955Y-152.529
X16.955Y-214.029
X17.1Y-36.0
X17.1Y-97.5
X17.1Y-159.0
X17.1Y-220.5
X17.57Y-47.0
X17.57Y-108.5
X17.57Y-170.0
X17.57Y-231.5
X17.6Y-22.9
X17.6Y-84.4
X17.6Y-145.9
X17.6Y-207.4
X17.7Y-25.1
X17.7Y-86.6
X17.7Y-148.1
X17.7Y-209.6
X17.8Y-35.776
X17.8Y-97.276
X17.8Y-158.776
X17.8Y-220.276
X17.9Y-33.9
X17.9Y-95.4
X17.9Y-156.9
X17.9Y-218.4
X18.0Y-26.0
X18.0Y-87.5
X18.0Y-149.0
X18.0Y-210.5
X18.1Y-29.8
X18.1Y-91.3
X18.1Y-152.8
X18.1Y-214.3
X18.3Y-19.8
X18.3Y-81.3
X18.3Y-142.8
X18.3Y-204.3
X18.5Y-22.4
X18.5Y-32.8
X18.5Y-83.9
X18.5Y-94.3
X18.5Y-145.4
X18.5Y-155.8
X18.5Y-206.9
X18.5Y-217.3
X18.557Y-14.914
X18.557Y-76.414
X18.557Y-137.914
X18.557Y-199.414
X18.6Y-28.5
X18.6Y-90.0
X18.6Y-151.5
X18.6Y-213.0
X18.7Y-30.6
X18.7Y-33.8
X18.7Y-92.1
X18.7Y-95.3
X18.7Y-153.6
X18.7Y-156.8
X18.7Y-215.1
X18.7Y-218.3
X18.8Y-27.6
X18.8Y-89.1
X18.8Y-150.6
X18.8Y-212.1
X19.0Y-23.4
X19.0Y-84.9
X19.0Y-146.4
X19.0Y-207.9
X19.17Y-15.4
X19.17Y-76.9
X19.17Y-138.4
X19.17Y-199.9
X19.2Y-19.9
X19.2Y-22.6
X19.2Y-28.1
X19.2Y-81.4
X19.2Y-84.1
X19.2Y-89.6
X19.2Y-142.9
X19.2Y-145.6
X19.2Y-151.1
X19.2Y-204.4
X19.2Y-207.1
X19.2Y-212.6
X19.27Y-16.15
X19.27Y-77.65
X19.27Y-139.15
X19.27Y-200.65
X19.5Y-21.9
X19.5Y-83.4
X19.5Y-144.9
X19.5Y-206.4
X19.6Y-42.9
X19.6Y-104.4
X19.6Y-165.9
X19.6Y-227.4
X20.05Y-20.15
X20.05Y-81.65
X20.05Y-143.15
X20.05Y-204.65
X20.1Y-43.4
X20.1Y-104.9
X20.1Y-166.4
X20.1Y-227.9
X20.177Y-27.6
X20.177Y-89.1
X20.177Y-150.6
X20.177Y-212.1
X20.7Y-28.7
X20.7Y-40.9
X20.7Y-41.6
X20.7Y-90.2
X20.7Y-102.4
X20.7Y-103.1
X20.7Y-151.7
X20.7Y-163.9
X20.7Y-164.6
X20.7Y-213.2
X20.7Y-225.4
X20.7Y-226.1
X20.793Y-27.9
X20.793Y-89.4
X20.793Y-150.9
X20.793Y-212.4
X21.155Y-26.12
X21.155Y-87.62
X21.155Y-149.12
X21.155Y-210.62
X21.57Y-17.9
X21.57Y-79.4
X21.57Y-140.9
X21.57Y-202.4
X21.694Y-25.8
X21.694Y-34.5
X21.694Y-87.3
X21.694Y-96.0
X21.694Y-148.8
X21.694Y-157.5
X21.694Y-210.3
X21.694Y-219.0
X22.0Y-25.1
X22.0Y-86.6
X22.0Y-148.1
X22.0Y-209.6
X22.22Y-47.25
X22.22Y-108.75
X22.22Y-170.25
X22.22Y-231.75
X22.87Y-19.1
X22.87Y-19.8
X22.87Y-29.2
X22.87Y-80.6
X22.87Y-81.3
X22.87Y-90.7
X22.87Y-142.1
X22.87Y-142.8
X22.87Y-152.2
X22.87Y-203.6
X22.87Y-204.3
X22.87Y-213.7
X23.27Y-29.89
X23.27Y-91.39
X23.27Y-152.89
X23.27Y-214.39
X23.4Y-42.2
X23.4Y-42.9
X23.4Y-103.7
X23.4Y-104.4
X23.4Y-165.2
X23.4Y-165.9
X23.4Y-226.7
X23.4Y-227.4
X23.546Y-23.19
X23.546Y-23.966
X23.546Y-29.1
X23.546Y-84.69
X23.546Y-85.466
X23.546Y-90.6
X23.546Y-146.19
X23.546Y-146.966
X23.546Y-152.1
X23.546Y-207.69
X23.546Y-208.466
X23.546Y-213.6
X23.87Y-15.6
X23.87Y-77.1
X23.87Y-138.6
X23.87Y-200.1
X24.5Y-44.0
X24.5Y-105.5
X24.5Y-167.0
X24.5Y-228.5
X24.534Y-15.508
X24.534Y-77.008
X24.534Y-138.508
X24.534Y-200.008
X24.993Y-27.4
X24.993Y-88.9
X24.993Y-150.4
X24.993Y-211.9
X25.2Y-44.0
X25.2Y-105.5
X25.2Y-167.0
X25.2Y-228.5
X25.5Y-50.3
X25.5Y-111.8
X25.5Y-173.3
X25.5Y-234.8
X25.69Y-35.758
X25.69Y-97.258
X25.69Y-158.758
X25.69Y-220.258
X25.7Y-21.4
X25.7Y-23.7
X25.7Y-82.9
X25.7Y-85.2
X25.7Y-144.4
X25.7Y-146.7
X25.7Y-205.9
X25.7Y-208.2
X26.3Y-24.0
X26.3Y-85.5
X26.3Y-147.0
X26.3Y-208.5
X26.5Y-50.3
X26.5Y-111.8
X26.5Y-173.3
X26.5Y-234.8
X27.17Y-18.2
X27.17Y-18.9
X27.17Y-30.0
X27.17Y-79.7
X27.17Y-80.4
X27.17Y-91.5
X27.17Y-141.2
X27.17Y-141.9
X27.17Y-153.0
X27.17Y-202.7
X27.17Y-203.4
X27.17Y-214.5
X27.3Y-25.6
X27.3Y-87.1
X27.3Y-148.6
X27.3Y-210.1
X27.4Y-21.4
X27.4Y-82.9
X27.4Y-144.4
X27.4Y-205.9
X27.5Y-50.3
X27.5Y-111.8
X27.5Y-173.3
X27.5Y-234.8
X28.1Y-22.1
X28.1Y-83.6
X28.1Y-145.1
X28.1Y-206.6
X28.6Y-25.6
X28.6Y-30.0
X28.6Y-87.1
X28.6Y-91.5
X28.6Y-148.6
X28.6Y-153.0
X28.6Y-210.1
X28.6Y-214.5
X28.7Y-38.9
X28.7Y-43.4
X28.7Y-100.4
X28.7Y-104.9
X28.7Y-161.9
X28.7Y-166.4
X28.7Y-223.4
X28.7Y-227.9
X28.9Y-21.4
X28.9Y-82.9
X28.9Y-144.4
X28.9Y-205.9
X29.0Y-22.7
X29.0Y-84.2
X29.0Y-145.7
X29.0Y-207.2
X29.1Y-38.2
X29.1Y-40.0
X29.1Y-99.7
X29.1Y-101.5
X29.1Y-161.2
X29.1Y-163.0
X29.1Y-222.7
X29.1Y-224.5
X29.2Y-24.0
X29.2Y-85.5
X29.2Y-147.0
X29.2Y-208.5
X29.3Y-20.7
X29.3Y-37.3
X29.3Y-82.2
X29.3Y-98.8
X29.3Y-143.7
X29.3Y-160.3
X29.3Y-205.2
X29.3Y-221.8
X29.9Y-18.8
X29.9Y-80.3
X29.9Y-141.8
X29.9Y-203.3
X30.0Y-25.6
X30.0Y-87.1
X30.0Y-148.6
X30.0Y-210.1
X30.2Y-38.9
X30.2Y-100.4
X30.2Y-161.9
X30.2Y-223.4
X30.4Y-18.3
X30.4Y-79.8
X30.4Y-141.3
X30.4Y-202.8
X31.1Y-28.3
X31.1Y-89.8
X31.1Y-151.3
X31.1Y-212.8
X31.2Y-27.6
X31.2Y-89.1
X31.2Y-150.6
X31.2Y-212.1
X31.4Y-21.5
X31.4Y-83.0
X31.4Y-144.5
X31.4Y-206.0
X31.7Y-30.0
X31.7Y-91.5
X31.7Y-153.0
X31.7Y-214.5
X31.8Y-22.1
X31.8Y-25.2
X31.8Y-83.6
X31.8Y-86.7
X31.8Y-145.1
X31.8Y-148.2
X31.8Y-206.6
X31.8Y-209.7
X32.0Y-43.5
X32.0Y-105.0
X32.0Y-166.5
X32.0Y-228.0
X32.4Y-30.0
X32.4Y-91.5
X32.4Y-153.0
X32.4Y-214.5
X32.5Y-25.9
X32.5Y-28.3
X32.5Y-43.0
X32.5Y-87.4
X32.5Y-89.8
X32.5Y-104.5
X32.5Y-148.9
X32.5Y-151.3
X32.5Y-166.0
X32.5Y-210.4
X32.5Y-212.8
X32.5Y-227.5
X33.2Y-28.3
X33.2Y-89.8
X33.2Y-151.3
X33.2Y-212.8
X34.5Y-20.177
X34.5Y-81.676
X34.5Y-143.177
X34.5Y-204.677
X34.7Y-21.9
X34.7Y-83.4
X34.7Y-144.9
X34.7Y-206.4
X35.7Y-49.6
X35.7Y-111.1
X35.7Y-172.6
X35.7Y-234.1
X36.5Y-48.4
X36.5Y-109.9
X36.5Y-171.4
X36.5Y-232.9
X36.6Y-28.1
X36.6Y-28.8
X36.6Y-30.6
X36.6Y-89.6
X36.6Y-90.3
X36.6Y-92.1
X36.6Y-151.1
X36.6Y-151.8
X36.6Y-153.6
X36.6Y-212.6
X36.6Y-213.3
X36.6Y-215.1
X37.0Y-32.8
X37.0Y-94.3
X37.0Y-155.8
X37.0Y-217.3
X37.2Y-30.2
X37.2Y-91.7
X37.2Y-153.2
X37.2Y-214.7
X37.7Y-25.6
X37.7Y-33.0
X37.7Y-87.1
X37.7Y-94.5
X37.7Y-148.6
X37.7Y-156.0
X37.7Y-210.1
X37.7Y-217.5
X37.8Y-24.7
X37.8Y-86.2
X37.8Y-147.7
X37.8Y-209.2
X38.3Y-25.2
X38.3Y-86.7
X38.3Y-148.2
X38.3Y-209.7
X38.4Y-32.3
X38.4Y-93.8
X38.4Y-155.3
X38.4Y-216.8
X38.8Y-30.6
X38.8Y-92.1
X38.8Y-153.6
X38.8Y-215.1
X39.1Y-32.3
X39.1Y-93.8
X39.1Y-155.3
X39.1Y-216.8
X39.37Y-43.4
X39.37Y-104.9
X39.37Y-166.4
X39.37Y-227.9
X39.5Y-30.6
X39.5Y-92.1
X39.5Y-153.6
X39.5Y-215.1
X39.7Y-39.3
X39.7Y-100.8
X39.7Y-162.3
X39.7Y-223.8
X39.77Y-44.0
X39.77Y-105.5
X39.77Y-167.0
X39.77Y-228.5
X39.8Y-25.5
X39.8Y-87.0
X39.8Y-148.5
X39.8Y-210.0
X40.4Y-39.3
X40.4Y-100.8
X40.4Y-162.3
X40.4Y-223.8
X40.957Y-42.914
X40.957Y-104.414
X40.957Y-165.914
X40.957Y-227.414
X41.0Y-32.2
X41.0Y-93.7
X41.0Y-155.2
X41.0Y-216.7
X41.4Y-37.3
X41.4Y-38.7
X41.4Y-98.8
X41.4Y-100.2
X41.4Y-160.3
X41.4Y-161.7
X41.4Y-221.8
X41.4Y-223.2
X41.5Y-34.3
X41.5Y-95.8
X41.5Y-157.3
X41.5Y-218.8
X41.77Y-43.2
X41.77Y-104.7
X41.77Y-166.2
X41.77Y-227.7
X41.8Y-32.6
X41.8Y-94.1
X41.8Y-155.6
X41.8Y-217.1
X42.0Y-33.6
X42.0Y-95.1
X42.0Y-156.6
X42.0Y-218.1
X42.9Y-38.6
X42.9Y-100.1
X42.9Y-161.6
X42.9Y-223.1
X43.77Y-44.0
X43.77Y-105.5
X43.77Y-167.0
X43.77Y-228.5
X43.97Y-43.2
X43.97Y-104.7
X43.97Y-166.2
X43.97Y-227.7
X44.0Y-39.3
X44.0Y-100.8
X44.0Y-162.3
X44.0Y-223.8
X44.1Y-40.3
X44.1Y-101.8
X44.1Y-163.3
X44.1Y-224.8
X44.3Y-21.9
X44.3Y-37.1
X44.3Y-83.4
X44.3Y-98.6
X44.3Y-144.9
X44.3Y-160.1
X44.3Y-206.4
X44.3Y-221.6
X45.1Y-21.9
X45.1Y-30.1
X45.1Y-83.4
X45.1Y-91.6
X45.1Y-144.9
X45.1Y-153.1
X45.1Y-206.4
X45.1Y-214.6
X45.6Y-21.3
X45.6Y-30.6
X45.6Y-41.1
X45.6Y-41.8
X45.6Y-82.8
X45.6Y-92.1
X45.6Y-102.6
X45.6Y-103.3
X45.6Y-144.3
X45.6Y-153.6
X45.6Y-164.1
X45.6Y-164.8
X45.6Y-205.8
X45.6Y-215.1
X45.6Y-225.6
X45.6Y-226.3
X46.056Y-18.398
X46.056Y-79.898
X46.056Y-141.398
X46.056Y-202.898
X46.203Y-17.789
X46.203Y-79.289
X46.203Y-140.789
X46.203Y-202.289
X46.5Y-31.7
X46.5Y-32.4
X46.5Y-93.2
X46.5Y-93.9
X46.5Y-154.7
X46.5Y-155.4
X46.5Y-216.2
X46.5Y-216.9
X47.1Y-10.8
X47.1Y-72.3
X47.1Y-133.8
X47.1Y-195.3
X47.37Y-19.1
X47.37Y-80.6
X47.37Y-142.1
X47.37Y-203.6
X47.4Y-19.77
X47.4Y-81.27
X47.4Y-142.77
X47.4Y-204.27
X47.6Y-11.3
X47.6Y-72.8
X47.6Y-134.3
X47.6Y-195.8
X47.7Y-47.4
X47.7Y-108.9
X47.7Y-170.4
X47.7Y-231.9
X47.8Y-16.3
X47.8Y-77.8
X47.8Y-139.3
X47.8Y-200.8
X48.0Y-17.0
X48.0Y-78.5
X48.0Y-140.0
X48.0Y-201.5
X48.2Y-42.7
X48.2Y-104.2
X48.2Y-165.7
X48.2Y-227.2
X48.3Y-27.5
X48.3Y-89.0
X48.3Y-150.5
X48.3Y-212.0
X48.4Y-47.4
X48.4Y-108.9
X48.4Y-170.4
X48.4Y-231.9
X48.9Y-42.7
X48.9Y-104.2
X48.9Y-165.7
X48.9Y-227.2
X49.6Y-34.6
X49.6Y-35.3
X49.6Y-39.9
X49.6Y-96.1
X49.6Y-96.8
X49.6Y-101.4
X49.6Y-157.6
X49.6Y-158.3
X49.6Y-162.9
X49.6Y-219.1
X49.6Y-219.8
X49.6Y-224.4
X49.92Y-19.65
X49.92Y-81.15
X49.92Y-142.65
X49.92Y-204.15
X50.47Y-19.2
X50.47Y-80.7
X50.47Y-142.2
X50.47Y-203.7
X50.594Y-18.538
X50.594Y-80.038
X50.594Y-141.538
X50.594Y-203.038
X50.97Y-17.1
X50.97Y-78.6
X50.97Y-140.1
X50.97Y-201.6
X51.05Y-39.25
X51.05Y-100.75
X51.05Y-162.25
X51.05Y-223.75
X51.1Y-33.6
X51.1Y-95.1
X51.1Y-156.6
X51.1Y-218.1
X52.8Y-31.7
X52.8Y-93.2
X52.8Y-154.7
X52.8Y-216.2
X53.0Y-24.9
X53.0Y-30.1
X53.0Y-86.4
X53.0Y-91.6
X53.0Y-147.9
X53.0Y-153.1
X53.0Y-209.4
X53.0Y-214.6
X53.1Y-37.5
X53.1Y-99.0
X53.1Y-160.5
X53.1Y-222.0
X53.2Y-31.1
X53.2Y-44.9
X53.2Y-92.6
X53.2Y-106.4
X53.2Y-154.1
X53.2Y-167.9
X53.2Y-215.6
X53.2Y-229.4
X53.5Y-17.9
X53.5Y-79.4
X53.5Y-140.9
X53.5Y-202.4
X53.8Y-36.9
X53.8Y-98.4
X53.8Y-159.9
X53.8Y-221.4
X53.9Y-30.9
X53.9Y-92.4
X53.9Y-153.9
X53.9Y-215.4
X54.5Y-31.5
X54.5Y-36.9
X54.5Y-93.0
X54.5Y-98.4
X54.5Y-154.5
X54.5Y-159.9
X54.5Y-216.0
X54.5Y-221.4
X54.534Y-28.401
X54.534Y-89.901
X54.534Y-151.401
X54.534Y-212.901
X55.0Y-29.0
X55.0Y-90.5
X55.0Y-152.0
X55.0Y-213.5
X55.045Y-14.856
X55.045Y-76.356
X55.045Y-137.856
X55.045Y-199.356
X55.1Y-21.9
X55.1Y-83.4
X55.1Y-144.9
X55.1Y-206.4
X55.7Y-40.6
X55.7Y-102.1
X55.7Y-163.6
X55.7Y-225.1
X55.8Y-21.9
X55.8Y-83.4
X55.8Y-144.9
X55.8Y-206.4
X56.1Y-18.9
X56.1Y-80.4
X56.1Y-141.9
X56.1Y-203.4
X56.2Y-41.1
X56.2Y-102.6
X56.2Y-164.1
X56.2Y-225.6
X56.55Y-15.25
X56.55Y-76.75
X56.55Y-138.25
X56.55Y-199.75
X56.8Y-18.9
X56.8Y-80.4
X56.8Y-141.9
X56.8Y-203.4
X56.9Y-36.8
X56.9Y-98.3
X56.9Y-159.8
X56.9Y-221.3
X57.3Y-43.9
X57.3Y-105.4
X57.3Y-166.9
X57.3Y-228.4
X57.337Y-15.25
X57.337Y-76.75
X57.337Y-138.25
X57.337Y-199.75
X57.8Y-33.0
X57.8Y-94.5
X57.8Y-156.0
X57.8Y-217.5
X58.0Y-45.9
X58.0Y-107.4
X58.0Y-168.9
X58.0Y-230.4
X58.124Y-15.25
X58.124Y-76.75
X58.124Y-138.25
X58.124Y-199.75
X58.37Y-22.7
X58.37Y-84.2
X58.37Y-145.7
X58.37Y-207.2
X58.6Y-42.0
X58.6Y-42.7
X58.6Y-45.3
X58.6Y-103.5
X58.6Y-104.2
X58.6Y-106.8
X58.6Y-165.0
X58.6Y-165.7
X58.6Y-168.3
X58.6Y-226.5
X58.6Y-227.2
X58.6Y-229.8
X58.911Y-15.25
X58.911Y-76.75
X58.911Y-138.25
X58.911Y-199.75
X59.3Y-37.3
X59.3Y-42.7
X59.3Y-44.9
X59.3Y-98.8
X59.3Y-104.2
X59.3Y-106.4
X59.3Y-160.3
X59.3Y-165.7
X59.3Y-167.9
X59.3Y-221.8
X59.3Y-227.2
X59.3Y-229.4
X59.5Y-22.6
X59.5Y-84.1
X59.5Y-145.6
X59.5Y-207.1
X59.5Y-27.897
X59.5Y-89.397
X59.5Y-150.897
X59.5Y-212.397
X59.697Y-15.25
X59.697Y-76.75
X59.697Y-138.25
X59.697Y-199.75
X59.9Y-44.6
X59.9Y-106.1
X59.9Y-167.6
X59.9Y-229.1
X60.0Y-40.4
X60.0Y-42.7
X60.0Y-101.9
X60.0Y-104.2
X60.0Y-163.4
X60.0Y-165.7
X60.0Y-224.9
X60.0Y-227.2
X60.1Y-22.9
X60.1Y-84.4
X60.1Y-145.9
X60.1Y-207.4
X60.3Y-32.7
X60.3Y-94.2
X60.3Y-155.7
X60.3Y-217.2
X60.484Y-15.25
X60.484Y-76.75
X60.484Y-138.25
X60.484Y-199.75
X60.6Y-28.1
X60.6Y-89.6
X60.6Y-151.1
X60.6Y-212.6
X60.7Y-33.3
X60.7Y-94.8
X60.7Y-156.3
X60.7Y-217.8
X61.1Y-49.6
X61.1Y-111.1
X61.1Y-172.6
X61.1Y-234.1
X61.271Y-15.25
X61.271Y-76.75
X61.271Y-138.25
X61.271Y-199.75
X61.6Y-28.2
X61.6Y-89.7
X61.6Y-151.2
X61.6Y-212.7
X61.7Y-23.1
X61.7Y-84.6
X61.7Y-146.1
X61.7Y-207.6
X61.9Y-23.8
X61.9Y-42.2
X61.9Y-85.3
X61.9Y-103.7
X61.9Y-146.8
X61.9Y-165.2
X61.9Y-208.3
X61.9Y-226.7
X62.058Y-15.25
X62.058Y-76.75
X62.058Y-138.25
X62.058Y-199.75
X62.2Y-26.3
X62.2Y-87.8
X62.2Y-149.3
X62.2Y-210.8
X62.5Y-44.7
X62.5Y-106.2
X62.5Y-167.7
X62.5Y-229.2
X62.845Y-15.25
X62.845Y-76.75
X62.845Y-138.25
X62.845Y-199.75
X63.1Y-40.2
X63.1Y-101.7
X63.1Y-163.2
X63.1Y-224.7
X63.3Y-22.7
X63.3Y-52.0
X63.3Y-84.2
X63.3Y-113.5
X63.3Y-145.7
X63.3Y-175.0
X63.3Y-207.2
X63.3Y-236.5
X63.6Y-31.8
X63.6Y-52.8
X63.6Y-93.3
X63.6Y-114.3
X63.6Y-154.8
X63.6Y-175.8
X63.6Y-216.3
X63.6Y-237.3
X63.632Y-15.25
X63.632Y-76.75
X63.632Y-138.25
X63.632Y-199.75
X64.2Y-55.1
X64.2Y-116.6
X64.2Y-178.1
X64.2Y-239.6
X64.418Y-15.25
X64.418Y-76.75
X64.418Y-138.25
X64.418Y-199.75
X64.48Y-30.18
X64.48Y-91.68
X64.48Y-153.18
X64.48Y-214.68
X64.5Y-25.7
X64.5Y-87.2
X64.5Y-148.7
X64.5Y-210.2
X64.579Y-50.188
X64.579Y-111.688
X64.579Y-173.188
X64.579Y-234.688
X65.0Y-32.7
X65.0Y-33.4
X65.0Y-52.6
X65.0Y-94.2
X65.0Y-94.9
X65.0Y-114.1
X65.0Y-155.7
X65.0Y-156.4
X65.0Y-175.6
X65.0Y-217.2
X65.0Y-217.9
X65.0Y-237.1
X65.205Y-15.25
X65.205Y-76.75
X65.205Y-138.25
X65.205Y-199.75
X65.4Y-30.2
X65.4Y-91.7
X65.4Y-153.2
X65.4Y-214.7
X65.992Y-15.25
X65.992Y-76.75
X65.992Y-138.25
X65.992Y-199.75
X66.1Y-48.6
X66.1Y-110.1
X66.1Y-171.6
X66.1Y-233.1
X66.2Y-25.7
X66.2Y-30.2
X66.2Y-87.2
X66.2Y-91.7
X66.2Y-148.7
X66.2Y-153.2
X66.2Y-210.2
X66.2Y-214.7
X66.779Y-15.25
X66.779Y-76.75
X66.779Y-138.25
X66.779Y-199.75
X66.9Y-48.6
X66.9Y-110.1
X66.9Y-171.6
X66.9Y-233.1
X67.2Y-32.6
X67.2Y-94.1
X67.2Y-155.6
X67.2Y-217.1
X67.566Y-15.25
X67.566Y-76.75
X67.566Y-138.25
X67.566Y-199.75
X67.6Y-53.0
X67.6Y-114.5
X67.6Y-176.0
X67.6Y-237.5
X67.734Y-50.023
X67.734Y-111.523
X67.734Y-173.023
X67.734Y-234.523
X68.353Y-15.25
X68.353Y-76.75
X68.353Y-138.25
X68.353Y-199.75
X68.8Y-51.5
X68.8Y-113.0
X68.8Y-174.5
X68.8Y-236.0
X69.139Y-15.25
X69.139Y-76.75
X69.139Y-138.25
X69.139Y-199.75
X69.2Y-32.7
X69.2Y-94.2
X69.2Y-155.7
X69.2Y-217.2
X69.4Y-51.3
X69.4Y-112.8
X69.4Y-174.3
X69.4Y-235.8
X69.5Y-25.3
X69.5Y-86.8
X69.5Y-148.3
X69.5Y-209.8
X69.7Y-21.0
X69.7Y-82.5
X69.7Y-144.0
X69.7Y-205.5
X69.926Y-15.25
X69.926Y-76.75
X69.926Y-138.25
X69.926Y-199.75
X70.2Y-39.7
X70.2Y-40.4
X70.2Y-101.2
X70.2Y-101.9
X70.2Y-162.7
X70.2Y-163.4
X70.2Y-224.2
X70.2Y-224.9
X70.3Y-50.8
X70.3Y-112.3
X70.3Y-173.8
X70.3Y-235.3
X70.713Y-15.25
X70.713Y-76.75
X70.713Y-138.25
X70.713Y-199.75
T2
X64.75Y-26.625
X64.75Y-27.825
X64.75Y-29.025
X64.75Y-88.125
X64.75Y-89.325
X64.75Y-90.525
X64.75Y-149.625
X64.75Y-150.825
X64.75Y-152.025
X64.75Y-211.125
X64.75Y-212.325
X64.75Y-213.525
X65.35Y-45.025
X65.35Y-46.225
X65.35Y-47.425
X65.35Y-106.525
X65.35Y-107.725
X65.35Y-108.925
X65.35Y-168.025
X65.35Y-169.225
X65.35Y-170.425
X65.35Y-229.525
X65.35Y-230.725
X65.35Y-231.925
X66.15Y-26.625
X66.15Y-27.825
X66.15Y-29.025
X66.15Y-88.125
X66.15Y-89.325
X66.15Y-90.525
X66.15Y-149.625
X66.15Y-150.825
X66.15Y-152.025
X66.15Y-211.125
X66.15Y-212.325
X66.15Y-213.525
X66.75Y-45.025
X66.75Y-46.225
X66.75Y-47.425
X66.75Y-106.525
X66.75Y-107.725
X66.75Y-108.925
X66.75Y-168.025
X66.75Y-169.225
X66.75Y-170.425
X66.75Y-229.525
X66.75Y-230.725
X66.75Y-231.925
T3
X14.286Y-16.117
X14.286Y-77.617
X14.286Y-139.117
X14.286Y-200.617
X16.3Y-15.6
X16.3Y-77.1
X16.3Y-138.6
X16.3Y-200.1
X21.57Y-17.1
X21.57Y-78.6
X21.57Y-140.1
X21.57Y-201.6
X22.1Y-15.6
X22.1Y-77.1
X22.1Y-138.6
X22.1Y-200.1
X22.2Y-49.1
X22.2Y-110.6
X22.2Y-172.1
X22.2Y-233.6
X23.57Y-22.0
X23.57Y-83.5
X23.57Y-145.0
X23.57Y-206.5
X25.07Y-22.0
X25.07Y-83.5
X25.07Y-145.0
X25.07Y-206.5
X25.1Y-35.426
X25.1Y-96.926
X25.1Y-158.427
X25.1Y-219.926
X25.5Y-26.9
X25.5Y-88.4
X25.5Y-149.9
X25.5Y-211.4
X31.07Y-43.6
X31.07Y-105.1
X31.07Y-166.6
X31.07Y-228.1
X36.0Y-18.4
X36.0Y-79.9
X36.0Y-141.4
X36.0Y-202.9
X40.8Y-20.4
X40.8Y-81.9
X40.8Y-143.4
X40.8Y-204.9
X40.9Y-47.7
X40.9Y-109.2
X40.9Y-170.7
X40.9Y-232.2
X45.9Y-15.4
X45.9Y-76.9
X45.9Y-138.4
X45.9Y-199.9
X48.9Y-18.27
X48.9Y-26.9
X48.9Y-79.77
X48.9Y-88.4
X48.9Y-141.27
X48.9Y-149.9
X48.9Y-202.77
X48.9Y-211.4
X52.3Y-24.2
X52.3Y-85.7
X52.3Y-147.2
X52.3Y-208.7
X63.1Y-21.8
X63.1Y-83.3
X63.1Y-144.8
X63.1Y-206.3
X69.7Y-21.8
X69.7Y-83.3
X69.7Y-144.8
X69.7Y-206.3
T4
X21.72Y-9.116
X21.72Y-70.616
X21.72Y-132.116
X21.72Y-193.616
X25.6Y-15.548
X25.6Y-77.048
X25.6Y-138.548
X25.6Y-200.048
X30.1Y-33.7
X30.1Y-95.2
X30.1Y-156.7
X30.1Y-218.2
X31.5Y-58.3
X31.5Y-119.8
X31.5Y-181.3
X31.5Y-242.8
X31.6Y-50.7
X31.6Y-112.2
X31.6Y-173.7
X31.6Y-235.2
X31.829Y-9.319
X31.829Y-70.819
X31.829Y-132.319
X31.829Y-193.819
X33.0Y-51.6
X33.0Y-113.1
X33.0Y-174.6
X33.0Y-236.1
X33.1Y-59.6
X33.1Y-121.1
X33.1Y-182.6
X33.1Y-244.1
X36.96Y-9.319
X36.96Y-70.819
X36.96Y-132.319
X36.96Y-193.819
X37.8Y-54.1
X37.8Y-55.4
X37.8Y-115.6
X37.8Y-116.9
X37.8Y-177.1
X37.8Y-178.4
X37.8Y-238.6
X37.8Y-239.9
X44.732Y-14.856
X44.732Y-76.356
X44.732Y-137.856
X44.732Y-199.356
X51.997Y-9.014
X51.997Y-70.514
X51.997Y-132.014
X51.997Y-193.514
X53.6Y-23.1
X53.6Y-84.6
X53.6Y-146.1
X53.6Y-207.6
X57.28Y-9.319
X57.28Y-70.819
X57.28Y-132.319
X57.28Y-193.819
X57.3Y-45.1
X57.3Y-106.6
X57.3Y-168.1
X57.3Y-229.6
X58.3Y-40.1
X58.3Y-101.6
X58.3Y-163.1
X58.3Y-224.6
X58.6Y-37.8
X58.6Y-99.3
X58.6Y-160.8
X58.6Y-222.3
X58.8Y-50.1
X58.8Y-111.6
X58.8Y-173.1
X58.8Y-234.6
X61.3Y-37.8
X61.3Y-99.3
X61.3Y-160.8
X61.3Y-222.3
X62.512Y-12.774
X62.512Y-74.274
X62.512Y-135.774
X62.512Y-197.274
X62.6Y-37.8
X62.6Y-99.3
X62.6Y-160.8
X62.6Y-222.3
X64.2Y-39.6
X64.2Y-101.1
X64.2Y-162.6
X64.2Y-224.1
X64.9Y-48.8
X64.9Y-110.3
X64.9Y-171.8
X64.9Y-233.3
T5
X16.67Y-9.05
X16.67Y-70.55
X16.67Y-132.05
X16.67Y-193.55
X19.18Y-9.116
X19.18Y-70.616
X19.18Y-132.116
X19.18Y-193.616
X24.27Y-49.2
X24.27Y-110.7
X24.27Y-172.2
X24.27Y-233.7
X25.7Y-48.9
X25.7Y-110.4
X25.7Y-171.9
X25.7Y-233.4
X27.2Y-48.9
X27.2Y-110.4
X27.2Y-171.9
X27.2Y-233.4
X31.3Y-48.9
X31.3Y-110.4
X31.3Y-171.9
X31.3Y-233.4
X32.9Y-48.9
X32.9Y-110.4
X32.9Y-171.9
X32.9Y-233.4
X33.3Y-21.4
X33.3Y-23.3
X33.3Y-82.9
X33.3Y-84.8
X33.3Y-144.4
X33.3Y-146.3
X33.3Y-205.9
X33.3Y-207.8
X34.7Y-48.4
X34.7Y-109.9
X34.7Y-171.4
X34.7Y-232.9
X51.1Y-26.9
X51.1Y-88.4
X51.1Y-149.9
X51.1Y-211.4
X52.725Y-26.875
X52.725Y-88.375
X52.725Y-149.875
X52.725Y-211.375
X54.225Y-26.875
X54.225Y-88.375
X54.225Y-149.875
X54.225Y-211.375
X55.1Y-20.5
X55.1Y-82.0
X55.1Y-143.5
X55.1Y-205.0
X56.425Y-20.575
X56.425Y-82.075
X56.425Y-143.575
X56.425Y-205.075
X58.1Y-18.8
X58.1Y-80.3
X58.1Y-141.8
X58.1Y-203.3
X59.9Y-18.8
X59.9Y-80.3
X59.9Y-141.8
X59.9Y-203.3
X61.4Y-18.8
X61.4Y-80.3
X61.4Y-141.8
X61.4Y-203.3
X61.448Y-25.1
X61.448Y-86.6
X61.448Y-148.1
X61.448Y-209.6
X61.6Y-43.3
X61.6Y-104.8
X61.6Y-166.3
X61.6Y-227.8
X63.5Y-24.7
X63.5Y-86.2
X63.5Y-147.7
X63.5Y-209.2
X64.2Y-43.2
X64.2Y-104.7
X64.2Y-166.2
X64.2Y-227.7
X66.2Y-24.7
X66.2Y-86.2
X66.2Y-147.7
X66.2Y-209.2
X66.8Y-43.2
X66.8Y-104.7
X66.8Y-166.2
X66.8Y-227.7
X69.3Y-27.2
X69.3Y-88.7
X69.3Y-150.2
X69.3Y-211.7
X69.9Y-45.6
X69.9Y-107.1
X69.9Y-168.6
X69.9Y-230.1
T6
X12.0Y-32.045
X12.0Y-34.585
X12.0Y-37.125
X12.0Y-39.665
X12.0Y-42.205
X12.0Y-44.745
X12.0Y-52.365
X12.0Y-54.905
X12.0Y-93.545
X12.0Y-96.085
X12.0Y-98.625
X12.0Y-101.165
X12.0Y-103.705
X12.0Y-106.245
X12.0Y-113.865
X12.0Y-116.405
X12.0Y-155.045
X12.0Y-157.585
X12.0Y-160.125
X12.0Y-162.665
X12.0Y-165.205
X12.0Y-167.745
X12.0Y-175.365
X12.0Y-177.905
X12.0Y-216.545
X12.0Y-219.085
X12.0Y-221.625
X12.0Y-224.165
X12.0Y-226.705
X12.0Y-229.245
X12.0Y-236.865
X12.0Y-239.405
X14.54Y-32.045
X14.54Y-34.585
X14.54Y-37.125
X14.54Y-39.665
X14.54Y-42.205
X14.54Y-44.745
X14.54Y-52.365
X14.54Y-54.905
X14.54Y-93.545
X14.54Y-96.085
X14.54Y-98.625
X14.54Y-101.165
X14.54Y-103.705
X14.54Y-106.245
X14.54Y-113.865
X14.54Y-116.405
X14.54Y-155.045
X14.54Y-157.585
X14.54Y-160.125
X14.54Y-162.665
X14.54Y-165.205
X14.54Y-167.745
X14.54Y-175.365
X14.54Y-177.905
X14.54Y-216.545
X14.54Y-219.085
X14.54Y-221.625
X14.54Y-224.165
X14.54Y-226.705
X14.54Y-229.245
X14.54Y-236.865
X14.54Y-239.405
X20.15Y-46.3
X20.15Y-107.8
X20.15Y-169.3
X20.15Y-230.8
X25.45Y-46.3
X25.45Y-107.8
X25.45Y-169.3
X25.45Y-230.8
X32.95Y-46.255
X32.95Y-107.755
X32.95Y-169.255
X32.95Y-230.755
X38.25Y-46.255
X38.25Y-107.755
X38.25Y-169.255
X38.25Y-230.755
X45.75Y-46.255
X45.75Y-107.755
X45.75Y-169.255
X45.75Y-230.755
X51.05Y-46.255
X51.05Y-107.755
X51.05Y-169.255
X51.05Y-230.755
X56.5Y-29.5
X56.5Y-32.04
X56.5Y-91.0
X56.5Y-93.54
X56.5Y-152.5
X56.5Y-155.04
X56.5Y-214.0
X56.5Y-216.54
X59.04Y-29.5
X59.04Y-32.04
X59.04Y-91.0
X59.04Y-93.54
X59.04Y-152.5
X59.04Y-155.04
X59.04Y-214.0
X59.04Y-216.54
T7
X15.37Y-9.73
X15.37Y-12.27
X15.37Y-71.23
X15.37Y-73.77
X15.37Y-132.73
X15.37Y-135.27
X15.37Y-194.23
X15.37Y-196.77
X17.91Y-9.73
X17.91Y-12.27
X17.91Y-71.23
X17.91Y-73.77
X17.91Y-132.73
X17.91Y-135.27
X17.91Y-194.23
X17.91Y-196.77
X20.45Y-9.73
X20.45Y-12.27
X20.45Y-71.23
X20.45Y-73.77
X20.45Y-132.73
X20.45Y-135.27
X20.45Y-194.23
X20.45Y-196.77
X22.99Y-9.73
X22.99Y-12.27
X22.99Y-71.23
X22.99Y-73.77
X22.99Y-132.73
X22.99Y-135.27
X22.99Y-194.23
X22.99Y-196.77
X25.53Y-9.73
X25.53Y-12.27
X25.53Y-71.23
X25.53Y-73.77
X25.53Y-132.73
X25.53Y-135.27
X25.53Y-194.23
X25.53Y-196.77
X28.07Y-9.73
X28.07Y-12.27
X28.07Y-71.23
X28.07Y-73.77
X28.07Y-132.73
X28.07Y-135.27
X28.07Y-194.23
X28.07Y-196.77
X30.61Y-9.73
X30.61Y-12.27
X30.61Y-71.23
X30.61Y-73.77
X30.61Y-132.73
X30.61Y-135.27
X30.61Y-194.23
X30.61Y-196.77
X33.15Y-9.73
X33.15Y-12.27
X33.15Y-71.23
X33.15Y-73.77
X33.15Y-132.73
X33.15Y-135.27
X33.15Y-194.23
X33.15Y-196.77
X35.69Y-9.73
X35.69Y-12.27
X35.69Y-71.23
X35.69Y-73.77
X35.69Y-132.73
X35.69Y-135.27
X35.69Y-194.23
X35.69Y-196.77
X38.23Y-9.73
X38.23Y-12.27
X38.23Y-71.23
X38.23Y-73.77
X38.23Y-132.73
X38.23Y-135.27
X38.23Y-194.23
X38.23Y-196.77
X40.77Y-9.73
X40.77Y-12.27
X40.77Y-71.23
X40.77Y-73.77
X40.77Y-132.73
X40.77Y-135.27
X40.77Y-194.23
X40.77Y-196.77
X43.31Y-9.73
X43.31Y-12.27
X43.31Y-71.23
X43.31Y-73.77
X43.31Y-132.73
X43.31Y-135.27
X43.31Y-194.23
X43.31Y-196.77
X45.85Y-9.73
X45.85Y-12.27
X45.85Y-71.23
X45.85Y-73.77
X45.85Y-132.73
X45.85Y-135.27
X45.85Y-194.23
X45.85Y-196.77
X48.39Y-9.73
X48.39Y-12.27
X48.39Y-71.23
X48.39Y-73.77
X48.39Y-132.73
X48.39Y-135.27
X48.39Y-194.23
X48.39Y-196.77
X50.93Y-9.73
X50.93Y-12.27
X50.93Y-71.23
X50.93Y-73.77
X50.93Y-132.73
X50.93Y-135.27
X50.93Y-194.23
X50.93Y-196.77
X53.47Y-9.73
X53.47Y-12.27
X53.47Y-71.23
X53.47Y-73.77
X53.47Y-132.73
X53.47Y-135.27
X53.47Y-194.23
X53.47Y-196.77
X56.01Y-9.73
X56.01Y-12.27
X56.01Y-71.23
X56.01Y-73.77
X56.01Y-132.73
X56.01Y-135.27
X56.01Y-194.23
X56.01Y-196.77
X58.55Y-9.73
X58.55Y-12.27
X58.55Y-71.23
X58.55Y-73.77
X58.55Y-132.73
X58.55Y-135.27
X58.55Y-194.23
X58.55Y-196.77
X61.09Y-9.73
X61.09Y-12.27
X61.09Y-71.23
X61.09Y-73.77
X61.09Y-132.73
X61.09Y-135.27
X61.09Y-194.23
X61.09Y-196.77
X63.63Y-9.73
X63.63Y-12.27
X63.63Y-71.23
X63.63Y-73.77
X63.63Y-132.73
X63.63Y-135.27
X63.63Y-194.23
X63.63Y-196.77
T8
X20.25Y-54.967
X20.25Y-116.468
X20.25Y-177.968
X20.25Y-239.468
X24.06Y-54.967
X24.06Y-116.468
X24.06Y-177.968
X24.06Y-239.468
X58.15Y-55.067
X58.15Y-116.567
X58.15Y-178.067
X58.15Y-239.567
X61.96Y-55.067
X61.96Y-116.567
X61.96Y-178.067
X61.96Y-239.567
T9
X2.5Y-2.5
X2.5Y-252.5
X76.5Y-2.5
X76.5Y-252.5
T10
X16.64Y-11.0
X16.64Y-72.5
X16.64Y-134.0
X16.64Y-195.5
X62.36Y-11.0
X62.36Y-72.5
X62.36Y-134.0
X62.36Y-195.5
T11
X10.5Y-11.0
X10.5Y-60.0
X10.5Y-72.5
X10.5Y-121.5
X10.5Y-134.0
X10.5Y-183.0
X10.5Y-195.5
X10.5Y-244.5
X68.5Y-11.0
X68.5Y-60.0
X68.5Y-72.5
X68.5Y-121.5
X68.5Y-134.0
X68.5Y-183.0
X68.5Y-195.5
X68.5Y-244.5
M30
