G04 #@! TF.GenerationSoftware,KiCad,Pcbnew,(6.0.10-0)*
G04 #@! TF.CreationDate,2023-02-15T19:17:08+02:00*
G04 #@! TF.ProjectId,SH-RPi-panel,53482d52-5069-42d7-9061-6e656c2e6b69,v2.0.0*
G04 #@! TF.SameCoordinates,Original*
G04 #@! TF.FileFunction,Profile,NP*
%FSLAX46Y46*%
G04 Gerber Fmt 4.6, Leading zero omitted, Abs format (unit mm)*
G04 Created by KiCad (PCBNEW (6.0.10-0)) date 2023-02-15 19:17:08*
%MOMM*%
%LPD*%
G01*
G04 APERTURE LIST*
G04 #@! TA.AperFunction,Profile*
%ADD10C,0.100000*%
G04 #@! TD*
G04 #@! TA.AperFunction,Profile*
%ADD11C,0.400000*%
G04 #@! TD*
%ADD12C,0.400000*%
G04 APERTURE END LIST*
D10*
X69591674Y-124940776D02*
X69615988Y-124935780D01*
X143957368Y-120702619D02*
X143970328Y-120749450D01*
X7371214Y-70055099D02*
X7371094Y-70055322D01*
X7635520Y-62345937D02*
X7635678Y-62346136D01*
X71267781Y-69536482D02*
X71182871Y-69442499D01*
X137019025Y-125796861D02*
X137029671Y-125749450D01*
X8690100Y-7301405D02*
X8667814Y-7312337D01*
X81904946Y-64066721D02*
X81924637Y-64111144D01*
X70466603Y-124616738D02*
X70466823Y-124616613D01*
X76883099Y-72976681D02*
X76859148Y-73018960D01*
X8667814Y-68812337D02*
X8667588Y-68812451D01*
X81599740Y-5194826D02*
X81638047Y-5224721D01*
X81560012Y-126833152D02*
X81518960Y-126859148D01*
X8402530Y-63038961D02*
X8402743Y-63039098D01*
X67796861Y-6980974D02*
X67749450Y-6970328D01*
X139591425Y-124940824D02*
X139591674Y-124940776D01*
X141075677Y-69334402D02*
X141057686Y-69317301D01*
X142042631Y-120702619D02*
X142057874Y-120656480D01*
X5042631Y-59202619D02*
X5057874Y-59156480D01*
X6107036Y-73495229D02*
X6058576Y-73498804D01*
X140703436Y-124469119D02*
X140723809Y-124454939D01*
X137004770Y-5892963D02*
X137010718Y-5844737D01*
X81980974Y-126203138D02*
X81970328Y-126250549D01*
X71539098Y-69902743D02*
X71538961Y-69902530D01*
X81805173Y-63900259D02*
X81833152Y-63939987D01*
X137010718Y-126155262D02*
X137004770Y-126107036D01*
X143924637Y-72888855D02*
X143904946Y-72933278D01*
X76638047Y-11775278D02*
X76599740Y-11805173D01*
X77447640Y-69924025D02*
X77383386Y-70033176D01*
X11805173Y-6599740D02*
X11775278Y-6638047D01*
X201Y-8344D02*
X129Y-8830D01*
X143995229Y-126107036D02*
X143989281Y-126155262D01*
X138993666Y-63500000D02*
X138993792Y-63499999D01*
X5439987Y-73333152D02*
X5400259Y-73305173D01*
X142892963Y-11995229D02*
X142844737Y-11989281D01*
X140597256Y-124539098D02*
X140597469Y-124538961D01*
X72656480Y-11942125D02*
X72611144Y-11924637D01*
X6476681Y-58616900D02*
X6518960Y-58640851D01*
X79408325Y-68559223D02*
X79384011Y-68564219D01*
X76388855Y-11924637D02*
X76343519Y-11942125D01*
X77191351Y-123053443D02*
X77191442Y-123053680D01*
X137194826Y-68099740D02*
X137166847Y-68060012D01*
X137010718Y-64344737D02*
X137019025Y-64296861D01*
X137325158Y-125256460D02*
X137361952Y-125224721D01*
X81710033Y-6710033D02*
X81674841Y-6743539D01*
X77834579Y-62575858D02*
X77924141Y-62665420D01*
X76058576Y-11998804D02*
X76009877Y-12000000D01*
X67400259Y-125194826D02*
X67439987Y-125166847D01*
X142075362Y-59111144D02*
X142095053Y-59066721D01*
X8424025Y-124552359D02*
X8533176Y-124616613D01*
X80006333Y-125000000D02*
X81009877Y-125000000D01*
X76989281Y-59344737D02*
X76995229Y-59392963D01*
X8946319Y-7191442D02*
X8828696Y-7238427D01*
X140444677Y-124628905D02*
X140444900Y-124628785D01*
X72075362Y-72888855D02*
X72057874Y-72843519D01*
X67004770Y-5892963D02*
X67010718Y-5844737D01*
X141900812Y-9236107D02*
X141900746Y-9235862D01*
X143957368Y-126297380D02*
X143942125Y-126343519D01*
X141808557Y-8946319D02*
X141761572Y-8828696D01*
X67000000Y-67509877D02*
X67000000Y-64490122D01*
X137892963Y-6995229D02*
X137844737Y-6989281D01*
X7000000Y-10006207D02*
X7000000Y-10006333D01*
X137000000Y-64490122D02*
X137001195Y-64441423D01*
X143599740Y-11805173D02*
X143560012Y-11833152D01*
X70944493Y-7715882D02*
X70944299Y-7715719D01*
X140053443Y-68691351D02*
X140030166Y-68682731D01*
X71057500Y-124182871D02*
X71057686Y-124182698D01*
X72289966Y-11710033D02*
X72256460Y-11674841D01*
X72000000Y-60493666D02*
X72000000Y-59490122D01*
X81599740Y-6805173D02*
X81560012Y-6833152D01*
X6998804Y-59441423D02*
X7000000Y-59490122D01*
X8296773Y-62969261D02*
X8402530Y-63038961D01*
X7014430Y-122290873D02*
X7014452Y-122291125D01*
X6998804Y-120941423D02*
X7000000Y-120990122D01*
X140963517Y-69232218D02*
X140963327Y-69232050D01*
X139910076Y-7141679D02*
X139909836Y-7141600D01*
X8946556Y-7191351D02*
X8946319Y-7191442D01*
X9684179Y-7016963D02*
X9683928Y-7016992D01*
X76388855Y-120075362D02*
X76433278Y-120095053D01*
X76203138Y-73480974D02*
X76155262Y-73489281D01*
X2811Y-3159D02*
X2482Y-3522D01*
X142140851Y-120481039D02*
X142166847Y-120439987D01*
X9114090Y-68634097D02*
X9113847Y-68634169D01*
X139885909Y-68634097D02*
X139764137Y-68599253D01*
X6674841Y-11743539D02*
X6638047Y-11775278D01*
X137702619Y-126957368D02*
X137656480Y-126942125D01*
X71983036Y-9684179D02*
X71983007Y-9683928D01*
X137523318Y-63616900D02*
X137566721Y-63595053D01*
X72844737Y-58510718D02*
X72892963Y-58504770D01*
X139764137Y-7099253D02*
X139763892Y-7099187D01*
X138993666Y-68500000D02*
X137990122Y-68500000D01*
X7301297Y-8690328D02*
X7248415Y-8805421D01*
X137166847Y-126560012D02*
X137140851Y-126518960D01*
X69910076Y-63358320D02*
X70029928Y-63317353D01*
X72523318Y-73383099D02*
X72481039Y-73359148D01*
X67001195Y-5941423D02*
X67004770Y-5892963D01*
X71628785Y-123444900D02*
X71628905Y-123444677D01*
X80006207Y-63499999D02*
X80006333Y-63500000D01*
X7817128Y-62557500D02*
X7817301Y-62557686D01*
X70444900Y-63128785D02*
X70466603Y-63116738D01*
X140724015Y-69045207D02*
X140723809Y-69045060D01*
X7530880Y-62203436D02*
X7545060Y-62223809D01*
X7371214Y-8555099D02*
X7371094Y-8555322D01*
X10006333Y-7000000D02*
X10006207Y-7000000D01*
X70029928Y-63317353D02*
X70030166Y-63317268D01*
X5361952Y-73275278D02*
X5325158Y-73243539D01*
X71900746Y-61264137D02*
X71900812Y-61263892D01*
X78275984Y-69045207D02*
X78173893Y-69120174D01*
X70826106Y-69120174D02*
X70724015Y-69045207D01*
X76560012Y-58666847D02*
X76599740Y-58694826D01*
X143476681Y-11883099D02*
X143433278Y-11904946D01*
X79684179Y-124983036D02*
X79708874Y-124985547D01*
X141999839Y-60506331D02*
X141999841Y-60506205D01*
X77371214Y-70055099D02*
X77371094Y-70055322D01*
X71996470Y-60639283D02*
X71999839Y-60506331D01*
X72019025Y-59296861D02*
X72029671Y-59249450D01*
X77141679Y-61410076D02*
X77182646Y-61529928D01*
X141865902Y-70614090D02*
X141865830Y-70613847D01*
X137481039Y-68359148D02*
X137439987Y-68333152D01*
X143743539Y-58825158D02*
X143775278Y-58861952D01*
X81009877Y-127000000D02*
X67990122Y-127000000D01*
X72000000Y-11009877D02*
X72000000Y-10006333D01*
X141628905Y-8555322D02*
X141628785Y-8555099D01*
X76710033Y-73210033D02*
X76674841Y-73243539D01*
X141552228Y-123576191D02*
X141552359Y-123575974D01*
X71983007Y-71183928D02*
X71967005Y-71058283D01*
X71364321Y-62346136D02*
X71364479Y-62345937D01*
X77301297Y-123309671D02*
X77301405Y-123309899D01*
X71165597Y-69424322D02*
X71165420Y-69424141D01*
X67439987Y-5166847D02*
X67481039Y-5140851D01*
X7817128Y-69442499D02*
X7732218Y-69536482D01*
X8055506Y-69215882D02*
X8036672Y-69232050D01*
X5796861Y-73480974D02*
X5749450Y-73470328D01*
X141995203Y-71335673D02*
X141995187Y-71335420D01*
X142004770Y-120892963D02*
X142010718Y-120844737D01*
X78970071Y-124817353D02*
X79089923Y-124858320D01*
X137256460Y-5325158D02*
X137289966Y-5289966D01*
X77715719Y-8055700D02*
X77635678Y-8153863D01*
X77099253Y-61264137D02*
X77134097Y-61385909D01*
X67095053Y-5566721D02*
X67116900Y-5523318D01*
X142029671Y-120749450D02*
X142042631Y-120702619D01*
X82000000Y-125990122D02*
X82000000Y-126009877D01*
X76058576Y-120001195D02*
X76107036Y-120004770D01*
X81775278Y-68138047D02*
X81743539Y-68174841D01*
X141995187Y-71335420D02*
X141985569Y-71209126D01*
X139291125Y-68514452D02*
X139290873Y-68514430D01*
X8036482Y-62767781D02*
X8036672Y-62767949D01*
X69615988Y-7064219D02*
X69591674Y-7059223D01*
X7016963Y-60815820D02*
X7016992Y-60816071D01*
X9709126Y-68514430D02*
X9708874Y-68514452D01*
X76638047Y-73275278D02*
X76599740Y-73305173D01*
X67095053Y-67933278D02*
X67075362Y-67888855D01*
X5004770Y-5892963D02*
X5010718Y-5844737D01*
X69886152Y-63365830D02*
X69909836Y-63358399D01*
X77732050Y-62463327D02*
X77732218Y-62463517D01*
X143924637Y-126388855D02*
X143904946Y-126433278D01*
X7248312Y-8805652D02*
X7238524Y-8828462D01*
X7032994Y-9558283D02*
X7016992Y-9683928D01*
X78533176Y-124616613D02*
X78533396Y-124616738D01*
X69316071Y-68516992D02*
X69315820Y-68516963D01*
X9113847Y-124865830D02*
X9114090Y-124865902D01*
X11957368Y-5702619D02*
X11970328Y-5749450D01*
X6998804Y-11058576D02*
X6995229Y-11107036D01*
X70309899Y-68801405D02*
X70309671Y-68801297D01*
X5029671Y-72750549D02*
X5019025Y-72703138D01*
X140724015Y-7545207D02*
X140723809Y-7545060D01*
X143924637Y-59111144D02*
X143942125Y-59156480D01*
X5057874Y-5656480D02*
X5075362Y-5611144D01*
X11203138Y-5019025D02*
X11250549Y-5029671D01*
X67702619Y-63542631D02*
X67749450Y-63529671D01*
X76250549Y-11970328D02*
X76203138Y-11980974D01*
X67140851Y-126518960D02*
X67116900Y-126476681D01*
X139909836Y-68641600D02*
X139886152Y-68634169D01*
X7545060Y-123723809D02*
X7545207Y-123724015D01*
X6980974Y-72703138D02*
X6970328Y-72750549D01*
X5001195Y-5941423D02*
X5004770Y-5892963D01*
X148999918Y-131990681D02*
X148999942Y-131990190D01*
X68993666Y-68500000D02*
X67990122Y-68500000D01*
X141698594Y-70190100D02*
X141687662Y-70167814D01*
X67990122Y-7000000D02*
X67941423Y-6998804D01*
X6560012Y-11833152D02*
X6518960Y-11859148D01*
X7016992Y-71183928D02*
X7016963Y-71184179D01*
X81924637Y-5611144D02*
X81942125Y-5656480D01*
X140963327Y-7732050D02*
X140944493Y-7715882D01*
X7182646Y-70470071D02*
X7141679Y-70589923D01*
X141761572Y-8828696D02*
X141761475Y-8828462D01*
X81859148Y-126518960D02*
X81833152Y-126560012D01*
X70723809Y-69045060D02*
X70703436Y-69030880D01*
X6970328Y-59249450D02*
X6980974Y-59296861D01*
X71999841Y-9993794D02*
X71999839Y-9993668D01*
X142004770Y-72607036D02*
X142001195Y-72558576D01*
X11957368Y-6297380D02*
X11942125Y-6343519D01*
X71165597Y-7924322D02*
X71165420Y-7924141D01*
X71182871Y-7942499D02*
X71182698Y-7942313D01*
X7004812Y-60664579D02*
X7014430Y-60790873D01*
X148999702Y-131992136D02*
X148999798Y-131991655D01*
X77301405Y-123309899D02*
X77312337Y-123332185D01*
X78969833Y-7182731D02*
X78946556Y-7191351D01*
X67523318Y-6883099D02*
X67481039Y-6859148D01*
X9533246Y-7036829D02*
X9408574Y-7059175D01*
X143805173Y-5400259D02*
X143833152Y-5439987D01*
X82000000Y-126009877D02*
X81998804Y-126058576D01*
X11805173Y-63900259D02*
X11833152Y-63939987D01*
X77059175Y-9408574D02*
X77036829Y-9533246D01*
X11859148Y-6518960D02*
X11833152Y-6560012D01*
X8173893Y-124379825D02*
X8275984Y-124454792D01*
X139006331Y-63499839D02*
X139139283Y-63496470D01*
X67844737Y-63510718D02*
X67892963Y-63504770D01*
X142702619Y-11957368D02*
X142656480Y-11942125D01*
X7004796Y-9835673D02*
X7003539Y-9860463D01*
X71995203Y-71335673D02*
X71995187Y-71335420D01*
X67194826Y-63900259D02*
X67224721Y-63861952D01*
X76343519Y-120057874D02*
X76388855Y-120075362D01*
X67000000Y-5990122D02*
X67001195Y-5941423D01*
X69591425Y-124940824D02*
X69591674Y-124940776D01*
X79993668Y-68500160D02*
X79860716Y-68503529D01*
X72566721Y-11904946D02*
X72523318Y-11883099D01*
X76518960Y-11859148D02*
X76476681Y-11883099D01*
X81155262Y-68489281D02*
X81107036Y-68495229D01*
X71808648Y-123053443D02*
X71817268Y-123030166D01*
X78969833Y-68682731D02*
X78946556Y-68691351D01*
X143599740Y-73305173D02*
X143560012Y-73333152D01*
X141057686Y-69317301D02*
X141057500Y-69317128D01*
X76957368Y-72797380D02*
X76942125Y-72843519D01*
X77141600Y-70590163D02*
X77134169Y-70613847D01*
X77461038Y-62097469D02*
X77530738Y-62203226D01*
X11599740Y-68305173D02*
X11560012Y-68333152D01*
X81433278Y-63595053D02*
X81476681Y-63616900D01*
X81942125Y-126343519D02*
X81924637Y-126388855D01*
X137001195Y-125941423D02*
X137004770Y-125892963D01*
X139139536Y-124996460D02*
X139164326Y-124995203D01*
X81970328Y-64249450D02*
X81980974Y-64296861D01*
X71687662Y-61832185D02*
X71698594Y-61809899D01*
X142057874Y-72843519D02*
X142042631Y-72797380D01*
X137224721Y-125361952D02*
X137256460Y-125325158D01*
X11203138Y-68480974D02*
X11155262Y-68489281D01*
X81560012Y-68333152D02*
X81518960Y-68359148D01*
X77000158Y-71493794D02*
X77000000Y-71506207D01*
X141698702Y-61809671D02*
X141751584Y-61694578D01*
X71552359Y-8424025D02*
X71552228Y-8423808D01*
X71865902Y-70614090D02*
X71865830Y-70613847D01*
X148999702Y-7863D02*
X148999583Y-7387D01*
X77099187Y-9236107D02*
X77092965Y-9260136D01*
X81518960Y-126859148D02*
X81476681Y-126883099D01*
X140826106Y-62879825D02*
X140826309Y-62879672D01*
X71999999Y-60493792D02*
X72000000Y-60493666D01*
X69885909Y-7134097D02*
X69764137Y-7099253D01*
X141687548Y-123332411D02*
X141687662Y-123332185D01*
X5796861Y-126980974D02*
X5749450Y-126970328D01*
X77000000Y-121993792D02*
X77000158Y-122006205D01*
X140944299Y-69215719D02*
X140846136Y-69135678D01*
X6518960Y-58640851D02*
X6560012Y-58666847D01*
X141687548Y-61832411D02*
X141687662Y-61832185D01*
X143942125Y-120656480D02*
X143957368Y-120702619D01*
X76980974Y-11203138D02*
X76970328Y-11250549D01*
X559Y-6917D02*
X416Y-7387D01*
X142941423Y-58501195D02*
X142990122Y-58500000D01*
X77036788Y-71033496D02*
X77033029Y-71058032D01*
X139315820Y-68516963D02*
X139291125Y-68514452D01*
X142844737Y-58510718D02*
X142892963Y-58504770D01*
X67749450Y-6970328D02*
X67702619Y-6957368D01*
X69739863Y-124907034D02*
X69763892Y-124900812D01*
X78275984Y-62954792D02*
X78276190Y-62954939D01*
X78402530Y-124538961D02*
X78402743Y-124539098D01*
X142019025Y-72703138D02*
X142010718Y-72655262D01*
X142892963Y-58504770D02*
X142941423Y-58501195D01*
X67116900Y-67976681D02*
X67095053Y-67933278D01*
X11203138Y-6980974D02*
X11155262Y-6989281D01*
X5224721Y-126638047D02*
X5194826Y-126599740D01*
X11638047Y-5224721D02*
X11674841Y-5256460D01*
X9860716Y-124996470D02*
X9993668Y-124999839D01*
X140194578Y-68748415D02*
X140194347Y-68748312D01*
X69291125Y-68514452D02*
X69290873Y-68514430D01*
X143476681Y-5116900D02*
X143518960Y-5140851D01*
X5057874Y-120656480D02*
X5075362Y-120611144D01*
X78276190Y-7545060D02*
X78275984Y-7545207D01*
X81833152Y-68060012D02*
X81805173Y-68099740D01*
X9384011Y-68564219D02*
X9383763Y-68564273D01*
X137702619Y-125042631D02*
X137749450Y-125029671D01*
X138993666Y-125000000D02*
X138993792Y-124999999D01*
X139006331Y-124999839D02*
X139139283Y-124996470D01*
X137029671Y-67750549D02*
X137019025Y-67703138D01*
X69591674Y-68559223D02*
X69591425Y-68559175D01*
X77003539Y-60639536D02*
X77004796Y-60664326D01*
X67749450Y-126970328D02*
X67702619Y-126957368D01*
X7301405Y-123309899D02*
X7312337Y-123332185D01*
X5095053Y-59066721D02*
X5116900Y-59023318D01*
X11970328Y-67750549D02*
X11957368Y-67797380D01*
X5075362Y-72888855D02*
X5057874Y-72843519D01*
X81924637Y-125611144D02*
X81942125Y-125656480D01*
X77301297Y-8690328D02*
X77248415Y-8805421D01*
X76883099Y-59023318D02*
X76904946Y-59066721D01*
X142166847Y-58939987D02*
X142194826Y-58900259D01*
X9235862Y-7099253D02*
X9114090Y-7134097D01*
X78055506Y-69215882D02*
X78036672Y-69232050D01*
X77092904Y-61239617D02*
X77092965Y-61239863D01*
X81859148Y-68018960D02*
X81833152Y-68060012D01*
X7003539Y-122139536D02*
X7004796Y-122164326D01*
X138993792Y-63499999D02*
X139006205Y-63499841D01*
X141165597Y-69424322D02*
X141165420Y-69424141D01*
X77312451Y-123332411D02*
X77371094Y-123444677D01*
X77942499Y-124182871D02*
X78036482Y-124267781D01*
X7003529Y-60639283D02*
X7003539Y-60639536D01*
X77635520Y-69654062D02*
X77620327Y-69673690D01*
X81638047Y-126775278D02*
X81599740Y-126805173D01*
X141985569Y-9709126D02*
X141985547Y-9708874D01*
X7033029Y-60941967D02*
X7036788Y-60966503D01*
X141469119Y-62203436D02*
X141469261Y-62203226D01*
X6388855Y-58575362D02*
X6433278Y-58595053D01*
X139315820Y-124983036D02*
X139316071Y-124983007D01*
X141999839Y-9993668D02*
X141996470Y-9860716D01*
X5140851Y-11518960D02*
X5116900Y-11476681D01*
X141935780Y-9384011D02*
X141935726Y-9383763D01*
X137042631Y-126297380D02*
X137029671Y-126250549D01*
X5019025Y-59296861D02*
X5029671Y-59249450D01*
X81433278Y-68404946D02*
X81388855Y-68424637D01*
X70053443Y-124808648D02*
X70053680Y-124808557D01*
X140845937Y-62864479D02*
X140846136Y-62864321D01*
X141267949Y-62463327D02*
X141284117Y-62444493D01*
X9260136Y-63407034D02*
X9260382Y-63407095D01*
X11009877Y-68500000D02*
X10006333Y-68500000D01*
X11638047Y-125224721D02*
X11674841Y-125256460D01*
X69139283Y-7003529D02*
X69006331Y-7000160D01*
X148998121Y-131995703D02*
X148998394Y-131995295D01*
X8805652Y-68748312D02*
X8805421Y-68748415D01*
X70575974Y-7447640D02*
X70466823Y-7383386D01*
X69441967Y-124966970D02*
X69466503Y-124963211D01*
X142523318Y-11883099D02*
X142481039Y-11859148D01*
X8276190Y-7545060D02*
X8275984Y-7545207D01*
X71966970Y-60941967D02*
X71967005Y-60941716D01*
X7301297Y-123309671D02*
X7301405Y-123309899D01*
X8805652Y-124751687D02*
X8828462Y-124761475D01*
X77000000Y-71506207D02*
X77000000Y-71506333D01*
X143998804Y-59441423D02*
X144000000Y-59490122D01*
X8173893Y-62879825D02*
X8275984Y-62954792D01*
X77545207Y-69775984D02*
X77545060Y-69776190D01*
X71469119Y-69796563D02*
X71454939Y-69776190D01*
X140029928Y-68682646D02*
X139910076Y-68641679D01*
X77003529Y-122139283D02*
X77003539Y-122139536D01*
X139466503Y-7036788D02*
X139441967Y-7033029D01*
X79708874Y-124985547D02*
X79709126Y-124985569D01*
X70194578Y-124751584D02*
X70309671Y-124698702D01*
X140846136Y-62864321D02*
X140944299Y-62784280D01*
X76743539Y-11674841D02*
X76710033Y-11710033D01*
X142325158Y-73243539D02*
X142289966Y-73210033D01*
X143343519Y-11942125D02*
X143297380Y-11957368D01*
X141999999Y-71506207D02*
X141999841Y-71493794D01*
X76476681Y-11883099D02*
X76433278Y-11904946D01*
X72749450Y-11970328D02*
X72702619Y-11957368D01*
X70826309Y-7620327D02*
X70826106Y-7620174D01*
X79993668Y-7000160D02*
X79860716Y-7003529D01*
X139591425Y-68559175D02*
X139466753Y-68536829D01*
X8805652Y-7248312D02*
X8805421Y-7248415D01*
X140171303Y-7238427D02*
X140053680Y-7191442D01*
X137224721Y-6638047D02*
X137194826Y-6599740D01*
X81980974Y-67703138D02*
X81970328Y-67750549D01*
X77141679Y-9089923D02*
X77141600Y-9090163D01*
X79533496Y-68536788D02*
X79533246Y-68536829D01*
X137702619Y-68457368D02*
X137656480Y-68442125D01*
X9709126Y-63485569D02*
X9835420Y-63495187D01*
X7301297Y-61809671D02*
X7301405Y-61809899D01*
X7238524Y-123171537D02*
X7248312Y-123194347D01*
X143155262Y-126989281D02*
X143107036Y-126995229D01*
X140053443Y-7191351D02*
X140030166Y-7182731D01*
X69764137Y-7099253D02*
X69763892Y-7099187D01*
X81107036Y-68495229D02*
X81058576Y-68498804D01*
X141858399Y-9090163D02*
X141858320Y-9089923D01*
X77371094Y-70055322D02*
X77312451Y-70167588D01*
X11995229Y-67607036D02*
X11989281Y-67655262D01*
X71999839Y-122006331D02*
X71999841Y-122006205D01*
X67941423Y-63501195D02*
X67990122Y-63500000D01*
X77141600Y-122909836D02*
X77141679Y-122910076D01*
X141983007Y-9683928D02*
X141967005Y-9558283D01*
X6957368Y-120702619D02*
X6970328Y-120749450D01*
X139290873Y-7014430D02*
X139164579Y-7004812D01*
X71999839Y-9993668D02*
X71996470Y-9860716D01*
X141751584Y-8805421D02*
X141698702Y-8690328D01*
X141963211Y-71033496D02*
X141963170Y-71033246D01*
X67400259Y-68305173D02*
X67361952Y-68275278D01*
X142004770Y-59392963D02*
X142010718Y-59344737D01*
X69441967Y-7033029D02*
X69441716Y-7032994D01*
X7000158Y-60506205D02*
X7000160Y-60506331D01*
X6883099Y-120523318D02*
X6904946Y-120566721D01*
X67400259Y-126805173D02*
X67361952Y-126775278D01*
X141454939Y-62223809D02*
X141469119Y-62203436D01*
X141865902Y-122885909D02*
X141900746Y-122764137D01*
X6980974Y-59296861D02*
X6989281Y-59344737D01*
X77099253Y-9235862D02*
X77099187Y-9236107D01*
X11343519Y-68442125D02*
X11297380Y-68457368D01*
X81203138Y-126980974D02*
X81155262Y-126989281D01*
X72224721Y-11638047D02*
X72194826Y-11599740D01*
X67844737Y-126989281D02*
X67796861Y-126980974D01*
X140171537Y-68738524D02*
X140171303Y-68738427D01*
X141698594Y-8690100D02*
X141687662Y-8667814D01*
X201Y-131991655D02*
X297Y-131992136D01*
X6343519Y-11942125D02*
X6297380Y-11957368D01*
X81998804Y-126058576D02*
X81995229Y-126107036D01*
X137256460Y-68174841D02*
X137224721Y-68138047D01*
X77238524Y-8828462D02*
X77238427Y-8828696D01*
X70194347Y-124751687D02*
X70194578Y-124751584D01*
X137611144Y-125075362D02*
X137656480Y-125057874D01*
X11833152Y-63939987D02*
X11859148Y-63981039D01*
X70466823Y-63116613D02*
X70575974Y-63052359D01*
X8667588Y-124687548D02*
X8667814Y-124687662D01*
X8173690Y-69120327D02*
X8154062Y-69135520D01*
X141364321Y-62346136D02*
X141364479Y-62345937D01*
X79408574Y-124940824D02*
X79533246Y-124963170D01*
X143203138Y-58519025D02*
X143250549Y-58529671D01*
X81980974Y-5796861D02*
X81989281Y-5844737D01*
X143343519Y-58557874D02*
X143388855Y-58575362D01*
X141751687Y-70305652D02*
X141751584Y-70305421D01*
X71552228Y-62076191D02*
X71552359Y-62075974D01*
X79708874Y-63485547D02*
X79709126Y-63485569D01*
X5057874Y-59156480D02*
X5075362Y-59111144D01*
X81995229Y-67607036D02*
X81989281Y-67655262D01*
X67194826Y-6599740D02*
X67166847Y-6560012D01*
X140963517Y-124267781D02*
X141057500Y-124182871D01*
X78173690Y-7620327D02*
X78154062Y-7635520D01*
X69466503Y-124963211D02*
X69466753Y-124963170D01*
X143674841Y-120256460D02*
X143710033Y-120289966D01*
X71267949Y-69536672D02*
X71267781Y-69536482D01*
X77312337Y-8667814D02*
X77301405Y-8690100D01*
X72325158Y-11743539D02*
X72289966Y-11710033D01*
X81250549Y-5029671D02*
X81297380Y-5042631D01*
X7383386Y-123466823D02*
X7447640Y-123575974D01*
X7092965Y-122739863D02*
X7099187Y-122763892D01*
X139764137Y-63400746D02*
X139885909Y-63365902D01*
X5892963Y-11995229D02*
X5844737Y-11989281D01*
X69885909Y-124865902D02*
X69886152Y-124865830D01*
X67140851Y-6518960D02*
X67116900Y-6476681D01*
X141983007Y-122316071D02*
X141983036Y-122315820D01*
X8555322Y-7371094D02*
X8555099Y-7371214D01*
X77014452Y-9708874D02*
X77014430Y-9709126D01*
X7312337Y-8667814D02*
X7301405Y-8690100D01*
X77003529Y-71360716D02*
X77000160Y-71493668D01*
X78690328Y-68801297D02*
X78690100Y-68801405D01*
X8402530Y-68961038D02*
X8296773Y-69030738D01*
X79089923Y-124858320D02*
X79090163Y-124858399D01*
X7530880Y-69796563D02*
X7530738Y-69796773D01*
X71865902Y-61385909D02*
X71900746Y-61264137D01*
X139164326Y-68504796D02*
X139139536Y-68503539D01*
X6009877Y-120000000D02*
X6058576Y-120001195D01*
X81107036Y-63504770D02*
X81155262Y-63510718D01*
X79383763Y-124935726D02*
X79384011Y-124935780D01*
X71999999Y-10006207D02*
X71999841Y-9993794D01*
X141995203Y-122164326D02*
X141996460Y-122139536D01*
X5256460Y-73174841D02*
X5224721Y-73138047D01*
X6002Y-131999087D02*
X6455Y-131999275D01*
X11560012Y-6833152D02*
X11518960Y-6859148D01*
X137256460Y-6674841D02*
X137224721Y-6638047D01*
X142990122Y-73500000D02*
X142990122Y-73500000D01*
X148990190Y-57D02*
X148987972Y-3D01*
X72166847Y-120439987D02*
X72194826Y-120400259D01*
X76297380Y-120042631D02*
X76343519Y-120057874D01*
X143343519Y-73442125D02*
X143297380Y-73457368D01*
X148994874Y-131998646D02*
X148995295Y-131998394D01*
X70444677Y-63128905D02*
X70444900Y-63128785D01*
X79533246Y-124963170D02*
X79533496Y-124963211D01*
X5656480Y-126942125D02*
X5611144Y-126924637D01*
X80006207Y-7000000D02*
X79993794Y-7000158D01*
X140444900Y-68871214D02*
X140444677Y-68871094D01*
X141907095Y-122739617D02*
X141935726Y-122616236D01*
X6775278Y-73138047D02*
X6743539Y-73174841D01*
X77032994Y-71058283D02*
X77016992Y-71183928D01*
X7715882Y-69555506D02*
X7715719Y-69555700D01*
X70194347Y-68748312D02*
X70171537Y-68738524D01*
X142611144Y-73424637D02*
X142566721Y-73404946D01*
X140826106Y-69120174D02*
X140724015Y-69045207D01*
X70963327Y-7732050D02*
X70944493Y-7715882D01*
X6250549Y-58529671D02*
X6297380Y-58542631D01*
X76970328Y-120749450D02*
X76980974Y-120796861D01*
X139591674Y-63440776D02*
X139615988Y-63435780D01*
X141935726Y-61116236D02*
X141935780Y-61115988D01*
X143599740Y-126805173D02*
X143560012Y-126833152D01*
X81883099Y-5523318D02*
X81904946Y-5566721D01*
X69591674Y-7059223D02*
X69591425Y-7059175D01*
X143009877Y-58500000D02*
X143058576Y-58501195D01*
X71182698Y-69442313D02*
X71165597Y-69424322D01*
X148987972Y-3D02*
X148987727Y0D01*
X77620327Y-62326309D02*
X77635520Y-62345937D01*
X57Y-131990190D02*
X81Y-131990681D01*
X71057686Y-7817301D02*
X71057500Y-7817128D01*
X5941423Y-5001195D02*
X5990122Y-5000000D01*
X71628785Y-61944900D02*
X71628905Y-61944677D01*
X8423808Y-7447771D02*
X8402743Y-7460901D01*
X5702619Y-126957368D02*
X5656480Y-126942125D01*
X67019025Y-125796861D02*
X67029671Y-125749450D01*
X71983036Y-60815820D02*
X71985547Y-60791125D01*
X143155262Y-73489281D02*
X143107036Y-73495229D01*
X81833152Y-6560012D02*
X81805173Y-6599740D01*
X5844737Y-58510718D02*
X5892963Y-58504770D01*
X141698594Y-123309899D02*
X141698702Y-123309671D01*
X11980974Y-6203138D02*
X11970328Y-6250549D01*
X137000000Y-126009877D02*
X137000000Y-125990122D01*
X79408574Y-68559175D02*
X79408325Y-68559223D01*
X81970328Y-67750549D02*
X81957368Y-67797380D01*
X67611144Y-5075362D02*
X67656480Y-5057874D01*
X7530880Y-123703436D02*
X7545060Y-123723809D01*
X6743539Y-58825158D02*
X6775278Y-58861952D01*
X137325158Y-5256460D02*
X137361952Y-5224721D01*
X67116900Y-125523318D02*
X67140851Y-125481039D01*
X77620174Y-62326106D02*
X77620327Y-62326309D01*
X137140851Y-68018960D02*
X137116900Y-67976681D01*
X8424025Y-7447640D02*
X8423808Y-7447771D01*
X141075677Y-124165597D02*
X141075858Y-124165420D01*
X5361952Y-126775278D02*
X5325158Y-126743539D01*
X72325158Y-58756460D02*
X72361952Y-58724721D01*
X69466753Y-63463170D02*
X69591425Y-63440824D01*
X8296773Y-124469261D02*
X8402530Y-124538961D01*
X81297380Y-6957368D02*
X81250549Y-6970328D01*
X9533246Y-124963170D02*
X9533496Y-124963211D01*
X148996840Y-2811D02*
X148996477Y-2482D01*
X11343519Y-6942125D02*
X11297380Y-6957368D01*
X81250549Y-125029671D02*
X81297380Y-125042631D01*
X77182731Y-123030166D02*
X77191351Y-123053443D01*
X7301297Y-70190328D02*
X7248415Y-70305421D01*
X141907095Y-9260382D02*
X141907034Y-9260136D01*
X143942125Y-11343519D02*
X143924637Y-11388855D01*
X9090163Y-7141600D02*
X9089923Y-7141679D01*
X142057874Y-59156480D02*
X142075362Y-59111144D01*
X7635678Y-62346136D02*
X7715719Y-62444299D01*
X77191351Y-70446556D02*
X77182731Y-70469833D01*
X137990122Y-127000000D02*
X137941423Y-126998804D01*
X81998804Y-125941423D02*
X82000000Y-125990122D01*
X9090163Y-68641600D02*
X9089923Y-68641679D01*
X5140851Y-126518960D02*
X5116900Y-126476681D01*
X79558283Y-7032994D02*
X79558032Y-7033029D01*
X140332185Y-63187662D02*
X140332411Y-63187548D01*
X76250549Y-120029671D02*
X76297380Y-120042631D01*
X7004812Y-71335420D02*
X7004796Y-71335673D01*
X143904946Y-5566721D02*
X143924637Y-5611144D01*
X77817301Y-124057686D02*
X77834402Y-124075677D01*
X77036829Y-122466753D02*
X77059175Y-122591425D01*
X9408574Y-124940824D02*
X9533246Y-124963170D01*
X67611144Y-6924637D02*
X67566721Y-6904946D01*
X7863Y-131999702D02*
X8344Y-131999798D01*
X79090163Y-68641600D02*
X79089923Y-68641679D01*
X137439987Y-125166847D02*
X137481039Y-125140851D01*
X148998877Y-5558D02*
X148998646Y-5125D01*
X7238427Y-8828696D02*
X7191442Y-8946319D01*
X141364479Y-69654062D02*
X141364321Y-69653863D01*
X141808648Y-61553443D02*
X141817268Y-61530166D01*
X9090163Y-63358399D02*
X9113847Y-63365830D01*
X78805652Y-63251687D02*
X78828462Y-63261475D01*
X137116900Y-64023318D02*
X137140851Y-63981039D01*
X142400259Y-11805173D02*
X142361952Y-11775278D01*
X69886152Y-7134169D02*
X69885909Y-7134097D01*
X71628905Y-70055322D02*
X71628785Y-70055099D01*
X77092965Y-61239863D02*
X77099187Y-61263892D01*
X70171303Y-63261572D02*
X70171537Y-63261475D01*
X139615988Y-63435780D02*
X139616236Y-63435726D01*
X78173690Y-62879672D02*
X78173893Y-62879825D01*
X141182871Y-69442499D02*
X141182698Y-69442313D01*
X140309671Y-7301297D02*
X140194578Y-7248415D01*
X9235862Y-68599253D02*
X9114090Y-68634097D01*
X81388855Y-63575362D02*
X81433278Y-63595053D01*
X11250549Y-63529671D02*
X11297380Y-63542631D01*
X11433278Y-5095053D02*
X11476681Y-5116900D01*
X76775278Y-58861952D02*
X76805173Y-58900259D01*
X7141679Y-9089923D02*
X7141600Y-9090163D01*
X77732218Y-62463517D02*
X77817128Y-62557500D01*
X143980974Y-120796861D02*
X143989281Y-120844737D01*
X81058576Y-125001195D02*
X81107036Y-125004770D01*
X72000000Y-71506333D02*
X71999999Y-71506207D01*
X137844737Y-5010718D02*
X137892963Y-5004770D01*
X71751584Y-8805421D02*
X71698702Y-8690328D01*
X70030166Y-124817268D02*
X70053443Y-124808648D01*
X7099187Y-122763892D02*
X7099253Y-122764137D01*
X9318Y-131999918D02*
X9809Y-131999942D01*
X71761475Y-8828462D02*
X71751687Y-8805652D01*
X148999870Y-131991169D02*
X148999918Y-131990681D01*
X77033029Y-122441967D02*
X77036788Y-122466503D01*
X5892963Y-5004770D02*
X5941423Y-5001195D01*
X67439987Y-68333152D02*
X67400259Y-68305173D01*
X141379672Y-62326309D02*
X141379825Y-62326106D01*
X1353Y-5125D02*
X1122Y-5558D01*
X11957368Y-125702619D02*
X11970328Y-125749450D01*
X81957368Y-67797380D02*
X81942125Y-67843519D01*
X141628785Y-70055099D02*
X141616738Y-70033396D01*
X77036829Y-60966753D02*
X77059175Y-61091425D01*
X137523318Y-6883099D02*
X137481039Y-6859148D01*
X143107036Y-126995229D02*
X143058576Y-126998804D01*
X137702619Y-63542631D02*
X137749450Y-63529671D01*
X70826309Y-124379672D02*
X70845937Y-124364479D01*
X77003539Y-122139536D02*
X77004796Y-122164326D01*
X67019025Y-64296861D02*
X67029671Y-64249450D01*
X8173893Y-69120174D02*
X8173690Y-69120327D01*
X6599740Y-58694826D02*
X6638047Y-58724721D01*
X7383261Y-61966603D02*
X7383386Y-61966823D01*
X8424025Y-68947640D02*
X8423808Y-68947771D01*
X68993792Y-68500000D02*
X68993666Y-68500000D01*
X72325158Y-73243539D02*
X72289966Y-73210033D01*
X137844737Y-68489281D02*
X137796861Y-68480974D01*
X141967005Y-122441716D02*
X141983007Y-122316071D01*
X77064273Y-70883763D02*
X77064219Y-70884011D01*
X71075677Y-69334402D02*
X71057686Y-69317301D01*
X139886152Y-68634169D02*
X139885909Y-68634097D01*
X67001195Y-6058576D02*
X67000000Y-6009877D01*
X9383763Y-7064273D02*
X9260382Y-7092904D01*
X81942125Y-67843519D02*
X81924637Y-67888855D01*
X5166847Y-126560012D02*
X5140851Y-126518960D01*
X76107036Y-73495229D02*
X76058576Y-73498804D01*
X81674841Y-125256460D02*
X81710033Y-125289966D01*
X143833152Y-11560012D02*
X143805173Y-11599740D01*
X137566721Y-6904946D02*
X137523318Y-6883099D01*
X142116900Y-72976681D02*
X142095053Y-72933278D01*
X81805173Y-125400259D02*
X81833152Y-125439987D01*
X141751584Y-61694578D02*
X141751687Y-61694347D01*
X5029671Y-5749450D02*
X5042631Y-5702619D01*
X8533176Y-7383386D02*
X8424025Y-7447640D01*
X72224721Y-73138047D02*
X72194826Y-73099740D01*
X81710033Y-68210033D02*
X81674841Y-68243539D01*
X137224721Y-63861952D02*
X137256460Y-63825158D01*
X7000000Y-121993666D02*
X7000000Y-121993792D01*
X5010718Y-120844737D02*
X5019025Y-120796861D01*
X139591674Y-124940776D02*
X139615988Y-124935780D01*
X142325158Y-11743539D02*
X142289966Y-11710033D01*
X77834402Y-7924322D02*
X77817301Y-7942313D01*
X77134097Y-70614090D02*
X77099253Y-70735862D01*
X70703436Y-124469119D02*
X70723809Y-124454939D01*
X6989281Y-120844737D02*
X6995229Y-120892963D01*
X11297380Y-125042631D02*
X11343519Y-125057874D01*
X141996470Y-122139283D02*
X141999839Y-122006331D01*
X78423808Y-7447771D02*
X78402743Y-7460901D01*
X143343519Y-126942125D02*
X143297380Y-126957368D01*
X137941423Y-5001195D02*
X137990122Y-5000000D01*
X7817128Y-124057500D02*
X7817301Y-124057686D01*
X78667588Y-63187548D02*
X78667814Y-63187662D01*
X77014452Y-71208874D02*
X77014430Y-71209126D01*
X142566721Y-73404946D02*
X142523318Y-73383099D01*
X8275984Y-62954792D02*
X8276190Y-62954939D01*
X11674841Y-6743539D02*
X11638047Y-6775278D01*
X71182698Y-124057686D02*
X71182871Y-124057500D01*
X78805421Y-7248415D02*
X78690328Y-7301297D01*
X79709126Y-68514430D02*
X79708874Y-68514452D01*
X140053443Y-124808648D02*
X140053680Y-124808557D01*
X140332185Y-124687662D02*
X140332411Y-124687548D01*
X11250549Y-125029671D02*
X11297380Y-125042631D01*
X71616613Y-8533176D02*
X71552359Y-8424025D01*
X71996460Y-122139536D02*
X71996470Y-122139283D01*
X9835420Y-68504812D02*
X9709126Y-68514430D01*
X143710033Y-5289966D02*
X143743539Y-5325158D01*
X7834402Y-69424322D02*
X7817301Y-69442313D01*
X77059175Y-70908574D02*
X77036829Y-71033246D01*
X148991655Y-201D02*
X148991169Y-129D01*
X79260382Y-63407095D02*
X79383763Y-63435726D01*
X139164326Y-124995203D02*
X139164579Y-124995187D01*
X141751584Y-123194578D02*
X141751687Y-123194347D01*
X9235862Y-124900746D02*
X9236107Y-124900812D01*
X11942125Y-6343519D02*
X11924637Y-6388855D01*
X78555099Y-7371214D02*
X78533396Y-7383261D01*
X5125Y-1353D02*
X4704Y-1605D01*
X79684179Y-63483036D02*
X79708874Y-63485547D01*
X139006205Y-63499841D02*
X139006331Y-63499839D01*
X139885909Y-63365902D02*
X139886152Y-63365830D01*
X143674841Y-11743539D02*
X143638047Y-11775278D01*
X148993544Y-724D02*
X148993082Y-559D01*
X140597256Y-63039098D02*
X140597469Y-63038961D01*
X77447640Y-123575974D02*
X77447771Y-123576191D01*
X141761475Y-123171537D02*
X141761572Y-123171303D01*
X11904946Y-6433278D02*
X11883099Y-6476681D01*
X78276190Y-69045060D02*
X78275984Y-69045207D01*
X68993792Y-124999999D02*
X69006205Y-124999841D01*
X71687548Y-70167588D02*
X71628905Y-70055322D01*
X143859148Y-58981039D02*
X143883099Y-59023318D01*
X77000000Y-59490122D02*
X77000000Y-60493666D01*
X5000000Y-126009877D02*
X5000000Y-120990122D01*
X77383261Y-8533396D02*
X77371214Y-8555099D01*
X79384011Y-124935780D02*
X79408325Y-124940776D01*
X79860716Y-7003529D02*
X79860463Y-7003539D01*
X12000000Y-6009877D02*
X11998804Y-6058576D01*
X143388855Y-5075362D02*
X143433278Y-5095053D01*
X72095053Y-11433278D02*
X72075362Y-11388855D01*
X9408325Y-63440776D02*
X9408574Y-63440824D01*
X137057874Y-126343519D02*
X137042631Y-126297380D01*
X137116900Y-125523318D02*
X137140851Y-125481039D01*
X67749450Y-125029671D02*
X67796861Y-125019025D01*
X71940824Y-9408574D02*
X71940776Y-9408325D01*
X141999841Y-122006205D02*
X141999999Y-121993792D01*
X72029671Y-59249450D02*
X72042631Y-59202619D01*
X11250549Y-6970328D02*
X11203138Y-6980974D01*
X11859148Y-68018960D02*
X11833152Y-68060012D01*
X71963170Y-71033246D02*
X71940824Y-70908574D01*
X6009877Y-73500000D02*
X5990122Y-73500000D01*
X137000000Y-67509877D02*
X137000000Y-64490122D01*
X72361952Y-11775278D02*
X72325158Y-11743539D01*
X141967005Y-9558283D02*
X141966970Y-9558032D01*
X11743539Y-5325158D02*
X11775278Y-5361952D01*
X9993794Y-124999841D02*
X10006207Y-124999999D01*
X7545207Y-8275984D02*
X7545060Y-8276190D01*
X71963211Y-60966503D02*
X71966970Y-60941967D01*
X71963170Y-60966753D02*
X71963211Y-60966503D01*
X11833152Y-68060012D02*
X11805173Y-68099740D01*
X139910076Y-68641679D02*
X139909836Y-68641600D01*
X5523318Y-11883099D02*
X5481039Y-11859148D01*
X141983036Y-122315820D02*
X141985547Y-122291125D01*
X77371214Y-61944900D02*
X77383261Y-61966603D01*
X6833152Y-120439987D02*
X6859148Y-120481039D01*
X143388855Y-58575362D02*
X143433278Y-58595053D01*
X79835420Y-63495187D02*
X79835673Y-63495203D01*
X81904946Y-125566721D02*
X81924637Y-125611144D01*
X11343519Y-126942125D02*
X11297380Y-126957368D01*
X140826309Y-62879672D02*
X140845937Y-62864479D01*
X2482Y-131996477D02*
X2811Y-131996840D01*
X78036482Y-62767781D02*
X78036672Y-62767949D01*
X81743539Y-6674841D02*
X81710033Y-6710033D01*
X8423808Y-63052228D02*
X8424025Y-63052359D01*
X7014452Y-60791125D02*
X7016963Y-60815820D01*
X71999839Y-60506331D02*
X71999841Y-60506205D01*
X143980974Y-59296861D02*
X143989281Y-59344737D01*
X81297380Y-63542631D02*
X81343519Y-63557874D01*
X69006205Y-68500158D02*
X68993792Y-68500000D01*
X11433278Y-63595053D02*
X11476681Y-63616900D01*
X77371094Y-8555322D02*
X77312451Y-8667588D01*
X67361952Y-5224721D02*
X67400259Y-5194826D01*
X137325158Y-126743539D02*
X137289966Y-126710033D01*
X11009877Y-125000000D02*
X11058576Y-125001195D01*
X69466753Y-68536829D02*
X69466503Y-68536788D01*
X11009877Y-7000000D02*
X10006333Y-7000000D01*
X139764137Y-68599253D02*
X139763892Y-68599187D01*
X79993794Y-124999841D02*
X80006207Y-124999999D01*
X7191351Y-123053443D02*
X7191442Y-123053680D01*
X71865902Y-122885909D02*
X71900746Y-122764137D01*
X71751687Y-61694347D02*
X71761475Y-61671537D01*
X5325158Y-73243539D02*
X5289966Y-73210033D01*
X81957368Y-6297380D02*
X81942125Y-6343519D01*
X11343519Y-5057874D02*
X11388855Y-5075362D01*
X70944493Y-124284117D02*
X70963327Y-124267949D01*
X76107036Y-58504770D02*
X76155262Y-58510718D01*
X71552359Y-62075974D02*
X71616613Y-61966823D01*
X143250549Y-126970328D02*
X143203138Y-126980974D01*
X140029928Y-124817353D02*
X140030166Y-124817268D01*
X11775278Y-126638047D02*
X11743539Y-126674841D01*
X9558283Y-68532994D02*
X9558032Y-68533029D01*
X67844737Y-6989281D02*
X67796861Y-6980974D01*
X76297380Y-58542631D02*
X76343519Y-58557874D01*
X77004796Y-60664326D02*
X77004812Y-60664579D01*
X137042631Y-67797380D02*
X137029671Y-67750549D01*
X7059223Y-70908325D02*
X7059175Y-70908574D01*
X67400259Y-63694826D02*
X67439987Y-63666847D01*
X141966970Y-122441967D02*
X141967005Y-122441716D01*
X143883099Y-120523318D02*
X143904946Y-120566721D01*
X71999999Y-71506207D02*
X71999841Y-71493794D01*
X77732050Y-8036672D02*
X77715882Y-8055506D01*
X8946556Y-124808648D02*
X8969833Y-124817268D01*
X7715719Y-69555700D02*
X7635678Y-69653863D01*
X5892963Y-58504770D02*
X5941423Y-58501195D01*
X148997517Y-3522D02*
X148997188Y-3159D01*
X71469261Y-123703226D02*
X71538961Y-123597469D01*
X142990122Y-12000000D02*
X142990122Y-12000000D01*
X11924637Y-125611144D02*
X11942125Y-125656480D01*
X141698702Y-70190328D02*
X141698594Y-70190100D01*
X71940824Y-70908574D02*
X71940776Y-70908325D01*
X77064273Y-61116236D02*
X77092904Y-61239617D01*
X141364321Y-8153863D02*
X141284280Y-8055700D01*
X76833152Y-120439987D02*
X76859148Y-120481039D01*
X9408325Y-68559223D02*
X9384011Y-68564219D01*
X81250549Y-63529671D02*
X81297380Y-63542631D01*
X8533396Y-124616738D02*
X8555099Y-124628785D01*
X142166847Y-11560012D02*
X142140851Y-11518960D01*
X143155262Y-11989281D02*
X143107036Y-11995229D01*
X139466753Y-63463170D02*
X139591425Y-63440824D01*
X76924637Y-72888855D02*
X76904946Y-72933278D01*
X141907095Y-61239617D02*
X141935726Y-61116236D01*
X77092965Y-122739863D02*
X77099187Y-122763892D01*
X6599740Y-73305173D02*
X6560012Y-73333152D01*
X139466503Y-63463211D02*
X139466753Y-63463170D01*
X11058576Y-5001195D02*
X11107036Y-5004770D01*
X11058576Y-63501195D02*
X11107036Y-63504770D01*
X141940776Y-122591674D02*
X141940824Y-122591425D01*
X137481039Y-6859148D02*
X137439987Y-6833152D01*
X6433278Y-73404946D02*
X6388855Y-73424637D01*
X142523318Y-58616900D02*
X142566721Y-58595053D01*
X7016992Y-122316071D02*
X7032994Y-122441716D01*
X81743539Y-5325158D02*
X81775278Y-5361952D01*
X67796861Y-5019025D02*
X67844737Y-5010718D01*
X67566721Y-125095053D02*
X67611144Y-125075362D01*
X72439987Y-120166847D02*
X72481039Y-120140851D01*
X78036482Y-7732218D02*
X77942499Y-7817128D01*
X70575974Y-63052359D02*
X70576191Y-63052228D01*
X140171537Y-124761475D02*
X140194347Y-124751687D01*
X8969833Y-124817268D02*
X8970071Y-124817353D01*
X5439987Y-120166847D02*
X5481039Y-120140851D01*
X148999275Y-131993544D02*
X148999440Y-131993082D01*
X5400259Y-5194826D02*
X5439987Y-5166847D01*
X76155262Y-58510718D02*
X76203138Y-58519025D01*
X79683928Y-124983007D02*
X79684179Y-124983036D01*
X79860716Y-63496470D02*
X79993668Y-63499839D01*
X81859148Y-63981039D02*
X81883099Y-64023318D01*
X9113847Y-63365830D02*
X9114090Y-63365902D01*
X141967005Y-60941716D02*
X141983007Y-60816071D01*
X141454792Y-69775984D02*
X141379825Y-69673893D01*
X78533396Y-68883261D02*
X78533176Y-68883386D01*
X143904946Y-11433278D02*
X143883099Y-11476681D01*
X72042631Y-59202619D02*
X72057874Y-59156480D01*
X5749450Y-73470328D02*
X5702619Y-73457368D01*
X142001195Y-120941423D02*
X142004770Y-120892963D01*
X70703226Y-7530738D02*
X70597469Y-7461038D01*
X8667588Y-68812451D02*
X8555322Y-68871094D01*
X142844737Y-11989281D02*
X142796861Y-11980974D01*
X143433278Y-58595053D02*
X143476681Y-58616900D01*
X72019025Y-120796861D02*
X72029671Y-120749450D01*
X9533496Y-7036788D02*
X9533246Y-7036829D01*
X11155262Y-68489281D02*
X11107036Y-68495229D01*
X142095053Y-72933278D02*
X142075362Y-72888855D01*
X7732050Y-8036672D02*
X7715882Y-8055506D01*
X140703226Y-62969261D02*
X140703436Y-62969119D01*
X6009877Y-12000000D02*
X5990122Y-12000000D01*
X141469119Y-123703436D02*
X141469261Y-123703226D01*
X67400259Y-5194826D02*
X67439987Y-5166847D01*
X71761475Y-123171537D02*
X71761572Y-123171303D01*
X143518960Y-120140851D02*
X143560012Y-120166847D01*
X8828696Y-7238427D02*
X8828462Y-7238524D01*
X143433278Y-120095053D02*
X143476681Y-120116900D01*
X5010718Y-126155262D02*
X5004770Y-126107036D01*
X77016992Y-9683928D02*
X77016963Y-9684179D01*
X11560012Y-5166847D02*
X11599740Y-5194826D01*
X141687548Y-8667588D02*
X141628905Y-8555322D01*
X5566721Y-11904946D02*
X5523318Y-11883099D01*
X81998804Y-64441423D02*
X82000000Y-64490122D01*
X11297380Y-5042631D02*
X11343519Y-5057874D01*
X9384011Y-63435780D02*
X9408325Y-63440776D01*
X9558032Y-63466970D02*
X9558283Y-63467005D01*
X9684179Y-63483036D02*
X9708874Y-63485547D01*
X11904946Y-64066721D02*
X11924637Y-64111144D01*
X76433278Y-120095053D02*
X76476681Y-120116900D01*
X11883099Y-6476681D02*
X11859148Y-6518960D01*
X72289966Y-58789966D02*
X72325158Y-58756460D01*
X139591674Y-68559223D02*
X139591425Y-68559175D01*
X71698702Y-70190328D02*
X71698594Y-70190100D01*
X7530738Y-62203226D02*
X7530880Y-62203436D01*
X7460901Y-123597256D02*
X7461038Y-123597469D01*
X11995229Y-126107036D02*
X11989281Y-126155262D01*
X78946319Y-63308557D02*
X78946556Y-63308648D01*
X142224721Y-58861952D02*
X142256460Y-58825158D01*
X76433278Y-11904946D02*
X76388855Y-11924637D01*
X11805173Y-126599740D02*
X11775278Y-126638047D01*
X76859148Y-73018960D02*
X76833152Y-73060012D01*
X140576191Y-63052228D02*
X140597256Y-63039098D01*
X141907034Y-61239863D02*
X141907095Y-61239617D01*
X9236107Y-63400812D02*
X9260136Y-63407034D01*
X148999870Y-8830D02*
X148999798Y-8344D01*
X10006207Y-124999999D02*
X10006333Y-125000000D01*
X72611144Y-11924637D02*
X72566721Y-11904946D01*
X139739863Y-124907034D02*
X139763892Y-124900812D01*
X7003539Y-71360463D02*
X7003529Y-71360716D01*
X141761475Y-8828462D02*
X141751687Y-8805652D01*
X6560012Y-58666847D02*
X6599740Y-58694826D01*
X67004770Y-126107036D02*
X67001195Y-126058576D01*
X9683928Y-68516992D02*
X9558283Y-68532994D01*
X69910076Y-68641679D02*
X69909836Y-68641600D01*
X137941423Y-125001195D02*
X137990122Y-125000000D01*
X71379825Y-123826106D02*
X71454792Y-123724015D01*
X137990122Y-125000000D02*
X138993666Y-125000000D01*
X5256460Y-126674841D02*
X5224721Y-126638047D01*
X79408325Y-63440776D02*
X79408574Y-63440824D01*
X69739863Y-68592965D02*
X69739617Y-68592904D01*
X67892963Y-5004770D02*
X67941423Y-5001195D01*
X72481039Y-73359148D02*
X72439987Y-73333152D01*
X67439987Y-125166847D02*
X67481039Y-125140851D01*
X78154062Y-62864479D02*
X78173690Y-62879672D01*
X9809Y-131999942D02*
X12027Y-131999996D01*
X67844737Y-68489281D02*
X67796861Y-68480974D01*
X9835673Y-63495203D02*
X9860463Y-63496460D01*
X138993792Y-68500000D02*
X138993666Y-68500000D01*
X77033029Y-9558032D02*
X77032994Y-9558283D01*
X77182646Y-70470071D02*
X77141679Y-70589923D01*
X71907095Y-61239617D02*
X71935726Y-61116236D01*
X77545060Y-123723809D02*
X77545207Y-123724015D01*
X70053680Y-68691442D02*
X70053443Y-68691351D01*
X143989281Y-11155262D02*
X143980974Y-11203138D01*
X140845937Y-69135520D02*
X140826309Y-69120327D01*
X81674841Y-5256460D02*
X81710033Y-5289966D01*
X11957368Y-126297380D02*
X11942125Y-126343519D01*
X1122Y-131994441D02*
X1353Y-131994874D01*
X137194826Y-126599740D02*
X137166847Y-126560012D01*
X6924637Y-72888855D02*
X6904946Y-72933278D01*
X8036672Y-62767949D02*
X8055506Y-62784117D01*
X72000000Y-120990122D02*
X72001195Y-120941423D01*
X142224721Y-73138047D02*
X142194826Y-73099740D01*
X78402743Y-124539098D02*
X78423808Y-124552228D01*
X71687662Y-70167814D02*
X71687548Y-70167588D01*
X7003539Y-60639536D02*
X7004796Y-60664326D01*
X141379825Y-123826106D02*
X141454792Y-123724015D01*
X79533496Y-124963211D02*
X79558032Y-124966970D01*
X11433278Y-125095053D02*
X11476681Y-125116900D01*
X71999841Y-71493794D02*
X71999839Y-71493668D01*
X72611144Y-120075362D02*
X72656480Y-120057874D01*
X70576191Y-63052228D02*
X70597256Y-63039098D01*
X81155262Y-125010718D02*
X81203138Y-125019025D01*
X7248415Y-123194578D02*
X7301297Y-123309671D01*
X137796861Y-6980974D02*
X137749450Y-6970328D01*
X77530738Y-123703226D02*
X77530880Y-123703436D01*
X7620327Y-62326309D02*
X7635520Y-62345937D01*
X79533496Y-7036788D02*
X79533246Y-7036829D01*
X6942125Y-120656480D02*
X6957368Y-120702619D01*
X70963327Y-124267949D02*
X70963517Y-124267781D01*
X71983007Y-60816071D02*
X71983036Y-60815820D01*
X5481039Y-5140851D02*
X5523318Y-5116900D01*
X81970328Y-126250549D02*
X81957368Y-126297380D01*
X7248312Y-61694347D02*
X7248415Y-61694578D01*
X67749450Y-63529671D02*
X67796861Y-63519025D01*
X140575974Y-63052359D02*
X140576191Y-63052228D01*
X70944299Y-62784280D02*
X70944493Y-62784117D01*
X76859148Y-120481039D02*
X76883099Y-120523318D01*
X77545207Y-123724015D02*
X77620174Y-123826106D01*
X142000000Y-11009877D02*
X142000000Y-10006333D01*
X69615988Y-124935780D02*
X69616236Y-124935726D01*
X5481039Y-126859148D02*
X5439987Y-126833152D01*
X7014430Y-9709126D02*
X7004812Y-9835420D01*
X137481039Y-125140851D02*
X137523318Y-125116900D01*
X76995229Y-59392963D02*
X76998804Y-59441423D01*
X78555322Y-63128905D02*
X78667588Y-63187548D01*
X5140851Y-58981039D02*
X5166847Y-58939987D01*
X143433278Y-126904946D02*
X143388855Y-126924637D01*
X8153863Y-124364321D02*
X8154062Y-124364479D01*
X76518960Y-120140851D02*
X76560012Y-120166847D01*
X141996470Y-60639283D02*
X141999839Y-60506331D01*
X67702619Y-6957368D02*
X67656480Y-6942125D01*
X137439987Y-5166847D02*
X137481039Y-5140851D01*
X11155262Y-63510718D02*
X11203138Y-63519025D01*
X912Y-131993997D02*
X1122Y-131994441D01*
X9709126Y-7014430D02*
X9708874Y-7014452D01*
X11805173Y-68099740D02*
X11775278Y-68138047D01*
X81980974Y-125796861D02*
X81989281Y-125844737D01*
X77635520Y-123845937D02*
X77635678Y-123846136D01*
X78805652Y-7248312D02*
X78805421Y-7248415D01*
X72702619Y-73457368D02*
X72656480Y-73442125D01*
X137892963Y-63504770D02*
X137941423Y-63501195D01*
X7387Y-416D02*
X6917Y-559D01*
X141996470Y-9860716D02*
X141996460Y-9860463D01*
X143203138Y-73480974D02*
X143155262Y-73489281D01*
X143433278Y-11904946D02*
X143388855Y-11924637D01*
X77134097Y-9114090D02*
X77099253Y-9235862D01*
X71538961Y-8402530D02*
X71469261Y-8296773D01*
X5611144Y-58575362D02*
X5656480Y-58557874D01*
X79860463Y-124996460D02*
X79860716Y-124996470D01*
X7059223Y-122591674D02*
X7064219Y-122615988D01*
X143833152Y-5439987D02*
X143859148Y-5481039D01*
X11743539Y-126674841D02*
X11710033Y-126710033D01*
X71966970Y-9558032D02*
X71963211Y-9533496D01*
X9683928Y-63483007D02*
X9684179Y-63483036D01*
X70332185Y-124687662D02*
X70332411Y-124687548D01*
X70597469Y-68961038D02*
X70597256Y-68960901D01*
X6995229Y-120892963D02*
X6998804Y-120941423D01*
X77033029Y-60941967D02*
X77036788Y-60966503D01*
X78667588Y-68812451D02*
X78555322Y-68871094D01*
X142256460Y-73174841D02*
X142224721Y-73138047D01*
X137566721Y-126904946D02*
X137523318Y-126883099D01*
X5001195Y-120941423D02*
X5004770Y-120892963D01*
X143388855Y-120075362D02*
X143433278Y-120095053D01*
X137523318Y-126883099D02*
X137481039Y-126859148D01*
X11009877Y-127000000D02*
X5990122Y-127000000D01*
X141935726Y-70883763D02*
X141907095Y-70760382D01*
X81518960Y-125140851D02*
X81560012Y-125166847D01*
X148994441Y-131998877D02*
X148994874Y-131998646D01*
X79860716Y-68503529D02*
X79860463Y-68503539D01*
X77016992Y-122316071D02*
X77032994Y-122441716D01*
X71075677Y-7834402D02*
X71057686Y-7817301D01*
X69763892Y-7099187D02*
X69739863Y-7092965D01*
X140944493Y-7715882D02*
X140944299Y-7715719D01*
X7942499Y-7817128D02*
X7942313Y-7817301D01*
X148999275Y-6455D02*
X148999087Y-6002D01*
X76883099Y-120523318D02*
X76904946Y-120566721D01*
X70466823Y-68883386D02*
X70466603Y-68883261D01*
X12000000Y-67509877D02*
X11998804Y-67558576D01*
X72224721Y-58861952D02*
X72256460Y-58825158D01*
X77545060Y-69776190D02*
X77530880Y-69796563D01*
X11203138Y-126980974D02*
X11155262Y-126989281D01*
X140597469Y-7461038D02*
X140597256Y-7460901D01*
X148999440Y-131993082D02*
X148999583Y-131992612D01*
X70030166Y-68682731D02*
X70029928Y-68682646D01*
X7016963Y-122315820D02*
X7016992Y-122316071D01*
X71364479Y-62345937D02*
X71379672Y-62326309D01*
X9260136Y-68592965D02*
X9236107Y-68599187D01*
X9558032Y-124966970D02*
X9558283Y-124967005D01*
X68993792Y-7000000D02*
X68993666Y-7000000D01*
X78805652Y-124751687D02*
X78828462Y-124761475D01*
X6455Y-724D02*
X6002Y-912D01*
X76805173Y-58900259D02*
X76833152Y-58939987D01*
X77447771Y-62076191D02*
X77460901Y-62097256D01*
X76560012Y-73333152D02*
X76518960Y-73359148D01*
X76883099Y-11476681D02*
X76859148Y-11518960D01*
X71538961Y-69902530D02*
X71469261Y-69796773D01*
X141539098Y-8402743D02*
X141538961Y-8402530D01*
X77834402Y-124075677D02*
X77834579Y-124075858D01*
X81995229Y-6107036D02*
X81989281Y-6155262D01*
X3Y-131987972D02*
X57Y-131990190D01*
X69466753Y-7036829D02*
X69466503Y-7036788D01*
X6904946Y-120566721D02*
X6924637Y-120611144D01*
X76775278Y-11638047D02*
X76743539Y-11674841D01*
X141817353Y-70470071D02*
X141817268Y-70469833D01*
X9533496Y-63463211D02*
X9558032Y-63466970D01*
X76518960Y-73359148D02*
X76476681Y-73383099D01*
X6203138Y-58519025D02*
X6250549Y-58529671D01*
X81343519Y-6942125D02*
X81297380Y-6957368D01*
X81924637Y-67888855D02*
X81904946Y-67933278D01*
X77004812Y-122164579D02*
X77014430Y-122290873D01*
X7092904Y-9260382D02*
X7064273Y-9383763D01*
X137075362Y-126388855D02*
X137057874Y-126343519D01*
X81883099Y-126476681D02*
X81859148Y-126518960D01*
X143433278Y-5095053D02*
X143476681Y-5116900D01*
X140444900Y-7371214D02*
X140444677Y-7371094D01*
X137796861Y-5019025D02*
X137844737Y-5010718D01*
X8296563Y-62969119D02*
X8296773Y-62969261D01*
X142611144Y-58575362D02*
X142656480Y-58557874D01*
X71999841Y-122006205D02*
X71999999Y-121993792D01*
X70576191Y-68947771D02*
X70575974Y-68947640D01*
X81388855Y-6924637D02*
X81343519Y-6942125D01*
X71907034Y-70760136D02*
X71900812Y-70736107D01*
X140846136Y-69135678D02*
X140845937Y-69135520D01*
X143942125Y-72843519D02*
X143924637Y-72888855D01*
X137656480Y-125057874D02*
X137702619Y-125042631D01*
X82000000Y-5990122D02*
X82000000Y-6009877D01*
X78402743Y-63039098D02*
X78423808Y-63052228D01*
X70597256Y-124539098D02*
X70597469Y-124538961D01*
X143883099Y-11476681D02*
X143859148Y-11518960D01*
X9558032Y-7033029D02*
X9533496Y-7036788D01*
X7447771Y-62076191D02*
X7460901Y-62097256D01*
X141999841Y-71493794D02*
X141999839Y-71493668D01*
X7371094Y-123444677D02*
X7371214Y-123444900D01*
X137325158Y-68243539D02*
X137289966Y-68210033D01*
X5481039Y-120140851D02*
X5523318Y-120116900D01*
X71817353Y-61529928D02*
X71858320Y-61410076D01*
X141165597Y-62575677D02*
X141182698Y-62557686D01*
X67000000Y-125990122D02*
X67000000Y-125990122D01*
X70171303Y-7238427D02*
X70053680Y-7191442D01*
X5749450Y-11970328D02*
X5702619Y-11957368D01*
X71751687Y-123194347D02*
X71761475Y-123171537D01*
X67749450Y-5029671D02*
X67796861Y-5019025D01*
X5029671Y-120749450D02*
X5042631Y-120702619D01*
X11250549Y-126970328D02*
X11203138Y-126980974D01*
X69739863Y-63407034D02*
X69763892Y-63400812D01*
X77092965Y-70760136D02*
X77092904Y-70760382D01*
X141996460Y-71360463D02*
X141995203Y-71335673D01*
X72656480Y-73442125D02*
X72611144Y-73424637D01*
X11297380Y-6957368D02*
X11250549Y-6970328D01*
X137140851Y-126518960D02*
X137116900Y-126476681D01*
X72702619Y-11957368D02*
X72656480Y-11942125D01*
X139739617Y-124907095D02*
X139739863Y-124907034D01*
X141983036Y-71184179D02*
X141983007Y-71183928D01*
X5325158Y-58756460D02*
X5361952Y-58724721D01*
X6476681Y-73383099D02*
X6433278Y-73404946D01*
X81989281Y-64344737D02*
X81995229Y-64392963D01*
X70826106Y-124379825D02*
X70826309Y-124379672D01*
X70053680Y-7191442D02*
X70053443Y-7191351D01*
X11970328Y-126250549D02*
X11957368Y-126297380D01*
X71900746Y-70735862D02*
X71865902Y-70614090D01*
X76343519Y-11942125D02*
X76297380Y-11957368D01*
X67000000Y-6009877D02*
X67000000Y-5990122D01*
X137224721Y-68138047D02*
X137194826Y-68099740D01*
X140703226Y-69030738D02*
X140597469Y-68961038D01*
X81433278Y-125095053D02*
X81476681Y-125116900D01*
X7141679Y-70589923D02*
X7141600Y-70590163D01*
X69591425Y-7059175D02*
X69466753Y-7036829D01*
X76998804Y-11058576D02*
X76995229Y-11107036D01*
X78828696Y-63261572D02*
X78946319Y-63308557D01*
X11250549Y-68470328D02*
X11203138Y-68480974D01*
X71940824Y-61091425D02*
X71963170Y-60966753D01*
X81833152Y-125439987D02*
X81859148Y-125481039D01*
X140846136Y-124364321D02*
X140944299Y-124284280D01*
X79113847Y-7134169D02*
X79090163Y-7141600D01*
X137400259Y-125194826D02*
X137439987Y-125166847D01*
X67990122Y-68500000D02*
X67941423Y-68498804D01*
X139139536Y-63496460D02*
X139164326Y-63495203D01*
X5000000Y-59490122D02*
X5001195Y-59441423D01*
X76155262Y-73489281D02*
X76107036Y-73495229D01*
X76343519Y-73442125D02*
X76297380Y-73457368D01*
X11297380Y-63542631D02*
X11343519Y-63557874D01*
X5289966Y-120289966D02*
X5325158Y-120256460D01*
X141999839Y-71493668D02*
X141996470Y-71360716D01*
X77924141Y-7834579D02*
X77834579Y-7924141D01*
X143998804Y-5941423D02*
X144000000Y-5990122D01*
X140171303Y-124761572D02*
X140171537Y-124761475D01*
X77817128Y-124057500D02*
X77817301Y-124057686D01*
X69739863Y-7092965D02*
X69739617Y-7092904D01*
X5941423Y-126998804D02*
X5892963Y-126995229D01*
X137941423Y-126998804D02*
X137892963Y-126995229D01*
X72095053Y-120566721D02*
X72116900Y-120523318D01*
X5990122Y-5000000D02*
X11009877Y-5000000D01*
X79089923Y-68641679D02*
X78970071Y-68682646D01*
X71364479Y-123845937D02*
X71379672Y-123826309D01*
X148999583Y-7387D02*
X148999440Y-6917D01*
X11970328Y-6250549D02*
X11957368Y-6297380D01*
X7000158Y-71493794D02*
X7000000Y-71506207D01*
X71267781Y-62463517D02*
X71267949Y-62463327D01*
X142140851Y-58981039D02*
X142166847Y-58939987D01*
X141967005Y-71058283D02*
X141966970Y-71058032D01*
X139164579Y-63495187D02*
X139290873Y-63485569D01*
X140575974Y-7447640D02*
X140466823Y-7383386D01*
X137656480Y-6942125D02*
X137611144Y-6924637D01*
X71817353Y-123029928D02*
X71858320Y-122910076D01*
X141628785Y-61944900D02*
X141628905Y-61944677D01*
X81476681Y-5116900D02*
X81518960Y-5140851D01*
X71057686Y-124182698D02*
X71075677Y-124165597D01*
X81883099Y-67976681D02*
X81859148Y-68018960D01*
X72256460Y-58825158D02*
X72289966Y-58789966D01*
X137004770Y-126107036D02*
X137001195Y-126058576D01*
X76743539Y-73174841D02*
X76710033Y-73210033D01*
X79835420Y-68504812D02*
X79709126Y-68514430D01*
X11989281Y-67655262D02*
X11980974Y-67703138D01*
X71539098Y-62097256D02*
X71552228Y-62076191D01*
X5439987Y-58666847D02*
X5481039Y-58640851D01*
X7191442Y-61553680D02*
X7238427Y-61671303D01*
X9558283Y-124967005D02*
X9683928Y-124983007D01*
X70724015Y-124454792D02*
X70826106Y-124379825D01*
X6743539Y-120325158D02*
X6775278Y-120361952D01*
X71469119Y-123703436D02*
X71469261Y-123703226D01*
X137010718Y-125844737D02*
X137019025Y-125796861D01*
X142566721Y-58595053D02*
X142611144Y-58575362D01*
X77834402Y-69424322D02*
X77817301Y-69442313D01*
X139441967Y-63466970D02*
X139466503Y-63463211D01*
X69910076Y-7141679D02*
X69909836Y-7141600D01*
X70944299Y-7715719D02*
X70846136Y-7635678D01*
X72481039Y-120140851D02*
X72523318Y-120116900D01*
X144000000Y-11009877D02*
X143998804Y-11058576D01*
X67019025Y-5796861D02*
X67029671Y-5749450D01*
X8402743Y-7460901D02*
X8402530Y-7461038D01*
X78296773Y-124469261D02*
X78402530Y-124538961D01*
X9090163Y-124858399D02*
X9113847Y-124865830D01*
X5004770Y-126107036D02*
X5001195Y-126058576D01*
X7099253Y-61264137D02*
X7134097Y-61385909D01*
X79384011Y-63435780D02*
X79408325Y-63440776D01*
X77003539Y-71360463D02*
X77003529Y-71360716D01*
X67075362Y-125611144D02*
X67095053Y-125566721D01*
X140171303Y-68738427D02*
X140053680Y-68691442D01*
X77942499Y-69317128D02*
X77942313Y-69317301D01*
X67481039Y-68359148D02*
X67439987Y-68333152D01*
X143107036Y-11995229D02*
X143058576Y-11998804D01*
X8055700Y-7715719D02*
X8055506Y-7715882D01*
X143518960Y-126859148D02*
X143476681Y-126883099D01*
X141817268Y-8969833D02*
X141808648Y-8946556D01*
X9835673Y-68504796D02*
X9835420Y-68504812D01*
X8805652Y-63251687D02*
X8828462Y-63261475D01*
X81942125Y-64156480D02*
X81957368Y-64202619D01*
X81859148Y-6518960D02*
X81833152Y-6560012D01*
X140826309Y-7620327D02*
X140826106Y-7620174D01*
X67010718Y-126155262D02*
X67004770Y-126107036D01*
X77530738Y-8296773D02*
X77461038Y-8402530D01*
X76904946Y-11433278D02*
X76883099Y-11476681D01*
X142400259Y-58694826D02*
X142439987Y-58666847D01*
X71967005Y-60941716D02*
X71983007Y-60816071D01*
X11904946Y-126433278D02*
X11883099Y-126476681D01*
X7834402Y-124075677D02*
X7834579Y-124075858D01*
X76970328Y-72750549D02*
X76957368Y-72797380D01*
X70053443Y-7191351D02*
X70030166Y-7182731D01*
X6250549Y-11970328D02*
X6203138Y-11980974D01*
X70171537Y-124761475D02*
X70194347Y-124751687D01*
X141935780Y-70884011D02*
X141935726Y-70883763D01*
X11775278Y-68138047D02*
X11743539Y-68174841D01*
X137656480Y-126942125D02*
X137611144Y-126924637D01*
X149000000Y-131987727D02*
X149000000Y-12272D01*
X141907095Y-70760382D02*
X141907034Y-70760136D01*
X78970071Y-7182646D02*
X78969833Y-7182731D01*
X69909836Y-68641600D02*
X69886152Y-68634169D01*
X7099187Y-9236107D02*
X7092965Y-9260136D01*
X8830Y-129D02*
X8344Y-201D01*
X11433278Y-126904946D02*
X11388855Y-126924637D01*
X76155262Y-11989281D02*
X76107036Y-11995229D01*
X141267949Y-8036672D02*
X141267781Y-8036482D01*
X69441716Y-124967005D02*
X69441967Y-124966970D01*
X71808557Y-61553680D02*
X71808648Y-61553443D01*
X143904946Y-126433278D02*
X143883099Y-126476681D01*
X67095053Y-126433278D02*
X67075362Y-126388855D01*
X70724015Y-69045207D02*
X70723809Y-69045060D01*
X72194826Y-73099740D02*
X72166847Y-73060012D01*
X143995229Y-72607036D02*
X143989281Y-72655262D01*
X7834402Y-62575677D02*
X7834579Y-62575858D01*
X143957368Y-11297380D02*
X143942125Y-11343519D01*
X69315820Y-7016963D02*
X69291125Y-7014452D01*
X8533176Y-63116613D02*
X8533396Y-63116738D01*
X7620327Y-123826309D02*
X7635520Y-123845937D01*
X724Y-131993544D02*
X912Y-131993997D01*
X72990122Y-58500000D02*
X76009877Y-58500000D01*
X79835673Y-124995203D02*
X79860463Y-124996460D01*
X67400259Y-6805173D02*
X67361952Y-6775278D01*
X143710033Y-58789966D02*
X143743539Y-58825158D01*
X77000158Y-122006205D02*
X77000160Y-122006331D01*
X7530880Y-8296563D02*
X7530738Y-8296773D01*
X81476681Y-126883099D02*
X81433278Y-126904946D01*
X143859148Y-73018960D02*
X143833152Y-73060012D01*
X6155262Y-11989281D02*
X6107036Y-11995229D01*
X7099187Y-70736107D02*
X7092965Y-70760136D01*
X72004770Y-72607036D02*
X72001195Y-72558576D01*
X71935726Y-9383763D02*
X71907095Y-9260382D01*
X78296773Y-7530738D02*
X78296563Y-7530880D01*
X140332411Y-124687548D02*
X140444677Y-124628905D01*
X148999942Y-9809D02*
X148999918Y-9318D01*
X141552359Y-62075974D02*
X141616613Y-61966823D01*
X71985569Y-9709126D02*
X71985547Y-9708874D01*
X148993544Y-131999275D02*
X148993997Y-131999087D01*
X5019025Y-5796861D02*
X5029671Y-5749450D01*
X143995229Y-59392963D02*
X143998804Y-59441423D01*
X140194347Y-124751687D02*
X140194578Y-124751584D01*
X3902Y-131997829D02*
X4296Y-131998121D01*
X78555099Y-68871214D02*
X78533396Y-68883261D01*
X77238524Y-61671537D02*
X77248312Y-61694347D01*
X78805652Y-68748312D02*
X78805421Y-68748415D01*
X7447640Y-69924025D02*
X7383386Y-70033176D01*
X141900812Y-61263892D02*
X141907034Y-61239863D01*
X141284117Y-123944493D02*
X141284280Y-123944299D01*
X141858320Y-61410076D02*
X141858399Y-61409836D01*
X76775278Y-120361952D02*
X76805173Y-120400259D01*
X143009877Y-73500000D02*
X142990122Y-73500000D01*
X71379672Y-62326309D02*
X71379825Y-62326106D01*
X81743539Y-63825158D02*
X81775278Y-63861952D01*
X5224721Y-120361952D02*
X5256460Y-120325158D01*
X71995187Y-60664579D02*
X71995203Y-60664326D01*
X142057874Y-120656480D02*
X142075362Y-120611144D01*
X141165420Y-124075858D02*
X141165597Y-124075677D01*
X137004770Y-64392963D02*
X137010718Y-64344737D01*
X140597256Y-68960901D02*
X140576191Y-68947771D01*
X71379825Y-69673893D02*
X71379672Y-69673690D01*
X141999841Y-60506205D02*
X141999999Y-60493792D01*
X77059223Y-122591674D02*
X77064219Y-122615988D01*
X78690100Y-124698594D02*
X78690328Y-124698702D01*
X143957368Y-59202619D02*
X143970328Y-59249450D01*
X76388855Y-73424637D02*
X76343519Y-73442125D01*
X77016963Y-71184179D02*
X77014452Y-71208874D01*
X69909836Y-63358399D02*
X69910076Y-63358320D01*
X7942499Y-124182871D02*
X8036482Y-124267781D01*
X6058576Y-58501195D02*
X6107036Y-58504770D01*
X79709126Y-63485569D02*
X79835420Y-63495187D01*
X7863Y-297D02*
X7387Y-416D01*
X142256460Y-120325158D02*
X142289966Y-120289966D01*
X69291125Y-124985547D02*
X69315820Y-124983036D01*
X7099253Y-70735862D02*
X7099187Y-70736107D01*
X72702619Y-58542631D02*
X72749450Y-58529671D01*
X7620174Y-62326106D02*
X7620327Y-62326309D01*
X5075362Y-5611144D02*
X5095053Y-5566721D01*
X141552228Y-8423808D02*
X141539098Y-8402743D01*
X7545060Y-69776190D02*
X7530880Y-69796563D01*
X141057500Y-7817128D02*
X140963517Y-7732218D01*
X11833152Y-125439987D02*
X11859148Y-125481039D01*
X7003529Y-9860716D02*
X7000160Y-9993668D01*
X77715719Y-69555700D02*
X77635678Y-69653863D01*
X78828696Y-7238427D02*
X78828462Y-7238524D01*
X70444677Y-68871094D02*
X70332411Y-68812451D01*
X70332411Y-7312451D02*
X70332185Y-7312337D01*
X77004796Y-9835673D02*
X77003539Y-9860463D01*
X143009877Y-120000000D02*
X143058576Y-120001195D01*
X141616738Y-123466603D02*
X141628785Y-123444900D01*
X79835673Y-7004796D02*
X79835420Y-7004812D01*
X70309671Y-7301297D02*
X70194578Y-7248415D01*
X67029671Y-126250549D02*
X67019025Y-126203138D01*
X148999798Y-131991655D02*
X148999870Y-131991169D01*
X11107036Y-125004770D02*
X11155262Y-125010718D01*
X8533396Y-63116738D02*
X8555099Y-63128785D01*
X71616613Y-70033176D02*
X71552359Y-69924025D01*
X67361952Y-126775278D02*
X67325158Y-126743539D01*
X137892963Y-125004770D02*
X137941423Y-125001195D01*
X5400259Y-11805173D02*
X5361952Y-11775278D01*
X11560012Y-126833152D02*
X11518960Y-126859148D01*
X142019025Y-59296861D02*
X142029671Y-59249450D01*
X141808648Y-8946556D02*
X141808557Y-8946319D01*
X81638047Y-5224721D02*
X81674841Y-5256460D01*
X137702619Y-5042631D02*
X137749450Y-5029671D01*
X6250549Y-73470328D02*
X6203138Y-73480974D01*
X71995187Y-9835420D02*
X71985569Y-9709126D01*
X72019025Y-72703138D02*
X72010718Y-72655262D01*
X7461038Y-8402530D02*
X7460901Y-8402743D01*
X7059175Y-122591425D02*
X7059223Y-122591674D01*
X81775278Y-63861952D02*
X81805173Y-63900259D01*
X141940776Y-61091674D02*
X141940824Y-61091425D01*
X5523318Y-126883099D02*
X5481039Y-126859148D01*
X137095053Y-64066721D02*
X137116900Y-64023318D01*
X67325158Y-63756460D02*
X67361952Y-63724721D01*
X70597256Y-63039098D02*
X70597469Y-63038961D01*
X76989281Y-11155262D02*
X76980974Y-11203138D01*
X81107036Y-6995229D02*
X81058576Y-6998804D01*
X137029671Y-6250549D02*
X137019025Y-6203138D01*
X70466823Y-7383386D02*
X70466603Y-7383261D01*
X143859148Y-5481039D02*
X143883099Y-5523318D01*
X7817301Y-69442313D02*
X7817128Y-69442499D01*
X67796861Y-126980974D02*
X67749450Y-126970328D01*
X137001195Y-6058576D02*
X137000000Y-6009877D01*
X67523318Y-63616900D02*
X67566721Y-63595053D01*
X7036829Y-60966753D02*
X7059175Y-61091425D01*
X79089923Y-7141679D02*
X78970071Y-7182646D01*
X68993792Y-63499999D02*
X69006205Y-63499841D01*
X141865830Y-70613847D02*
X141858399Y-70590163D01*
X11883099Y-67976681D02*
X11859148Y-68018960D01*
X70194347Y-7248312D02*
X70171537Y-7238524D01*
X77000000Y-10006333D02*
X77000000Y-11009877D01*
X72325158Y-120256460D02*
X72361952Y-120224721D01*
X67194826Y-125400259D02*
X67224721Y-125361952D01*
X81957368Y-125702619D02*
X81970328Y-125749450D01*
X70963327Y-62767949D02*
X70963517Y-62767781D01*
X11743539Y-68174841D02*
X11710033Y-68210033D01*
X69006331Y-124999839D02*
X69139283Y-124996470D01*
X7924141Y-62665420D02*
X7924322Y-62665597D01*
X81904946Y-6433278D02*
X81883099Y-6476681D01*
X140723809Y-124454939D02*
X140724015Y-124454792D01*
X77732218Y-69536482D02*
X77732050Y-69536672D01*
X71616738Y-61966603D02*
X71628785Y-61944900D01*
X79235862Y-68599253D02*
X79114090Y-68634097D01*
X416Y-7387D02*
X297Y-7863D01*
X81107036Y-5004770D02*
X81155262Y-5010718D01*
X137523318Y-68383099D02*
X137481039Y-68359148D01*
X143107036Y-58504770D02*
X143155262Y-58510718D01*
X7064219Y-122615988D02*
X7064273Y-122616236D01*
X77134169Y-61386152D02*
X77141600Y-61409836D01*
X139315820Y-7016963D02*
X139291125Y-7014452D01*
X70845937Y-124364479D02*
X70846136Y-124364321D01*
X7014430Y-71209126D02*
X7004812Y-71335420D01*
X8402530Y-124538961D02*
X8402743Y-124539098D01*
X139739617Y-63407095D02*
X139739863Y-63407034D01*
X81155262Y-63510718D02*
X81203138Y-63519025D01*
X8276190Y-69045060D02*
X8275984Y-69045207D01*
X70703226Y-69030738D02*
X70597469Y-68961038D01*
X141628905Y-70055322D02*
X141628785Y-70055099D01*
X142481039Y-11859148D02*
X142439987Y-11833152D01*
X69315820Y-124983036D02*
X69316071Y-124983007D01*
X7301405Y-61809899D02*
X7312337Y-61832185D01*
X6883099Y-72976681D02*
X6859148Y-73018960D01*
X141284280Y-123944299D02*
X141364321Y-123846136D01*
X69885909Y-63365902D02*
X69886152Y-63365830D01*
X7248312Y-123194347D02*
X7248415Y-123194578D01*
X7014452Y-122291125D02*
X7016963Y-122315820D01*
X141454939Y-69776190D02*
X141454792Y-69775984D01*
X7715882Y-62444493D02*
X7732050Y-62463327D01*
X6155262Y-73489281D02*
X6107036Y-73495229D01*
X6009877Y-120000000D02*
X6009877Y-120000000D01*
X142796861Y-120019025D02*
X142844737Y-120010718D01*
X137611144Y-6924637D02*
X137566721Y-6904946D01*
X140030166Y-7182731D02*
X140029928Y-7182646D01*
X76476681Y-73383099D02*
X76433278Y-73404946D01*
X148987727Y-132000000D02*
X148987972Y-131999996D01*
X6710033Y-58789966D02*
X6743539Y-58825158D01*
X78690100Y-7301405D02*
X78667814Y-7312337D01*
X137010718Y-67655262D02*
X137004770Y-67607036D01*
X81957368Y-5702619D02*
X81970328Y-5749450D01*
X11989281Y-126155262D02*
X11980974Y-126203138D01*
X5166847Y-11560012D02*
X5140851Y-11518960D01*
X69739617Y-7092904D02*
X69616236Y-7064273D01*
X9860716Y-63496470D02*
X9993668Y-63499839D01*
X142019025Y-120796861D02*
X142029671Y-120749450D01*
X143833152Y-126560012D02*
X143805173Y-126599740D01*
X81743539Y-68174841D02*
X81710033Y-68210033D01*
X7383386Y-61966823D02*
X7447640Y-62075974D01*
X141761572Y-61671303D02*
X141808557Y-61553680D01*
X142075362Y-72888855D02*
X142057874Y-72843519D01*
X5749450Y-126970328D02*
X5702619Y-126957368D01*
X141687662Y-123332185D02*
X141698594Y-123309899D01*
X76710033Y-11710033D02*
X76674841Y-11743539D01*
X81433278Y-6904946D02*
X81388855Y-6924637D01*
X71865830Y-9113847D02*
X71858399Y-9090163D01*
X143433278Y-73404946D02*
X143388855Y-73424637D01*
X7000000Y-11009877D02*
X6998804Y-11058576D01*
X78173690Y-124379672D02*
X78173893Y-124379825D01*
X141865902Y-9114090D02*
X141865830Y-9113847D01*
X148996477Y-2482D02*
X148996097Y-2170D01*
X69441716Y-7032994D02*
X69316071Y-7016992D01*
X67004770Y-6107036D02*
X67001195Y-6058576D01*
X139139283Y-7003529D02*
X139006331Y-7000160D01*
X140194347Y-68748312D02*
X140171537Y-68738524D01*
X11433278Y-68404946D02*
X11388855Y-68424637D01*
X143805173Y-73099740D02*
X143775278Y-73138047D01*
X140703436Y-62969119D02*
X140723809Y-62954939D01*
X69164326Y-7004796D02*
X69139536Y-7003539D01*
X69316071Y-124983007D02*
X69441716Y-124967005D01*
X71616613Y-123466823D02*
X71616738Y-123466603D01*
X77530880Y-8296563D02*
X77530738Y-8296773D01*
X79835420Y-124995187D02*
X79835673Y-124995203D01*
X77099253Y-122764137D02*
X77134097Y-122885909D01*
X140030166Y-68682731D02*
X140029928Y-68682646D01*
X70826106Y-62879825D02*
X70826309Y-62879672D01*
X7003529Y-122139283D02*
X7003539Y-122139536D01*
X71539098Y-8402743D02*
X71538961Y-8402530D01*
X78690100Y-68801405D02*
X78667814Y-68812337D01*
X7036788Y-9533496D02*
X7033029Y-9558032D01*
X77248415Y-8805421D02*
X77248312Y-8805652D01*
X67796861Y-68480974D02*
X67749450Y-68470328D01*
X8970071Y-7182646D02*
X8969833Y-7182731D01*
X9993668Y-124999839D02*
X9993794Y-124999841D01*
X77003539Y-9860463D02*
X77003529Y-9860716D01*
X148999996Y-12027D02*
X148999942Y-9809D01*
X137116900Y-126476681D02*
X137095053Y-126433278D01*
X8276190Y-62954939D02*
X8296563Y-62969119D01*
X78296773Y-69030738D02*
X78296563Y-69030880D01*
X141817268Y-61530166D02*
X141817353Y-61529928D01*
X72095053Y-59066721D02*
X72116900Y-59023318D01*
X12000000Y-126009877D02*
X11998804Y-126058576D01*
X139315820Y-63483036D02*
X139316071Y-63483007D01*
X81343519Y-5057874D02*
X81388855Y-5075362D01*
X77191442Y-61553680D02*
X77238427Y-61671303D01*
X71182871Y-62557500D02*
X71267781Y-62463517D01*
X69441967Y-68533029D02*
X69441716Y-68532994D01*
X143058576Y-73498804D02*
X143009877Y-73500000D01*
X139139283Y-124996470D02*
X139139536Y-124996460D01*
X67523318Y-125116900D02*
X67566721Y-125095053D01*
X77064273Y-9383763D02*
X77064219Y-9384011D01*
X7447640Y-123575974D02*
X7447771Y-123576191D01*
X77942313Y-7817301D02*
X77924322Y-7834402D01*
X7000160Y-9993668D02*
X7000158Y-9993794D01*
X71808648Y-8946556D02*
X71808557Y-8946319D01*
X77059175Y-61091425D02*
X77059223Y-61091674D01*
X11638047Y-68275278D02*
X11599740Y-68305173D01*
X77032994Y-9558283D02*
X77016992Y-9683928D01*
X71284117Y-62444493D02*
X71284280Y-62444299D01*
X71985569Y-71209126D02*
X71985547Y-71208874D01*
X71808648Y-61553443D02*
X71817268Y-61530166D01*
X5010718Y-5844737D02*
X5019025Y-5796861D01*
X77032994Y-60941716D02*
X77033029Y-60941967D01*
X141075677Y-7834402D02*
X141057686Y-7817301D01*
X81805173Y-126599740D02*
X81775278Y-126638047D01*
X148987972Y-131999996D02*
X148990190Y-131999942D01*
X69164579Y-63495187D02*
X69290873Y-63485569D01*
X11518960Y-68359148D02*
X11476681Y-68383099D01*
X140053680Y-68691442D02*
X140053443Y-68691351D01*
X81998804Y-6058576D02*
X81995229Y-6107036D01*
X148993997Y-131999087D02*
X148994441Y-131998877D01*
X140466823Y-63116613D02*
X140575974Y-63052359D01*
X72566721Y-120095053D02*
X72611144Y-120075362D01*
X143155262Y-120010718D02*
X143203138Y-120019025D01*
X5566721Y-120095053D02*
X5611144Y-120075362D01*
X142656480Y-73442125D02*
X142611144Y-73424637D01*
X69466503Y-68536788D02*
X69441967Y-68533029D01*
X78153863Y-7635678D02*
X78055700Y-7715719D01*
X81924637Y-6388855D02*
X81904946Y-6433278D01*
X6674841Y-120256460D02*
X6710033Y-120289966D01*
X137566721Y-125095053D02*
X137611144Y-125075362D01*
X142289966Y-120289966D02*
X142325158Y-120256460D01*
X9860463Y-63496460D02*
X9860716Y-63496470D01*
X7032994Y-60941716D02*
X7033029Y-60941967D01*
X142941423Y-11998804D02*
X142892963Y-11995229D01*
X148998394Y-131995295D02*
X148998646Y-131994874D01*
X11970328Y-64249450D02*
X11980974Y-64296861D01*
X71808648Y-70446556D02*
X71808557Y-70446319D01*
X81995229Y-126107036D02*
X81989281Y-126155262D01*
X141999999Y-10006207D02*
X141999841Y-9993794D01*
X67566721Y-126904946D02*
X67523318Y-126883099D01*
X141808557Y-61553680D02*
X141808648Y-61553443D01*
X11388855Y-6924637D02*
X11343519Y-6942125D01*
X137029671Y-5749450D02*
X137042631Y-5702619D01*
X72256460Y-120325158D02*
X72289966Y-120289966D01*
X141940776Y-70908325D02*
X141935780Y-70884011D01*
X5116900Y-126476681D02*
X5095053Y-126433278D01*
X77715719Y-62444299D02*
X77715882Y-62444493D01*
X11518960Y-125140851D02*
X11560012Y-125166847D01*
X72004770Y-120892963D02*
X72010718Y-120844737D01*
X5439987Y-11833152D02*
X5400259Y-11805173D01*
X7942313Y-7817301D02*
X7924322Y-7834402D01*
X70444900Y-124628785D02*
X70466603Y-124616738D01*
X77191351Y-61553443D02*
X77191442Y-61553680D01*
X77461038Y-69902530D02*
X77460901Y-69902743D01*
X71761475Y-70328462D02*
X71751687Y-70305652D01*
X7383261Y-123466603D02*
X7383386Y-123466823D01*
X70332185Y-68812337D02*
X70309899Y-68801405D01*
X80006333Y-63500000D02*
X81009877Y-63500000D01*
X78690328Y-124698702D02*
X78805421Y-124751584D01*
X71165420Y-124075858D02*
X71165597Y-124075677D01*
X6203138Y-73480974D02*
X6155262Y-73489281D01*
X5844737Y-126989281D02*
X5796861Y-126980974D01*
X140963327Y-124267949D02*
X140963517Y-124267781D01*
X71751584Y-123194578D02*
X71751687Y-123194347D01*
X67029671Y-64249450D02*
X67042631Y-64202619D01*
X1605Y-131995295D02*
X1878Y-131995703D01*
X70944493Y-62784117D02*
X70963327Y-62767949D01*
X148999798Y-8344D02*
X148999702Y-7863D01*
X8173690Y-62879672D02*
X8173893Y-62879825D01*
X142194826Y-58900259D02*
X142224721Y-58861952D01*
X142000000Y-71506333D02*
X141999999Y-71506207D01*
X141865902Y-61385909D02*
X141900746Y-61264137D01*
X77238427Y-61671303D02*
X77238524Y-61671537D01*
X7092904Y-61239617D02*
X7092965Y-61239863D01*
X67010718Y-6155262D02*
X67004770Y-6107036D01*
X7059223Y-9408325D02*
X7059175Y-9408574D01*
X78690328Y-7301297D02*
X78690100Y-7301405D01*
X7383261Y-70033396D02*
X7371214Y-70055099D01*
X143998804Y-72558576D02*
X143995229Y-72607036D01*
X7016992Y-9683928D02*
X7016963Y-9684179D01*
X81859148Y-5481039D02*
X81883099Y-5523318D01*
X76957368Y-120702619D02*
X76970328Y-120749450D01*
X6107036Y-58504770D02*
X6155262Y-58510718D01*
X11674841Y-126743539D02*
X11638047Y-126775278D01*
X78424025Y-63052359D02*
X78533176Y-63116613D01*
X76107036Y-11995229D02*
X76058576Y-11998804D01*
X72166847Y-73060012D02*
X72140851Y-73018960D01*
X8036672Y-7732050D02*
X8036482Y-7732218D01*
X148998877Y-131994441D02*
X148999087Y-131993997D01*
X76674841Y-73243539D02*
X76638047Y-73275278D01*
X141963170Y-9533246D02*
X141940824Y-9408574D01*
X81989281Y-6155262D02*
X81980974Y-6203138D01*
X79260136Y-7092965D02*
X79236107Y-7099187D01*
X70575974Y-68947640D02*
X70466823Y-68883386D01*
X7620327Y-69673690D02*
X7620174Y-69673893D01*
X72140851Y-11518960D02*
X72116900Y-11476681D01*
X9860463Y-7003539D02*
X9835673Y-7004796D01*
X5558Y-1122D02*
X5125Y-1353D01*
X11388855Y-126924637D02*
X11343519Y-126942125D01*
X7924141Y-7834579D02*
X7834579Y-7924141D01*
X82000000Y-67509877D02*
X81998804Y-67558576D01*
X137796861Y-68480974D02*
X137749450Y-68470328D01*
X71628905Y-61944677D02*
X71687548Y-61832411D01*
X81859148Y-125481039D02*
X81883099Y-125523318D01*
X77447771Y-8423808D02*
X77447640Y-8424025D01*
X8946319Y-63308557D02*
X8946556Y-63308648D01*
X143297380Y-120042631D02*
X143343519Y-120057874D01*
X7099253Y-9235862D02*
X7099187Y-9236107D01*
X143859148Y-126518960D02*
X143833152Y-126560012D01*
X143710033Y-126710033D02*
X143674841Y-126743539D01*
X81388855Y-68424637D02*
X81343519Y-68442125D01*
X76250549Y-58529671D02*
X76297380Y-58542631D01*
X77182646Y-61529928D02*
X77182731Y-61530166D01*
X7447640Y-8424025D02*
X7383386Y-8533176D01*
X1605Y-4704D02*
X1353Y-5125D01*
X77301297Y-70190328D02*
X77248415Y-70305421D01*
X76058576Y-58501195D02*
X76107036Y-58504770D01*
X72075362Y-11388855D02*
X72057874Y-11343519D01*
X71284280Y-8055700D02*
X71284117Y-8055506D01*
X8402743Y-68960901D02*
X8402530Y-68961038D01*
X71967005Y-9558283D02*
X71966970Y-9558032D01*
X137844737Y-125010718D02*
X137892963Y-125004770D01*
X72749450Y-58529671D02*
X72796861Y-58519025D01*
X67194826Y-5400259D02*
X67224721Y-5361952D01*
X140053680Y-7191442D02*
X140053443Y-7191351D01*
X11476681Y-5116900D02*
X11518960Y-5140851D01*
X71379672Y-123826309D02*
X71379825Y-123826106D01*
X78036672Y-62767949D02*
X78055506Y-62784117D01*
X6710033Y-11710033D02*
X6674841Y-11743539D01*
X79260136Y-63407034D02*
X79260382Y-63407095D01*
X8690328Y-124698702D02*
X8805421Y-124751584D01*
X142000000Y-120990122D02*
X142001195Y-120941423D01*
X9114090Y-7134097D02*
X9113847Y-7134169D01*
X69006331Y-7000160D02*
X69006205Y-7000158D01*
X81924637Y-64111144D02*
X81942125Y-64156480D01*
X72075362Y-120611144D02*
X72095053Y-120566721D01*
X139006205Y-7000158D02*
X138993792Y-7000000D01*
X71165597Y-124075677D02*
X71182698Y-124057686D01*
X142140851Y-73018960D02*
X142116900Y-72976681D01*
X71940824Y-122591425D02*
X71963170Y-122466753D01*
X8173690Y-124379672D02*
X8173893Y-124379825D01*
X81Y-131990681D02*
X129Y-131991169D01*
X9558283Y-7032994D02*
X9558032Y-7033029D01*
X7191351Y-8946556D02*
X7182731Y-8969833D01*
X76989281Y-72655262D02*
X76980974Y-72703138D01*
X143924637Y-120611144D02*
X143942125Y-120656480D01*
X141985569Y-71209126D02*
X141985547Y-71208874D01*
X71751584Y-61694578D02*
X71751687Y-61694347D01*
X143833152Y-120439987D02*
X143859148Y-120481039D01*
X8970071Y-68682646D02*
X8969833Y-68682731D01*
X11942125Y-64156480D02*
X11957368Y-64202619D01*
X5000000Y-5990122D02*
X5001195Y-5941423D01*
X81009877Y-63500000D02*
X81058576Y-63501195D01*
X142194826Y-120400259D02*
X142224721Y-120361952D01*
X0Y-131987727D02*
X3Y-131987972D01*
X72361952Y-58724721D02*
X72400259Y-58694826D01*
X71698702Y-123309671D02*
X71751584Y-123194578D01*
X141364321Y-123846136D02*
X141364479Y-123845937D01*
X142481039Y-73359148D02*
X142439987Y-73333152D01*
X76743539Y-58825158D02*
X76775278Y-58861952D01*
X7312451Y-123332411D02*
X7371094Y-123444677D01*
X76674841Y-11743539D02*
X76638047Y-11775278D01*
X143009877Y-127000000D02*
X137990122Y-127000000D01*
X8533176Y-124616613D02*
X8533396Y-124616738D01*
X70826309Y-62879672D02*
X70845937Y-62864479D01*
X79558032Y-124966970D02*
X79558283Y-124967005D01*
X11924637Y-6388855D02*
X11904946Y-6433278D01*
X5194826Y-5400259D02*
X5224721Y-5361952D01*
X70845937Y-62864479D02*
X70846136Y-62864321D01*
X67224721Y-125361952D02*
X67256460Y-125325158D01*
X77371094Y-61944677D02*
X77371214Y-61944900D01*
X141165597Y-7924322D02*
X141165420Y-7924141D01*
X139006331Y-7000160D02*
X139006205Y-7000158D01*
X8667588Y-63187548D02*
X8667814Y-63187662D01*
X141996460Y-60639536D02*
X141996470Y-60639283D01*
X140466823Y-68883386D02*
X140466603Y-68883261D01*
X71165597Y-62575677D02*
X71182698Y-62557686D01*
X78555322Y-68871094D02*
X78555099Y-68871214D01*
X71687548Y-61832411D02*
X71687662Y-61832185D01*
X142400259Y-120194826D02*
X142439987Y-120166847D01*
X6998804Y-72558576D02*
X6995229Y-72607036D01*
X137439987Y-6833152D02*
X137400259Y-6805173D01*
X139466753Y-7036829D02*
X139466503Y-7036788D01*
X69616236Y-124935726D02*
X69739617Y-124907095D01*
X72796861Y-11980974D02*
X72749450Y-11970328D01*
X141996460Y-9860463D02*
X141995203Y-9835673D01*
X140444677Y-7371094D02*
X140332411Y-7312451D01*
X7036829Y-122466753D02*
X7059175Y-122591425D01*
X129Y-8830D02*
X81Y-9318D01*
X81995229Y-125892963D02*
X81998804Y-125941423D01*
X5844737Y-5010718D02*
X5892963Y-5004770D01*
X141075858Y-7834579D02*
X141075677Y-7834402D01*
X141552228Y-69923808D02*
X141539098Y-69902743D01*
X724Y-6455D02*
X559Y-6917D01*
X71985547Y-9708874D02*
X71983036Y-9684179D01*
X3159Y-131997188D02*
X3522Y-131997517D01*
X76980974Y-59296861D02*
X76989281Y-59344737D01*
X5057874Y-126343519D02*
X5042631Y-126297380D01*
X7447640Y-62075974D02*
X7447771Y-62076191D01*
X5194826Y-11599740D02*
X5166847Y-11560012D01*
X11970328Y-125749450D02*
X11980974Y-125796861D01*
X148997188Y-131996840D02*
X148997517Y-131996477D01*
X141963170Y-60966753D02*
X141963211Y-60966503D01*
X6917Y-559D02*
X6455Y-724D01*
X76203138Y-58519025D02*
X76250549Y-58529671D01*
X142057874Y-11343519D02*
X142042631Y-11297380D01*
X137796861Y-126980974D02*
X137749450Y-126970328D01*
X77004796Y-71335673D02*
X77003539Y-71360463D01*
X137029671Y-64249450D02*
X137042631Y-64202619D01*
X79260382Y-124907095D02*
X79383763Y-124935726D01*
X5702619Y-73457368D02*
X5656480Y-73442125D01*
X77059223Y-9408325D02*
X77059175Y-9408574D01*
X72075362Y-59111144D02*
X72095053Y-59066721D01*
X5010718Y-72655262D02*
X5004770Y-72607036D01*
X141616613Y-70033176D02*
X141552359Y-69924025D01*
X144000000Y-72509877D02*
X143998804Y-72558576D01*
X137019025Y-5796861D02*
X137029671Y-5749450D01*
X8946319Y-68691442D02*
X8828696Y-68738427D01*
X78555099Y-124628785D02*
X78555322Y-124628905D01*
X137361952Y-5224721D02*
X137400259Y-5194826D01*
X11743539Y-125325158D02*
X11775278Y-125361952D01*
X141963170Y-71033246D02*
X141940824Y-70908574D01*
X81107036Y-126995229D02*
X81058576Y-126998804D01*
X139164326Y-63495203D02*
X139164579Y-63495187D01*
X67000000Y-64490122D02*
X67001195Y-64441423D01*
X71858320Y-61410076D02*
X71858399Y-61409836D01*
X81995229Y-5892963D02*
X81998804Y-5941423D01*
X71379672Y-69673690D02*
X71364479Y-69654062D01*
X78424025Y-68947640D02*
X78423808Y-68947771D01*
X78423808Y-124552228D02*
X78424025Y-124552359D01*
X143805173Y-11599740D02*
X143775278Y-11638047D01*
X70724015Y-62954792D02*
X70826106Y-62879825D01*
X71454792Y-123724015D02*
X71454939Y-123723809D01*
X7715719Y-62444299D02*
X7715882Y-62444493D01*
X9809Y-57D02*
X9318Y-81D01*
X7312337Y-70167814D02*
X7301405Y-70190100D01*
X7000160Y-71493668D02*
X7000158Y-71493794D01*
X71057500Y-62682871D02*
X71057686Y-62682698D01*
X416Y-131992612D02*
X559Y-131993082D01*
X67057874Y-5656480D02*
X67075362Y-5611144D01*
X71935780Y-9384011D02*
X71935726Y-9383763D01*
X5004770Y-120892963D02*
X5010718Y-120844737D01*
X76388855Y-58575362D02*
X76433278Y-58595053D01*
X81297380Y-126957368D02*
X81250549Y-126970328D01*
X143560012Y-126833152D02*
X143518960Y-126859148D01*
X143203138Y-11980974D02*
X143155262Y-11989281D01*
X7312337Y-61832185D02*
X7312451Y-61832411D01*
X78828462Y-7238524D02*
X78805652Y-7248312D01*
X141817353Y-8970071D02*
X141817268Y-8969833D01*
X72001195Y-11058576D02*
X72000000Y-11009877D01*
X140944493Y-69215882D02*
X140944299Y-69215719D01*
X78276190Y-124454939D02*
X78296563Y-124469119D01*
X71698594Y-61809899D02*
X71698702Y-61809671D01*
X143805173Y-58900259D02*
X143833152Y-58939987D01*
X5004770Y-59392963D02*
X5010718Y-59344737D01*
X9260382Y-63407095D02*
X9383763Y-63435726D01*
X77732218Y-123963517D02*
X77817128Y-124057500D01*
X5400259Y-120194826D02*
X5439987Y-120166847D01*
X77530738Y-62203226D02*
X77530880Y-62203436D01*
X5001195Y-72558576D02*
X5000000Y-72509877D01*
X143989281Y-126155262D02*
X143980974Y-126203138D01*
X137611144Y-5075362D02*
X137656480Y-5057874D01*
X11980974Y-5796861D02*
X11989281Y-5844737D01*
X81009877Y-125000000D02*
X81058576Y-125001195D01*
X71284280Y-62444299D02*
X71364321Y-62346136D01*
X67224721Y-5361952D02*
X67256460Y-5325158D01*
X140030166Y-63317268D02*
X140053443Y-63308648D01*
X69909836Y-7141600D02*
X69886152Y-7134169D01*
X8805421Y-7248415D02*
X8690328Y-7301297D01*
X79235862Y-124900746D02*
X79236107Y-124900812D01*
X67116900Y-5523318D02*
X67140851Y-5481039D01*
X69616236Y-68564273D02*
X69615988Y-68564219D01*
X79860463Y-63496460D02*
X79860716Y-63496470D01*
X77620327Y-123826309D02*
X77635520Y-123845937D01*
X137481039Y-63640851D02*
X137523318Y-63616900D01*
X6859148Y-120481039D02*
X6883099Y-120523318D01*
X77530738Y-69796773D02*
X77461038Y-69902530D01*
X77238524Y-70328462D02*
X77238427Y-70328696D01*
X72029671Y-11250549D02*
X72019025Y-11203138D01*
X67256460Y-6674841D02*
X67224721Y-6638047D01*
X77014430Y-71209126D02*
X77004812Y-71335420D01*
X10006333Y-68500000D02*
X10006207Y-68500000D01*
X77059223Y-61091674D02*
X77064219Y-61115988D01*
X139909836Y-7141600D02*
X139886152Y-7134169D01*
X141165597Y-124075677D02*
X141182698Y-124057686D01*
X141057500Y-69317128D02*
X140963517Y-69232218D01*
X139441716Y-63467005D02*
X139441967Y-63466970D01*
X5892963Y-126995229D02*
X5844737Y-126989281D01*
X137941423Y-6998804D02*
X137892963Y-6995229D01*
X141966970Y-9558032D02*
X141963211Y-9533496D01*
X69466503Y-7036788D02*
X69441967Y-7033029D01*
X69139536Y-63496460D02*
X69164326Y-63495203D01*
X7016963Y-71184179D02*
X7014452Y-71208874D01*
X142289966Y-11710033D02*
X142256460Y-11674841D01*
X71865830Y-122886152D02*
X71865902Y-122885909D01*
X6710033Y-73210033D02*
X6674841Y-73243539D01*
X143970328Y-5749450D02*
X143980974Y-5796861D01*
X140171537Y-63261475D02*
X140194347Y-63251687D01*
X78805421Y-124751584D02*
X78805652Y-124751687D01*
X5042631Y-11297380D02*
X5029671Y-11250549D01*
X11989281Y-6155262D02*
X11980974Y-6203138D01*
X137400259Y-63694826D02*
X137439987Y-63666847D01*
X76998804Y-72558576D02*
X76995229Y-72607036D01*
X70575974Y-124552359D02*
X70576191Y-124552228D01*
X11710033Y-6710033D02*
X11674841Y-6743539D01*
X142194826Y-73099740D02*
X142166847Y-73060012D01*
X7461038Y-123597469D02*
X7530738Y-123703226D01*
X11476681Y-6883099D02*
X11433278Y-6904946D01*
X8344Y-131999798D02*
X8830Y-131999870D01*
X70963517Y-69232218D02*
X70963327Y-69232050D01*
X137057874Y-5656480D02*
X137075362Y-5611144D01*
X140194578Y-7248415D02*
X140194347Y-7248312D01*
X7620174Y-8173893D02*
X7545207Y-8275984D01*
X140309671Y-68801297D02*
X140194578Y-68748415D01*
X78402743Y-7460901D02*
X78402530Y-7461038D01*
X71454792Y-62224015D02*
X71454939Y-62223809D01*
X76970328Y-11250549D02*
X76957368Y-11297380D01*
X143775278Y-120361952D02*
X143805173Y-120400259D01*
X137749450Y-125029671D02*
X137796861Y-125019025D01*
X148999918Y-9318D02*
X148999870Y-8830D01*
X77447640Y-8424025D02*
X77383386Y-8533176D01*
X137166847Y-125439987D02*
X137194826Y-125400259D01*
X81989281Y-126155262D02*
X81980974Y-126203138D01*
X5140851Y-5481039D02*
X5166847Y-5439987D01*
X71967005Y-122441716D02*
X71983007Y-122316071D01*
X76904946Y-72933278D02*
X76883099Y-72976681D01*
X6904946Y-72933278D02*
X6883099Y-72976681D01*
X141538961Y-62097469D02*
X141539098Y-62097256D01*
X8036672Y-124267949D02*
X8055506Y-124284117D01*
X142116900Y-11476681D02*
X142095053Y-11433278D01*
X5289966Y-11710033D02*
X5256460Y-11674841D01*
X72010718Y-120844737D02*
X72019025Y-120796861D01*
X137004770Y-125892963D02*
X137010718Y-125844737D01*
X81995229Y-64392963D02*
X81998804Y-64441423D01*
X71817353Y-8970071D02*
X71817268Y-8969833D01*
X141616613Y-61966823D02*
X141616738Y-61966603D01*
X1122Y-5558D02*
X912Y-6002D01*
X148992612Y-131999583D02*
X148993082Y-131999440D01*
X71751584Y-70305421D02*
X71698702Y-70190328D01*
X69763892Y-68599187D02*
X69739863Y-68592965D01*
X143107036Y-120004770D02*
X143155262Y-120010718D01*
X143980974Y-11203138D02*
X143970328Y-11250549D01*
X5749450Y-5029671D02*
X5796861Y-5019025D01*
X79260136Y-124907034D02*
X79260382Y-124907095D01*
X5892963Y-120004770D02*
X5941423Y-120001195D01*
X81805173Y-6599740D02*
X81775278Y-6638047D01*
X76995229Y-72607036D02*
X76989281Y-72655262D01*
X143775278Y-126638047D02*
X143743539Y-126674841D01*
X71469119Y-8296563D02*
X71454939Y-8276190D01*
X137075362Y-5611144D02*
X137095053Y-5566721D01*
X79835420Y-7004812D02*
X79709126Y-7014430D01*
X9383763Y-68564273D02*
X9260382Y-68592904D01*
X137095053Y-67933278D02*
X137075362Y-67888855D01*
X7141679Y-61410076D02*
X7182646Y-61529928D01*
X78055700Y-124284280D02*
X78153863Y-124364321D01*
X7715719Y-123944299D02*
X7715882Y-123944493D01*
X70963517Y-124267781D02*
X71057500Y-124182871D01*
X139616236Y-124935726D02*
X139739617Y-124907095D01*
X142256460Y-58825158D02*
X142289966Y-58789966D01*
X5523318Y-58616900D02*
X5566721Y-58595053D01*
X67224721Y-68138047D02*
X67194826Y-68099740D01*
X3522Y-131997517D02*
X3902Y-131997829D01*
X7635520Y-69654062D02*
X7620327Y-69673690D01*
X6518960Y-11859148D02*
X6476681Y-11883099D01*
X70576191Y-7447771D02*
X70575974Y-7447640D01*
X11998804Y-6058576D02*
X11995229Y-6107036D01*
X8296563Y-124469119D02*
X8296773Y-124469261D01*
X7004812Y-9835420D02*
X7004796Y-9835673D01*
X77834579Y-124075858D02*
X77924141Y-124165420D01*
X72042631Y-72797380D02*
X72029671Y-72750549D01*
X81250549Y-68470328D02*
X81203138Y-68480974D01*
X6859148Y-58981039D02*
X6883099Y-59023318D01*
X141995187Y-60664579D02*
X141995203Y-60664326D01*
X137256460Y-126674841D02*
X137224721Y-126638047D01*
X143297380Y-73457368D02*
X143250549Y-73470328D01*
X139290873Y-63485569D02*
X139291125Y-63485547D01*
X76599740Y-58694826D02*
X76638047Y-58724721D01*
X79408325Y-124940776D02*
X79408574Y-124940824D01*
X69764137Y-124900746D02*
X69885909Y-124865902D01*
X5194826Y-58900259D02*
X5224721Y-58861952D01*
X9114090Y-124865902D02*
X9235862Y-124900746D01*
X137001195Y-67558576D02*
X137000000Y-67509877D01*
X67075362Y-6388855D02*
X67057874Y-6343519D01*
X7545207Y-62224015D02*
X7620174Y-62326106D01*
X78055506Y-62784117D02*
X78055700Y-62784280D01*
X78946319Y-68691442D02*
X78828696Y-68738427D01*
X71865902Y-9114090D02*
X71865830Y-9113847D01*
X77092904Y-9260382D02*
X77064273Y-9383763D01*
X142029671Y-72750549D02*
X142019025Y-72703138D01*
X5075362Y-126388855D02*
X5057874Y-126343519D01*
X5566721Y-58595053D02*
X5611144Y-58575362D01*
X9089923Y-7141679D02*
X8970071Y-7182646D01*
X9683928Y-7016992D02*
X9558283Y-7032994D01*
X69615988Y-63435780D02*
X69616236Y-63435726D01*
X143883099Y-5523318D02*
X143904946Y-5566721D01*
X7834579Y-62575858D02*
X7924141Y-62665420D01*
X81989281Y-5844737D02*
X81995229Y-5892963D01*
X141900746Y-122764137D02*
X141900812Y-122763892D01*
X72004770Y-11107036D02*
X72001195Y-11058576D01*
X71858399Y-9090163D02*
X71858320Y-9089923D01*
X8667814Y-124687662D02*
X8690100Y-124698594D01*
X142990122Y-120000000D02*
X143009877Y-120000000D01*
X137749450Y-63529671D02*
X137796861Y-63519025D01*
X141267781Y-69536482D02*
X141182871Y-69442499D01*
X144000000Y-59490122D02*
X144000000Y-72509877D01*
X9260382Y-124907095D02*
X9383763Y-124935726D01*
X71454792Y-8275984D02*
X71379825Y-8173893D01*
X8173690Y-7620327D02*
X8154062Y-7635520D01*
X142439987Y-120166847D02*
X142481039Y-120140851D01*
X143674841Y-5256460D02*
X143710033Y-5289966D01*
X77092904Y-70760382D02*
X77064273Y-70883763D01*
X8690100Y-68801405D02*
X8667814Y-68812337D01*
X137439987Y-68333152D02*
X137400259Y-68305173D01*
X81433278Y-126904946D02*
X81388855Y-126924637D01*
X72166847Y-58939987D02*
X72194826Y-58900259D01*
X5001195Y-59441423D02*
X5004770Y-59392963D01*
X9860463Y-68503539D02*
X9835673Y-68504796D01*
X142702619Y-73457368D02*
X142656480Y-73442125D01*
X8690100Y-63198594D02*
X8690328Y-63198702D01*
X78533176Y-63116613D02*
X78533396Y-63116738D01*
X140444677Y-68871094D02*
X140332411Y-68812451D01*
X141963211Y-9533496D02*
X141963170Y-9533246D01*
X77817128Y-7942499D02*
X77732218Y-8036482D01*
X8969833Y-68682731D02*
X8946556Y-68691351D01*
X7134097Y-9114090D02*
X7099253Y-9235862D01*
X77715882Y-62444493D02*
X77732050Y-62463327D01*
X72361952Y-73275278D02*
X72325158Y-73243539D01*
X141165420Y-7924141D02*
X141075858Y-7834579D01*
X7238427Y-123171303D02*
X7238524Y-123171537D01*
X5001195Y-126058576D02*
X5000000Y-126009877D01*
X71075858Y-62665420D02*
X71165420Y-62575858D01*
X8946556Y-63308648D02*
X8969833Y-63317268D01*
X67702619Y-68457368D02*
X67656480Y-68442125D01*
X6710033Y-120289966D02*
X6743539Y-120325158D01*
X78946556Y-63308648D02*
X78969833Y-63317268D01*
X77301405Y-61809899D02*
X77312337Y-61832185D01*
X137057874Y-6343519D02*
X137042631Y-6297380D01*
X69139536Y-7003539D02*
X69139283Y-7003529D01*
X11995229Y-125892963D02*
X11998804Y-125941423D01*
X67702619Y-5042631D02*
X67749450Y-5029671D01*
X137042631Y-5702619D02*
X137057874Y-5656480D01*
X71687662Y-8667814D02*
X71687548Y-8667588D01*
X71687548Y-8667588D02*
X71628905Y-8555322D01*
X72523318Y-58616900D02*
X72566721Y-58595053D01*
X139441967Y-7033029D02*
X139441716Y-7032994D01*
X5224721Y-11638047D02*
X5194826Y-11599740D01*
X67166847Y-5439987D02*
X67194826Y-5400259D01*
X139616236Y-7064273D02*
X139615988Y-7064219D01*
X69316071Y-7016992D02*
X69315820Y-7016963D01*
X5095053Y-72933278D02*
X5075362Y-72888855D01*
X76998804Y-120941423D02*
X77000000Y-120990122D01*
X11998804Y-64441423D02*
X12000000Y-64490122D01*
X67256460Y-68174841D02*
X67224721Y-68138047D01*
X67042631Y-126297380D02*
X67029671Y-126250549D01*
X72042631Y-120702619D02*
X72057874Y-120656480D01*
X71182871Y-124057500D02*
X71267781Y-123963517D01*
X148995295Y-1605D02*
X148994874Y-1353D01*
X81297380Y-5042631D02*
X81343519Y-5057874D01*
X69290873Y-7014430D02*
X69164579Y-7004812D01*
X8154062Y-124364479D02*
X8173690Y-124379672D01*
X143343519Y-5057874D02*
X143388855Y-5075362D01*
X11638047Y-6775278D02*
X11599740Y-6805173D01*
X77134097Y-122885909D02*
X77134169Y-122886152D01*
X79384011Y-7064219D02*
X79383763Y-7064273D01*
X143710033Y-120289966D02*
X143743539Y-120325158D01*
X81970328Y-5749450D02*
X81980974Y-5796861D01*
X137361952Y-126775278D02*
X137325158Y-126743539D01*
X71552359Y-123575974D02*
X71616613Y-123466823D01*
X72116900Y-72976681D02*
X72095053Y-72933278D01*
X141983036Y-60815820D02*
X141985547Y-60791125D01*
X137400259Y-68305173D02*
X137361952Y-68275278D01*
X5844737Y-120010718D02*
X5892963Y-120004770D01*
X6343519Y-58557874D02*
X6388855Y-58575362D01*
X8690328Y-68801297D02*
X8690100Y-68801405D01*
X78805421Y-63251584D02*
X78805652Y-63251687D01*
X5057874Y-11343519D02*
X5042631Y-11297380D01*
X140444900Y-63128785D02*
X140466603Y-63116738D01*
X71075677Y-62665597D02*
X71075858Y-62665420D01*
X137095053Y-6433278D02*
X137075362Y-6388855D01*
X67892963Y-125004770D02*
X67941423Y-125001195D01*
X70029928Y-124817353D02*
X70030166Y-124817268D01*
X142361952Y-120224721D02*
X142400259Y-120194826D01*
X143107036Y-5004770D02*
X143155262Y-5010718D01*
X72000000Y-121993666D02*
X72000000Y-120990122D01*
X67439987Y-6833152D02*
X67400259Y-6805173D01*
X143518960Y-73359148D02*
X143476681Y-73383099D01*
X7182731Y-8969833D02*
X7182646Y-8970071D01*
X67019025Y-67703138D02*
X67010718Y-67655262D01*
X81638047Y-125224721D02*
X81674841Y-125256460D01*
X71364479Y-69654062D02*
X71364321Y-69653863D01*
X137941423Y-68498804D02*
X137892963Y-68495229D01*
X143957368Y-72797380D02*
X143942125Y-72843519D01*
X76009877Y-120000000D02*
X76058576Y-120001195D01*
X79114090Y-124865902D02*
X79235862Y-124900746D01*
X76859148Y-58981039D02*
X76883099Y-59023318D01*
X11560012Y-125166847D02*
X11599740Y-125194826D01*
X9683928Y-124983007D02*
X9684179Y-124983036D01*
X69164326Y-63495203D02*
X69164579Y-63495187D01*
X77620327Y-69673690D02*
X77620174Y-69673893D01*
X76297380Y-73457368D02*
X76250549Y-73470328D01*
X5004770Y-72607036D02*
X5001195Y-72558576D01*
X77371214Y-123444900D02*
X77383261Y-123466603D01*
X71858399Y-70590163D02*
X71858320Y-70589923D01*
X7059175Y-61091425D02*
X7059223Y-61091674D01*
X11942125Y-126343519D02*
X11924637Y-126388855D01*
X6518960Y-73359148D02*
X6476681Y-73383099D01*
X71817268Y-70469833D02*
X71808648Y-70446556D01*
X148999087Y-6002D02*
X148998877Y-5558D01*
X142844737Y-120010718D02*
X142892963Y-120004770D01*
X137289966Y-6710033D02*
X137256460Y-6674841D01*
X139763892Y-124900812D02*
X139764137Y-124900746D01*
X9993794Y-7000158D02*
X9993668Y-7000160D01*
X71698594Y-8690100D02*
X71687662Y-8667814D01*
X140194347Y-7248312D02*
X140171537Y-7238524D01*
X142140851Y-11518960D02*
X142116900Y-11476681D01*
X5941423Y-120001195D02*
X5990122Y-120000000D01*
X10006333Y-125000000D02*
X11009877Y-125000000D01*
X71284117Y-123944493D02*
X71284280Y-123944299D01*
X5289966Y-126710033D02*
X5256460Y-126674841D01*
X143998804Y-11058576D02*
X143995229Y-11107036D01*
X78296773Y-62969261D02*
X78402530Y-63038961D01*
X7924141Y-124165420D02*
X7924322Y-124165597D01*
X6942125Y-59156480D02*
X6957368Y-59202619D01*
X71808557Y-8946319D02*
X71761572Y-8828696D01*
X78173893Y-69120174D02*
X78173690Y-69120327D01*
X77182646Y-123029928D02*
X77182731Y-123030166D01*
X148991169Y-129D02*
X148990681Y-81D01*
X76009877Y-73500000D02*
X72990122Y-73500000D01*
X71075677Y-124165597D02*
X71075858Y-124165420D01*
X72057874Y-11343519D02*
X72042631Y-11297380D01*
X144000000Y-126009877D02*
X143998804Y-126058576D01*
X0Y-12272D02*
X0Y-131987727D01*
X142749450Y-58529671D02*
X142796861Y-58519025D01*
X5523318Y-73383099D02*
X5481039Y-73359148D01*
X77059175Y-122591425D02*
X77059223Y-122591674D01*
X141284117Y-62444493D02*
X141284280Y-62444299D01*
X77000160Y-122006331D02*
X77003529Y-122139283D01*
X76859148Y-11518960D02*
X76833152Y-11560012D01*
X67057874Y-6343519D02*
X67042631Y-6297380D01*
X6805173Y-120400259D02*
X6833152Y-120439987D01*
X137042631Y-6297380D02*
X137029671Y-6250549D01*
X77635678Y-8153863D02*
X77635520Y-8154062D01*
X137325158Y-6743539D02*
X137289966Y-6710033D01*
X7447771Y-123576191D02*
X7460901Y-123597256D01*
X6743539Y-73174841D02*
X6710033Y-73210033D01*
X7064273Y-122616236D02*
X7092904Y-122739617D01*
X5256460Y-120325158D02*
X5289966Y-120289966D01*
X11599740Y-63694826D02*
X11638047Y-63724721D01*
X141808557Y-70446319D02*
X141761572Y-70328696D01*
X141817353Y-123029928D02*
X141858320Y-122910076D01*
X11710033Y-68210033D02*
X11674841Y-68243539D01*
X81904946Y-5566721D02*
X81924637Y-5611144D01*
X81476681Y-63616900D02*
X81518960Y-63640851D01*
X7371094Y-70055322D02*
X7312451Y-70167588D01*
X143297380Y-126957368D02*
X143250549Y-126970328D01*
X7141600Y-9090163D02*
X7134169Y-9113847D01*
X140466823Y-7383386D02*
X140466603Y-7383261D01*
X6775278Y-11638047D02*
X6743539Y-11674841D01*
X7371094Y-8555322D02*
X7312451Y-8667588D01*
X77134169Y-70613847D02*
X77134097Y-70614090D01*
X70944493Y-69215882D02*
X70944299Y-69215719D01*
X67289966Y-6710033D02*
X67256460Y-6674841D01*
X7732218Y-62463517D02*
X7817128Y-62557500D01*
X142010718Y-11155262D02*
X142004770Y-11107036D01*
X69164579Y-124995187D02*
X69290873Y-124985569D01*
X71995187Y-71335420D02*
X71985569Y-71209126D01*
X67481039Y-5140851D02*
X67523318Y-5116900D01*
X77003529Y-9860716D02*
X77000160Y-9993668D01*
X7000000Y-121993792D02*
X7000158Y-122006205D01*
X72029671Y-72750549D02*
X72019025Y-72703138D01*
X8946319Y-124808557D02*
X8946556Y-124808648D01*
X77064219Y-9384011D02*
X77059223Y-9408325D01*
X78173893Y-124379825D02*
X78275984Y-124454792D01*
X6775278Y-58861952D02*
X6805173Y-58900259D01*
X72796861Y-73480974D02*
X72749450Y-73470328D01*
X6009877Y-58500000D02*
X6058576Y-58501195D01*
X6970328Y-120749450D02*
X6980974Y-120796861D01*
X77004812Y-9835420D02*
X77004796Y-9835673D01*
X141900746Y-70735862D02*
X141865902Y-70614090D01*
X143058576Y-120001195D02*
X143107036Y-120004770D01*
X143883099Y-72976681D02*
X143859148Y-73018960D01*
X5194826Y-120400259D02*
X5224721Y-120361952D01*
X78055506Y-124284117D02*
X78055700Y-124284280D01*
X143638047Y-73275278D02*
X143599740Y-73305173D01*
X11859148Y-125481039D02*
X11883099Y-125523318D01*
X69910076Y-124858320D02*
X70029928Y-124817353D01*
X70597256Y-7460901D02*
X70576191Y-7447771D01*
X7732050Y-62463327D02*
X7732218Y-62463517D01*
X137004770Y-67607036D02*
X137001195Y-67558576D01*
X78424025Y-7447640D02*
X78423808Y-7447771D01*
X69885909Y-68634097D02*
X69764137Y-68599253D01*
X70194578Y-7248415D02*
X70194347Y-7248312D01*
X143560012Y-73333152D02*
X143518960Y-73359148D01*
X8296773Y-69030738D02*
X8296563Y-69030880D01*
X143009877Y-12000000D02*
X142990122Y-12000000D01*
X143883099Y-59023318D02*
X143904946Y-59066721D01*
X139886152Y-63365830D02*
X139909836Y-63358399D01*
X141999841Y-9993794D02*
X141999839Y-9993668D01*
X71935726Y-122616236D02*
X71935780Y-122615988D01*
X5010718Y-11155262D02*
X5004770Y-11107036D01*
X142116900Y-120523318D02*
X142140851Y-120481039D01*
X7036788Y-60966503D02*
X7036829Y-60966753D01*
X8970071Y-63317353D02*
X9089923Y-63358320D01*
X137224721Y-5361952D02*
X137256460Y-5325158D01*
X71687548Y-123332411D02*
X71687662Y-123332185D01*
X5140851Y-120481039D02*
X5166847Y-120439987D01*
X148995703Y-1878D02*
X148995295Y-1605D01*
X139739863Y-7092965D02*
X139739617Y-7092904D01*
X137075362Y-6388855D02*
X137057874Y-6343519D01*
X77942499Y-7817128D02*
X77942313Y-7817301D01*
X77032994Y-122441716D02*
X77033029Y-122441967D01*
X77191442Y-123053680D02*
X77238427Y-123171303D01*
X12027Y-131999996D02*
X12272Y-132000000D01*
X141057686Y-124182698D02*
X141075677Y-124165597D01*
X72140851Y-73018960D02*
X72116900Y-72976681D01*
X143989281Y-59344737D02*
X143995229Y-59392963D01*
X71985569Y-122290873D02*
X71995187Y-122164579D01*
X70194347Y-63251687D02*
X70194578Y-63251584D01*
X8036672Y-69232050D02*
X8036482Y-69232218D01*
X72289966Y-120289966D02*
X72325158Y-120256460D01*
X7064219Y-61115988D02*
X7064273Y-61116236D01*
X138993792Y-7000000D02*
X138993666Y-7000000D01*
X143107036Y-73495229D02*
X143058576Y-73498804D01*
X78154062Y-124364479D02*
X78173690Y-124379672D01*
X143995229Y-11107036D02*
X143989281Y-11155262D01*
X79558283Y-68532994D02*
X79558032Y-68533029D01*
X8555099Y-63128785D02*
X8555322Y-63128905D01*
X140466603Y-68883261D02*
X140444900Y-68871214D01*
X77312337Y-70167814D02*
X77301405Y-70190100D01*
X140723809Y-62954939D02*
X140724015Y-62954792D01*
X71996460Y-71360463D02*
X71995203Y-71335673D01*
X142749450Y-11970328D02*
X142702619Y-11957368D01*
X71057500Y-7817128D02*
X70963517Y-7732218D01*
X6107036Y-11995229D02*
X6058576Y-11998804D01*
X7834579Y-124075858D02*
X7924141Y-124165420D01*
X68993666Y-63500000D02*
X68993792Y-63499999D01*
X72000000Y-59490122D02*
X72001195Y-59441423D01*
X2482Y-3522D02*
X2170Y-3902D01*
X71267781Y-8036482D02*
X71182871Y-7942499D01*
X72010718Y-11155262D02*
X72004770Y-11107036D01*
X77014452Y-60791125D02*
X77016963Y-60815820D01*
X81155262Y-5010718D02*
X81203138Y-5019025D01*
X70332185Y-7312337D02*
X70309899Y-7301405D01*
X71751687Y-70305652D02*
X71751584Y-70305421D01*
X78153863Y-124364321D02*
X78154062Y-124364479D01*
X78153863Y-62864321D02*
X78154062Y-62864479D01*
X77064273Y-122616236D02*
X77092904Y-122739617D01*
X77312451Y-70167588D02*
X77312337Y-70167814D01*
X70029928Y-68682646D02*
X69910076Y-68641679D01*
X76980974Y-120796861D02*
X76989281Y-120844737D01*
X67611144Y-125075362D02*
X67656480Y-125057874D01*
X71999839Y-71493668D02*
X71996470Y-71360716D01*
X72611144Y-58575362D02*
X72656480Y-58557874D01*
X67075362Y-67888855D02*
X67057874Y-67843519D01*
X143476681Y-58616900D02*
X143518960Y-58640851D01*
X139910076Y-63358320D02*
X140029928Y-63317353D01*
X141538961Y-69902530D02*
X141469261Y-69796773D01*
X78036672Y-7732050D02*
X78036482Y-7732218D01*
X77817128Y-69442499D02*
X77732218Y-69536482D01*
X7301405Y-70190100D02*
X7301297Y-70190328D01*
X137194826Y-6599740D02*
X137166847Y-6560012D01*
X11155262Y-5010718D02*
X11203138Y-5019025D01*
X76805173Y-73099740D02*
X76775278Y-73138047D01*
X149000000Y-12272D02*
X148999996Y-12027D01*
D11*
X77000000Y3000000D02*
X77000000Y-135000000D01*
D10*
X7387Y-131999583D02*
X7863Y-131999702D01*
X7248415Y-8805421D02*
X7248312Y-8805652D01*
X5656480Y-120057874D02*
X5702619Y-120042631D01*
X7000158Y-9993794D02*
X7000000Y-10006207D01*
X81009877Y-68500000D02*
X80006333Y-68500000D01*
X7191442Y-70446319D02*
X7191351Y-70446556D01*
X141616738Y-70033396D02*
X141616613Y-70033176D01*
X71284117Y-8055506D02*
X71267949Y-8036672D01*
X5611144Y-11924637D02*
X5566721Y-11904946D01*
X5656480Y-5057874D02*
X5702619Y-5042631D01*
X69164579Y-68504812D02*
X69164326Y-68504796D01*
X142289966Y-58789966D02*
X142325158Y-58756460D01*
X9993668Y-68500160D02*
X9860716Y-68503529D01*
X77545060Y-62223809D02*
X77545207Y-62224015D01*
X143476681Y-73383099D02*
X143433278Y-73404946D01*
X71940776Y-70908325D02*
X71935780Y-70884011D01*
X7635520Y-8154062D02*
X7620327Y-8173690D01*
X77924141Y-69334579D02*
X77834579Y-69424141D01*
X148992136Y-131999702D02*
X148992612Y-131999583D01*
X7732218Y-69536482D02*
X7732050Y-69536672D01*
X5042631Y-126297380D02*
X5029671Y-126250549D01*
X143970328Y-120749450D02*
X143980974Y-120796861D01*
X11388855Y-5075362D02*
X11433278Y-5095053D01*
X81980974Y-64296861D02*
X81989281Y-64344737D01*
X142019025Y-11203138D02*
X142010718Y-11155262D01*
X11883099Y-5523318D02*
X11904946Y-5566721D01*
X8055700Y-62784280D02*
X8153863Y-62864321D01*
X142892963Y-120004770D02*
X142941423Y-120001195D01*
X79708874Y-68514452D02*
X79684179Y-68516963D01*
X137796861Y-125019025D02*
X137844737Y-125010718D01*
X139739617Y-7092904D02*
X139616236Y-7064273D01*
X11743539Y-6674841D02*
X11710033Y-6710033D01*
X77545207Y-62224015D02*
X77620174Y-62326106D01*
X71628905Y-123444677D02*
X71687548Y-123332411D01*
X141267949Y-69536672D02*
X141267781Y-69536482D01*
X142361952Y-73275278D02*
X142325158Y-73243539D01*
X137042631Y-125702619D02*
X137057874Y-125656480D01*
X72166847Y-11560012D02*
X72140851Y-11518960D01*
X78296563Y-62969119D02*
X78296773Y-62969261D01*
X8828462Y-124761475D02*
X8828696Y-124761572D01*
X72116900Y-59023318D02*
X72140851Y-58981039D01*
X11710033Y-63789966D02*
X11743539Y-63825158D01*
X77248312Y-8805652D02*
X77238524Y-8828462D01*
X72990122Y-120000000D02*
X76009877Y-120000000D01*
X77817301Y-62557686D02*
X77834402Y-62575677D01*
X143995229Y-120892963D02*
X143998804Y-120941423D01*
X137289966Y-5289966D02*
X137325158Y-5256460D01*
X71907095Y-70760382D02*
X71907034Y-70760136D01*
X69764137Y-63400746D02*
X69885909Y-63365902D01*
X80006333Y-68500000D02*
X80006207Y-68500000D01*
X148999087Y-131993997D02*
X148999275Y-131993544D01*
X81560012Y-125166847D02*
X81599740Y-125194826D01*
X71985569Y-60790873D02*
X71995187Y-60664579D01*
X67439987Y-63666847D02*
X67481039Y-63640851D01*
X141284117Y-69555506D02*
X141267949Y-69536672D01*
X141996460Y-122139536D02*
X141996470Y-122139283D01*
X5166847Y-120439987D02*
X5194826Y-120400259D01*
X5001195Y-11058576D02*
X5000000Y-11009877D01*
X9318Y-81D02*
X8830Y-129D01*
X7447771Y-69923808D02*
X7447640Y-69924025D01*
X71267949Y-62463327D02*
X71284117Y-62444493D01*
X77447640Y-62075974D02*
X77447771Y-62076191D01*
X143980974Y-126203138D02*
X143970328Y-126250549D01*
X72400259Y-120194826D02*
X72439987Y-120166847D01*
X143058576Y-126998804D02*
X143009877Y-127000000D01*
X7036829Y-9533246D02*
X7036788Y-9533496D01*
X9260382Y-68592904D02*
X9260136Y-68592965D01*
X148997517Y-131996477D02*
X148997829Y-131996097D01*
X140845937Y-7635520D02*
X140826309Y-7620327D01*
X7460901Y-69902743D02*
X7447771Y-69923808D01*
X81833152Y-5439987D02*
X81859148Y-5481039D01*
X139909836Y-124858399D02*
X139910076Y-124858320D01*
X70963517Y-62767781D02*
X71057500Y-62682871D01*
X77383261Y-70033396D02*
X77371214Y-70055099D01*
X9408325Y-7059223D02*
X9384011Y-7064219D01*
X141379825Y-69673893D02*
X141379672Y-69673690D01*
X8555099Y-7371214D02*
X8533396Y-7383261D01*
X67042631Y-64202619D02*
X67057874Y-64156480D01*
X141182871Y-124057500D02*
X141267781Y-123963517D01*
X5749450Y-58529671D02*
X5796861Y-58519025D01*
X11560012Y-68333152D02*
X11518960Y-68359148D01*
X5095053Y-11433278D02*
X5075362Y-11388855D01*
X67256460Y-125325158D02*
X67289966Y-125289966D01*
X81343519Y-125057874D02*
X81388855Y-125075362D01*
X143599740Y-58694826D02*
X143638047Y-58724721D01*
X72656480Y-120057874D02*
X72702619Y-120042631D01*
X148993082Y-559D02*
X148992612Y-416D01*
X9993794Y-68500158D02*
X9993668Y-68500160D01*
X79113847Y-68634169D02*
X79090163Y-68641600D01*
X140963517Y-62767781D02*
X141057500Y-62682871D01*
X9384011Y-7064219D02*
X9383763Y-7064273D01*
X2170Y-131996097D02*
X2482Y-131996477D01*
X71698702Y-61809671D02*
X71751584Y-61694578D01*
X137095053Y-125566721D02*
X137116900Y-125523318D01*
X141616613Y-123466823D02*
X141616738Y-123466603D01*
X67481039Y-126859148D02*
X67439987Y-126833152D01*
X67844737Y-125010718D02*
X67892963Y-125004770D01*
X8055506Y-62784117D02*
X8055700Y-62784280D01*
X11599740Y-5194826D02*
X11638047Y-5224721D01*
X70703436Y-62969119D02*
X70723809Y-62954939D01*
X67325158Y-126743539D02*
X67289966Y-126710033D01*
X143883099Y-126476681D02*
X143859148Y-126518960D01*
X78555322Y-124628905D02*
X78667588Y-124687548D01*
X9860716Y-7003529D02*
X9860463Y-7003539D01*
X67116900Y-126476681D02*
X67095053Y-126433278D01*
X79533246Y-68536829D02*
X79408574Y-68559175D01*
X67361952Y-68275278D02*
X67325158Y-68243539D01*
X78154062Y-69135520D02*
X78153863Y-69135678D01*
X77014430Y-122290873D02*
X77014452Y-122291125D01*
X67941423Y-126998804D02*
X67892963Y-126995229D01*
X5042631Y-120702619D02*
X5057874Y-120656480D01*
X148996097Y-131997829D02*
X148996477Y-131997517D01*
X148999440Y-6917D02*
X148999275Y-6455D01*
X10006333Y-63500000D02*
X11009877Y-63500000D01*
X143599740Y-120194826D02*
X143638047Y-120224721D01*
X11560012Y-63666847D02*
X11599740Y-63694826D01*
X79260382Y-68592904D02*
X79260136Y-68592965D01*
X143833152Y-73060012D02*
X143805173Y-73099740D01*
X67095053Y-64066721D02*
X67116900Y-64023318D01*
X141751687Y-123194347D02*
X141761475Y-123171537D01*
X76904946Y-59066721D02*
X76924637Y-59111144D01*
X141469261Y-69796773D02*
X141469119Y-69796563D01*
X71996470Y-122139283D02*
X71999839Y-122006331D01*
X137523318Y-5116900D02*
X137566721Y-5095053D01*
X7924322Y-69334402D02*
X7924141Y-69334579D01*
X5481039Y-11859148D02*
X5439987Y-11833152D01*
X137289966Y-68210033D02*
X137256460Y-68174841D01*
X72400259Y-11805173D02*
X72361952Y-11775278D01*
X78970071Y-63317353D02*
X79089923Y-63358320D01*
X140576191Y-124552228D02*
X140597256Y-124539098D01*
X139441967Y-124966970D02*
X139466503Y-124963211D01*
X71539098Y-123597256D02*
X71552228Y-123576191D01*
X140194347Y-63251687D02*
X140194578Y-63251584D01*
X5941423Y-11998804D02*
X5892963Y-11995229D01*
X7036829Y-71033246D02*
X7036788Y-71033496D01*
X71900812Y-61263892D02*
X71907034Y-61239863D01*
X143674841Y-73243539D02*
X143638047Y-73275278D01*
X6904946Y-11433278D02*
X6883099Y-11476681D01*
X6989281Y-72655262D02*
X6980974Y-72703138D01*
X71996470Y-71360716D02*
X71996460Y-71360463D01*
X6058576Y-120001195D02*
X6107036Y-120004770D01*
X5029671Y-11250549D02*
X5019025Y-11203138D01*
X7460901Y-8402743D02*
X7447771Y-8423808D01*
X142400259Y-73305173D02*
X142361952Y-73275278D01*
X143638047Y-120224721D02*
X143674841Y-120256460D01*
X141364321Y-69653863D02*
X141284280Y-69555700D01*
X81009877Y-7000000D02*
X80006333Y-7000000D01*
X139763892Y-68599187D02*
X139739863Y-68592965D01*
X11924637Y-5611144D02*
X11942125Y-5656480D01*
X7003539Y-9860463D02*
X7003529Y-9860716D01*
X11833152Y-5439987D02*
X11859148Y-5481039D01*
X76775278Y-73138047D02*
X76743539Y-73174841D01*
X82000000Y-64490122D02*
X82000000Y-67509877D01*
X7191351Y-70446556D02*
X7182731Y-70469833D01*
X9408574Y-7059175D02*
X9408325Y-7059223D01*
X7134097Y-61385909D02*
X7134169Y-61386152D01*
X141379672Y-69673690D02*
X141364479Y-69654062D01*
X7460901Y-62097256D02*
X7461038Y-62097469D01*
X143904946Y-120566721D02*
X143924637Y-120611144D01*
X69006331Y-68500160D02*
X69006205Y-68500158D01*
X69591425Y-68559175D02*
X69466753Y-68536829D01*
X81518960Y-5140851D02*
X81560012Y-5166847D01*
X140703436Y-7530880D02*
X140703226Y-7530738D01*
X78036482Y-69232218D02*
X77942499Y-69317128D01*
X143674841Y-58756460D02*
X143710033Y-58789966D01*
X143942125Y-59156480D02*
X143957368Y-59202619D01*
X7447771Y-8423808D02*
X7447640Y-8424025D01*
X72941423Y-73498804D02*
X72892963Y-73495229D01*
X81710033Y-63789966D02*
X81743539Y-63825158D01*
X76833152Y-73060012D02*
X76805173Y-73099740D01*
X78828696Y-68738427D02*
X78828462Y-68738524D01*
X5125Y-131998646D02*
X5558Y-131998877D01*
X11107036Y-6995229D02*
X11058576Y-6998804D01*
X143942125Y-126343519D02*
X143924637Y-126388855D01*
X6917Y-131999440D02*
X7387Y-131999583D01*
X7134097Y-70614090D02*
X7099253Y-70735862D01*
X7732218Y-123963517D02*
X7817128Y-124057500D01*
X142749450Y-73470328D02*
X142702619Y-73457368D01*
X72001195Y-59441423D02*
X72004770Y-59392963D01*
X912Y-6002D02*
X724Y-6455D01*
X77732050Y-123963327D02*
X77732218Y-123963517D01*
X142796861Y-58519025D02*
X142844737Y-58510718D01*
X6942125Y-72843519D02*
X6924637Y-72888855D01*
X140466603Y-124616738D02*
X140466823Y-124616613D01*
X81107036Y-125004770D02*
X81155262Y-125010718D01*
X70826106Y-7620174D02*
X70724015Y-7545207D01*
X71364321Y-123846136D02*
X71364479Y-123845937D01*
X71907034Y-61239863D02*
X71907095Y-61239617D01*
X77312337Y-61832185D02*
X77312451Y-61832411D01*
X141900746Y-61264137D02*
X141900812Y-61263892D01*
X297Y-131992136D02*
X416Y-131992612D01*
X68993666Y-125000000D02*
X68993792Y-124999999D01*
X76942125Y-59156480D02*
X76957368Y-59202619D01*
X81560012Y-5166847D02*
X81599740Y-5194826D01*
X77000160Y-9993668D02*
X77000158Y-9993794D01*
X77033029Y-71058032D02*
X77032994Y-71058283D01*
X77461038Y-123597469D02*
X77530738Y-123703226D01*
X77016992Y-71183928D02*
X77016963Y-71184179D01*
X77238427Y-123171303D02*
X77238524Y-123171537D01*
X69466503Y-63463211D02*
X69466753Y-63463170D01*
X79260382Y-7092904D02*
X79260136Y-7092965D01*
X76989281Y-120844737D02*
X76995229Y-120892963D01*
X148990190Y-131999942D02*
X148990681Y-131999918D01*
X81638047Y-68275278D02*
X81599740Y-68305173D01*
X71865830Y-61386152D02*
X71865902Y-61385909D01*
X142000000Y-59490122D02*
X142001195Y-59441423D01*
X148996097Y-2170D02*
X148995703Y-1878D01*
X67166847Y-68060012D02*
X67140851Y-68018960D01*
X79860716Y-124996470D02*
X79993668Y-124999839D01*
X5256460Y-5325158D02*
X5289966Y-5289966D01*
X77099187Y-70736107D02*
X77092965Y-70760136D01*
X78275984Y-7545207D02*
X78173893Y-7620174D01*
X70309899Y-124698594D02*
X70332185Y-124687662D01*
X140703436Y-69030880D02*
X140703226Y-69030738D01*
X71761475Y-61671537D02*
X71761572Y-61671303D01*
X140029928Y-7182646D02*
X139910076Y-7141679D01*
X11883099Y-64023318D02*
X11904946Y-64066721D01*
X11107036Y-126995229D02*
X11058576Y-126998804D01*
X141935780Y-61115988D02*
X141940776Y-61091674D01*
X137116900Y-6476681D02*
X137095053Y-6433278D01*
X141751687Y-8805652D02*
X141751584Y-8805421D01*
X8402743Y-124539098D02*
X8423808Y-124552228D01*
X7099253Y-122764137D02*
X7134097Y-122885909D01*
X141364479Y-123845937D02*
X141379672Y-123826309D01*
X143155262Y-58510718D02*
X143203138Y-58519025D01*
X141182698Y-62557686D02*
X141182871Y-62557500D01*
X76203138Y-11980974D02*
X76155262Y-11989281D01*
X7248415Y-70305421D02*
X7248312Y-70305652D01*
X11599740Y-6805173D02*
X11560012Y-6833152D01*
X81833152Y-126560012D02*
X81805173Y-126599740D01*
X70030166Y-7182731D02*
X70029928Y-7182646D01*
X11297380Y-68457368D02*
X11250549Y-68470328D01*
X79860463Y-68503539D02*
X79835673Y-68504796D01*
X72095053Y-72933278D02*
X72075362Y-72888855D01*
X6924637Y-11388855D02*
X6904946Y-11433278D01*
X143518960Y-11859148D02*
X143476681Y-11883099D01*
X148998121Y-4296D02*
X148997829Y-3902D01*
X71983007Y-122316071D02*
X71983036Y-122315820D01*
X8690100Y-124698594D02*
X8690328Y-124698702D01*
X77064219Y-122615988D02*
X77064273Y-122616236D01*
X71454939Y-123723809D02*
X71469119Y-123703436D01*
X7000000Y-120990122D02*
X7000000Y-121993666D01*
X77134169Y-122886152D02*
X77141600Y-122909836D01*
X77460901Y-8402743D02*
X77447771Y-8423808D01*
X76970328Y-59249450D02*
X76980974Y-59296861D01*
X2811Y-131996840D02*
X3159Y-131997188D01*
X137057874Y-64156480D02*
X137075362Y-64111144D01*
X77014430Y-9709126D02*
X77004812Y-9835420D01*
X69006205Y-7000158D02*
X68993792Y-7000000D01*
X141454792Y-8275984D02*
X141379825Y-8173893D01*
X137439987Y-63666847D02*
X137481039Y-63640851D01*
X70597469Y-63038961D02*
X70703226Y-62969261D01*
X140826106Y-124379825D02*
X140826309Y-124379672D01*
X7191442Y-8946319D02*
X7191351Y-8946556D01*
X9408574Y-63440824D02*
X9533246Y-63463170D01*
X7092904Y-122739617D02*
X7092965Y-122739863D01*
X148992136Y-297D02*
X148991655Y-201D01*
X79533246Y-7036829D02*
X79408574Y-7059175D01*
X67656480Y-6942125D02*
X67611144Y-6924637D01*
X6203138Y-120019025D02*
X6250549Y-120029671D01*
X140597256Y-7460901D02*
X140576191Y-7447771D01*
X71057500Y-69317128D02*
X70963517Y-69232218D01*
X142000000Y-10006333D02*
X141999999Y-10006207D01*
X142796861Y-11980974D02*
X142749450Y-11970328D01*
X142566721Y-11904946D02*
X142523318Y-11883099D01*
X7036788Y-71033496D02*
X7033029Y-71058032D01*
X7238524Y-70328462D02*
X7238427Y-70328696D01*
X76904946Y-120566721D02*
X76924637Y-120611144D01*
X7238427Y-61671303D02*
X7238524Y-61671537D01*
X71858320Y-122910076D02*
X71858399Y-122909836D01*
X139910076Y-124858320D02*
X140029928Y-124817353D01*
X8276190Y-124454939D02*
X8296563Y-124469119D01*
X71935726Y-61116236D02*
X71935780Y-61115988D01*
X67166847Y-126560012D02*
X67140851Y-126518960D01*
X7301405Y-8690100D02*
X7301297Y-8690328D01*
X79558032Y-63466970D02*
X79558283Y-63467005D01*
X81343519Y-126942125D02*
X81297380Y-126957368D01*
X6674841Y-58756460D02*
X6710033Y-58789966D01*
X77301405Y-70190100D02*
X77301297Y-70190328D01*
X69290873Y-68514430D02*
X69164579Y-68504812D01*
X69139536Y-68503539D02*
X69139283Y-68503529D01*
X77715882Y-123944493D02*
X77732050Y-123963327D01*
X141454939Y-8276190D02*
X141454792Y-8275984D01*
X148996840Y-131997188D02*
X148997188Y-131996840D01*
X143743539Y-11674841D02*
X143710033Y-11710033D01*
X79860463Y-7003539D02*
X79835673Y-7004796D01*
X71817353Y-70470071D02*
X71817268Y-70469833D01*
X72019025Y-11203138D02*
X72010718Y-11155262D01*
X137566721Y-68404946D02*
X137523318Y-68383099D01*
X142361952Y-11775278D02*
X142325158Y-11743539D01*
X11805173Y-125400259D02*
X11833152Y-125439987D01*
X81638047Y-6775278D02*
X81599740Y-6805173D01*
X143297380Y-11957368D02*
X143250549Y-11970328D01*
X9533496Y-68536788D02*
X9533246Y-68536829D01*
X81250549Y-6970328D02*
X81203138Y-6980974D01*
X6002Y-912D02*
X5558Y-1122D01*
X8275984Y-69045207D02*
X8173893Y-69120174D01*
X142166847Y-120439987D02*
X142194826Y-120400259D01*
X76476681Y-120116900D02*
X76518960Y-120140851D01*
X141182698Y-7942313D02*
X141165597Y-7924322D01*
X7924141Y-69334579D02*
X7834579Y-69424141D01*
X141628905Y-123444677D02*
X141687548Y-123332411D01*
X72566721Y-73404946D02*
X72523318Y-73383099D01*
X72611144Y-73424637D02*
X72566721Y-73404946D01*
X81Y-9318D02*
X57Y-9809D01*
X12000000Y-64490122D02*
X12000000Y-67509877D01*
X71182698Y-62557686D02*
X71182871Y-62557500D01*
X141983007Y-71183928D02*
X141967005Y-71058283D01*
X72000000Y-72509877D02*
X72000000Y-71506333D01*
X137057874Y-125656480D02*
X137075362Y-125611144D01*
X148990681Y-131999918D02*
X148991169Y-131999870D01*
X71963211Y-71033496D02*
X71963170Y-71033246D01*
X77635520Y-8154062D02*
X77620327Y-8173690D01*
X78153863Y-69135678D02*
X78055700Y-69215719D01*
X72439987Y-11833152D02*
X72400259Y-11805173D01*
X72361952Y-120224721D02*
X72400259Y-120194826D01*
X139164579Y-68504812D02*
X139164326Y-68504796D01*
X77635678Y-62346136D02*
X77715719Y-62444299D01*
X70597256Y-68960901D02*
X70576191Y-68947771D01*
X139316071Y-7016992D02*
X139315820Y-7016963D01*
X79533246Y-63463170D02*
X79533496Y-63463211D01*
X79993794Y-63499841D02*
X80006207Y-63499999D01*
X79384011Y-68564219D02*
X79383763Y-68564273D01*
X72844737Y-11989281D02*
X72796861Y-11980974D01*
X76638047Y-120224721D02*
X76674841Y-120256460D01*
X141075858Y-62665420D02*
X141165420Y-62575858D01*
X67224721Y-6638047D02*
X67194826Y-6599740D01*
X7942313Y-62682698D02*
X7942499Y-62682871D01*
X77817128Y-62557500D02*
X77817301Y-62557686D01*
X11998804Y-5941423D02*
X12000000Y-5990122D01*
X142166847Y-73060012D02*
X142140851Y-73018960D01*
X8970071Y-124817353D02*
X9089923Y-124858320D01*
X78423808Y-63052228D02*
X78424025Y-63052359D01*
X79236107Y-7099187D02*
X79235862Y-7099253D01*
X12000000Y-125990122D02*
X12000000Y-126009877D01*
X11775278Y-63861952D02*
X11805173Y-63900259D01*
X70332411Y-68812451D02*
X70332185Y-68812337D01*
X142075362Y-11388855D02*
X142057874Y-11343519D01*
X72892963Y-58504770D02*
X72941423Y-58501195D01*
X6107036Y-120004770D02*
X6155262Y-120010718D01*
X70703226Y-62969261D02*
X70703436Y-62969119D01*
X5325158Y-11743539D02*
X5289966Y-11710033D01*
X77004812Y-60664579D02*
X77014430Y-60790873D01*
X142481039Y-120140851D02*
X142523318Y-120116900D01*
X81476681Y-68383099D02*
X81433278Y-68404946D01*
X143388855Y-73424637D02*
X143343519Y-73442125D01*
X6638047Y-58724721D02*
X6674841Y-58756460D01*
X11674841Y-5256460D02*
X11710033Y-5289966D01*
X148987727Y0D02*
X12272Y0D01*
X142439987Y-58666847D02*
X142481039Y-58640851D01*
X8402743Y-63039098D02*
X8423808Y-63052228D01*
X137095053Y-5566721D02*
X137116900Y-5523318D01*
X143203138Y-5019025D02*
X143250549Y-5029671D01*
X71808557Y-123053680D02*
X71808648Y-123053443D01*
X77635678Y-69653863D02*
X77635520Y-69654062D01*
X137990122Y-5000000D02*
X143009877Y-5000000D01*
X77036788Y-9533496D02*
X77033029Y-9558032D01*
X67166847Y-125439987D02*
X67194826Y-125400259D01*
X137075362Y-67888855D02*
X137057874Y-67843519D01*
X69886152Y-124865830D02*
X69909836Y-124858399D01*
X141940824Y-70908574D02*
X141940776Y-70908325D01*
X78402530Y-7461038D02*
X78296773Y-7530738D01*
X148997188Y-3159D02*
X148996840Y-2811D01*
X69164326Y-124995203D02*
X69164579Y-124995187D01*
X77530880Y-62203436D02*
X77545060Y-62223809D01*
X6904946Y-59066721D02*
X6924637Y-59111144D01*
X67194826Y-126599740D02*
X67166847Y-126560012D01*
X7014452Y-9708874D02*
X7014430Y-9709126D01*
X71165420Y-7924141D02*
X71075858Y-7834579D01*
X11058576Y-6998804D02*
X11009877Y-7000000D01*
X11476681Y-63616900D02*
X11518960Y-63640851D01*
X67566721Y-6904946D02*
X67523318Y-6883099D01*
X6805173Y-58900259D02*
X6833152Y-58939987D01*
X5566721Y-73404946D02*
X5523318Y-73383099D01*
X137256460Y-125325158D02*
X137289966Y-125289966D01*
X72224721Y-120361952D02*
X72256460Y-120325158D01*
X140723809Y-69045060D02*
X140703436Y-69030880D01*
X67892963Y-63504770D02*
X67941423Y-63501195D01*
D11*
X-3000000Y-63500000D02*
X152000000Y-63500000D01*
D10*
X79558283Y-63467005D02*
X79683928Y-63483007D01*
X7064273Y-61116236D02*
X7092904Y-61239617D01*
X11599740Y-126805173D02*
X11560012Y-126833152D01*
X7036788Y-122466503D02*
X7036829Y-122466753D01*
X81989281Y-67655262D02*
X81980974Y-67703138D01*
X71900746Y-122764137D02*
X71900812Y-122763892D01*
X139164579Y-124995187D02*
X139290873Y-124985569D01*
X11980974Y-67703138D02*
X11970328Y-67750549D01*
X78805421Y-68748415D02*
X78690328Y-68801297D01*
X5844737Y-73489281D02*
X5796861Y-73480974D01*
X71628785Y-8555099D02*
X71616738Y-8533396D01*
X70845937Y-69135520D02*
X70826309Y-69120327D01*
X81599740Y-68305173D02*
X81560012Y-68333152D01*
X143998804Y-120941423D02*
X144000000Y-120990122D01*
X5029671Y-126250549D02*
X5019025Y-126203138D01*
X11957368Y-64202619D02*
X11970328Y-64249450D01*
X5116900Y-59023318D02*
X5140851Y-58981039D01*
X78423808Y-68947771D02*
X78402743Y-68960901D01*
X76203138Y-120019025D02*
X76250549Y-120029671D01*
X79383763Y-68564273D02*
X79260382Y-68592904D01*
X7545207Y-69775984D02*
X7545060Y-69776190D01*
X77141679Y-70589923D02*
X77141600Y-70590163D01*
X141616738Y-8533396D02*
X141616613Y-8533176D01*
X139139283Y-68503529D02*
X139006331Y-68500160D01*
X141379672Y-123826309D02*
X141379825Y-123826106D01*
X78173893Y-62879825D02*
X78275984Y-62954792D01*
X142702619Y-58542631D02*
X142749450Y-58529671D01*
X67656480Y-68442125D02*
X67611144Y-68424637D01*
X72990122Y-73500000D02*
X72941423Y-73498804D01*
X8036482Y-69232218D02*
X7942499Y-69317128D01*
X77530880Y-69796563D02*
X77530738Y-69796773D01*
X7530738Y-123703226D02*
X7530880Y-123703436D01*
X79090163Y-63358399D02*
X79113847Y-63365830D01*
X143297380Y-5042631D02*
X143343519Y-5057874D01*
X71900812Y-70736107D02*
X71900746Y-70735862D01*
X67004770Y-67607036D02*
X67001195Y-67558576D01*
X141900812Y-122763892D02*
X141907034Y-122739863D01*
X5019025Y-72703138D02*
X5010718Y-72655262D01*
X7141600Y-61409836D02*
X7141679Y-61410076D01*
X139139283Y-63496470D02*
X139139536Y-63496460D01*
X67796861Y-125019025D02*
X67844737Y-125010718D01*
X141858399Y-61409836D02*
X141865830Y-61386152D01*
X141469261Y-123703226D02*
X141538961Y-123597469D01*
X81560012Y-63666847D02*
X81599740Y-63694826D01*
X141539098Y-123597256D02*
X141552228Y-123576191D01*
X70332185Y-63187662D02*
X70332411Y-63187548D01*
X81203138Y-6980974D02*
X81155262Y-6989281D01*
X67166847Y-6560012D02*
X67140851Y-6518960D01*
X70723809Y-7545060D02*
X70703436Y-7530880D01*
X70309899Y-7301405D02*
X70309671Y-7301297D01*
X11859148Y-5481039D02*
X11883099Y-5523318D01*
X78946319Y-124808557D02*
X78946556Y-124808648D01*
X6883099Y-59023318D02*
X6904946Y-59066721D01*
X81638047Y-63724721D02*
X81674841Y-63756460D01*
X5844737Y-11989281D02*
X5796861Y-11980974D01*
X70703436Y-69030880D02*
X70703226Y-69030738D01*
X71364479Y-8154062D02*
X71364321Y-8153863D01*
X71996460Y-9860463D02*
X71995203Y-9835673D01*
X67010718Y-64344737D02*
X67019025Y-64296861D01*
X7099187Y-61263892D02*
X7099253Y-61264137D01*
X143638047Y-58724721D02*
X143674841Y-58756460D01*
X77064219Y-70884011D02*
X77059223Y-70908325D01*
X8296563Y-7530880D02*
X8276190Y-7545060D01*
X77447771Y-123576191D02*
X77460901Y-123597256D01*
X7312451Y-70167588D02*
X7312337Y-70167814D01*
X71552228Y-8423808D02*
X71539098Y-8402743D01*
X71985547Y-71208874D02*
X71983036Y-71184179D01*
X5075362Y-11388855D02*
X5057874Y-11343519D01*
X9235862Y-63400746D02*
X9236107Y-63400812D01*
X139316071Y-124983007D02*
X139441716Y-124967005D01*
X11942125Y-67843519D02*
X11924637Y-67888855D01*
X5116900Y-11476681D02*
X5095053Y-11433278D01*
X5558Y-131998877D02*
X6002Y-131999087D01*
X141364479Y-8154062D02*
X141364321Y-8153863D01*
X81674841Y-126743539D02*
X81638047Y-126775278D01*
X141182698Y-124057686D02*
X141182871Y-124057500D01*
X67057874Y-64156480D02*
X67075362Y-64111144D01*
X9260382Y-7092904D02*
X9260136Y-7092965D01*
X67057874Y-126343519D02*
X67042631Y-126297380D01*
X143743539Y-126674841D02*
X143710033Y-126710033D01*
X68993666Y-7000000D02*
X67990122Y-7000000D01*
X9383763Y-124935726D02*
X9384011Y-124935780D01*
X5289966Y-73210033D02*
X5256460Y-73174841D01*
X77383261Y-123466603D02*
X77383386Y-123466823D01*
X143476681Y-120116900D02*
X143518960Y-120140851D01*
X8828696Y-124761572D02*
X8946319Y-124808557D01*
X140963517Y-7732218D02*
X140963327Y-7732050D01*
X77545060Y-8276190D02*
X77530880Y-8296563D01*
X7732218Y-8036482D02*
X7732050Y-8036672D01*
X69615988Y-68564219D02*
X69591674Y-68559223D01*
X69466753Y-124963170D02*
X69591425Y-124940824D01*
X141858399Y-70590163D02*
X141858320Y-70589923D01*
X9993794Y-7000158D02*
X9993794Y-7000158D01*
X78690328Y-63198702D02*
X78805421Y-63251584D01*
X77715882Y-8055506D02*
X77715719Y-8055700D01*
X77141600Y-61409836D02*
X77141679Y-61410076D01*
X72523318Y-120116900D02*
X72566721Y-120095053D01*
X143775278Y-11638047D02*
X143743539Y-11674841D01*
X7134097Y-122885909D02*
X7134169Y-122886152D01*
X79683928Y-63483007D02*
X79684179Y-63483036D01*
X7141600Y-122909836D02*
X7141679Y-122910076D01*
X140466603Y-63116738D02*
X140466823Y-63116613D01*
X76805173Y-120400259D02*
X76833152Y-120439987D01*
X142224721Y-120361952D02*
X142256460Y-120325158D01*
X77732218Y-8036482D02*
X77732050Y-8036672D01*
X7383386Y-70033176D02*
X7383261Y-70033396D01*
X7620174Y-69673893D02*
X7545207Y-69775984D01*
X141985547Y-9708874D02*
X141983036Y-9684179D01*
X6805173Y-11599740D02*
X6775278Y-11638047D01*
X11388855Y-68424637D02*
X11343519Y-68442125D01*
X9835673Y-7004796D02*
X9835420Y-7004812D01*
X141687548Y-70167588D02*
X141628905Y-70055322D01*
X67481039Y-125140851D02*
X67523318Y-125116900D01*
X7014452Y-71208874D02*
X7014430Y-71209126D01*
X137749450Y-6970328D02*
X137702619Y-6957368D01*
X137844737Y-126989281D02*
X137796861Y-126980974D01*
X137400259Y-5194826D02*
X137439987Y-5166847D01*
X142029671Y-59249450D02*
X142042631Y-59202619D01*
X6924637Y-59111144D02*
X6942125Y-59156480D01*
X7064219Y-70884011D02*
X7059223Y-70908325D01*
X78276190Y-62954939D02*
X78296563Y-62969119D01*
X6859148Y-11518960D02*
X6833152Y-11560012D01*
X137116900Y-5523318D02*
X137140851Y-5481039D01*
X69164326Y-68504796D02*
X69139536Y-68503539D01*
X67000000Y-125990122D02*
X67001195Y-125941423D01*
X67941423Y-68498804D02*
X67892963Y-68495229D01*
X67325158Y-125256460D02*
X67361952Y-125224721D01*
X9860716Y-68503529D02*
X9860463Y-68503539D01*
X79408574Y-7059175D02*
X79408325Y-7059223D01*
X141698702Y-8690328D02*
X141698594Y-8690100D01*
X141687662Y-8667814D02*
X141687548Y-8667588D01*
X5702619Y-120042631D02*
X5749450Y-120029671D01*
X140332411Y-68812451D02*
X140332185Y-68812337D01*
X141182698Y-69442313D02*
X141165597Y-69424322D01*
X9708874Y-63485547D02*
X9709126Y-63485569D01*
X76957368Y-59202619D02*
X76970328Y-59249450D01*
X77834579Y-7924141D02*
X77834402Y-7924322D01*
X67001195Y-125941423D02*
X67004770Y-125892963D01*
X140575974Y-68947640D02*
X140466823Y-68883386D01*
X137140851Y-6518960D02*
X137116900Y-6476681D01*
X137656480Y-5057874D02*
X137702619Y-5042631D01*
X5990122Y-58500000D02*
X6009877Y-58500000D01*
X70171303Y-68738427D02*
X70053680Y-68691442D01*
X140309899Y-63198594D02*
X140332185Y-63187662D01*
X5656480Y-73442125D02*
X5611144Y-73424637D01*
X5004770Y-11107036D02*
X5001195Y-11058576D01*
X77000000Y-10006207D02*
X77000000Y-10006333D01*
X77942313Y-69317301D02*
X77924322Y-69334402D01*
X70029928Y-7182646D02*
X69910076Y-7141679D01*
X7134169Y-122886152D02*
X7141600Y-122909836D01*
X142656480Y-120057874D02*
X142702619Y-120042631D01*
X9408574Y-68559175D02*
X9408325Y-68559223D01*
X137289966Y-126710033D02*
X137256460Y-126674841D01*
X6883099Y-11476681D02*
X6859148Y-11518960D01*
X142990122Y-73500000D02*
X142941423Y-73498804D01*
X141995187Y-9835420D02*
X141985569Y-9709126D01*
X78828462Y-63261475D02*
X78828696Y-63261572D01*
X67990122Y-5000000D02*
X81009877Y-5000000D01*
X67361952Y-63724721D02*
X67400259Y-63694826D01*
X7182646Y-123029928D02*
X7182731Y-123030166D01*
X7834402Y-7924322D02*
X7817301Y-7942313D01*
X71935726Y-70883763D02*
X71907095Y-70760382D01*
X139739863Y-68592965D02*
X139739617Y-68592904D01*
X141698594Y-61809899D02*
X141698702Y-61809671D01*
X71284280Y-69555700D02*
X71284117Y-69555506D01*
X5400259Y-73305173D02*
X5361952Y-73275278D01*
X140030166Y-124817268D02*
X140053443Y-124808648D01*
X67010718Y-5844737D02*
X67019025Y-5796861D01*
X139591425Y-63440824D02*
X139591674Y-63440776D01*
X139291125Y-63485547D02*
X139315820Y-63483036D01*
X70944299Y-69215719D02*
X70846136Y-69135678D01*
X67004770Y-64392963D02*
X67010718Y-64344737D01*
X141751687Y-61694347D02*
X141761475Y-61671537D01*
X9260136Y-124907034D02*
X9260382Y-124907095D01*
X140963327Y-62767949D02*
X140963517Y-62767781D01*
X140194578Y-124751584D02*
X140309671Y-124698702D01*
X11388855Y-125075362D02*
X11433278Y-125095053D01*
X6343519Y-120057874D02*
X6388855Y-120075362D01*
X6970328Y-11250549D02*
X6957368Y-11297380D01*
X70194578Y-68748415D02*
X70194347Y-68748312D01*
X143638047Y-126775278D02*
X143599740Y-126805173D01*
X6674841Y-73243539D02*
X6638047Y-73275278D01*
X142289966Y-73210033D02*
X142256460Y-73174841D01*
X143250549Y-58529671D02*
X143297380Y-58542631D01*
X141935726Y-9383763D02*
X141907095Y-9260382D01*
X140845937Y-124364479D02*
X140846136Y-124364321D01*
X67256460Y-5325158D02*
X67289966Y-5289966D01*
X141935726Y-122616236D02*
X141935780Y-122615988D01*
X6859148Y-73018960D02*
X6833152Y-73060012D01*
X143859148Y-11518960D02*
X143833152Y-11560012D01*
X137019025Y-6203138D02*
X137010718Y-6155262D01*
X141761475Y-61671537D02*
X141761572Y-61671303D01*
X7092904Y-70760382D02*
X7064273Y-70883763D01*
X76924637Y-59111144D02*
X76942125Y-59156480D01*
X5000000Y-11009877D02*
X5000000Y-5990122D01*
X70444677Y-7371094D02*
X70332411Y-7312451D01*
X71907034Y-122739863D02*
X71907095Y-122739617D01*
X5116900Y-120523318D02*
X5140851Y-120481039D01*
X71858399Y-122909836D02*
X71865830Y-122886152D01*
X140332185Y-68812337D02*
X140309899Y-68801405D01*
X78533176Y-68883386D02*
X78424025Y-68947640D01*
X137166847Y-5439987D02*
X137194826Y-5400259D01*
X141364479Y-62345937D02*
X141379672Y-62326309D01*
X1878Y-4296D02*
X1605Y-4704D01*
X137029671Y-125749450D02*
X137042631Y-125702619D01*
X143989281Y-5844737D02*
X143995229Y-5892963D01*
X7635520Y-123845937D02*
X7635678Y-123846136D01*
X8055700Y-69215719D02*
X8055506Y-69215882D01*
X142892963Y-73495229D02*
X142844737Y-73489281D01*
X70846136Y-62864321D02*
X70944299Y-62784280D01*
X77014430Y-60790873D02*
X77014452Y-60791125D01*
X140944299Y-7715719D02*
X140846136Y-7635678D01*
X67481039Y-6859148D02*
X67439987Y-6833152D01*
X137892963Y-126995229D02*
X137844737Y-126989281D01*
X77000160Y-71493668D02*
X77000158Y-71493794D01*
X72001195Y-72558576D02*
X72000000Y-72509877D01*
X141284117Y-8055506D02*
X141267949Y-8036672D01*
X67566721Y-68404946D02*
X67523318Y-68383099D01*
X6995229Y-72607036D02*
X6989281Y-72655262D01*
X8153863Y-69135678D02*
X8055700Y-69215719D01*
X7182731Y-123030166D02*
X7191351Y-123053443D01*
X6957368Y-11297380D02*
X6942125Y-11343519D01*
X79090163Y-124858399D02*
X79113847Y-124865830D01*
X140332185Y-7312337D02*
X140309899Y-7301405D01*
X8969833Y-7182731D02*
X8946556Y-7191351D01*
X137990122Y-63500000D02*
X138993666Y-63500000D01*
X81297380Y-68457368D02*
X81250549Y-68470328D01*
X5990122Y-12000000D02*
X5941423Y-11998804D01*
X140053443Y-63308648D02*
X140053680Y-63308557D01*
X81058576Y-6998804D02*
X81009877Y-7000000D01*
X6599740Y-120194826D02*
X6638047Y-120224721D01*
X6980974Y-11203138D02*
X6970328Y-11250549D01*
X5361952Y-120224721D02*
X5400259Y-120194826D01*
X5256460Y-11674841D02*
X5224721Y-11638047D01*
X76009877Y-58500000D02*
X76058576Y-58501195D01*
X4704Y-131998394D02*
X5125Y-131998646D01*
X9709126Y-124985569D02*
X9835420Y-124995187D01*
X8830Y-131999870D02*
X9318Y-131999918D01*
X7000000Y-60493792D02*
X7000158Y-60506205D01*
X79408325Y-7059223D02*
X79384011Y-7064219D01*
X143058576Y-11998804D02*
X143009877Y-12000000D01*
X76107036Y-120004770D02*
X76155262Y-120010718D01*
X137000000Y-125990122D02*
X137001195Y-125941423D01*
X69441716Y-63467005D02*
X69441967Y-63466970D01*
X7064273Y-9383763D02*
X7064219Y-9384011D01*
X143560012Y-58666847D02*
X143599740Y-58694826D01*
X143058576Y-58501195D02*
X143107036Y-58504770D01*
X81388855Y-125075362D02*
X81433278Y-125095053D01*
X67042631Y-67797380D02*
X67029671Y-67750549D01*
X143560012Y-120166847D02*
X143599740Y-120194826D01*
X79683928Y-7016992D02*
X79558283Y-7032994D01*
X141616613Y-8533176D02*
X141552359Y-8424025D01*
X139139536Y-68503539D02*
X139139283Y-68503529D01*
X79533496Y-63463211D02*
X79558032Y-63466970D01*
X76710033Y-120289966D02*
X76743539Y-120325158D01*
X77383386Y-61966823D02*
X77447640Y-62075974D01*
X148997829Y-131996097D02*
X148998121Y-131995703D01*
X143710033Y-11710033D02*
X143674841Y-11743539D01*
X69441967Y-63466970D02*
X69466503Y-63463211D01*
X81058576Y-126998804D02*
X81009877Y-127000000D01*
X7545060Y-62223809D02*
X7545207Y-62224015D01*
X81155262Y-126989281D02*
X81107036Y-126995229D01*
X81599740Y-125194826D02*
X81638047Y-125224721D01*
X11058576Y-125001195D02*
X11107036Y-125004770D01*
X71057686Y-62682698D02*
X71075677Y-62665597D01*
X141165420Y-69424141D02*
X141075858Y-69334579D01*
X71616738Y-70033396D02*
X71616613Y-70033176D01*
X6560012Y-120166847D02*
X6599740Y-120194826D01*
X5702619Y-58542631D02*
X5749450Y-58529671D01*
X11674841Y-68243539D02*
X11638047Y-68275278D01*
X6058576Y-11998804D02*
X6009877Y-12000000D01*
X142523318Y-73383099D02*
X142481039Y-73359148D01*
X6297380Y-73457368D02*
X6250549Y-73470328D01*
X8533396Y-68883261D02*
X8533176Y-68883386D01*
X67702619Y-125042631D02*
X67749450Y-125029671D01*
X143995229Y-5892963D02*
X143998804Y-5941423D01*
X77942499Y-62682871D02*
X78036482Y-62767781D01*
X9993668Y-7000160D02*
X9860716Y-7003529D01*
X79993668Y-63499839D02*
X79993794Y-63499841D01*
X81518960Y-68359148D02*
X81476681Y-68383099D01*
X67941423Y-125001195D02*
X67990122Y-125000000D01*
X143775278Y-58861952D02*
X143805173Y-58900259D01*
X77092965Y-9260136D02*
X77092904Y-9260382D01*
X70703226Y-124469261D02*
X70703436Y-124469119D01*
X67439987Y-126833152D02*
X67400259Y-126805173D01*
X81989281Y-125844737D02*
X81995229Y-125892963D01*
X77036788Y-122466503D02*
X77036829Y-122466753D01*
X67116900Y-6476681D02*
X67095053Y-6433278D01*
X137256460Y-63825158D02*
X137289966Y-63789966D01*
X5361952Y-58724721D02*
X5400259Y-58694826D01*
X6743539Y-11674841D02*
X6710033Y-11710033D01*
X72439987Y-73333152D02*
X72400259Y-73305173D01*
X11638047Y-63724721D02*
X11674841Y-63756460D01*
X141539098Y-69902743D02*
X141538961Y-69902530D01*
X141538961Y-8402530D02*
X141469261Y-8296773D01*
X140846136Y-7635678D02*
X140845937Y-7635520D01*
X67140851Y-63981039D02*
X67166847Y-63939987D01*
X6009877Y-58500000D02*
X6009877Y-58500000D01*
X139006331Y-68500160D02*
X139006205Y-68500158D01*
X9384011Y-124935780D02*
X9408325Y-124940776D01*
X8344Y-201D02*
X7863Y-297D01*
X71379825Y-8173893D02*
X71379672Y-8173690D01*
X137095053Y-126433278D02*
X137075362Y-126388855D01*
X143957368Y-5702619D02*
X143970328Y-5749450D01*
X5892963Y-73495229D02*
X5844737Y-73489281D01*
X7545207Y-123724015D02*
X7620174Y-123826106D01*
X139591674Y-7059223D02*
X139591425Y-7059175D01*
X140576191Y-7447771D02*
X140575974Y-7447640D01*
X11433278Y-6904946D02*
X11388855Y-6924637D01*
X79835673Y-68504796D02*
X79835420Y-68504812D01*
X79558032Y-7033029D02*
X79533496Y-7036788D01*
X70845937Y-7635520D02*
X70826309Y-7620327D01*
X5029671Y-59249450D02*
X5042631Y-59202619D01*
X139466753Y-68536829D02*
X139466503Y-68536788D01*
X67289966Y-126710033D02*
X67256460Y-126674841D01*
X7134169Y-9113847D02*
X7134097Y-9114090D01*
X5325158Y-5256460D02*
X5361952Y-5224721D01*
X143599740Y-5194826D02*
X143638047Y-5224721D01*
X143638047Y-11775278D02*
X143599740Y-11805173D01*
X6638047Y-11775278D02*
X6599740Y-11805173D01*
X71165420Y-69424141D02*
X71075858Y-69334579D01*
X5224721Y-73138047D02*
X5194826Y-73099740D01*
X69164579Y-7004812D02*
X69164326Y-7004796D01*
X77064219Y-61115988D02*
X77064273Y-61116236D01*
X137361952Y-6775278D02*
X137325158Y-6743539D01*
X70723809Y-124454939D02*
X70724015Y-124454792D01*
X140963327Y-69232050D02*
X140944493Y-69215882D01*
X5116900Y-5523318D02*
X5140851Y-5481039D01*
X77000000Y-60493666D02*
X77000000Y-60493792D01*
X67000000Y-126009877D02*
X67000000Y-125990122D01*
X79709126Y-124985569D02*
X79835420Y-124995187D01*
X11250549Y-5029671D02*
X11297380Y-5042631D01*
X143970328Y-59249450D02*
X143980974Y-59296861D01*
X9236107Y-7099187D02*
X9235862Y-7099253D01*
X141761572Y-70328696D02*
X141761475Y-70328462D01*
X67140851Y-5481039D02*
X67166847Y-5439987D01*
X72001195Y-120941423D02*
X72004770Y-120892963D01*
X141165420Y-62575858D02*
X141165597Y-62575677D01*
X6599740Y-11805173D02*
X6560012Y-11833152D01*
X141940824Y-122591425D02*
X141963170Y-122466753D01*
X140944299Y-62784280D02*
X140944493Y-62784117D01*
X72289966Y-73210033D02*
X72256460Y-73174841D01*
X11203138Y-125019025D02*
X11250549Y-125029671D01*
X142000000Y-121993666D02*
X142000000Y-120990122D01*
X7134169Y-70613847D02*
X7134097Y-70614090D01*
X139615988Y-68564219D02*
X139591674Y-68559223D01*
X142941423Y-73498804D02*
X142892963Y-73495229D01*
X77732050Y-69536672D02*
X77715882Y-69555506D01*
X67523318Y-126883099D02*
X67481039Y-126859148D01*
X78296563Y-69030880D02*
X78276190Y-69045060D01*
X71967005Y-71058283D02*
X71966970Y-71058032D01*
X9835420Y-63495187D02*
X9835673Y-63495203D01*
X11998804Y-126058576D02*
X11995229Y-126107036D01*
X11203138Y-63519025D02*
X11250549Y-63529671D01*
X71940776Y-122591674D02*
X71940824Y-122591425D01*
X2170Y-3902D02*
X1878Y-4296D01*
X67057874Y-125656480D02*
X67075362Y-125611144D01*
X142325158Y-120256460D02*
X142361952Y-120224721D01*
X138993666Y-7000000D02*
X137990122Y-7000000D01*
X69291125Y-7014452D02*
X69290873Y-7014430D01*
X5990122Y-120000000D02*
X6009877Y-120000000D01*
X6155262Y-58510718D02*
X6203138Y-58519025D01*
X76995229Y-11107036D02*
X76989281Y-11155262D01*
X6433278Y-58595053D02*
X6476681Y-58616900D01*
X142481039Y-58640851D02*
X142523318Y-58616900D01*
X143710033Y-73210033D02*
X143674841Y-73243539D01*
X140332411Y-63187548D02*
X140444677Y-63128905D01*
X81775278Y-125361952D02*
X81805173Y-125400259D01*
X142224721Y-11638047D02*
X142194826Y-11599740D01*
X141379825Y-8173893D02*
X141379672Y-8173690D01*
X142042631Y-72797380D02*
X142029671Y-72750549D01*
X9113847Y-7134169D02*
X9090163Y-7141600D01*
X139006205Y-124999841D02*
X139006331Y-124999839D01*
X11924637Y-126388855D02*
X11904946Y-126433278D01*
X70466823Y-124616613D02*
X70575974Y-124552359D01*
X137749450Y-126970328D02*
X137702619Y-126957368D01*
X72400259Y-73305173D02*
X72361952Y-73275278D01*
X81674841Y-63756460D02*
X81710033Y-63789966D01*
X72702619Y-120042631D02*
X72749450Y-120029671D01*
X11518960Y-5140851D02*
X11560012Y-5166847D01*
X143970328Y-11250549D02*
X143957368Y-11297380D01*
X11957368Y-67797380D02*
X11942125Y-67843519D01*
X143518960Y-5140851D02*
X143560012Y-5166847D01*
X144000000Y-5990122D02*
X144000000Y-11009877D01*
D11*
X-3000000Y-125000000D02*
X152000000Y-125000000D01*
D10*
X3522Y-2482D02*
X3159Y-2811D01*
X71267949Y-123963327D02*
X71284117Y-123944493D01*
X5289966Y-5289966D02*
X5325158Y-5256460D01*
X70332411Y-124687548D02*
X70444677Y-124628905D01*
X76743539Y-120325158D02*
X76775278Y-120361952D01*
X71995203Y-9835673D02*
X71995187Y-9835420D01*
X70597469Y-124538961D02*
X70703226Y-124469261D01*
X81883099Y-6476681D02*
X81859148Y-6518960D01*
X11775278Y-5361952D02*
X11805173Y-5400259D01*
X72042631Y-11297380D02*
X72029671Y-11250549D01*
X71364321Y-69653863D02*
X71284280Y-69555700D01*
X67481039Y-63640851D02*
X67523318Y-63616900D01*
X71940776Y-9408325D02*
X71935780Y-9384011D01*
X70846136Y-124364321D02*
X70944299Y-124284280D01*
X77248312Y-61694347D02*
X77248415Y-61694578D01*
X76805173Y-11599740D02*
X76775278Y-11638047D01*
X70309899Y-63198594D02*
X70332185Y-63187662D01*
X81009877Y-5000000D02*
X81058576Y-5001195D01*
X71698594Y-70190100D02*
X71687662Y-70167814D01*
X81970328Y-125749450D02*
X81980974Y-125796861D01*
X12000000Y-5990122D02*
X12000000Y-6009877D01*
X11775278Y-6638047D02*
X11743539Y-6674841D01*
X8969833Y-63317268D02*
X8970071Y-63317353D01*
X1878Y-131995703D02*
X2170Y-131996097D01*
X72481039Y-11859148D02*
X72439987Y-11833152D01*
X71469261Y-62203226D02*
X71538961Y-62097469D01*
X78970071Y-68682646D02*
X78969833Y-68682731D01*
X7004796Y-60664326D02*
X7004812Y-60664579D01*
X5990122Y-73500000D02*
X5941423Y-73498804D01*
X137481039Y-126859148D02*
X137439987Y-126833152D01*
X142001195Y-72558576D02*
X142000000Y-72509877D01*
X7461038Y-69902530D02*
X7460901Y-69902743D01*
X78555099Y-63128785D02*
X78555322Y-63128905D01*
X143343519Y-120057874D02*
X143388855Y-120075362D01*
X77248415Y-123194578D02*
X77301297Y-123309671D01*
X142523318Y-120116900D02*
X142566721Y-120095053D01*
X77182731Y-61530166D02*
X77191351Y-61553443D01*
X8667814Y-63187662D02*
X8690100Y-63198594D01*
X140332411Y-7312451D02*
X140332185Y-7312337D01*
X143155262Y-5010718D02*
X143203138Y-5019025D01*
X78946319Y-7191442D02*
X78828696Y-7238427D01*
X70171537Y-63261475D02*
X70194347Y-63251687D01*
X143518960Y-58640851D02*
X143560012Y-58666847D01*
X72439987Y-58666847D02*
X72481039Y-58640851D01*
X8805421Y-124751584D02*
X8805652Y-124751687D01*
X72194826Y-120400259D02*
X72224721Y-120361952D01*
X139739863Y-63407034D02*
X139763892Y-63400812D01*
X69139283Y-68503529D02*
X69006331Y-68500160D01*
X137892963Y-5004770D02*
X137941423Y-5001195D01*
X7248415Y-61694578D02*
X7301297Y-61809671D01*
X8402530Y-7461038D02*
X8296773Y-7530738D01*
X78667814Y-68812337D02*
X78667588Y-68812451D01*
X7635678Y-69653863D02*
X7635520Y-69654062D01*
X81388855Y-5075362D02*
X81433278Y-5095053D01*
X7383261Y-8533396D02*
X7371214Y-8555099D01*
X129Y-131991169D02*
X201Y-131991655D01*
X5166847Y-73060012D02*
X5140851Y-73018960D01*
X9260136Y-7092965D02*
X9236107Y-7099187D01*
X69006331Y-63499839D02*
X69139283Y-63496470D01*
X77383261Y-61966603D02*
X77383386Y-61966823D01*
X140444677Y-63128905D02*
X140444900Y-63128785D01*
X139291125Y-7014452D02*
X139290873Y-7014430D01*
X137075362Y-64111144D02*
X137095053Y-64066721D01*
X139466503Y-68536788D02*
X139441967Y-68533029D01*
X141761475Y-70328462D02*
X141751687Y-70305652D01*
X69139536Y-124996460D02*
X69164326Y-124995203D01*
X5990122Y-127000000D02*
X5941423Y-126998804D01*
X79113847Y-63365830D02*
X79114090Y-63365902D01*
X77238427Y-8828696D02*
X77191442Y-8946319D01*
X69290873Y-124985569D02*
X69291125Y-124985547D01*
X141940824Y-9408574D02*
X141940776Y-9408325D01*
X7530738Y-8296773D02*
X7461038Y-8402530D01*
X143560012Y-11833152D02*
X143518960Y-11859148D01*
X78828462Y-68738524D02*
X78805652Y-68748312D01*
X137194826Y-5400259D02*
X137224721Y-5361952D01*
X6957368Y-72797380D02*
X6942125Y-72843519D01*
X137224721Y-126638047D02*
X137194826Y-126599740D01*
X78533396Y-63116738D02*
X78555099Y-63128785D01*
X11995229Y-6107036D02*
X11989281Y-6155262D01*
X137566721Y-5095053D02*
X137611144Y-5075362D01*
X71454939Y-62223809D02*
X71469119Y-62203436D01*
X81775278Y-126638047D02*
X81743539Y-126674841D01*
X79089923Y-63358320D02*
X79090163Y-63358399D01*
X70597469Y-7461038D02*
X70597256Y-7460901D01*
X67523318Y-5116900D02*
X67566721Y-5095053D01*
X67042631Y-6297380D02*
X67029671Y-6250549D01*
X7016992Y-60816071D02*
X7032994Y-60941716D01*
X141687662Y-61832185D02*
X141698594Y-61809899D01*
X11904946Y-5566721D02*
X11924637Y-5611144D01*
X76009877Y-12000000D02*
X72990122Y-12000000D01*
X77312451Y-61832411D02*
X77371094Y-61944677D01*
X7014430Y-60790873D02*
X7014452Y-60791125D01*
X5116900Y-72976681D02*
X5095053Y-72933278D01*
X77000000Y-72509877D02*
X76998804Y-72558576D01*
X148990681Y-81D02*
X148990190Y-57D01*
X11995229Y-5892963D02*
X11998804Y-5941423D01*
X7182731Y-61530166D02*
X7191351Y-61553443D01*
X7191351Y-61553443D02*
X7191442Y-61553680D01*
X137325158Y-63756460D02*
X137361952Y-63724721D01*
X77003529Y-60639283D02*
X77003539Y-60639536D01*
X142095053Y-11433278D02*
X142075362Y-11388855D01*
X76155262Y-120010718D02*
X76203138Y-120019025D01*
X71999999Y-121993792D02*
X72000000Y-121993666D01*
X140466823Y-124616613D02*
X140575974Y-124552359D01*
X11924637Y-67888855D02*
X11904946Y-67933278D01*
X142075362Y-120611144D02*
X142095053Y-120566721D01*
X137166847Y-68060012D02*
X137140851Y-68018960D01*
X142796861Y-73480974D02*
X142749450Y-73470328D01*
X77312451Y-8667588D02*
X77312337Y-8667814D01*
X77000000Y-120990122D02*
X77000000Y-121993666D01*
X67990122Y-125000000D02*
X68993666Y-125000000D01*
X8275984Y-124454792D02*
X8276190Y-124454939D01*
X77312337Y-123332185D02*
X77312451Y-123332411D01*
X141284280Y-69555700D02*
X141284117Y-69555506D01*
X142990122Y-12000000D02*
X142941423Y-11998804D01*
X69591674Y-63440776D02*
X69615988Y-63435780D01*
X141999839Y-122006331D02*
X141999841Y-122006205D01*
X143980974Y-72703138D02*
X143970328Y-72750549D01*
X143058576Y-5001195D02*
X143107036Y-5004770D01*
X8275984Y-7545207D02*
X8173893Y-7620174D01*
X77182731Y-70469833D02*
X77182646Y-70470071D01*
X7004796Y-122164326D02*
X7004812Y-122164579D01*
X148991655Y-131999798D02*
X148992136Y-131999702D01*
X137990122Y-7000000D02*
X137941423Y-6998804D01*
X141858399Y-122909836D02*
X141865830Y-122886152D01*
X77924322Y-69334402D02*
X77924141Y-69334579D01*
X141865830Y-122886152D02*
X141865902Y-122885909D01*
X70053680Y-124808557D02*
X70171303Y-124761572D01*
X9114090Y-63365902D02*
X9235862Y-63400746D01*
X77004796Y-122164326D02*
X77004812Y-122164579D01*
X8828696Y-63261572D02*
X8946319Y-63308557D01*
X139290873Y-124985569D02*
X139291125Y-124985547D01*
X148998646Y-131994874D02*
X148998877Y-131994441D01*
X78296563Y-124469119D02*
X78296773Y-124469261D01*
X141469261Y-8296773D02*
X141469119Y-8296563D01*
X7732050Y-123963327D02*
X7732218Y-123963517D01*
X78667814Y-63187662D02*
X78690100Y-63198594D01*
X140703226Y-124469261D02*
X140703436Y-124469119D01*
X77834402Y-62575677D02*
X77834579Y-62575858D01*
X81833152Y-63939987D02*
X81859148Y-63981039D01*
X77238524Y-123171537D02*
X77248312Y-123194347D01*
X8154062Y-7635520D02*
X8153863Y-7635678D01*
X5611144Y-73424637D02*
X5566721Y-73404946D01*
X67289966Y-125289966D02*
X67325158Y-125256460D01*
X7191442Y-123053680D02*
X7238427Y-123171303D01*
X141284280Y-8055700D02*
X141284117Y-8055506D01*
X77635520Y-62345937D02*
X77635678Y-62346136D01*
X76560012Y-120166847D02*
X76599740Y-120194826D01*
X79993794Y-7000158D02*
X79993668Y-7000160D01*
X141983007Y-60816071D02*
X141983036Y-60815820D01*
X77383386Y-123466823D02*
X77447640Y-123575974D01*
X72029671Y-120749450D02*
X72042631Y-120702619D01*
X137400259Y-6805173D02*
X137361952Y-6775278D01*
X9684179Y-68516963D02*
X9683928Y-68516992D01*
X77059223Y-70908325D02*
X77059175Y-70908574D01*
X76599740Y-120194826D02*
X76638047Y-120224721D01*
X78055700Y-7715719D02*
X78055506Y-7715882D01*
X76980974Y-72703138D02*
X76970328Y-72750549D01*
X9708874Y-124985547D02*
X9709126Y-124985569D01*
X7059223Y-61091674D02*
X7064219Y-61115988D01*
X67010718Y-125844737D02*
X67019025Y-125796861D01*
X77942313Y-124182698D02*
X77942499Y-124182871D01*
X6476681Y-11883099D02*
X6433278Y-11904946D01*
X7182646Y-8970071D02*
X7141679Y-9089923D01*
X70332411Y-63187548D02*
X70444677Y-63128905D01*
X11970328Y-5749450D02*
X11980974Y-5796861D01*
X11989281Y-125844737D02*
X11995229Y-125892963D01*
X140053680Y-63308557D02*
X140171303Y-63261572D01*
X71963211Y-122466503D02*
X71966970Y-122441967D01*
X71995203Y-60664326D02*
X71996460Y-60639536D01*
X142656480Y-58557874D02*
X142702619Y-58542631D01*
X77036788Y-60966503D02*
X77036829Y-60966753D01*
X71817268Y-123030166D02*
X71817353Y-123029928D01*
X7016963Y-9684179D02*
X7014452Y-9708874D01*
X71999841Y-71493794D02*
X71999841Y-71493794D01*
X76924637Y-11388855D02*
X76904946Y-11433278D01*
X71057686Y-69317301D02*
X71057500Y-69317128D01*
X137400259Y-126805173D02*
X137361952Y-126775278D01*
X9089923Y-124858320D02*
X9090163Y-124858399D01*
X9113847Y-68634169D02*
X9090163Y-68641600D01*
X139164579Y-7004812D02*
X139164326Y-7004796D01*
X142116900Y-59023318D02*
X142140851Y-58981039D01*
X140444900Y-124628785D02*
X140466603Y-124616738D01*
X5400259Y-126805173D02*
X5361952Y-126775278D01*
X7000158Y-122006205D02*
X7000160Y-122006331D01*
X141687662Y-70167814D02*
X141687548Y-70167588D01*
X141966970Y-71058032D02*
X141963211Y-71033496D01*
X77134169Y-9113847D02*
X77134097Y-9114090D01*
X67075362Y-126388855D02*
X67057874Y-126343519D01*
X5702619Y-5042631D02*
X5749450Y-5029671D01*
X79383763Y-63435726D02*
X79384011Y-63435780D01*
X5019025Y-126203138D02*
X5010718Y-126155262D01*
X67001195Y-67558576D02*
X67000000Y-67509877D01*
X140597469Y-63038961D02*
X140703226Y-62969261D01*
X76638047Y-58724721D02*
X76674841Y-58756460D01*
X7715882Y-123944493D02*
X7732050Y-123963327D01*
X137702619Y-6957368D02*
X137656480Y-6942125D01*
X8036482Y-124267781D02*
X8036672Y-124267949D01*
X5000000Y-72509877D02*
X5000000Y-59490122D01*
X67941423Y-5001195D02*
X67990122Y-5000000D01*
X77000000Y-60493792D02*
X77000158Y-60506205D01*
X78036672Y-124267949D02*
X78055506Y-124284117D01*
X140309671Y-124698702D02*
X140309899Y-124698594D01*
X141808557Y-123053680D02*
X141808648Y-123053443D01*
X81599740Y-63694826D02*
X81638047Y-63724721D01*
X77460901Y-69902743D02*
X77447771Y-69923808D01*
X5796861Y-58519025D02*
X5844737Y-58510718D01*
D11*
X-3000000Y-68500000D02*
X152000000Y-68500000D01*
D10*
X137000000Y-5990122D02*
X137001195Y-5941423D01*
X67749450Y-68470328D02*
X67702619Y-68457368D01*
X71698594Y-123309899D02*
X71698702Y-123309671D01*
X8153863Y-62864321D02*
X8154062Y-62864479D01*
X77248415Y-61694578D02*
X77301297Y-61809671D01*
X5361952Y-11775278D02*
X5325158Y-11743539D01*
X148997829Y-3902D02*
X148997517Y-3522D01*
X7033029Y-122441967D02*
X7036788Y-122466503D01*
X71469119Y-62203436D02*
X71469261Y-62203226D01*
D11*
X7000000Y3000000D02*
X7000000Y-135000000D01*
D10*
X7092965Y-9260136D02*
X7092904Y-9260382D01*
X5941423Y-73498804D02*
X5892963Y-73495229D01*
X77000000Y-11009877D02*
X76998804Y-11058576D01*
X71698702Y-8690328D02*
X71698594Y-8690100D01*
X72844737Y-73489281D02*
X72796861Y-73480974D01*
X76476681Y-58616900D02*
X76518960Y-58640851D01*
X148996477Y-131997517D02*
X148996840Y-131997188D01*
X148999996Y-131987972D02*
X149000000Y-131987727D01*
X71616738Y-8533396D02*
X71616613Y-8533176D01*
X6155262Y-120010718D02*
X6203138Y-120019025D01*
X137075362Y-125611144D02*
X137095053Y-125566721D01*
X7371214Y-61944900D02*
X7383261Y-61966603D01*
X71364321Y-8153863D02*
X71284280Y-8055700D01*
X141379825Y-62326106D02*
X141454792Y-62224015D01*
X67116900Y-64023318D02*
X67140851Y-63981039D01*
X139164326Y-7004796D02*
X139139536Y-7003539D01*
X67656480Y-5057874D02*
X67702619Y-5042631D01*
X142439987Y-11833152D02*
X142400259Y-11805173D01*
X11980974Y-126203138D02*
X11970328Y-126250549D01*
X5095053Y-120566721D02*
X5116900Y-120523318D01*
X67656480Y-126942125D02*
X67611144Y-126924637D01*
X71963170Y-122466753D02*
X71963211Y-122466503D01*
X12272Y0D02*
X12027Y-3D01*
X81203138Y-68480974D02*
X81155262Y-68489281D01*
X67325158Y-6743539D02*
X67289966Y-6710033D01*
X143970328Y-72750549D02*
X143957368Y-72797380D01*
X67166847Y-63939987D02*
X67194826Y-63900259D01*
X7064219Y-9384011D02*
X7059223Y-9408325D01*
X67361952Y-125224721D02*
X67400259Y-125194826D01*
X5611144Y-5075362D02*
X5656480Y-5057874D01*
X67042631Y-125702619D02*
X67057874Y-125656480D01*
X78296563Y-7530880D02*
X78276190Y-7545060D01*
X71379825Y-62326106D02*
X71454792Y-62224015D01*
X77000160Y-60506331D02*
X77003529Y-60639283D01*
X5224721Y-58861952D02*
X5256460Y-58825158D01*
X79993794Y-68500158D02*
X79993668Y-68500160D01*
X70444900Y-68871214D02*
X70444677Y-68871094D01*
X78533176Y-7383386D02*
X78424025Y-7447640D01*
X78055700Y-62784280D02*
X78153863Y-62864321D01*
X137116900Y-67976681D02*
X137095053Y-67933278D01*
X8828462Y-7238524D02*
X8805652Y-7248312D01*
X11883099Y-126476681D02*
X11859148Y-126518960D01*
X81518960Y-6859148D02*
X81476681Y-6883099D01*
X71935780Y-61115988D02*
X71940776Y-61091674D01*
X137611144Y-68424637D02*
X137566721Y-68404946D01*
X7238524Y-8828462D02*
X7238427Y-8828696D01*
X71865830Y-70613847D02*
X71858399Y-70590163D01*
X67289966Y-5289966D02*
X67325158Y-5256460D01*
X77099187Y-61263892D02*
X77099253Y-61264137D01*
X77635678Y-123846136D02*
X77715719Y-123944299D01*
X76250549Y-73470328D02*
X76203138Y-73480974D01*
X78402530Y-68961038D02*
X78296773Y-69030738D01*
X139885909Y-124865902D02*
X139886152Y-124865830D01*
X77248415Y-70305421D02*
X77248312Y-70305652D01*
X141985547Y-60791125D02*
X141985569Y-60790873D01*
X77545207Y-8275984D02*
X77545060Y-8276190D01*
X71858320Y-70589923D02*
X71817353Y-70470071D01*
X9860463Y-124996460D02*
X9860716Y-124996470D01*
X11155262Y-125010718D02*
X11203138Y-125019025D01*
X71454939Y-69776190D02*
X71454792Y-69775984D01*
X72941423Y-58501195D02*
X72990122Y-58500000D01*
X6343519Y-73442125D02*
X6297380Y-73457368D01*
X139886152Y-7134169D02*
X139885909Y-7134097D01*
X72004770Y-59392963D02*
X72010718Y-59344737D01*
X70466603Y-7383261D02*
X70444900Y-7371214D01*
X79235862Y-63400746D02*
X79236107Y-63400812D01*
X70171537Y-7238524D02*
X70171303Y-7238427D01*
X143998804Y-126058576D02*
X143995229Y-126107036D01*
X11518960Y-126859148D02*
X11476681Y-126883099D01*
X81710033Y-126710033D02*
X81674841Y-126743539D01*
X72000000Y-10006333D02*
X71999999Y-10006207D01*
X81743539Y-126674841D02*
X81710033Y-126710033D01*
X5095053Y-126433278D02*
X5075362Y-126388855D01*
X6995229Y-11107036D02*
X6989281Y-11155262D01*
X71552359Y-69924025D02*
X71552228Y-69923808D01*
X9708874Y-68514452D02*
X9684179Y-68516963D01*
X7620174Y-123826106D02*
X7620327Y-123826309D01*
X141267949Y-123963327D02*
X141284117Y-123944493D01*
X8828462Y-63261475D02*
X8828696Y-63261572D01*
X141985547Y-122291125D02*
X141985569Y-122290873D01*
X71454939Y-8276190D02*
X71454792Y-8275984D01*
X70309671Y-63198702D02*
X70309899Y-63198594D01*
X71267949Y-8036672D02*
X71267781Y-8036482D01*
X141552359Y-69924025D02*
X141552228Y-69923808D01*
X77620327Y-8173690D02*
X77620174Y-8173893D01*
X71538961Y-123597469D02*
X71539098Y-123597256D01*
X11674841Y-63756460D02*
X11710033Y-63789966D01*
X79709126Y-7014430D02*
X79708874Y-7014452D01*
X8424025Y-63052359D02*
X8533176Y-63116613D01*
X78828462Y-124761475D02*
X78828696Y-124761572D01*
X72140851Y-58981039D02*
X72166847Y-58939987D01*
X79684179Y-7016963D02*
X79683928Y-7016992D01*
X6203138Y-11980974D02*
X6155262Y-11989281D01*
X81343519Y-63557874D02*
X81388855Y-63575362D01*
X67075362Y-64111144D02*
X67095053Y-64066721D01*
X7732050Y-69536672D02*
X7715882Y-69555506D01*
X81058576Y-5001195D02*
X81107036Y-5004770D01*
X67566721Y-5095053D02*
X67611144Y-5075362D01*
X137892963Y-68495229D02*
X137844737Y-68489281D01*
X9558283Y-63467005D02*
X9683928Y-63483007D01*
X141182871Y-7942499D02*
X141182698Y-7942313D01*
X11476681Y-126883099D02*
X11433278Y-126904946D01*
X76957368Y-11297380D02*
X76942125Y-11343519D01*
X6989281Y-59344737D02*
X6995229Y-59392963D01*
X139763892Y-7099187D02*
X139739863Y-7092965D01*
X78690100Y-63198594D02*
X78690328Y-63198702D01*
X78828696Y-124761572D02*
X78946319Y-124808557D01*
X71284117Y-69555506D02*
X71267949Y-69536672D01*
X79383763Y-7064273D02*
X79260382Y-7092904D01*
X148998646Y-5125D02*
X148998394Y-4704D01*
X11904946Y-67933278D02*
X11883099Y-67976681D01*
X70963327Y-69232050D02*
X70944493Y-69215882D01*
X7715882Y-8055506D02*
X7715719Y-8055700D01*
X72057874Y-59156480D02*
X72075362Y-59111144D01*
X72140851Y-120481039D02*
X72166847Y-120439987D01*
X9089923Y-63358320D02*
X9090163Y-63358399D01*
X81805173Y-5400259D02*
X81833152Y-5439987D01*
X5166847Y-58939987D02*
X5194826Y-58900259D01*
X77460901Y-62097256D02*
X77461038Y-62097469D01*
X140597469Y-124538961D02*
X140703226Y-124469261D01*
X71469261Y-8296773D02*
X71469119Y-8296563D01*
X7004812Y-122164579D02*
X7014430Y-122290873D01*
X71687662Y-123332185D02*
X71698594Y-123309899D01*
X6775278Y-120361952D02*
X6805173Y-120400259D01*
X77924141Y-62665420D02*
X77924322Y-62665597D01*
X137361952Y-63724721D02*
X137400259Y-63694826D01*
X5439987Y-5166847D02*
X5481039Y-5140851D01*
X80006207Y-124999999D02*
X80006333Y-125000000D01*
X69441716Y-68532994D02*
X69316071Y-68516992D01*
X11476681Y-125116900D02*
X11518960Y-125140851D01*
X81433278Y-5095053D02*
X81476681Y-5116900D01*
X67611144Y-63575362D02*
X67656480Y-63557874D01*
X140597469Y-68961038D02*
X140597256Y-68960901D01*
X6250549Y-120029671D02*
X6297380Y-120042631D01*
X7238524Y-61671537D02*
X7248312Y-61694347D01*
X81674841Y-68243539D02*
X81638047Y-68275278D01*
X6433278Y-120095053D02*
X6476681Y-120116900D01*
X11107036Y-63504770D02*
X11155262Y-63510718D01*
X8555322Y-63128905D02*
X8667588Y-63187548D01*
X142611144Y-11924637D02*
X142566721Y-11904946D01*
X6518960Y-120140851D02*
X6560012Y-120166847D01*
X142941423Y-120001195D02*
X142990122Y-120000000D01*
X142000000Y-72509877D02*
X142000000Y-71506333D01*
X148993082Y-131999440D02*
X148993544Y-131999275D01*
X77301297Y-61809671D02*
X77301405Y-61809899D01*
X139316071Y-68516992D02*
X139315820Y-68516963D01*
X148994874Y-1353D02*
X148994441Y-1122D01*
X137566721Y-63595053D02*
X137611144Y-63575362D01*
X72400259Y-58694826D02*
X72439987Y-58666847D01*
X76058576Y-73498804D02*
X76009877Y-73500000D01*
X77238427Y-70328696D02*
X77191442Y-70446319D01*
X71628785Y-70055099D02*
X71616738Y-70033396D01*
X137019025Y-67703138D02*
X137010718Y-67655262D01*
X8036482Y-7732218D02*
X7942499Y-7817128D01*
X77460901Y-123597256D02*
X77461038Y-123597469D01*
X141628785Y-8555099D02*
X141616738Y-8533396D01*
X143743539Y-120325158D02*
X143775278Y-120361952D01*
X143388855Y-126924637D02*
X143343519Y-126942125D01*
X141267781Y-8036482D02*
X141182871Y-7942499D01*
X8154062Y-62864479D02*
X8173690Y-62879672D01*
X72990122Y-12000000D02*
X72941423Y-11998804D01*
X67224721Y-63861952D02*
X67256460Y-63825158D01*
X8296773Y-7530738D02*
X8296563Y-7530880D01*
X141075858Y-69334579D02*
X141075677Y-69334402D01*
X143805173Y-120400259D02*
X143833152Y-120439987D01*
X79558032Y-68533029D02*
X79533496Y-68536788D01*
X6388855Y-73424637D02*
X6343519Y-73442125D01*
X79113847Y-124865830D02*
X79114090Y-124865902D01*
X140171537Y-7238524D02*
X140171303Y-7238427D01*
X77383386Y-70033176D02*
X77383261Y-70033396D01*
X5796861Y-11980974D02*
X5749450Y-11970328D01*
X5439987Y-126833152D02*
X5400259Y-126805173D01*
X8946556Y-68691351D02*
X8946319Y-68691442D01*
X9684179Y-124983036D02*
X9708874Y-124985547D01*
X77000000Y-71506333D02*
X77000000Y-72509877D01*
X81805173Y-68099740D02*
X81775278Y-68138047D01*
X143743539Y-5325158D02*
X143775278Y-5361952D01*
X81942125Y-5656480D02*
X81957368Y-5702619D01*
X77248312Y-123194347D02*
X77248415Y-123194578D01*
X142566721Y-120095053D02*
X142611144Y-120075362D01*
X10006207Y-68500000D02*
X9993794Y-68500158D01*
X6957368Y-59202619D02*
X6970328Y-59249450D01*
X143250549Y-11970328D02*
X143203138Y-11980974D01*
X141907034Y-122739863D02*
X141907095Y-122739617D01*
X1353Y-131994874D02*
X1605Y-131995295D01*
X140309899Y-124698594D02*
X140332185Y-124687662D01*
X11710033Y-125289966D02*
X11743539Y-125325158D01*
X137361952Y-125224721D02*
X137400259Y-125194826D01*
X7834579Y-7924141D02*
X7834402Y-7924322D01*
X67029671Y-67750549D02*
X67019025Y-67703138D01*
X142001195Y-11058576D02*
X142000000Y-11009877D01*
X7635678Y-123846136D02*
X7715719Y-123944299D01*
X140826106Y-7620174D02*
X140724015Y-7545207D01*
X11599740Y-125194826D02*
X11638047Y-125224721D01*
X137042631Y-64202619D02*
X137057874Y-64156480D01*
X79090163Y-7141600D02*
X79089923Y-7141679D01*
X148993997Y-912D02*
X148993544Y-724D01*
X11058576Y-126998804D02*
X11009877Y-127000000D01*
X76833152Y-58939987D02*
X76859148Y-58981039D01*
X141865830Y-61386152D02*
X141865902Y-61385909D01*
X71817268Y-8969833D02*
X71808648Y-8946556D01*
X143775278Y-73138047D02*
X143743539Y-73174841D01*
X141469119Y-8296563D02*
X141454939Y-8276190D01*
X6833152Y-73060012D02*
X6805173Y-73099740D01*
X142325158Y-58756460D02*
X142361952Y-58724721D01*
X81883099Y-64023318D02*
X81904946Y-64066721D01*
X5010718Y-59344737D02*
X5019025Y-59296861D01*
X142010718Y-120844737D02*
X142019025Y-120796861D01*
X141995203Y-60664326D02*
X141996460Y-60639536D01*
X78667588Y-124687548D02*
X78667814Y-124687662D01*
X11775278Y-125361952D02*
X11805173Y-125400259D01*
X67256460Y-126674841D02*
X67224721Y-126638047D01*
X7134169Y-61386152D02*
X7141600Y-61409836D01*
X11995229Y-64392963D02*
X11998804Y-64441423D01*
X77817301Y-7942313D02*
X77817128Y-7942499D01*
X71900812Y-122763892D02*
X71907034Y-122739863D01*
X8667814Y-7312337D02*
X8667588Y-7312451D01*
X81343519Y-68442125D02*
X81297380Y-68457368D01*
X67075362Y-5611144D02*
X67095053Y-5566721D01*
X6297380Y-120042631D02*
X6343519Y-120057874D01*
X12027Y-3D02*
X9809Y-57D01*
X76674841Y-58756460D02*
X76710033Y-58789966D01*
X141075677Y-62665597D02*
X141075858Y-62665420D01*
X71966970Y-71058032D02*
X71963211Y-71033496D01*
X77182731Y-8969833D02*
X77182646Y-8970071D01*
X67702619Y-126957368D02*
X67656480Y-126942125D01*
X69316071Y-63483007D02*
X69441716Y-63467005D01*
X69006205Y-124999841D02*
X69006331Y-124999839D01*
X79708874Y-7014452D02*
X79684179Y-7016963D01*
X9708874Y-7014452D02*
X9684179Y-7016963D01*
X76433278Y-73404946D02*
X76388855Y-73424637D01*
X141057500Y-62682871D02*
X141057686Y-62682698D01*
X7059175Y-9408574D02*
X7036829Y-9533246D01*
X77016963Y-60815820D02*
X77016992Y-60816071D01*
X139886152Y-124865830D02*
X139909836Y-124858399D01*
X137941423Y-63501195D02*
X137990122Y-63500000D01*
X77191442Y-70446319D02*
X77191351Y-70446556D01*
X77014452Y-122291125D02*
X77016963Y-122315820D01*
X69763892Y-124900812D02*
X69764137Y-124900746D01*
X8055700Y-124284280D02*
X8153863Y-124364321D01*
X9383763Y-63435726D02*
X9384011Y-63435780D01*
X79558283Y-124967005D02*
X79683928Y-124983007D01*
X148998394Y-4704D02*
X148998121Y-4296D01*
X141983036Y-9684179D02*
X141983007Y-9683928D01*
X137004770Y-6107036D02*
X137001195Y-6058576D01*
X7059175Y-70908574D02*
X7036829Y-71033246D01*
X78055700Y-69215719D02*
X78055506Y-69215882D01*
X79236107Y-124900812D02*
X79260136Y-124907034D01*
X7817301Y-7942313D02*
X7817128Y-7942499D01*
X67656480Y-125057874D02*
X67702619Y-125042631D01*
X76942125Y-120656480D02*
X76957368Y-120702619D01*
X3Y-12027D02*
X0Y-12272D01*
X140171303Y-63261572D02*
X140171537Y-63261475D01*
X80006207Y-68500000D02*
X79993794Y-68500158D01*
X5523318Y-5116900D02*
X5566721Y-5095053D01*
X78055506Y-7715882D02*
X78036672Y-7732050D01*
X139615988Y-124935780D02*
X139616236Y-124935726D01*
X6942125Y-11343519D02*
X6924637Y-11388855D01*
X8555099Y-68871214D02*
X8533396Y-68883261D01*
X8423808Y-124552228D02*
X8424025Y-124552359D01*
X71935780Y-122615988D02*
X71940776Y-122591674D01*
X8555322Y-124628905D02*
X8667588Y-124687548D01*
X81957368Y-64202619D02*
X81970328Y-64249450D01*
X6388855Y-120075362D02*
X6433278Y-120095053D01*
X7924322Y-62665597D02*
X7942313Y-62682698D01*
X7312451Y-8667588D02*
X7312337Y-8667814D01*
X7000000Y-60493666D02*
X7000000Y-60493792D01*
X71907034Y-9260136D02*
X71900812Y-9236107D01*
X141552228Y-62076191D02*
X141552359Y-62075974D01*
X141966970Y-60941967D02*
X141967005Y-60941716D01*
X137001195Y-64441423D02*
X137004770Y-64392963D01*
X141538961Y-123597469D02*
X141539098Y-123597256D01*
X11942125Y-5656480D02*
X11957368Y-5702619D01*
X71966970Y-122441967D02*
X71967005Y-122441716D01*
X70053680Y-63308557D02*
X70171303Y-63261572D01*
X142844737Y-73489281D02*
X142796861Y-73480974D01*
X8828696Y-68738427D02*
X8828462Y-68738524D01*
X67140851Y-68018960D02*
X67116900Y-67976681D01*
X71761572Y-8828696D02*
X71761475Y-8828462D01*
X81743539Y-125325158D02*
X81775278Y-125361952D01*
X81775278Y-5361952D02*
X81805173Y-5400259D01*
X77134097Y-61385909D02*
X77134169Y-61386152D01*
X139441716Y-7032994D02*
X139316071Y-7016992D01*
X142095053Y-59066721D02*
X142116900Y-59023318D01*
X9809Y-57D02*
X9809Y-57D01*
X7064273Y-70883763D02*
X7064219Y-70884011D01*
X69739617Y-63407095D02*
X69739863Y-63407034D01*
X6388855Y-11924637D02*
X6343519Y-11942125D01*
X137289966Y-63789966D02*
X137325158Y-63756460D01*
X143250549Y-73470328D02*
X143203138Y-73480974D01*
X143476681Y-126883099D02*
X143433278Y-126904946D01*
X71996470Y-9860716D02*
X71996460Y-9860463D01*
X141817353Y-61529928D02*
X141858320Y-61410076D01*
X11710033Y-5289966D02*
X11743539Y-5325158D01*
X141963170Y-122466753D02*
X141963211Y-122466503D01*
X143674841Y-126743539D02*
X143638047Y-126775278D01*
X5611144Y-120075362D02*
X5656480Y-120057874D01*
X81203138Y-5019025D02*
X81250549Y-5029671D01*
X76518960Y-58640851D02*
X76560012Y-58666847D01*
X148999942Y-131990190D02*
X148999996Y-131987972D01*
X6058576Y-73498804D02*
X6009877Y-73500000D01*
X69290873Y-63485569D02*
X69291125Y-63485547D01*
X8296563Y-69030880D02*
X8276190Y-69045060D01*
X6638047Y-120224721D02*
X6674841Y-120256460D01*
X9533496Y-124963211D02*
X9558032Y-124966970D01*
X137029671Y-126250549D02*
X137019025Y-126203138D01*
X76674841Y-120256460D02*
X76710033Y-120289966D01*
X76599740Y-11805173D02*
X76560012Y-11833152D01*
X71995187Y-122164579D02*
X71995203Y-122164326D01*
X72057874Y-72843519D02*
X72042631Y-72797380D01*
X11833152Y-126560012D02*
X11805173Y-126599740D01*
X69739617Y-124907095D02*
X69739863Y-124907034D01*
X137166847Y-6560012D02*
X137140851Y-6518960D01*
X140309899Y-7301405D02*
X140309671Y-7301297D01*
X69139283Y-63496470D02*
X69139536Y-63496460D01*
X143009877Y-5000000D02*
X143058576Y-5001195D01*
X78555322Y-7371094D02*
X78555099Y-7371214D01*
X5481039Y-58640851D02*
X5523318Y-58616900D01*
X141057500Y-124182871D02*
X141057686Y-124182698D01*
X77141600Y-9090163D02*
X77134169Y-9113847D01*
X78036482Y-124267781D02*
X78036672Y-124267949D01*
X141454939Y-123723809D02*
X141469119Y-123703436D01*
X137166847Y-63939987D02*
X137194826Y-63900259D01*
X144000000Y-120990122D02*
X144000000Y-126009877D01*
X70171303Y-124761572D02*
X70171537Y-124761475D01*
X7141600Y-70590163D02*
X7134169Y-70613847D01*
X67361952Y-6775278D02*
X67325158Y-6743539D01*
X71999841Y-60506205D02*
X71999999Y-60493792D01*
X139441716Y-68532994D02*
X139316071Y-68516992D01*
X5400259Y-58694826D02*
X5439987Y-58666847D01*
X148999583Y-131992612D02*
X148999702Y-131992136D01*
X142095053Y-120566721D02*
X142116900Y-120523318D01*
X8533176Y-68883386D02*
X8424025Y-68947640D01*
X139290873Y-68514430D02*
X139164579Y-68504812D01*
X71983036Y-122315820D02*
X71985547Y-122291125D01*
X67566721Y-63595053D02*
X67611144Y-63575362D01*
X78402743Y-68960901D02*
X78402530Y-68961038D01*
X9835420Y-124995187D02*
X9835673Y-124995203D01*
X11805173Y-5400259D02*
X11833152Y-5439987D01*
X139441716Y-124967005D02*
X139441967Y-124966970D01*
X67256460Y-63825158D02*
X67289966Y-63789966D01*
X5075362Y-59111144D02*
X5095053Y-59066721D01*
X67029671Y-6250549D02*
X67019025Y-6203138D01*
X11674841Y-125256460D02*
X11710033Y-125289966D01*
X143980974Y-5796861D02*
X143989281Y-5844737D01*
X140944299Y-124284280D02*
X140944493Y-124284117D01*
X81518960Y-63640851D02*
X81560012Y-63666847D01*
X9835420Y-7004812D02*
X9709126Y-7014430D01*
X148994441Y-1122D02*
X148993997Y-912D01*
X137990122Y-68500000D02*
X137941423Y-68498804D01*
X7004796Y-71335673D02*
X7003539Y-71360463D01*
X5523318Y-120116900D02*
X5566721Y-120095053D01*
X67001195Y-126058576D02*
X67000000Y-126009877D01*
X79835673Y-63495203D02*
X79860463Y-63496460D01*
X77620174Y-123826106D02*
X77620327Y-123826309D01*
X6833152Y-58939987D02*
X6859148Y-58981039D01*
X11009877Y-5000000D02*
X11058576Y-5001195D01*
X72116900Y-120523318D02*
X72140851Y-120481039D01*
X4296Y-131998121D02*
X4704Y-131998394D01*
X142010718Y-59344737D02*
X142019025Y-59296861D01*
X9558032Y-68533029D02*
X9533496Y-68536788D01*
X70826309Y-69120327D02*
X70826106Y-69120174D01*
X6476681Y-120116900D02*
X6518960Y-120140851D01*
X67844737Y-5010718D02*
X67892963Y-5004770D01*
X142194826Y-11599740D02*
X142166847Y-11560012D01*
X71552228Y-69923808D02*
X71539098Y-69902743D01*
X69616236Y-7064273D02*
X69615988Y-7064219D01*
X141999999Y-121993792D02*
X142000000Y-121993666D01*
X5481039Y-73359148D02*
X5439987Y-73333152D01*
X67941423Y-6998804D02*
X67892963Y-6995229D01*
X79683928Y-68516992D02*
X79558283Y-68532994D01*
X79408574Y-63440824D02*
X79533246Y-63463170D01*
X76710033Y-58789966D02*
X76743539Y-58825158D01*
X78969833Y-63317268D02*
X78970071Y-63317353D01*
X137001195Y-126058576D02*
X137000000Y-126009877D01*
X72796861Y-58519025D02*
X72844737Y-58510718D01*
X142702619Y-120042631D02*
X142749450Y-120029671D01*
X141267781Y-123963517D02*
X141267949Y-123963327D01*
X81942125Y-6343519D02*
X81924637Y-6388855D01*
X137656480Y-68442125D02*
X137611144Y-68424637D01*
X78533396Y-7383261D02*
X78533176Y-7383386D01*
X67289966Y-63789966D02*
X67325158Y-63756460D01*
X70846136Y-69135678D02*
X70845937Y-69135520D01*
X141907034Y-70760136D02*
X141900812Y-70736107D01*
X67611144Y-126924637D02*
X67566721Y-126904946D01*
X7033029Y-9558032D02*
X7032994Y-9558283D01*
X5361952Y-5224721D02*
X5400259Y-5194826D01*
X7000000Y-59490122D02*
X7000000Y-60493666D01*
X7141679Y-122910076D02*
X7182646Y-123029928D01*
X137140851Y-5481039D02*
X137166847Y-5439987D01*
X72844737Y-120010718D02*
X72892963Y-120004770D01*
X81924637Y-126388855D02*
X81904946Y-126433278D01*
X6980974Y-120796861D02*
X6989281Y-120844737D01*
X8555322Y-68871094D02*
X8555099Y-68871214D01*
X5194826Y-126599740D02*
X5166847Y-126560012D01*
X7834579Y-69424141D02*
X7834402Y-69424322D01*
X5749450Y-120029671D02*
X5796861Y-120019025D01*
X67095053Y-6433278D02*
X67075362Y-6388855D01*
X137000000Y-6009877D02*
X137000000Y-5990122D01*
X137019025Y-126203138D02*
X137010718Y-126155262D01*
X81058576Y-68498804D02*
X81009877Y-68500000D01*
X5325158Y-120256460D02*
X5361952Y-120224721D01*
X77620174Y-69673893D02*
X77545207Y-69775984D01*
X141628905Y-61944677D02*
X141687548Y-61832411D01*
X141057686Y-62682698D02*
X141075677Y-62665597D01*
X7942313Y-69317301D02*
X7924322Y-69334402D01*
X8805421Y-68748415D02*
X8690328Y-68801297D01*
X140309899Y-68801405D02*
X140309671Y-68801297D01*
X72057874Y-120656480D02*
X72075362Y-120611144D01*
X72892963Y-120004770D02*
X72941423Y-120001195D01*
X11476681Y-68383099D02*
X11433278Y-68404946D01*
X5256460Y-58825158D02*
X5289966Y-58789966D01*
X70053443Y-68691351D02*
X70030166Y-68682731D01*
X77371214Y-8555099D02*
X77371094Y-8555322D01*
X77924141Y-124165420D02*
X77924322Y-124165597D01*
X139441967Y-68533029D02*
X139441716Y-68532994D01*
X79260136Y-68592965D02*
X79236107Y-68599187D01*
X81904946Y-126433278D02*
X81883099Y-126476681D01*
X78275984Y-124454792D02*
X78276190Y-124454939D01*
X70944299Y-124284280D02*
X70944493Y-124284117D01*
X11743539Y-63825158D02*
X11775278Y-63861952D01*
X77715882Y-69555506D02*
X77715719Y-69555700D01*
X78667588Y-7312451D02*
X78555322Y-7371094D01*
X81998804Y-67558576D02*
X81995229Y-67607036D01*
X71940776Y-61091674D02*
X71940824Y-61091425D01*
X77620174Y-8173893D02*
X77545207Y-8275984D01*
X77191351Y-8946556D02*
X77182731Y-8969833D01*
X67194826Y-68099740D02*
X67166847Y-68060012D01*
X11989281Y-5844737D02*
X11995229Y-5892963D01*
X141935780Y-122615988D02*
X141940776Y-122591674D01*
X137194826Y-125400259D02*
X137224721Y-125361952D01*
X143859148Y-120481039D02*
X143883099Y-120523318D01*
X7461038Y-62097469D02*
X7530738Y-62203226D01*
D11*
X142000000Y3000000D02*
X142000000Y-135000000D01*
D10*
X67140851Y-125481039D02*
X67166847Y-125439987D01*
X76942125Y-11343519D02*
X76924637Y-11388855D01*
X67004770Y-125892963D02*
X67010718Y-125844737D01*
X77182646Y-8970071D02*
X77141679Y-9089923D01*
X77036829Y-9533246D02*
X77036788Y-9533496D01*
X140724015Y-62954792D02*
X140826106Y-62879825D01*
X142749450Y-120029671D02*
X142796861Y-120019025D01*
X140575974Y-124552359D02*
X140576191Y-124552228D01*
X137844737Y-63510718D02*
X137892963Y-63504770D01*
X141075858Y-124165420D02*
X141165420Y-124075858D01*
X140703226Y-7530738D02*
X140597469Y-7461038D01*
X139466753Y-124963170D02*
X139591425Y-124940824D01*
X141995187Y-122164579D02*
X141995203Y-122164326D01*
X11155262Y-126989281D02*
X11107036Y-126995229D01*
X139764137Y-124900746D02*
X139885909Y-124865902D01*
X77099253Y-70735862D02*
X77099187Y-70736107D01*
D11*
X-3000000Y-7000000D02*
X152000000Y-7000000D01*
D10*
X143805173Y-126599740D02*
X143775278Y-126638047D01*
X77099187Y-122763892D02*
X77099253Y-122764137D01*
X71075858Y-124165420D02*
X71165420Y-124075858D01*
X141552359Y-8424025D02*
X141552228Y-8423808D01*
X7383386Y-8533176D02*
X7383261Y-8533396D01*
X139139536Y-7003539D02*
X139139283Y-7003529D01*
X72010718Y-72655262D02*
X72004770Y-72607036D01*
X67892963Y-126995229D02*
X67844737Y-126989281D01*
X71963211Y-9533496D02*
X71963170Y-9533246D01*
X70444900Y-7371214D02*
X70444677Y-7371094D01*
X69139283Y-124996470D02*
X69139536Y-124996460D01*
X67029671Y-125749450D02*
X67042631Y-125702619D01*
X141858320Y-122910076D02*
X141858399Y-122909836D01*
X70963517Y-7732218D02*
X70963327Y-7732050D01*
X78969833Y-124817268D02*
X78970071Y-124817353D01*
X69291125Y-63485547D02*
X69315820Y-63483036D01*
X139006205Y-68500158D02*
X138993792Y-68500000D01*
X9993794Y-63499841D02*
X10006207Y-63499999D01*
X11009877Y-63500000D02*
X11058576Y-63501195D01*
X11859148Y-126518960D02*
X11833152Y-126560012D01*
X71267781Y-123963517D02*
X71267949Y-123963327D01*
X76297380Y-11957368D02*
X76250549Y-11970328D01*
X5194826Y-73099740D02*
X5166847Y-73060012D01*
X70576191Y-124552228D02*
X70597256Y-124539098D01*
X4704Y-1605D02*
X4296Y-1878D01*
X81203138Y-125019025D02*
X81250549Y-125029671D01*
X70309671Y-68801297D02*
X70194578Y-68748415D01*
X141808648Y-70446556D02*
X141808557Y-70446319D01*
X69616236Y-63435726D02*
X69739617Y-63407095D01*
X67010718Y-67655262D02*
X67004770Y-67607036D01*
X141454792Y-123724015D02*
X141454939Y-123723809D01*
X11638047Y-126775278D02*
X11599740Y-126805173D01*
X10006207Y-7000000D02*
X9993794Y-7000158D01*
X6297380Y-11957368D02*
X6250549Y-11970328D01*
X9236107Y-124900812D02*
X9260136Y-124907034D01*
X81998804Y-5941423D02*
X82000000Y-5990122D01*
X71538961Y-62097469D02*
X71539098Y-62097256D01*
X77715719Y-123944299D02*
X77715882Y-123944493D01*
X9089923Y-68641679D02*
X8970071Y-68682646D01*
X7238427Y-70328696D02*
X7191442Y-70446319D01*
X139739617Y-68592904D02*
X139616236Y-68564273D01*
X6455Y-131999275D02*
X6917Y-131999440D01*
X143775278Y-5361952D02*
X143805173Y-5400259D01*
X141940776Y-9408325D02*
X141935780Y-9384011D01*
X76833152Y-11560012D02*
X76805173Y-11599740D01*
X78667814Y-124687662D02*
X78690100Y-124698594D01*
X139591425Y-7059175D02*
X139466753Y-7036829D01*
X143970328Y-126250549D02*
X143957368Y-126297380D01*
X79236107Y-68599187D02*
X79235862Y-68599253D01*
X76599740Y-73305173D02*
X76560012Y-73333152D01*
X77817301Y-69442313D02*
X77817128Y-69442499D01*
X7003529Y-71360716D02*
X7000160Y-71493668D01*
X8667588Y-7312451D02*
X8555322Y-7371094D01*
X139616236Y-68564273D02*
X139615988Y-68564219D01*
X140194578Y-63251584D02*
X140309671Y-63198702D01*
X7942499Y-69317128D02*
X7942313Y-69317301D01*
X81674841Y-6743539D02*
X81638047Y-6775278D01*
X5289966Y-58789966D02*
X5325158Y-58756460D01*
X81058576Y-63501195D02*
X81107036Y-63504770D01*
X6805173Y-73099740D02*
X6775278Y-73138047D01*
X9408325Y-124940776D02*
X9408574Y-124940824D01*
X5656480Y-58557874D02*
X5702619Y-58542631D01*
X141698702Y-123309671D02*
X141751584Y-123194578D01*
X81957368Y-126297380D02*
X81942125Y-126343519D01*
X8805421Y-63251584D02*
X8805652Y-63251687D01*
X67656480Y-63557874D02*
X67702619Y-63542631D01*
X148992612Y-416D02*
X148992136Y-297D01*
X141900746Y-9235862D02*
X141865902Y-9114090D01*
X77004812Y-71335420D02*
X77004796Y-71335673D01*
X71995203Y-122164326D02*
X71996460Y-122139536D01*
X141057686Y-7817301D02*
X141057500Y-7817128D01*
X69591425Y-63440824D02*
X69591674Y-63440776D01*
X8423808Y-68947771D02*
X8402743Y-68960901D01*
X137140851Y-63981039D02*
X137166847Y-63939987D01*
X141817268Y-70469833D02*
X141808648Y-70446556D01*
X72941423Y-11998804D02*
X72892963Y-11995229D01*
X77000158Y-9993794D02*
X77000000Y-10006207D01*
X71935780Y-70884011D02*
X71935726Y-70883763D01*
X67523318Y-68383099D02*
X67481039Y-68359148D01*
X7182646Y-61529928D02*
X7182731Y-61530166D01*
X11388855Y-63575362D02*
X11433278Y-63595053D01*
X141963211Y-122466503D02*
X141966970Y-122441967D01*
X8690328Y-63198702D02*
X8805421Y-63251584D01*
X143250549Y-120029671D02*
X143297380Y-120042631D01*
X7715719Y-8055700D02*
X7635678Y-8153863D01*
X76343519Y-58557874D02*
X76388855Y-58575362D01*
X141628785Y-123444900D02*
X141628905Y-123444677D01*
X8055506Y-124284117D02*
X8055700Y-124284280D01*
X5656480Y-11942125D02*
X5611144Y-11924637D01*
X71983007Y-9683928D02*
X71967005Y-9558283D01*
X143203138Y-126980974D02*
X143155262Y-126989281D01*
X143904946Y-59066721D02*
X143924637Y-59111144D01*
X81476681Y-125116900D02*
X81518960Y-125140851D01*
X140944493Y-124284117D02*
X140963327Y-124267949D01*
X7371094Y-61944677D02*
X7371214Y-61944900D01*
X141858320Y-70589923D02*
X141817353Y-70470071D01*
X137656480Y-63557874D02*
X137702619Y-63542631D01*
X139909836Y-63358399D02*
X139910076Y-63358320D01*
X137611144Y-126924637D02*
X137566721Y-126904946D01*
X70466603Y-68883261D02*
X70444900Y-68871214D01*
X71379672Y-8173690D02*
X71364479Y-8154062D01*
X76433278Y-58595053D02*
X76476681Y-58616900D01*
X7000160Y-122006331D02*
X7003529Y-122139283D01*
X71182698Y-7942313D02*
X71165597Y-7924322D01*
X141858320Y-9089923D02*
X141817353Y-8970071D01*
X72941423Y-120001195D02*
X72990122Y-120000000D01*
X5611144Y-126924637D02*
X5566721Y-126904946D01*
X141469261Y-62203226D02*
X141538961Y-62097469D01*
X72481039Y-58640851D02*
X72523318Y-58616900D01*
X70466603Y-63116738D02*
X70466823Y-63116613D01*
X77036829Y-71033246D02*
X77036788Y-71033496D01*
X79114090Y-68634097D02*
X79113847Y-68634169D01*
X81970328Y-6250549D02*
X81957368Y-6297380D01*
X559Y-131993082D02*
X724Y-131993544D01*
X141284280Y-62444299D02*
X141364321Y-62346136D01*
X81883099Y-125523318D02*
X81904946Y-125566721D01*
X78946556Y-124808648D02*
X78969833Y-124817268D01*
X70309671Y-124698702D02*
X70309899Y-124698594D01*
X6995229Y-59392963D02*
X6998804Y-59441423D01*
X11904946Y-125566721D02*
X11924637Y-125611144D01*
X76942125Y-72843519D02*
X76924637Y-72888855D01*
X7545060Y-8276190D02*
X7530880Y-8296563D01*
X141985547Y-71208874D02*
X141983036Y-71184179D01*
X143924637Y-11388855D02*
X143904946Y-11433278D01*
X72523318Y-11883099D02*
X72481039Y-11859148D01*
X72749450Y-120029671D02*
X72796861Y-120019025D01*
X77924322Y-7834402D02*
X77924141Y-7834579D01*
X70194578Y-63251584D02*
X70309671Y-63198702D01*
X67001195Y-64441423D02*
X67004770Y-64392963D01*
X67224721Y-126638047D02*
X67194826Y-126599740D01*
X142004770Y-11107036D02*
X142001195Y-11058576D01*
X67095053Y-125566721D02*
X67116900Y-125523318D01*
X5166847Y-5439987D02*
X5194826Y-5400259D01*
X70030166Y-63317268D02*
X70053443Y-63308648D01*
X141379672Y-8173690D02*
X141364479Y-8154062D01*
X7032994Y-122441716D02*
X7033029Y-122441967D01*
X82000000Y-6009877D02*
X81998804Y-6058576D01*
X143250549Y-5029671D02*
X143297380Y-5042631D01*
X81980974Y-6203138D02*
X81970328Y-6250549D01*
X11343519Y-125057874D02*
X11388855Y-125075362D01*
X81250549Y-126970328D02*
X81203138Y-126980974D01*
X71963170Y-9533246D02*
X71940824Y-9408574D01*
X81297380Y-125042631D02*
X81343519Y-125057874D01*
X141454792Y-62224015D02*
X141454939Y-62223809D01*
X143942125Y-5656480D02*
X143957368Y-5702619D01*
X70444677Y-124628905D02*
X70444900Y-124628785D01*
X7033029Y-71058032D02*
X7032994Y-71058283D01*
X67325158Y-68243539D02*
X67289966Y-68210033D01*
X71761572Y-70328696D02*
X71761475Y-70328462D01*
X12272Y-132000000D02*
X148987727Y-132000000D01*
X143924637Y-5611144D02*
X143942125Y-5656480D01*
X7312337Y-123332185D02*
X7312451Y-123332411D01*
X138993792Y-124999999D02*
X139006205Y-124999841D01*
X71761572Y-61671303D02*
X71808557Y-61553680D01*
X72256460Y-73174841D02*
X72224721Y-73138047D01*
X77383386Y-8533176D02*
X77383261Y-8533396D01*
X81710033Y-5289966D02*
X81743539Y-5325158D01*
X77301405Y-8690100D02*
X77301297Y-8690328D01*
X78946556Y-68691351D02*
X78946319Y-68691442D01*
X143743539Y-73174841D02*
X143710033Y-73210033D01*
X70171537Y-68738524D02*
X70171303Y-68738427D01*
X137481039Y-5140851D02*
X137523318Y-5116900D01*
X8828462Y-68738524D02*
X8805652Y-68748312D01*
X11980974Y-125796861D02*
X11989281Y-125844737D01*
X5566721Y-126904946D02*
X5523318Y-126883099D01*
X77447771Y-69923808D02*
X77447640Y-69924025D01*
X6433278Y-11904946D02*
X6388855Y-11924637D01*
X81599740Y-126805173D02*
X81560012Y-126833152D01*
X141808648Y-123053443D02*
X141817268Y-123030166D01*
X69764137Y-68599253D02*
X69763892Y-68599187D01*
X148995703Y-131998121D02*
X148996097Y-131997829D01*
X11710033Y-126710033D02*
X11674841Y-126743539D01*
X142361952Y-58724721D02*
X142400259Y-58694826D01*
X143989281Y-72655262D02*
X143980974Y-72703138D01*
X71985547Y-60791125D02*
X71985569Y-60790873D01*
X5042631Y-5702619D02*
X5057874Y-5656480D01*
X5019025Y-120796861D02*
X5029671Y-120749450D01*
X137749450Y-5029671D02*
X137796861Y-5019025D01*
X139616236Y-63435726D02*
X139739617Y-63407095D01*
X71751687Y-8805652D02*
X71751584Y-8805421D01*
X142042631Y-11297380D02*
X142029671Y-11250549D01*
X77834579Y-69424141D02*
X77834402Y-69424322D01*
X5075362Y-120611144D02*
X5095053Y-120566721D01*
X70723809Y-62954939D02*
X70724015Y-62954792D01*
X140309671Y-63198702D02*
X140309899Y-63198594D01*
X9236107Y-68599187D02*
X9235862Y-68599253D01*
X137140851Y-125481039D02*
X137166847Y-125439987D01*
X6989281Y-11155262D02*
X6980974Y-11203138D01*
X5042631Y-72797380D02*
X5029671Y-72750549D01*
X140826309Y-69120327D02*
X140826106Y-69120174D01*
X141817268Y-123030166D02*
X141817353Y-123029928D01*
X7092965Y-70760136D02*
X7092904Y-70760382D01*
X7000000Y-71506207D02*
X7000000Y-71506333D01*
X140723809Y-7545060D02*
X140703436Y-7530880D01*
X67325158Y-5256460D02*
X67361952Y-5224721D01*
X11924637Y-64111144D02*
X11942125Y-64156480D01*
X69763892Y-63400812D02*
X69764137Y-63400746D01*
X141182871Y-62557500D02*
X141267781Y-62463517D01*
X7000160Y-60506331D02*
X7003529Y-60639283D01*
X81710033Y-125289966D02*
X81743539Y-125325158D01*
X81203138Y-63519025D02*
X81250549Y-63529671D01*
X141539098Y-62097256D02*
X141552228Y-62076191D01*
X142439987Y-73333152D02*
X142400259Y-73305173D01*
X8153863Y-7635678D02*
X8055700Y-7715719D01*
X5000000Y-120990122D02*
X5001195Y-120941423D01*
X6833152Y-11560012D02*
X6805173Y-11599740D01*
X77942313Y-62682698D02*
X77942499Y-62682871D01*
X81942125Y-125656480D02*
X81957368Y-125702619D01*
X71996460Y-60639536D02*
X71996470Y-60639283D01*
X77092904Y-122739617D02*
X77092965Y-122739863D01*
X71616613Y-61966823D02*
X71616738Y-61966603D01*
X72656480Y-58557874D02*
X72702619Y-58542631D01*
X7817128Y-7942499D02*
X7732218Y-8036482D01*
X141995203Y-9835673D02*
X141995187Y-9835420D01*
X6560012Y-73333152D02*
X6518960Y-73359148D01*
X71628905Y-8555322D02*
X71628785Y-8555099D01*
X10006207Y-63499999D02*
X10006333Y-63500000D01*
X8690328Y-7301297D02*
X8690100Y-7301405D01*
X142611144Y-120075362D02*
X142656480Y-120057874D01*
X72194826Y-58900259D02*
X72224721Y-58861952D01*
X5224721Y-5361952D02*
X5256460Y-5325158D01*
X141469119Y-69796563D02*
X141454939Y-69776190D01*
D11*
X72000000Y3000000D02*
X72000000Y-135000000D01*
D10*
X11518960Y-6859148D02*
X11476681Y-6883099D01*
X70703436Y-7530880D02*
X70703226Y-7530738D01*
X67042631Y-5702619D02*
X67057874Y-5656480D01*
X7000000Y-10006333D02*
X7000000Y-11009877D01*
X77191442Y-8946319D02*
X77191351Y-8946556D01*
X78036672Y-69232050D02*
X78036482Y-69232218D01*
X143297380Y-58542631D02*
X143343519Y-58557874D01*
X79114090Y-7134097D02*
X79113847Y-7134169D01*
X7530738Y-69796773D02*
X7461038Y-69902530D01*
X7924322Y-124165597D02*
X7942313Y-124182698D01*
X142010718Y-72655262D02*
X142004770Y-72607036D01*
X8533396Y-7383261D02*
X8533176Y-7383386D01*
X5095053Y-5566721D02*
X5116900Y-5523318D01*
X7620327Y-8173690D02*
X7620174Y-8173893D01*
X141963211Y-60966503D02*
X141966970Y-60941967D01*
X71454792Y-69775984D02*
X71379825Y-69673893D01*
X77371094Y-123444677D02*
X77371214Y-123444900D01*
X143904946Y-72933278D02*
X143883099Y-72976681D01*
X77530880Y-123703436D02*
X77545060Y-123723809D01*
X139291125Y-124985547D02*
X139315820Y-124983036D01*
X69315820Y-68516963D02*
X69291125Y-68514452D01*
X8173893Y-7620174D02*
X8173690Y-7620327D01*
X143203138Y-120019025D02*
X143250549Y-120029671D01*
X5057874Y-72843519D02*
X5042631Y-72797380D01*
X72194826Y-11599740D02*
X72166847Y-11560012D01*
X76924637Y-120611144D02*
X76942125Y-120656480D01*
X69315820Y-63483036D02*
X69316071Y-63483007D01*
X78946556Y-7191351D02*
X78946319Y-7191442D01*
X9533246Y-63463170D02*
X9533496Y-63463211D01*
X69909836Y-124858399D02*
X69910076Y-124858320D01*
X7635678Y-8153863D02*
X7635520Y-8154062D01*
X141751584Y-70305421D02*
X141698702Y-70190328D01*
X11058576Y-68498804D02*
X11009877Y-68500000D01*
X70846136Y-7635678D02*
X70845937Y-7635520D01*
X71808557Y-70446319D02*
X71761572Y-70328696D01*
X11942125Y-125656480D02*
X11957368Y-125702619D01*
X79236107Y-63400812D02*
X79260136Y-63407034D01*
X142256460Y-11674841D02*
X142224721Y-11638047D01*
X67990122Y-127000000D02*
X67941423Y-126998804D01*
X7000000Y-72509877D02*
X6998804Y-72558576D01*
X76560012Y-11833152D02*
X76518960Y-11859148D01*
X141552359Y-123575974D02*
X141616613Y-123466823D01*
X148991169Y-131999870D02*
X148991655Y-131999798D01*
X71761572Y-123171303D02*
X71808557Y-123053680D01*
X78667814Y-7312337D02*
X78667588Y-7312451D01*
X81560012Y-6833152D02*
X81518960Y-6859148D01*
X142029671Y-11250549D02*
X142019025Y-11203138D01*
X137796861Y-63519025D02*
X137844737Y-63510718D01*
X143388855Y-11924637D02*
X143343519Y-11942125D01*
X67029671Y-5749450D02*
X67042631Y-5702619D01*
X70053443Y-63308648D02*
X70053680Y-63308557D01*
X137361952Y-68275278D02*
X137325158Y-68243539D01*
X7942499Y-62682871D02*
X8036482Y-62767781D01*
X6638047Y-73275278D02*
X6599740Y-73305173D01*
X5796861Y-120019025D02*
X5844737Y-120010718D01*
X143989281Y-120844737D02*
X143995229Y-120892963D01*
X79114090Y-63365902D02*
X79235862Y-63400746D01*
X77924322Y-124165597D02*
X77942313Y-124182698D01*
X7000000Y-71506333D02*
X7000000Y-72509877D01*
X78173893Y-7620174D02*
X78173690Y-7620327D01*
X139316071Y-63483007D02*
X139441716Y-63467005D01*
X71858399Y-61409836D02*
X71865830Y-61386152D01*
X71469261Y-69796773D02*
X71469119Y-69796563D01*
X9533246Y-68536829D02*
X9408574Y-68559175D01*
X79684179Y-68516963D02*
X79683928Y-68516992D01*
X139763892Y-63400812D02*
X139764137Y-63400746D01*
X8055506Y-7715882D02*
X8036672Y-7732050D01*
X140029928Y-63317353D02*
X140030166Y-63317268D01*
X7817301Y-62557686D02*
X7834402Y-62575677D01*
X137010718Y-6155262D02*
X137004770Y-6107036D01*
X5796861Y-5019025D02*
X5844737Y-5010718D01*
X67611144Y-68424637D02*
X67566721Y-68404946D01*
X77016963Y-9684179D02*
X77014452Y-9708874D01*
X139466503Y-124963211D02*
X139466753Y-124963170D01*
X69006205Y-63499841D02*
X69006331Y-63499839D01*
X81155262Y-6989281D02*
X81107036Y-6995229D01*
X77000158Y-60506205D02*
X77000160Y-60506331D01*
X5140851Y-73018960D02*
X5116900Y-72976681D01*
X78424025Y-124552359D02*
X78533176Y-124616613D01*
X141996470Y-71360716D02*
X141996460Y-71360463D01*
X71075858Y-69334579D02*
X71075677Y-69334402D01*
X11833152Y-6560012D02*
X11805173Y-6599740D01*
X143560012Y-5166847D02*
X143599740Y-5194826D01*
X141267781Y-62463517D02*
X141267949Y-62463327D01*
X77000000Y-121993666D02*
X77000000Y-121993792D01*
X141865830Y-9113847D02*
X141858399Y-9090163D01*
X78173690Y-69120327D02*
X78154062Y-69135520D01*
X141907034Y-9260136D02*
X141900812Y-9236107D01*
X81775278Y-6638047D02*
X81743539Y-6674841D01*
X4296Y-1878D02*
X3902Y-2170D01*
X79235862Y-7099253D02*
X79114090Y-7134097D01*
X69739617Y-68592904D02*
X69616236Y-68564273D01*
X80006333Y-7000000D02*
X80006207Y-7000000D01*
X11859148Y-63981039D02*
X11883099Y-64023318D01*
X11107036Y-68495229D02*
X11058576Y-68498804D01*
X76998804Y-59441423D02*
X77000000Y-59490122D01*
X140053680Y-124808557D02*
X140171303Y-124761572D01*
X142001195Y-59441423D02*
X142004770Y-59392963D01*
X77016992Y-60816071D02*
X77032994Y-60941716D01*
X81904946Y-67933278D02*
X81883099Y-67976681D01*
X6297380Y-58542631D02*
X6343519Y-58557874D01*
X81388855Y-126924637D02*
X81343519Y-126942125D01*
X6970328Y-72750549D02*
X6957368Y-72797380D01*
X141985569Y-60790873D02*
X141995187Y-60664579D01*
X5019025Y-11203138D02*
X5010718Y-11155262D01*
X82000000Y-6009877D02*
X82000000Y-6009877D01*
X8154062Y-69135520D02*
X8153863Y-69135678D01*
X67057874Y-67843519D02*
X67042631Y-67797380D01*
X7182731Y-70469833D02*
X7182646Y-70470071D01*
X71182871Y-69442499D02*
X71182698Y-69442313D01*
X71907095Y-9260382D02*
X71907034Y-9260136D01*
X72256460Y-11674841D02*
X72224721Y-11638047D01*
X67990122Y-63500000D02*
X68993666Y-63500000D01*
X3159Y-2811D02*
X2811Y-3159D01*
X78533396Y-124616738D02*
X78555099Y-124628785D01*
X67796861Y-63519025D02*
X67844737Y-63510718D01*
X143638047Y-5224721D02*
X143674841Y-5256460D01*
X6924637Y-120611144D02*
X6942125Y-120656480D01*
X5566721Y-5095053D02*
X5611144Y-5075362D01*
X137439987Y-126833152D02*
X137400259Y-126805173D01*
X71616738Y-123466603D02*
X71628785Y-123444900D01*
X297Y-7863D02*
X201Y-8344D01*
X76995229Y-120892963D02*
X76998804Y-120941423D01*
X141900812Y-70736107D02*
X141900746Y-70735862D01*
X77248312Y-70305652D02*
X77238524Y-70328462D01*
X9993668Y-63499839D02*
X9993794Y-63499841D01*
X11155262Y-6989281D02*
X11107036Y-6995229D01*
X139615988Y-7064219D02*
X139591674Y-7059223D01*
X67019025Y-126203138D02*
X67010718Y-126155262D01*
X140944493Y-62784117D02*
X140963327Y-62767949D01*
X72010718Y-59344737D02*
X72019025Y-59296861D01*
X137057874Y-67843519D02*
X137042631Y-67797380D01*
X137010718Y-5844737D02*
X137019025Y-5796861D01*
X140466603Y-7383261D02*
X140444900Y-7371214D01*
X77924322Y-62665597D02*
X77942313Y-62682698D01*
X77461038Y-8402530D02*
X77460901Y-8402743D01*
X67019025Y-6203138D02*
X67010718Y-6155262D01*
X137194826Y-63900259D02*
X137224721Y-63861952D01*
X78402530Y-63038961D02*
X78402743Y-63039098D01*
X72749450Y-73470328D02*
X72702619Y-73457368D01*
X71900812Y-9236107D02*
X71900746Y-9235862D01*
X72116900Y-11476681D02*
X72095053Y-11433278D01*
X11989281Y-64344737D02*
X11995229Y-64392963D01*
X9835673Y-124995203D02*
X9860463Y-124996460D01*
X11107036Y-5004770D02*
X11155262Y-5010718D01*
X7924322Y-7834402D02*
X7924141Y-7834579D01*
X141761572Y-123171303D02*
X141808557Y-123053680D01*
X7092965Y-61239863D02*
X7099187Y-61263892D01*
X72566721Y-58595053D02*
X72611144Y-58575362D01*
X70724015Y-7545207D02*
X70723809Y-7545060D01*
X67289966Y-68210033D02*
X67256460Y-68174841D01*
X77016963Y-122315820D02*
X77016992Y-122316071D01*
X142656480Y-11942125D02*
X142611144Y-11924637D01*
X140576191Y-68947771D02*
X140575974Y-68947640D01*
X78154062Y-7635520D02*
X78153863Y-7635678D01*
X71284280Y-123944299D02*
X71364321Y-123846136D01*
X142990122Y-58500000D02*
X143009877Y-58500000D01*
X71817268Y-61530166D02*
X71817353Y-61529928D01*
X7248312Y-70305652D02*
X7238524Y-70328462D01*
X137289966Y-125289966D02*
X137325158Y-125256460D01*
X7032994Y-71058283D02*
X7016992Y-71183928D01*
X67892963Y-68495229D02*
X67844737Y-68489281D01*
X57Y-9809D02*
X3Y-12027D01*
X69886152Y-68634169D02*
X69885909Y-68634097D01*
X137001195Y-5941423D02*
X137004770Y-5892963D01*
X7942313Y-124182698D02*
X7942499Y-124182871D01*
X7817301Y-124057686D02*
X7834402Y-124075677D01*
X72892963Y-73495229D02*
X72844737Y-73489281D01*
X141985569Y-122290873D02*
X141995187Y-122164579D01*
X137844737Y-6989281D02*
X137796861Y-6980974D01*
X143833152Y-58939987D02*
X143859148Y-58981039D01*
X72796861Y-120019025D02*
X72844737Y-120010718D01*
X7371214Y-123444900D02*
X7383261Y-123466603D01*
X11343519Y-63557874D02*
X11388855Y-63575362D01*
X8555099Y-124628785D02*
X8555322Y-124628905D01*
X148995295Y-131998394D02*
X148995703Y-131998121D01*
X141940824Y-61091425D02*
X141963170Y-60966753D01*
X71552228Y-123576191D02*
X71552359Y-123575974D01*
X137749450Y-68470328D02*
X137702619Y-68457368D01*
X71985547Y-122291125D02*
X71985569Y-122290873D01*
X5325158Y-126743539D02*
X5289966Y-126710033D01*
X71983036Y-71184179D02*
X71983007Y-71183928D01*
X81476681Y-6883099D02*
X81433278Y-6904946D01*
X137019025Y-64296861D02*
X137029671Y-64249450D01*
X77141679Y-122910076D02*
X77182646Y-123029928D01*
X67892963Y-6995229D02*
X67844737Y-6989281D01*
X5702619Y-11957368D02*
X5656480Y-11942125D01*
X11980974Y-64296861D02*
X11989281Y-64344737D01*
X71075858Y-7834579D02*
X71075677Y-7834402D01*
X142042631Y-59202619D02*
X142057874Y-59156480D01*
X141616738Y-61966603D02*
X141628785Y-61944900D01*
X72892963Y-11995229D02*
X72844737Y-11989281D01*
X71907095Y-122739617D02*
X71935726Y-122616236D01*
X137611144Y-63575362D02*
X137656480Y-63557874D01*
X11998804Y-125941423D02*
X12000000Y-125990122D01*
X7312451Y-61832411D02*
X7371094Y-61944677D01*
X140826309Y-124379672D02*
X140845937Y-124364479D01*
X71900746Y-9235862D02*
X71865902Y-9114090D01*
X11297380Y-126957368D02*
X11250549Y-126970328D01*
X3902Y-2170D02*
X3522Y-2482D01*
X71858320Y-9089923D02*
X71817353Y-8970071D01*
X11998804Y-67558576D02*
X11995229Y-67607036D01*
X137523318Y-125116900D02*
X137566721Y-125095053D01*
X141999999Y-60493792D02*
X142000000Y-60493666D01*
X137000000Y-125990122D02*
X137000000Y-125990122D01*
X139885909Y-7134097D02*
X139764137Y-7099253D01*
X5941423Y-58501195D02*
X5990122Y-58500000D01*
X11518960Y-63640851D02*
X11560012Y-63666847D01*
X71165420Y-62575858D02*
X71165597Y-62575677D01*
X79993668Y-124999839D02*
X79993794Y-124999841D01*
X140724015Y-124454792D02*
X140826106Y-124379825D01*
X142000000Y-60493666D02*
X142000000Y-59490122D01*
X11883099Y-125523318D02*
X11904946Y-125566721D01*
D12*
X155450476Y-5904761D02*
X156117142Y-7904761D01*
X156783809Y-5904761D01*
X157450476Y-7142857D02*
X158974285Y-7142857D01*
X161069523Y-7714285D02*
X160974285Y-7809523D01*
X160688571Y-7904761D01*
X160498095Y-7904761D01*
X160212380Y-7809523D01*
X160021904Y-7619047D01*
X159926666Y-7428571D01*
X159831428Y-7047619D01*
X159831428Y-6761904D01*
X159926666Y-6380952D01*
X160021904Y-6190476D01*
X160212380Y-6000000D01*
X160498095Y-5904761D01*
X160688571Y-5904761D01*
X160974285Y-6000000D01*
X161069523Y-6095238D01*
X161926666Y-5904761D02*
X161926666Y-7523809D01*
X162021904Y-7714285D01*
X162117142Y-7809523D01*
X162307619Y-7904761D01*
X162688571Y-7904761D01*
X162879047Y-7809523D01*
X162974285Y-7714285D01*
X163069523Y-7523809D01*
X163069523Y-5904761D01*
X163736190Y-5904761D02*
X164879047Y-5904761D01*
X164307619Y-7904761D02*
X164307619Y-5904761D01*
X155450476Y-62404761D02*
X156117142Y-64404761D01*
X156783809Y-62404761D01*
X157450476Y-63642857D02*
X158974285Y-63642857D01*
X161069523Y-64214285D02*
X160974285Y-64309523D01*
X160688571Y-64404761D01*
X160498095Y-64404761D01*
X160212380Y-64309523D01*
X160021904Y-64119047D01*
X159926666Y-63928571D01*
X159831428Y-63547619D01*
X159831428Y-63261904D01*
X159926666Y-62880952D01*
X160021904Y-62690476D01*
X160212380Y-62500000D01*
X160498095Y-62404761D01*
X160688571Y-62404761D01*
X160974285Y-62500000D01*
X161069523Y-62595238D01*
X161926666Y-62404761D02*
X161926666Y-64023809D01*
X162021904Y-64214285D01*
X162117142Y-64309523D01*
X162307619Y-64404761D01*
X162688571Y-64404761D01*
X162879047Y-64309523D01*
X162974285Y-64214285D01*
X163069523Y-64023809D01*
X163069523Y-62404761D01*
X163736190Y-62404761D02*
X164879047Y-62404761D01*
X164307619Y-64404761D02*
X164307619Y-62404761D01*
X70904761Y6450477D02*
X72904761Y7117143D01*
X70904761Y7783810D01*
X72142857Y8450477D02*
X72142857Y9974286D01*
X72714285Y12069524D02*
X72809523Y11974286D01*
X72904761Y11688572D01*
X72904761Y11498096D01*
X72809523Y11212381D01*
X72619047Y11021905D01*
X72428571Y10926667D01*
X72047619Y10831429D01*
X71761904Y10831429D01*
X71380952Y10926667D01*
X71190476Y11021905D01*
X71000000Y11212381D01*
X70904761Y11498096D01*
X70904761Y11688572D01*
X71000000Y11974286D01*
X71095238Y12069524D01*
X70904761Y12926667D02*
X72523809Y12926667D01*
X72714285Y13021905D01*
X72809523Y13117143D01*
X72904761Y13307620D01*
X72904761Y13688572D01*
X72809523Y13879048D01*
X72714285Y13974286D01*
X72523809Y14069524D01*
X70904761Y14069524D01*
X70904761Y14736191D02*
X70904761Y15879048D01*
X72904761Y15307620D02*
X70904761Y15307620D01*
X75904761Y6450477D02*
X77904761Y7117143D01*
X75904761Y7783810D01*
X77142857Y8450477D02*
X77142857Y9974286D01*
X77714285Y12069524D02*
X77809523Y11974286D01*
X77904761Y11688572D01*
X77904761Y11498096D01*
X77809523Y11212381D01*
X77619047Y11021905D01*
X77428571Y10926667D01*
X77047619Y10831429D01*
X76761904Y10831429D01*
X76380952Y10926667D01*
X76190476Y11021905D01*
X76000000Y11212381D01*
X75904761Y11498096D01*
X75904761Y11688572D01*
X76000000Y11974286D01*
X76095238Y12069524D01*
X75904761Y12926667D02*
X77523809Y12926667D01*
X77714285Y13021905D01*
X77809523Y13117143D01*
X77904761Y13307620D01*
X77904761Y13688572D01*
X77809523Y13879048D01*
X77714285Y13974286D01*
X77523809Y14069524D01*
X75904761Y14069524D01*
X75904761Y14736191D02*
X75904761Y15879048D01*
X77904761Y15307620D02*
X75904761Y15307620D01*
X140904761Y6450477D02*
X142904761Y7117143D01*
X140904761Y7783810D01*
X142142857Y8450477D02*
X142142857Y9974286D01*
X142714285Y12069524D02*
X142809523Y11974286D01*
X142904761Y11688572D01*
X142904761Y11498096D01*
X142809523Y11212381D01*
X142619047Y11021905D01*
X142428571Y10926667D01*
X142047619Y10831429D01*
X141761904Y10831429D01*
X141380952Y10926667D01*
X141190476Y11021905D01*
X141000000Y11212381D01*
X140904761Y11498096D01*
X140904761Y11688572D01*
X141000000Y11974286D01*
X141095238Y12069524D01*
X140904761Y12926667D02*
X142523809Y12926667D01*
X142714285Y13021905D01*
X142809523Y13117143D01*
X142904761Y13307620D01*
X142904761Y13688572D01*
X142809523Y13879048D01*
X142714285Y13974286D01*
X142523809Y14069524D01*
X140904761Y14069524D01*
X140904761Y14736191D02*
X140904761Y15879048D01*
X142904761Y15307620D02*
X140904761Y15307620D01*
X5904761Y6450477D02*
X7904761Y7117143D01*
X5904761Y7783810D01*
X7142857Y8450477D02*
X7142857Y9974286D01*
X7714285Y12069524D02*
X7809523Y11974286D01*
X7904761Y11688572D01*
X7904761Y11498096D01*
X7809523Y11212381D01*
X7619047Y11021905D01*
X7428571Y10926667D01*
X7047619Y10831429D01*
X6761904Y10831429D01*
X6380952Y10926667D01*
X6190476Y11021905D01*
X6000000Y11212381D01*
X5904761Y11498096D01*
X5904761Y11688572D01*
X6000000Y11974286D01*
X6095238Y12069524D01*
X5904761Y12926667D02*
X7523809Y12926667D01*
X7714285Y13021905D01*
X7809523Y13117143D01*
X7904761Y13307620D01*
X7904761Y13688572D01*
X7809523Y13879048D01*
X7714285Y13974286D01*
X7523809Y14069524D01*
X5904761Y14069524D01*
X5904761Y14736191D02*
X5904761Y15879048D01*
X7904761Y15307620D02*
X5904761Y15307620D01*
X155450476Y-67404761D02*
X156117142Y-69404761D01*
X156783809Y-67404761D01*
X157450476Y-68642857D02*
X158974285Y-68642857D01*
X161069523Y-69214285D02*
X160974285Y-69309523D01*
X160688571Y-69404761D01*
X160498095Y-69404761D01*
X160212380Y-69309523D01*
X160021904Y-69119047D01*
X159926666Y-68928571D01*
X159831428Y-68547619D01*
X159831428Y-68261904D01*
X159926666Y-67880952D01*
X160021904Y-67690476D01*
X160212380Y-67500000D01*
X160498095Y-67404761D01*
X160688571Y-67404761D01*
X160974285Y-67500000D01*
X161069523Y-67595238D01*
X161926666Y-67404761D02*
X161926666Y-69023809D01*
X162021904Y-69214285D01*
X162117142Y-69309523D01*
X162307619Y-69404761D01*
X162688571Y-69404761D01*
X162879047Y-69309523D01*
X162974285Y-69214285D01*
X163069523Y-69023809D01*
X163069523Y-67404761D01*
X163736190Y-67404761D02*
X164879047Y-67404761D01*
X164307619Y-69404761D02*
X164307619Y-67404761D01*
X155450476Y-123904761D02*
X156117142Y-125904761D01*
X156783809Y-123904761D01*
X157450476Y-125142857D02*
X158974285Y-125142857D01*
X161069523Y-125714285D02*
X160974285Y-125809523D01*
X160688571Y-125904761D01*
X160498095Y-125904761D01*
X160212380Y-125809523D01*
X160021904Y-125619047D01*
X159926666Y-125428571D01*
X159831428Y-125047619D01*
X159831428Y-124761904D01*
X159926666Y-124380952D01*
X160021904Y-124190476D01*
X160212380Y-124000000D01*
X160498095Y-123904761D01*
X160688571Y-123904761D01*
X160974285Y-124000000D01*
X161069523Y-124095238D01*
X161926666Y-123904761D02*
X161926666Y-125523809D01*
X162021904Y-125714285D01*
X162117142Y-125809523D01*
X162307619Y-125904761D01*
X162688571Y-125904761D01*
X162879047Y-125809523D01*
X162974285Y-125714285D01*
X163069523Y-125523809D01*
X163069523Y-123904761D01*
X163736190Y-123904761D02*
X164879047Y-123904761D01*
X164307619Y-125904761D02*
X164307619Y-123904761D01*
M02*
