G04 #@! TF.GenerationSoftware,KiCad,Pcbnew,8.0.7*
G04 #@! TF.CreationDate,2024-12-23T12:56:31+02:00*
G04 #@! TF.ProjectId,SH-RPi-panel,53482d52-5069-42d7-9061-6e656c2e6b69,v2.0.1*
G04 #@! TF.SameCoordinates,Original*
G04 #@! TF.FileFunction,Profile,NP*
%FSLAX46Y46*%
G04 Gerber Fmt 4.6, Leading zero omitted, Abs format (unit mm)*
G04 Created by KiCad (PCBNEW 8.0.7) date 2024-12-23 12:56:31*
%MOMM*%
%LPD*%
G01*
G04 APERTURE LIST*
G04 #@! TA.AperFunction,Profile*
%ADD10C,0.100000*%
G04 #@! TD*
G04 #@! TA.AperFunction,Profile*
%ADD11C,0.300000*%
G04 #@! TD*
%ADD12C,0.300000*%
G04 APERTURE END LIST*
D10*
X71616625Y-246466801D02*
X71628893Y-246444699D01*
X71907088Y-193760358D02*
X71900752Y-193735887D01*
X6556014Y-243168362D02*
X6596103Y-243196595D01*
X67949981Y-191498796D02*
X67901080Y-191495189D01*
X70171326Y-63261563D02*
X70194555Y-63251594D01*
X73941602Y-120662447D02*
X73956983Y-120709005D01*
X67365241Y-191273237D02*
X67328112Y-191241209D01*
X67226762Y-248365241D02*
X67258790Y-248328112D01*
X71182871Y-247057500D02*
X71267781Y-246963517D01*
X72196595Y-120403896D02*
X72226762Y-120365241D01*
X71865895Y-193614065D02*
X71858328Y-193589947D01*
X72029939Y-11243737D02*
X72019195Y-11195895D01*
X73882039Y-120528074D02*
X73904085Y-120571872D01*
X72142129Y-73014588D02*
X72117960Y-72971925D01*
X5019195Y-195695895D02*
X5010812Y-195647583D01*
X70309671Y-7301297D02*
X70194578Y-7248415D01*
X7000160Y-132993680D02*
X7000000Y-133006321D01*
X9709101Y-130014432D02*
X9683953Y-130016989D01*
X73471925Y-73382039D02*
X73428127Y-73404085D01*
X5571872Y-243095914D02*
X5616699Y-243076044D01*
X11707399Y-186792600D02*
X11741209Y-186828112D01*
X67999012Y-7000000D02*
X67949981Y-6998796D01*
X11741209Y-191171887D02*
X11707399Y-191207399D01*
X73000987Y-181500000D02*
X73050018Y-181501203D01*
X72709005Y-196456983D02*
X72662447Y-196441602D01*
X11882039Y-67971925D02*
X11857870Y-68014588D01*
X11050018Y-5001203D02*
X11098919Y-5004810D01*
X73998796Y-72550018D02*
X73995189Y-72598919D01*
X71996470Y-183639283D02*
X71999839Y-183506331D01*
X7032994Y-9558283D02*
X7016992Y-9683928D01*
X67001203Y-249050018D02*
X67000000Y-249000987D01*
X8055700Y-247284280D02*
X8153863Y-247364321D01*
X11923955Y-125616699D02*
X11941602Y-125662447D01*
X67804104Y-129980804D02*
X67756262Y-129970060D01*
X7099253Y-184264137D02*
X7134097Y-184385909D01*
X73980804Y-72695895D02*
X73970060Y-72743737D01*
X5528074Y-120117960D02*
X5571872Y-120095914D01*
X71907088Y-9260358D02*
X71900752Y-9235887D01*
X72403896Y-243196595D02*
X72443985Y-243168362D01*
X11471925Y-63617960D02*
X11514588Y-63642129D01*
X72001203Y-195550018D02*
X72000000Y-195500987D01*
X9260382Y-124907095D02*
X9383763Y-124935726D01*
X67019195Y-67695895D02*
X67010812Y-67647583D01*
X67196595Y-125403896D02*
X67226762Y-125365241D01*
X71454792Y-8275984D02*
X71379825Y-8173893D01*
X6741209Y-134671887D02*
X6707399Y-134707399D01*
X9235887Y-124900752D02*
X9260358Y-124907088D01*
X6970060Y-11243737D02*
X6956983Y-11290994D01*
X67058397Y-187162447D02*
X67076044Y-187116699D01*
X73998796Y-120949981D02*
X74000000Y-120999012D01*
X7312440Y-70167611D02*
X7301308Y-70190306D01*
X11596103Y-125196595D02*
X11634758Y-125226762D01*
X11803404Y-6596103D02*
X11773237Y-6634758D01*
X73970060Y-249243737D02*
X73956983Y-249290994D01*
X7732218Y-185463517D02*
X7817128Y-185557500D01*
X7301308Y-61809693D02*
X7312440Y-61832388D01*
X73923955Y-5616699D02*
X73941602Y-5662447D01*
X70703226Y-7530738D02*
X70597469Y-7461038D01*
X6428127Y-181595914D02*
X6471925Y-181617960D01*
X8276004Y-185954806D02*
X8296752Y-185969247D01*
X70963498Y-130732201D02*
X70944318Y-130715736D01*
X67058397Y-6337552D02*
X67043016Y-6290994D01*
X73773237Y-249634758D02*
X73741209Y-249671887D01*
X8667611Y-63187559D02*
X8690306Y-63198691D01*
X70846116Y-69135662D02*
X70826127Y-69120189D01*
X71751594Y-184694555D02*
X71761563Y-184671326D01*
X73989187Y-134147583D02*
X73980804Y-134195895D01*
X11147583Y-129989187D02*
X11098919Y-129995189D01*
X67662447Y-63558397D02*
X67709005Y-63543016D01*
X11514588Y-6857870D02*
X11471925Y-6882039D01*
X5004810Y-120901080D02*
X5010812Y-120852416D01*
X71999839Y-194493668D02*
X71996470Y-194360716D01*
X73989187Y-249147583D02*
X73980804Y-249195895D01*
X67117960Y-6471925D02*
X67095914Y-6428127D01*
X73195895Y-196480804D02*
X73147583Y-196489187D01*
X6831637Y-58943985D02*
X6857870Y-58985411D01*
X9408549Y-191559180D02*
X9383788Y-191564268D01*
X6923955Y-134383300D02*
X6904085Y-134428127D01*
X67000000Y-125999012D02*
X67001203Y-125949981D01*
X71985569Y-122290873D02*
X71995187Y-122164579D01*
X7461024Y-69902551D02*
X7447653Y-69924003D01*
X71900746Y-9235862D02*
X71865902Y-9114090D01*
X67058397Y-5662447D02*
X67076044Y-5616699D01*
X71687548Y-8667588D02*
X71628905Y-8555322D01*
X9860691Y-130003530D02*
X9835445Y-130004810D01*
X6857870Y-11514588D02*
X6831637Y-11556014D01*
X73989187Y-72647583D02*
X73980804Y-72695895D01*
X6741209Y-243328112D02*
X6773237Y-243365241D01*
X73941602Y-59162447D02*
X73956983Y-59209005D01*
X67365241Y-129773237D02*
X67328112Y-129741209D01*
X67328112Y-63758790D02*
X67365241Y-63726762D01*
X71999839Y-245006319D02*
X71999999Y-244993678D01*
X69164554Y-68504810D02*
X69139308Y-68503530D01*
X73195895Y-243019195D02*
X73243737Y-243029939D01*
X11989187Y-129147583D02*
X11980804Y-129195895D01*
X11556014Y-63668362D02*
X11596103Y-63696595D01*
X5010812Y-59352416D02*
X5019195Y-59304104D01*
X6337552Y-73441602D02*
X6290994Y-73456983D01*
X9558258Y-130032998D02*
X9533271Y-130036825D01*
X7461024Y-131402551D02*
X7447653Y-131424003D01*
X72528074Y-11882039D02*
X72485411Y-11857870D01*
X67485411Y-5142129D02*
X67528074Y-5117960D01*
X72999012Y-196500000D02*
X72949981Y-196498796D01*
X8296773Y-185969261D02*
X8402530Y-186038961D01*
X73471925Y-120117960D02*
X73514588Y-120142129D01*
X71940819Y-193908549D02*
X71935731Y-193883788D01*
X71284263Y-69555681D02*
X71267798Y-69536501D01*
X5095914Y-134428127D02*
X5076044Y-134383300D01*
X5662447Y-58558397D02*
X5709005Y-58543016D01*
X11195895Y-6980804D02*
X11147583Y-6989187D01*
X69441716Y-130032994D02*
X69316071Y-130016992D01*
X72292600Y-11707399D02*
X72258790Y-11671887D01*
X6989187Y-72647583D02*
X6980804Y-72695895D01*
X72709005Y-243043016D02*
X72756262Y-243029939D01*
X6428127Y-58595914D02*
X6471925Y-58617960D01*
X72168362Y-73056014D02*
X72142129Y-73014588D01*
X6471925Y-11882039D02*
X6428127Y-11904085D01*
X72901080Y-73495189D02*
X72852416Y-73489187D01*
X5756262Y-58529939D02*
X5804104Y-58519195D01*
X7635678Y-62346136D02*
X7715719Y-62444299D01*
X67000000Y-64499012D02*
X67001203Y-64449981D01*
X11857870Y-186985411D02*
X11882039Y-187028074D01*
X71628905Y-123444677D02*
X71687548Y-123332411D01*
X6707399Y-181792600D02*
X6741209Y-181828112D01*
X7000000Y-244993678D02*
X7000160Y-245006319D01*
X71165420Y-192424141D02*
X71075858Y-192334579D01*
X73831637Y-134556014D02*
X73803404Y-134596103D01*
X72571872Y-73404085D02*
X72528074Y-73382039D01*
X8275984Y-69045207D02*
X8173893Y-69120174D01*
X5756262Y-249970060D02*
X5709005Y-249956983D01*
X67117960Y-129471925D02*
X67095914Y-129428127D01*
X71267781Y-131036482D02*
X71182871Y-130942499D01*
X71967005Y-60941716D02*
X71983007Y-60816071D01*
X71698702Y-123309671D02*
X71751584Y-123194578D01*
X6956983Y-59209005D02*
X6970060Y-59256262D01*
X71983007Y-9683928D02*
X71967005Y-9558283D01*
X5258790Y-196171887D02*
X5226762Y-196134758D01*
X11147583Y-191489187D02*
X11098919Y-191495189D01*
X5756262Y-134970060D02*
X5709005Y-134956983D01*
X5292600Y-73207399D02*
X5258790Y-73171887D01*
X6707399Y-196207399D02*
X6671887Y-196241209D01*
X72142129Y-196014588D02*
X72117960Y-195971925D01*
X11290994Y-6956983D02*
X11243737Y-6970060D01*
X11337552Y-249941602D02*
X11290994Y-249956983D01*
X71364321Y-8153863D02*
X71284280Y-8055700D01*
X67095914Y-64071872D02*
X67117960Y-64028074D01*
X11998796Y-187449981D02*
X12000000Y-187499012D01*
X8036482Y-192232218D02*
X7942499Y-192317128D01*
X67168362Y-63943985D02*
X67196595Y-63903896D01*
X7092911Y-245739641D02*
X7099247Y-245764112D01*
X72804104Y-120019195D02*
X72852416Y-120010812D01*
X11671887Y-63758790D02*
X11707399Y-63792600D01*
X8805421Y-130248415D02*
X8690328Y-130301297D01*
X73337552Y-196441602D02*
X73290994Y-196456983D01*
X67616699Y-249923955D02*
X67571872Y-249904085D01*
X73098919Y-243004810D02*
X73147583Y-243010812D01*
X6904085Y-182071872D02*
X6923955Y-182116699D01*
X72076044Y-120616699D02*
X72095914Y-120571872D01*
X7371094Y-193055322D02*
X7312451Y-193167588D01*
X67095914Y-129428127D02*
X67076044Y-129383300D01*
X9383788Y-124935731D02*
X9408549Y-124940819D01*
X69139308Y-63496469D02*
X69164554Y-63495189D01*
X67365241Y-63726762D02*
X67403896Y-63696595D01*
X72196595Y-58903896D02*
X72226762Y-58865241D01*
X5365241Y-134773237D02*
X5328112Y-134741209D01*
X7141671Y-70589947D02*
X7134104Y-70614065D01*
X7312451Y-184832411D02*
X7371094Y-184944677D01*
X67168362Y-129556014D02*
X67142129Y-129514588D01*
X67095914Y-67928127D02*
X67076044Y-67883300D01*
X73147583Y-73489187D02*
X73098919Y-73495189D01*
X73634758Y-11773237D02*
X73596103Y-11803404D01*
X67709005Y-248043016D02*
X67756262Y-248029939D01*
X71182853Y-192442480D02*
X71165438Y-192424159D01*
X72226762Y-11634758D02*
X72196595Y-11596103D01*
X73634758Y-249773237D02*
X73596103Y-249803404D01*
X71454792Y-192775984D02*
X71379825Y-192673893D01*
X67000000Y-6000987D02*
X67000000Y-5999012D01*
X5852416Y-181510812D02*
X5901080Y-181504810D01*
X11831637Y-249556014D02*
X11803404Y-249596103D01*
X5709005Y-181543016D02*
X5756262Y-181529939D01*
X5571872Y-196404085D02*
X5528074Y-196382039D01*
X71999839Y-60506319D02*
X71999999Y-60493678D01*
X8970047Y-130182654D02*
X8946343Y-130191433D01*
X5004810Y-134098919D02*
X5001203Y-134050018D01*
X67000000Y-187499012D02*
X67001203Y-187449981D01*
X72616699Y-120076044D02*
X72662447Y-120058397D01*
X7447640Y-131424025D02*
X7383386Y-131533176D01*
X6098919Y-196495189D02*
X6050018Y-196498796D01*
X7036829Y-245466753D02*
X7059175Y-245591425D01*
X7032998Y-245441741D02*
X7036825Y-245466728D01*
X72709005Y-120043016D02*
X72756262Y-120029939D01*
X67076044Y-129383300D02*
X67058397Y-129337552D01*
X72804104Y-181519195D02*
X72852416Y-181510812D01*
X67226762Y-186865241D02*
X67258790Y-186828112D01*
X73923955Y-59116699D02*
X73941602Y-59162447D01*
X6941602Y-134337552D02*
X6923955Y-134383300D01*
X5804104Y-196480804D02*
X5756262Y-196470060D01*
X6147583Y-181510812D02*
X6195895Y-181519195D01*
X72258790Y-243328112D02*
X72292600Y-243292600D01*
X69164554Y-7004810D02*
X69139308Y-7003530D01*
X69910052Y-191641671D02*
X69885934Y-191634104D01*
X5999012Y-120000000D02*
X6000987Y-120000000D01*
X70309671Y-68801297D02*
X70194578Y-68748415D01*
X73857870Y-181985411D02*
X73882039Y-182028074D01*
X72328112Y-134741209D02*
X72292600Y-134707399D01*
X5226762Y-249634758D02*
X5196595Y-249596103D01*
X72043016Y-182209005D02*
X72058397Y-182162447D01*
X6831637Y-11556014D02*
X6803404Y-11596103D01*
X73671887Y-58758790D02*
X73707399Y-58792600D01*
X11980804Y-249195895D02*
X11970060Y-249243737D01*
X9260358Y-68592911D02*
X9235887Y-68599247D01*
X69164554Y-191504810D02*
X69139308Y-191503530D01*
X11290994Y-68456983D02*
X11243737Y-68470060D01*
X67292600Y-63792600D02*
X67328112Y-63758790D01*
X72804104Y-196480804D02*
X72756262Y-196470060D01*
X69164554Y-130004810D02*
X69139308Y-130003530D01*
X72095914Y-134428127D02*
X72076044Y-134383300D01*
X11195895Y-248019195D02*
X11243737Y-248029939D01*
X8055700Y-62784280D02*
X8153863Y-62864321D01*
X72949981Y-243001203D02*
X72999012Y-243000000D01*
X69466728Y-7036825D02*
X69441741Y-7032998D01*
X9993668Y-68500160D02*
X9860716Y-68503529D01*
X9533271Y-63463174D02*
X9558258Y-63467001D01*
X6831637Y-120443985D02*
X6857870Y-120485411D01*
X6803404Y-243403896D02*
X6831637Y-243443985D01*
X72258790Y-58828112D02*
X72292600Y-58792600D01*
X72058397Y-11337552D02*
X72043016Y-11290994D01*
X7036825Y-71033271D02*
X7032998Y-71058258D01*
X7371106Y-184944699D02*
X7383374Y-184966801D01*
X67662447Y-186558397D02*
X67709005Y-186543016D01*
X11989187Y-5852416D02*
X11995189Y-5901080D01*
X73147583Y-181510812D02*
X73195895Y-181519195D01*
X11671887Y-68241209D02*
X11634758Y-68273237D01*
X71983007Y-71183928D02*
X71967005Y-71058283D01*
X5142129Y-134514588D02*
X5117960Y-134471925D01*
X11882039Y-249471925D02*
X11857870Y-249514588D01*
X6471925Y-134882039D02*
X6428127Y-134904085D01*
X7182654Y-123029952D02*
X7191433Y-123053656D01*
X73970060Y-182256262D02*
X73980804Y-182304104D01*
X11671887Y-125258790D02*
X11707399Y-125292600D01*
X73000987Y-5000000D02*
X73050018Y-5001203D01*
X71907088Y-70760358D02*
X71900752Y-70735887D01*
X67019195Y-129195895D02*
X67010812Y-129147583D01*
X11773237Y-6634758D02*
X11741209Y-6671887D01*
X5292600Y-5292600D02*
X5328112Y-5258790D01*
X6596103Y-73303404D02*
X6556014Y-73331637D01*
X5226762Y-196134758D02*
X5196595Y-196096103D01*
X7715736Y-246944318D02*
X7732201Y-246963498D01*
X72528074Y-181617960D02*
X72571872Y-181595914D01*
X73882039Y-59028074D02*
X73904085Y-59071872D01*
X67010812Y-5852416D02*
X67019195Y-5804104D01*
X73147583Y-196489187D02*
X73098919Y-196495189D01*
X72616699Y-196423955D02*
X72571872Y-196404085D01*
X5226762Y-73134758D02*
X5196595Y-73096103D01*
X72804104Y-11980804D02*
X72756262Y-11970060D01*
X9235862Y-191599253D02*
X9114090Y-191634097D01*
X69764112Y-130099247D02*
X69739641Y-130092911D01*
X73147583Y-120010812D02*
X73195895Y-120019195D01*
X6147583Y-196489187D02*
X6098919Y-196495189D01*
X72571872Y-120095914D02*
X72616699Y-120076044D01*
X6050018Y-134998796D02*
X6000987Y-135000000D01*
X5095914Y-249428127D02*
X5076044Y-249383300D01*
X67443985Y-129831637D02*
X67403896Y-129803404D01*
X6596103Y-11803404D02*
X6556014Y-11831637D01*
X11428127Y-249904085D02*
X11383300Y-249923955D01*
X72226762Y-243365241D02*
X72258790Y-243328112D01*
X6995189Y-182401080D02*
X6998796Y-182449981D01*
X67852416Y-186510812D02*
X67901080Y-186504810D01*
X67292600Y-68207399D02*
X67258790Y-68171887D01*
X71267781Y-69536482D02*
X71182871Y-69442499D01*
X7817128Y-69442499D02*
X7732218Y-69536482D01*
X70053656Y-130191433D02*
X70029952Y-130182654D01*
X67852416Y-63510812D02*
X67901080Y-63504810D01*
X73098919Y-58504810D02*
X73147583Y-58510812D01*
X72949981Y-58501203D02*
X72999012Y-58500000D01*
X9709126Y-186485569D02*
X9835420Y-186495187D01*
X6337552Y-196441602D02*
X6290994Y-196456983D01*
X7924159Y-185665438D02*
X7942480Y-185682853D01*
X5403896Y-58696595D02*
X5443985Y-58668362D01*
X5226762Y-134634758D02*
X5196595Y-134596103D01*
X8533176Y-191883386D02*
X8424025Y-191947640D01*
X11741209Y-249671887D02*
X11707399Y-249707399D01*
X11923955Y-249383300D02*
X11904085Y-249428127D01*
X7032994Y-132558283D02*
X7016992Y-132683928D01*
X5999012Y-250000000D02*
X5949981Y-249998796D01*
X67226762Y-129634758D02*
X67196595Y-129596103D01*
X5901080Y-243004810D02*
X5949981Y-243001203D01*
X6243737Y-11970060D02*
X6195895Y-11980804D01*
X67168362Y-68056014D02*
X67142129Y-68014588D01*
X6383300Y-11923955D02*
X6337552Y-11941602D01*
X69591450Y-247940819D02*
X69616211Y-247935731D01*
X11471925Y-186617960D02*
X11514588Y-186642129D01*
X73383300Y-73423955D02*
X73337552Y-73441602D01*
X11857870Y-248485411D02*
X11882039Y-248528074D01*
X71808557Y-131946319D02*
X71761572Y-131828696D01*
X78998754Y-270D02*
X78987752Y0D01*
X73428127Y-5095914D02*
X73471925Y-5117960D01*
X10006333Y-186500000D02*
X11000987Y-186500000D01*
X5999012Y-5000000D02*
X11000987Y-5000000D01*
X5949981Y-243001203D02*
X5999012Y-243000000D01*
X70444677Y-191871094D02*
X70332411Y-191812451D01*
X71940824Y-184091425D02*
X71963170Y-183966753D01*
X73428127Y-11904085D02*
X73383300Y-11923955D01*
X72443985Y-134831637D02*
X72403896Y-134803404D01*
X6098919Y-11995189D02*
X6050018Y-11998796D01*
X67196595Y-6596103D02*
X67168362Y-6556014D01*
X72804104Y-134980804D02*
X72756262Y-134970060D01*
X8946319Y-7191442D02*
X8828696Y-7238427D01*
X11634758Y-125226762D02*
X11671887Y-125258790D01*
X67076044Y-6383300D02*
X67058397Y-6337552D01*
X9860691Y-7003530D02*
X9835445Y-7004810D01*
X71983010Y-122316046D02*
X71985567Y-122290898D01*
X71817353Y-246029928D02*
X71858320Y-245910076D01*
X9235862Y-7099253D02*
X9114090Y-7134097D01*
X5756262Y-181529939D02*
X5804104Y-181519195D01*
X11923955Y-187116699D02*
X11941602Y-187162447D01*
X72029939Y-182256262D02*
X72043016Y-182209005D01*
X73556014Y-134831637D02*
X73514588Y-134857870D01*
X11741209Y-63828112D02*
X11773237Y-63865241D01*
X8173893Y-62879825D02*
X8275984Y-62954792D01*
X6383300Y-120076044D02*
X6428127Y-120095914D01*
X11050018Y-129998796D02*
X11000987Y-130000000D01*
X7036829Y-122466753D02*
X7059175Y-122591425D01*
X11989187Y-249147583D02*
X11980804Y-249195895D01*
X73290994Y-120043016D02*
X73337552Y-120058397D01*
X73989187Y-195647583D02*
X73980804Y-195695895D01*
X8970071Y-63317353D02*
X9089923Y-63358320D01*
X5485411Y-11857870D02*
X5443985Y-11831637D01*
X71963174Y-60966728D02*
X71967001Y-60941741D01*
X67010812Y-67647583D02*
X67004810Y-67598919D01*
X8402530Y-191961038D02*
X8296773Y-192030738D01*
X8667611Y-124687559D02*
X8690306Y-124698691D01*
X7014430Y-132709126D02*
X7004812Y-132835420D01*
X5365241Y-243226762D02*
X5403896Y-243196595D01*
X73707399Y-11707399D02*
X73671887Y-11741209D01*
X73514588Y-5142129D02*
X73556014Y-5168362D01*
X7238427Y-131828696D02*
X7191442Y-131946319D01*
X5004810Y-5901080D02*
X5010812Y-5852416D01*
X7924141Y-192334579D02*
X7834579Y-192424141D01*
X11290994Y-63543016D02*
X11337552Y-63558397D01*
X73195895Y-181519195D02*
X73243737Y-181529939D01*
X67076044Y-248616699D02*
X67095914Y-248571872D01*
X73803404Y-120403896D02*
X73831637Y-120443985D01*
X67403896Y-6803404D02*
X67365241Y-6773237D01*
X73970060Y-134243737D02*
X73956983Y-134290994D01*
X11831637Y-191056014D02*
X11803404Y-191096103D01*
X73243737Y-134970060D02*
X73195895Y-134980804D01*
X72196595Y-196096103D02*
X72168362Y-196056014D01*
X70724015Y-185954792D02*
X70826106Y-185879825D01*
X5804104Y-249980804D02*
X5756262Y-249970060D01*
X9533271Y-247963174D02*
X9558258Y-247967001D01*
X73147583Y-243010812D02*
X73195895Y-243019195D01*
X78987752Y-254999999D02*
X78998754Y-254999729D01*
X69764137Y-124900746D02*
X69885909Y-124865902D01*
X69466753Y-186463170D02*
X69591425Y-186440824D01*
X73980804Y-5804104D02*
X73989187Y-5852416D01*
X72019195Y-11195895D02*
X72010812Y-11147583D01*
X72443985Y-181668362D02*
X72485411Y-181642129D01*
X71808566Y-246053656D02*
X71817345Y-246029952D01*
X73741209Y-243328112D02*
X73773237Y-243365241D01*
X71996469Y-194360691D02*
X71995189Y-194335445D01*
X5485411Y-243142129D02*
X5528074Y-243117960D01*
X11803404Y-248403896D02*
X11831637Y-248443985D01*
X6383300Y-243076044D02*
X6428127Y-243095914D01*
X6989187Y-195647583D02*
X6980804Y-195695895D01*
X8533198Y-186116625D02*
X8555300Y-186128893D01*
X11831637Y-68056014D02*
X11803404Y-68096103D01*
X72095914Y-195928127D02*
X72076044Y-195883300D01*
X5095914Y-59071872D02*
X5117960Y-59028074D01*
X69739641Y-63407088D02*
X69764112Y-63400752D01*
X73970060Y-72743737D02*
X73956983Y-72790994D01*
X71284263Y-8055681D02*
X71267798Y-8036501D01*
X11671887Y-6741209D02*
X11634758Y-6773237D01*
X72058397Y-59162447D02*
X72076044Y-59116699D01*
X9260358Y-130092911D02*
X9235887Y-130099247D01*
X70826106Y-69120174D02*
X70724015Y-69045207D01*
X67117960Y-67971925D02*
X67095914Y-67928127D01*
X11050018Y-125001203D02*
X11098919Y-125004810D01*
X11707399Y-248292600D02*
X11741209Y-248328112D01*
X73882039Y-11471925D02*
X73857870Y-11514588D01*
X73956983Y-120709005D02*
X73970060Y-120756262D01*
X11904085Y-67928127D02*
X11882039Y-67971925D01*
X73857870Y-249514588D02*
X73831637Y-249556014D01*
X72004810Y-134098919D02*
X72001203Y-134050018D01*
X11195895Y-186519195D02*
X11243737Y-186529939D01*
X7620189Y-185326127D02*
X7635662Y-185346116D01*
X72662447Y-58558397D02*
X72709005Y-58543016D01*
X73337552Y-73441602D02*
X73290994Y-73456983D01*
X70309693Y-247698691D02*
X70332388Y-247687559D01*
X67328112Y-248258790D02*
X67365241Y-248226762D01*
X73383300Y-249923955D02*
X73337552Y-249941602D01*
X7301297Y-131690328D02*
X7248415Y-131805421D01*
X5709005Y-196456983D02*
X5662447Y-196441602D01*
X73383300Y-11923955D02*
X73337552Y-11941602D01*
X7530752Y-123703247D02*
X7545193Y-123723995D01*
X6741209Y-73171887D02*
X6707399Y-73207399D01*
X11514588Y-63642129D02*
X11556014Y-63668362D01*
X7092904Y-70760382D02*
X7064273Y-70883763D01*
X8667588Y-191812451D02*
X8555322Y-191871094D01*
X72709005Y-58543016D02*
X72756262Y-58529939D01*
X73634758Y-58726762D02*
X73671887Y-58758790D01*
X11195895Y-191480804D02*
X11147583Y-191489187D01*
X5901080Y-73495189D02*
X5852416Y-73489187D01*
X71985567Y-9709101D02*
X71983010Y-9683953D01*
X72949981Y-73498796D02*
X72901080Y-73495189D01*
X72117960Y-182028074D02*
X72142129Y-181985411D01*
X5043016Y-120709005D02*
X5058397Y-120662447D01*
X71698691Y-193190306D02*
X71687559Y-193167611D01*
X7620189Y-123826127D02*
X7635662Y-123846116D01*
X11904085Y-6428127D02*
X11882039Y-6471925D01*
X5292600Y-11707399D02*
X5258790Y-11671887D01*
X71808557Y-193446319D02*
X71761572Y-193328696D01*
X7064273Y-245616236D02*
X7092904Y-245739617D01*
X71996470Y-245139283D02*
X71999839Y-245006331D01*
X67029939Y-64256262D02*
X67043016Y-64209005D01*
X69139283Y-68503529D02*
X69006331Y-68500160D01*
X71454806Y-246723995D02*
X71469247Y-246703247D01*
X7191433Y-70446343D02*
X7182654Y-70470047D01*
X71935731Y-61116211D02*
X71940819Y-61091450D01*
X69764137Y-186400746D02*
X69885909Y-186365902D01*
X73556014Y-5168362D02*
X73596103Y-5196595D01*
X67258790Y-63828112D02*
X67292600Y-63792600D01*
X71865902Y-245885909D02*
X71900746Y-245764137D01*
X11970060Y-129243737D02*
X11956983Y-129290994D01*
X7092904Y-9260382D02*
X7064273Y-9383763D01*
X73471925Y-181617960D02*
X73514588Y-181642129D01*
X71616613Y-70033176D02*
X71552359Y-69924025D01*
X72043016Y-195790994D02*
X72029939Y-195743737D01*
X67043016Y-187209005D02*
X67058397Y-187162447D01*
X67292600Y-6707399D02*
X67258790Y-6671887D01*
X67258790Y-248328112D02*
X67292600Y-248292600D01*
X71267781Y-8036482D02*
X71182871Y-7942499D01*
X72852416Y-11989187D02*
X72804104Y-11980804D01*
X73741209Y-120328112D02*
X73773237Y-120365241D01*
X67196595Y-248403896D02*
X67226762Y-248365241D01*
X72095914Y-59071872D02*
X72117960Y-59028074D01*
X67901080Y-191495189D02*
X67852416Y-191489187D01*
X69139283Y-130003529D02*
X69006331Y-130000160D01*
X72076044Y-72883300D02*
X72058397Y-72837552D01*
X67949981Y-6998796D02*
X67901080Y-6995189D01*
X6290994Y-196456983D02*
X6243737Y-196470060D01*
X71165420Y-7924141D02*
X71075858Y-7834579D01*
X67485411Y-63642129D02*
X67528074Y-63617960D01*
X71995189Y-122164554D02*
X71996469Y-122139308D01*
X11773237Y-186865241D02*
X11803404Y-186903896D01*
X6383300Y-73423955D02*
X6337552Y-73441602D01*
X73195895Y-73480804D02*
X73147583Y-73489187D01*
X6882039Y-72971925D02*
X6857870Y-73014588D01*
X71808557Y-70446319D02*
X71761572Y-70328696D01*
X6195895Y-11980804D02*
X6147583Y-11989187D01*
X5528074Y-58617960D02*
X5571872Y-58595914D01*
X70575996Y-124552346D02*
X70597448Y-124538975D01*
X5292600Y-181792600D02*
X5328112Y-181758790D01*
X70444677Y-130371094D02*
X70332411Y-130312451D01*
X71907095Y-184239617D02*
X71935726Y-184116236D01*
X9683953Y-63483010D02*
X9709101Y-63485567D01*
X72485411Y-243142129D02*
X72528074Y-243117960D01*
X6741209Y-58828112D02*
X6773237Y-58865241D01*
X72117960Y-120528074D02*
X72142129Y-120485411D01*
X67528074Y-129882039D02*
X67485411Y-129857870D01*
X73428127Y-58595914D02*
X73471925Y-58617960D01*
X71267798Y-62463498D02*
X71284263Y-62444318D01*
X72949981Y-196498796D02*
X72901080Y-196495189D01*
X67004810Y-5901080D02*
X67010812Y-5852416D01*
X11857870Y-191014588D02*
X11831637Y-191056014D01*
X72258790Y-134671887D02*
X72226762Y-134634758D01*
X67616699Y-125076044D02*
X67662447Y-125058397D01*
X72485411Y-134857870D02*
X72443985Y-134831637D01*
X67196595Y-63903896D02*
X67226762Y-63865241D01*
X71995187Y-132835420D02*
X71985569Y-132709126D01*
X6980804Y-120804104D02*
X6989187Y-120852416D01*
X67168362Y-191056014D02*
X67142129Y-191014588D01*
X71900752Y-122764112D02*
X71907088Y-122739641D01*
X6773237Y-134634758D02*
X6741209Y-134671887D01*
X73707399Y-73207399D02*
X73671887Y-73241209D01*
X72403896Y-73303404D02*
X72365241Y-73273237D01*
X73970060Y-195743737D02*
X73956983Y-195790994D01*
X69006319Y-130000160D02*
X68993678Y-130000000D01*
X73147583Y-11989187D02*
X73098919Y-11995189D01*
X6050018Y-120001203D02*
X6098919Y-120004810D01*
X9709126Y-247985569D02*
X9835420Y-247995187D01*
X5709005Y-120043016D02*
X5756262Y-120029939D01*
X11337552Y-191441602D02*
X11290994Y-191456983D01*
X5010812Y-11147583D02*
X5004810Y-11098919D01*
X7000160Y-245006331D02*
X7003529Y-245139283D01*
X71983010Y-60816046D02*
X71985567Y-60790898D01*
X7732201Y-69536501D02*
X7715736Y-69555681D01*
X5901080Y-58504810D02*
X5949981Y-58501203D01*
X7182654Y-61529952D02*
X7191433Y-61553656D01*
X74000000Y-249000987D02*
X73998796Y-249050018D01*
X73857870Y-196014588D02*
X73831637Y-196056014D01*
X11980804Y-5804104D02*
X11989187Y-5852416D01*
X11803404Y-191096103D02*
X11773237Y-191134758D01*
X6980804Y-243804104D02*
X6989187Y-243852416D01*
X7000160Y-71493680D02*
X7000000Y-71506321D01*
X5949981Y-11998796D02*
X5901080Y-11995189D01*
X72403896Y-134803404D02*
X72365241Y-134773237D01*
X7530738Y-131296773D02*
X7461038Y-131402530D01*
X6998796Y-72550018D02*
X6995189Y-72598919D01*
X70332411Y-124687548D02*
X70444677Y-124628905D01*
X71687548Y-193167588D02*
X71628905Y-193055322D01*
X67528074Y-248117960D02*
X67571872Y-248095914D01*
X73290994Y-58543016D02*
X73337552Y-58558397D01*
X5328112Y-134741209D02*
X5292600Y-134707399D01*
X9993668Y-130000160D02*
X9860716Y-130003529D01*
X73098919Y-73495189D02*
X73050018Y-73498796D01*
X6634758Y-120226762D02*
X6671887Y-120258790D01*
X11995189Y-125901080D02*
X11998796Y-125949981D01*
X11471925Y-191382039D02*
X11428127Y-191404085D01*
X70194578Y-124751584D02*
X70309671Y-124698702D01*
X72000000Y-72500987D02*
X72000000Y-71506333D01*
X67662447Y-125058397D02*
X67709005Y-125043016D01*
X6995189Y-59401080D02*
X6998796Y-59449981D01*
X7000000Y-10006333D02*
X7000000Y-11000987D01*
X70029952Y-124817345D02*
X70053656Y-124808566D01*
X7014432Y-60790898D02*
X7016989Y-60816046D01*
X71552346Y-69924003D02*
X71538975Y-69902551D01*
X71182853Y-7942480D02*
X71165438Y-7924159D01*
X6243737Y-120029939D02*
X6290994Y-120043016D01*
X12000000Y-6000987D02*
X11998796Y-6050018D01*
X67196595Y-68096103D02*
X67168362Y-68056014D01*
X5142129Y-181985411D02*
X5168362Y-181943985D01*
X7032998Y-122441741D02*
X7036825Y-122466728D01*
X70194555Y-7248405D02*
X70171326Y-7238436D01*
X67709005Y-186543016D02*
X67756262Y-186529939D01*
X5058397Y-59162447D02*
X5076044Y-59116699D01*
X5226762Y-120365241D02*
X5258790Y-120328112D01*
X7312440Y-193167611D02*
X7301308Y-193190306D01*
X11000987Y-63500000D02*
X11050018Y-63501203D01*
X72142129Y-58985411D02*
X72168362Y-58943985D01*
X7238436Y-246171326D02*
X7248405Y-246194555D01*
X71616625Y-184966801D02*
X71628893Y-184944699D01*
D11*
X-3000000Y-186500000D02*
X82000000Y-186500000D01*
D10*
X5142129Y-243485411D02*
X5168362Y-243443985D01*
X73556014Y-196331637D02*
X73514588Y-196357870D01*
X11556014Y-186668362D02*
X11596103Y-186696595D01*
X71267781Y-192536482D02*
X71182871Y-192442499D01*
X7238436Y-123171326D02*
X7248405Y-123194555D01*
X11857870Y-5485411D02*
X11882039Y-5528074D01*
X70846136Y-247364321D02*
X70944299Y-247284280D01*
X71761563Y-193328673D02*
X71751594Y-193305444D01*
X69290873Y-130014430D02*
X69164579Y-130004812D01*
X7004810Y-194335445D02*
X7003530Y-194360691D01*
X11514588Y-5142129D02*
X11556014Y-5168362D01*
X6882039Y-243528074D02*
X6904085Y-243571872D01*
X7099253Y-122764137D02*
X7134097Y-122885909D01*
X72029939Y-134243737D02*
X72019195Y-134195895D01*
X6471925Y-58617960D02*
X6514588Y-58642129D01*
X7301308Y-184809693D02*
X7312440Y-184832388D01*
X5804104Y-120019195D02*
X5852416Y-120010812D01*
X73831637Y-58943985D02*
X73857870Y-58985411D01*
X8690306Y-7301308D02*
X8667611Y-7312440D01*
X72365241Y-11773237D02*
X72328112Y-11741209D01*
X7834579Y-62575858D02*
X7924141Y-62665420D01*
X11882039Y-187028074D02*
X11904085Y-187071872D01*
X6989187Y-120852416D02*
X6995189Y-120901080D01*
X67999012Y-5000000D02*
X73000987Y-5000000D01*
X72804104Y-58519195D02*
X72852416Y-58510812D01*
X7191433Y-193446343D02*
X7182654Y-193470047D01*
X71182871Y-185557500D02*
X71267781Y-185463517D01*
X67999012Y-248000000D02*
X68993666Y-248000000D01*
X5076044Y-195883300D02*
X5058397Y-195837552D01*
X6471925Y-243117960D02*
X6514588Y-243142129D01*
X67029939Y-249243737D02*
X67019195Y-249195895D01*
X7134097Y-132114090D02*
X7099253Y-132235862D01*
X73243737Y-243029939D02*
X73290994Y-243043016D01*
X67196595Y-129596103D02*
X67168362Y-129556014D01*
X6514588Y-196357870D02*
X6471925Y-196382039D01*
X7834579Y-185575858D02*
X7924141Y-185665420D01*
X11970060Y-187256262D02*
X11980804Y-187304104D01*
X71687559Y-61832388D02*
X71698691Y-61809693D01*
X70944299Y-7715719D02*
X70846136Y-7635678D01*
X70575974Y-130447640D02*
X70466823Y-130383386D01*
X73980804Y-11195895D02*
X73970060Y-11243737D01*
X72292600Y-181792600D02*
X72328112Y-181758790D01*
X5029939Y-120756262D02*
X5043016Y-120709005D01*
X6147583Y-120010812D02*
X6195895Y-120019195D01*
X73243737Y-11970060D02*
X73195895Y-11980804D01*
X67616699Y-186576044D02*
X67662447Y-186558397D01*
X73998796Y-11050018D02*
X73995189Y-11098919D01*
X70466823Y-247616613D02*
X70575974Y-247552359D01*
X6741209Y-11671887D02*
X6707399Y-11707399D01*
X67292600Y-186792600D02*
X67328112Y-186758790D01*
X73882039Y-5528074D02*
X73904085Y-5571872D01*
X11882039Y-125528074D02*
X11904085Y-125571872D01*
X73803404Y-181903896D02*
X73831637Y-181943985D01*
X70029928Y-7182646D02*
X69910076Y-7141679D01*
X73290994Y-11956983D02*
X73243737Y-11970060D01*
X8805444Y-186251594D02*
X8828673Y-186261563D01*
X6970060Y-134243737D02*
X6956983Y-134290994D01*
X69316046Y-130016989D02*
X69290898Y-130014432D01*
X72901080Y-243004810D02*
X72949981Y-243001203D01*
X6471925Y-120117960D02*
X6514588Y-120142129D01*
X71963170Y-194033246D02*
X71940824Y-193908574D01*
X73882039Y-182028074D02*
X73904085Y-182071872D01*
X7014430Y-194209126D02*
X7004812Y-194335420D01*
X11741209Y-248328112D02*
X11773237Y-248365241D01*
X11428127Y-63595914D02*
X11471925Y-63617960D01*
X7248405Y-8805444D02*
X7238436Y-8828673D01*
X72403896Y-196303404D02*
X72365241Y-196273237D01*
X67804104Y-191480804D02*
X67756262Y-191470060D01*
X5168362Y-243443985D02*
X5196595Y-243403896D01*
X72168362Y-134556014D02*
X72142129Y-134514588D01*
X5999012Y-73500000D02*
X5949981Y-73498796D01*
X72949981Y-134998796D02*
X72901080Y-134995189D01*
X5756262Y-5029939D02*
X5804104Y-5019195D01*
X11882039Y-190971925D02*
X11857870Y-191014588D01*
X7817128Y-192442499D02*
X7732218Y-192536482D01*
X9235862Y-68599253D02*
X9114090Y-68634097D01*
X72058397Y-134337552D02*
X72043016Y-134290994D01*
X73970060Y-5756262D02*
X73980804Y-5804104D01*
X11383300Y-129923955D02*
X11337552Y-129941602D01*
X67292600Y-191207399D02*
X67258790Y-191171887D01*
X67117960Y-249471925D02*
X67095914Y-249428127D01*
X69290898Y-63485567D02*
X69316046Y-63483010D01*
X69006319Y-68500160D02*
X68993678Y-68500000D01*
X71538961Y-8402530D02*
X71469261Y-8296773D01*
X6998796Y-195550018D02*
X6995189Y-195598919D01*
X72528074Y-196382039D02*
X72485411Y-196357870D01*
X5001203Y-249050018D02*
X5000000Y-249000987D01*
X71698691Y-131690306D02*
X71687559Y-131667611D01*
X69764112Y-68599247D02*
X69739641Y-68592911D01*
X6803404Y-134596103D02*
X6773237Y-134634758D01*
X72662447Y-181558397D02*
X72709005Y-181543016D01*
X73514588Y-11857870D02*
X73471925Y-11882039D01*
X70444699Y-63128893D02*
X70466801Y-63116625D01*
X11098919Y-248004810D02*
X11147583Y-248010812D01*
X70944318Y-247284263D02*
X70963498Y-247267798D01*
X69466728Y-68536825D02*
X69441741Y-68532998D01*
X72756262Y-134970060D02*
X72709005Y-134956983D01*
X67528074Y-6882039D02*
X67485411Y-6857870D01*
X5010812Y-120852416D02*
X5019195Y-120804104D01*
X5004810Y-59401080D02*
X5010812Y-59352416D01*
X73882039Y-195971925D02*
X73857870Y-196014588D01*
X6514588Y-181642129D02*
X6556014Y-181668362D01*
X67852416Y-248010812D02*
X67901080Y-248004810D01*
X7301297Y-8690328D02*
X7248415Y-8805421D01*
X71751584Y-193305421D02*
X71698702Y-193190328D01*
X67142129Y-68014588D02*
X67117960Y-67971925D01*
X5019195Y-182304104D02*
X5029939Y-182256262D01*
X5258790Y-58828112D02*
X5292600Y-58792600D01*
X11195895Y-125019195D02*
X11243737Y-125029939D01*
X9860691Y-191503530D02*
X9835445Y-191504810D01*
X73923955Y-195883300D02*
X73904085Y-195928127D01*
X73980804Y-243804104D02*
X73989187Y-243852416D01*
X73995189Y-134098919D02*
X73989187Y-134147583D01*
X71963170Y-132533246D02*
X71940824Y-132408574D01*
X11596103Y-63696595D02*
X11634758Y-63726762D01*
X72403896Y-11803404D02*
X72365241Y-11773237D01*
X67616699Y-5076044D02*
X67662447Y-5058397D01*
X11857870Y-6514588D02*
X11831637Y-6556014D01*
X6383300Y-134923955D02*
X6337552Y-134941602D01*
X6882039Y-134471925D02*
X6857870Y-134514588D01*
X72328112Y-11741209D02*
X72292600Y-11707399D01*
X69006331Y-63499839D02*
X69139283Y-63496470D01*
X5485411Y-196357870D02*
X5443985Y-196331637D01*
X5000000Y-249000987D02*
X5000000Y-243999012D01*
X7715736Y-185444318D02*
X7732201Y-185463498D01*
X6000987Y-120000000D02*
X6050018Y-120001203D01*
X73989187Y-11147583D02*
X73980804Y-11195895D01*
X11970060Y-64256262D02*
X11980804Y-64304104D01*
X71538975Y-185097448D02*
X71552346Y-185075996D01*
X6383300Y-196423955D02*
X6337552Y-196441602D01*
X7000000Y-134000987D02*
X6998796Y-134050018D01*
X71996470Y-122139283D02*
X71999839Y-122006331D01*
X5528074Y-181617960D02*
X5571872Y-181595914D01*
X73337552Y-181558397D02*
X73383300Y-181576044D01*
X11634758Y-249773237D02*
X11596103Y-249803404D01*
X72571872Y-58595914D02*
X72616699Y-58576044D01*
X5901080Y-196495189D02*
X5852416Y-196489187D01*
X72852416Y-181510812D02*
X72901080Y-181504810D01*
X72662447Y-73441602D02*
X72616699Y-73423955D01*
X71538975Y-123597448D02*
X71552346Y-123575996D01*
X70053680Y-247808557D02*
X70171303Y-247761572D01*
X6000987Y-135000000D02*
X5999012Y-135000000D01*
X73923955Y-11383300D02*
X73904085Y-11428127D01*
X8036501Y-124267798D02*
X8055681Y-124284263D01*
X71940819Y-9408549D02*
X71935731Y-9383788D01*
X67662447Y-191441602D02*
X67616699Y-191423955D01*
X73671887Y-11741209D02*
X73634758Y-11773237D01*
X70703247Y-62969247D02*
X70723995Y-62954806D01*
X70309693Y-124698691D02*
X70332388Y-124687559D01*
X73243737Y-196470060D02*
X73195895Y-196480804D01*
X69006331Y-124999839D02*
X69139283Y-124996470D01*
X72443985Y-243168362D02*
X72485411Y-243142129D01*
X6195895Y-134980804D02*
X6147583Y-134989187D01*
X73904085Y-243571872D02*
X73923955Y-243616699D01*
X11634758Y-6773237D02*
X11596103Y-6803404D01*
X72004810Y-120901080D02*
X72010812Y-120852416D01*
X7134104Y-122885934D02*
X7141671Y-122910052D01*
X5258790Y-181828112D02*
X5292600Y-181792600D01*
X8970047Y-7182654D02*
X8946343Y-7191433D01*
X7003529Y-194360716D02*
X7000160Y-194493668D01*
X73195895Y-58519195D02*
X73243737Y-58529939D01*
X69739641Y-247907088D02*
X69764112Y-247900752D01*
X72004810Y-182401080D02*
X72010812Y-182352416D01*
X72616699Y-181576044D02*
X72662447Y-181558397D01*
X11989187Y-67647583D02*
X11980804Y-67695895D01*
X5004810Y-11098919D02*
X5001203Y-11050018D01*
X8276004Y-247454806D02*
X8296752Y-247469247D01*
X6195895Y-181519195D02*
X6243737Y-181529939D01*
X67019195Y-5804104D02*
X67029939Y-5756262D01*
X6243737Y-73470060D02*
X6195895Y-73480804D01*
X6147583Y-73489187D02*
X6098919Y-73495189D01*
X73596103Y-120196595D02*
X73634758Y-120226762D01*
X6995189Y-120901080D02*
X6998796Y-120949981D01*
X69316071Y-124983007D02*
X69441716Y-124967005D01*
X70944299Y-192215719D02*
X70846136Y-192135678D01*
X67000000Y-248999012D02*
X67001203Y-248949981D01*
X70703247Y-185969247D02*
X70723995Y-185954806D01*
X7092911Y-184239641D02*
X7099247Y-184264112D01*
X11857870Y-125485411D02*
X11882039Y-125528074D01*
X72901080Y-11995189D02*
X72852416Y-11989187D01*
X11831637Y-186943985D02*
X11857870Y-186985411D01*
X67142129Y-63985411D02*
X67168362Y-63943985D01*
X71858320Y-9089923D02*
X71817353Y-8970071D01*
X71995187Y-9835420D02*
X71985569Y-9709126D01*
X73989187Y-182352416D02*
X73995189Y-182401080D01*
X70053656Y-191691433D02*
X70029952Y-191682654D01*
X6471925Y-196382039D02*
X6428127Y-196404085D01*
X72004810Y-59401080D02*
X72010812Y-59352416D01*
X8153883Y-247364337D02*
X8173872Y-247379810D01*
X71057519Y-62682853D02*
X71075840Y-62665438D01*
X5095914Y-72928127D02*
X5076044Y-72883300D01*
X71983007Y-132683928D02*
X71967005Y-132558283D01*
X7461024Y-8402551D02*
X7447653Y-8424003D01*
X69616211Y-68564268D02*
X69591450Y-68559180D01*
X67571872Y-248095914D02*
X67616699Y-248076044D01*
X6337552Y-120058397D02*
X6383300Y-120076044D01*
X7064268Y-132383788D02*
X7059180Y-132408549D01*
X71469247Y-69796752D02*
X71454806Y-69776004D01*
X5756262Y-243029939D02*
X5804104Y-243019195D01*
X71364321Y-192653863D02*
X71284280Y-192555700D01*
X11383300Y-6923955D02*
X11337552Y-6941602D01*
X72168362Y-196056014D02*
X72142129Y-196014588D01*
X70029928Y-130182646D02*
X69910076Y-130141679D01*
X67010812Y-64352416D02*
X67019195Y-64304104D01*
X6098919Y-181504810D02*
X6147583Y-181510812D01*
X69290898Y-186485567D02*
X69316046Y-186483010D01*
X67142129Y-129514588D02*
X67117960Y-129471925D01*
X11383300Y-5076044D02*
X11428127Y-5095914D01*
X73998796Y-195550018D02*
X73995189Y-195598919D01*
X72403896Y-120196595D02*
X72443985Y-120168362D01*
X8153863Y-192135678D02*
X8055700Y-192215719D01*
X72076044Y-195883300D02*
X72058397Y-195837552D01*
X70963517Y-62767781D02*
X71057500Y-62682871D01*
X11147583Y-5010812D02*
X11195895Y-5019195D01*
X70703226Y-130530738D02*
X70597469Y-130461038D01*
X9683953Y-124983010D02*
X9709101Y-124985567D01*
X6970060Y-195743737D02*
X6956983Y-195790994D01*
X11998796Y-64449981D02*
X12000000Y-64499012D01*
X11803404Y-186903896D02*
X11831637Y-186943985D01*
X6941602Y-72837552D02*
X6923955Y-72883300D01*
X5095914Y-195928127D02*
X5076044Y-195883300D01*
X72000000Y-134000987D02*
X72000000Y-133006333D01*
X73995189Y-249098919D02*
X73989187Y-249147583D01*
X70053656Y-68691433D02*
X70029952Y-68682654D01*
X5403896Y-134803404D02*
X5365241Y-134773237D01*
X73904085Y-5571872D02*
X73923955Y-5616699D01*
X270Y-1245D02*
X0Y-12247D01*
X7059175Y-9408574D02*
X7036829Y-9533246D01*
X67001203Y-190550018D02*
X67000000Y-190500987D01*
X71865902Y-122885909D02*
X71900746Y-122764137D01*
X67258790Y-186828112D02*
X67292600Y-186792600D01*
X11956983Y-67790994D02*
X11941602Y-67837552D01*
X6671887Y-120258790D02*
X6707399Y-120292600D01*
X67258790Y-68171887D02*
X67226762Y-68134758D01*
X73857870Y-134514588D02*
X73831637Y-134556014D01*
X11337552Y-68441602D02*
X11290994Y-68456983D01*
X5949981Y-58501203D02*
X5999012Y-58500000D01*
X73290994Y-5043016D02*
X73337552Y-5058397D01*
X5226762Y-58865241D02*
X5258790Y-58828112D01*
X6941602Y-11337552D02*
X6923955Y-11383300D01*
X11000987Y-7000000D02*
X10006333Y-7000000D01*
X8690328Y-247698702D02*
X8805421Y-247751584D01*
X6995189Y-243901080D02*
X6998796Y-243949981D01*
X71985569Y-245290873D02*
X71995187Y-245164579D01*
X5019195Y-11195895D02*
X5010812Y-11147583D01*
X67403896Y-5196595D02*
X67443985Y-5168362D01*
X5058397Y-195837552D02*
X5043016Y-195790994D01*
X7182646Y-131970071D02*
X7141679Y-132089923D01*
X72043016Y-120709005D02*
X72058397Y-120662447D01*
X5709005Y-134956983D02*
X5662447Y-134941602D01*
X67328112Y-68241209D02*
X67292600Y-68207399D01*
X5852416Y-11989187D02*
X5804104Y-11980804D01*
X73956983Y-59209005D02*
X73970060Y-59256262D01*
X73634758Y-120226762D02*
X73671887Y-120258790D01*
X6956983Y-72790994D02*
X6941602Y-72837552D01*
X8555300Y-7371106D02*
X8533198Y-7383374D01*
X70194555Y-68748405D02*
X70171326Y-68738436D01*
X70846116Y-192135662D02*
X70826127Y-192120189D01*
X8533198Y-63116625D02*
X8555300Y-63128893D01*
X7447640Y-69924025D02*
X7383386Y-70033176D01*
X71364321Y-131153863D02*
X71284280Y-131055700D01*
X11707399Y-5292600D02*
X11741209Y-5328112D01*
X71940824Y-122591425D02*
X71963170Y-122466753D01*
X69316071Y-186483007D02*
X69441716Y-186467005D01*
X9383763Y-68564273D02*
X9260382Y-68592904D01*
X7016989Y-194183953D02*
X7014432Y-194209101D01*
X73243737Y-5029939D02*
X73290994Y-5043016D01*
X71935731Y-184116211D02*
X71940819Y-184091450D01*
X11956983Y-125709005D02*
X11970060Y-125756262D01*
X73995189Y-243901080D02*
X73998796Y-243949981D01*
X6923955Y-120616699D02*
X6941602Y-120662447D01*
X6098919Y-73495189D02*
X6050018Y-73498796D01*
X72949981Y-120001203D02*
X72999012Y-120000000D01*
X6195895Y-196480804D02*
X6147583Y-196489187D01*
X72662447Y-120058397D02*
X72709005Y-120043016D01*
X67528074Y-63617960D02*
X67571872Y-63595914D01*
X72117960Y-134471925D02*
X72095914Y-134428127D01*
X8690328Y-63198702D02*
X8805421Y-63251584D01*
X5365241Y-58726762D02*
X5403896Y-58696595D01*
X70826127Y-247379810D02*
X70846116Y-247364337D01*
X69910076Y-247858320D02*
X70029928Y-247817353D01*
X73741209Y-58828112D02*
X73773237Y-58865241D01*
X11098919Y-249995189D02*
X11050018Y-249998796D01*
X6671887Y-243258790D02*
X6707399Y-243292600D01*
X67076044Y-190883300D02*
X67058397Y-190837552D01*
X67901080Y-6995189D02*
X67852416Y-6989187D01*
X71469261Y-246703226D02*
X71538961Y-246597469D01*
X73671887Y-134741209D02*
X73634758Y-134773237D01*
X67043016Y-125709005D02*
X67058397Y-125662447D01*
X5616699Y-181576044D02*
X5662447Y-181558397D01*
X73980804Y-195695895D02*
X73970060Y-195743737D01*
X72117960Y-72971925D02*
X72095914Y-72928127D01*
X71751584Y-131805421D02*
X71698702Y-131690328D01*
X67029939Y-248756262D02*
X67043016Y-248709005D01*
X69164579Y-247995187D02*
X69290873Y-247985569D01*
X71761572Y-184671303D02*
X71808557Y-184553680D01*
X71616625Y-123466801D02*
X71628893Y-123444699D01*
X5528074Y-11882039D02*
X5485411Y-11857870D01*
X11098919Y-6995189D02*
X11050018Y-6998796D01*
X73773237Y-134634758D02*
X73741209Y-134671887D01*
X8667588Y-7312451D02*
X8555322Y-7371094D01*
X67901080Y-249995189D02*
X67852416Y-249989187D01*
X8173872Y-192120189D02*
X8153883Y-192135662D01*
X11941602Y-187162447D02*
X11956983Y-187209005D01*
D11*
X-3000000Y-125000000D02*
X82000000Y-125000000D01*
D10*
X7036829Y-60966753D02*
X7059175Y-61091425D01*
X73904085Y-249428127D02*
X73882039Y-249471925D01*
X8296773Y-124469261D02*
X8402530Y-124538961D01*
X73471925Y-11882039D02*
X73428127Y-11904085D01*
X72949981Y-181501203D02*
X72999012Y-181500000D01*
X70466823Y-124616613D02*
X70575974Y-124552359D01*
X8555300Y-130371106D02*
X8533198Y-130383374D01*
X73956983Y-72790994D02*
X73941602Y-72837552D01*
X11882039Y-129471925D02*
X11857870Y-129514588D01*
X9835420Y-130004812D02*
X9709126Y-130014430D01*
X5662447Y-181558397D02*
X5709005Y-181543016D01*
X5292600Y-58792600D02*
X5328112Y-58758790D01*
X72485411Y-11857870D02*
X72443985Y-11831637D01*
X67403896Y-129803404D02*
X67365241Y-129773237D01*
X72852416Y-196489187D02*
X72804104Y-196480804D01*
X67804104Y-6980804D02*
X67756262Y-6970060D01*
X67292600Y-5292600D02*
X67328112Y-5258790D01*
X73050018Y-58501203D02*
X73098919Y-58504810D01*
X11707399Y-68207399D02*
X11671887Y-68241209D01*
X70194578Y-247751584D02*
X70309671Y-247698702D01*
X7301308Y-246309693D02*
X7312440Y-246332388D01*
X11514588Y-68357870D02*
X11471925Y-68382039D01*
X67999012Y-125000000D02*
X68993666Y-125000000D01*
X73337552Y-134941602D02*
X73290994Y-134956983D01*
X71182871Y-62557500D02*
X71267781Y-62463517D01*
X69616211Y-130064268D02*
X69591450Y-130059180D01*
X79000000Y-254987727D02*
X79000000Y-12272D01*
X71935731Y-122616211D02*
X71940819Y-122591450D01*
X8424003Y-68947653D02*
X8402551Y-68961024D01*
X71858328Y-122910052D02*
X71865895Y-122885934D01*
X7834561Y-130924159D02*
X7817146Y-130942480D01*
X73857870Y-5485411D02*
X73882039Y-5528074D01*
X11998796Y-125949981D02*
X12000000Y-125999012D01*
X72949981Y-11998796D02*
X72901080Y-11995189D01*
X72485411Y-120142129D02*
X72528074Y-120117960D01*
X67616699Y-191423955D02*
X67571872Y-191404085D01*
X11000987Y-248000000D02*
X11050018Y-248001203D01*
X6556014Y-73331637D02*
X6514588Y-73357870D01*
X5485411Y-58642129D02*
X5528074Y-58617960D01*
X71907095Y-245739617D02*
X71935726Y-245616236D01*
X71469247Y-8296752D02*
X71454806Y-8276004D01*
X6831637Y-243443985D02*
X6857870Y-243485411D01*
D11*
X-3000000Y-63500000D02*
X82000000Y-63500000D01*
D10*
X74000000Y-243999012D02*
X74000000Y-249000987D01*
X67365241Y-186726762D02*
X67403896Y-186696595D01*
X11596103Y-186696595D02*
X11634758Y-186726762D01*
X69616211Y-191564268D02*
X69591450Y-191559180D01*
X8667588Y-130312451D02*
X8555322Y-130371094D01*
X7238427Y-70328696D02*
X7191442Y-70446319D01*
X69139308Y-247996469D02*
X69164554Y-247995189D01*
X67029939Y-125756262D02*
X67043016Y-125709005D01*
X72443985Y-120168362D02*
X72485411Y-120142129D01*
X11995189Y-6098919D02*
X11989187Y-6147583D01*
X73741209Y-134671887D02*
X73707399Y-134707399D01*
X11195895Y-63519195D02*
X11243737Y-63529939D01*
X11098919Y-125004810D02*
X11147583Y-125010812D01*
X5058397Y-5662447D02*
X5076044Y-5616699D01*
X5196595Y-249596103D02*
X5168362Y-249556014D01*
X11970060Y-6243737D02*
X11956983Y-6290994D01*
X72709005Y-181543016D02*
X72756262Y-181529939D01*
X7942499Y-185682871D02*
X8036482Y-185767781D01*
X73923955Y-182116699D02*
X73941602Y-182162447D01*
X67756262Y-125029939D02*
X67804104Y-125019195D01*
X72001203Y-11050018D02*
X72000000Y-11000987D01*
X5258790Y-73171887D02*
X5226762Y-73134758D01*
X11195895Y-129980804D02*
X11147583Y-129989187D01*
X12000000Y-129000987D02*
X11998796Y-129050018D01*
X11956983Y-187209005D02*
X11970060Y-187256262D01*
X73707399Y-5292600D02*
X73741209Y-5328112D01*
X11956983Y-129290994D02*
X11941602Y-129337552D01*
X6998796Y-120949981D02*
X7000000Y-120999012D01*
X73556014Y-120168362D02*
X73596103Y-120196595D01*
X67949981Y-249998796D02*
X67901080Y-249995189D01*
X11243737Y-63529939D02*
X11290994Y-63543016D01*
X71075840Y-192334561D02*
X71057519Y-192317146D01*
X73556014Y-11831637D02*
X73514588Y-11857870D01*
X5001203Y-120949981D02*
X5004810Y-120901080D01*
X6671887Y-181758790D02*
X6707399Y-181792600D01*
X8828673Y-130238436D02*
X8805444Y-130248405D01*
X5403896Y-120196595D02*
X5443985Y-120168362D01*
X8667611Y-186187559D02*
X8690306Y-186198691D01*
X70029952Y-247817345D02*
X70053656Y-247808566D01*
X5571872Y-73404085D02*
X5528074Y-73382039D01*
X7000000Y-72500987D02*
X6998796Y-72550018D01*
X11923955Y-129383300D02*
X11904085Y-129428127D01*
X5168362Y-73056014D02*
X5142129Y-73014588D01*
X8402551Y-186038975D02*
X8424003Y-186052346D01*
X73098919Y-11995189D02*
X73050018Y-11998796D01*
X73596103Y-73303404D02*
X73556014Y-73331637D01*
X70194578Y-186251584D02*
X70309671Y-186198702D01*
X73773237Y-73134758D02*
X73741209Y-73171887D01*
X11998796Y-5949981D02*
X12000000Y-5999012D01*
X71364337Y-123846116D02*
X71379810Y-123826127D01*
X67168362Y-248443985D02*
X67196595Y-248403896D01*
X5443985Y-11831637D02*
X5403896Y-11803404D01*
X7036825Y-9533271D02*
X7032998Y-9558258D01*
X6956983Y-11290994D02*
X6941602Y-11337552D01*
X71999839Y-122006319D02*
X71999999Y-121993678D01*
X69466728Y-191536825D02*
X69441741Y-191532998D01*
X69885909Y-191634097D02*
X69764137Y-191599253D01*
X5058397Y-249337552D02*
X5043016Y-249290994D01*
X73000987Y-196500000D02*
X72999012Y-196500000D01*
X67010812Y-125852416D02*
X67019195Y-125804104D01*
X73923955Y-72883300D02*
X73904085Y-72928127D01*
X7003529Y-9860716D02*
X7000160Y-9993668D01*
X11471925Y-6882039D02*
X11428127Y-6904085D01*
X71985567Y-71209101D02*
X71983010Y-71183953D01*
X12000000Y-187499012D02*
X12000000Y-190500987D01*
X67901080Y-248004810D02*
X67949981Y-248001203D01*
X71182853Y-69442480D02*
X71165438Y-69424159D01*
X11995189Y-64401080D02*
X11998796Y-64449981D01*
X9408574Y-247940824D02*
X9533246Y-247963170D01*
X73803404Y-249596103D02*
X73773237Y-249634758D01*
X71698702Y-61809671D02*
X71751584Y-61694578D01*
X7099247Y-193735887D02*
X7092911Y-193760358D01*
X7924141Y-7834579D02*
X7834579Y-7924141D01*
X71817353Y-184529928D02*
X71858320Y-184410076D01*
X5485411Y-249857870D02*
X5443985Y-249831637D01*
X6904085Y-195928127D02*
X6882039Y-195971925D01*
X11383300Y-186576044D02*
X11428127Y-186595914D01*
X5949981Y-249998796D02*
X5901080Y-249995189D01*
X9709126Y-63485569D02*
X9835420Y-63495187D01*
X73773237Y-243365241D02*
X73803404Y-243403896D01*
X5168362Y-181943985D02*
X5196595Y-181903896D01*
X7064268Y-70883788D02*
X7059180Y-70908549D01*
X67058397Y-249337552D02*
X67043016Y-249290994D01*
X67168362Y-5443985D02*
X67196595Y-5403896D01*
X67001203Y-67550018D02*
X67000000Y-67500987D01*
X73989187Y-120852416D02*
X73995189Y-120901080D01*
X5852416Y-243010812D02*
X5901080Y-243004810D01*
X5010812Y-195647583D02*
X5004810Y-195598919D01*
X7182646Y-8970071D02*
X7141679Y-9089923D01*
X67001203Y-64449981D02*
X67004810Y-64401080D01*
X11671887Y-248258790D02*
X11707399Y-248292600D01*
X67043016Y-67790994D02*
X67029939Y-67743737D01*
X8805421Y-68748415D02*
X8690328Y-68801297D01*
X11428127Y-68404085D02*
X11383300Y-68423955D01*
X5043016Y-134290994D02*
X5029939Y-134243737D01*
X7545193Y-192776004D02*
X7530752Y-192796752D01*
X67226762Y-249634758D02*
X67196595Y-249596103D01*
X11857870Y-63985411D02*
X11882039Y-64028074D01*
X11956983Y-190790994D02*
X11941602Y-190837552D01*
X11471925Y-249882039D02*
X11428127Y-249904085D01*
X67999012Y-63500000D02*
X68993666Y-63500000D01*
X8402530Y-130461038D02*
X8296773Y-130530738D01*
X7371094Y-70055322D02*
X7312451Y-70167588D01*
X9860716Y-186496470D02*
X9993668Y-186499839D01*
X72852416Y-243010812D02*
X72901080Y-243004810D01*
X70332411Y-247687548D02*
X70444677Y-247628905D01*
X11290994Y-248043016D02*
X11337552Y-248058397D01*
X6882039Y-182028074D02*
X6904085Y-182071872D01*
X67019195Y-249195895D02*
X67010812Y-249147583D01*
X72019195Y-59304104D02*
X72029939Y-59256262D01*
X73634758Y-5226762D02*
X73671887Y-5258790D01*
X72000000Y-183493666D02*
X72000000Y-182499012D01*
X71808557Y-8946319D02*
X71761572Y-8828696D01*
X67443985Y-68331637D02*
X67403896Y-68303404D01*
X7248405Y-193305444D02*
X7238436Y-193328673D01*
X5616699Y-120076044D02*
X5662447Y-120058397D01*
X73000987Y-73500000D02*
X72999012Y-73500000D01*
X5365241Y-73273237D02*
X5328112Y-73241209D01*
X5168362Y-134556014D02*
X5142129Y-134514588D01*
X67076044Y-67883300D02*
X67058397Y-67837552D01*
X72058397Y-195837552D02*
X72043016Y-195790994D01*
X9089947Y-63358328D02*
X9114065Y-63365895D01*
X9089923Y-191641679D02*
X8970071Y-191682646D01*
X70444699Y-247628893D02*
X70466801Y-247616625D01*
X5901080Y-134995189D02*
X5852416Y-134989187D01*
X5403896Y-5196595D02*
X5443985Y-5168362D01*
X5328112Y-181758790D02*
X5365241Y-181726762D01*
X5999012Y-181500000D02*
X6000987Y-181500000D01*
X73147583Y-134989187D02*
X73098919Y-134995189D01*
X6337552Y-181558397D02*
X6383300Y-181576044D01*
X73195895Y-249980804D02*
X73147583Y-249989187D01*
X72010812Y-243852416D02*
X72019195Y-243804104D01*
X67365241Y-5226762D02*
X67403896Y-5196595D01*
X67004810Y-249098919D02*
X67001203Y-249050018D01*
X73956983Y-243709005D02*
X73970060Y-243756262D01*
X6998796Y-59449981D02*
X7000000Y-59499012D01*
X8828673Y-7238436D02*
X8805444Y-7248405D01*
X5076044Y-11383300D02*
X5058397Y-11337552D01*
D11*
X-3000000Y-68500000D02*
X82000000Y-68500000D01*
D10*
X71963174Y-245466728D02*
X71967001Y-245441741D01*
X9558283Y-63467005D02*
X9683928Y-63483007D01*
X71616613Y-193033176D02*
X71552359Y-192924025D01*
X5292600Y-196207399D02*
X5258790Y-196171887D01*
X67365241Y-248226762D02*
X67403896Y-248196595D01*
X9993680Y-124999839D02*
X10006321Y-124999999D01*
X73923955Y-134383300D02*
X73904085Y-134428127D01*
X71999839Y-132993668D02*
X71996470Y-132860716D01*
X7003530Y-245139308D02*
X7004810Y-245164554D01*
X8055681Y-130715736D02*
X8036501Y-130732201D01*
X7383374Y-8533198D02*
X7371106Y-8555300D01*
X11514588Y-191357870D02*
X11471925Y-191382039D01*
X71900752Y-61264112D02*
X71907088Y-61239641D01*
X67226762Y-63865241D02*
X67258790Y-63828112D01*
X67804104Y-63519195D02*
X67852416Y-63510812D01*
X71761563Y-70328673D02*
X71751594Y-70305444D01*
X8533176Y-130383386D02*
X8424025Y-130447640D01*
X68993678Y-247999999D02*
X69006319Y-247999839D01*
X67076044Y-5616699D02*
X67095914Y-5571872D01*
X9260382Y-186407095D02*
X9383763Y-186435726D01*
X67076044Y-187116699D02*
X67095914Y-187071872D01*
X5949981Y-134998796D02*
X5901080Y-134995189D01*
X72004810Y-72598919D02*
X72001203Y-72550018D01*
X72709005Y-134956983D02*
X72662447Y-134941602D01*
X7016989Y-132683953D02*
X7014432Y-132709101D01*
X8153883Y-124364337D02*
X8173872Y-124379810D01*
X8828673Y-191738436D02*
X8805444Y-191748405D01*
X9408549Y-7059180D02*
X9383788Y-7064268D01*
X5117960Y-5528074D02*
X5142129Y-5485411D01*
X71364321Y-69653863D02*
X71284280Y-69555700D01*
X7715719Y-8055700D02*
X7635678Y-8153863D01*
X11773237Y-63865241D02*
X11803404Y-63903896D01*
X11998796Y-190550018D02*
X11995189Y-190598919D01*
X5443985Y-58668362D02*
X5485411Y-58642129D01*
X6514588Y-134857870D02*
X6471925Y-134882039D01*
X7141671Y-9089947D02*
X7134104Y-9114065D01*
X7000160Y-9993680D02*
X7000000Y-10006321D01*
X5168362Y-58943985D02*
X5196595Y-58903896D01*
X73383300Y-181576044D02*
X73428127Y-181595914D01*
X6634758Y-181726762D02*
X6671887Y-181758790D01*
X8667588Y-68812451D02*
X8555322Y-68871094D01*
X11000987Y-191500000D02*
X10006333Y-191500000D01*
X67117960Y-5528074D02*
X67142129Y-5485411D01*
X71907095Y-122739617D02*
X71935726Y-122616236D01*
X67142129Y-5485411D02*
X67168362Y-5443985D01*
X70029928Y-191682646D02*
X69910076Y-191641679D01*
X69885934Y-247865895D02*
X69910052Y-247858328D01*
X71469261Y-62203226D02*
X71538961Y-62097469D01*
X69006331Y-247999839D02*
X69139283Y-247996470D01*
X7000000Y-195500987D02*
X6998796Y-195550018D01*
X71751594Y-246194555D02*
X71761563Y-246171326D01*
X11000987Y-68500000D02*
X10006333Y-68500000D01*
X70826127Y-124379810D02*
X70846116Y-124364337D01*
X72000000Y-182499012D02*
X72001203Y-182449981D01*
X73596103Y-134803404D02*
X73556014Y-134831637D01*
X71075840Y-130834561D02*
X71057519Y-130817146D01*
X8690328Y-124698702D02*
X8805421Y-124751584D01*
X72076044Y-59116699D02*
X72095914Y-59071872D01*
X9260382Y-247907095D02*
X9383763Y-247935726D01*
X11741209Y-6671887D02*
X11707399Y-6707399D01*
X72485411Y-181642129D02*
X72528074Y-181617960D01*
X11773237Y-5365241D02*
X11803404Y-5403896D01*
X73556014Y-58668362D02*
X73596103Y-58696595D01*
X9835420Y-191504812D02*
X9709126Y-191514430D01*
X5328112Y-249741209D02*
X5292600Y-249707399D01*
X71379810Y-131173872D02*
X71364337Y-131153883D01*
X71182871Y-124057500D02*
X71267781Y-123963517D01*
X7942499Y-62682871D02*
X8036482Y-62767781D01*
X6941602Y-195837552D02*
X6923955Y-195883300D01*
X7942480Y-7817146D02*
X7924159Y-7834561D01*
X6857870Y-134514588D02*
X6831637Y-134556014D01*
X69466753Y-247963170D02*
X69591425Y-247940824D01*
X71284280Y-246944299D02*
X71364321Y-246846136D01*
X71267798Y-123963498D02*
X71284263Y-123944318D01*
X72443985Y-58668362D02*
X72485411Y-58642129D01*
X5804104Y-73480804D02*
X5756262Y-73470060D01*
X67226762Y-6634758D02*
X67196595Y-6596103D01*
X6596103Y-243196595D02*
X6634758Y-243226762D01*
X70944318Y-124284263D02*
X70963498Y-124267798D01*
X73671887Y-196241209D02*
X73634758Y-196273237D01*
X73803404Y-134596103D02*
X73773237Y-134634758D01*
X70332411Y-63187548D02*
X70444677Y-63128905D01*
X11707399Y-125292600D02*
X11741209Y-125328112D01*
X7635662Y-8153883D02*
X7620189Y-8173872D01*
X5196595Y-243403896D02*
X5226762Y-243365241D01*
X69466753Y-63463170D02*
X69591425Y-63440824D01*
X12000000Y-64499012D02*
X12000000Y-67500987D01*
X9558258Y-191532998D02*
X9533271Y-191536825D01*
X72616699Y-73423955D02*
X72571872Y-73404085D01*
X73831637Y-5443985D02*
X73857870Y-5485411D01*
X67571872Y-6904085D02*
X67528074Y-6882039D01*
X67999012Y-68500000D02*
X67949981Y-68498796D01*
X9408574Y-186440824D02*
X9533246Y-186463170D01*
X5528074Y-249882039D02*
X5485411Y-249857870D01*
X67709005Y-125043016D02*
X67756262Y-125029939D01*
X8275984Y-192045207D02*
X8173893Y-192120174D01*
X67258790Y-6671887D02*
X67226762Y-6634758D01*
X71057500Y-7817128D02*
X70963517Y-7732218D01*
X5328112Y-11741209D02*
X5292600Y-11707399D01*
X70332388Y-7312440D02*
X70309693Y-7301308D01*
X72616699Y-243076044D02*
X72662447Y-243058397D01*
X11098919Y-63504810D02*
X11147583Y-63510812D01*
X71900746Y-70735862D02*
X71865902Y-70614090D01*
X72076044Y-182116699D02*
X72095914Y-182071872D01*
X11147583Y-249989187D02*
X11098919Y-249995189D01*
X11050018Y-186501203D02*
X11098919Y-186504810D01*
X71900746Y-132235862D02*
X71865902Y-132114090D01*
X5076044Y-5616699D02*
X5095914Y-5571872D01*
X70466823Y-63116613D02*
X70575974Y-63052359D01*
X74000000Y-182499012D02*
X74000000Y-195500987D01*
X71057500Y-69317128D02*
X70963517Y-69232218D01*
X11941602Y-5662447D02*
X11956983Y-5709005D01*
X5901080Y-11995189D02*
X5852416Y-11989187D01*
X71996469Y-71360691D02*
X71995189Y-71335445D01*
X7447640Y-8424025D02*
X7383386Y-8533176D01*
X71687548Y-70167588D02*
X71628905Y-70055322D01*
X9260382Y-63407095D02*
X9383763Y-63435726D01*
X11773237Y-129634758D02*
X11741209Y-129671887D01*
X7371094Y-131555322D02*
X7312451Y-131667588D01*
X7032994Y-71058283D02*
X7016992Y-71183928D01*
X11050018Y-63501203D02*
X11098919Y-63504810D01*
X71900752Y-184264112D02*
X71907088Y-184239641D01*
X73195895Y-134980804D02*
X73147583Y-134989187D01*
X5403896Y-181696595D02*
X5443985Y-181668362D01*
X11923955Y-67883300D02*
X11904085Y-67928127D01*
X11980804Y-64304104D02*
X11989187Y-64352416D01*
X71817345Y-8970047D02*
X71808566Y-8946343D01*
X11671887Y-191241209D02*
X11634758Y-191273237D01*
X7942499Y-247182871D02*
X8036482Y-247267781D01*
X11147583Y-63510812D02*
X11195895Y-63519195D01*
X5000000Y-182499012D02*
X5001203Y-182449981D01*
X7064273Y-61116236D02*
X7092904Y-61239617D01*
X67029939Y-5756262D02*
X67043016Y-5709005D01*
X69885909Y-130134097D02*
X69764137Y-130099253D01*
X73741209Y-181828112D02*
X73773237Y-181865241D01*
X11941602Y-64162447D02*
X11956983Y-64209005D01*
X72029939Y-72743737D02*
X72019195Y-72695895D01*
X73882039Y-249471925D02*
X73857870Y-249514588D01*
X72043016Y-59209005D02*
X72058397Y-59162447D01*
X72365241Y-120226762D02*
X72403896Y-120196595D01*
X70963498Y-192232201D02*
X70944318Y-192215736D01*
X6147583Y-58510812D02*
X6195895Y-58519195D01*
X11831637Y-129556014D02*
X11803404Y-129596103D01*
X6195895Y-58519195D02*
X6243737Y-58529939D01*
X72010812Y-72647583D02*
X72004810Y-72598919D01*
X5117960Y-59028074D02*
X5142129Y-58985411D01*
X71075858Y-62665420D02*
X71165420Y-62575858D01*
X5709005Y-243043016D02*
X5756262Y-243029939D01*
X6904085Y-59071872D02*
X6923955Y-59116699D01*
X73471925Y-134882039D02*
X73428127Y-134904085D01*
X5196595Y-73096103D02*
X5168362Y-73056014D01*
X5852416Y-196489187D02*
X5804104Y-196480804D01*
X11556014Y-125168362D02*
X11596103Y-125196595D01*
X5443985Y-5168362D02*
X5485411Y-5142129D01*
X7248415Y-184694578D02*
X7301297Y-184809671D01*
X11596103Y-68303404D02*
X11556014Y-68331637D01*
X5365241Y-196273237D02*
X5328112Y-196241209D01*
X67226762Y-68134758D02*
X67196595Y-68096103D01*
X7141679Y-245910076D02*
X7182646Y-246029928D01*
X11556014Y-248168362D02*
X11596103Y-248196595D01*
X72043016Y-72790994D02*
X72029939Y-72743737D01*
X5403896Y-196303404D02*
X5365241Y-196273237D01*
X8173872Y-130620189D02*
X8153883Y-130635662D01*
X7301297Y-193190328D02*
X7248415Y-193305421D01*
X71687559Y-246332388D02*
X71698691Y-246309693D01*
X11050018Y-6998796D02*
X11000987Y-7000000D01*
X7000160Y-60506331D02*
X7003529Y-60639283D01*
X7000000Y-71506333D02*
X7000000Y-72500987D01*
X68993666Y-7000000D02*
X67999012Y-7000000D01*
X70575974Y-191947640D02*
X70466823Y-191883386D01*
X72485411Y-196357870D02*
X72443985Y-196331637D01*
X5571872Y-11904085D02*
X5528074Y-11882039D01*
X71858320Y-70589923D02*
X71817353Y-70470071D01*
X7032998Y-183941741D02*
X7036825Y-183966728D01*
X9558258Y-68532998D02*
X9533271Y-68536825D01*
X73956983Y-5709005D02*
X73970060Y-5756262D01*
X73428127Y-249904085D02*
X73383300Y-249923955D01*
X11337552Y-248058397D02*
X11383300Y-248076044D01*
X70963498Y-69232201D02*
X70944318Y-69215736D01*
X73803404Y-243403896D02*
X73831637Y-243443985D01*
X6980804Y-72695895D02*
X6970060Y-72743737D01*
X7036825Y-132533271D02*
X7032998Y-132558258D01*
X7635678Y-246846136D02*
X7715719Y-246944299D01*
X71865902Y-61385909D02*
X71900746Y-61264137D01*
X7238436Y-61671326D02*
X7248405Y-61694555D01*
X73970060Y-120756262D02*
X73980804Y-120804104D01*
X67852416Y-125010812D02*
X67901080Y-125004810D01*
X72999012Y-181500000D02*
X73000987Y-181500000D01*
X70826106Y-7620174D02*
X70724015Y-7545207D01*
X71999999Y-71506321D02*
X71999839Y-71493680D01*
X6904085Y-134428127D02*
X6882039Y-134471925D01*
X71907088Y-132260358D02*
X71900752Y-132235887D01*
X7003530Y-122139308D02*
X7004810Y-122164554D01*
X7238427Y-8828696D02*
X7191442Y-8946319D01*
X73290994Y-243043016D02*
X73337552Y-243058397D01*
X72019195Y-72695895D02*
X72010812Y-72647583D01*
X5117960Y-182028074D02*
X5142129Y-181985411D01*
X11195895Y-249980804D02*
X11147583Y-249989187D01*
X67043016Y-5709005D02*
X67058397Y-5662447D01*
X73671887Y-73241209D02*
X73634758Y-73273237D01*
X73707399Y-134707399D02*
X73671887Y-134741209D01*
X6556014Y-196331637D02*
X6514588Y-196357870D01*
X9683928Y-68516992D02*
X9558283Y-68532994D01*
X67258790Y-125328112D02*
X67292600Y-125292600D01*
X8828696Y-247761572D02*
X8946319Y-247808557D01*
X7003529Y-71360716D02*
X7000160Y-71493668D01*
X5571872Y-249904085D02*
X5528074Y-249882039D01*
X72000000Y-59499012D02*
X72001203Y-59449981D01*
X7092911Y-61239641D02*
X7099247Y-61264112D01*
X9383788Y-186435731D02*
X9408549Y-186440819D01*
X67292600Y-249707399D02*
X67258790Y-249671887D01*
X73707399Y-120292600D02*
X73741209Y-120328112D01*
X70597469Y-186038961D02*
X70703226Y-185969261D01*
X11290994Y-5043016D02*
X11337552Y-5058397D01*
X11923955Y-5616699D02*
X11941602Y-5662447D01*
X7134104Y-245885934D02*
X7141671Y-245910052D01*
X72000000Y-11000987D02*
X72000000Y-10006333D01*
X11098919Y-191495189D02*
X11050018Y-191498796D01*
X8276004Y-62954806D02*
X8296752Y-62969247D01*
X7248415Y-246194578D02*
X7301297Y-246309671D01*
X70703226Y-192030738D02*
X70597469Y-191961038D01*
X70963517Y-247267781D02*
X71057500Y-247182871D01*
X69006319Y-7000160D02*
X68993678Y-7000000D01*
X7014430Y-71209126D02*
X7004812Y-71335420D01*
X6050018Y-73498796D02*
X6000987Y-73500000D01*
X5804104Y-243019195D02*
X5852416Y-243010812D01*
X11243737Y-125029939D02*
X11290994Y-125043016D01*
X67258790Y-129671887D02*
X67226762Y-129634758D01*
X70466801Y-7383374D02*
X70444699Y-7371106D01*
X5004810Y-195598919D02*
X5001203Y-195550018D01*
X5001203Y-59449981D02*
X5004810Y-59401080D01*
X7004812Y-60664579D02*
X7014430Y-60790873D01*
X8296752Y-192030752D02*
X8276004Y-192045193D01*
X7312451Y-61832411D02*
X7371094Y-61944677D01*
X6514588Y-243142129D02*
X6556014Y-243168362D01*
X8828673Y-68738436D02*
X8805444Y-68748405D01*
X72485411Y-58642129D02*
X72528074Y-58617960D01*
X71182853Y-130942480D02*
X71165438Y-130924159D01*
X72901080Y-181504810D02*
X72949981Y-181501203D01*
X5756262Y-11970060D02*
X5709005Y-11956983D01*
D11*
X72000000Y3000000D02*
X72000000Y-258000000D01*
D10*
X6773237Y-196134758D02*
X6741209Y-196171887D01*
X11383300Y-63576044D02*
X11428127Y-63595914D01*
X9993668Y-191500160D02*
X9860716Y-191503529D01*
X7000000Y-133006333D02*
X7000000Y-134000987D01*
X11556014Y-191331637D02*
X11514588Y-191357870D01*
X73290994Y-249956983D02*
X73243737Y-249970060D01*
X73995189Y-5901080D02*
X73998796Y-5949981D01*
X69290898Y-124985567D02*
X69316046Y-124983010D01*
X6741209Y-181828112D02*
X6773237Y-181865241D01*
X6803404Y-58903896D02*
X6831637Y-58943985D01*
X6970060Y-72743737D02*
X6956983Y-72790994D01*
X6970060Y-120756262D02*
X6980804Y-120804104D01*
X70194578Y-63251584D02*
X70309671Y-63198702D01*
X73998796Y-134050018D02*
X73995189Y-134098919D01*
X8946343Y-63308566D02*
X8970047Y-63317345D01*
X73514588Y-243142129D02*
X73556014Y-243168362D01*
X73098919Y-120004810D02*
X73147583Y-120010812D01*
X9089947Y-186358328D02*
X9114065Y-186365895D01*
X69910076Y-186358320D02*
X70029928Y-186317353D01*
X6098919Y-58504810D02*
X6147583Y-58510812D01*
X11773237Y-249634758D02*
X11741209Y-249671887D01*
X5076044Y-249383300D02*
X5058397Y-249337552D01*
X11098919Y-68495189D02*
X11050018Y-68498796D01*
X5571872Y-134904085D02*
X5528074Y-134882039D01*
X7004812Y-183664579D02*
X7014430Y-183790873D01*
X72528074Y-58617960D02*
X72571872Y-58595914D01*
X73634758Y-181726762D02*
X73671887Y-181758790D01*
X11923955Y-190883300D02*
X11904085Y-190928127D01*
X71983010Y-245316046D02*
X71985567Y-245290898D01*
X5019195Y-72695895D02*
X5010812Y-72647583D01*
X9089923Y-130141679D02*
X8970071Y-130182646D01*
X6383300Y-181576044D02*
X6428127Y-181595914D01*
X11428127Y-6904085D02*
X11383300Y-6923955D01*
X11098919Y-5004810D02*
X11147583Y-5010812D01*
X7545207Y-62224015D02*
X7620174Y-62326106D01*
X70597448Y-191961024D02*
X70575996Y-191947653D01*
X71075858Y-124165420D02*
X71165420Y-124075858D01*
X7059180Y-184091450D02*
X7064268Y-184116211D01*
X6428127Y-120095914D02*
X6471925Y-120117960D01*
X67076044Y-64116699D02*
X67095914Y-64071872D01*
X67571872Y-129904085D02*
X67528074Y-129882039D01*
X67142129Y-191014588D02*
X67117960Y-190971925D01*
X8173872Y-7620189D02*
X8153883Y-7635662D01*
X71687548Y-131667588D02*
X71628905Y-131555322D01*
X67901080Y-125004810D02*
X67949981Y-125001203D01*
X67095914Y-248571872D02*
X67117960Y-248528074D01*
X7312451Y-246332411D02*
X7371094Y-246444677D01*
X67010812Y-249147583D02*
X67004810Y-249098919D01*
X73941602Y-134337552D02*
X73923955Y-134383300D01*
X73741209Y-5328112D02*
X73773237Y-5365241D01*
X70846136Y-62864321D02*
X70944299Y-62784280D01*
X72043016Y-11290994D02*
X72029939Y-11243737D01*
X11998796Y-129050018D02*
X11995189Y-129098919D01*
X7182654Y-246029952D02*
X7191433Y-246053656D01*
X7141679Y-122910076D02*
X7182646Y-123029928D01*
X73000987Y-250000000D02*
X67999012Y-250000000D01*
X5142129Y-5485411D02*
X5168362Y-5443985D01*
X6995189Y-72598919D02*
X6989187Y-72647583D01*
X9235862Y-130099253D02*
X9114090Y-130134097D01*
X11995189Y-249098919D02*
X11989187Y-249147583D01*
X6243737Y-181529939D02*
X6290994Y-181543016D01*
X72095914Y-72928127D02*
X72076044Y-72883300D01*
X9408549Y-130059180D02*
X9383788Y-130064268D01*
X73195895Y-120019195D02*
X73243737Y-120029939D01*
X6000987Y-12000000D02*
X5999012Y-12000000D01*
X6803404Y-196096103D02*
X6773237Y-196134758D01*
X71751594Y-61694555D02*
X71761563Y-61671326D01*
X72095914Y-243571872D02*
X72117960Y-243528074D01*
X11050018Y-248001203D02*
X11098919Y-248004810D01*
X7000000Y-120999012D02*
X7000000Y-121993666D01*
X5571872Y-58595914D02*
X5616699Y-58576044D01*
X73970060Y-243756262D02*
X73980804Y-243804104D01*
X5043016Y-182209005D02*
X5058397Y-182162447D01*
X69764112Y-7099247D02*
X69739641Y-7092911D01*
X7620174Y-8173893D02*
X7545207Y-8275984D01*
X7182646Y-70470071D02*
X7141679Y-70589923D01*
X67756262Y-6970060D02*
X67709005Y-6956983D01*
X5756262Y-196470060D02*
X5709005Y-196456983D01*
X71985567Y-194209101D02*
X71983010Y-194183953D01*
X11147583Y-186510812D02*
X11195895Y-186519195D01*
X11634758Y-5226762D02*
X11671887Y-5258790D01*
X5029939Y-249243737D02*
X5019195Y-249195895D01*
X8555322Y-63128905D02*
X8667588Y-63187548D01*
X67029939Y-67743737D02*
X67019195Y-67695895D01*
X67443985Y-6831637D02*
X67403896Y-6803404D01*
X72528074Y-73382039D02*
X72485411Y-73357870D01*
X72010812Y-59352416D02*
X72019195Y-59304104D01*
X73956983Y-134290994D02*
X73941602Y-134337552D01*
X71454792Y-69775984D02*
X71379825Y-69673893D01*
X6290994Y-134956983D02*
X6243737Y-134970060D01*
X72058397Y-243662447D02*
X72076044Y-243616699D01*
X5000000Y-59499012D02*
X5001203Y-59449981D01*
X69616236Y-247935726D02*
X69739617Y-247907095D01*
X71865895Y-70614065D02*
X71858328Y-70589947D01*
X71999999Y-194506321D02*
X71999839Y-194493680D01*
X72662447Y-196441602D02*
X72616699Y-196423955D01*
X67528074Y-5117960D02*
X67571872Y-5095914D01*
X11970060Y-67743737D02*
X11956983Y-67790994D01*
X72168362Y-120443985D02*
X72196595Y-120403896D01*
X72292600Y-196207399D02*
X72258790Y-196171887D01*
X7191442Y-246053680D02*
X7238427Y-246171303D01*
X5949981Y-196498796D02*
X5901080Y-196495189D01*
X6857870Y-243485411D02*
X6882039Y-243528074D01*
X73671887Y-243258790D02*
X73707399Y-243292600D01*
X70963517Y-185767781D02*
X71057500Y-185682871D01*
X71900746Y-193735862D02*
X71865902Y-193614090D01*
X73514588Y-58642129D02*
X73556014Y-58668362D01*
X7004812Y-245164579D02*
X7014430Y-245290873D01*
X73243737Y-58529939D02*
X73290994Y-58543016D01*
X5709005Y-73456983D02*
X5662447Y-73441602D01*
D11*
X-3000000Y-191500000D02*
X82000000Y-191500000D01*
D10*
X6773237Y-73134758D02*
X6741209Y-73171887D01*
X9260358Y-191592911D02*
X9235887Y-191599247D01*
X7003529Y-132860716D02*
X7000160Y-132993668D01*
X9383788Y-247935731D02*
X9408549Y-247940819D01*
X6989187Y-134147583D02*
X6980804Y-134195895D01*
X70723995Y-69045193D02*
X70703247Y-69030752D01*
X7248405Y-70305444D02*
X7238436Y-70328673D01*
X6556014Y-120168362D02*
X6596103Y-120196595D01*
X9533246Y-68536829D02*
X9408574Y-68559175D01*
X5328112Y-73241209D02*
X5292600Y-73207399D01*
X6857870Y-120485411D02*
X6882039Y-120528074D01*
X8153863Y-7635678D02*
X8055700Y-7715719D01*
X6970060Y-182256262D02*
X6980804Y-182304104D01*
X73471925Y-243117960D02*
X73514588Y-243142129D01*
X7530738Y-8296773D02*
X7461038Y-8402530D01*
X5168362Y-196056014D02*
X5142129Y-196014588D01*
X11995189Y-67598919D02*
X11989187Y-67647583D01*
X9383763Y-191564273D02*
X9260382Y-191592904D01*
X6290994Y-120043016D02*
X6337552Y-120058397D01*
X69466728Y-130036825D02*
X69441741Y-130032998D01*
X67168362Y-6556014D02*
X67142129Y-6514588D01*
X72004810Y-11098919D02*
X72001203Y-11050018D01*
X5999012Y-135000000D02*
X5949981Y-134998796D01*
X11243737Y-129970060D02*
X11195895Y-129980804D01*
X6290994Y-243043016D02*
X6337552Y-243058397D01*
X5443985Y-73331637D02*
X5403896Y-73303404D01*
X67852416Y-5010812D02*
X67901080Y-5004810D01*
X69591450Y-63440819D02*
X69616211Y-63435731D01*
X73904085Y-72928127D02*
X73882039Y-72971925D01*
X73773237Y-196134758D02*
X73741209Y-196171887D01*
X10006321Y-68500000D02*
X9993680Y-68500160D01*
X67901080Y-5004810D02*
X67949981Y-5001203D01*
X67043016Y-129290994D02*
X67029939Y-129243737D01*
X11989187Y-6147583D02*
X11980804Y-6195895D01*
X5058397Y-72837552D02*
X5043016Y-72790994D01*
X70053680Y-124808557D02*
X70171303Y-124761572D01*
X69316046Y-191516989D02*
X69290898Y-191514432D01*
X73337552Y-120058397D02*
X73383300Y-120076044D01*
X67117960Y-248528074D02*
X67142129Y-248485411D01*
X9835445Y-63495189D02*
X9860691Y-63496469D01*
X71761572Y-61671303D02*
X71808557Y-61553680D01*
X72117960Y-11471925D02*
X72095914Y-11428127D01*
X11941602Y-6337552D02*
X11923955Y-6383300D01*
X72328112Y-196241209D02*
X72292600Y-196207399D01*
D11*
X7000000Y3000000D02*
X7000000Y-258000000D01*
D10*
X11514588Y-249857870D02*
X11471925Y-249882039D01*
X6882039Y-195971925D02*
X6857870Y-196014588D01*
X72142129Y-120485411D02*
X72168362Y-120443985D01*
X67804104Y-5019195D02*
X67852416Y-5010812D01*
X71995187Y-71335420D02*
X71985569Y-71209126D01*
X5029939Y-182256262D02*
X5043016Y-182209005D01*
X70575974Y-68947640D02*
X70466823Y-68883386D01*
X73243737Y-120029939D02*
X73290994Y-120043016D01*
X67117960Y-190971925D02*
X67095914Y-190928127D01*
X69441741Y-124967001D02*
X69466728Y-124963174D01*
X73243737Y-249970060D02*
X73195895Y-249980804D01*
X9558283Y-124967005D02*
X9683928Y-124983007D01*
X6803404Y-181903896D02*
X6831637Y-181943985D01*
X6290994Y-58543016D02*
X6337552Y-58558397D01*
X67756262Y-248029939D02*
X67804104Y-248019195D01*
X73428127Y-181595914D02*
X73471925Y-181617960D01*
X69441741Y-247967001D02*
X69466728Y-247963174D01*
X6514588Y-11857870D02*
X6471925Y-11882039D01*
X8296752Y-130530752D02*
X8276004Y-130545193D01*
X11998796Y-249050018D02*
X11995189Y-249098919D01*
X5010812Y-72647583D02*
X5004810Y-72598919D01*
X7000160Y-122006331D02*
X7003529Y-122139283D01*
X73941602Y-72837552D02*
X73923955Y-72883300D01*
X67901080Y-129995189D02*
X67852416Y-129989187D01*
X68993666Y-191500000D02*
X67999012Y-191500000D01*
X72076044Y-11383300D02*
X72058397Y-11337552D01*
X67756262Y-249970060D02*
X67709005Y-249956983D01*
X11383300Y-248076044D02*
X11428127Y-248095914D01*
X67662447Y-68441602D02*
X67616699Y-68423955D01*
X8424003Y-7447653D02*
X8402551Y-7461024D01*
X5029939Y-243756262D02*
X5043016Y-243709005D01*
X7059180Y-122591450D02*
X7064268Y-122616211D01*
X67058397Y-67837552D02*
X67043016Y-67790994D01*
X72999012Y-243000000D02*
X73000987Y-243000000D01*
X7817146Y-62557519D02*
X7834561Y-62575840D01*
X5019195Y-249195895D02*
X5010812Y-249147583D01*
X67043016Y-64209005D02*
X67058397Y-64162447D01*
X69739617Y-191592904D02*
X69616236Y-191564273D01*
X5001203Y-243949981D02*
X5004810Y-243901080D01*
X67196595Y-191096103D02*
X67168362Y-191056014D01*
X9993680Y-63499839D02*
X10006321Y-63499999D01*
X6980804Y-11195895D02*
X6970060Y-11243737D01*
X5662447Y-243058397D02*
X5709005Y-243043016D01*
X73514588Y-120142129D02*
X73556014Y-120168362D01*
X71698691Y-70190306D02*
X71687559Y-70167611D01*
X71985569Y-183790873D02*
X71995187Y-183664579D01*
X67616699Y-63576044D02*
X67662447Y-63558397D01*
X11956983Y-64209005D02*
X11970060Y-64256262D01*
X11556014Y-129831637D02*
X11514588Y-129857870D01*
X7000000Y-243999012D02*
X7000000Y-244993666D01*
X6989187Y-243852416D02*
X6995189Y-243901080D01*
X73671887Y-5258790D02*
X73707399Y-5292600D01*
X67226762Y-5365241D02*
X67258790Y-5328112D01*
X72528074Y-120117960D02*
X72571872Y-120095914D01*
X71858328Y-245910052D02*
X71865895Y-245885934D01*
X11634758Y-186726762D02*
X11671887Y-186758790D01*
X11980804Y-6195895D02*
X11970060Y-6243737D01*
X70597469Y-124538961D02*
X70703226Y-124469261D01*
X73857870Y-11514588D02*
X73831637Y-11556014D01*
X72095914Y-120571872D02*
X72117960Y-120528074D01*
X67709005Y-68456983D02*
X67662447Y-68441602D01*
X9114090Y-63365902D02*
X9235862Y-63400746D01*
X5571872Y-5095914D02*
X5616699Y-5076044D01*
X5949981Y-73498796D02*
X5901080Y-73495189D01*
X7924159Y-247165438D02*
X7942480Y-247182853D01*
X73050018Y-120001203D02*
X73098919Y-120004810D01*
X7383386Y-61966823D02*
X7447640Y-62075974D01*
X67403896Y-68303404D02*
X67365241Y-68273237D01*
X5004810Y-182401080D02*
X5010812Y-182352416D01*
X9709101Y-191514432D02*
X9683953Y-191516989D01*
X70723995Y-192045193D02*
X70703247Y-192030752D01*
X67000000Y-249000987D02*
X67000000Y-248999012D01*
X73383300Y-134923955D02*
X73337552Y-134941602D01*
X67095914Y-249428127D02*
X67076044Y-249383300D01*
X71552346Y-131424003D02*
X71538975Y-131402551D01*
X69139308Y-124996469D02*
X69164554Y-124995189D01*
X11243737Y-6970060D02*
X11195895Y-6980804D01*
X5029939Y-59256262D02*
X5043016Y-59209005D01*
X9533246Y-191536829D02*
X9408574Y-191559175D01*
X6428127Y-196404085D02*
X6383300Y-196423955D01*
X0Y-254987752D02*
X270Y-254998754D01*
X70703247Y-124469247D02*
X70723995Y-124454806D01*
X5095914Y-120571872D02*
X5117960Y-120528074D01*
X8424003Y-191947653D02*
X8402551Y-191961024D01*
X6956983Y-120709005D02*
X6970060Y-120756262D01*
X73556014Y-73331637D02*
X73514588Y-73357870D01*
X73923955Y-243616699D02*
X73941602Y-243662447D01*
X72662447Y-11941602D02*
X72616699Y-11923955D01*
X5001203Y-195550018D02*
X5000000Y-195500987D01*
X71284263Y-131055681D02*
X71267798Y-131036501D01*
X71858328Y-184410052D02*
X71865895Y-184385934D01*
X11741209Y-125328112D02*
X11773237Y-125365241D01*
X67117960Y-125528074D02*
X67142129Y-125485411D01*
X7099253Y-61264137D02*
X7134097Y-61385909D01*
X11989187Y-187352416D02*
X11995189Y-187401080D01*
X9235887Y-63400752D02*
X9260358Y-63407088D01*
X7545193Y-131276004D02*
X7530752Y-131296752D01*
X8153863Y-69135678D02*
X8055700Y-69215719D01*
X5756262Y-120029939D02*
X5804104Y-120019195D01*
X69441716Y-68532994D02*
X69316071Y-68516992D01*
X72010812Y-182352416D02*
X72019195Y-182304104D01*
X71999999Y-133006321D02*
X71999839Y-132993680D01*
X72328112Y-120258790D02*
X72365241Y-120226762D01*
X5258790Y-11671887D02*
X5226762Y-11634758D01*
X8805444Y-63251594D02*
X8828673Y-63261563D01*
X11195895Y-68480804D02*
X11147583Y-68489187D01*
X6195895Y-73480804D02*
X6147583Y-73489187D01*
X8533176Y-7383386D02*
X8424025Y-7447640D01*
X5901080Y-249995189D02*
X5852416Y-249989187D01*
X11941602Y-249337552D02*
X11923955Y-249383300D01*
X71075858Y-185665420D02*
X71165420Y-185575858D01*
X72196595Y-11596103D02*
X72168362Y-11556014D01*
X69739641Y-124907088D02*
X69764112Y-124900752D01*
X5328112Y-58758790D02*
X5365241Y-58726762D01*
X11741209Y-186828112D02*
X11773237Y-186865241D01*
X72258790Y-181828112D02*
X72292600Y-181792600D01*
X7141671Y-132089947D02*
X7134104Y-132114065D01*
X7134097Y-193614090D02*
X7099253Y-193735862D01*
X9235887Y-186400752D02*
X9260358Y-186407088D01*
X5168362Y-5443985D02*
X5196595Y-5403896D01*
X67949981Y-125001203D02*
X67999012Y-125000000D01*
X7530738Y-192796773D02*
X7461038Y-192902530D01*
X73980804Y-134195895D02*
X73970060Y-134243737D01*
X73998796Y-249050018D02*
X73995189Y-249098919D01*
X5095914Y-182071872D02*
X5117960Y-182028074D01*
X6243737Y-134970060D02*
X6195895Y-134980804D01*
X67709005Y-63543016D02*
X67756262Y-63529939D01*
X6000987Y-181500000D02*
X6050018Y-181501203D01*
X73831637Y-243443985D02*
X73857870Y-243485411D01*
X5029939Y-72743737D02*
X5019195Y-72695895D01*
X5616699Y-58576044D02*
X5662447Y-58558397D01*
X72258790Y-11671887D02*
X72226762Y-11634758D01*
X5004810Y-249098919D02*
X5001203Y-249050018D01*
X71552346Y-8424003D02*
X71538975Y-8402551D01*
X7059175Y-70908574D02*
X7036829Y-71033246D01*
X5949981Y-5001203D02*
X5999012Y-5000000D01*
X73882039Y-134471925D02*
X73857870Y-134514588D01*
X7461038Y-185097469D02*
X7530738Y-185203226D01*
X8055681Y-192215736D02*
X8036501Y-192232201D01*
X11707399Y-63792600D02*
X11741209Y-63828112D01*
X6773237Y-120365241D02*
X6803404Y-120403896D01*
X70309671Y-191801297D02*
X70194578Y-191748415D01*
X11290994Y-249956983D02*
X11243737Y-249970060D01*
X67999012Y-250000000D02*
X67949981Y-249998796D01*
X8402551Y-247538975D02*
X8424003Y-247552346D01*
X6803404Y-120403896D02*
X6831637Y-120443985D01*
X9383788Y-63435731D02*
X9408549Y-63440819D01*
X71469247Y-192796752D02*
X71454806Y-192776004D01*
X70846136Y-185864321D02*
X70944299Y-185784280D01*
X11803404Y-129596103D02*
X11773237Y-129634758D01*
X6923955Y-11383300D02*
X6904085Y-11428127D01*
X9114065Y-130134104D02*
X9089947Y-130141671D01*
X67058397Y-190837552D02*
X67043016Y-190790994D01*
X7447640Y-192924025D02*
X7383386Y-193033176D01*
X67443985Y-248168362D02*
X67485411Y-248142129D01*
X11773237Y-68134758D02*
X11741209Y-68171887D01*
X5142129Y-58985411D02*
X5168362Y-58943985D01*
X73941602Y-11337552D02*
X73923955Y-11383300D01*
X73707399Y-181792600D02*
X73741209Y-181828112D01*
X11923955Y-248616699D02*
X11941602Y-248662447D01*
X69616236Y-186435726D02*
X69739617Y-186407095D01*
X69316046Y-7016989D02*
X69290898Y-7014432D01*
X5365241Y-120226762D02*
X5403896Y-120196595D01*
X11970060Y-249243737D02*
X11956983Y-249290994D01*
X5117960Y-11471925D02*
X5095914Y-11428127D01*
X11000987Y-5000000D02*
X11050018Y-5001203D01*
X72142129Y-134514588D02*
X72117960Y-134471925D01*
X73556014Y-249831637D02*
X73514588Y-249857870D01*
X71687559Y-184832388D02*
X71698691Y-184809693D01*
X11428127Y-129904085D02*
X11383300Y-129923955D01*
X8153883Y-185864337D02*
X8173872Y-185879810D01*
X7016989Y-71183953D02*
X7014432Y-71209101D01*
X73514588Y-181642129D02*
X73556014Y-181668362D01*
X69441741Y-186467001D02*
X69466728Y-186463174D01*
X73956983Y-195790994D02*
X73941602Y-195837552D01*
X71808566Y-123053656D02*
X71817345Y-123029952D01*
X71075840Y-7834561D02*
X71057519Y-7817146D01*
X73707399Y-249707399D02*
X73671887Y-249741209D01*
X71075858Y-247165420D02*
X71165420Y-247075858D01*
X71057500Y-130817128D02*
X70963517Y-130732218D01*
X71999839Y-183506319D02*
X71999999Y-183493678D01*
X5901080Y-181504810D02*
X5949981Y-181501203D01*
X67058397Y-129337552D02*
X67043016Y-129290994D01*
X8402551Y-63038975D02*
X8424003Y-63052346D01*
X8970071Y-124817353D02*
X9089923Y-124858320D01*
X67852416Y-68489187D02*
X67804104Y-68480804D01*
X11671887Y-5258790D02*
X11707399Y-5292600D01*
X69441741Y-63467001D02*
X69466728Y-63463174D01*
X5076044Y-182116699D02*
X5095914Y-182071872D01*
X72000000Y-244993666D02*
X72000000Y-243999012D01*
X73050018Y-11998796D02*
X73000987Y-12000000D01*
X6707399Y-134707399D02*
X6671887Y-134741209D01*
X73634758Y-196273237D02*
X73596103Y-196303404D01*
X11556014Y-6831637D02*
X11514588Y-6857870D01*
X7371106Y-123444699D02*
X7383374Y-123466801D01*
X7834561Y-7924159D02*
X7817146Y-7942480D01*
X5616699Y-5076044D02*
X5662447Y-5058397D01*
X11596103Y-191303404D02*
X11556014Y-191331637D01*
X11904085Y-190928127D02*
X11882039Y-190971925D01*
X67528074Y-249882039D02*
X67485411Y-249857870D01*
X7383386Y-184966823D02*
X7447640Y-185075974D01*
X73998796Y-243949981D02*
X74000000Y-243999012D01*
X72001203Y-182449981D02*
X72004810Y-182401080D01*
X7000160Y-183506331D02*
X7003529Y-183639283D01*
X72019195Y-182304104D02*
X72029939Y-182256262D01*
X67142129Y-125485411D02*
X67168362Y-125443985D01*
X71995189Y-245164554D02*
X71996469Y-245139308D01*
X5443985Y-249831637D02*
X5403896Y-249803404D01*
X7238427Y-193328696D02*
X7191442Y-193446319D01*
X73980804Y-249195895D02*
X73970060Y-249243737D01*
X5852416Y-5010812D02*
X5901080Y-5004810D01*
X6337552Y-243058397D02*
X6383300Y-243076044D01*
X8036501Y-185767798D02*
X8055681Y-185784263D01*
X5662447Y-120058397D02*
X5709005Y-120043016D01*
X70703226Y-69030738D02*
X70597469Y-68961038D01*
X72616699Y-58576044D02*
X72662447Y-58558397D01*
X11243737Y-68470060D02*
X11195895Y-68480804D01*
X69006319Y-191500160D02*
X68993678Y-191500000D01*
X11707399Y-249707399D02*
X11671887Y-249741209D01*
X73337552Y-5058397D02*
X73383300Y-5076044D01*
X5058397Y-11337552D02*
X5043016Y-11290994D01*
X11634758Y-63726762D02*
X11671887Y-63758790D01*
X71454792Y-131275984D02*
X71379825Y-131173893D01*
X7000000Y-121993678D02*
X7000160Y-122006319D01*
X67999012Y-130000000D02*
X67949981Y-129998796D01*
X67571872Y-5095914D02*
X67616699Y-5076044D01*
X70444677Y-7371094D02*
X70332411Y-7312451D01*
X72485411Y-73357870D02*
X72443985Y-73331637D01*
X71628905Y-61944677D02*
X71687548Y-61832411D01*
X72258790Y-73171887D02*
X72226762Y-73134758D01*
X70171303Y-191738427D02*
X70053680Y-191691442D01*
X67949981Y-63501203D02*
X67999012Y-63500000D01*
X67804104Y-68480804D02*
X67756262Y-68470060D01*
X5043016Y-11290994D02*
X5029939Y-11243737D01*
X6098919Y-120004810D02*
X6147583Y-120010812D01*
X69910076Y-124858320D02*
X70029928Y-124817353D01*
X69764112Y-191599247D02*
X69739641Y-191592911D01*
X72292600Y-134707399D02*
X72258790Y-134671887D01*
X67485411Y-125142129D02*
X67528074Y-125117960D01*
X67852416Y-191489187D02*
X67804104Y-191480804D01*
X9860716Y-247996470D02*
X9993668Y-247999839D01*
X70723995Y-7545193D02*
X70703247Y-7530752D01*
X72010812Y-11147583D02*
X72004810Y-11098919D01*
X7014432Y-122290898D02*
X7016989Y-122316046D01*
X7064268Y-9383788D02*
X7059180Y-9408549D01*
X73773237Y-5365241D02*
X73803404Y-5403896D01*
X6337552Y-11941602D02*
X6290994Y-11956983D01*
X71538961Y-69902530D02*
X71469261Y-69796773D01*
X11857870Y-249514588D02*
X11831637Y-249556014D01*
X6980804Y-182304104D02*
X6989187Y-182352416D01*
X5196595Y-5403896D02*
X5226762Y-5365241D01*
X9558283Y-247967005D02*
X9683928Y-247983007D01*
X11904085Y-64071872D02*
X11923955Y-64116699D01*
X72756262Y-11970060D02*
X72709005Y-11956983D01*
X72571872Y-134904085D02*
X72528074Y-134882039D01*
X71761572Y-246171303D02*
X71808557Y-246053680D01*
X70053680Y-63308557D02*
X70171303Y-63261572D01*
X69139283Y-191503529D02*
X69006331Y-191500160D01*
X67095914Y-190928127D02*
X67076044Y-190883300D01*
X74000000Y-120999012D02*
X74000000Y-134000987D01*
X5043016Y-5709005D02*
X5058397Y-5662447D01*
X5168362Y-249556014D02*
X5142129Y-249514588D01*
X7545207Y-185224015D02*
X7620174Y-185326106D01*
X71935731Y-245616211D02*
X71940819Y-245591450D01*
X7059180Y-61091450D02*
X7064268Y-61116211D01*
X6989187Y-11147583D02*
X6980804Y-11195895D01*
X5804104Y-5019195D02*
X5852416Y-5010812D01*
X5004810Y-243901080D02*
X5010812Y-243852416D01*
X6050018Y-58501203D02*
X6098919Y-58504810D01*
X69164579Y-186495187D02*
X69290873Y-186485569D01*
X73514588Y-134857870D02*
X73471925Y-134882039D01*
X71538975Y-62097448D02*
X71552346Y-62075996D01*
X11773237Y-191134758D02*
X11741209Y-191171887D01*
X5226762Y-5365241D02*
X5258790Y-5328112D01*
X6514588Y-120142129D02*
X6556014Y-120168362D01*
X5756262Y-73470060D02*
X5709005Y-73456983D01*
X67010812Y-129147583D02*
X67004810Y-129098919D01*
X73290994Y-196456983D02*
X73243737Y-196470060D01*
X7092911Y-122739641D02*
X7099247Y-122764112D01*
X7834579Y-247075858D02*
X7924141Y-247165420D01*
X71057500Y-192317128D02*
X70963517Y-192232218D01*
X6671887Y-11741209D02*
X6634758Y-11773237D01*
X72528074Y-134882039D02*
X72485411Y-134857870D01*
X69885934Y-63365895D02*
X69910052Y-63358328D01*
X11514588Y-129857870D02*
X11471925Y-129882039D01*
X12247Y0D02*
X1245Y-270D01*
X11337552Y-129941602D02*
X11290994Y-129956983D01*
X69316046Y-68516989D02*
X69290898Y-68514432D01*
X67095914Y-5571872D02*
X67117960Y-5528074D01*
X6195895Y-243019195D02*
X6243737Y-243029939D01*
X5001203Y-11050018D02*
X5000000Y-11000987D01*
X67004810Y-190598919D02*
X67001203Y-190550018D01*
X11428127Y-125095914D02*
X11471925Y-125117960D01*
X6995189Y-134098919D02*
X6989187Y-134147583D01*
X6634758Y-134773237D02*
X6596103Y-134803404D01*
X67709005Y-5043016D02*
X67756262Y-5029939D01*
X6514588Y-73357870D02*
X6471925Y-73382039D01*
X72226762Y-120365241D02*
X72258790Y-120328112D01*
X73773237Y-11634758D02*
X73741209Y-11671887D01*
X73773237Y-58865241D02*
X73803404Y-58903896D01*
X71284263Y-192555681D02*
X71267798Y-192536501D01*
X72076044Y-134383300D02*
X72058397Y-134337552D01*
X67142129Y-248485411D02*
X67168362Y-248443985D01*
X6147583Y-134989187D02*
X6098919Y-134995189D01*
X7064273Y-184116236D02*
X7092904Y-184239617D01*
X71552359Y-62075974D02*
X71616613Y-61966823D01*
X70575996Y-186052346D02*
X70597448Y-186038975D01*
X72010812Y-195647583D02*
X72004810Y-195598919D01*
X72076044Y-243616699D02*
X72095914Y-243571872D01*
X6831637Y-181943985D02*
X6857870Y-181985411D01*
X7004812Y-122164579D02*
X7014430Y-122290873D01*
X71761563Y-8828673D02*
X71751594Y-8805444D01*
X7004810Y-132835445D02*
X7003530Y-132860691D01*
X71284280Y-62444299D02*
X71364321Y-62346136D01*
X7134104Y-61385934D02*
X7141671Y-61410052D01*
X67901080Y-68495189D02*
X67852416Y-68489187D01*
X67029939Y-190743737D02*
X67019195Y-190695895D01*
X71963174Y-122466728D02*
X71967001Y-122441741D01*
X72328112Y-243258790D02*
X72365241Y-243226762D01*
X6831637Y-196056014D02*
X6803404Y-196096103D01*
X6956983Y-134290994D02*
X6941602Y-134337552D01*
X11995189Y-187401080D02*
X11998796Y-187449981D01*
X71538975Y-246597448D02*
X71552346Y-246575996D01*
X5196595Y-120403896D02*
X5226762Y-120365241D01*
X71963170Y-9533246D02*
X71940824Y-9408574D01*
X71808566Y-184553656D02*
X71817345Y-184529952D01*
X73290994Y-181543016D02*
X73337552Y-181558397D01*
X9533271Y-186463174D02*
X9558258Y-186467001D01*
X72196595Y-243403896D02*
X72226762Y-243365241D01*
X8296752Y-7530752D02*
X8276004Y-7545193D01*
X6471925Y-181617960D02*
X6514588Y-181642129D01*
X11904085Y-129428127D02*
X11882039Y-129471925D01*
X69164579Y-124995187D02*
X69290873Y-124985569D01*
X73857870Y-120485411D02*
X73882039Y-120528074D01*
X5117960Y-134471925D02*
X5095914Y-134428127D01*
X7099247Y-132235887D02*
X7092911Y-132260358D01*
X72168362Y-58943985D02*
X72196595Y-58903896D01*
X72292600Y-243292600D02*
X72328112Y-243258790D01*
X9709126Y-124985569D02*
X9835420Y-124995187D01*
X73596103Y-181696595D02*
X73634758Y-181726762D01*
X7191433Y-8946343D02*
X7182654Y-8970047D01*
X73634758Y-73273237D02*
X73596103Y-73303404D01*
X73803404Y-196096103D02*
X73773237Y-196134758D01*
X7004810Y-71335445D02*
X7003530Y-71360691D01*
X69139308Y-186496469D02*
X69164554Y-186495189D01*
X67004810Y-6098919D02*
X67001203Y-6050018D01*
X72001203Y-134050018D02*
X72000000Y-134000987D01*
X7312440Y-8667611D02*
X7301308Y-8690306D01*
X70724015Y-124454792D02*
X70826106Y-124379825D01*
X8424025Y-186052359D02*
X8533176Y-186116613D01*
X67756262Y-5029939D02*
X67804104Y-5019195D01*
X11471925Y-5117960D02*
X11514588Y-5142129D01*
X6428127Y-11904085D02*
X6383300Y-11923955D01*
X71817345Y-70470047D02*
X71808566Y-70446343D01*
X9533271Y-124963174D02*
X9558258Y-124967001D01*
X5528074Y-196382039D02*
X5485411Y-196357870D01*
X67901080Y-186504810D02*
X67949981Y-186501203D01*
X11098919Y-186504810D02*
X11147583Y-186510812D01*
X69591425Y-68559175D02*
X69466753Y-68536829D01*
X5485411Y-73357870D02*
X5443985Y-73331637D01*
X5258790Y-249671887D02*
X5226762Y-249634758D01*
X70575974Y-7447640D02*
X70466823Y-7383386D01*
X12000000Y-248999012D02*
X12000000Y-249000987D01*
X6773237Y-58865241D02*
X6803404Y-58903896D01*
X67804104Y-248019195D02*
X67852416Y-248010812D01*
X5999012Y-243000000D02*
X6000987Y-243000000D01*
X9383763Y-7064273D02*
X9260382Y-7092904D01*
X71865895Y-9114065D02*
X71858328Y-9089947D01*
X11857870Y-68014588D02*
X11831637Y-68056014D01*
X6956983Y-182209005D02*
X6970060Y-182256262D01*
X67142129Y-6514588D02*
X67117960Y-6471925D01*
X69739617Y-68592904D02*
X69616236Y-68564273D01*
X6904085Y-72928127D02*
X6882039Y-72971925D01*
X7141679Y-61410076D02*
X7182646Y-61529928D01*
X71940819Y-70908549D02*
X71935731Y-70883788D01*
X11831637Y-6556014D02*
X11803404Y-6596103D01*
X67328112Y-249741209D02*
X67292600Y-249707399D01*
X5403896Y-73303404D02*
X5365241Y-73273237D01*
X11980804Y-125804104D02*
X11989187Y-125852416D01*
X11995189Y-5901080D02*
X11998796Y-5949981D01*
X7092904Y-193760382D02*
X7064273Y-193883763D01*
X73671887Y-120258790D02*
X73707399Y-120292600D01*
X73831637Y-249556014D02*
X73803404Y-249596103D01*
X73831637Y-196056014D02*
X73803404Y-196096103D01*
X6671887Y-134741209D02*
X6634758Y-134773237D01*
X8555322Y-247628905D02*
X8667588Y-247687548D01*
X9533246Y-130036829D02*
X9408574Y-130059175D01*
X72058397Y-72837552D02*
X72043016Y-72790994D01*
X7036829Y-183966753D02*
X7059175Y-184091425D01*
X11428127Y-186595914D02*
X11471925Y-186617960D01*
X8276004Y-124454806D02*
X8296752Y-124469247D01*
X73471925Y-249882039D02*
X73428127Y-249904085D01*
X67528074Y-191382039D02*
X67485411Y-191357870D01*
X5076044Y-59116699D02*
X5095914Y-59071872D01*
X6671887Y-196241209D02*
X6634758Y-196273237D01*
X8690306Y-68801308D02*
X8667611Y-68812440D01*
X11970060Y-248756262D02*
X11980804Y-248804104D01*
X73098919Y-181504810D02*
X73147583Y-181510812D01*
X74000000Y-11000987D02*
X73998796Y-11050018D01*
X73741209Y-73171887D02*
X73707399Y-73207399D01*
X11050018Y-191498796D02*
X11000987Y-191500000D01*
X73147583Y-58510812D02*
X73195895Y-58519195D01*
X5258790Y-134671887D02*
X5226762Y-134634758D01*
X11956983Y-249290994D02*
X11941602Y-249337552D01*
X5117960Y-72971925D02*
X5095914Y-72928127D01*
X71379825Y-246826106D02*
X71454792Y-246724015D01*
X6000987Y-196500000D02*
X5999012Y-196500000D01*
X6556014Y-58668362D02*
X6596103Y-58696595D01*
X71817345Y-131970047D02*
X71808566Y-131946343D01*
X69616211Y-7064268D02*
X69591450Y-7059180D01*
X8555300Y-191871106D02*
X8533198Y-191883374D01*
X11596103Y-249803404D02*
X11556014Y-249831637D01*
X73773237Y-181865241D02*
X73803404Y-181903896D01*
X8946343Y-247808566D02*
X8970047Y-247817345D01*
X11147583Y-6989187D02*
X11098919Y-6995189D01*
X9114090Y-247865902D02*
X9235862Y-247900746D01*
X71865895Y-132114065D02*
X71858328Y-132089947D01*
X67403896Y-63696595D02*
X67443985Y-63668362D01*
X72000000Y-60493666D02*
X72000000Y-59499012D01*
X72999012Y-120000000D02*
X73000987Y-120000000D01*
X7924141Y-130834579D02*
X7834579Y-130924141D01*
X7635662Y-192653883D02*
X7620189Y-192673872D01*
X73147583Y-249989187D02*
X73098919Y-249995189D01*
X7371106Y-246444699D02*
X7383374Y-246466801D01*
X67365241Y-249773237D02*
X67328112Y-249741209D01*
X8805421Y-7248415D02*
X8690328Y-7301297D01*
X72004810Y-243901080D02*
X72010812Y-243852416D01*
X5709005Y-5043016D02*
X5756262Y-5029939D01*
X71698702Y-184809671D02*
X71751584Y-184694578D01*
X71075840Y-69334561D02*
X71057519Y-69317146D01*
X71616613Y-8533176D02*
X71552359Y-8424025D01*
X6980804Y-134195895D02*
X6970060Y-134243737D01*
X9558258Y-7032998D02*
X9533271Y-7036825D01*
X70466801Y-68883374D02*
X70444699Y-68871106D01*
X73995189Y-182401080D02*
X73998796Y-182449981D01*
X7248405Y-131805444D02*
X7238436Y-131828673D01*
X11514588Y-248142129D02*
X11556014Y-248168362D01*
X72168362Y-11556014D02*
X72142129Y-11514588D01*
X9835445Y-186495189D02*
X9860691Y-186496469D01*
X67709005Y-249956983D02*
X67662447Y-249941602D01*
X69164579Y-63495187D02*
X69290873Y-63485569D01*
X11980804Y-190695895D02*
X11970060Y-190743737D01*
X73956983Y-182209005D02*
X73970060Y-182256262D01*
X72662447Y-134941602D02*
X72616699Y-134923955D01*
X7059180Y-245591450D02*
X7064268Y-245616211D01*
X73803404Y-11596103D02*
X73773237Y-11634758D01*
X71999839Y-71493668D02*
X71996470Y-71360716D01*
X70963498Y-7732201D02*
X70944318Y-7715736D01*
X73428127Y-134904085D02*
X73383300Y-134923955D01*
X71963174Y-183966728D02*
X71967001Y-183941741D01*
X7059175Y-193908574D02*
X7036829Y-194033246D01*
X71995187Y-194335420D02*
X71985569Y-194209126D01*
X7016992Y-183816071D02*
X7032994Y-183941716D01*
X11671887Y-249741209D02*
X11634758Y-249773237D01*
X67095914Y-6428127D02*
X67076044Y-6383300D01*
X5095914Y-11428127D02*
X5076044Y-11383300D01*
X6998796Y-11050018D02*
X6995189Y-11098919D01*
X73970060Y-59256262D02*
X73980804Y-59304104D01*
X67043016Y-190790994D02*
X67029939Y-190743737D01*
X69591425Y-191559175D02*
X69466753Y-191536829D01*
X8533176Y-68883386D02*
X8424025Y-68947640D01*
X74000000Y-134000987D02*
X73998796Y-134050018D01*
X8036482Y-130732218D02*
X7942499Y-130817128D01*
X67019195Y-6195895D02*
X67010812Y-6147583D01*
X6147583Y-11989187D02*
X6098919Y-11995189D01*
X67001203Y-5949981D02*
X67004810Y-5901080D01*
X73098919Y-196495189D02*
X73050018Y-196498796D01*
X11147583Y-248010812D02*
X11195895Y-248019195D01*
X6989187Y-182352416D02*
X6995189Y-182401080D01*
X71628893Y-8555300D02*
X71616625Y-8533198D01*
X10006333Y-248000000D02*
X11000987Y-248000000D01*
X5662447Y-196441602D02*
X5616699Y-196423955D01*
X11428127Y-191404085D02*
X11383300Y-191423955D01*
X8970047Y-191682654D02*
X8946343Y-191691433D01*
X11514588Y-186642129D02*
X11556014Y-186668362D01*
X70171303Y-7238427D02*
X70053680Y-7191442D01*
X70826127Y-185879810D02*
X70846116Y-185864337D01*
X72019195Y-134195895D02*
X72010812Y-134147583D01*
X8805444Y-124751594D02*
X8828673Y-124761563D01*
X7032994Y-194058283D02*
X7016992Y-194183928D01*
X67571872Y-125095914D02*
X67616699Y-125076044D01*
X7461038Y-62097469D02*
X7530738Y-62203226D01*
X67756262Y-186529939D02*
X67804104Y-186519195D01*
X73995189Y-11098919D02*
X73989187Y-11147583D01*
X9835420Y-7004812D02*
X9709126Y-7014430D01*
X67756262Y-129970060D02*
X67709005Y-129956983D01*
X73596103Y-58696595D02*
X73634758Y-58726762D01*
X6857870Y-181985411D02*
X6882039Y-182028074D01*
X67662447Y-5058397D02*
X67709005Y-5043016D01*
X5117960Y-243528074D02*
X5142129Y-243485411D01*
X8424003Y-130447653D02*
X8402551Y-130461024D01*
X6857870Y-196014588D02*
X6831637Y-196056014D01*
X72196595Y-134596103D02*
X72168362Y-134556014D01*
X8828696Y-186261572D02*
X8946319Y-186308557D01*
X72058397Y-120662447D02*
X72076044Y-120616699D01*
X67142129Y-249514588D02*
X67117960Y-249471925D01*
X67443985Y-191331637D02*
X67403896Y-191303404D01*
X72292600Y-73207399D02*
X72258790Y-73171887D01*
X7301297Y-70190328D02*
X7248415Y-70305421D01*
X72292600Y-120292600D02*
X72328112Y-120258790D01*
X11383300Y-249923955D02*
X11337552Y-249941602D01*
X6514588Y-58642129D02*
X6556014Y-58668362D01*
X67328112Y-191241209D02*
X67292600Y-191207399D01*
X67328112Y-186758790D02*
X67365241Y-186726762D01*
X7000160Y-194493680D02*
X7000000Y-194506321D01*
X73904085Y-134428127D02*
X73882039Y-134471925D01*
X5485411Y-134857870D02*
X5443985Y-134831637D01*
X7834579Y-124075858D02*
X7924141Y-124165420D01*
X11337552Y-125058397D02*
X11383300Y-125076044D01*
X73970060Y-11243737D02*
X73956983Y-11290994D01*
X11980804Y-187304104D02*
X11989187Y-187352416D01*
X5901080Y-5004810D02*
X5949981Y-5001203D01*
X71761563Y-131828673D02*
X71751594Y-131805444D01*
X72168362Y-181943985D02*
X72196595Y-181903896D01*
X7000000Y-11000987D02*
X6998796Y-11050018D01*
X67058397Y-248662447D02*
X67076044Y-248616699D01*
X8173893Y-124379825D02*
X8275984Y-124454792D01*
X71538961Y-131402530D02*
X71469261Y-131296773D01*
X8402551Y-124538975D02*
X8424003Y-124552346D01*
X7099247Y-9235887D02*
X7092911Y-9260358D01*
X5292600Y-243292600D02*
X5328112Y-243258790D01*
X5010812Y-134147583D02*
X5004810Y-134098919D01*
X11989187Y-248852416D02*
X11995189Y-248901080D01*
X9089923Y-7141679D02*
X8970071Y-7182646D01*
X11956983Y-248709005D02*
X11970060Y-248756262D01*
X71469247Y-131296752D02*
X71454806Y-131276004D01*
X5019195Y-243804104D02*
X5029939Y-243756262D01*
X6923955Y-195883300D02*
X6904085Y-195928127D01*
X6337552Y-58558397D02*
X6383300Y-58576044D01*
X73857870Y-243485411D02*
X73882039Y-243528074D01*
X5443985Y-181668362D02*
X5485411Y-181642129D01*
X5196595Y-134596103D02*
X5168362Y-134556014D01*
X5403896Y-243196595D02*
X5443985Y-243168362D01*
X70944299Y-69215719D02*
X70846136Y-69135678D01*
X9114090Y-124865902D02*
X9235862Y-124900746D01*
X68993678Y-124999999D02*
X69006319Y-124999839D01*
D11*
X-3000000Y-248000000D02*
X82000000Y-248000000D01*
D10*
X5019195Y-120804104D02*
X5029939Y-120756262D01*
X7461038Y-246597469D02*
X7530738Y-246703226D01*
X71165420Y-130924141D02*
X71075858Y-130834579D01*
X7016992Y-122316071D02*
X7032994Y-122441716D01*
X6383300Y-58576044D02*
X6428127Y-58595914D01*
X6243737Y-58529939D02*
X6290994Y-58543016D01*
X11831637Y-5443985D02*
X11857870Y-5485411D01*
X5000000Y-11000987D02*
X5000000Y-5999012D01*
X11596103Y-248196595D02*
X11634758Y-248226762D01*
X5662447Y-73441602D02*
X5616699Y-73423955D01*
X5443985Y-196331637D02*
X5403896Y-196303404D01*
X67949981Y-5001203D02*
X67999012Y-5000000D01*
X11471925Y-248117960D02*
X11514588Y-248142129D01*
X11243737Y-248029939D02*
X11290994Y-248043016D01*
X73831637Y-73056014D02*
X73803404Y-73096103D01*
X11290994Y-191456983D02*
X11243737Y-191470060D01*
X5043016Y-243709005D02*
X5058397Y-243662447D01*
X72142129Y-181985411D02*
X72168362Y-181943985D01*
X9408549Y-68559180D02*
X9383788Y-68564268D01*
X72403896Y-58696595D02*
X72443985Y-58668362D01*
X5852416Y-249989187D02*
X5804104Y-249980804D01*
X5196595Y-196096103D02*
X5168362Y-196056014D01*
X71967001Y-71058258D02*
X71963174Y-71033271D01*
X71865902Y-184385909D02*
X71900746Y-184264137D01*
X7000000Y-182499012D02*
X7000000Y-183493666D01*
X6882039Y-11471925D02*
X6857870Y-11514588D01*
X7004810Y-9835445D02*
X7003530Y-9860691D01*
X6050018Y-243001203D02*
X6098919Y-243004810D01*
X72804104Y-73480804D02*
X72756262Y-73470060D01*
X7248415Y-61694578D02*
X7301297Y-61809671D01*
X8296773Y-62969261D02*
X8402530Y-63038961D01*
X11980804Y-129195895D02*
X11970060Y-129243737D01*
X72029939Y-195743737D02*
X72019195Y-195695895D01*
X11882039Y-248528074D02*
X11904085Y-248571872D01*
X71284280Y-185444299D02*
X71364321Y-185346136D01*
X7182654Y-184529952D02*
X7191433Y-184553656D01*
X71995189Y-183664554D02*
X71996469Y-183639308D01*
X6923955Y-72883300D02*
X6904085Y-72928127D01*
X10006333Y-63500000D02*
X11000987Y-63500000D01*
X69764137Y-63400746D02*
X69885909Y-63365902D01*
X11995189Y-129098919D02*
X11989187Y-129147583D01*
X72662447Y-243058397D02*
X72709005Y-243043016D01*
X67662447Y-249941602D02*
X67616699Y-249923955D01*
X72528074Y-243117960D02*
X72571872Y-243095914D01*
X73471925Y-196382039D02*
X73428127Y-196404085D01*
X67571872Y-68404085D02*
X67528074Y-68382039D01*
X7942480Y-130817146D02*
X7924159Y-130834561D01*
X68993678Y-63499999D02*
X69006319Y-63499839D01*
X6803404Y-11596103D02*
X6773237Y-11634758D01*
X6923955Y-243616699D02*
X6941602Y-243662447D01*
X73707399Y-58792600D02*
X73741209Y-58828112D01*
X7461024Y-192902551D02*
X7447653Y-192924003D01*
X7817128Y-7942499D02*
X7732218Y-8036482D01*
X73956983Y-249290994D02*
X73941602Y-249337552D01*
X71165420Y-69424141D02*
X71075858Y-69334579D01*
X6596103Y-196303404D02*
X6556014Y-196331637D01*
X70053656Y-7191433D02*
X70029952Y-7182654D01*
X11050018Y-249998796D02*
X11000987Y-250000000D01*
X5095914Y-243571872D02*
X5117960Y-243528074D01*
X67662447Y-129941602D02*
X67616699Y-129923955D01*
X72365241Y-134773237D02*
X72328112Y-134741209D01*
X67485411Y-191357870D02*
X67443985Y-191331637D01*
X72756262Y-196470060D02*
X72709005Y-196456983D01*
X71379810Y-69673872D02*
X71364337Y-69653883D01*
X69739617Y-7092904D02*
X69616236Y-7064273D01*
X71940824Y-245591425D02*
X71963170Y-245466753D01*
X9993680Y-247999839D02*
X10006321Y-247999999D01*
X7461038Y-123597469D02*
X7530738Y-123703226D01*
X71983010Y-183816046D02*
X71985567Y-183790898D01*
X78999999Y-12247D02*
X78999729Y-1245D01*
X67292600Y-125292600D02*
X67328112Y-125258790D01*
X70171326Y-124761563D02*
X70194555Y-124751594D01*
X71751594Y-123194555D02*
X71761563Y-123171326D01*
X8055681Y-7715736D02*
X8036501Y-7732201D01*
X7635678Y-185346136D02*
X7715719Y-185444299D01*
X7447653Y-185075996D02*
X7461024Y-185097448D01*
X67292600Y-248292600D02*
X67328112Y-248258790D01*
X73290994Y-134956983D02*
X73243737Y-134970060D01*
X70826106Y-130620174D02*
X70724015Y-130545207D01*
X67142129Y-186985411D02*
X67168362Y-186943985D01*
X67804104Y-125019195D02*
X67852416Y-125010812D01*
X71940819Y-132408549D02*
X71935731Y-132383788D01*
X6995189Y-195598919D02*
X6989187Y-195647583D01*
X69616236Y-124935726D02*
X69739617Y-124907095D01*
X69885934Y-124865895D02*
X69910052Y-124858328D01*
X8828696Y-63261572D02*
X8946319Y-63308557D01*
X69910052Y-130141671D02*
X69885934Y-130134104D01*
X73956983Y-11290994D02*
X73941602Y-11337552D01*
X67571872Y-63595914D02*
X67616699Y-63576044D01*
X72756262Y-181529939D02*
X72804104Y-181519195D01*
X73147583Y-5010812D02*
X73195895Y-5019195D01*
X5616699Y-243076044D02*
X5662447Y-243058397D01*
X70944299Y-130715719D02*
X70846136Y-130635678D01*
D11*
X-3000000Y-7000000D02*
X82000000Y-7000000D01*
D10*
X11471925Y-129882039D02*
X11428127Y-129904085D01*
X9709101Y-7014432D02*
X9683953Y-7016989D01*
X71995189Y-60664554D02*
X71996469Y-60639308D01*
X73671887Y-249741209D02*
X73634758Y-249773237D01*
X5142129Y-11514588D02*
X5117960Y-11471925D01*
X11596103Y-129803404D02*
X11556014Y-129831637D01*
X9835445Y-247995189D02*
X9860691Y-247996469D01*
X71858320Y-132089923D02*
X71817353Y-131970071D01*
X73998796Y-182449981D02*
X74000000Y-182499012D01*
X6741209Y-120328112D02*
X6773237Y-120365241D01*
X5076044Y-134383300D02*
X5058397Y-134337552D01*
X67076044Y-125616699D02*
X67095914Y-125571872D01*
X71858320Y-193589923D02*
X71817353Y-193470071D01*
X11803404Y-249596103D02*
X11773237Y-249634758D01*
X11471925Y-68382039D02*
X11428127Y-68404085D01*
X6634758Y-58726762D02*
X6671887Y-58758790D01*
X73556014Y-181668362D02*
X73596103Y-181696595D01*
X67901080Y-63504810D02*
X67949981Y-63501203D01*
X73050018Y-181501203D02*
X73098919Y-181504810D01*
X67076044Y-249383300D02*
X67058397Y-249337552D01*
X73923955Y-120616699D02*
X73941602Y-120662447D01*
X7924159Y-62665438D02*
X7942480Y-62682853D01*
X73980804Y-59304104D02*
X73989187Y-59352416D01*
X71967001Y-9558258D02*
X71963174Y-9533271D01*
X67010812Y-248852416D02*
X67019195Y-248804104D01*
X70466823Y-186116613D02*
X70575974Y-186052359D01*
X5117960Y-120528074D02*
X5142129Y-120485411D01*
X8424025Y-247552359D02*
X8533176Y-247616613D01*
X71999999Y-10006321D02*
X71999839Y-9993680D01*
X11831637Y-248443985D02*
X11857870Y-248485411D01*
X5000000Y-243999012D02*
X5001203Y-243949981D01*
X71628893Y-131555300D02*
X71616625Y-131533198D01*
X8805444Y-247751594D02*
X8828673Y-247761563D01*
X11243737Y-249970060D02*
X11195895Y-249980804D01*
X8946343Y-124808566D02*
X8970047Y-124817345D01*
X8296752Y-69030752D02*
X8276004Y-69045193D01*
X5043016Y-249290994D02*
X5029939Y-249243737D01*
X5196595Y-11596103D02*
X5168362Y-11556014D01*
X67095914Y-187071872D02*
X67117960Y-187028074D01*
X73000987Y-243000000D02*
X73050018Y-243001203D01*
X71751584Y-8805421D02*
X71698702Y-8690328D01*
X7732218Y-62463517D02*
X7817128Y-62557500D01*
X69739617Y-130092904D02*
X69616236Y-130064273D01*
X71761572Y-123171303D02*
X71808557Y-123053680D01*
X72043016Y-243709005D02*
X72058397Y-243662447D01*
X5001203Y-134050018D02*
X5000000Y-134000987D01*
X9860716Y-63496470D02*
X9993668Y-63499839D01*
X9683953Y-247983010D02*
X9709101Y-247985567D01*
X6556014Y-181668362D02*
X6596103Y-181696595D01*
X72999012Y-58500000D02*
X73000987Y-58500000D01*
X7301308Y-123309693D02*
X7312440Y-123332388D01*
X6428127Y-73404085D02*
X6383300Y-73423955D01*
X8946319Y-191691442D02*
X8828696Y-191738427D01*
X67001203Y-125949981D02*
X67004810Y-125901080D01*
X73707399Y-196207399D02*
X73671887Y-196241209D01*
X7191433Y-131946343D02*
X7182654Y-131970047D01*
X11383300Y-191423955D02*
X11337552Y-191441602D01*
X69441716Y-191532994D02*
X69316071Y-191516992D01*
X69006331Y-186499839D02*
X69139283Y-186496470D01*
X5485411Y-5142129D02*
X5528074Y-5117960D01*
X11050018Y-68498796D02*
X11000987Y-68500000D01*
X5365241Y-181726762D02*
X5403896Y-181696595D01*
X6904085Y-120571872D02*
X6923955Y-120616699D01*
X7141671Y-193589947D02*
X7134104Y-193614065D01*
X67058397Y-64162447D02*
X67076044Y-64116699D01*
X73989187Y-243852416D02*
X73995189Y-243901080D01*
X73995189Y-59401080D02*
X73998796Y-59449981D01*
X73098919Y-134995189D02*
X73050018Y-134998796D01*
X5804104Y-58519195D02*
X5852416Y-58510812D01*
X78999729Y-254998754D02*
X78999999Y-254987752D01*
X70944318Y-62784263D02*
X70963498Y-62767798D01*
X11671887Y-129741209D02*
X11634758Y-129773237D01*
X74000000Y-59499012D02*
X74000000Y-72500987D01*
X72117960Y-59028074D02*
X72142129Y-58985411D01*
X5196595Y-58903896D02*
X5226762Y-58865241D01*
X73941602Y-195837552D02*
X73923955Y-195883300D01*
X70332388Y-191812440D02*
X70309693Y-191801308D01*
X71996469Y-9860691D02*
X71995189Y-9835445D01*
X70444699Y-186128893D02*
X70466801Y-186116625D01*
X9860716Y-124996470D02*
X9993668Y-124999839D01*
X71698702Y-246309671D02*
X71751584Y-246194578D01*
X5616699Y-73423955D02*
X5571872Y-73404085D01*
X73514588Y-73357870D02*
X73471925Y-73382039D01*
X7715719Y-131055700D02*
X7635678Y-131153863D01*
X73995189Y-120901080D02*
X73998796Y-120949981D01*
X73995189Y-195598919D02*
X73989187Y-195647583D01*
X8424025Y-63052359D02*
X8533176Y-63116613D01*
X6956983Y-243709005D02*
X6970060Y-243756262D01*
X8402530Y-68961038D02*
X8296773Y-69030738D01*
X73471925Y-5117960D02*
X73514588Y-5142129D01*
X7099247Y-70735887D02*
X7092911Y-70760358D01*
X11195895Y-5019195D02*
X11243737Y-5029939D01*
X67616699Y-248076044D02*
X67662447Y-248058397D01*
X9089947Y-247858328D02*
X9114065Y-247865895D01*
X67004810Y-125901080D02*
X67010812Y-125852416D01*
X71628893Y-193055300D02*
X71616625Y-193033198D01*
X67365241Y-125226762D02*
X67403896Y-125196595D01*
X6098919Y-134995189D02*
X6050018Y-134998796D01*
X73050018Y-249998796D02*
X73000987Y-250000000D01*
X11000987Y-250000000D02*
X5999012Y-250000000D01*
X6773237Y-181865241D02*
X6803404Y-181903896D01*
X11904085Y-125571872D02*
X11923955Y-125616699D01*
X5258790Y-5328112D02*
X5292600Y-5292600D01*
X11941602Y-67837552D02*
X11923955Y-67883300D01*
X73980804Y-182304104D02*
X73989187Y-182352416D01*
X5852416Y-134989187D02*
X5804104Y-134980804D01*
X8555300Y-68871106D02*
X8533198Y-68883374D01*
X7620174Y-131173893D02*
X7545207Y-131275984D01*
X7924141Y-69334579D02*
X7834579Y-69424141D01*
X71907095Y-61239617D02*
X71935726Y-61116236D01*
X5168362Y-11556014D02*
X5142129Y-11514588D01*
X71379810Y-8173872D02*
X71364337Y-8153883D01*
X9683928Y-191516992D02*
X9558283Y-191532994D01*
X71996470Y-60639283D02*
X71999839Y-60506331D01*
X6634758Y-73273237D02*
X6596103Y-73303404D01*
X5709005Y-249956983D02*
X5662447Y-249941602D01*
X5616699Y-249923955D02*
X5571872Y-249904085D01*
X7732218Y-123963517D02*
X7817128Y-124057500D01*
X67168362Y-125443985D02*
X67196595Y-125403896D01*
X5076044Y-243616699D02*
X5095914Y-243571872D01*
X69290873Y-7014430D02*
X69164579Y-7004812D01*
X5001203Y-182449981D02*
X5004810Y-182401080D01*
X72142129Y-11514588D02*
X72117960Y-11471925D01*
X71628893Y-70055300D02*
X71616625Y-70033198D01*
X72365241Y-243226762D02*
X72403896Y-243196595D01*
X68993666Y-68500000D02*
X67999012Y-68500000D01*
X5095914Y-5571872D02*
X5117960Y-5528074D01*
X71935726Y-193883763D02*
X71907095Y-193760382D01*
X67019195Y-64304104D02*
X67029939Y-64256262D01*
X11556014Y-68331637D02*
X11514588Y-68357870D01*
X70332411Y-186187548D02*
X70444677Y-186128905D01*
X78987727Y0D02*
X12272Y0D01*
X6050018Y-11998796D02*
X6000987Y-12000000D01*
X9089923Y-68641679D02*
X8970071Y-68682646D01*
X6941602Y-120662447D02*
X6956983Y-120709005D01*
X70826127Y-62879810D02*
X70846116Y-62864337D01*
X7732218Y-246963517D02*
X7817128Y-247057500D01*
X73050018Y-134998796D02*
X73000987Y-135000000D01*
X69591425Y-130059175D02*
X69466753Y-130036829D01*
X67117960Y-187028074D02*
X67142129Y-186985411D01*
X73857870Y-58985411D02*
X73882039Y-59028074D01*
X67196595Y-5403896D02*
X67226762Y-5365241D01*
X7238436Y-184671326D02*
X7248405Y-184694555D01*
X6803404Y-73096103D02*
X6773237Y-73134758D01*
X11707399Y-129707399D02*
X11671887Y-129741209D01*
X69910076Y-63358320D02*
X70029928Y-63317353D01*
X71267798Y-185463498D02*
X71284263Y-185444318D01*
X67756262Y-191470060D02*
X67709005Y-191456983D01*
X67365241Y-68273237D02*
X67328112Y-68241209D01*
X67709005Y-6956983D02*
X67662447Y-6941602D01*
X7383386Y-123466823D02*
X7447640Y-123575974D01*
X5142129Y-249514588D02*
X5117960Y-249471925D01*
X6707399Y-58792600D02*
X6741209Y-58828112D01*
X72756262Y-120029939D02*
X72804104Y-120019195D01*
X11383300Y-125076044D02*
X11428127Y-125095914D01*
X67403896Y-186696595D02*
X67443985Y-186668362D01*
X73831637Y-120443985D02*
X73857870Y-120485411D01*
X5001203Y-72550018D02*
X5000000Y-72500987D01*
X72001203Y-243949981D02*
X72004810Y-243901080D01*
X73000987Y-120000000D02*
X73050018Y-120001203D01*
X7732201Y-8036501D02*
X7715736Y-8055681D01*
X70029952Y-186317345D02*
X70053656Y-186308566D01*
X71698691Y-8690306D02*
X71687559Y-8667611D01*
X70332388Y-130312440D02*
X70309693Y-130301308D01*
X72901080Y-120004810D02*
X72949981Y-120001203D01*
X69466753Y-124963170D02*
X69591425Y-124940824D01*
X70724015Y-62954792D02*
X70826106Y-62879825D01*
X8946319Y-130191442D02*
X8828696Y-130238427D01*
X70332388Y-68812440D02*
X70309693Y-68801308D01*
X7635678Y-123846136D02*
X7715719Y-123944299D01*
X73596103Y-5196595D02*
X73634758Y-5226762D01*
X11741209Y-129671887D02*
X11707399Y-129707399D01*
X71165438Y-124075840D02*
X71182853Y-124057519D01*
X72328112Y-181758790D02*
X72365241Y-181726762D01*
X5328112Y-196241209D02*
X5292600Y-196207399D01*
X11098919Y-129995189D02*
X11050018Y-129998796D01*
X67949981Y-68498796D02*
X67901080Y-68495189D01*
X11831637Y-125443985D02*
X11857870Y-125485411D01*
X73741209Y-249671887D02*
X73707399Y-249707399D01*
X71552346Y-192924003D02*
X71538975Y-192902551D01*
X67949981Y-248001203D02*
X67999012Y-248000000D01*
X6634758Y-11773237D02*
X6596103Y-11803404D01*
X73195895Y-5019195D02*
X73243737Y-5029939D01*
X72258790Y-120328112D02*
X72292600Y-120292600D01*
X73803404Y-73096103D02*
X73773237Y-73134758D01*
X11337552Y-6941602D02*
X11290994Y-6956983D01*
X67528074Y-186617960D02*
X67571872Y-186595914D01*
X6941602Y-243662447D02*
X6956983Y-243709005D01*
X11634758Y-129773237D02*
X11596103Y-129803404D01*
X73050018Y-196498796D02*
X73000987Y-196500000D01*
X70597469Y-63038961D02*
X70703226Y-62969261D01*
X70029952Y-63317345D02*
X70053656Y-63308566D01*
X72029939Y-243756262D02*
X72043016Y-243709005D01*
X7016992Y-245316071D02*
X7032994Y-245441716D01*
X8690306Y-191801308D02*
X8667611Y-191812440D01*
X5443985Y-120168362D02*
X5485411Y-120142129D01*
X6000987Y-243000000D02*
X6050018Y-243001203D01*
X71687559Y-123332388D02*
X71698691Y-123309693D01*
X71057519Y-124182853D02*
X71075840Y-124165438D01*
X70444699Y-124628893D02*
X70466801Y-124616625D01*
X5443985Y-243168362D02*
X5485411Y-243142129D01*
X5852416Y-73489187D02*
X5804104Y-73480804D01*
X5258790Y-120328112D02*
X5292600Y-120292600D01*
X73941602Y-5662447D02*
X73956983Y-5709005D01*
X12000000Y-5999012D02*
X12000000Y-6000987D01*
X7834561Y-192424159D02*
X7817146Y-192442480D01*
X70029928Y-68682646D02*
X69910076Y-68641679D01*
X72756262Y-58529939D02*
X72804104Y-58519195D01*
X72226762Y-58865241D02*
X72258790Y-58828112D01*
X73998796Y-5949981D02*
X74000000Y-5999012D01*
X67004810Y-129098919D02*
X67001203Y-129050018D01*
X8970047Y-68682654D02*
X8946343Y-68691433D01*
X67328112Y-5258790D02*
X67365241Y-5226762D01*
X5010812Y-5852416D02*
X5019195Y-5804104D01*
X8690328Y-186198702D02*
X8805421Y-186251584D01*
X5328112Y-243258790D02*
X5365241Y-243226762D01*
X71616625Y-61966801D02*
X71628893Y-61944699D01*
X72328112Y-73241209D02*
X72292600Y-73207399D01*
X73980804Y-120804104D02*
X73989187Y-120852416D01*
X5029939Y-134243737D02*
X5019195Y-134195895D01*
X7732201Y-192536501D02*
X7715736Y-192555681D01*
X8828696Y-124761572D02*
X8946319Y-124808557D01*
X11707399Y-6707399D02*
X11671887Y-6741209D01*
X11989187Y-125852416D02*
X11995189Y-125901080D01*
X72258790Y-196171887D02*
X72226762Y-196134758D01*
X67662447Y-248058397D02*
X67709005Y-248043016D01*
X11290994Y-125043016D02*
X11337552Y-125058397D01*
X72365241Y-58726762D02*
X72403896Y-58696595D01*
X7032998Y-60941741D02*
X7036825Y-60966728D01*
X6671887Y-73241209D02*
X6634758Y-73273237D01*
X5142129Y-196014588D02*
X5117960Y-195971925D01*
X70597469Y-247538961D02*
X70703226Y-247469261D01*
X6741209Y-196171887D02*
X6707399Y-196207399D01*
X7715736Y-62444318D02*
X7732201Y-62463498D01*
X5443985Y-134831637D02*
X5403896Y-134803404D01*
X73995189Y-72598919D02*
X73989187Y-72647583D01*
X7942480Y-192317146D02*
X7924159Y-192334561D01*
X67001203Y-6050018D02*
X67000000Y-6000987D01*
X12272Y-255000000D02*
X78987727Y-255000000D01*
X11634758Y-248226762D02*
X11671887Y-248258790D01*
X72010812Y-120852416D02*
X72019195Y-120804104D01*
X67001203Y-129050018D02*
X67000000Y-129000987D01*
X9993680Y-186499839D02*
X10006321Y-186499999D01*
X8173893Y-185879825D02*
X8275984Y-185954792D01*
X69739641Y-186407088D02*
X69764112Y-186400752D01*
X73290994Y-73456983D02*
X73243737Y-73470060D01*
X5662447Y-11941602D02*
X5616699Y-11923955D01*
X73383300Y-120076044D02*
X73428127Y-120095914D01*
X11803404Y-5403896D02*
X11831637Y-5443985D01*
X6671887Y-58758790D02*
X6707399Y-58792600D01*
X8533198Y-124616625D02*
X8555300Y-124628893D01*
X11383300Y-68423955D02*
X11337552Y-68441602D01*
X11995189Y-248901080D02*
X11998796Y-248949981D01*
X8690306Y-130301308D02*
X8667611Y-130312440D01*
X70466801Y-130383374D02*
X70444699Y-130371106D01*
X67058397Y-125662447D02*
X67076044Y-125616699D01*
X7383374Y-70033198D02*
X7371106Y-70055300D01*
X73050018Y-73498796D02*
X73000987Y-73500000D01*
X11634758Y-191273237D02*
X11596103Y-191303404D01*
X73383300Y-58576044D02*
X73428127Y-58595914D01*
X7312440Y-131667611D02*
X7301308Y-131690306D01*
X73904085Y-120571872D02*
X73923955Y-120616699D01*
X11556014Y-5168362D02*
X11596103Y-5196595D01*
X73671887Y-181758790D02*
X73707399Y-181792600D01*
X67001203Y-248949981D02*
X67004810Y-248901080D01*
X71983007Y-194183928D02*
X71967005Y-194058283D01*
X67403896Y-191303404D02*
X67365241Y-191273237D01*
X72292600Y-58792600D02*
X72328112Y-58758790D01*
X7715719Y-69555700D02*
X7635678Y-69653863D01*
X67004810Y-248901080D02*
X67010812Y-248852416D01*
X5029939Y-195743737D02*
X5019195Y-195695895D01*
X72443985Y-196331637D02*
X72403896Y-196303404D01*
X7817146Y-247057519D02*
X7834561Y-247075840D01*
X67485411Y-248142129D02*
X67528074Y-248117960D01*
X5485411Y-181642129D02*
X5528074Y-181617960D01*
X73098919Y-5004810D02*
X73147583Y-5010812D01*
X73337552Y-249941602D02*
X73290994Y-249956983D01*
X72004810Y-195598919D02*
X72001203Y-195550018D01*
X5142129Y-73014588D02*
X5117960Y-72971925D01*
X11941602Y-248662447D02*
X11956983Y-248709005D01*
X67443985Y-63668362D02*
X67485411Y-63642129D01*
X9114065Y-191634104D02*
X9089947Y-191641671D01*
X8424025Y-124552359D02*
X8533176Y-124616613D01*
X11337552Y-63558397D02*
X11383300Y-63576044D01*
X12000000Y-125999012D02*
X12000000Y-129000987D01*
X69139283Y-7003529D02*
X69006331Y-7000160D01*
X8296773Y-247469261D02*
X8402530Y-247538961D01*
X72000000Y-121993666D02*
X72000000Y-120999012D01*
X72000000Y-243999012D02*
X72001203Y-243949981D01*
X6980804Y-195695895D02*
X6970060Y-195743737D01*
X71900752Y-245764112D02*
X71907088Y-245739641D01*
X70597448Y-130461024D02*
X70575996Y-130447653D01*
X11882039Y-5528074D02*
X11904085Y-5571872D01*
X11147583Y-68489187D02*
X11098919Y-68495189D01*
X6290994Y-11956983D02*
X6243737Y-11970060D01*
X11980804Y-67695895D02*
X11970060Y-67743737D01*
X71379825Y-62326106D02*
X71454792Y-62224015D01*
X71364337Y-185346116D02*
X71379810Y-185326127D01*
X72804104Y-243019195D02*
X72852416Y-243010812D01*
X71935726Y-9383763D02*
X71907095Y-9260382D01*
X67485411Y-68357870D02*
X67443985Y-68331637D01*
X11831637Y-63943985D02*
X11857870Y-63985411D01*
X11882039Y-6471925D02*
X11857870Y-6514588D01*
X5901080Y-120004810D02*
X5949981Y-120001203D01*
X8805421Y-191748415D02*
X8690328Y-191801297D01*
X5328112Y-120258790D02*
X5365241Y-120226762D01*
X67328112Y-125258790D02*
X67365241Y-125226762D01*
X7134097Y-9114090D02*
X7099253Y-9235862D01*
X72365241Y-73273237D02*
X72328112Y-73241209D01*
X5403896Y-249803404D02*
X5365241Y-249773237D01*
X72365241Y-181726762D02*
X72403896Y-181696595D01*
X73741209Y-196171887D02*
X73707399Y-196207399D01*
X67019195Y-190695895D02*
X67010812Y-190647583D01*
X73000987Y-12000000D02*
X72999012Y-12000000D01*
X6050018Y-181501203D02*
X6098919Y-181504810D01*
X70309671Y-130301297D02*
X70194578Y-130248415D01*
X69885909Y-7134097D02*
X69764137Y-7099253D01*
X71469261Y-185203226D02*
X71538961Y-185097469D01*
X67571872Y-191404085D02*
X67528074Y-191382039D01*
X5999012Y-196500000D02*
X5949981Y-196498796D01*
X72196595Y-73096103D02*
X72168362Y-73056014D01*
X6970060Y-243756262D02*
X6980804Y-243804104D01*
X73941602Y-243662447D02*
X73956983Y-243709005D01*
X6243737Y-196470060D02*
X6195895Y-196480804D01*
X11243737Y-191470060D02*
X11195895Y-191480804D01*
X71808566Y-61553656D02*
X71817345Y-61529952D01*
X11428127Y-5095914D02*
X11471925Y-5117960D01*
X73741209Y-11671887D02*
X73707399Y-11707399D01*
X1245Y-254999729D02*
X12247Y-254999999D01*
X7715736Y-123944318D02*
X7732201Y-123963498D01*
X6998796Y-182449981D02*
X7000000Y-182499012D01*
X74000000Y-5999012D02*
X74000000Y-11000987D01*
X5571872Y-120095914D02*
X5616699Y-120076044D01*
X5058397Y-243662447D02*
X5076044Y-243616699D01*
X67001203Y-187449981D02*
X67004810Y-187401080D01*
X72571872Y-243095914D02*
X72616699Y-243076044D01*
X73831637Y-11556014D02*
X73803404Y-11596103D01*
X73243737Y-73470060D02*
X73195895Y-73480804D01*
X11941602Y-125662447D02*
X11956983Y-125709005D01*
X11596103Y-6803404D02*
X11556014Y-6831637D01*
X67019195Y-248804104D02*
X67029939Y-248756262D01*
X6000987Y-58500000D02*
X6050018Y-58501203D01*
X6941602Y-182162447D02*
X6956983Y-182209005D01*
X11803404Y-125403896D02*
X11831637Y-125443985D01*
X7817128Y-130942499D02*
X7732218Y-131036482D01*
X5528074Y-243117960D02*
X5571872Y-243095914D01*
X73596103Y-243196595D02*
X73634758Y-243226762D01*
X67485411Y-186642129D02*
X67528074Y-186617960D01*
X9408574Y-63440824D02*
X9533246Y-63463170D01*
X71935726Y-70883763D02*
X71907095Y-70760382D01*
X72043016Y-134290994D02*
X72029939Y-134243737D01*
X73514588Y-249857870D02*
X73471925Y-249882039D01*
X9260358Y-7092911D02*
X9235887Y-7099247D01*
X5000000Y-72500987D02*
X5000000Y-59499012D01*
X67000000Y-5999012D02*
X67001203Y-5949981D01*
X67029939Y-129243737D02*
X67019195Y-129195895D01*
X11923955Y-6383300D02*
X11904085Y-6428127D01*
X67999012Y-191500000D02*
X67949981Y-191498796D01*
X5328112Y-5258790D02*
X5365241Y-5226762D01*
X11923955Y-64116699D02*
X11941602Y-64162447D01*
X0Y-12272D02*
X0Y-254987727D01*
X6980804Y-59304104D02*
X6989187Y-59352416D01*
X72226762Y-73134758D02*
X72196595Y-73096103D01*
X67403896Y-248196595D02*
X67443985Y-248168362D01*
X12000000Y-67500987D02*
X11998796Y-67550018D01*
X8555322Y-186128905D02*
X8667588Y-186187548D01*
X72029939Y-59256262D02*
X72043016Y-59209005D01*
X67117960Y-64028074D02*
X67142129Y-63985411D01*
X73000987Y-135000000D02*
X72999012Y-135000000D01*
X8533198Y-247616625D02*
X8555300Y-247628893D01*
X67949981Y-186501203D02*
X67999012Y-186500000D01*
X5999012Y-12000000D02*
X5949981Y-11998796D01*
X10006321Y-7000000D02*
X9993680Y-7000160D01*
X71364337Y-62346116D02*
X71379810Y-62326127D01*
X71284280Y-123944299D02*
X71364321Y-123846136D01*
X72616699Y-134923955D02*
X72571872Y-134904085D01*
X8402530Y-7461038D02*
X8296773Y-7530738D01*
X71751584Y-70305421D02*
X71698702Y-70190328D01*
X5292600Y-249707399D02*
X5258790Y-249671887D01*
X11904085Y-5571872D02*
X11923955Y-5616699D01*
X6998796Y-134050018D02*
X6995189Y-134098919D01*
X7732201Y-131036501D02*
X7715736Y-131055681D01*
X67328112Y-129741209D02*
X67292600Y-129707399D01*
X5365241Y-11773237D02*
X5328112Y-11741209D01*
X67485411Y-129857870D02*
X67443985Y-129831637D01*
X6243737Y-243029939D02*
X6290994Y-243043016D01*
X71940824Y-61091425D02*
X71963170Y-60966753D01*
X70194555Y-130248405D02*
X70171326Y-130238436D01*
X5804104Y-134980804D02*
X5756262Y-134970060D01*
X5852416Y-120010812D02*
X5901080Y-120004810D01*
X71967005Y-122441716D02*
X71983007Y-122316071D01*
X72901080Y-58504810D02*
X72949981Y-58501203D01*
X72095914Y-182071872D02*
X72117960Y-182028074D01*
X72756262Y-243029939D02*
X72804104Y-243019195D01*
X67004810Y-64401080D02*
X67010812Y-64352416D01*
X72616699Y-11923955D02*
X72571872Y-11904085D01*
X67616699Y-6923955D02*
X67571872Y-6904085D01*
X7545193Y-8276004D02*
X7530752Y-8296752D01*
X6596103Y-134803404D02*
X6556014Y-134831637D01*
X71267798Y-246963498D02*
X71284263Y-246944318D01*
X8036482Y-69232218D02*
X7942499Y-69317128D01*
X72000000Y-120999012D02*
X72001203Y-120949981D01*
X72852416Y-73489187D02*
X72804104Y-73480804D01*
X70724015Y-247454792D02*
X70826106Y-247379825D01*
X11941602Y-190837552D02*
X11923955Y-190883300D01*
X71985569Y-60790873D02*
X71995187Y-60664579D01*
X9683928Y-130016992D02*
X9558283Y-130032994D01*
X73050018Y-5001203D02*
X73098919Y-5004810D01*
X72117960Y-195971925D02*
X72095914Y-195928127D01*
X5010812Y-182352416D02*
X5019195Y-182304104D01*
X67403896Y-125196595D02*
X67443985Y-125168362D01*
X70309693Y-186198691D02*
X70332388Y-186187559D01*
X11634758Y-68273237D02*
X11596103Y-68303404D01*
X73904085Y-11428127D02*
X73882039Y-11471925D01*
X71165438Y-247075840D02*
X71182853Y-247057519D01*
X11337552Y-5058397D02*
X11383300Y-5076044D01*
X6000987Y-73500000D02*
X5999012Y-73500000D01*
X9993668Y-7000160D02*
X9860716Y-7003529D01*
X6904085Y-11428127D02*
X6882039Y-11471925D01*
X73383300Y-243076044D02*
X73428127Y-243095914D01*
X11857870Y-129514588D02*
X11831637Y-129556014D01*
X73337552Y-11941602D02*
X73290994Y-11956983D01*
X67010812Y-187352416D02*
X67019195Y-187304104D01*
X6428127Y-134904085D02*
X6383300Y-134923955D01*
X7016992Y-60816071D02*
X7032994Y-60941716D01*
X72058397Y-182162447D02*
X72076044Y-182116699D01*
X7141679Y-184410076D02*
X7182646Y-184529928D01*
X5709005Y-58543016D02*
X5756262Y-58529939D01*
X9709101Y-68514432D02*
X9683953Y-68516989D01*
X9114065Y-68634104D02*
X9089947Y-68641671D01*
X7530752Y-62203247D02*
X7545193Y-62223995D01*
X72901080Y-134995189D02*
X72852416Y-134989187D01*
X73050018Y-243001203D02*
X73098919Y-243004810D01*
X67196595Y-249596103D02*
X67168362Y-249556014D01*
X73000987Y-58500000D02*
X73050018Y-58501203D01*
X70053680Y-186308557D02*
X70171303Y-186261572D01*
X73514588Y-196357870D02*
X73471925Y-196382039D01*
X72328112Y-58758790D02*
X72365241Y-58726762D01*
X67226762Y-125365241D02*
X67258790Y-125328112D01*
X8970071Y-247817353D02*
X9089923Y-247858320D01*
X69591450Y-124940819D02*
X69616211Y-124935731D01*
X5616699Y-11923955D02*
X5571872Y-11904085D01*
X7817146Y-185557519D02*
X7834561Y-185575840D01*
X8153863Y-130635678D02*
X8055700Y-130715719D01*
X9383763Y-130064273D02*
X9260382Y-130092904D01*
X71628905Y-246444677D02*
X71687548Y-246332411D01*
X6882039Y-59028074D02*
X6904085Y-59071872D01*
X10006321Y-191500000D02*
X9993680Y-191500160D01*
X5001203Y-5949981D02*
X5004810Y-5901080D01*
X71999839Y-9993668D02*
X71996470Y-9860716D01*
X70575996Y-63052346D02*
X70597448Y-63038975D01*
X8036482Y-7732218D02*
X7942499Y-7817128D01*
X11998796Y-67550018D02*
X11995189Y-67598919D01*
X7014430Y-9709126D02*
X7004812Y-9835420D01*
X5571872Y-181595914D02*
X5616699Y-181576044D01*
X72901080Y-196495189D02*
X72852416Y-196489187D01*
X11904085Y-249428127D02*
X11882039Y-249471925D01*
X71628905Y-184944677D02*
X71687548Y-184832411D01*
X11741209Y-68171887D02*
X11707399Y-68207399D01*
X67616699Y-129923955D02*
X67571872Y-129904085D01*
X7016989Y-9683953D02*
X7014432Y-9709101D01*
X67010812Y-6147583D02*
X67004810Y-6098919D01*
X6882039Y-120528074D02*
X6904085Y-120571872D01*
X71379810Y-192673872D02*
X71364337Y-192653883D01*
X11671887Y-186758790D02*
X11707399Y-186792600D01*
X73941602Y-249337552D02*
X73923955Y-249383300D01*
X11904085Y-187071872D02*
X11923955Y-187116699D01*
X11970060Y-125756262D02*
X11980804Y-125804104D01*
X8946343Y-186308566D02*
X8970047Y-186317345D01*
X69290873Y-68514430D02*
X69164579Y-68504812D01*
X72019195Y-195695895D02*
X72010812Y-195647583D01*
X5029939Y-5756262D02*
X5043016Y-5709005D01*
X7383386Y-246466823D02*
X7447640Y-246575974D01*
X7000000Y-194506333D02*
X7000000Y-195500987D01*
X67485411Y-6857870D02*
X67443985Y-6831637D01*
X70723995Y-130545193D02*
X70703247Y-130530752D01*
X11998796Y-6050018D02*
X11995189Y-6098919D01*
X67443985Y-5168362D02*
X67485411Y-5142129D01*
X5528074Y-73382039D02*
X5485411Y-73357870D01*
X71165438Y-185575840D02*
X71182853Y-185557519D01*
X6707399Y-120292600D02*
X6741209Y-120328112D01*
X67043016Y-249290994D02*
X67029939Y-249243737D01*
X6290994Y-73456983D02*
X6243737Y-73470060D01*
X70703247Y-247469247D02*
X70723995Y-247454806D01*
X72709005Y-11956983D02*
X72662447Y-11941602D01*
X6707399Y-11707399D02*
X6671887Y-11741209D01*
X72571872Y-11904085D02*
X72528074Y-11882039D01*
X7545193Y-69776004D02*
X7530752Y-69796752D01*
X11989187Y-190647583D02*
X11980804Y-190695895D01*
X71165438Y-62575840D02*
X71182853Y-62557519D01*
X71364337Y-246846116D02*
X71379810Y-246826127D01*
X71454806Y-62223995D02*
X71469247Y-62203247D01*
X73904085Y-182071872D02*
X73923955Y-182116699D01*
X73383300Y-196423955D02*
X73337552Y-196441602D01*
X5662447Y-249941602D02*
X5616699Y-249923955D01*
X67616699Y-68423955D02*
X67571872Y-68404085D01*
X72019195Y-120804104D02*
X72029939Y-120756262D01*
X6941602Y-59162447D02*
X6956983Y-59209005D01*
X71057519Y-247182853D02*
X71075840Y-247165438D01*
X71538961Y-192902530D02*
X71469261Y-192796773D01*
X72852416Y-134989187D02*
X72804104Y-134980804D01*
X67292600Y-129707399D02*
X67258790Y-129671887D01*
X5949981Y-120001203D02*
X5999012Y-120000000D01*
X70944318Y-185784263D02*
X70963498Y-185767798D01*
X67168362Y-249556014D02*
X67142129Y-249514588D01*
X6970060Y-59256262D02*
X6980804Y-59304104D01*
X67258790Y-191171887D02*
X67226762Y-191134758D01*
X11514588Y-125142129D02*
X11556014Y-125168362D01*
X9114065Y-7134104D02*
X9089947Y-7141671D01*
X69316071Y-63483007D02*
X69441716Y-63467005D01*
X5804104Y-11980804D02*
X5756262Y-11970060D01*
X7447653Y-246575996D02*
X7461024Y-246597448D01*
X7191442Y-123053680D02*
X7238427Y-123171303D01*
X7942499Y-124182871D02*
X8036482Y-124267781D01*
X5852416Y-58510812D02*
X5901080Y-58504810D01*
X7191442Y-61553680D02*
X7238427Y-61671303D01*
X69910052Y-7141671D02*
X69885934Y-7134104D01*
X72226762Y-134634758D02*
X72196595Y-134596103D01*
X5076044Y-72883300D02*
X5058397Y-72837552D01*
X67004810Y-67598919D02*
X67001203Y-67550018D01*
X73904085Y-195928127D02*
X73882039Y-195971925D01*
X7000000Y-183493678D02*
X7000160Y-183506319D01*
X67485411Y-249857870D02*
X67443985Y-249831637D01*
X69885934Y-186365895D02*
X69910052Y-186358328D01*
X5076044Y-120616699D02*
X5095914Y-120571872D01*
X70466801Y-191883374D02*
X70444699Y-191871106D01*
X11290994Y-129956983D02*
X11243737Y-129970060D01*
X5000000Y-120999012D02*
X5001203Y-120949981D01*
X8275984Y-130545207D02*
X8173893Y-130620174D01*
X72226762Y-181865241D02*
X72258790Y-181828112D01*
X7715719Y-192555700D02*
X7635678Y-192653863D01*
X11970060Y-5756262D02*
X11980804Y-5804104D01*
X67709005Y-191456983D02*
X67662447Y-191441602D01*
D11*
X-3000000Y-130000000D02*
X82000000Y-130000000D01*
D10*
X72571872Y-196404085D02*
X72528074Y-196382039D01*
X72443985Y-73331637D02*
X72403896Y-73303404D01*
X67019195Y-125804104D02*
X67029939Y-125756262D01*
X6857870Y-73014588D02*
X6831637Y-73056014D01*
X67365241Y-6773237D02*
X67328112Y-6741209D01*
X8275984Y-7545207D02*
X8173893Y-7620174D01*
X12000000Y-249000987D02*
X11998796Y-249050018D01*
X5010812Y-249147583D02*
X5004810Y-249098919D01*
X7371106Y-61944699D02*
X7383374Y-61966801D01*
X67258790Y-5328112D02*
X67292600Y-5292600D01*
X9235887Y-247900752D02*
X9260358Y-247907088D01*
X7064268Y-193883788D02*
X7059180Y-193908549D01*
X7014432Y-245290898D02*
X7016989Y-245316046D01*
X8153883Y-62864337D02*
X8173872Y-62879810D01*
X11995189Y-190598919D02*
X11989187Y-190647583D01*
X5117960Y-195971925D02*
X5095914Y-195928127D01*
X7620174Y-192673893D02*
X7545207Y-192775984D01*
X7014432Y-183790898D02*
X7016989Y-183816046D01*
X67029939Y-187256262D02*
X67043016Y-187209005D01*
X67403896Y-249803404D02*
X67365241Y-249773237D01*
X73941602Y-182162447D02*
X73956983Y-182209005D01*
X9558283Y-186467005D02*
X9683928Y-186483007D01*
X70575996Y-247552346D02*
X70597448Y-247538975D01*
X7620189Y-62326127D02*
X7635662Y-62346116D01*
X9835420Y-68504812D02*
X9709126Y-68514430D01*
X5616699Y-196423955D02*
X5571872Y-196404085D01*
X72226762Y-196134758D02*
X72196595Y-196096103D01*
X11956983Y-5709005D02*
X11970060Y-5756262D01*
X6337552Y-134941602D02*
X6290994Y-134956983D01*
X67000000Y-190500987D02*
X67000000Y-187499012D01*
X67029939Y-6243737D02*
X67019195Y-6195895D01*
X72142129Y-243485411D02*
X72168362Y-243443985D01*
X5019195Y-5804104D02*
X5029939Y-5756262D01*
X70963517Y-124267781D02*
X71057500Y-124182871D01*
X67528074Y-68382039D02*
X67485411Y-68357870D01*
X11904085Y-248571872D02*
X11923955Y-248616699D01*
X68993666Y-130000000D02*
X67999012Y-130000000D01*
X71967001Y-132558258D02*
X71963174Y-132533271D01*
X9683928Y-7016992D02*
X9558283Y-7032994D01*
X5196595Y-181903896D02*
X5226762Y-181865241D01*
X67443985Y-186668362D02*
X67485411Y-186642129D01*
X73923955Y-249383300D02*
X73904085Y-249428127D01*
X11000987Y-125000000D02*
X11050018Y-125001203D01*
X7530738Y-69796773D02*
X7461038Y-69902530D01*
X67852416Y-129989187D02*
X67804104Y-129980804D01*
X72999012Y-12000000D02*
X72949981Y-11998796D01*
X11882039Y-64028074D02*
X11904085Y-64071872D01*
X9533246Y-7036829D02*
X9408574Y-7059175D01*
X6923955Y-59116699D02*
X6941602Y-59162447D01*
X6773237Y-11634758D02*
X6741209Y-11671887D01*
X7620189Y-246826127D02*
X7635662Y-246846116D01*
X5365241Y-5226762D02*
X5403896Y-5196595D01*
X6904085Y-243571872D02*
X6923955Y-243616699D01*
X73596103Y-11803404D02*
X73556014Y-11831637D01*
X11773237Y-248365241D02*
X11803404Y-248403896D01*
X5168362Y-120443985D02*
X5196595Y-120403896D01*
X70194555Y-191748405D02*
X70171326Y-191738436D01*
X71379825Y-123826106D02*
X71454792Y-123724015D01*
X6428127Y-243095914D02*
X6471925Y-243117960D01*
X67528074Y-125117960D02*
X67571872Y-125095914D01*
X67168362Y-186943985D02*
X67196595Y-186903896D01*
X67000000Y-67500987D02*
X67000000Y-64499012D01*
X6050018Y-196498796D02*
X6000987Y-196500000D01*
X72571872Y-181595914D02*
X72616699Y-181576044D01*
X71967001Y-194058258D02*
X71963174Y-194033271D01*
X71454806Y-185223995D02*
X71469247Y-185203247D01*
X73337552Y-58558397D02*
X73383300Y-58576044D01*
X72852416Y-58510812D02*
X72901080Y-58504810D01*
X7834561Y-69424159D02*
X7817146Y-69442480D01*
X73831637Y-181943985D02*
X73857870Y-181985411D01*
X74000000Y-195500987D02*
X73998796Y-195550018D01*
X5058397Y-182162447D02*
X5076044Y-182116699D01*
X72117960Y-243528074D02*
X72142129Y-243485411D01*
X73428127Y-196404085D02*
X73383300Y-196423955D01*
X72019195Y-243804104D02*
X72029939Y-243756262D01*
X7003530Y-183639308D02*
X7004810Y-183664554D01*
X7059175Y-132408574D02*
X7036829Y-132533246D01*
X11803404Y-63903896D02*
X11831637Y-63943985D01*
X5804104Y-181519195D02*
X5852416Y-181510812D01*
X6556014Y-134831637D02*
X6514588Y-134857870D01*
X6989187Y-59352416D02*
X6995189Y-59401080D01*
X70597448Y-7461024D02*
X70575996Y-7447653D01*
X8036501Y-62767798D02*
X8055681Y-62784263D01*
X7134104Y-184385934D02*
X7141671Y-184410052D01*
X6195895Y-120019195D02*
X6243737Y-120029939D01*
X71996469Y-132860691D02*
X71995189Y-132835445D01*
X71552359Y-246575974D02*
X71616613Y-246466823D01*
X11773237Y-125365241D02*
X11803404Y-125403896D01*
X71963170Y-71033246D02*
X71940824Y-70908574D01*
X11147583Y-125010812D02*
X11195895Y-125019195D01*
X8555322Y-124628905D02*
X8667588Y-124687548D01*
X5043016Y-72790994D02*
X5029939Y-72743737D01*
X6290994Y-181543016D02*
X6337552Y-181558397D01*
X5662447Y-5058397D02*
X5709005Y-5043016D01*
X7635662Y-69653883D02*
X7620189Y-69673872D01*
X12000000Y-190500987D02*
X11998796Y-190550018D01*
X67949981Y-129998796D02*
X67901080Y-129995189D01*
X6831637Y-73056014D02*
X6803404Y-73096103D01*
X71967005Y-183941716D02*
X71983007Y-183816071D01*
X8055700Y-124284280D02*
X8153863Y-124364321D01*
X67852416Y-249989187D02*
X67804104Y-249980804D01*
X69290898Y-247985567D02*
X69316046Y-247983010D01*
X72196595Y-181903896D02*
X72226762Y-181865241D01*
X7064273Y-122616236D02*
X7092904Y-122739617D01*
X5226762Y-243365241D02*
X5258790Y-243328112D01*
X5528074Y-134882039D02*
X5485411Y-134857870D01*
X11290994Y-186543016D02*
X11337552Y-186558397D01*
X5709005Y-11956983D02*
X5662447Y-11941602D01*
X73634758Y-243226762D02*
X73671887Y-243258790D01*
X67000000Y-129000987D02*
X67000000Y-125999012D01*
X11707399Y-191207399D02*
X11671887Y-191241209D01*
X7000000Y-60493678D02*
X7000160Y-60506319D01*
X7182646Y-193470071D02*
X7141679Y-193589923D01*
X5662447Y-134941602D02*
X5616699Y-134923955D01*
X73383300Y-5076044D02*
X73428127Y-5095914D01*
X71552359Y-123575974D02*
X71616613Y-123466823D01*
X11428127Y-248095914D02*
X11471925Y-248117960D01*
X9860691Y-68503530D02*
X9835445Y-68504810D01*
X5000000Y-5999012D02*
X5001203Y-5949981D01*
X71817353Y-61529928D02*
X71858320Y-61410076D01*
X73989187Y-59352416D02*
X73995189Y-59401080D01*
X6707399Y-243292600D02*
X6741209Y-243328112D01*
X67852416Y-6989187D02*
X67804104Y-6980804D01*
X7545207Y-123724015D02*
X7620174Y-123826106D01*
X11803404Y-68096103D02*
X11773237Y-68134758D01*
X73857870Y-73014588D02*
X73831637Y-73056014D01*
X73556014Y-243168362D02*
X73596103Y-243196595D01*
X6923955Y-182116699D02*
X6941602Y-182162447D01*
X8055700Y-185784280D02*
X8153863Y-185864321D01*
X69591450Y-186440819D02*
X69616211Y-186435731D01*
X11556014Y-249831637D02*
X11514588Y-249857870D01*
X5117960Y-249471925D02*
X5095914Y-249428127D01*
X70171303Y-68738427D02*
X70053680Y-68691442D01*
X71858328Y-61410052D02*
X71865895Y-61385934D01*
X71935726Y-132383763D02*
X71907095Y-132260382D01*
X11000987Y-186500000D02*
X11050018Y-186501203D01*
X71817353Y-123029928D02*
X71858320Y-122910076D01*
X67010812Y-190647583D02*
X67004810Y-190598919D01*
X5004810Y-72598919D02*
X5001203Y-72550018D01*
X7099253Y-245764137D02*
X7134097Y-245885909D01*
X7191442Y-184553680D02*
X7238427Y-184671303D01*
X7924159Y-124165438D02*
X7942480Y-124182853D01*
X5000000Y-195500987D02*
X5000000Y-182499012D01*
X11000987Y-130000000D02*
X10006333Y-130000000D01*
X5999012Y-58500000D02*
X6000987Y-58500000D01*
X5019195Y-59304104D02*
X5029939Y-59256262D01*
X5029939Y-11243737D02*
X5019195Y-11195895D01*
X7545207Y-246724015D02*
X7620174Y-246826106D01*
X71379825Y-185326106D02*
X71454792Y-185224015D01*
X72365241Y-196273237D02*
X72328112Y-196241209D01*
X73428127Y-243095914D02*
X73471925Y-243117960D01*
X5403896Y-11803404D02*
X5365241Y-11773237D01*
X72999012Y-135000000D02*
X72949981Y-134998796D01*
X71454806Y-123723995D02*
X71469247Y-123703247D01*
X67999012Y-186500000D02*
X68993666Y-186500000D01*
X73337552Y-243058397D02*
X73383300Y-243076044D01*
X67709005Y-129956983D02*
X67662447Y-129941602D01*
X8055681Y-69215736D02*
X8036501Y-69232201D01*
X67443985Y-125168362D02*
X67485411Y-125142129D01*
X67804104Y-186519195D02*
X67852416Y-186510812D01*
X7942480Y-69317146D02*
X7924159Y-69334561D01*
X7530752Y-246703247D02*
X7545193Y-246723995D01*
X72709005Y-73456983D02*
X72662447Y-73441602D01*
X70309693Y-63198691D02*
X70332388Y-63187559D01*
X73428127Y-120095914D02*
X73471925Y-120117960D01*
X9089947Y-124858328D02*
X9114065Y-124865895D01*
X8970071Y-186317353D02*
X9089923Y-186358320D01*
X73634758Y-134773237D02*
X73596103Y-134803404D01*
X7000000Y-59499012D02*
X7000000Y-60493666D01*
X6831637Y-134556014D02*
X6803404Y-134596103D01*
X67443985Y-249831637D02*
X67403896Y-249803404D01*
X72029939Y-120756262D02*
X72043016Y-120709005D01*
X72000000Y-195500987D02*
X72000000Y-194506333D01*
X10006321Y-130000000D02*
X9993680Y-130000160D01*
X72403896Y-181696595D02*
X72443985Y-181668362D01*
X74000000Y-72500987D02*
X73998796Y-72550018D01*
X72001203Y-59449981D02*
X72004810Y-59401080D01*
X11980804Y-248804104D02*
X11989187Y-248852416D01*
X67226762Y-191134758D02*
X67196595Y-191096103D01*
X7003530Y-60639308D02*
X7004810Y-60664554D01*
X7092904Y-132260382D02*
X7064273Y-132383763D01*
X67043016Y-6290994D02*
X67029939Y-6243737D01*
X8667611Y-247687559D02*
X8690306Y-247698691D01*
X6147583Y-243010812D02*
X6195895Y-243019195D01*
X6773237Y-243365241D02*
X6803404Y-243403896D01*
X69316071Y-247983007D02*
X69441716Y-247967005D01*
X6857870Y-58985411D02*
X6882039Y-59028074D01*
X6596103Y-120196595D02*
X6634758Y-120226762D01*
X11741209Y-5328112D02*
X11773237Y-5365241D01*
X69764137Y-247900746D02*
X69885909Y-247865902D01*
X67804104Y-249980804D02*
X67756262Y-249970060D01*
X69290873Y-191514430D02*
X69164579Y-191504812D01*
X69910052Y-68641671D02*
X69885934Y-68634104D01*
X67019195Y-187304104D02*
X67029939Y-187256262D01*
X73471925Y-58617960D02*
X73514588Y-58642129D01*
X73882039Y-243528074D02*
X73904085Y-243571872D01*
X6995189Y-11098919D02*
X6989187Y-11147583D01*
X67662447Y-6941602D02*
X67616699Y-6923955D01*
X8036501Y-247267798D02*
X8055681Y-247284263D01*
X73596103Y-249803404D02*
X73556014Y-249831637D01*
X67756262Y-63529939D02*
X67804104Y-63519195D01*
X73098919Y-249995189D02*
X73050018Y-249998796D01*
X5019195Y-134195895D02*
X5010812Y-134147583D01*
X5365241Y-249773237D02*
X5328112Y-249741209D01*
X5292600Y-134707399D02*
X5258790Y-134671887D01*
X67196595Y-186903896D02*
X67226762Y-186865241D01*
X73989187Y-5852416D02*
X73995189Y-5901080D01*
X72852416Y-120010812D02*
X72901080Y-120004810D01*
X70846116Y-130635662D02*
X70826127Y-130620189D01*
X9835445Y-124995189D02*
X9860691Y-124996469D01*
X67095914Y-125571872D02*
X67117960Y-125528074D01*
X5000000Y-134000987D02*
X5000000Y-120999012D01*
X7635662Y-131153883D02*
X7620189Y-131173872D01*
X11956983Y-6290994D02*
X11941602Y-6337552D01*
X67571872Y-186595914D02*
X67616699Y-186576044D01*
X71057519Y-185682853D02*
X71075840Y-185665438D01*
X6556014Y-11831637D02*
X6514588Y-11857870D01*
X7248415Y-123194578D02*
X7301297Y-123309671D01*
X68993678Y-186499999D02*
X69006319Y-186499839D01*
X69441716Y-7032994D02*
X69316071Y-7016992D01*
X11941602Y-129337552D02*
X11923955Y-129383300D01*
X73803404Y-58903896D02*
X73831637Y-58943985D01*
X67328112Y-6741209D02*
X67292600Y-6707399D01*
X70826106Y-192120174D02*
X70724015Y-192045207D01*
X70597448Y-68961024D02*
X70575996Y-68947653D01*
X6956983Y-195790994D02*
X6941602Y-195837552D01*
X70171326Y-247761563D02*
X70194555Y-247751594D01*
X6998796Y-243949981D02*
X7000000Y-243999012D01*
X8173872Y-69120189D02*
X8153883Y-69135662D01*
X7134097Y-70614090D02*
X7099253Y-70735862D01*
X7383374Y-193033198D02*
X7371106Y-193055300D01*
X72756262Y-73470060D02*
X72709005Y-73456983D01*
X5226762Y-11634758D02*
X5196595Y-11596103D01*
X11243737Y-5029939D02*
X11290994Y-5043016D01*
X7447653Y-62075996D02*
X7461024Y-62097448D01*
X70171303Y-130238427D02*
X70053680Y-130191442D01*
X11471925Y-125117960D02*
X11514588Y-125142129D01*
X10006333Y-125000000D02*
X11000987Y-125000000D01*
X7447653Y-123575996D02*
X7461024Y-123597448D01*
X11998796Y-248949981D02*
X12000000Y-248999012D01*
X70846136Y-124364321D02*
X70944299Y-124284280D01*
X11596103Y-5196595D02*
X11634758Y-5226762D01*
X72001203Y-72550018D02*
X72000000Y-72500987D01*
X6707399Y-73207399D02*
X6671887Y-73241209D01*
X7620174Y-69673893D02*
X7545207Y-69775984D01*
X70846116Y-7635662D02*
X70826127Y-7620189D01*
X9408574Y-124940824D02*
X9533246Y-124963170D01*
X11989187Y-64352416D02*
X11995189Y-64401080D01*
X7036825Y-194033271D02*
X7032998Y-194058258D01*
X73998796Y-59449981D02*
X74000000Y-59499012D01*
X6596103Y-181696595D02*
X6634758Y-181726762D01*
X9114090Y-186365902D02*
X9235862Y-186400746D01*
X5058397Y-120662447D02*
X5076044Y-120616699D01*
X70171326Y-186261563D02*
X70194555Y-186251594D01*
X73428127Y-73404085D02*
X73383300Y-73423955D01*
X7383374Y-131533198D02*
X7371106Y-131555300D01*
X67756262Y-68470060D02*
X67709005Y-68456983D01*
X67004810Y-187401080D02*
X67010812Y-187352416D01*
X5528074Y-5117960D02*
X5571872Y-5095914D01*
X7371094Y-8555322D02*
X7312451Y-8667588D01*
X5142129Y-120485411D02*
X5168362Y-120443985D01*
X72001203Y-120949981D02*
X72004810Y-120901080D01*
X5058397Y-134337552D02*
X5043016Y-134290994D01*
X72999012Y-73500000D02*
X72949981Y-73498796D01*
X73904085Y-59071872D02*
X73923955Y-59116699D01*
X72095914Y-11428127D02*
X72076044Y-11383300D01*
X73596103Y-196303404D02*
X73556014Y-196331637D01*
X5949981Y-181501203D02*
X5999012Y-181500000D01*
X73195895Y-11980804D02*
X73147583Y-11989187D01*
X7530752Y-185203247D02*
X7545193Y-185223995D01*
X5258790Y-243328112D02*
X5292600Y-243292600D01*
X71552359Y-185075974D02*
X71616613Y-184966823D01*
X8946319Y-68691442D02*
X8828696Y-68738427D01*
X6634758Y-243226762D02*
X6671887Y-243258790D01*
X67258790Y-249671887D02*
X67226762Y-249634758D01*
X7312451Y-123332411D02*
X7371094Y-123444677D01*
X69616236Y-63435726D02*
X69739617Y-63407095D01*
X67571872Y-249904085D02*
X67528074Y-249882039D01*
X72443985Y-11831637D02*
X72403896Y-11803404D01*
X69885909Y-68634097D02*
X69764137Y-68599253D01*
X5010812Y-243852416D02*
X5019195Y-243804104D01*
X5292600Y-120292600D02*
X5328112Y-120258790D01*
X6634758Y-196273237D02*
X6596103Y-196303404D01*
X71817345Y-193470047D02*
X71808566Y-193446343D01*
X67043016Y-248709005D02*
X67058397Y-248662447D01*
X5226762Y-181865241D02*
X5258790Y-181828112D01*
X6098919Y-243004810D02*
X6147583Y-243010812D01*
X9683953Y-186483010D02*
X9709101Y-186485567D01*
X73707399Y-243292600D02*
X73741209Y-243328112D01*
X6471925Y-73382039D02*
X6428127Y-73404085D01*
X11970060Y-190743737D02*
X11956983Y-190790994D01*
X5616699Y-134923955D02*
X5571872Y-134904085D01*
X71616613Y-131533176D02*
X71552359Y-131424025D01*
X7817146Y-124057519D02*
X7834561Y-124075840D01*
X69591425Y-7059175D02*
X69466753Y-7036829D01*
X71469261Y-123703226D02*
X71538961Y-123597469D01*
X72010812Y-134147583D02*
X72004810Y-134098919D01*
X71967005Y-245441716D02*
X71983007Y-245316071D01*
X5485411Y-120142129D02*
X5528074Y-120117960D01*
X5043016Y-59209005D02*
X5058397Y-59162447D01*
X72168362Y-243443985D02*
X72196595Y-243403896D01*
X11243737Y-186529939D02*
X11290994Y-186543016D01*
X70444677Y-68871094D02*
X70332411Y-68812451D01*
X5043016Y-195790994D02*
X5029939Y-195743737D01*
X73882039Y-72971925D02*
X73857870Y-73014588D01*
X6596103Y-58696595D02*
X6634758Y-58726762D01*
X73773237Y-120365241D02*
X73803404Y-120403896D01*
X73803404Y-5403896D02*
X73831637Y-5443985D01*
X73243737Y-181529939D02*
X73290994Y-181543016D01*
X8173893Y-247379825D02*
X8275984Y-247454792D01*
X71985567Y-132709101D02*
X71983010Y-132683953D01*
X11337552Y-186558397D02*
X11383300Y-186576044D01*
D12*
X70909638Y6387845D02*
X72909638Y7054511D01*
X72909638Y7054511D02*
X70909638Y7721178D01*
X72147733Y8387845D02*
X72147733Y9911654D01*
X72719161Y12006892D02*
X72814400Y11911654D01*
X72814400Y11911654D02*
X72909638Y11625940D01*
X72909638Y11625940D02*
X72909638Y11435464D01*
X72909638Y11435464D02*
X72814400Y11149749D01*
X72814400Y11149749D02*
X72623923Y10959273D01*
X72623923Y10959273D02*
X72433447Y10864035D01*
X72433447Y10864035D02*
X72052495Y10768797D01*
X72052495Y10768797D02*
X71766780Y10768797D01*
X71766780Y10768797D02*
X71385828Y10864035D01*
X71385828Y10864035D02*
X71195352Y10959273D01*
X71195352Y10959273D02*
X71004876Y11149749D01*
X71004876Y11149749D02*
X70909638Y11435464D01*
X70909638Y11435464D02*
X70909638Y11625940D01*
X70909638Y11625940D02*
X71004876Y11911654D01*
X71004876Y11911654D02*
X71100114Y12006892D01*
X70909638Y12864035D02*
X72528685Y12864035D01*
X72528685Y12864035D02*
X72719161Y12959273D01*
X72719161Y12959273D02*
X72814400Y13054511D01*
X72814400Y13054511D02*
X72909638Y13244987D01*
X72909638Y13244987D02*
X72909638Y13625940D01*
X72909638Y13625940D02*
X72814400Y13816416D01*
X72814400Y13816416D02*
X72719161Y13911654D01*
X72719161Y13911654D02*
X72528685Y14006892D01*
X72528685Y14006892D02*
X70909638Y14006892D01*
X70909638Y14673559D02*
X70909638Y15816416D01*
X72909638Y15244987D02*
X70909638Y15244987D01*
X85387844Y-246909638D02*
X86054510Y-248909638D01*
X86054510Y-248909638D02*
X86721177Y-246909638D01*
X87387844Y-248147733D02*
X88911654Y-248147733D01*
X91006891Y-248719161D02*
X90911653Y-248814400D01*
X90911653Y-248814400D02*
X90625939Y-248909638D01*
X90625939Y-248909638D02*
X90435463Y-248909638D01*
X90435463Y-248909638D02*
X90149748Y-248814400D01*
X90149748Y-248814400D02*
X89959272Y-248623923D01*
X89959272Y-248623923D02*
X89864034Y-248433447D01*
X89864034Y-248433447D02*
X89768796Y-248052495D01*
X89768796Y-248052495D02*
X89768796Y-247766780D01*
X89768796Y-247766780D02*
X89864034Y-247385828D01*
X89864034Y-247385828D02*
X89959272Y-247195352D01*
X89959272Y-247195352D02*
X90149748Y-247004876D01*
X90149748Y-247004876D02*
X90435463Y-246909638D01*
X90435463Y-246909638D02*
X90625939Y-246909638D01*
X90625939Y-246909638D02*
X90911653Y-247004876D01*
X90911653Y-247004876D02*
X91006891Y-247100114D01*
X91864034Y-246909638D02*
X91864034Y-248528685D01*
X91864034Y-248528685D02*
X91959272Y-248719161D01*
X91959272Y-248719161D02*
X92054510Y-248814400D01*
X92054510Y-248814400D02*
X92244986Y-248909638D01*
X92244986Y-248909638D02*
X92625939Y-248909638D01*
X92625939Y-248909638D02*
X92816415Y-248814400D01*
X92816415Y-248814400D02*
X92911653Y-248719161D01*
X92911653Y-248719161D02*
X93006891Y-248528685D01*
X93006891Y-248528685D02*
X93006891Y-246909638D01*
X93673558Y-246909638D02*
X94816415Y-246909638D01*
X94244986Y-248909638D02*
X94244986Y-246909638D01*
X85387844Y-185409638D02*
X86054510Y-187409638D01*
X86054510Y-187409638D02*
X86721177Y-185409638D01*
X87387844Y-186647733D02*
X88911654Y-186647733D01*
X91006891Y-187219161D02*
X90911653Y-187314400D01*
X90911653Y-187314400D02*
X90625939Y-187409638D01*
X90625939Y-187409638D02*
X90435463Y-187409638D01*
X90435463Y-187409638D02*
X90149748Y-187314400D01*
X90149748Y-187314400D02*
X89959272Y-187123923D01*
X89959272Y-187123923D02*
X89864034Y-186933447D01*
X89864034Y-186933447D02*
X89768796Y-186552495D01*
X89768796Y-186552495D02*
X89768796Y-186266780D01*
X89768796Y-186266780D02*
X89864034Y-185885828D01*
X89864034Y-185885828D02*
X89959272Y-185695352D01*
X89959272Y-185695352D02*
X90149748Y-185504876D01*
X90149748Y-185504876D02*
X90435463Y-185409638D01*
X90435463Y-185409638D02*
X90625939Y-185409638D01*
X90625939Y-185409638D02*
X90911653Y-185504876D01*
X90911653Y-185504876D02*
X91006891Y-185600114D01*
X91864034Y-185409638D02*
X91864034Y-187028685D01*
X91864034Y-187028685D02*
X91959272Y-187219161D01*
X91959272Y-187219161D02*
X92054510Y-187314400D01*
X92054510Y-187314400D02*
X92244986Y-187409638D01*
X92244986Y-187409638D02*
X92625939Y-187409638D01*
X92625939Y-187409638D02*
X92816415Y-187314400D01*
X92816415Y-187314400D02*
X92911653Y-187219161D01*
X92911653Y-187219161D02*
X93006891Y-187028685D01*
X93006891Y-187028685D02*
X93006891Y-185409638D01*
X93673558Y-185409638D02*
X94816415Y-185409638D01*
X94244986Y-187409638D02*
X94244986Y-185409638D01*
X85387844Y-67409638D02*
X86054510Y-69409638D01*
X86054510Y-69409638D02*
X86721177Y-67409638D01*
X87387844Y-68647733D02*
X88911654Y-68647733D01*
X91006891Y-69219161D02*
X90911653Y-69314400D01*
X90911653Y-69314400D02*
X90625939Y-69409638D01*
X90625939Y-69409638D02*
X90435463Y-69409638D01*
X90435463Y-69409638D02*
X90149748Y-69314400D01*
X90149748Y-69314400D02*
X89959272Y-69123923D01*
X89959272Y-69123923D02*
X89864034Y-68933447D01*
X89864034Y-68933447D02*
X89768796Y-68552495D01*
X89768796Y-68552495D02*
X89768796Y-68266780D01*
X89768796Y-68266780D02*
X89864034Y-67885828D01*
X89864034Y-67885828D02*
X89959272Y-67695352D01*
X89959272Y-67695352D02*
X90149748Y-67504876D01*
X90149748Y-67504876D02*
X90435463Y-67409638D01*
X90435463Y-67409638D02*
X90625939Y-67409638D01*
X90625939Y-67409638D02*
X90911653Y-67504876D01*
X90911653Y-67504876D02*
X91006891Y-67600114D01*
X91864034Y-67409638D02*
X91864034Y-69028685D01*
X91864034Y-69028685D02*
X91959272Y-69219161D01*
X91959272Y-69219161D02*
X92054510Y-69314400D01*
X92054510Y-69314400D02*
X92244986Y-69409638D01*
X92244986Y-69409638D02*
X92625939Y-69409638D01*
X92625939Y-69409638D02*
X92816415Y-69314400D01*
X92816415Y-69314400D02*
X92911653Y-69219161D01*
X92911653Y-69219161D02*
X93006891Y-69028685D01*
X93006891Y-69028685D02*
X93006891Y-67409638D01*
X93673558Y-67409638D02*
X94816415Y-67409638D01*
X94244986Y-69409638D02*
X94244986Y-67409638D01*
X85387844Y-5909638D02*
X86054510Y-7909638D01*
X86054510Y-7909638D02*
X86721177Y-5909638D01*
X87387844Y-7147733D02*
X88911654Y-7147733D01*
X91006891Y-7719161D02*
X90911653Y-7814400D01*
X90911653Y-7814400D02*
X90625939Y-7909638D01*
X90625939Y-7909638D02*
X90435463Y-7909638D01*
X90435463Y-7909638D02*
X90149748Y-7814400D01*
X90149748Y-7814400D02*
X89959272Y-7623923D01*
X89959272Y-7623923D02*
X89864034Y-7433447D01*
X89864034Y-7433447D02*
X89768796Y-7052495D01*
X89768796Y-7052495D02*
X89768796Y-6766780D01*
X89768796Y-6766780D02*
X89864034Y-6385828D01*
X89864034Y-6385828D02*
X89959272Y-6195352D01*
X89959272Y-6195352D02*
X90149748Y-6004876D01*
X90149748Y-6004876D02*
X90435463Y-5909638D01*
X90435463Y-5909638D02*
X90625939Y-5909638D01*
X90625939Y-5909638D02*
X90911653Y-6004876D01*
X90911653Y-6004876D02*
X91006891Y-6100114D01*
X91864034Y-5909638D02*
X91864034Y-7528685D01*
X91864034Y-7528685D02*
X91959272Y-7719161D01*
X91959272Y-7719161D02*
X92054510Y-7814400D01*
X92054510Y-7814400D02*
X92244986Y-7909638D01*
X92244986Y-7909638D02*
X92625939Y-7909638D01*
X92625939Y-7909638D02*
X92816415Y-7814400D01*
X92816415Y-7814400D02*
X92911653Y-7719161D01*
X92911653Y-7719161D02*
X93006891Y-7528685D01*
X93006891Y-7528685D02*
X93006891Y-5909638D01*
X93673558Y-5909638D02*
X94816415Y-5909638D01*
X94244986Y-7909638D02*
X94244986Y-5909638D01*
X85387844Y-123909638D02*
X86054510Y-125909638D01*
X86054510Y-125909638D02*
X86721177Y-123909638D01*
X87387844Y-125147733D02*
X88911654Y-125147733D01*
X91006891Y-125719161D02*
X90911653Y-125814400D01*
X90911653Y-125814400D02*
X90625939Y-125909638D01*
X90625939Y-125909638D02*
X90435463Y-125909638D01*
X90435463Y-125909638D02*
X90149748Y-125814400D01*
X90149748Y-125814400D02*
X89959272Y-125623923D01*
X89959272Y-125623923D02*
X89864034Y-125433447D01*
X89864034Y-125433447D02*
X89768796Y-125052495D01*
X89768796Y-125052495D02*
X89768796Y-124766780D01*
X89768796Y-124766780D02*
X89864034Y-124385828D01*
X89864034Y-124385828D02*
X89959272Y-124195352D01*
X89959272Y-124195352D02*
X90149748Y-124004876D01*
X90149748Y-124004876D02*
X90435463Y-123909638D01*
X90435463Y-123909638D02*
X90625939Y-123909638D01*
X90625939Y-123909638D02*
X90911653Y-124004876D01*
X90911653Y-124004876D02*
X91006891Y-124100114D01*
X91864034Y-123909638D02*
X91864034Y-125528685D01*
X91864034Y-125528685D02*
X91959272Y-125719161D01*
X91959272Y-125719161D02*
X92054510Y-125814400D01*
X92054510Y-125814400D02*
X92244986Y-125909638D01*
X92244986Y-125909638D02*
X92625939Y-125909638D01*
X92625939Y-125909638D02*
X92816415Y-125814400D01*
X92816415Y-125814400D02*
X92911653Y-125719161D01*
X92911653Y-125719161D02*
X93006891Y-125528685D01*
X93006891Y-125528685D02*
X93006891Y-123909638D01*
X93673558Y-123909638D02*
X94816415Y-123909638D01*
X94244986Y-125909638D02*
X94244986Y-123909638D01*
X85387844Y-128909638D02*
X86054510Y-130909638D01*
X86054510Y-130909638D02*
X86721177Y-128909638D01*
X87387844Y-130147733D02*
X88911654Y-130147733D01*
X91006891Y-130719161D02*
X90911653Y-130814400D01*
X90911653Y-130814400D02*
X90625939Y-130909638D01*
X90625939Y-130909638D02*
X90435463Y-130909638D01*
X90435463Y-130909638D02*
X90149748Y-130814400D01*
X90149748Y-130814400D02*
X89959272Y-130623923D01*
X89959272Y-130623923D02*
X89864034Y-130433447D01*
X89864034Y-130433447D02*
X89768796Y-130052495D01*
X89768796Y-130052495D02*
X89768796Y-129766780D01*
X89768796Y-129766780D02*
X89864034Y-129385828D01*
X89864034Y-129385828D02*
X89959272Y-129195352D01*
X89959272Y-129195352D02*
X90149748Y-129004876D01*
X90149748Y-129004876D02*
X90435463Y-128909638D01*
X90435463Y-128909638D02*
X90625939Y-128909638D01*
X90625939Y-128909638D02*
X90911653Y-129004876D01*
X90911653Y-129004876D02*
X91006891Y-129100114D01*
X91864034Y-128909638D02*
X91864034Y-130528685D01*
X91864034Y-130528685D02*
X91959272Y-130719161D01*
X91959272Y-130719161D02*
X92054510Y-130814400D01*
X92054510Y-130814400D02*
X92244986Y-130909638D01*
X92244986Y-130909638D02*
X92625939Y-130909638D01*
X92625939Y-130909638D02*
X92816415Y-130814400D01*
X92816415Y-130814400D02*
X92911653Y-130719161D01*
X92911653Y-130719161D02*
X93006891Y-130528685D01*
X93006891Y-130528685D02*
X93006891Y-128909638D01*
X93673558Y-128909638D02*
X94816415Y-128909638D01*
X94244986Y-130909638D02*
X94244986Y-128909638D01*
X85387844Y-62409638D02*
X86054510Y-64409638D01*
X86054510Y-64409638D02*
X86721177Y-62409638D01*
X87387844Y-63647733D02*
X88911654Y-63647733D01*
X91006891Y-64219161D02*
X90911653Y-64314400D01*
X90911653Y-64314400D02*
X90625939Y-64409638D01*
X90625939Y-64409638D02*
X90435463Y-64409638D01*
X90435463Y-64409638D02*
X90149748Y-64314400D01*
X90149748Y-64314400D02*
X89959272Y-64123923D01*
X89959272Y-64123923D02*
X89864034Y-63933447D01*
X89864034Y-63933447D02*
X89768796Y-63552495D01*
X89768796Y-63552495D02*
X89768796Y-63266780D01*
X89768796Y-63266780D02*
X89864034Y-62885828D01*
X89864034Y-62885828D02*
X89959272Y-62695352D01*
X89959272Y-62695352D02*
X90149748Y-62504876D01*
X90149748Y-62504876D02*
X90435463Y-62409638D01*
X90435463Y-62409638D02*
X90625939Y-62409638D01*
X90625939Y-62409638D02*
X90911653Y-62504876D01*
X90911653Y-62504876D02*
X91006891Y-62600114D01*
X91864034Y-62409638D02*
X91864034Y-64028685D01*
X91864034Y-64028685D02*
X91959272Y-64219161D01*
X91959272Y-64219161D02*
X92054510Y-64314400D01*
X92054510Y-64314400D02*
X92244986Y-64409638D01*
X92244986Y-64409638D02*
X92625939Y-64409638D01*
X92625939Y-64409638D02*
X92816415Y-64314400D01*
X92816415Y-64314400D02*
X92911653Y-64219161D01*
X92911653Y-64219161D02*
X93006891Y-64028685D01*
X93006891Y-64028685D02*
X93006891Y-62409638D01*
X93673558Y-62409638D02*
X94816415Y-62409638D01*
X94244986Y-64409638D02*
X94244986Y-62409638D01*
X5909638Y6387845D02*
X7909638Y7054511D01*
X7909638Y7054511D02*
X5909638Y7721178D01*
X7147733Y8387845D02*
X7147733Y9911654D01*
X7719161Y12006892D02*
X7814400Y11911654D01*
X7814400Y11911654D02*
X7909638Y11625940D01*
X7909638Y11625940D02*
X7909638Y11435464D01*
X7909638Y11435464D02*
X7814400Y11149749D01*
X7814400Y11149749D02*
X7623923Y10959273D01*
X7623923Y10959273D02*
X7433447Y10864035D01*
X7433447Y10864035D02*
X7052495Y10768797D01*
X7052495Y10768797D02*
X6766780Y10768797D01*
X6766780Y10768797D02*
X6385828Y10864035D01*
X6385828Y10864035D02*
X6195352Y10959273D01*
X6195352Y10959273D02*
X6004876Y11149749D01*
X6004876Y11149749D02*
X5909638Y11435464D01*
X5909638Y11435464D02*
X5909638Y11625940D01*
X5909638Y11625940D02*
X6004876Y11911654D01*
X6004876Y11911654D02*
X6100114Y12006892D01*
X5909638Y12864035D02*
X7528685Y12864035D01*
X7528685Y12864035D02*
X7719161Y12959273D01*
X7719161Y12959273D02*
X7814400Y13054511D01*
X7814400Y13054511D02*
X7909638Y13244987D01*
X7909638Y13244987D02*
X7909638Y13625940D01*
X7909638Y13625940D02*
X7814400Y13816416D01*
X7814400Y13816416D02*
X7719161Y13911654D01*
X7719161Y13911654D02*
X7528685Y14006892D01*
X7528685Y14006892D02*
X5909638Y14006892D01*
X5909638Y14673559D02*
X5909638Y15816416D01*
X7909638Y15244987D02*
X5909638Y15244987D01*
X85387844Y-190409638D02*
X86054510Y-192409638D01*
X86054510Y-192409638D02*
X86721177Y-190409638D01*
X87387844Y-191647733D02*
X88911654Y-191647733D01*
X91006891Y-192219161D02*
X90911653Y-192314400D01*
X90911653Y-192314400D02*
X90625939Y-192409638D01*
X90625939Y-192409638D02*
X90435463Y-192409638D01*
X90435463Y-192409638D02*
X90149748Y-192314400D01*
X90149748Y-192314400D02*
X89959272Y-192123923D01*
X89959272Y-192123923D02*
X89864034Y-191933447D01*
X89864034Y-191933447D02*
X89768796Y-191552495D01*
X89768796Y-191552495D02*
X89768796Y-191266780D01*
X89768796Y-191266780D02*
X89864034Y-190885828D01*
X89864034Y-190885828D02*
X89959272Y-190695352D01*
X89959272Y-190695352D02*
X90149748Y-190504876D01*
X90149748Y-190504876D02*
X90435463Y-190409638D01*
X90435463Y-190409638D02*
X90625939Y-190409638D01*
X90625939Y-190409638D02*
X90911653Y-190504876D01*
X90911653Y-190504876D02*
X91006891Y-190600114D01*
X91864034Y-190409638D02*
X91864034Y-192028685D01*
X91864034Y-192028685D02*
X91959272Y-192219161D01*
X91959272Y-192219161D02*
X92054510Y-192314400D01*
X92054510Y-192314400D02*
X92244986Y-192409638D01*
X92244986Y-192409638D02*
X92625939Y-192409638D01*
X92625939Y-192409638D02*
X92816415Y-192314400D01*
X92816415Y-192314400D02*
X92911653Y-192219161D01*
X92911653Y-192219161D02*
X93006891Y-192028685D01*
X93006891Y-192028685D02*
X93006891Y-190409638D01*
X93673558Y-190409638D02*
X94816415Y-190409638D01*
X94244986Y-192409638D02*
X94244986Y-190409638D01*
M02*
